<svg xmlns="http://www.w3.org/2000/svg" width="40" height="39.93" viewBox="0 0 40 39.93"><defs><style>.a,.b{fill:#fff;}.a{opacity:0.196;}</style></defs><g transform="translate(0)"><rect class="a" width="40" height="39.93"/><path class="b" d="M182.189,298.966a4.087,4.087,0,0,0,3.7,2.279c1.555,0,2.548-.777,2.548-1.851,0-1.287-1.02-1.742-2.732-2.491l-.938-.4c-2.708-1.154-4.506-2.6-4.506-5.654,0-2.814,2.144-4.956,5.5-4.956a5.546,5.546,0,0,1,5.337,3l-2.922,1.876a2.552,2.552,0,0,0-2.415-1.608,1.633,1.633,0,0,0-1.8,1.608c0,1.126.7,1.581,2.307,2.279l.938.4c3.188,1.367,4.988,2.761,4.988,5.894,0,3.378-2.654,5.229-6.218,5.229a7.209,7.209,0,0,1-6.838-3.837Zm-13.255.325c.589,1.046,1.126,1.93,2.415,1.93,1.233,0,2.01-.482,2.01-2.358V286.1h3.752v12.809c0,3.885-2.278,5.654-5.6,5.654a5.825,5.825,0,0,1-5.629-3.427Z" transform="translate(-155.297 -267.77)"/></g></svg>