<svg xmlns="http://www.w3.org/2000/svg" width="99.5" height="28.665" viewBox="0 0 99.5 28.665"><defs><style>.a{fill:#fff;}</style></defs><g transform="translate(0)"><g transform="translate(0 0)"><path class="a" d="M-2.294,23.627c4.755-.84,8.682-1.535,8.727-1.545l.082-.017L2.026,16.726c-2.469-2.937-4.489-5.351-4.489-5.365S2.172-1.43,2.2-1.475c.009-.015,3.163,5.431,7.646,13.2l7.69,13.33.058.1-14.266,0-14.266,0,8.645-1.527Zm54.709-1.291c-2.172-.139-3.435-1.376-3.769-3.69a33.014,33.014,0,0,1-.1-4.629l-.009-3.869h1.922l.008,3.742c.007,3.373.011,3.768.043,4.005a3.548,3.548,0,0,0,.835,2.075,2.4,2.4,0,0,0,1.346.705,5.118,5.118,0,0,0,1.291,0,2.853,2.853,0,0,0,1.463-.794,3.867,3.867,0,0,0,.986-1.89l.057-.254.006-3.774L56.5,10.19h1.962V22.055H56.521v-.941a7.134,7.134,0,0,0-.022-.934.773.773,0,0,0-.111.17,3.948,3.948,0,0,1-1.5,1.5,4.22,4.22,0,0,1-2.47.482Zm22.042-.01a5.092,5.092,0,0,1-2.233-.729,5.443,5.443,0,0,1-2.454-4.229,10.222,10.222,0,0,1-.024-2.156,7,7,0,0,1,1.376-3.439,7.031,7.031,0,0,1,.831-.831,5.179,5.179,0,0,1,2.122-1.013,6.9,6.9,0,0,1,1.721-.1,4.525,4.525,0,0,1,3.05,1.567,5.988,5.988,0,0,1,1.231,3.724c.008.244.01.671,0,.95l-.011.507-4.206.005-4.206.005v.188a4.652,4.652,0,0,0,.379,1.776,3.905,3.905,0,0,0,.856,1.251,3.761,3.761,0,0,0,2.133.9,8.316,8.316,0,0,0,1.393-.053,5.906,5.906,0,0,0,2.627-1.084c.087-.065.171-.127.186-.136a3.549,3.549,0,0,1,.026.876V21.2l-.2.123a6.962,6.962,0,0,1-2.819.977,16.184,16.184,0,0,1-1.782.027Zm3.661-7.532a3.822,3.822,0,0,0-.974-2.568,2.677,2.677,0,0,0-1.485-.72,4.388,4.388,0,0,0-1.153.033,3.013,3.013,0,0,0-1.573.836,4.287,4.287,0,0,0-1.041,1.667,5.348,5.348,0,0,0-.2.819l-.014.1h6.441ZM21.059,22.028c0-.015,1.433-3.767,3.174-8.339L27.4,5.377h2.034l.084.216c.258.661,6.337,16.443,6.337,16.452s-.487.01-1.082.01H33.69l-.876-2.333-.876-2.333H24.882l-.031.079c-.017.044-.391,1.093-.832,2.332l-.8,2.253H22.134a5.846,5.846,0,0,1-1.075-.026Zm10.234-6.419s-.59-1.6-1.31-3.552A29.916,29.916,0,0,1,28.453,7.6c-.05-.275-.075-.282-.1-.032a5.822,5.822,0,0,1-.184.8c-.035.11-.642,1.777-1.349,3.7s-1.285,3.51-1.285,3.52,1.3.018,2.882.018,2.882,0,2.882-.007Zm5.214,6.142v-.3l3.515-4.831,3.515-4.831-3.182-.011-3.182-.011-.006-.807-.006-.807h9.2v.545l-3.515,4.858c-1.933,2.672-3.515,4.862-3.515,4.868s1.563.01,3.473.01h3.473v1.626H36.508Zm25.791.29c-.008-.008-.014-2.687-.014-5.953V10.148h1.921v1.224c0,.673.008,1.224.018,1.224a1.09,1.09,0,0,0,.1-.245A4.232,4.232,0,0,1,65.4,10.7a2.781,2.781,0,0,1,1.518-.755,3.144,3.144,0,0,1,.633-.023,2.805,2.805,0,0,1,.881.123l.079.026v1.994l-.227-.114a2.424,2.424,0,0,0-1.272-.255,2.3,2.3,0,0,0-.76.149,2.4,2.4,0,0,0-1.21.989,5.743,5.743,0,0,0-.8,2.31c-.016.141-.025,1.292-.029,3.56l-.005,3.351h-.946C62.739,22.055,62.306,22.048,62.3,22.04ZM-19.415,22c0-.008,2.115-3.679,4.7-8.16l4.7-8.146,5.478-4.6c3.013-2.528,5.486-4.6,5.5-4.6a.963.963,0,0,1-.088.222L-5.077,9.472-10.919,22l-4.248.005c-2.336,0-4.248,0-4.248-.008Z" transform="translate(19.415 3.507)"/></g></g></svg>