<?xml version="1.0" encoding="utf-8"?>
<!-- Generator: Adobe Illustrator 22.1.0, SVG Export Plug-In . SVG Version: 6.00 Build 0)  -->
<svg version="1.1" id="Layer_1" xmlns="http://www.w3.org/2000/svg" xmlns:xlink="http://www.w3.org/1999/xlink" x="0px" y="0px"
	 viewBox="0 0 669 144" style="enable-background:new 0 0 669 144;" xml:space="preserve">
<style type="text/css">
	.st0{fill:#FFFFFF;}
	.st1{fill:#FFFFFF;}
</style>
<polygon class="st0" points="12,119 37.7,119 46.7,97 30.1,76.5 "/>
<polygon class="st0" points="88.9,96.1 98.2,119 124.5,119 105.4,74.1 "/>
<path class="st0" d="M68,44.8L77.8,69L68,82.1L58.1,69L68,44.8z M130.5,28.9l-22.7,0L94,47.3L79.5,13.2H57L33.3,68.9L68,111.8
	L130.5,28.9z"/>
<g>
	<path class="st1" d="M173.4,101.1L169.6,89c-0.8-2.6-2-7.1-2-7.1h-0.1c0,0-1.2,4.5-2,7.1l-3.8,12.1H173.4z M161.4,69h12.7l18,49.9
		h-13l-2.9-9h-17.5l-2.9,9h-12.4L161.4,69z"/>
	<path class="st1" d="M221.7,101.5c0-6.1-2.3-10.2-7.2-10.2c-5,0-7.5,4.4-7.5,10.2c0,5.8,2.8,9.8,7.7,9.8
		C219,111.3,221.7,107.6,221.7,101.5 M196,83.2h10.9v4.3h0.2c2.4-3.2,5.9-5.4,10.8-5.4c9.5,0,15.3,8.2,15.3,18.9
		c0,11.6-6.2,19-15.6,19c-4.6,0-7.9-1.8-10.1-4.8h-0.1v15.5H196V83.2z"/>
	<path class="st1" d="M263.8,101.5c0-6.1-2.3-10.2-7.2-10.2c-5,0-7.5,4.4-7.5,10.2c0,5.8,2.8,9.8,7.7,9.8
		C261.2,111.3,263.8,107.6,263.8,101.5 M238.1,83.2H249v4.3h0.2c2.4-3.2,5.9-5.4,10.8-5.4c9.5,0,15.3,8.2,15.3,18.9
		c0,11.6-6.2,19-15.6,19c-4.6,0-7.9-1.8-10.1-4.8h-0.1v15.5h-11.4V83.2z"/>
	<path class="st1" d="M280.2,83.2h10.9v5.6h0.2c2.5-4.3,5.4-6.1,9.8-6.1c1,0,1.7,0.1,2.2,0.3v9.8h-0.3c-7-1-11.5,2.4-11.5,10.2V119
		h-11.4V83.2z"/>
	<path class="st1" d="M332.8,101.1c0-6.5-2.7-10.9-7.6-10.9c-5,0-7.5,4.4-7.5,10.9c0,6.5,2.6,10.8,7.5,10.8
		C330.1,112,332.8,107.6,332.8,101.1 M306.1,101.1c0-10.8,7.7-18.9,19.1-18.9c11.5,0,19.1,8.2,19.1,18.9c0,10.8-7.5,18.9-19.1,18.9
		C313.8,120.1,306.1,111.9,306.1,101.1"/>
	<path class="st1" d="M345.2,83.2h11.7l4.9,16.1c1,3.6,2,7.2,2,7.2h0.1c0,0,0.9-3.6,2-7.2l5-16.1h11.4L369.9,119h-12.3L345.2,83.2z"
		/>
	<path class="st1" d="M408.5,97.2c-0.4-4.3-3.1-7-6.8-7c-4.3,0-6.6,2.7-7.3,7H408.5z M383.1,101c0-10.7,7.5-18.9,18.4-18.9
		c5.1,0,9.1,1.7,12.2,4.5c4.3,3.9,6.4,10.1,6.3,17.4h-25.7c0.7,4.8,3.4,7.8,8,7.8c3,0,5-1.3,5.9-3.6h11.1c-0.8,3.2-2.9,6.3-6,8.5
		c-3,2.1-6.6,3.3-11.2,3.3C390.4,120,383.1,111.8,383.1,101"/>
</g>
<g>
	<path class="st1" d="M439.8,69.9h33v6.5h-25.7v14.4h25.1v6.5h-25.1v15.3h25.7v6.5h-33V69.9z"/>
	<path class="st1" d="M505.9,96.3c0-5.9-3-7.8-7.6-7.8c-4.1,0-7.9,2.5-9.8,5.2v25.4h-6.6V83.5h6.6v5c2.4-2.9,7.1-5.9,12.6-5.9
		c7.5,0,11.4,4,11.4,11.5v25h-6.6V96.3z"/>
	<path class="st1" d="M526,123.4c2.9,3.4,6.6,4.7,11.4,4.7c5.5,0,11.1-2.7,11.1-10.2v-4.6c-2.7,3.5-6.9,6.1-11.7,6.1
		c-9.2,0-15.9-6.8-15.9-18.4c0-11.4,6.6-18.4,15.9-18.4c4.6,0,8.8,2.2,11.7,6v-5.2h6.6v34.2c0,12.2-8.9,15.9-17.7,15.9
		c-6,0-10.3-1.3-14.6-5.3L526,123.4z M548.5,93.7c-1.8-2.9-5.9-5.2-9.9-5.2c-6.6,0-10.8,5.2-10.8,12.5c0,7.4,4.1,12.5,10.8,12.5
		c4,0,8-2.4,9.9-5.3V93.7z"/>
	<path class="st1" d="M564.6,73.3c0-2.4,2-4.3,4.3-4.3c2.4,0,4.3,1.9,4.3,4.3s-1.9,4.2-4.3,4.2C566.6,77.5,564.6,75.7,564.6,73.3z
		 M565.6,83.5h6.6v35.6h-6.6V83.5z"/>
	<path class="st1" d="M606.9,96.3c0-5.9-3-7.8-7.6-7.8c-4.1,0-7.9,2.5-9.8,5.2v25.4h-6.6V83.5h6.6v5c2.4-2.9,7.1-5.9,12.6-5.9
		c7.5,0,11.4,4,11.4,11.5v25h-6.6V96.3z"/>
	<path class="st1" d="M639.7,82.6c10.7,0,17.3,8.3,17.3,19.2v1.6h-28.2c0.5,6,4.9,11.1,12.1,11.1c3.8,0,7.9-1.5,10.5-4.2l3.1,4.3
		c-3.5,3.5-8.6,5.3-14.3,5.3c-10.6,0-18.4-7.5-18.4-18.7C621.8,90.9,629.3,82.6,639.7,82.6z M628.8,98.7h21.8
		c-0.1-4.7-3.3-10.6-10.8-10.6C632.5,88,629.1,93.8,628.8,98.7z"/>
</g>
</svg>
