<svg xmlns="http://www.w3.org/2000/svg" width="176" height="32.452" viewBox="0 0 176 32.452"><defs><style>.a,.b{fill:#fff;}.b{opacity:0.25;}</style></defs><g transform="translate(-2 -2)"><path class="a" d="M41.047,25.528a9.857,9.857,0,0,1-3.61-.658,8.729,8.729,0,0,1-4.9-4.645,8.473,8.473,0,0,1-.728-3.522v-.05a8.486,8.486,0,0,1,.715-3.474,8.847,8.847,0,0,1,1.971-2.827,9.04,9.04,0,0,1,2.982-1.89,10.22,10.22,0,0,1,3.776-.688,11.369,11.369,0,0,1,2.509.256,8.85,8.85,0,0,1,2.063.731,8.312,8.312,0,0,1,1.689,1.133,9.575,9.575,0,0,1,1.249,1.314.154.154,0,0,1-.026.215l-.006,0L45.243,14a.164.164,0,0,1-.218-.026,6.314,6.314,0,0,0-1.593-1.347A4.364,4.364,0,0,0,41.2,12.09a4.1,4.1,0,0,0-3.071,1.316,4.489,4.489,0,0,0-.884,1.438,4.826,4.826,0,0,0-.321,1.756v.049a5,5,0,0,0,.321,1.787,4.432,4.432,0,0,0,.884,1.45A4.1,4.1,0,0,0,41.2,21.2a5.158,5.158,0,0,0,1.268-.146,4,4,0,0,0,1.05-.426,5.711,5.711,0,0,0,.9-.659,9.992,9.992,0,0,0,.833-.841l3.6,2.442a.156.156,0,0,1,.042.216l-.006.009A12.878,12.878,0,0,1,47.592,23.2a7.978,7.978,0,0,1-1.716,1.22,9.184,9.184,0,0,1-2.149.805,11.233,11.233,0,0,1-2.676.293" transform="translate(7.399 1.433)"/><path class="a" d="M50.348,25.1a5.843,5.843,0,0,1-1.844-.275A4.345,4.345,0,0,1,47.032,24a3.776,3.776,0,0,1-.986-1.332,4.427,4.427,0,0,1-.358-1.842V20.77a4.3,4.3,0,0,1,.4-1.895,3.712,3.712,0,0,1,1.1-1.357,5.027,5.027,0,0,1,1.7-.825,8.176,8.176,0,0,1,2.227-.275,10.074,10.074,0,0,1,1.856.166,10.481,10.481,0,0,1,1.47.372v-.231a2.081,2.081,0,0,0-.678-1.664,3.125,3.125,0,0,0-2.087-.589,9.008,9.008,0,0,0-2,.2,13.1,13.1,0,0,0-1.65.5.157.157,0,0,1-.2-.089l0-.012-.909-3.124a.164.164,0,0,1,.095-.2,15.168,15.168,0,0,1,2.36-.726,14.372,14.372,0,0,1,3.109-.295,10.017,10.017,0,0,1,3.163.436,5.35,5.35,0,0,1,2.112,1.254,4.388,4.388,0,0,1,1.138,1.856,8.451,8.451,0,0,1,.345,2.546v7.8a.161.161,0,0,1-.161.161H54.421V23.355a5.174,5.174,0,0,1-4.07,1.741m1.741-3.047a2.465,2.465,0,0,0,1.74-.615,2.153,2.153,0,0,0,.668-1.665V19.13a4.471,4.471,0,0,0-.859-.256,5.151,5.151,0,0,0-1.036-.1,2.539,2.539,0,0,0-1.65.473,1.532,1.532,0,0,0-.577,1.237v.051a1.357,1.357,0,0,0,.487,1.113,1.875,1.875,0,0,0,1.228.4" transform="translate(10.844 2.168)"/><path class="a" d="M57.96,10.955h4.572a.161.161,0,0,1,.161.161h0v2.624a5.7,5.7,0,0,1,1.613-2.254,3.845,3.845,0,0,1,2.6-.774.171.171,0,0,1,.165.166v4.965h-.412a3.779,3.779,0,0,0-2.945,1.127,5.138,5.138,0,0,0-1.024,3.534v4.139a.161.161,0,0,1-.161.161H57.961a.161.161,0,0,1-.161-.161h0V11.117a.162.162,0,0,1,.16-.162h0" transform="translate(13.851 2.16)"/><path class="a" d="M67.052,8.066H81.066a.157.157,0,0,1,.161.152v3.831a.157.157,0,0,1-.161.154H72.019a.158.158,0,0,0-.161.152v2.564a.159.159,0,0,0,.161.155h8.152a.157.157,0,0,1,.161.152h0v3.636a.156.156,0,0,1-.16.154H72.019a.157.157,0,0,0-.161.152h0v5.776a.156.156,0,0,1-.161.152H67.052a.159.159,0,0,1-.161-.152V8.221a.159.159,0,0,1,.161-.155" transform="translate(16.108 1.506)"/><path class="a" d="M85.08,10.967h4.567a.161.161,0,0,1,.161.161h0v1.787a8.573,8.573,0,0,1,.733-.844,4.678,4.678,0,0,1,.911-.716,5.03,5.03,0,0,1,1.112-.5,4.393,4.393,0,0,1,1.341-.191,4.5,4.5,0,0,1,3.486,1.357A5.311,5.311,0,0,1,98.64,15.76v8.9a.161.161,0,0,1-.161.161H93.911a.161.161,0,0,1-.161-.161h0V17.317a2.524,2.524,0,0,0-.53-1.741,1.787,1.787,0,0,0-1.391-.589,1.928,1.928,0,0,0-1.453.589,2.416,2.416,0,0,0-.568,1.741v7.34a.161.161,0,0,1-.161.161H85.08a.161.161,0,0,1-.161-.161h0V11.13a.162.162,0,0,1,.16-.162h0" transform="translate(20.583 2.149)"/><path class="a" d="M101.672,25.1a5.843,5.843,0,0,1-1.844-.275A4.345,4.345,0,0,1,98.356,24a3.776,3.776,0,0,1-.986-1.332,4.427,4.427,0,0,1-.358-1.842V20.77a4.3,4.3,0,0,1,.4-1.895,3.712,3.712,0,0,1,1.1-1.357,5.027,5.027,0,0,1,1.7-.825,8.173,8.173,0,0,1,2.226-.275,10.054,10.054,0,0,1,1.856.166,10.47,10.47,0,0,1,1.473.372v-.231a2.081,2.081,0,0,0-.678-1.664A3.125,3.125,0,0,0,103,14.473a9.008,9.008,0,0,0-2,.2,13.034,13.034,0,0,0-1.65.5.157.157,0,0,1-.2-.089l0-.012-.909-3.124a.164.164,0,0,1,.095-.2,15.153,15.153,0,0,1,2.359-.726,14.383,14.383,0,0,1,3.111-.295,10.017,10.017,0,0,1,3.163.436,5.35,5.35,0,0,1,2.112,1.254,4.4,4.4,0,0,1,1.138,1.856,8.49,8.49,0,0,1,.345,2.546v7.8a.161.161,0,0,1-.161.161h-4.656V23.355a5.172,5.172,0,0,1-4.069,1.741m1.74-3.047a2.466,2.466,0,0,0,1.741-.615,2.156,2.156,0,0,0,.667-1.665V19.13a4.459,4.459,0,0,0-.858-.256,5.172,5.172,0,0,0-1.037-.1,2.541,2.541,0,0,0-1.65.473,1.534,1.534,0,0,0-.575,1.237v.051a1.354,1.354,0,0,0,.487,1.113,1.873,1.873,0,0,0,1.228.4" transform="translate(23.584 2.168)"/><path class="a" d="M109.24,10.967h4.567a.161.161,0,0,1,.161.161h0v1.787a8.573,8.573,0,0,1,.733-.844,4.678,4.678,0,0,1,.911-.716,5.03,5.03,0,0,1,1.112-.5,4.392,4.392,0,0,1,1.341-.191,4.5,4.5,0,0,1,3.486,1.357A5.311,5.311,0,0,1,122.8,15.76v8.9a.16.16,0,0,1-.16.161h-4.569a.161.161,0,0,1-.161-.161h0V17.317a2.524,2.524,0,0,0-.531-1.741,1.787,1.787,0,0,0-1.391-.589,1.928,1.928,0,0,0-1.453.589,2.416,2.416,0,0,0-.568,1.741v7.34a.161.161,0,0,1-.161.161H109.24a.161.161,0,0,1-.161-.161h0V11.13a.161.161,0,0,1,.16-.162h0" transform="translate(26.58 2.149)"/><path class="a" d="M127.783,25.139a7.152,7.152,0,0,1-7.246-7.2v-.05a7.11,7.11,0,0,1,4.415-6.644,7.7,7.7,0,0,1,3.008-.577,6.969,6.969,0,0,1,3.585.845,6.851,6.851,0,0,1,2.244,2.119.17.17,0,0,1-.04.227L130.7,16.137a.16.16,0,0,1-.218-.035,4.249,4.249,0,0,0-1-.95,2.668,2.668,0,0,0-1.485-.383,2.45,2.45,0,0,0-1.087.243,2.594,2.594,0,0,0-.858.665,3.178,3.178,0,0,0-.564.972,3.363,3.363,0,0,0-.2,1.191v.05a3.667,3.667,0,0,0,.2,1.238,3.128,3.128,0,0,0,.564,1,2.572,2.572,0,0,0,2,.909,2.693,2.693,0,0,0,1.473-.384,5.618,5.618,0,0,0,1.1-.941.161.161,0,0,1,.211-.025l3,2.177a.167.167,0,0,1,.039.231,7.619,7.619,0,0,1-2.337,2.168,7.225,7.225,0,0,1-3.738.87" transform="translate(29.424 2.152)"/><path class="a" d="M139.223,25.144a8.266,8.266,0,0,1-3-.526,7.034,7.034,0,0,1-2.337-1.46,6.506,6.506,0,0,1-1.538-2.266,7.624,7.624,0,0,1-.549-2.945V17.9a7.767,7.767,0,0,1,.51-2.83,7,7,0,0,1,1.447-2.3,6.775,6.775,0,0,1,2.216-1.549,6.926,6.926,0,0,1,2.816-.563,7.279,7.279,0,0,1,3.109.614,6.145,6.145,0,0,1,2.177,1.65,6.961,6.961,0,0,1,1.281,2.405,9.881,9.881,0,0,1,.422,2.906v.487a5.006,5.006,0,0,1-.026.512h-9.267a2.858,2.858,0,0,0,1.062,1.715,3.219,3.219,0,0,0,1.932.563,3.8,3.8,0,0,0,1.6-.333,4.993,4.993,0,0,0,1.376-.972.157.157,0,0,1,.211-.012l2.453,2.032a.17.17,0,0,1,.024.235,7.475,7.475,0,0,1-2.383,1.922,7.59,7.59,0,0,1-3.545.769m2-8.4a3.082,3.082,0,0,0-.768-1.83,2.157,2.157,0,0,0-1.638-.679,2.044,2.044,0,0,0-1.588.679,3.6,3.6,0,0,0-.825,1.83Z" transform="translate(32.22 2.147)"/><path class="a" d="M81.982,12.8a4.133,4.133,0,0,1-2.269-.688.113.113,0,0,0-.176.092V24.262a.161.161,0,0,0,.161.161h4.568a.161.161,0,0,0,.161-.161h0V12.2a.112.112,0,0,0-.176-.092,4.119,4.119,0,0,1-2.268.688" transform="translate(19.247 2.505)"/><path class="a" d="M79.5,10.093a2.5,2.5,0,1,1,2.5,2.5,2.5,2.5,0,0,1-2.5-2.5h0" transform="translate(19.237 1.39)"/><path class="b" d="M2,18.226A16.454,16.454,0,0,1,18.671,2,16.454,16.454,0,0,1,35.344,18.226,16.454,16.454,0,0,1,18.671,34.45,16.453,16.453,0,0,1,2,18.226" transform="translate(0 0)"/><path class="a" d="M15.8,18.662h3.458a.112.112,0,0,1,.111.112.12.12,0,0,1-.007.041,7.571,7.571,0,1,1,0-5.737.111.111,0,0,1-.062.145.11.11,0,0,1-.041.007H15.8a.1.1,0,0,1-.081-.039,4.343,4.343,0,0,0-7.7,2.888,4.394,4.394,0,0,0,4.159,4.212A4.338,4.338,0,0,0,15.719,18.7a.1.1,0,0,1,.081-.039m13.352-4.51H16.41a.06.06,0,0,0-.06.061.051.051,0,0,0,0,.024,4.309,4.309,0,0,1,0,3.42.061.061,0,0,0,.03.08.059.059,0,0,0,.025,0h5.049a.063.063,0,0,1,.062.062v5.022a.061.061,0,0,0,.061.061h3.464a.061.061,0,0,0,.061-.061V17.8a.063.063,0,0,1,.062-.062H27.51a.062.062,0,0,1,.061.062v5.019a.062.062,0,0,0,.062.061h1.45a2.074,2.074,0,0,0,2.077-2.075V16.167a2.014,2.014,0,0,0-2.013-2.015h0" transform="translate(0.691 1.582)"/></g></svg>