<svg xmlns="http://www.w3.org/2000/svg" width="80" height="80" viewBox="0 0 80 80"><defs><style>.a{fill:#63b245;}.b{fill:#fff;}</style></defs><g transform="translate(-168 -2352.998)"><path class="a" d="M4,46.94c.3-22.39,18.2-40.295,40-40a40,40,0,1,1,0,79.993c-21.8.3-39.7-17.606-40-40" transform="translate(164 2346.057)"/><path class="b" d="M43.2,63.427h8.24a.264.264,0,0,1,.217.122.283.283,0,0,1,.027.254A17.926,17.926,0,0,1,31.514,75.034a18.776,18.776,0,0,1,0-36.59A17.926,17.926,0,0,1,51.688,49.676a.283.283,0,0,1-.027.254.264.264,0,0,1-.217.122H43.2a.251.251,0,0,1-.2-.1,10.132,10.132,0,0,0-11.634-3.24,10.772,10.772,0,0,0,3.2,20.717,10.186,10.186,0,0,0,8.441-3.9.245.245,0,0,1,.2-.1M75.018,52.328H44.658a.142.142,0,0,0-.119.066.152.152,0,0,0-.012.139,10.94,10.94,0,0,1,0,8.418.152.152,0,0,0,.012.139.142.142,0,0,0,.119.066H56.687a.151.151,0,0,1,.149.152V73.668a.152.152,0,0,0,.147.154h8.254a.145.145,0,0,0,.1-.045.155.155,0,0,0,.042-.109V61.308a.151.151,0,0,1,.149-.152h5.587a.152.152,0,0,1,.147.152V73.668a.152.152,0,0,0,.147.154h3.456a5.033,5.033,0,0,0,4.949-5.116V57.282a4.883,4.883,0,0,0-4.8-4.962" transform="translate(159.693 2334.539)"/></g></svg>