<svg xmlns="http://www.w3.org/2000/svg" 
    xmlns:xlink="http://www.w3.org/1999/xlink" height="100%" width="100%" viewBox="0 0 640 640">
    <defs>
        <style>
              .cls-1 {
                fill: #2c2c2c;
                opacity: 0;
              }

              .cls-2 {
                fill: url(#radial-gradient);
              }

              .cls-18,
              .cls-19,
              .cls-20,
              .cls-3,
              .cls-4,
              .cls-5,
              .cls-6,
              .cls-7 {
                opacity: 0.92;
              }

              .cls-3 {
                fill: url(#linear-gradient);
              }

              .cls-4 {
                fill: url(#linear-gradient-2);
              }

              .cls-5 {
                fill: url(#linear-gradient-3);
              }

              .cls-6 {
                fill: url(#linear-gradient-4);
              }

              .cls-7 {
                fill: red;
              }

              .cls-8 {
                fill: url(#radial-gradient-2);
              }

              .cls-9 {
                fill: url(#linear-gradient-5);
              }

              .cls-10 {
                fill: url(#radial-gradient-3);
              }

              .cls-11 {
                fill: url(#linear-gradient-6);
              }

              .cls-12 {
                fill: url(#linear-gradient-7);
              }

              .cls-13 {
                fill: url(#linear-gradient-8);
              }

              .cls-14 {
                fill: url(#linear-gradient-9);
              }

              .cls-15 {
                fill: url(#linear-gradient-10);
              }

              .cls-16 {
                fill: url(#linear-gradient-11);
              }

              .cls-17 {
                fill: url(#linear-gradient-12);
              }

              .cls-18 {
                fill: url(#radial-gradient-4);
              }

              .cls-19 {
                fill: url(#linear-gradient-13);
              }

              .cls-20 {
                fill: url(#linear-gradient-14);
              }

              .cls-21 {
                fill: url(#linear-gradient-15);
              }

              .cls-22 {
                fill: #fff;
              }

              .cls-23 {
                opacity: 0.77;
                fill: url(#linear-gradient-16);
              }

              .cls-24 {
                opacity: 0.74;
                fill: url(#linear-gradient-17);
              }

              .cls-25 {
                fill: url(#linear-gradient-18);
              }

              .cls-26 {
                fill: url(#linear-gradient-19);
              }

              .cls-27 {
                fill: url(#linear-gradient-20);
              }
        </style>
        <radialGradient id="radial-gradient" cx="318.95" cy="464.25" r="317.36" gradientTransform="translate(0 217.62) scale(1 0.53)" gradientUnits="userSpaceOnUse">
            <stop offset="0" stop-color="#fff" stop-opacity="0.46" />
            <stop offset="0.19" stop-color="#f8f8f8" stop-opacity="0.45" />
            <stop offset="0.38" stop-color="#e4e4e4" stop-opacity="0.4" />
            <stop offset="0.56" stop-color="#c2c2c2" stop-opacity="0.33" />
            <stop offset="0.73" stop-color="#929292" stop-opacity="0.22" />
            <stop offset="0.9" stop-color="#555" stop-opacity="0.09" />
            <stop offset="1" stop-color="#2c2c2c" stop-opacity="0" />
        </radialGradient>
        <linearGradient id="linear-gradient" x1="322.07" y1="546.64" x2="322.07" y2="369.25" gradientUnits="userSpaceOnUse">
            <stop offset="0" stop-color="#fff" stop-opacity="0.8" />
            <stop offset="0.46" stop-color="#fff" stop-opacity="0.88" />
            <stop offset="1" stop-color="#fff" />
        </linearGradient>
        <linearGradient id="linear-gradient-2" x1="322.07" y1="448.37" x2="322.07" y2="119.79" gradientUnits="userSpaceOnUse">
            <stop offset="0" stop-color="#fff" stop-opacity="0.2" />
            <stop offset="0.02" stop-color="#fff" stop-opacity="0.19" />
            <stop offset="0.27" stop-color="#fff" stop-opacity="0.09" />
            <stop offset="0.5" stop-color="#fff" stop-opacity="0.02" />
            <stop offset="0.67" stop-color="#fff" stop-opacity="0" />
        </linearGradient>
        <linearGradient id="linear-gradient-3" x1="505.22" y1="342.45" x2="442.88" y2="333.75" gradientUnits="userSpaceOnUse">
            <stop offset="0" stop-color="#00daff" stop-opacity="0.5" />
            <stop offset="0.05" stop-color="#00daff" stop-opacity="0.44" />
            <stop offset="0.25" stop-color="#00daff" stop-opacity="0.25" />
            <stop offset="0.43" stop-color="#00daff" stop-opacity="0.12" />
            <stop offset="0.58" stop-color="#00daff" stop-opacity="0.03" />
            <stop offset="0.67" stop-color="#00daff" stop-opacity="0" />
        </linearGradient>
        <linearGradient id="linear-gradient-4" x1="140.84" y1="340.15" x2="190.62" y2="334.35" xlink:href="#linear-gradient-3" />
        <radialGradient id="radial-gradient-2" cx="179.27" cy="425.57" r="178.47" gradientUnits="userSpaceOnUse">
            <stop offset="0.02" stop-color="#fff" stop-opacity="0.7" />
            <stop offset="0.38" stop-color="#ff9c9c" stop-opacity="0.43" />
            <stop offset="0.8" stop-color="#ff2c2c" stop-opacity="0.12" />
            <stop offset="1" stop-color="red" stop-opacity="0" />
        </radialGradient>
        <linearGradient id="linear-gradient-5" x1="433.16" y1="508.25" x2="348.11" y2="447.36" gradientUnits="userSpaceOnUse">
            <stop offset="0.01" stop-color="#00d8ff" stop-opacity="0.7" />
            <stop offset="0.12" stop-color="#00d8ff" stop-opacity="0.57" />
            <stop offset="0.31" stop-color="#00d9ff" stop-opacity="0.37" />
            <stop offset="0.49" stop-color="#00d9ff" stop-opacity="0.21" />
            <stop offset="0.66" stop-color="#00daff" stop-opacity="0.09" />
            <stop offset="0.8" stop-color="#00daff" stop-opacity="0.02" />
            <stop offset="0.9" stop-color="#00daff" stop-opacity="0" />
        </linearGradient>
        <radialGradient id="radial-gradient-3" cx="465.9" cy="422.75" r="178.15" gradientUnits="userSpaceOnUse">
            <stop offset="0.01" stop-color="#00d8ff" stop-opacity="0.7" />
            <stop offset="0.13" stop-color="#00d8ff" stop-opacity="0.57" />
            <stop offset="0.34" stop-color="#00d9ff" stop-opacity="0.37" />
            <stop offset="0.54" stop-color="#00d9ff" stop-opacity="0.21" />
            <stop offset="0.73" stop-color="#00daff" stop-opacity="0.09" />
            <stop offset="0.88" stop-color="#00daff" stop-opacity="0.02" />
            <stop offset="1" stop-color="#00daff" stop-opacity="0" />
        </radialGradient>
        <linearGradient id="linear-gradient-6" x1="223.43" y1="510.18" x2="258.7" y2="471.04" gradientUnits="userSpaceOnUse">
            <stop offset="0.22" stop-color="#00d8ff" stop-opacity="0.7" />
            <stop offset="0.32" stop-color="#00d8ff" stop-opacity="0.57" />
            <stop offset="0.49" stop-color="#00d9ff" stop-opacity="0.37" />
            <stop offset="0.64" stop-color="#00d9ff" stop-opacity="0.21" />
            <stop offset="0.79" stop-color="#00daff" stop-opacity="0.09" />
            <stop offset="0.91" stop-color="#00daff" stop-opacity="0.02" />
            <stop offset="1" stop-color="#00daff" stop-opacity="0" />
        </linearGradient>
        <linearGradient id="linear-gradient-7" x1="177.09" y1="438.87" x2="467.05" y2="438.87" gradientUnits="userSpaceOnUse">
            <stop offset="0" stop-color="red" stop-opacity="0" />
            <stop offset="0.28" stop-color="#ff8d8d" stop-opacity="0.39" />
            <stop offset="0.5" stop-color="#fff" stop-opacity="0.7" />
            <stop offset="0.58" stop-color="#ffcaca" stop-opacity="0.55" />
            <stop offset="0.72" stop-color="#ff7474" stop-opacity="0.32" />
            <stop offset="0.85" stop-color="#ff3535" stop-opacity="0.15" />
            <stop offset="0.94" stop-color="#ff0e0e" stop-opacity="0.04" />
            <stop offset="1" stop-color="red" stop-opacity="0" />
        </linearGradient>
        <linearGradient id="linear-gradient-8" x1="406.79" y1="503.05" x2="389.39" y2="472.85" gradientUnits="userSpaceOnUse">
            <stop offset="0.02" stop-color="#fff" stop-opacity="0.6" />
            <stop offset="0.17" stop-color="#fff" stop-opacity="0.44" />
            <stop offset="0.35" stop-color="#fff" stop-opacity="0.28" />
            <stop offset="0.53" stop-color="#fff" stop-opacity="0.16" />
            <stop offset="0.7" stop-color="#fff" stop-opacity="0.07" />
            <stop offset="0.86" stop-color="#fff" stop-opacity="0.02" />
            <stop offset="1" stop-color="#fff" stop-opacity="0" />
        </linearGradient>
        <linearGradient id="linear-gradient-9" x1="237.65" y1="503.3" x2="254.32" y2="473.09" xlink:href="#linear-gradient-8" />
        <linearGradient id="linear-gradient-10" x1="322.08" y1="479.12" x2="322.08" y2="123.74" gradientUnits="userSpaceOnUse">
            <stop offset="0" stop-color="red" stop-opacity="0.35" />
            <stop offset="0.16" stop-color="red" stop-opacity="0.25" />
            <stop offset="0.36" stop-color="red" stop-opacity="0.14" />
            <stop offset="0.57" stop-color="red" stop-opacity="0.06" />
            <stop offset="0.78" stop-color="red" stop-opacity="0.02" />
            <stop offset="1" stop-color="red" stop-opacity="0" />
        </linearGradient>
        <linearGradient id="linear-gradient-11" x1="476" y1="322.66" x2="436.58" y2="314.77" gradientUnits="userSpaceOnUse">
            <stop offset="0" stop-color="#ffb8b8" stop-opacity="0.35" />
            <stop offset="0.16" stop-color="#ffbaba" stop-opacity="0.25" />
            <stop offset="0.36" stop-color="#ffbcbc" stop-opacity="0.14" />
            <stop offset="0.57" stop-color="#ffbebe" stop-opacity="0.06" />
            <stop offset="0.78" stop-color="#ffbfbf" stop-opacity="0.02" />
            <stop offset="1" stop-color="#ffbfbf" stop-opacity="0" />
        </linearGradient>
        <linearGradient id="linear-gradient-12" x1="165.82" y1="320.05" x2="205.69" y2="313.53" xlink:href="#linear-gradient-11" />
        <radialGradient id="radial-gradient-4" cx="321.02" cy="504.3" r="177.29" gradientUnits="userSpaceOnUse">
            <stop offset="0" stop-color="#fff" stop-opacity="0.8" />
            <stop offset="0.06" stop-color="#ffebeb" stop-opacity="0.82" />
            <stop offset="0.4" stop-color="#f88" stop-opacity="0.89" />
            <stop offset="0.68" stop-color="#ff3e3e" stop-opacity="0.95" />
            <stop offset="0.89" stop-color="#f11" stop-opacity="0.99" />
            <stop offset="1" stop-color="red" />
        </radialGradient>
        <linearGradient id="linear-gradient-13" x1="417.31" y1="478.4" x2="335.65" y2="406.4" gradientUnits="userSpaceOnUse">
            <stop offset="0" stop-color="#00daff" stop-opacity="0.8" />
            <stop offset="0.14" stop-color="#34e1ff" stop-opacity="0.64" />
            <stop offset="0.36" stop-color="#7becff" stop-opacity="0.41" />
            <stop offset="0.57" stop-color="#b4f4ff" stop-opacity="0.23" />
            <stop offset="0.75" stop-color="#ddfaff" stop-opacity="0.11" />
            <stop offset="0.9" stop-color="#f6feff" stop-opacity="0.03" />
            <stop offset="1" stop-color="#fff" stop-opacity="0" />
        </linearGradient>
        <linearGradient id="linear-gradient-14" x1="421.87" y1="481.72" x2="274.97" y2="390.39" xlink:href="#linear-gradient-13" />
        <linearGradient id="linear-gradient-15" x1="236.41" y1="360.9" x2="294.88" y2="418.88" gradientUnits="userSpaceOnUse">
            <stop offset="0" stop-color="#00daff" stop-opacity="0.6" />
            <stop offset="0.23" stop-color="#51e6ff" stop-opacity="0.41" />
            <stop offset="0.47" stop-color="#9bf1ff" stop-opacity="0.23" />
            <stop offset="0.69" stop-color="#d2f8ff" stop-opacity="0.11" />
            <stop offset="0.88" stop-color="#f3fdff" stop-opacity="0.03" />
            <stop offset="1" stop-color="#fff" stop-opacity="0" />
        </linearGradient>
        <linearGradient id="linear-gradient-16" x1="305.78" y1="408.46" x2="305.78" y2="258.91" gradientUnits="userSpaceOnUse">
            <stop offset="0" stop-color="#fff" stop-opacity="0.8" />
            <stop offset="0.21" stop-color="#fff" stop-opacity="0.2" />
            <stop offset="0.96" stop-color="#fff" stop-opacity="0" />
        </linearGradient>
        <linearGradient id="linear-gradient-17" x1="324.64" y1="445.35" x2="324.64" y2="262.29" gradientUnits="userSpaceOnUse">
            <stop offset="0" stop-color="#fff" stop-opacity="0.8" />
            <stop offset="0.18" stop-color="#fff" stop-opacity="0.35" />
            <stop offset="0.75" stop-color="#fff" stop-opacity="0" />
        </linearGradient>
        <linearGradient id="linear-gradient-18" x1="375.53" y1="361.17" x2="347.5" y2="355.38" gradientUnits="userSpaceOnUse">
            <stop offset="0" stop-color="#fff" stop-opacity="0.6" />
            <stop offset="0.02" stop-color="#fff" stop-opacity="0.58" />
            <stop offset="0.2" stop-color="#fff" stop-opacity="0.37" />
            <stop offset="0.37" stop-color="#fff" stop-opacity="0.21" />
            <stop offset="0.52" stop-color="#fff" stop-opacity="0.1" />
            <stop offset="0.65" stop-color="#fff" stop-opacity="0.03" />
            <stop offset="0.75" stop-color="#fff" stop-opacity="0" />
        </linearGradient>
        <linearGradient id="linear-gradient-19" x1="375.98" y1="359.01" x2="347.95" y2="353.21" gradientUnits="userSpaceOnUse">
            <stop offset="0" stop-color="#fff" stop-opacity="0.8" />
            <stop offset="0.14" stop-color="#fff" stop-opacity="0.58" />
            <stop offset="0.29" stop-color="#fff" stop-opacity="0.37" />
            <stop offset="0.43" stop-color="#fff" stop-opacity="0.21" />
            <stop offset="0.56" stop-color="#fff" stop-opacity="0.1" />
            <stop offset="0.67" stop-color="#fff" stop-opacity="0.03" />
            <stop offset="0.75" stop-color="#fff" stop-opacity="0" />
        </linearGradient>
        <linearGradient id="linear-gradient-20" x1="278.34" y1="352.43" x2="295.25" y2="350.01" xlink:href="#linear-gradient-18" />
    </defs>
    <title>homepage-hero</title>
    <g id="Background">
        <rect class="cls-1" x="-0.55" y="-0.27" width="640.55" height="640.55" />
    </g>
    <g id="Spotlight">
        <ellipse id="Ellipse_1" data-name="Ellipse 1" class="cls-2" cx="319.73" cy="462.99" rx="320.27" ry="175.84" />
    </g>
    <g id="Inlay">
        <path class="cls-3" d="M156.28,454.87l150.82,91a28.85,28.85,0,0,0,29.78,0l151-91a11.37,11.37,0,0,0,0-19.5l-151-90.56a28.83,28.83,0,0,0-29.67,0L156.3,435.38A11.37,11.37,0,0,0,156.28,454.87Z" />
    </g>
    <g id="inlay-glow">
        <path class="cls-4" d="M493.36,445.37a11.26,11.26,0,0,1-5.5,9.52l-151,91a28.85,28.85,0,0,1-29.78,0l-150.82-91a11.28,11.28,0,0,1-5.5-9.5V113.88H493.36Z" />
    </g>
    <g id="inlay-right-glow">
        <path class="cls-5" d="M493.36,113.88V445.37a11.26,11.26,0,0,1-5.5,9.52l-151,91v-432Z" />
        <path class="cls-6" d="M150.77,113.88V445.37a11.26,11.26,0,0,0,5.5,9.52l151,91v-432Z" />
    </g>
    <g id="logo-side">
        <path class="cls-7" d="M307.1,545.87a28.85,28.85,0,0,0,29.78,0l130.17-78.45V416.16a9.54,9.54,0,0,0-4.67-8.31L334.56,331.2a24.41,24.41,0,0,0-25.12,0L181.76,407.84a9.54,9.54,0,0,0-4.66,8.46h0v51.13Z" />
    </g>
    <g id="logo-side-left">
        <path class="cls-8" d="M307.1,545.87a28.85,28.85,0,0,0,29.78,0l130.17-78.45V416.16a9.54,9.54,0,0,0-4.67-8.31L334.56,331.2a24.41,24.41,0,0,0-25.12,0L181.76,407.84a9.54,9.54,0,0,0-4.66,8.46h0v51.13Z" />
    </g>
    <g id="logo-side-right">
        <path class="cls-9" d="M462.38,407.85,334.56,331.2A24.31,24.31,0,0,0,322,327.73V550a28.89,28.89,0,0,0,14.88-4.13l130.17-78.45V416.16A9.54,9.54,0,0,0,462.38,407.85Z" />
        <path class="cls-10" d="M309.44,331.21,181.76,407.84a9.54,9.54,0,0,0-4.66,8.46h0v51.13l130,78.44A28.85,28.85,0,0,0,322,550V327.73A24.39,24.39,0,0,0,309.44,331.21Z" />
        <path class="cls-11" d="M309.44,331.21,181.76,407.84a9.54,9.54,0,0,0-4.66,8.46h0v51.13l130,78.44A28.85,28.85,0,0,0,322,550V327.73A24.39,24.39,0,0,0,309.44,331.21Z" />
    </g>
    <g id="logo-middle">
        <path class="cls-12" d="M307.1,545.87a28.85,28.85,0,0,0,29.78,0l130.17-78.45V416.16a9.54,9.54,0,0,0-4.67-8.31L334.56,331.2a24.41,24.41,0,0,0-25.12,0L181.76,407.84a9.54,9.54,0,0,0-4.66,8.46h0v51.13Z" />
    </g>
    <g id="logo-side-glare">
        <path class="cls-13" d="M462.38,407.85,322,323.67h0V550a28.89,28.89,0,0,0,14.88-4.13l130.17-78.45V416.16A9.54,9.54,0,0,0,462.38,407.85Z" />
        <path class="cls-14" d="M181.65,407.85,322,323.67h0V550a28.89,28.89,0,0,1-14.88-4.13L177,467.43V416.16A9.54,9.54,0,0,1,181.65,407.85Z" />
    </g>
    <g id="logo-glow">
        <path class="cls-15" d="M181.8,424.14l128.33,77.42a23,23,0,0,0,23.75,0L461.2,424.85a12.46,12.46,0,0,0,6-10.67V153.61L317.81,64,176.94,148.48v267A10.08,10.08,0,0,0,181.8,424.14Z" />
    </g>
    <g id="logo-glow-right">
        <path class="cls-16" d="M322,508.94l139.2-83.88a12.46,12.46,0,0,0,6-10.67V103.82H322.08Z" />
        <path class="cls-17" d="M322,508.94,182.81,425.06a12.47,12.47,0,0,1-6-10.67V103.82H321.93Z" />
    </g>
    <g id="logo-top">
        <path class="cls-18" d="M181.74,424.34l127.66,77a24.41,24.41,0,0,0,25.21,0l127.79-77a9.63,9.63,0,0,0,0-16.51L334.56,331.2a24.41,24.41,0,0,0-25.12,0L181.76,407.84A9.63,9.63,0,0,0,181.74,424.34Z" />
    </g>
    <g id="logo-blue-glare">
        <path class="cls-19" d="M462.38,407.85,334.56,331.2A24.31,24.31,0,0,0,322,327.73V504.87a24.5,24.5,0,0,0,12.61-3.5l127.79-77A9.63,9.63,0,0,0,462.38,407.85Z" />
        <path class="cls-20" d="M309.44,331.21,181.76,407.84a9.63,9.63,0,0,0,0,16.5l127.66,77a24.32,24.32,0,0,0,12.6,3.51V327.73A24.39,24.39,0,0,0,309.44,331.21Z" />
        <path class="cls-21" d="M309.44,331.21,181.76,407.84a9.63,9.63,0,0,0,0,16.5l127.66,77a24.32,24.32,0,0,0,12.6,3.51V327.73A24.39,24.39,0,0,0,309.44,331.21Z" />
    </g>
    <g id="TF">
        <g id="Logos">
            <path class="cls-22" d="M289.44,396.23l23.16-13.9a4,4,0,0,1,3.62.09l10.18,6.18a1,1,0,0,1-.06,1.91l-.14.08-33.12,19.87a3.73,3.73,0,0,1-3.48,0h0l-.28-.17c-6.43-3.9-6.37-10.19.13-14Z" />
            <path class="cls-22" d="M323.63,400.08l-37.82,22.68a1.08,1.08,0,0,0,0,2h0L296.17,431a3.55,3.55,0,0,0,3.35,0h0l11.81-7.08,38.08,22.85a4.93,4.93,0,0,0,4.6,0h0l9.18-5.45a1.47,1.47,0,0,0,0-2.75h0l-38.15-22.89,12.28-7.36a1.08,1.08,0,0,0,0-2h0L327,400.09a3.59,3.59,0,0,0-3.34,0Z" />
        </g>
    </g>
    <g id="TF-glow">
        <path class="cls-23" d="M327,249.47h0a1.21,1.21,0,0,0-.62-.87l-10.18-6.18a4,4,0,0,0-3.62-.09l-23.16,13.9h0c-3.23,1.91-4.86,4.42-4.91,6.94h0V403.29h0c0,2.52,1.59,5,4.78,7l.28.17h0a3.73,3.73,0,0,0,3.48,0l33.12-19.87.14-.08a1.13,1.13,0,0,0,.68-1h0Z" />
        <path class="cls-24" d="M364.09,300.33a1.13,1.13,0,0,0,0-.77h0a1.9,1.9,0,0,0-.87-1h0L338,283.46V267.28h0a1.24,1.24,0,0,0-.68-1L327,260.09a3.59,3.59,0,0,0-3.34,0h0l-37.82,22.69a1.27,1.27,0,0,0-.69,1h0v0h0v140a1.19,1.19,0,0,0,.68,1h0L296.17,431a3.55,3.55,0,0,0,3.35,0l11.81-7.08,38.08,22.85a4.93,4.93,0,0,0,4.6,0h0l9.18-5.45a1.5,1.5,0,0,0,.9-1.76Z" />
    </g>
    <g id="TF-glare">
        <path class="cls-25" d="M364.09,300.33a1.13,1.13,0,0,0,0-.77h0a1.9,1.9,0,0,0-.87-1h0L338,283.46V267.28h0a1.24,1.24,0,0,0-.68-1L327,260.09a3.53,3.53,0,0,0-2.35-.36V431.89l24.77,14.87a4.93,4.93,0,0,0,4.6,0h0l9.18-5.45a1.5,1.5,0,0,0,.9-1.76Z" />
        <path class="cls-26" d="M323.65,260.06h0l-37.82,22.69a1.27,1.27,0,0,0-.69,1h0v0h0v140a1.19,1.19,0,0,0,.68,1h0L296.17,431a3.55,3.55,0,0,0,3.35,0l11.81-7.08,13.31,8V259.73A3,3,0,0,0,323.65,260.06Z" />
        <path class="cls-27" d="M323.65,260.06h0l-37.82,22.69a1.27,1.27,0,0,0-.69,1h0v0h0v140a1.19,1.19,0,0,0,.68,1h0L296.17,431a3.55,3.55,0,0,0,3.35,0l11.81-7.08,13.31,8V259.73A3,3,0,0,0,323.65,260.06Z" />
    </g>
</svg>