<svg xmlns="http://www.w3.org/2000/svg" width="36" height="40" viewBox="0 0 36 40"><defs><style>.a,.b,.c,.d{fill:#fff;}.a{opacity:0.181;}.b{opacity:0.07;}.c{opacity:0.246;}</style></defs><g transform="translate(0)"><path class="a" d="M36,13.969a3.506,3.506,0,0,0-.44-1.778,3.411,3.411,0,0,0-1.3-1.255q-7.188-4.1-14.381-8.19a3.564,3.564,0,0,0-3.827.037C14.141,3.9,4.589,9.306,1.744,10.936A3.284,3.284,0,0,0,0,13.969q0,8.239,0,16.48a3.514,3.514,0,0,0,.42,1.742A3.408,3.408,0,0,0,1.743,33.48c2.846,1.63,12.4,7.038,14.3,8.151a3.564,3.564,0,0,0,3.827.037q7.186-4.1,14.381-8.19a3.419,3.419,0,0,0,1.323-1.288A3.516,3.516,0,0,0,36,30.447s0-10.983,0-16.477" transform="translate(0 -2.209)"/><path class="b" d="M43.54,1245.6,25.9,1255.638a3.409,3.409,0,0,0,1.323,1.288c2.847,1.63,12.4,7.038,14.309,8.151a3.566,3.566,0,0,0,3.828.037q7.188-4.1,14.385-8.19a3.419,3.419,0,0,0,1.323-1.288L43.54,1245.6" transform="translate(-25.485 -1225.653)"/><path class="b" d="M790.7,1248.474a5.885,5.885,0,0,0,10.238-.035l-5.074-2.939-5.164,2.974" transform="translate(-777.809 -1225.555)"/><path class="c" d="M1130.338,626.278a3.539,3.539,0,0,0-.435-1.778l-17.3,9.962,17.324,10.036a3.549,3.549,0,0,0,.415-1.744s0-10.983,0-16.477" transform="translate(-1094.34 -614.517)"/><path class="d" d="M389.249,527.1a5.886,5.886,0,1,1-.04-5.836l5.143-2.961a11.818,11.818,0,1,0,.03,11.777l-5.134-2.979" transform="translate(-366.145 -504.215)"/><path class="d" d="M1601.415,1078.661v-1.34h-1.123V1076.2h-1.339v1.121h-.892V1076.2h-1.339v1.121h-1.12v1.34h1.12v.894H1595.6v1.339h1.121v1.12h1.339v-1.12h.892v1.12h1.339v-1.12h1.121v-1.339h-1.121v-.894Zm-2.462.894h-.892v-.894h.892Z" transform="translate(-1569.591 -1058.971)"/></g></svg>