<svg xmlns="http://www.w3.org/2000/svg" width="184" height="44.58" viewBox="0 0 184 44.58"><defs><style>.a{fill:#fff;}</style></defs><g transform="translate(-8.7 -9.5)"><path class="a" d="M29.931,50.75a69.591,69.591,0,0,1,5.026-5.378C44.306,36.527,54.106,31.6,56.77,34.416s-1.005,13.017-10.4,21.913c-1.256,1.206-3.317,2.764-4.674,3.82l-3.066-2.01A55.126,55.126,0,0,0,44,53.665c7.639-7.187,10.6-14.173,8.745-16.385,0-.05-.05-.05-.05-.1-2.01-2.111-9.9,2.061-17.641,9.348A59.2,59.2,0,0,0,30.384,51.3m2.865,10.052a24.221,24.221,0,0,1-4.976,1.96c-1.759.251-3.418-.251-3.619-2.161-.151-1.608.8-2.865,1.458-4.222a3.939,3.939,0,0,0-.5-.754c-1.96,2.714-4.021,7.84.5,8.946,3.418.854,7.036-.452,10.353-1.759l-3.217-2.01Z" transform="translate(-7.31 -11.999)"/><path class="a" d="M8.7,13.973A4.433,4.433,0,0,0,13.022,18.5a4.4,4.4,0,0,0,4.322-4.523A4.421,4.421,0,0,0,13.022,9.5,4.421,4.421,0,0,0,8.7,13.973Z" transform="translate(0 0)"/><path class="a" d="M56.618,56.866C55.11,55.811,53.1,54.705,53.1,54.705L54.105,53.7a20.886,20.886,0,0,1,3.016,3.116C56.97,57.118,56.618,56.866,56.618,56.866Z" transform="translate(-22.085 -21.985)"/><path class="a" d="M13.583,34.422c2.312-2.412,9.9.9,17.993,7.539l-.9,1.055c-6.132-4.825-11.057-7.288-12.716-5.579-.05.05-.05.05-.05.1-1.86,2.262.553,9.348,8.192,16.535A90.678,90.678,0,0,0,42.231,65.533c.151.1.3.3.151.452a1.178,1.178,0,0,1-.6.1,47.01,47.01,0,0,1-17.792-9.8c-10.1-8.645-13.067-19-10.4-21.863Z" transform="translate(-1.968 -12.005)"/><path class="a" d="M208.018,38.4H200.63l-5.378,15.832h7.388Zm-11.409,0H180.878L175.5,54.232h15.731a3.592,3.592,0,0,0,3.217-2.463l3.719-10.957a1.641,1.641,0,0,0-1.558-2.412Zm-6.031,3.116-3.267,9.6a1.835,1.835,0,0,1-1.659,1.206h-2.111l4.071-12.012h2.111A.862.862,0,0,1,190.578,41.516Z" transform="translate(-82.967 -14.375)"/><path class="a" d="M136.645,38.4h-7.388l-4.272,12.716a1.835,1.835,0,0,1-1.659,1.206h-.854a.813.813,0,0,1-.8-1.206L125.94,38.4h-7.388l-4.523,13.419a1.685,1.685,0,0,0,1.608,2.463h13.268a3.71,3.71,0,0,0,3.267-2.463L136.645,38.4Zm-19.249,0H104.781a3.656,3.656,0,0,0-3.267,2.463L97.845,51.769a1.685,1.685,0,0,0,1.608,2.463h12.565l.7-1.91h-6.383a.813.813,0,0,1-.8-1.206l3.217-9.6a1.845,1.845,0,0,1,1.608-1.206h6.383l.653-1.91Z" transform="translate(-44.263 -14.375)"/><path class="a" d="M213.2,41.466A1.845,1.845,0,0,1,214.8,40.26h9.348L222.7,44.582c2.865-.7,5.629-1.508,8.192-2.312l.7-2.01h4.724l.653-1.91H209.326a3.655,3.655,0,0,0-3.267,2.463L203.647,48c2.664-.3,5.227-.653,7.79-1.055Zm6.232,12.716h7.388l3.016-8.946q-3.845.9-7.991,1.659ZM202.29,51.719a1.685,1.685,0,0,0,1.608,2.463h12.615l.7-1.91h-6.433a.813.813,0,0,1-.8-1.206l.854-2.513c-2.513.3-5.026.5-7.639.7Zm-15.48-1.96-.653,1.96a1.685,1.685,0,0,0,1.608,2.463H200.33l.7-1.91h-6.383a.813.813,0,0,1-.8-1.206l.452-1.357c-2.513.05-5.026.1-7.489.05Zm7.74-1.005.5-1.558h6.132l.653-1.91h-6.132l1.307-3.82a1.845,1.845,0,0,1,1.608-1.206H205l.7-1.91H193.093a3.656,3.656,0,0,0-3.267,2.463l-2.815,8.343c1.156-.05,2.312-.05,3.468-.1C191.836,48.9,193.193,48.854,194.55,48.754Zm-18.6,1.206.8,4.222H184.4l-1.106-4.172a.714.714,0,0,1-.1-.3c-2.613-.05-5.177-.151-7.589-.3A.824.824,0,0,1,175.954,49.96Zm10.2-3.066,2.061-6.132a1.716,1.716,0,0,0-1.608-2.463H170.878L167.46,48.352c5.177.5,10.655.754,16.334.754a3.578,3.578,0,0,0,2.362-2.211Zm-7.087-.854a1.789,1.789,0,0,1-1.608,1.206h-2.111l2.362-6.986h2.111a.853.853,0,0,1,.8,1.206Zm-13.52,8.142h7.388l1.659-4.825c-2.613-.151-5.076-.352-7.237-.5ZM99.66,60.766h1.558l.9,5.679h.05l3.87-5.679H107.6l-1.96,7.489h-1.055l1.608-6.132-4.172,6.132h-.7l-.955-6.182L98.755,68.2H97.7l1.96-7.438Zm8.494,5.328c-.251.854.452,1.458,1.357,1.458a2.406,2.406,0,0,0,1.608-.754l.6.553a3.41,3.41,0,0,1-2.513,1.005,1.872,1.872,0,0,1-1.91-2.613,3.531,3.531,0,0,1,3.317-2.613c1.809,0,2.111,1.357,1.759,2.664l-.1.352h-4.121v-.05Zm3.267-.8c.2-.854-.1-1.458-1.106-1.458a2.159,2.159,0,0,0-1.96,1.458Zm2.362-2.061h.9l-.2.8a2.4,2.4,0,0,1,1.86-.9,1.2,1.2,0,0,1,1.357.955,2.6,2.6,0,0,1,1.86-.955c1.558,0,1.659,1.106,1.357,2.211l-.754,2.915h-.955l.754-2.815c.2-.754.2-1.458-.7-1.458a1.727,1.727,0,0,0-1.709,1.508l-.7,2.764h-.955l.7-2.613c.251-.955.3-1.608-.653-1.608a1.921,1.921,0,0,0-1.759,1.659l-.7,2.613h-.955l1.256-5.076Zm9.549-3.016h.955l-.955,3.719a2.941,2.941,0,0,1,2.01-.854,1.888,1.888,0,0,1,1.91,2.613,3.485,3.485,0,0,1-3.267,2.613,1.627,1.627,0,0,1-1.558-.854l-.2.7h-.955l2.061-7.941Zm2.915,5.529c.251-1.005-.2-1.759-1.206-1.759a2.3,2.3,0,0,0-2.161,1.759c-.251,1.005.2,1.759,1.206,1.759A2.356,2.356,0,0,0,126.247,65.742Zm2.463.352c-.251.854.452,1.458,1.357,1.458a2.406,2.406,0,0,0,1.608-.754l.6.553a3.41,3.41,0,0,1-2.513,1.005,1.872,1.872,0,0,1-1.91-2.613,3.531,3.531,0,0,1,3.317-2.613c1.809,0,2.111,1.357,1.759,2.664l-.1.352H128.71Zm3.267-.8c.2-.854-.1-1.458-1.106-1.458a2.159,2.159,0,0,0-1.96,1.458Zm2.362-2.061h.955l-.2.754a2.264,2.264,0,0,1,1.759-.9.98.98,0,0,1,.4.05l-.3,1.005a1.391,1.391,0,0,0-.452-.05,1.873,1.873,0,0,0-1.91,1.608l-.653,2.513h-.9l1.307-4.976Zm7.137-2.463h2.664c1.96,0,2.111,1.156,1.91,2.111a2.834,2.834,0,0,1-3.016,2.111h-1.659l-.854,3.317h-1.055Zm.151,3.267h1.357a1.786,1.786,0,0,0,1.96-1.206c.251-1.005-.5-1.206-1.307-1.206H142.28Zm4.925-.8h.955l-.2.754a2.264,2.264,0,0,1,1.759-.9.98.98,0,0,1,.4.05l-.3,1.005a1.392,1.392,0,0,0-.452-.05,1.873,1.873,0,0,0-1.91,1.608L146.15,68.2H145.2l1.357-4.976Zm6.081-.151a1.959,1.959,0,0,1,2.01,2.613,3.716,3.716,0,0,1-3.418,2.614,1.959,1.959,0,0,1-2.01-2.614A3.783,3.783,0,0,1,152.634,63.078Zm-1.156,4.373a2.3,2.3,0,0,0,2.161-1.759c.251-1.005-.2-1.759-1.206-1.759a2.3,2.3,0,0,0-2.161,1.759C150.02,66.747,150.472,67.451,151.478,67.451Zm7.187-3.418h-1.407l-.6,2.262c-.151.553-.3,1.156.4,1.156a1.773,1.773,0,0,0,.7-.151l-.251.854a2.015,2.015,0,0,1-.9.151c-1.508,0-1.256-.9-1.055-1.709l.7-2.613h-1.106l.2-.8h1.106l.352-1.407h.955l-.352,1.407h1.407l-.151.854Zm1.055,2.061c-.251.854.452,1.458,1.357,1.458a2.406,2.406,0,0,0,1.608-.754l.6.553a3.41,3.41,0,0,1-2.513,1.005,1.872,1.872,0,0,1-1.91-2.613,3.531,3.531,0,0,1,3.317-2.613c1.809,0,2.111,1.357,1.759,2.664l-.1.352H159.72v-.05Zm3.267-.8c.2-.854-.1-1.458-1.106-1.458a2.159,2.159,0,0,0-1.96,1.458Zm5.629-.754a1.271,1.271,0,0,0-1.106-.553,2.249,2.249,0,0,0-2.061,1.759c-.251.955.2,1.709,1.206,1.709a2.16,2.16,0,0,0,1.407-.553l.5.653a3.248,3.248,0,0,1-2.161.754,1.89,1.89,0,0,1-1.96-2.613,3.488,3.488,0,0,1,3.367-2.664,1.982,1.982,0,0,1,1.759.8Zm4.624-.5h-1.407l-.6,2.262c-.151.553-.3,1.156.4,1.156a1.774,1.774,0,0,0,.7-.151l-.251.854a2.015,2.015,0,0,1-.9.151c-1.508,0-1.256-.9-1.055-1.709l.7-2.613h-1.106l.2-.8h1.106l.352-1.407h.955l-.352,1.407h1.407l-.151.854Zm1.206-.8h.955l-1.307,5.026h-.955Zm1.106-2.513a.508.508,0,0,1,.5.7.966.966,0,0,1-.9.7.508.508,0,0,1-.5-.7A1.016,1.016,0,0,1,175.552,60.716Zm3.468,2.362a1.959,1.959,0,0,1,2.01,2.613,3.716,3.716,0,0,1-3.418,2.613,1.959,1.959,0,0,1-2.01-2.613A3.783,3.783,0,0,1,179.02,63.078Zm-1.106,4.373a2.3,2.3,0,0,0,2.161-1.759c.251-1.005-.2-1.759-1.206-1.759a2.3,2.3,0,0,0-2.161,1.759C176.406,66.747,176.859,67.451,177.914,67.451Zm4.624-4.222h.955l-.2.754a2.338,2.338,0,0,1,1.91-.9c1.005,0,1.709.6,1.357,1.91L185.7,68.2h-.9l.8-2.965c.251-.955-.2-1.307-.8-1.307a1.935,1.935,0,0,0-1.86,1.659l-.7,2.563h-.955Zm7.79,3.418a1.415,1.415,0,0,0,1.407.8,1.971,1.971,0,0,0,1.86-1.256c.452-1.709-3.568-.653-2.815-3.568a3.219,3.219,0,0,1,3.116-2.111,2.041,2.041,0,0,1,1.96.854l-1.055.754a1.169,1.169,0,0,0-1.156-.653,1.612,1.612,0,0,0-1.759,1.156c-.5,1.91,3.568.754,2.815,3.468a3.3,3.3,0,0,1-3.267,2.312,2.308,2.308,0,0,1-2.161-1.055Zm6.031-.553c-.251.854.452,1.458,1.357,1.458a2.406,2.406,0,0,0,1.608-.754l.6.553a3.41,3.41,0,0,1-2.513,1.005,1.872,1.872,0,0,1-1.91-2.613,3.531,3.531,0,0,1,3.317-2.613c1.809,0,2.111,1.357,1.759,2.664l-.1.352h-4.121v-.05Zm3.217-.8c.2-.854-.1-1.458-1.106-1.458a2.159,2.159,0,0,0-1.96,1.458Zm2.362-2.061h.955l-.2.754a2.264,2.264,0,0,1,1.759-.9.98.98,0,0,1,.4.05l-.3,1.005a1.391,1.391,0,0,0-.452-.05,1.873,1.873,0,0,0-1.91,1.608l-.653,2.513h-.955l1.357-4.976Zm3.418,0h1.106l.5,3.82,2.463-3.82h1.055l-3.317,5.026H206.11Zm5.679,0h.955l-1.307,5.026h-.955Zm1.156-2.513a.508.508,0,0,1,.5.7.966.966,0,0,1-.9.7.508.508,0,0,1-.5-.7A.966.966,0,0,1,212.191,60.716Zm4.272,3.82a1.271,1.271,0,0,0-1.106-.553,2.249,2.249,0,0,0-2.061,1.759c-.251.955.2,1.709,1.206,1.709a2.16,2.16,0,0,0,1.407-.553l.5.653a3.248,3.248,0,0,1-2.161.754,1.89,1.89,0,0,1-1.96-2.613,3.488,3.488,0,0,1,3.367-2.664,1.982,1.982,0,0,1,1.759.8Zm1.508,1.558c-.251.854.452,1.458,1.357,1.458a2.406,2.406,0,0,0,1.608-.754l.6.553a3.41,3.41,0,0,1-2.513,1.005,1.872,1.872,0,0,1-1.91-2.613,3.531,3.531,0,0,1,3.317-2.613c1.809,0,2.111,1.357,1.759,2.664l-.1.352h-4.121v-.05Zm3.217-.8c.2-.854-.1-1.458-1.106-1.458a2.159,2.159,0,0,0-1.96,1.458Zm4.775-.8a1.035,1.035,0,0,0-.9-.5,1,1,0,0,0-1.005.553c-.151.6.7.7,1.106.8.8.2,1.357.5,1.106,1.458a2.346,2.346,0,0,1-2.463,1.558c-.854,0-1.407-.2-1.709-.9l.9-.6a1.269,1.269,0,0,0,1.055.6c.5,0,1.106-.2,1.206-.653.151-.553-.6-.653-1.005-.754-.754-.2-1.458-.452-1.156-1.407a2.342,2.342,0,0,1,2.362-1.558,1.516,1.516,0,0,1,1.508.8l-1.005.6Z" transform="translate(-44.269 -14.325)"/></g></svg>