<svg xmlns="http://www.w3.org/2000/svg" width="113" height="74.5" viewBox="0 0 113 74.5"><defs><style>.a,.e{fill:none;}.a,.d{stroke:#fff;}.b,.c,.d{fill:#fff;}.c{fill-rule:evenodd;}.d{stroke-miterlimit:3.86;stroke-width:0.43px;}</style></defs><g transform="translate(-47.01 -47)"><g transform="translate(47.51 47.5)"><path class="a" d="M50,86.288C50,66.247,74.863,50,105.538,50s55.538,16.247,55.538,36.288-24.866,36.286-55.538,36.286S50,106.329,50,86.288Z" transform="translate(-49.539 -49.537)"/><path class="a" d="M103.509,121c-14.923,0-28.959-3.8-39.523-10.7C53.36,103.356,47.51,94.106,47.51,84.251S53.362,65.144,63.986,58.2c10.561-6.9,24.6-10.7,39.523-10.7s28.961,3.8,39.525,10.7C153.66,65.144,159.51,74.4,159.51,84.251s-5.852,19.105-16.476,26.047C132.469,117.2,118.432,121,103.509,121Zm0-72.568c-30.361,0-55.075,16.069-55.075,35.819s24.714,35.817,55.075,35.817S158.584,104,158.584,84.251,133.87,48.432,103.509,48.432Z" transform="translate(-47.51 -47.5)"/></g><g transform="translate(53.949 52.191)"><path class="b" d="M117.629,144.553a4.167,4.167,0,0,1,.633.8c.1.263-.148.492-.341.672l.12.128,3.275-3.053-.785-.953-.139.13c.542.741.2,1.19-.415,1.786-.237.23-.62.566-.959.516a1.353,1.353,0,0,1-.635-.463l-.853-.915c.578-.539.926-.809,1.555-.3l.137-.13c-.218-.222-.444-.45-.668-.668-.222-.263-.457-.526-.685-.783l-.139.13c.339.435.517.866-.341,1.6l-1.227-1.322c-.23-.246-.244-.2-.057-.37l.433-.4c.639-.6.987-.848,1.711-.3l.139-.13-.787-.842-2.992,2.79.141.15c.185-.185.439-.409.694-.293a4.014,4.014,0,0,1,.753.687l1.437,1.54Z" transform="translate(-108.627 -127.197)"/><path class="b" d="M148.383,126.72l.076-.048v-.37a2.39,2.39,0,0,0,1.459-.4c.807-.524,1.387-1.481.842-2.314s-1.562-.652-2.458-.461c-.537.111-1.139.257-1.466-.248a.863.863,0,0,1,.37-1.2,1.435,1.435,0,0,1,1.809.263l.159-.1-.753-1.085-.076.05v.352a2.242,2.242,0,0,0-1.255.352,1.447,1.447,0,0,0-.618,2.036c.474.728,1.344.6,2.118.418.624-.143,1.318-.265,1.7.317a1.03,1.03,0,0,1-.468,1.442,1.553,1.553,0,0,1-2.077-.344l-.159.1.811,1.248Z" transform="translate(-134.411 -111.881)"/><path class="b" d="M172.373,102.75l-4.543,2.222.522,1.07.17-.083c-.37-.829-.031-1.037.7-1.394.3-.144.611-.324.713-.118l1.587,3.253c.246.507.237.75-.467,1.127l.076.159c.4-.2.774-.4,1.163-.6s.831-.381,1.242-.572l-.076-.157c-.731.322-.926.185-1.177-.328l-1.587-3.253c-.107-.22.354-.4.628-.535.7-.339,1.064-.3,1.437.354l.2-.1-.589-1.039Z" transform="translate(-151.994 -97.213)"/><path class="c" d="M206.8,98.389l1.922-.661.555.639a1.666,1.666,0,0,1,.348.509c.1.281-.289.4-.5.481l.057.165c.37-.135.74-.281,1.111-.417s.74-.233,1.111-.352l-.057-.167a.936.936,0,0,1-.761-.037,5.383,5.383,0,0,1-.678-.654L207.09,94.77l-.265.091-.213,3.247c-.059.537-.113,1.064-.172,1.6a.792.792,0,0,1-.57.77l.057.167c.27-.1.529-.207.8-.307s.576-.174.866-.267l-.057-.167c-.241.059-.631.218-.74-.093a3.788,3.788,0,0,1,0-1.218v-.205Zm.022-.267.163-2.333,1.557,1.742-1.727.591Z" transform="translate(-182.992 -90.71)"/><path class="c" d="M233.99,85.909c-.017-.057-.08-.263-.035-.32a1.657,1.657,0,0,1,.459-.165c.707-.185,1.176.033,1.351.691a.933.933,0,0,1-.172.977,1.861,1.861,0,0,1-.9.409l-.255.068L233.99,85.9Zm.5,1.851.246-.067a3.027,3.027,0,0,1,1.281-.176,1.175,1.175,0,0,1,.006,2.268c-.3.081-.7.2-.926-.085a3.053,3.053,0,0,1-.344-.9l-.274-1.026Zm-.535,1.283a4.617,4.617,0,0,1,.185,1c-.019.28-.355.37-.609.431l.044.168c.444-.126.894-.261,1.337-.389.352-.087.7-.163,1.05-.25a3.631,3.631,0,0,0,1.411-.583,1.27,1.27,0,0,0,.485-1.276,1.242,1.242,0,0,0-.885-.853,2.633,2.633,0,0,0-1.242,0v-.015c.555-.331,1.07-.776.89-1.448-.263-.981-1.437-.879-2.266-.633-.317.093-.622.185-.939.283-.383.094-.761.185-1.144.274l.044.17c.255-.069.587-.165.741.07a4.553,4.553,0,0,1,.333.961l.555,2.081Z" transform="translate(-204.505 -82.773)"/><path class="b" d="M268.193,82.5a4.059,4.059,0,0,1,.061,1.016c-.07.272-.405.318-.666.355l.026.174c1.4-.205,2.81-.4,4.21-.622.141,0,.289-.019.428-.03l-.115-1.348-.2.028a1.1,1.1,0,0,1-.4,1.018,2.221,2.221,0,0,1-1.131.352c-1.037.146-1.222.011-1.357-.957l-.315-2.238a4.067,4.067,0,0,1-.059-1.016c.068-.272.4-.32.665-.355l-.024-.174-1.237.2c-.391.048-.778.087-1.168.133l.024.174c.261-.037.594-.083.741.159a4.179,4.179,0,0,1,.222.994l.3,2.133Z" transform="translate(-232.732 -77.615)"/><path class="b" d="M300.05,78.281a3.749,3.749,0,0,1,0,1.018c-.085.268-.42.3-.683.32l.015.185c.409-.044.826-.1,1.237-.139s.8-.046,1.183-.072l-.015-.185c-.263.024-.6.052-.729-.2a4.121,4.121,0,0,1-.17-1.005l-.185-2.144a3.76,3.76,0,0,1,0-1.02c.085-.267.42-.3.683-.318l-.015-.185c-.409.043-.818.094-1.237.139s-.789.046-1.183.072l.015.185c.263-.024.6-.054.729.2a4.118,4.118,0,0,1,.17,1Z" transform="translate(-258.84 -74.225)"/><path class="b" d="M321.04,78.211h.091l.185-.328a2.4,2.4,0,0,0,1.455.409c.963-.035,1.949-.555,1.914-1.55s-1-1.363-1.87-1.666c-.516-.185-1.111-.37-1.129-.97a.864.864,0,0,1,.926-.842,1.435,1.435,0,0,1,1.416,1.157h.185l-.074-1.322h-.089l-.185.3a2.236,2.236,0,0,0-1.255-.346c-.9.031-1.612.555-1.581,1.429s.841,1.209,1.6,1.45c.609.2,1.268.454,1.3,1.148.022.616-.5.972-1.142.994a1.555,1.555,0,0,1-1.605-1.364h-.185l.052,1.481Z" transform="translate(-276.8 -73.016)"/><path class="b" d="M348.782,75.476l2.936.1-.033,1.022a4.06,4.06,0,0,1-.118,1.013c-.115.255-.454.243-.716.233v.185c.411,0,.824,0,1.235.013s.8.05,1.192.072v-.185c-.263,0-.6-.02-.7-.283a4.009,4.009,0,0,1-.046-1.018l.078-2.151a3.669,3.669,0,0,1,.118-1.013c.115-.255.452-.243.716-.235v-.176l-1.227,0c-.4-.022-.8-.05-1.2-.072v.174c.263.011.6.022.7.285a4.008,4.008,0,0,1,.046,1.018l-.03.885-2.938-.1.032-.885a3.72,3.72,0,0,1,.117-1.011c.117-.255.454-.244.718-.235v-.185c-.42,0-.831,0-1.251-.013s-.789-.05-1.176-.072v.185c.263,0,.6.02.7.285a4.081,4.081,0,0,1,.046,1.016L347.9,76.48a4.142,4.142,0,0,1-.118,1.011c-.117.255-.454.244-.716.235V77.9c.4,0,.824,0,1.235.013s.8.05,1.192.07v-.174c-.263,0-.6-.022-.7-.285a4.079,4.079,0,0,1-.048-1.016l.037-1.024Z" transform="translate(-298.052 -72.84)"/><path class="b" d="M387.9,78.068a4.028,4.028,0,0,1-.206,1c-.139.246-.474.2-.741.172l-.02.174,4.443.555.222-1.211-.185-.024c-.217.889-.785.926-1.637.831-.328-.033-.833-.109-1.013-.4a1.367,1.367,0,0,1-.054-.783l.154-1.244c.785.1,1.213.185,1.229,1l.185.024c.031-.313.061-.631.083-.944.059-.339.109-.687.159-1.027l-.185-.022c-.117.539-.333.952-1.448.768l.22-1.8c.043-.333,0-.317.252-.285l.589.072c.865.107,1.283.211,1.329,1.111l.185.022.141-1.144-4.062-.5-.024.205c.261.033.6.074.67.344a4.05,4.05,0,0,1-.041,1.018l-.257,2.092Z" transform="translate(-330.533 -74.119)"/><path class="c" d="M419.093,82.656a4.481,4.481,0,0,1-.285.977c-.143.235-.479.165-.74.109l-.037.172c.37.068.729.131,1.1.2.474.109.953.228,1.427.335,1.65.391,2.944-.185,3.28-1.777.344-1.62-.741-2.879-2.44-3.21-.437-.085-.874-.163-1.311-.248-.337-.08-.679-.168-1.009-.246l-.039.185c.257.056.6.12.631.4a4.683,4.683,0,0,1-.139,1.009l-.444,2.09Zm1.481-2.862c.011-.059.039-.185.1-.222.087-.052.4.03.494.052,1.724.37,1.966,1.481,1.651,2.962-.233,1.111-.707,1.988-2.116,1.688-.307-.065-.711-.185-.842-.476a1.536,1.536,0,0,1,.048-.855l.668-3.147Z" transform="translate(-355.875 -77.835)"/><path class="b" d="M493.642,101.555a4.141,4.141,0,0,1-1.822-.385l-.061.139.435.185c.167.074.4.185.418.337a1.89,1.89,0,0,1-.194.657l-1.111,2.484a2.734,2.734,0,0,1-.387.687c-.17.141-.65-.1-.85-.185l-.07.161c.387.165.776.32,1.163.485s.741.355,1.111.529l.07-.159c-.2-.107-.655-.268-.62-.528a3.106,3.106,0,0,1,.248-.7l1.666-3.723Z" transform="translate(-414.522 -95.925)"/><path class="c" d="M512.527,114.281c-.37.609-1.05,2.077-2.055,1.566-.542-.278-.078-.846-.526-1.074a.333.333,0,0,0-.457.135c-.2.4.339.84.678,1.013,1.466.741,2.716-.526,3.273-1.62a2.029,2.029,0,0,0-.613-2.894,1.8,1.8,0,0,0-2.419.741,1.562,1.562,0,0,0,.715,2.162,1.519,1.519,0,0,0,1.405-.02Zm.139-.272a1.374,1.374,0,0,1-1.309.139c-.785-.4-.465-1.139-.185-1.688s.768-1.3,1.574-.894c.866.441.418,1.464.12,2.049Z" transform="translate(-430.368 -104.099)"/><path class="b" d="M536.626,124.306a9.9,9.9,0,0,0-2.2,1.414.381.381,0,0,0,.137.526c.37.235.8-.272,1.022-.487a16,16,0,0,1,3.473-2.573l.068-.111-2.059-1.3c-.294-.185-.5-.257-.37-.472a2.287,2.287,0,0,1,.207-.239l.056-.056-.185-.113-1.514,1.52.168.106.215-.172c.509-.411.576-.333,1.176.043l1.544.963-1.742.939Z" transform="translate(-450.677 -112.003)"/><path class="c" d="M556.9,147.6a1.561,1.561,0,0,0-.159-2.264,1.523,1.523,0,0,0-1.374-.313c.5-.509,1.522-1.762,2.373-1.022.459.4-.135.833.25,1.166a.335.335,0,0,0,.476-.02c.291-.333-.131-.9-.411-1.146-1.248-1.085-2.764-.146-3.569.781a2.035,2.035,0,0,0-.1,2.962,1.787,1.787,0,0,0,2.518-.137Zm-1.733-2.347a1.392,1.392,0,0,1,1.3.172c.665.578.172,1.22-.233,1.687s-1.061,1.083-1.738.494c-.741-.639-.052-1.522.37-2.012l.3-.341Z" transform="translate(-466.497 -130.316)"/><path class="b" d="M128.3,324.369l.231.172,3.5-2.381c.37-.263.813-.668,1.3-.289l.105-.141c-.235-.168-.468-.324-.7-.492s-.461-.37-.694-.555l-.106.139c.307.28.544.457.259.837a11.321,11.321,0,0,1-1.364,1.083l-1.457.989,1.344-4.045-.209-.159-3.514,2.486.878-2.618a5.986,5.986,0,0,1,.37-.892c.211-.281.594,0,.818.148l.106-.141c-.328-.237-.666-.472-.992-.709s-.618-.5-.926-.741l-.106.141c.185.156.348.292.355.516a2.728,2.728,0,0,1-.185.75l-1.32,4.149.224.169c.544-.354,1.092-.7,1.638-1.05l1.775-1.263-1.314,3.9Z" transform="translate(-117.9 -271.441)"/><path class="b" d="M156.432,347.5a4.073,4.073,0,0,1-.609.818c-.228.163-.515-.017-.741-.157l-.093.15c.354.213.718.422,1.072.633s.666.444.99.657l.093-.15c-.224-.141-.509-.318-.463-.6a4.057,4.057,0,0,1,.468-.905l1.14-1.825a4.194,4.194,0,0,1,.607-.818c.23-.163.516.017.74.156l.094-.148c-.354-.211-.713-.417-1.072-.633s-.659-.441-.992-.655l-.093.148c.224.141.511.32.465.6a4.135,4.135,0,0,1-.468.905l-1.14,1.825Z" transform="translate(-141.531 -293.319)"/><path class="b" d="M177.281,357.682a5.591,5.591,0,0,1-.491.935c-.207.267-.492.157-.8.054l-.07.161c.281.117.566.226.848.342s.57.28.853.415l.072-.159c-.267-.154-.522-.25-.528-.579a3.564,3.564,0,0,1,.341-1.068l1.042-2.347,1.481,4.628c.08.268.157.539.241.8l.226.1,1.338-3.006a6.97,6.97,0,0,1,.633-1.181c.231-.255.418-.148.709-.052l.07-.159c-.281-.118-.542-.218-.811-.328s-.541-.267-.815-.4l-.072.161c.352.224.568.285.485.716a6.319,6.319,0,0,1-.411,1.111l-.863,1.938-1.6-5.013c-.2-.081-.409-.157-.607-.237-.239-.115-.465-.233-.7-.346l-.068.154a.966.966,0,0,1,.633.785l-1.144,2.573Z" transform="translate(-158.587 -301.582)"/><path class="b" d="M213.95,372.115a3.8,3.8,0,0,1-.409.926c-.185.211-.505.1-.753.015l-.057.167,4.241,1.461.47-1.139-.185-.063c-.4.826-.961.741-1.775.472-.315-.1-.792-.281-.909-.6a1.38,1.38,0,0,1,.111-.778l.407-1.185c.74.259,1.15.437,1,1.233l.185.061c.094-.3.185-.6.276-.905.128-.32.25-.65.37-.972l-.185-.061c-.226.5-.524.861-1.577.45l.589-1.711c.111-.318.063-.309.305-.226l.555.185c.828.285,1.214.476,1.072,1.37l.185.063.37-1.09-3.875-1.335-.069.194c.25.087.57.2.587.478a4.072,4.072,0,0,1-.252.987l-.687,1.992Z" transform="translate(-188.582 -313.218)"/><path class="b" d="M276.783,385.089a2.61,2.61,0,0,1,.185-.831c.154-.235.474-.2.74-.172l.024-.185c-.289-.019-.555-.044-.815-.069s-.515-.078-.766-.126l-2.221,3.665-1.342-4.1c-.255-.017-.5-.039-.757-.063s-.546-.081-.824-.131l-.02.174c.261.033.6.074.672.344a1.48,1.48,0,0,1,.013.5l-.379,3.223c-.043.342-.2.676-.822.6l-.02.174c.287.028.576.048.863.076s.6.1.905.143l.02-.176c-.659-.111-.74-.437-.67-1.027l.391-3.19h.017l1.461,4.539.083.011c.433-.685.857-1.372,1.3-2.057l1.192-2h.017l-.405,3.3c-.089.72-.118.753-.911.718l-.02.174c.409.043.829.08,1.238.122s.8.12,1.224.185l.022-.174c-.779-.156-.8-.2-.711-.926l.337-2.742Z" transform="translate(-235.617 -325.14)"/><path class="b" d="M315.965,392.086a3.668,3.668,0,0,1-.119,1.013c-.115.255-.454.242-.716.233v.176l4.484.157.117-1.226h-.185c-.139.905-.7.985-1.561.97-.329,0-.84-.037-1.046-.311a1.385,1.385,0,0,1-.12-.777l.043-1.252c.792.028,1.227.081,1.314.887h.185v-.948c.028-.343.048-.694.068-1.037h-.185c-.07.555-.25.977-1.377.892l.063-1.809c.013-.335-.03-.313.226-.305l.592.022c.874.03,1.3.1,1.427,1h.185l.041-1.151-4.11-.146v.205c.265.009.6.022.7.285a4.1,4.1,0,0,1,.048,1.018l-.074,2.1Z" transform="translate(-272.025 -329.532)"/><path class="c" d="M348.483,389.824c0-.083-.02-.228.087-.276a3.146,3.146,0,0,1,.535-.017,1.069,1.069,0,0,1,1.174,1.124c.02,1.111-.729,1.142-1.761,1.163Zm1.274,2.048c.815-.083,1.481-.515,1.468-1.338-.019-1.063-.97-1.244-1.909-1.227-.346.015-.7.035-1.048.048H346.85v.176c.263,0,.609-.019.705.248a4.477,4.477,0,0,1,.091,1.013l.039,2.153a4.551,4.551,0,0,1-.057,1.016c-.085.261-.431.268-.7.272v.176c.411-.015.824-.037,1.235-.052s.785.009,1.164.009v-.174c-.263,0-.6.017-.705-.248a4.6,4.6,0,0,1-.093-1.014l-.015-.9c.437,0,.4.037.681.324l1.4,1.55.4.435c.206-.011.411-.03.616-.043.248,0,.5.015.741.018v-.176a1.111,1.111,0,0,1-.816-.437l-1.779-1.823Z" transform="translate(-297.873 -330.212)"/><path class="b" d="M385.912,386.429a3,3,0,0,0-1.709-.326,2.693,2.693,0,0,0-2.642,2.914,2.542,2.542,0,0,0,3.023,2.3,2.882,2.882,0,0,0,1.766-.729l.231.37.106-.009-.144-1.666-.148.013c-.167.926-.52,1.733-1.666,1.833-1.453.128-2.036-1.055-2.138-2.2s.226-2.525,1.7-2.653a1.666,1.666,0,0,1,1.851,1.285l.185-.017-.2-1.492-.122.011-.1.37Z" transform="translate(-326.149 -327.56)"/><path class="b" d="M416.044,381.387l2.879-.611.213,1a4.048,4.048,0,0,1,.13,1.011c-.05.276-.381.346-.639.4l.037.17c.4-.093.8-.185,1.2-.287s.787-.143,1.176-.218l-.037-.172c-.257.056-.589.126-.74-.106a4.142,4.142,0,0,1-.291-.977l-.448-2.1a4.065,4.065,0,0,1-.131-1.011c.052-.276.381-.346.641-.4l-.037-.17c-.4.093-.794.185-1.2.285s-.787.144-1.183.22l.037.172c.257-.056.589-.126.741.106a4.142,4.142,0,0,1,.291.977l.185.865-2.881.613-.185-.866a4.067,4.067,0,0,1-.131-1.011c.052-.276.381-.346.641-.4l-.037-.17c-.409.094-.809.194-1.22.289s-.779.143-1.159.217l.037.172c.257-.056.589-.126.741.106a4.072,4.072,0,0,1,.292.976l.448,2.107a4.055,4.055,0,0,1,.13,1.011c-.05.276-.381.346-.639.4l.037.17c.392-.091.8-.185,1.2-.287s.787-.143,1.176-.218l-.037-.172c-.257.056-.589.126-.741-.106a4.158,4.158,0,0,1-.291-.976Z" transform="translate(-352.51 -320.927)"/><path class="c" d="M461.032,375.445l1.927-.663.555.639a1.723,1.723,0,0,1,.354.513c.1.281-.291.4-.505.481l.057.167c.37-.137.74-.283,1.12-.418s.741-.233,1.111-.352l-.057-.167a.936.936,0,0,1-.761-.037,5.281,5.281,0,0,1-.679-.654l-2.838-3.125-.265.091-.217,3.247c-.059.537-.113,1.064-.172,1.6a.793.793,0,0,1-.572.772l.057.165c.27-.1.531-.207.8-.307s.576-.176.866-.267l-.057-.167c-.241.059-.631.219-.74-.093a4.08,4.08,0,0,1,0-1.22v-.2Zm.022-.267.165-2.333,1.559,1.74Z" transform="translate(-390.149 -315.973)"/><path class="b" d="M486.765,359.077a5.623,5.623,0,0,1,.37.989c.057.333-.215.472-.5.631l.072.159c.276-.13.555-.268.824-.4s.589-.237.877-.357l-.07-.161c-.291.1-.533.22-.783,0a3.332,3.332,0,0,1-.567-.968l-1.044-2.342,4.443,1.986c.252.122.505.244.755.359l.226-.1-1.339-3a6.84,6.84,0,0,1-.453-1.261c-.035-.344.168-.411.435-.555l-.07-.161c-.276.131-.526.259-.787.385s-.555.222-.841.341l.07.159c.4-.111.592-.23.857.12a6.076,6.076,0,0,1,.555,1.044l.863,1.938-4.813-2.172c-.185.094-.389.2-.581.293-.244.1-.485.185-.729.291l.072.161a.964.964,0,0,1,1.007.054Z" transform="translate(-410.073 -301.354)"/><path class="b" d="M523.727,336.275l-4.247,2.757.65,1,.159-.1c-.468-.779-.156-1.027.528-1.472.278-.185.568-.4.694-.2l1.972,3.034c.307.474.326.716-.328,1.177l.1.146c.37-.248.72-.494,1.083-.741s.779-.479,1.164-.72l-.1-.146c-.687.409-.9.293-1.209-.185l-1.971-3.034c-.131-.206.3-.442.555-.609.65-.422,1.022-.426,1.47.174l.185-.12-.711-.959Z" transform="translate(-438.544 -286.996)"/><path class="b" d="M555.067,325.3l.067-.061-.074-.37a2.424,2.424,0,0,0,1.368-.65,1.725,1.725,0,0,0,.429-2.427c-.681-.731-1.651-.37-2.5-.026-.509.2-1.077.453-1.481.011a.866.866,0,0,1,.154-1.25,1.424,1.424,0,0,1,1.829-.057l.139-.128-.926-.939-.067.061.065.348a2.222,2.222,0,0,0-1.176.565,1.45,1.45,0,0,0-.257,2.118c.594.637,1.429.359,2.16.043.591-.25,1.253-.492,1.727.017a1.03,1.03,0,0,1-.211,1.5,1.556,1.556,0,0,1-2.109.024l-.139.13,1.016,1.089Z" transform="translate(-465.271 -273.355)"/><path class="d" d="M82.29,240.291a1.029,1.029,0,1,1,1.029,1.027A1.029,1.029,0,0,1,82.29,240.291Z" transform="translate(-82.29 -208.198)"/><path class="d" d="M606.87,240.291a1.029,1.029,0,1,1,1.027,1.027A1.029,1.029,0,0,1,606.87,240.291Z" transform="translate(-509.756 -208.198)"/></g><g transform="translate(59.414 59.114)"><path class="e" d="M113.82,135.636c0-13.677,19.575-24.766,43.721-24.766s43.723,11.089,43.723,24.766S181.689,160.4,157.543,160.4,113.82,149.313,113.82,135.636Z" transform="translate(-113.448 -110.5)"/><path class="b" d="M155.905,159.141c-11.741,0-22.785-2.592-31.1-7.3-8.379-4.745-12.994-11.08-12.994-17.833s4.617-13.079,12.994-17.835c8.312-4.708,19.357-7.3,31.1-7.3s22.787,2.592,31.1,7.3c8.379,4.747,12.994,11.08,12.994,17.835s-4.619,13.088-12.994,17.837C178.691,156.549,167.646,159.141,155.905,159.141Zm0-49.531c-23.9,0-43.351,10.945-43.351,24.4S132,158.4,155.905,158.4s43.353-10.943,43.353-24.394S179.809,109.61,155.905,109.61Z" transform="translate(-111.81 -108.87)"/></g><g transform="translate(71.469 66.386)"><path d="M505.642,228.23a1.418,1.418,0,0,0-.185,2.012,1.505,1.505,0,0,0,2.068.248,1.358,1.358,0,0,0,.218-1.873,1.14,1.14,0,0,1-.537,1.364,1.217,1.217,0,0,1-1.564-1.751Z" transform="translate(-444.365 -213.407)"/><path d="M494.887,260.88a1.387,1.387,0,0,0-.2,1.892,1.507,1.507,0,0,0,2.073.361,1.377,1.377,0,0,0,.274-1.912c.065.74-.078,1.111-.531,1.353a1.131,1.131,0,0,1-1.325-.137A1.209,1.209,0,0,1,494.887,260.88Z" transform="translate(-435.634 -240.012)"/><path d="M486.157,275.951a1.48,1.48,0,0,0,1.464,1.348,1.387,1.387,0,0,0,1.39-1.516,1.471,1.471,0,0,0-1.361-1.305,1.2,1.2,0,0,1,.753,1.385,1.026,1.026,0,0,1-.976.859A1.239,1.239,0,0,1,486.157,275.951Z" transform="translate(-428.91 -251.09)"/><path d="M469.2,208.121a1.438,1.438,0,0,0,1.25,1.509,1.359,1.359,0,0,0,1.6-1.166,1.421,1.421,0,0,0-1.111-1.594c.565.578.713.981.507,1.481a1.061,1.061,0,0,1-1,.691A1.243,1.243,0,0,1,469.2,208.121Z" transform="translate(-415.082 -196.001)"/><path d="M477.732,287.917c-.05.9-.4,1.307-1.057,1.248a1.07,1.07,0,0,1-.855-1.555,1.2,1.2,0,0,0-.137,1.618,1.3,1.3,0,0,0,1.74.318A1.179,1.179,0,0,0,477.732,287.917Z" transform="translate(-420.173 -261.794)"/><path d="M461.854,190.954a.969.969,0,0,0-1.085,1.25,1.216,1.216,0,0,0,1.8.531,3.228,3.228,0,0,0,.37-.405l-.046-.043a.985.985,0,0,1-1.183.211.783.783,0,0,1-.5-.772A.815.815,0,0,1,461.854,190.954Z" transform="translate(-408.178 -183.023)"/><path class="b" d="M204.462,173.795c.313.379.585.718.866,1.052.663.781,1.326,1.562,2,2.338.4.461.8.926,1.222,1.361.615.648,1.231,1.3,1.872,1.918a8.45,8.45,0,0,0,1.261,1.055,2.577,2.577,0,0,0,1.072.37c1.015.113,2.036.2,3.056.231,1.89.057,3.782.067,5.672.1h.117v1.32h-1.148c-.15,0-.3-.022-.446-.024-1.892-.019-3.784-.031-5.674-.054-2.323-.026-4.647-.067-6.97-.087-1-.009-2,.015-3.008.022l-2.49.02q-2.749.025-5.5.048c-1.3.013-2.575.035-3.864.048h-1.531v-1.129h.2c1.266-.013,2.533-.011,3.8-.048,1.031-.031,2.064-.091,3.092-.185a14.693,14.693,0,0,0,3.373-.579,3.321,3.321,0,0,0,.692-.335.592.592,0,0,0,.272-.826,6.329,6.329,0,0,0-1.02-1.733c-.907-1.153-1.82-2.3-2.758-3.43-.977-1.164-1.99-2.307-2.979-3.473-1.024-1.2-2.036-2.4-3.066-3.591-.409-.479-.826-.953-1.25-1.444-.068.065-.128.118-.185.176q-1.568,1.592-3.132,3.186a.485.485,0,0,0-.13.305v7.64a5.809,5.809,0,0,0,.13,1.1.554.554,0,0,0,.741.461c.568-.118,1.135-.255,1.709-.354a9.042,9.042,0,0,1,2.458-.133c.124.013.252,0,.394,0v1.161h-1.57c-.185,0-.385-.026-.579-.03-.885-.019-1.77-.03-2.657-.05-1.264-.026-2.529-.081-3.793-.08-1.385,0-2.768.056-4.152.091-1.2.031-2.407.07-3.629.106v-1.189h.5a8.846,8.846,0,0,0,2.14-.2,2.91,2.91,0,0,0,2.316-2.238,10.5,10.5,0,0,0,.331-2.657c.017-.907.011-1.816.011-2.725V157.859a11.414,11.414,0,0,0-.38-3.275,2.89,2.89,0,0,0-2.644-2.173c-.74-.1-1.5-.13-2.27-.185v-1.094h1.514c.074,0,.148.017.222.019l2.5.052c1.457.03,2.916.083,4.375.081,1.377,0,2.753-.056,4.13-.089l3.458-.087h.185v1.183c-.653,0-1.3.039-1.94-.011-.839-.065-1.666-.22-2.507-.3-.472-.048-.783.05-.87.605a9.138,9.138,0,0,0-.122,1.438q-.017,7.014-.009,14.031v.2c.078-.065.13-.1.17-.141,1.216-1.259,2.44-2.508,3.641-3.78.981-1.039,1.96-2.079,2.89-3.164q2.086-2.429,4.1-4.93a17.387,17.387,0,0,0,2.136-3.26,3.242,3.242,0,0,0,.433-1.666,1.666,1.666,0,0,0-.985-1.492,4.11,4.11,0,0,0-1.522-.354c-.487-.035-.977-.057-1.464-.1-.054,0-.143-.074-.144-.115-.011-.355,0-.711,0-1.1.244.017.465.039.685.046q.666.028,1.337.044c.759.02,1.518.031,2.277.054.587.019,1.174.072,1.761.072.741,0,1.481-.037,2.222-.061.446-.015.892-.041,1.338-.056.646-.02,1.3-.031,1.94-.052.22,0,.441-.028.678-.044v1.185c-.215.009-.428.017-.639.03a5.409,5.409,0,0,0-2.762.768,7.793,7.793,0,0,0-1.64,1.6c-.568.683-1.142,1.366-1.712,2.049l-1.925,2.3L199,158.107l-1.914,2.288-1.7,2.036-.448.539,4.591,5.122c-.02-.541-.052-1.026-.054-1.511a9.377,9.377,0,0,1,1.1-4.362A9.22,9.22,0,0,1,204.1,158.4c.159-.094.12-.217.109-.341a12.29,12.29,0,0,1-.117-1.348,6.631,6.631,0,0,1,2.155-4.917,4.919,4.919,0,0,1,2.821-1.318,3.616,3.616,0,0,1,2.222.37,1.357,1.357,0,0,1,.579,1.851,1.007,1.007,0,0,1-1.775.146,2.72,2.72,0,0,0-.846-.866,2.315,2.315,0,0,0-2.364.154,4.03,4.03,0,0,0-1.892,2.921,3.533,3.533,0,0,0,.131,1.968c.1.244.243.472.37.724a2.744,2.744,0,0,1,1.387-.235,1.588,1.588,0,0,1,1.357.781,1.564,1.564,0,0,1-.617,1.994,1.875,1.875,0,0,1-2.394-.28,8.593,8.593,0,0,1-.659-.781c-.1-.128-.185-.185-.344-.089a5.1,5.1,0,0,0-2.057,2.1,6.9,6.9,0,0,0-.839,3.977,6.181,6.181,0,0,0,2.21,4.378,8.847,8.847,0,0,0,4.112,1.911,9.794,9.794,0,0,0,2.446.215,9.492,9.492,0,0,0,5.739-2.116,6.743,6.743,0,0,0,2.055-2.9,7.359,7.359,0,0,0,.454-2.9,3.208,3.208,0,0,0-1.05-2.407,3.5,3.5,0,0,0-1.781-.789,5.009,5.009,0,0,0-2.592.218,2.313,2.313,0,0,0-1.594,1.509,1.553,1.553,0,0,0,.015,1.024.576.576,0,0,0,.763.383c.241-.07.47-.172.707-.254a1.141,1.141,0,0,1,1.411.42,1.394,1.394,0,0,1,.046,1.3,1.788,1.788,0,0,1-1.605,1.187,1.879,1.879,0,0,1-1.827-.957,3.352,3.352,0,0,1-.352-2.236,4.917,4.917,0,0,1,1.129-2.6,5.517,5.517,0,0,1,3.23-1.972,7.078,7.078,0,0,1,2.236,0c.6.07,1.192.13,1.788.185.494.048.989.085,1.481.133.185.019.248-.043.244-.235-.022-1.287-.03-2.575-.057-3.864,0-.292-.013-.489-.035-.783-.02-.267-.056-.637-.094-.9a13.938,13.938,0,0,0-.337-1.851,2.473,2.473,0,0,0-1.816-1.666,6.849,6.849,0,0,0-1.994-.272h-.926v-1.137h1.892l2.457.052c1.235.03,2.47.085,3.7.083,1.444,0,2.888-.056,4.33-.093,1.25-.031,2.5-.07,3.765-.107v1.19h-.661a7.751,7.751,0,0,0-2.1.224,2.708,2.708,0,0,0-2.184,2.473,24.471,24.471,0,0,0-.276,3.118c-.011.99-.048,1.979-.048,2.962q0,7.074.011,14.144a13.6,13.6,0,0,0,.37,3.3,3.778,3.778,0,0,0,2.993,2.929,11,11,0,0,0,2.279.315c.885.026,1.77.085,2.653.078a5.061,5.061,0,0,0,2.47-.613,5.183,5.183,0,0,0,2.036-2.181,11.108,11.108,0,0,0,1.079-3.332c.107-.609.194-1.224.293-1.851h1.3c-.035.6-.068,1.2-.1,1.794-.017.311-.037.622-.052.926-.033.74-.057,1.481-.1,2.222-.05.948-.115,1.9-.167,2.845-.026.437-.037.876-.054,1.314v.254c-.589-.043-1.15-.093-1.711-.12-.792-.039-1.587-.072-2.381-.085-.565-.009-1.131.017-1.7.031-.848.022-1.694.059-2.54.068-1.285.017-2.571.013-3.856.019l-10.88.056c-.865,0-1.727.022-2.592.033H215.3v-1.187h1.07a5.71,5.71,0,0,0,2.312-.422,2.429,2.429,0,0,0,1.481-1.842,18.779,18.779,0,0,0,.28-2.085c.241-3.069.111-6.144.137-9.217.013-1.372,0-2.742,0-4.112,0-.194-.037-.235-.255-.215-.516.048-1.039.035-1.557.043-.137,0-.276-.015-.455-.024.115.244.215.444.307.65a6.744,6.744,0,0,1,.494,3.429,9.413,9.413,0,0,1-1.139,3.758,10.238,10.238,0,0,1-3.456,3.623,10.946,10.946,0,0,1-4.471,1.705,13.784,13.784,0,0,1-2.488.094,10.012,10.012,0,0,1-2.932-.622Z" transform="translate(-176.93 -148.16)"/><path class="b" d="M505.632,228.23a1.2,1.2,0,0,0,.148,1.514,1.187,1.187,0,0,0,1.412.237,1.143,1.143,0,0,0,.537-1.364,1.363,1.363,0,0,1-.218,1.873,1.505,1.505,0,0,1-2.068-.248,1.418,1.418,0,0,1,.189-2.012Z" transform="translate(-444.355 -213.407)"/><path class="b" d="M494.887,260.88a1.207,1.207,0,0,0,.292,1.557,1.131,1.131,0,0,0,1.326.137c.454-.241.6-.615.531-1.353a1.377,1.377,0,0,1-.274,1.912,1.507,1.507,0,0,1-2.073-.361A1.387,1.387,0,0,1,494.887,260.88Z" transform="translate(-435.634 -240.012)"/><path class="b" d="M486.156,275.975a1.239,1.239,0,0,0,1.272.77,1.026,1.026,0,0,0,.976-.853,1.2,1.2,0,0,0-.753-1.385,1.478,1.478,0,0,1,1.361,1.305,1.387,1.387,0,0,1-1.39,1.516A1.493,1.493,0,0,1,486.156,275.975Z" transform="translate(-428.909 -251.115)"/><path class="b" d="M469.2,208.121a1.255,1.255,0,0,0,1.25.926,1.061,1.061,0,0,0,1-.7c.206-.494.057-.9-.507-1.481a1.427,1.427,0,0,1,1.111,1.594,1.355,1.355,0,0,1-1.6,1.166A1.438,1.438,0,0,1,469.2,208.121Z" transform="translate(-415.082 -196.001)"/><path class="b" d="M477.732,287.917a1.179,1.179,0,0,1-.309,1.629,1.3,1.3,0,0,1-1.74-.318,1.2,1.2,0,0,1,.137-1.618,1.07,1.07,0,0,0,.855,1.555C477.332,289.224,477.682,288.819,477.732,287.917Z" transform="translate(-420.173 -261.794)"/><path class="b" d="M461.854,190.945c-.392.152-.639.37-.65.772a.783.783,0,0,0,.5.772.985.985,0,0,0,1.183-.211l.046.043a3.222,3.222,0,0,1-.37.405,1.216,1.216,0,0,1-1.8-.531A.964.964,0,0,1,461.854,190.945Z" transform="translate(-408.178 -183.015)"/><path class="b" d="M468.814,174.1c0-.009-.02-.013-.044-.028a2.4,2.4,0,0,1-1.014.835,1.35,1.35,0,0,1-1.263-.118,4.785,4.785,0,0,0,.3-.426.446.446,0,0,0-.217-.683,1.9,1.9,0,0,0-.654-.185c-.317-.017-.5.111-.455.418a1.122,1.122,0,0,0,.161.467,3.486,3.486,0,0,0,.446.444,1.174,1.174,0,0,1-.95.311c-.492-.043-.77-.255-.816-.629a1.7,1.7,0,0,0-1.535-1.472c-.2-.015-.4,0-.672,0,.2-.244.348-.444.511-.631a2,2,0,0,1,2.212-.752c.555.168,1.111.37,1.666.555.019-.074.048-.185.074-.285.159-.646.163-.655-.463-.87a3.331,3.331,0,0,0-1.822-.218,3.289,3.289,0,0,0-1.707,1.214c-.12.137-.233.28-.38.457A1.751,1.751,0,0,0,461,170.921a1.685,1.685,0,0,0-1.888.531v-.185a1.546,1.546,0,0,0-.618-1.2,1.753,1.753,0,0,1-.539-.753.974.974,0,0,0-.037-.1,2.777,2.777,0,0,0-1.544-1.453c-.313-.128-.318-.117-.428.22.887.263,1.75.555,1.868,1.718-.185-.024-.357-.046-.522-.063-.407-.043-.583.109-.542.511a2.062,2.062,0,0,0,.168.565.435.435,0,0,0,.42.313.639.639,0,0,0,.555-.413,3.792,3.792,0,0,0,.139-.515.482.482,0,0,1,.122.02,1.476,1.476,0,0,1,.772,1.622,1.87,1.87,0,0,0,.294,1.738,1.629,1.629,0,0,0,.961.589,7.183,7.183,0,0,0,.866.05,1.714,1.714,0,0,0,1.177,2.135,1.623,1.623,0,0,0,2.09-1.24.3.3,0,0,1,.056.017,1.5,1.5,0,0,0,1.851-.011.224.224,0,0,1,.194,0,2.311,2.311,0,0,0,2.342-.383C469.046,174.377,469.044,174.375,468.814,174.1ZM457.337,170.8c-.185,0-.37-.357-.37-.713,0-.2.115-.257.278-.259.361,0,.528.111.526.352,0,.3-.218.616-.426.62Zm3.251,2.755a1.329,1.329,0,0,1-1.3-1.214,1.162,1.162,0,0,1,1.2-1.237,1.283,1.283,0,0,1,1.3,1.229,1.179,1.179,0,0,1-1.2,1.222Zm2.155,2.209a1.35,1.35,0,0,1-1.305-1.281,1.223,1.223,0,0,1,1.207-1.176,1.281,1.281,0,0,1,1.3,1.263,1.187,1.187,0,0,1-1.2,1.194Zm3.584-1.155a.117.117,0,0,1-.1.028.953.953,0,0,1-.537-.683c-.019-.185.089-.267.254-.235a1.959,1.959,0,0,1,.555.185.313.313,0,0,1,.106.292A1.8,1.8,0,0,1,466.326,174.6Z" transform="translate(-404.296 -164.069)"/><path class="b" d="M493.445,211.462a1.452,1.452,0,0,0-1.263-.831,1.238,1.238,0,0,1,.813,1.355,1.122,1.122,0,0,1-.829.887,1.054,1.054,0,0,1-1.026-.281,1.408,1.408,0,0,0,.27-1.985,1.172,1.172,0,1,1-2.153-.237,1.087,1.087,0,0,0-.448.778,6.338,6.338,0,0,0,.083.855,1.615,1.615,0,0,0-1.505,2.8,1.666,1.666,0,0,0,1.953.231A1.535,1.535,0,0,0,490,214.3a1.666,1.666,0,0,0-.091-1.49,1.434,1.434,0,0,0,.511.019c.359-.143.555.013.8.261a1.394,1.394,0,0,0,2.222-1.629Zm-4.908,3.21a1.3,1.3,0,0,1-1.3-1.278,1.174,1.174,0,0,1,1.211-1.179,1.3,1.3,0,0,1,1.287,1.287,1.181,1.181,0,0,1-1.2,1.17Z" transform="translate(-429.42 -198.853)"/><path class="b" d="M467.086,254.594a1.614,1.614,0,0,0-1.172-.207,1.666,1.666,0,0,0-1.009.633.243.243,0,0,1-.043-.037.4.4,0,0,1-.043-.078,1.373,1.373,0,0,0-1.359-.729,1.239,1.239,0,0,0-1.174,1.622,1.418,1.418,0,0,0,1.707,1,4.241,4.241,0,0,0,.713-.35,1.757,1.757,0,0,0,1.811,1.209,1.573,1.573,0,0,0,1.412-1.237A1.666,1.666,0,0,0,467.086,254.594Zm-3.354,1.8c-.7-.054-1.183-.516-1.127-1.087a.958.958,0,0,1,1.081-.939,1,1,0,0,1,.974.994A.95.95,0,0,1,463.731,256.392Zm3.847-.444a1.152,1.152,0,0,1-1.209,1.159,1.307,1.307,0,0,1-1.283-1.407,1.176,1.176,0,0,1,1.229-1.055,1.281,1.281,0,0,1,1.263,1.3Z" transform="translate(-409.421 -234.549)"/><path class="b" d="M488.2,240.672a1.231,1.231,0,0,0-.963-1.029l.15.118a.992.992,0,0,1,.317,1.122.911.911,0,0,1-1.111.57,1.042,1.042,0,0,1-.8-.883,1.547,1.547,0,0,0-.555-1.205,1.7,1.7,0,0,0-1.992-.222,1.564,1.564,0,0,0-.709,1.761,1.69,1.69,0,0,0,1.251,1.259,1.5,1.5,0,0,0,1.6-.452,4.8,4.8,0,0,0,.424-.641,1.481,1.481,0,0,0,.648.768,1.253,1.253,0,0,0,1.029.07A1.145,1.145,0,0,0,488.2,240.672Zm-3.919,1.026a1.291,1.291,0,0,1-1.264-1.3,1.161,1.161,0,0,1,1.181-1.176,1.3,1.3,0,0,1,1.3,1.3A1.159,1.159,0,0,1,484.284,241.7Z" transform="translate(-425.919 -222.116)"/><path class="b" d="M468.608,227.235a1.46,1.46,0,0,0-1.327-1.014,1.275,1.275,0,0,1,.813,1.318,1.162,1.162,0,0,1-.892.935c-.542.117-1-.143-1.42-.818a1.66,1.66,0,0,0,.691,1.189l-.109.044a1.279,1.279,0,0,0-.77,1.537,1.12,1.12,0,0,0,.507.753,2.455,2.455,0,0,0,.979.289,1.247,1.247,0,0,0,1.174-1.5,1.635,1.635,0,0,0-.578-.913C468.591,228.466,468.846,227.961,468.608,227.235Zm-.644,2.831a.952.952,0,0,1-1,.961,1.052,1.052,0,0,1-1.059-1.052.959.959,0,0,1,.94-.955A1.064,1.064,0,0,1,467.963,230.066Z" transform="translate(-412.114 -211.768)"/><path class="b" d="M468.917,272.508a.811.811,0,0,1-.485-.74c-.022-.441.333-.681,1.07-.741a1.126,1.126,0,0,0-1.418.205c-.069.087-.185.194-.283.185a1.061,1.061,0,0,1-.466-.185.805.805,0,0,1-.4-.82.714.714,0,0,1,.574-.605,2.4,2.4,0,0,1,.485-.037,1.1,1.1,0,0,0-1.438.239.74.74,0,0,0-.1.809,5.059,5.059,0,0,0,.476.661.974.974,0,0,0-.926.841,1.1,1.1,0,0,0,.69,1.111,1,1,0,0,0,1.207-.391.816.816,0,0,0,.078-.765,5.809,5.809,0,0,0-.37-.646h.265a1.242,1.242,0,0,0,.805,1.15,1.179,1.179,0,0,0,1.072-.072A4.785,4.785,0,0,1,468.917,272.508Zm-1.083-.059a.761.761,0,0,1-.776.722.809.809,0,0,1-.781-.868.7.7,0,0,1,.774-.648.792.792,0,0,1,.783.8Z" transform="translate(-412.485 -247.119)"/><path class="b" d="M458.688,217a1.3,1.3,0,0,0-1.318,1.3,1.414,1.414,0,0,0,1.425,1.4,1.257,1.257,0,0,0,1.3-1.276A1.414,1.414,0,0,0,458.688,217Zm.113,2.222a1.061,1.061,0,0,1-1.068-1.052.963.963,0,0,1,.985-.963,1.072,1.072,0,0,1,1.066,1.064.948.948,0,0,1-.983.95Z" transform="translate(-405.453 -204.255)"/><path class="b" d="M450.889,200.751a1.076,1.076,0,0,1-1.442.544c-.348-.128-.348-.139-.139-.435a1.13,1.13,0,0,0,.117-.213.441.441,0,0,0-.185-.613,1.335,1.335,0,0,0-.846-.2.318.318,0,0,0-.318.33.8.8,0,0,0,.255.659c.111.106.228.205.37.328-.8.613-1.457.217-2.131-.274a1.552,1.552,0,0,0,2.347.383,2.243,2.243,0,0,0,2.536-.391Zm-2.081.2a.909.909,0,0,1-.509-.624c-.018-.2.044-.3.272-.3a3.33,3.33,0,0,1,.565.217.317.317,0,0,1,.08.3,1.6,1.6,0,0,1-.291.385A.133.133,0,0,1,448.808,200.949Z" transform="translate(-396.652 -190.266)"/></g></g></svg>