<svg xmlns="http://www.w3.org/2000/svg" width="125" height="81.466" viewBox="0 0 125 81.466"><defs><style>.a,.d,.e{fill:#fff;}.b,.c{fill:#231f20;}.c{stroke:#231f20;stroke-width:0.61px;}.c,.e{stroke-miterlimit:3.86;}.d{fill-rule:evenodd;}.e{stroke:#fff;stroke-width:0.43px;}.f{fill:#8e0505;}</style></defs><g transform="translate(-47.51 -47.5)"><g transform="translate(47.51 47.5)"><path class="a" d="M50,90.218C50,68.007,77.748,50,111.985,50s61.984,18.007,61.984,40.218-27.753,40.216-61.984,40.216S50,112.429,50,90.218Z" transform="translate(-49.486 -49.483)"/><path class="b" d="M110.009,128.966c-16.655,0-32.321-4.213-44.11-11.862C54.039,109.41,47.51,99.158,47.51,88.234S54.041,67.056,65.9,59.362C77.686,51.713,93.352,47.5,110.009,47.5s32.323,4.213,44.112,11.862c11.86,7.694,18.389,17.949,18.389,28.872s-6.531,21.176-18.389,28.87C142.33,124.753,126.664,128.966,110.009,128.966Zm0-80.433c-33.885,0-61.468,17.81-61.468,39.7s27.583,39.7,61.468,39.7,61.468-17.808,61.468-39.7S143.894,48.533,110.009,48.533Z" transform="translate(-47.51 -47.5)"/></g><g transform="translate(50.595 50.448)"><path class="c" d="M62.44,99.556c0-20.868,26.6-37.786,59.412-37.786s59.414,16.916,59.414,37.786-26.6,37.786-59.412,37.786S62.44,120.424,62.44,99.556Z" transform="translate(-62.44 -61.77)"/></g><g transform="translate(54.696 52.736)"><path class="a" d="M117.98,145.118a4.652,4.652,0,0,1,.707.893c.11.293-.165.55-.38.75l.134.143L122.1,143.5l-.876-1.064-.155.145c.605.826.223,1.329-.463,1.994-.264.256-.692.632-1.07.576a1.51,1.51,0,0,1-.709-.517l-.952-1.021c.645-.6,1.033-.9,1.736-.337l.153-.145c-.244-.248-.5-.5-.746-.746-.248-.293-.51-.587-.764-.874l-.155.145c.378.486.576.967-.38,1.787l-1.37-1.475c-.256-.275-.273-.225-.064-.413l.483-.45c.713-.665,1.1-.946,1.909-.337l.155-.145-.878-.94-3.339,3.114.157.167c.207-.207.49-.457.775-.326a4.48,4.48,0,0,1,.841.767l1.6,1.719Z" transform="translate(-107.932 -125.87)"/><path class="a" d="M148.63,127.413l.085-.054v-.413a2.667,2.667,0,0,0,1.628-.446c.9-.585,1.548-1.653.94-2.583s-1.744-.727-2.744-.514c-.6.124-1.271.287-1.636-.277a.963.963,0,0,1,.413-1.343,1.6,1.6,0,0,1,2.019.293l.178-.116-.841-1.211-.085.056v.393a2.5,2.5,0,0,0-1.4.393,1.615,1.615,0,0,0-.69,2.273c.529.812,1.5.671,2.364.467.7-.159,1.471-.3,1.895.353a1.15,1.15,0,0,1-.523,1.61,1.734,1.734,0,0,1-2.318-.384l-.178.116.9,1.393Z" transform="translate(-133.037 -110.851)"/><path class="a" d="M172.9,102.75l-5.07,2.479.583,1.194.19-.093c-.413-.926-.035-1.157.783-1.556.331-.161.682-.362.8-.132l1.771,3.63c.275.566.264.837-.521,1.258l.085.178c.442-.227.864-.45,1.3-.672s.928-.426,1.386-.638l-.085-.176c-.816.36-1.033.207-1.314-.366l-1.771-3.63c-.12-.246.395-.448.7-.6.777-.378,1.188-.333,1.6.395l.223-.11-.657-1.159Z" transform="translate(-150.156 -96.57)"/><path class="d" d="M206.913,98.809l2.145-.738.62.713a1.859,1.859,0,0,1,.388.568c.11.314-.322.444-.562.537l.064.184c.413-.151.826-.314,1.24-.465s.826-.26,1.24-.393l-.064-.186a1.045,1.045,0,0,1-.849-.041,6.007,6.007,0,0,1-.756-.729l-3.147-3.49-.3.1L206.7,98.5c-.066.6-.126,1.188-.192,1.787a.883.883,0,0,1-.636.86l.064.186c.3-.114.591-.231.893-.343s.643-.194.967-.3l-.064-.186c-.269.066-.7.244-.826-.1a4.227,4.227,0,0,1,0-1.36v-.229Zm.025-.3.182-2.6,1.738,1.944-1.928.659Z" transform="translate(-180.337 -90.239)"/><path class="d" d="M234.189,86.011c-.019-.064-.089-.293-.039-.357a1.849,1.849,0,0,1,.512-.184c.789-.207,1.312.037,1.508.771a1.041,1.041,0,0,1-.192,1.091,2.077,2.077,0,0,1-1.008.457l-.285.076-.5-1.86Zm.556,2.066L235.02,88a3.378,3.378,0,0,1,1.43-.2,1.311,1.311,0,0,1,.006,2.531c-.337.091-.779.219-1.033-.1a3.407,3.407,0,0,1-.384-1.008l-.306-1.145Zm-.6,1.432a5.153,5.153,0,0,1,.207,1.116c-.021.312-.4.413-.68.481l.05.188c.5-.14,1-.291,1.492-.434.393-.1.779-.182,1.172-.279a4.053,4.053,0,0,0,1.574-.651,1.417,1.417,0,0,0,.541-1.424,1.386,1.386,0,0,0-.988-.952,2.938,2.938,0,0,0-1.386,0v-.017c.62-.37,1.194-.866.994-1.616-.293-1.1-1.6-.981-2.529-.707-.353.1-.694.207-1.048.316-.428.105-.849.207-1.277.306l.05.19c.285-.076.655-.184.826.079a5.081,5.081,0,0,1,.372,1.072l.62,2.322Z" transform="translate(-201.282 -82.511)"/><path class="a" d="M268.342,82.938a4.533,4.533,0,0,1,.068,1.134c-.079.3-.453.355-.744.4l.029.194c1.562-.229,3.136-.45,4.7-.694.157,0,.322-.021.477-.033l-.128-1.5-.227.031a1.225,1.225,0,0,1-.442,1.136,2.479,2.479,0,0,1-1.262.393c-1.157.163-1.364.012-1.515-1.068l-.351-2.5a4.536,4.536,0,0,1-.066-1.134c.076-.3.45-.357.742-.4l-.027-.194-1.38.227c-.436.054-.868.1-1.3.149l.027.194c.291-.041.663-.093.827.178a4.665,4.665,0,0,1,.248,1.11l.335,2.38Z" transform="translate(-228.765 -77.489)"/><path class="a" d="M300.177,78.716a4.185,4.185,0,0,1,0,1.136c-.1.3-.469.333-.762.357l.017.207c.457-.05.922-.107,1.38-.155s.888-.052,1.32-.081l-.017-.207c-.293.027-.669.058-.814-.219a4.594,4.594,0,0,1-.19-1.122L300.9,76.24a4.2,4.2,0,0,1,0-1.138c.095-.3.469-.331.762-.355l-.017-.207c-.457.048-.913.105-1.38.155s-.88.052-1.32.081l.016.207c.293-.027.669-.06.814.219a4.6,4.6,0,0,1,.19,1.12Z" transform="translate(-254.185 -74.189)"/><path class="a" d="M321.046,78.809h.1l.207-.366a2.673,2.673,0,0,0,1.624.457c1.074-.039,2.176-.62,2.136-1.729s-1.12-1.521-2.087-1.86c-.576-.207-1.24-.413-1.26-1.083a.964.964,0,0,1,1.033-.94,1.6,1.6,0,0,1,1.581,1.291h.207L324.5,73.1h-.1l-.207.339a2.5,2.5,0,0,0-1.4-.386c-1,.035-1.8.62-1.765,1.6s.938,1.349,1.783,1.618c.68.223,1.415.506,1.446,1.281.025.688-.56,1.085-1.275,1.11a1.735,1.735,0,0,1-1.791-1.523h-.207l.058,1.653Z" transform="translate(-271.671 -73.011)"/><path class="a" d="M348.981,75.782l3.277.116-.037,1.141a4.528,4.528,0,0,1-.132,1.13c-.128.285-.506.271-.8.26v.207c.459,0,.919,0,1.378.014s.891.056,1.331.081v-.207c-.293,0-.669-.023-.779-.316a4.474,4.474,0,0,1-.052-1.136l.087-2.4a4.1,4.1,0,0,1,.132-1.13c.128-.285.5-.271.8-.262v-.2l-1.37,0c-.448-.025-.889-.056-1.339-.081v.194c.293.012.669.025.779.318a4.474,4.474,0,0,1,.052,1.136l-.033.988L349,75.52l.035-.988a4.148,4.148,0,0,1,.13-1.128c.13-.285.506-.273.8-.262v-.207c-.469,0-.928,0-1.4-.014s-.88-.056-1.312-.081v.207c.293,0,.669.023.779.318a4.558,4.558,0,0,1,.052,1.134L348,76.9a4.624,4.624,0,0,1-.132,1.128c-.13.285-.506.273-.8.262v.2c.45,0,.919,0,1.378.014s.888.056,1.331.079v-.194c-.293,0-.669-.025-.779-.318a4.551,4.551,0,0,1-.054-1.134l.041-1.143Z" transform="translate(-292.363 -72.84)"/><path class="a" d="M388.009,78.493a4.494,4.494,0,0,1-.229,1.112c-.155.275-.529.227-.826.192l-.023.194,4.959.62.248-1.351-.207-.027c-.242.992-.876,1.033-1.827.928-.366-.037-.93-.122-1.13-.448a1.527,1.527,0,0,1-.06-.874l.172-1.388c.876.11,1.353.207,1.372,1.114l.207.027c.035-.349.068-.7.093-1.054.066-.378.122-.767.178-1.147l-.207-.025c-.13.6-.372,1.062-1.616.857l.246-2c.048-.372,0-.353.281-.318l.657.081c.965.12,1.432.236,1.483,1.24l.207.025.157-1.277-4.533-.558-.027.229c.291.037.665.083.748.384a4.519,4.519,0,0,1-.045,1.136L388,78.495Z" transform="translate(-323.987 -74.086)"/><path class="d" d="M419.216,83.084a5.006,5.006,0,0,1-.318,1.091c-.159.262-.535.184-.826.122l-.041.192c.413.076.814.147,1.229.225.529.122,1.064.254,1.593.374,1.841.436,3.285-.207,3.661-1.984.384-1.808-.826-3.213-2.723-3.583-.488-.1-.975-.182-1.463-.277-.376-.089-.758-.188-1.126-.275l-.043.207c.287.062.667.134.7.446a5.228,5.228,0,0,1-.155,1.126l-.5,2.333Zm1.653-3.194c.012-.066.043-.207.107-.248.1-.058.444.033.552.058,1.924.413,2.194,1.653,1.843,3.306-.26,1.24-.789,2.219-2.362,1.884-.343-.072-.793-.207-.94-.531a1.714,1.714,0,0,1,.054-.955l.746-3.512Z" transform="translate(-348.661 -77.703)"/><path class="a" d="M494.064,101.6a4.621,4.621,0,0,1-2.033-.43l-.068.155.486.207c.186.083.446.207.467.376a2.11,2.11,0,0,1-.217.733l-1.24,2.773a3.054,3.054,0,0,1-.432.767c-.19.157-.725-.107-.948-.207l-.079.18c.432.184.866.357,1.3.541s.826.4,1.24.591l.078-.178c-.227-.12-.731-.3-.692-.589a3.465,3.465,0,0,1,.277-.783l1.86-4.155Z" transform="translate(-405.761 -95.317)"/><path class="d" d="M512.885,114.638c-.413.68-1.172,2.318-2.294,1.748-.605-.31-.087-.944-.587-1.2a.372.372,0,0,0-.51.151c-.223.442.378.938.756,1.13,1.636.826,3.031-.587,3.653-1.808.531-1.033.657-2.545-.684-3.229a2,2,0,0,0-2.7.826,1.744,1.744,0,0,0,.8,2.413,1.7,1.7,0,0,0,1.568-.023Zm.155-.3a1.534,1.534,0,0,1-1.461.155c-.876-.448-.519-1.271-.207-1.884s.858-1.446,1.756-1c.967.492.467,1.634.134,2.287Z" transform="translate(-421.189 -103.275)"/><path class="a" d="M536.888,124.7a11.049,11.049,0,0,0-2.459,1.579.425.425,0,0,0,.153.587c.413.262.895-.3,1.141-.543a17.858,17.858,0,0,1,3.876-2.872l.076-.124-2.3-1.446c-.328-.207-.558-.287-.413-.527a2.541,2.541,0,0,1,.231-.267l.062-.062-.207-.126-1.69,1.7.188.118.24-.192c.568-.459.643-.372,1.312.048l1.723,1.074-1.944,1.048Z" transform="translate(-440.963 -110.97)"/><path class="d" d="M557.266,148.072a1.742,1.742,0,0,0-.178-2.527,1.7,1.7,0,0,0-1.533-.349c.556-.568,1.7-1.967,2.649-1.141.512.444-.151.93.279,1.3a.374.374,0,0,0,.531-.023c.324-.372-.147-1.008-.459-1.279-1.393-1.211-3.085-.163-3.983.872-.767.88-1.252,2.31-.116,3.306a1.994,1.994,0,0,0,2.81-.153Zm-1.934-2.62a1.554,1.554,0,0,1,1.446.192c.742.645.192,1.362-.26,1.882s-1.184,1.209-1.94.552c-.826-.713-.058-1.7.413-2.246l.331-.38Z" transform="translate(-456.365 -128.91)"/><path class="a" d="M128.571,325.217l.258.192,3.905-2.657c.413-.293.907-.746,1.446-.322l.118-.157c-.262-.188-.523-.362-.783-.55s-.514-.413-.775-.62l-.118.155c.343.312.607.51.289.934a12.641,12.641,0,0,1-1.523,1.209l-1.626,1.1,1.5-4.515-.233-.178-3.922,2.775.979-2.922a6.681,6.681,0,0,1,.413-1c.236-.314.663,0,.913.165l.118-.157c-.366-.264-.744-.527-1.107-.791s-.69-.554-1.033-.826l-.118.157c.207.174.388.326.4.576a3.044,3.044,0,0,1-.207.837l-1.473,4.63.25.188c.607-.395,1.219-.777,1.829-1.172l1.981-1.409-1.467,4.349Z" transform="translate(-116.961 -266.6)"/><path class="a" d="M156.6,347.908a4.546,4.546,0,0,1-.68.913c-.254.182-.574-.019-.826-.176l-.1.167c.395.238.8.471,1.2.707s.744.5,1.105.734l.1-.167c-.25-.157-.568-.355-.517-.665a4.528,4.528,0,0,1,.523-1.01l1.273-2.037a4.681,4.681,0,0,1,.678-.913c.256-.182.576.019.826.174l.105-.165c-.395-.236-.8-.465-1.2-.707s-.736-.492-1.107-.731l-.1.165c.25.157.57.357.519.665a4.617,4.617,0,0,1-.523,1.01Z" transform="translate(-139.969 -287.998)"/><path class="a" d="M177.439,358.09a6.238,6.238,0,0,1-.548,1.043c-.231.3-.55.176-.893.06l-.078.18c.314.13.632.252.946.382s.636.312.952.463l.081-.178c-.3-.172-.583-.279-.589-.647a3.975,3.975,0,0,1,.38-1.192l1.163-2.62,1.653,5.165c.089.3.176.6.269.893l.252.114,1.494-3.355a7.774,7.774,0,0,1,.707-1.318c.258-.285.467-.165.791-.058l.079-.178c-.314-.132-.605-.244-.9-.366s-.6-.3-.909-.444l-.081.18c.393.25.634.318.541.8a7.056,7.056,0,0,1-.459,1.24l-.963,2.163-1.781-5.6c-.221-.091-.457-.176-.678-.265-.267-.128-.519-.26-.785-.386l-.076.172a1.078,1.078,0,0,1,.707.876l-1.277,2.872Z" transform="translate(-156.575 -296.043)"/><path class="a" d="M214.092,372.541a4.241,4.241,0,0,1-.457,1.033c-.207.236-.564.114-.841.017l-.064.186,4.734,1.63.525-1.271-.207-.07c-.444.921-1.072.826-1.981.527-.351-.112-.884-.314-1.014-.674a1.54,1.54,0,0,1,.124-.868l.455-1.322c.826.289,1.283.488,1.114,1.376l.207.068c.105-.333.207-.674.308-1.01.143-.357.279-.725.413-1.085l-.207-.068c-.252.562-.585.961-1.76.5l.657-1.909c.124-.355.07-.345.341-.252l.62.207c.924.318,1.355.531,1.2,1.529l.207.07.413-1.217-4.324-1.49-.076.217c.279.1.636.221.655.533a4.547,4.547,0,0,1-.281,1.1l-.767,2.223Z" transform="translate(-185.779 -307.372)"/><path class="a" d="M277.518,385.322a2.91,2.91,0,0,1,.207-.928c.172-.262.529-.227.827-.192l.027-.207c-.322-.021-.62-.05-.909-.076s-.574-.087-.855-.141l-2.479,4.091-1.5-4.572c-.285-.019-.562-.043-.845-.07s-.61-.091-.919-.147l-.023.194c.291.037.667.083.75.384a1.652,1.652,0,0,1,.014.56l-.424,3.6c-.048.382-.223.754-.917.669l-.023.194c.32.031.643.054.963.085s.674.108,1.01.159l.023-.2c-.736-.124-.827-.488-.748-1.147l.436-3.56h.019l1.63,5.066.093.012c.483-.764.957-1.531,1.446-2.3l1.331-2.231h.019l-.452,3.688c-.1.8-.132.841-1.017.8l-.023.194c.457.048.926.089,1.382.136s.893.134,1.366.207l.025-.194c-.87-.174-.891-.221-.793-1.033l.376-3.06Z" transform="translate(-231.573 -318.98)"/><path class="a" d="M316.062,392.505a4.1,4.1,0,0,1-.132,1.13c-.128.285-.506.271-.8.26v.2l5,.176.13-1.368h-.207c-.155,1.01-.785,1.1-1.742,1.083-.368,0-.938-.041-1.167-.347a1.546,1.546,0,0,1-.134-.868l.047-1.4c.884.031,1.37.091,1.467.99h.207V391.3c.031-.382.054-.775.076-1.157h-.207c-.078.62-.279,1.091-1.537,1l.07-2.019c.015-.374-.033-.349.252-.341l.661.025c.975.033,1.446.109,1.593,1.112h.207l.046-1.285-4.587-.163v.229c.3.01.672.025.781.318a4.567,4.567,0,0,1,.054,1.136l-.083,2.349Z" transform="translate(-267.022 -323.256)"/><path class="d" d="M348.672,389.884c0-.093-.023-.254.1-.308a3.5,3.5,0,0,1,.6-.019,1.193,1.193,0,0,1,1.31,1.254c.023,1.24-.814,1.275-1.965,1.3Zm1.421,2.285c.909-.093,1.653-.574,1.638-1.494-.021-1.186-1.083-1.388-2.13-1.37-.386.017-.783.039-1.169.054H346.85v.2c.293,0,.68-.021.787.277a5,5,0,0,1,.1,1.13l.043,2.4a5.09,5.09,0,0,1-.064,1.134c-.1.291-.481.3-.777.3v.2c.459-.016.919-.041,1.378-.058s.876.01,1.3.01v-.194c-.293,0-.671.019-.787-.277a5.125,5.125,0,0,1-.1-1.132l-.017-1c.488,0,.45.041.76.362l1.558,1.729.442.486c.229-.012.459-.033.688-.048.277,0,.554.017.826.021v-.2a1.24,1.24,0,0,1-.911-.488l-1.986-2.035Z" transform="translate(-292.188 -323.918)"/><path class="a" d="M386.418,386.474a3.347,3.347,0,0,0-1.907-.364,3.005,3.005,0,0,0-2.948,3.252,2.837,2.837,0,0,0,3.374,2.57,3.217,3.217,0,0,0,1.971-.814l.258.413.118-.01-.161-1.86-.165.014c-.186,1.033-.581,1.934-1.86,2.045-1.622.143-2.273-1.178-2.386-2.461s.252-2.818,1.895-2.961a1.86,1.86,0,0,1,2.066,1.434l.207-.019-.221-1.665-.136.012-.112.413Z" transform="translate(-319.718 -321.336)"/><path class="a" d="M416.293,381.79l3.213-.682.238,1.116a4.516,4.516,0,0,1,.145,1.128c-.056.308-.426.386-.713.448l.041.19c.448-.1.895-.207,1.343-.32s.878-.159,1.312-.244l-.041-.192c-.287.062-.657.14-.826-.118a4.626,4.626,0,0,1-.324-1.091l-.5-2.349a4.538,4.538,0,0,1-.147-1.128c.058-.308.426-.386.715-.448l-.041-.19c-.448.1-.886.207-1.335.318s-.878.161-1.32.246l.041.192c.287-.062.657-.141.826.118a4.622,4.622,0,0,1,.324,1.091l.207.965-3.215.684-.207-.967a4.538,4.538,0,0,1-.147-1.128c.058-.308.426-.386.715-.448l-.041-.19c-.457.105-.9.217-1.362.322s-.87.159-1.293.242l.041.192c.287-.062.657-.141.826.118a4.542,4.542,0,0,1,.326,1.089l.5,2.351a4.533,4.533,0,0,1,.145,1.128c-.056.308-.426.386-.713.448l.041.19c.438-.1.895-.207,1.343-.32s.878-.159,1.312-.244l-.041-.192c-.287.062-.657.141-.827-.118a4.639,4.639,0,0,1-.324-1.089l-.238-1.118Z" transform="translate(-345.384 -314.878)"/><path class="d" d="M461.142,375.865l2.151-.74.62.713a1.926,1.926,0,0,1,.395.572c.107.314-.324.446-.564.537l.064.186c.413-.153.826-.316,1.25-.467s.826-.26,1.24-.393l-.064-.186a1.044,1.044,0,0,1-.849-.041,5.882,5.882,0,0,1-.758-.729l-3.168-3.488-.3.1-.242,3.624c-.066.6-.126,1.188-.192,1.787a.885.885,0,0,1-.638.862l.064.184c.3-.112.593-.231.895-.343s.643-.2.967-.3l-.064-.186c-.268.066-.7.244-.826-.1a4.556,4.556,0,0,1,0-1.362v-.227Zm.025-.3.184-2.6,1.74,1.942Z" transform="translate(-382.031 -310.054)"/><path class="a" d="M487.023,359.679a6.266,6.266,0,0,1,.413,1.1c.064.372-.24.527-.554.7l.081.178c.308-.145.62-.3.919-.446s.657-.264.979-.4l-.078-.18c-.324.107-.6.246-.874,0a3.715,3.715,0,0,1-.632-1.081l-1.165-2.614,4.959,2.217c.281.136.564.273.843.4l.252-.114-1.494-3.353a7.629,7.629,0,0,1-.506-1.407c-.039-.384.188-.459.486-.62l-.078-.18c-.308.147-.587.289-.878.43s-.62.248-.938.38l.079.178c.448-.124.661-.256.957.134a6.776,6.776,0,0,1,.62,1.165l.963,2.163L486,355.917c-.207.105-.434.223-.649.326-.273.112-.541.207-.814.324l.081.18a1.077,1.077,0,0,1,1.124.06Z" transform="translate(-401.429 -295.821)"/><path class="a" d="M524.22,336.276l-4.74,3.076.725,1.116.178-.116c-.523-.87-.173-1.147.589-1.643.31-.207.634-.442.775-.227l2.2,3.386c.343.529.364.8-.366,1.314l.107.163c.413-.277.8-.552,1.209-.826s.87-.535,1.3-.8l-.107-.163c-.767.457-1,.326-1.349-.207l-2.2-3.386c-.147-.229.339-.494.62-.68.725-.471,1.141-.475,1.641.194l.207-.134-.793-1.07Z" transform="translate(-429.15 -281.841)"/><path class="a" d="M555.391,325.981l.074-.068-.083-.413a2.706,2.706,0,0,0,1.527-.725c.787-.736,1.24-1.893.479-2.709s-1.843-.413-2.793-.029c-.568.227-1.2.506-1.653.012a.967.967,0,0,1,.172-1.395,1.589,1.589,0,0,1,2.041-.064l.155-.143-1.033-1.048-.074.068.072.389a2.478,2.478,0,0,0-1.312.63,1.619,1.619,0,0,0-.287,2.364c.663.711,1.6.4,2.411.048.659-.279,1.4-.55,1.928.019a1.149,1.149,0,0,1-.236,1.676,1.737,1.737,0,0,1-2.353.027l-.155.145,1.134,1.215Z" transform="translate(-455.172 -268.457)"/><path class="e" d="M82.29,240.411a1.149,1.149,0,1,1,1.149,1.147A1.149,1.149,0,0,1,82.29,240.411Z" transform="translate(-82.29 -204.875)"/><path class="e" d="M606.87,240.411a1.149,1.149,0,1,1,1.147,1.147A1.149,1.149,0,0,1,606.87,240.411Z" transform="translate(-498.484 -204.875)"/></g><g transform="translate(60.795 60.18)"><path class="f" d="M113.82,138.511c0-15.265,21.847-27.641,48.8-27.641s48.8,12.376,48.8,27.641-21.847,27.639-48.8,27.639S113.82,153.776,113.82,138.511Z" transform="translate(-113.405 -110.457)"/><path class="a" d="M161.024,164.976c-13.1,0-25.43-2.893-34.711-8.149-9.351-5.3-14.5-12.366-14.5-19.9s5.153-14.6,14.5-19.905c9.277-5.254,21.6-8.149,34.711-8.149s25.432,2.893,34.711,8.149c9.351,5.3,14.5,12.366,14.5,19.905s-5.155,14.608-14.5,19.907C186.454,162.084,174.127,164.976,161.024,164.976Zm0-55.28c-26.678,0-48.383,12.215-48.383,27.228s21.7,27.226,48.383,27.226,48.385-12.213,48.385-27.226S187.7,109.7,161.024,109.7Z" transform="translate(-111.81 -108.87)"/></g><g transform="translate(74.25 68.298)"><path d="M505.7,228.23a1.583,1.583,0,0,0-.207,2.246,1.68,1.68,0,0,0,2.308.277,1.515,1.515,0,0,0,.244-2.091,1.272,1.272,0,0,1-.6,1.523,1.358,1.358,0,0,1-1.746-1.955Z" transform="translate(-437.313 -211.686)"/><path d="M494.943,260.88a1.548,1.548,0,0,0-.221,2.112,1.682,1.682,0,0,0,2.314.4,1.537,1.537,0,0,0,.306-2.134c.072.826-.087,1.24-.593,1.51a1.262,1.262,0,0,1-1.479-.153A1.349,1.349,0,0,1,494.943,260.88Z" transform="translate(-428.812 -237.59)"/><path d="M486.157,276.122a1.652,1.652,0,0,0,1.634,1.5,1.548,1.548,0,0,0,1.552-1.692,1.642,1.642,0,0,0-1.519-1.457,1.34,1.34,0,0,1,.841,1.545,1.145,1.145,0,0,1-1.089.959A1.382,1.382,0,0,1,486.157,276.122Z" transform="translate(-422.266 -248.376)"/><path d="M469.206,208.267a1.605,1.605,0,0,0,1.395,1.684,1.517,1.517,0,0,0,1.783-1.3,1.586,1.586,0,0,0-1.24-1.779c.63.645.8,1.1.566,1.653a1.184,1.184,0,0,1-1.116.771A1.387,1.387,0,0,1,469.206,208.267Z" transform="translate(-408.802 -194.74)"/><path d="M478,287.953c-.056,1.006-.446,1.459-1.18,1.393a1.194,1.194,0,0,1-.955-1.736,1.335,1.335,0,0,0-.153,1.806,1.446,1.446,0,0,0,1.942.355A1.316,1.316,0,0,0,478,287.953Z" transform="translate(-413.758 -258.798)"/><path d="M461.986,190.955a1.081,1.081,0,0,0-1.211,1.395,1.356,1.356,0,0,0,2,.593,3.586,3.586,0,0,0,.413-.452l-.052-.048a1.1,1.1,0,0,1-1.32.236.874.874,0,0,1-.56-.862A.91.91,0,0,1,461.986,190.955Z" transform="translate(-402.08 -182.104)"/><path class="a" d="M207.658,176.77c.349.424.653.8.967,1.174.74.872,1.479,1.744,2.227,2.61.446.514.9,1.033,1.364,1.519.686.723,1.374,1.446,2.089,2.141a9.43,9.43,0,0,0,1.407,1.178,2.876,2.876,0,0,0,1.2.413c1.132.126,2.273.223,3.411.258,2.11.064,4.221.074,6.331.107h.13v1.473H225.5c-.167,0-.333-.025-.5-.027-2.112-.021-4.223-.035-6.333-.06-2.593-.029-5.186-.074-7.779-.1-1.118-.01-2.238.017-3.358.025l-2.779.023c-2.045.019-4.089.033-6.134.054-1.446.014-2.874.039-4.312.054H192.6v-1.26h.227c1.413-.014,2.826-.012,4.238-.054,1.151-.035,2.3-.1,3.45-.207a16.4,16.4,0,0,0,3.765-.647,3.705,3.705,0,0,0,.773-.374.661.661,0,0,0,.3-.921,7.066,7.066,0,0,0-1.138-1.934c-1.012-1.287-2.031-2.57-3.079-3.829-1.091-1.3-2.221-2.574-3.324-3.876-1.143-1.335-2.273-2.674-3.422-4.008-.457-.535-.921-1.064-1.395-1.612-.076.072-.143.132-.207.2q-1.75,1.777-3.5,3.556a.542.542,0,0,0-.145.341v8.527a6.486,6.486,0,0,0,.145,1.227.619.619,0,0,0,.826.514c.634-.132,1.267-.285,1.907-.395a10.094,10.094,0,0,1,2.744-.149c.138.014.281,0,.44,0v1.3h-1.752c-.207,0-.43-.029-.647-.033-.988-.021-1.975-.033-2.965-.056-1.411-.029-2.822-.091-4.234-.089-1.545,0-3.089.062-4.634.1-1.343.035-2.686.079-4.05.118v-1.326h.558a9.874,9.874,0,0,0,2.388-.219,3.248,3.248,0,0,0,2.585-2.5,11.718,11.718,0,0,0,.37-2.965c.019-1.012.012-2.027.012-3.041V158.985a12.74,12.74,0,0,0-.424-3.655,3.226,3.226,0,0,0-2.95-2.426c-.826-.107-1.676-.145-2.533-.207v-1.221h1.69c.083,0,.165.019.248.021l2.791.058c1.626.033,3.254.093,4.882.091,1.537,0,3.072-.062,4.61-.1l3.86-.1h.207v1.32c-.729,0-1.446.043-2.165-.012-.936-.072-1.86-.246-2.8-.337-.527-.054-.874.056-.971.676a10.208,10.208,0,0,0-.136,1.605q-.019,7.829-.01,15.659v.227c.087-.072.145-.11.19-.157,1.357-1.405,2.723-2.8,4.064-4.219,1.1-1.159,2.188-2.32,3.225-3.531q2.329-2.711,4.57-5.5a19.407,19.407,0,0,0,2.384-3.639,3.618,3.618,0,0,0,.483-1.86,1.859,1.859,0,0,0-1.1-1.665,4.587,4.587,0,0,0-1.7-.395c-.543-.039-1.091-.064-1.634-.107-.06,0-.159-.083-.161-.128-.012-.4,0-.793,0-1.223.273.019.519.043.764.052q.744.031,1.492.05c.847.023,1.694.035,2.541.06.655.021,1.31.081,1.965.081.826,0,1.653-.041,2.479-.068.5-.017,1-.045,1.494-.062.721-.023,1.446-.035,2.165-.058.246,0,.492-.031.756-.05v1.322c-.24.01-.477.019-.713.033a6.038,6.038,0,0,0-3.083.857,8.7,8.7,0,0,0-1.831,1.781c-.634.762-1.275,1.525-1.911,2.287l-2.149,2.564-1.882,2.25-2.136,2.554-1.893,2.273-.5.6,5.124,5.717c-.023-.6-.058-1.145-.06-1.686a10.466,10.466,0,0,1,1.223-4.868,10.29,10.29,0,0,1,3.936-4.267c.178-.105.134-.242.122-.38a13.726,13.726,0,0,1-.13-1.5,7.4,7.4,0,0,1,2.405-5.488,5.49,5.49,0,0,1,3.149-1.471,4.035,4.035,0,0,1,2.479.413,1.515,1.515,0,0,1,.647,2.066,1.124,1.124,0,0,1-1.981.163,3.036,3.036,0,0,0-.944-.967,2.584,2.584,0,0,0-2.638.172,4.5,4.5,0,0,0-2.112,3.26,3.943,3.943,0,0,0,.147,2.2c.112.273.271.527.413.808a3.062,3.062,0,0,1,1.548-.262,1.772,1.772,0,0,1,1.514.872,1.746,1.746,0,0,1-.688,2.225,2.093,2.093,0,0,1-2.672-.312,9.587,9.587,0,0,1-.736-.872c-.112-.143-.207-.207-.384-.1a5.694,5.694,0,0,0-2.3,2.341,7.7,7.7,0,0,0-.936,4.438,6.9,6.9,0,0,0,2.467,4.886,9.874,9.874,0,0,0,4.589,2.132,10.926,10.926,0,0,0,2.729.24,10.593,10.593,0,0,0,6.405-2.362,7.525,7.525,0,0,0,2.293-3.24,8.213,8.213,0,0,0,.506-3.231,3.58,3.58,0,0,0-1.171-2.686,3.9,3.9,0,0,0-1.988-.88,5.591,5.591,0,0,0-2.893.244,2.581,2.581,0,0,0-1.779,1.684,1.734,1.734,0,0,0,.017,1.143.643.643,0,0,0,.851.428c.269-.079.525-.192.789-.283a1.273,1.273,0,0,1,1.574.469,1.556,1.556,0,0,1,.052,1.446,2,2,0,0,1-1.791,1.324,2.1,2.1,0,0,1-2.039-1.068,3.742,3.742,0,0,1-.393-2.5,5.487,5.487,0,0,1,1.26-2.9,6.157,6.157,0,0,1,3.605-2.2,7.9,7.9,0,0,1,2.5,0c.665.079,1.331.145,2,.207.552.054,1.1.1,1.653.149.207.021.277-.048.273-.262-.025-1.436-.033-2.874-.064-4.312,0-.326-.014-.545-.039-.874-.023-.3-.062-.711-.105-1.006a15.551,15.551,0,0,0-.376-2.066,2.76,2.76,0,0,0-2.027-1.86,7.644,7.644,0,0,0-2.225-.3H219.79v-1.269H221.9l2.742.058c1.378.033,2.756.1,4.132.093,1.612,0,3.223-.062,4.833-.1,1.395-.035,2.789-.079,4.2-.12v1.329h-.738a8.65,8.65,0,0,0-2.349.25,3.022,3.022,0,0,0-2.438,2.76,27.309,27.309,0,0,0-.308,3.479c-.012,1.105-.054,2.209-.054,3.306q0,7.895.012,15.785a15.177,15.177,0,0,0,.413,3.682,4.217,4.217,0,0,0,3.341,3.269,12.283,12.283,0,0,0,2.543.351c.988.029,1.975.1,2.961.087a5.649,5.649,0,0,0,2.756-.684,5.785,5.785,0,0,0,2.273-2.434,12.4,12.4,0,0,0,1.2-3.719c.12-.68.217-1.366.326-2.066H249.2c-.039.669-.076,1.335-.114,2-.019.347-.041.694-.058,1.033-.037.826-.064,1.653-.109,2.479-.056,1.058-.128,2.116-.186,3.176-.029.488-.041.977-.06,1.467V184c-.657-.048-1.283-.1-1.909-.134-.884-.043-1.771-.081-2.657-.1-.63-.01-1.262.019-1.893.035-.946.025-1.891.066-2.835.076-1.434.019-2.87.014-4.3.021l-12.143.062c-.965,0-1.928.025-2.893.037h-.283v-1.324h1.194a6.372,6.372,0,0,0,2.581-.471,2.711,2.711,0,0,0,1.653-2.056,20.955,20.955,0,0,0,.312-2.326c.269-3.426.124-6.858.153-10.287.014-1.531,0-3.06,0-4.589,0-.217-.041-.262-.285-.24-.576.054-1.159.039-1.738.048-.153,0-.308-.017-.508-.027.128.273.24.5.343.725a7.527,7.527,0,0,1,.552,3.827,10.506,10.506,0,0,1-1.271,4.194,11.426,11.426,0,0,1-3.857,4.043,12.218,12.218,0,0,1-4.99,1.9,15.388,15.388,0,0,1-2.777.105,11.174,11.174,0,0,1-3.273-.694Z" transform="translate(-176.93 -148.16)"/><path class="a" d="M505.693,228.23a1.338,1.338,0,0,0,.165,1.69,1.324,1.324,0,0,0,1.576.264,1.275,1.275,0,0,0,.6-1.523,1.521,1.521,0,0,1-.244,2.091,1.68,1.68,0,0,1-2.308-.277,1.583,1.583,0,0,1,.211-2.246Z" transform="translate(-437.303 -211.686)"/><path class="a" d="M494.943,260.88a1.348,1.348,0,0,0,.326,1.738,1.262,1.262,0,0,0,1.479.153c.506-.269.665-.686.593-1.51a1.537,1.537,0,0,1-.306,2.134,1.682,1.682,0,0,1-2.314-.4A1.548,1.548,0,0,1,494.943,260.88Z" transform="translate(-428.812 -237.59)"/><path class="a" d="M486.156,276.146a1.382,1.382,0,0,0,1.419.859,1.145,1.145,0,0,0,1.089-.952,1.34,1.34,0,0,0-.841-1.545,1.649,1.649,0,0,1,1.519,1.457,1.547,1.547,0,0,1-1.552,1.692A1.667,1.667,0,0,1,486.156,276.146Z" transform="translate(-422.265 -248.4)"/><path class="a" d="M469.206,208.267A1.4,1.4,0,0,0,470.6,209.3a1.184,1.184,0,0,0,1.114-.777c.229-.552.064-1-.566-1.653a1.593,1.593,0,0,1,1.24,1.779,1.513,1.513,0,0,1-1.783,1.3A1.605,1.605,0,0,1,469.206,208.267Z" transform="translate(-408.802 -194.74)"/><path class="a" d="M478,287.953a1.316,1.316,0,0,1-.345,1.818,1.446,1.446,0,0,1-1.942-.355,1.335,1.335,0,0,1,.153-1.806,1.194,1.194,0,0,0,.955,1.736C477.553,289.412,477.943,288.959,478,287.953Z" transform="translate(-413.758 -258.798)"/><path class="a" d="M461.986,190.947c-.438.169-.713.413-.725.862a.874.874,0,0,0,.56.862,1.1,1.1,0,0,0,1.32-.236l.052.048a3.589,3.589,0,0,1-.413.452,1.356,1.356,0,0,1-2-.593A1.076,1.076,0,0,1,461.986,190.947Z" transform="translate(-402.08 -182.095)"/><path class="a" d="M470.308,174.848c0-.01-.023-.014-.05-.031a2.674,2.674,0,0,1-1.132.932,1.506,1.506,0,0,1-1.409-.132,5.348,5.348,0,0,0,.331-.475.5.5,0,0,0-.242-.762,2.12,2.12,0,0,0-.729-.207c-.353-.019-.56.124-.508.467a1.255,1.255,0,0,0,.18.521,3.9,3.9,0,0,0,.5.5,1.31,1.31,0,0,1-1.06.347c-.55-.048-.86-.285-.911-.7a1.9,1.9,0,0,0-1.713-1.643c-.225-.017-.45,0-.75,0,.221-.273.388-.5.57-.7a2.234,2.234,0,0,1,2.469-.839c.62.188,1.24.413,1.86.62.021-.083.054-.207.083-.318.178-.721.182-.731-.517-.971a3.717,3.717,0,0,0-2.033-.244,3.67,3.67,0,0,0-1.905,1.355c-.134.153-.26.312-.424.51a1.954,1.954,0,0,0-1.324-1.771,1.881,1.881,0,0,0-2.108.593v-.207a1.725,1.725,0,0,0-.69-1.337,1.957,1.957,0,0,1-.6-.841,1.106,1.106,0,0,0-.041-.116,3.1,3.1,0,0,0-1.723-1.622c-.349-.143-.355-.13-.477.246.99.293,1.952.62,2.085,1.917-.207-.027-.4-.052-.583-.07-.455-.048-.651.122-.605.57a2.3,2.3,0,0,0,.188.63.485.485,0,0,0,.469.349.713.713,0,0,0,.62-.461,4.243,4.243,0,0,0,.155-.574.536.536,0,0,1,.136.023,1.647,1.647,0,0,1,.862,1.81,2.087,2.087,0,0,0,.329,1.94,1.818,1.818,0,0,0,1.072.657,8.009,8.009,0,0,0,.967.056,1.913,1.913,0,0,0,1.314,2.382,1.812,1.812,0,0,0,2.333-1.384.337.337,0,0,1,.062.019,1.675,1.675,0,0,0,2.066-.012.25.25,0,0,1,.217,0,2.579,2.579,0,0,0,2.614-.428C470.566,175.154,470.564,175.152,470.308,174.848Zm-12.81-3.69c-.207,0-.413-.4-.413-.8,0-.223.128-.287.31-.289.4,0,.589.124.587.393,0,.333-.244.688-.475.692Zm3.628,3.074a1.483,1.483,0,0,1-1.446-1.355,1.3,1.3,0,0,1,1.337-1.38,1.432,1.432,0,0,1,1.446,1.372,1.316,1.316,0,0,1-1.337,1.364Zm2.405,2.465a1.506,1.506,0,0,1-1.457-1.43,1.366,1.366,0,0,1,1.347-1.312,1.43,1.43,0,0,1,1.446,1.409,1.324,1.324,0,0,1-1.339,1.333Zm4-1.289a.13.13,0,0,1-.107.031,1.064,1.064,0,0,1-.6-.762c-.021-.207.1-.3.283-.262a2.187,2.187,0,0,1,.62.207.349.349,0,0,1,.118.326A2.008,2.008,0,0,1,467.531,175.408Z" transform="translate(-398.3 -163.649)"/><path class="a" d="M494.218,211.589a1.621,1.621,0,0,0-1.409-.928,1.381,1.381,0,0,1,.907,1.512,1.252,1.252,0,0,1-.926.99,1.177,1.177,0,0,1-1.145-.314,1.572,1.572,0,0,0,.3-2.215,1.308,1.308,0,1,1-2.4-.264,1.213,1.213,0,0,0-.5.868,7.056,7.056,0,0,0,.093.955,1.8,1.8,0,0,0-1.68,3.122,1.86,1.86,0,0,0,2.18.258,1.712,1.712,0,0,0,.738-.814,1.86,1.86,0,0,0-.1-1.663,1.6,1.6,0,0,0,.57.021c.4-.159.62.014.9.291a1.556,1.556,0,0,0,2.479-1.818Zm-5.477,3.583a1.446,1.446,0,0,1-1.446-1.426,1.31,1.31,0,0,1,1.351-1.316,1.446,1.446,0,0,1,1.436,1.436,1.318,1.318,0,0,1-1.341,1.306Z" transform="translate(-422.762 -197.516)"/><path class="a" d="M467.648,254.643a1.8,1.8,0,0,0-1.308-.231,1.859,1.859,0,0,0-1.126.707.276.276,0,0,1-.048-.041.44.44,0,0,1-.048-.087,1.533,1.533,0,0,0-1.517-.814,1.382,1.382,0,0,0-1.31,1.81A1.583,1.583,0,0,0,464.2,257.1a4.731,4.731,0,0,0,.8-.391,1.961,1.961,0,0,0,2.021,1.349,1.756,1.756,0,0,0,1.576-1.38A1.86,1.86,0,0,0,467.648,254.643Zm-3.744,2.006c-.779-.06-1.32-.576-1.258-1.213a1.069,1.069,0,0,1,1.207-1.048,1.118,1.118,0,0,1,1.087,1.11A1.061,1.061,0,0,1,463.9,256.649Zm4.294-.5a1.285,1.285,0,0,1-1.349,1.293,1.459,1.459,0,0,1-1.432-1.57,1.312,1.312,0,0,1,1.372-1.178,1.43,1.43,0,0,1,1.409,1.455Z" transform="translate(-403.29 -232.271)"/><path class="a" d="M488.867,240.875a1.374,1.374,0,0,0-1.074-1.149l.167.132a1.107,1.107,0,0,1,.353,1.252,1.017,1.017,0,0,1-1.24.636,1.163,1.163,0,0,1-.89-.986,1.728,1.728,0,0,0-.62-1.345,1.9,1.9,0,0,0-2.223-.248,1.746,1.746,0,0,0-.791,1.965,1.886,1.886,0,0,0,1.4,1.4,1.674,1.674,0,0,0,1.787-.5,5.353,5.353,0,0,0,.473-.715,1.653,1.653,0,0,0,.723.857,1.4,1.4,0,0,0,1.149.079A1.278,1.278,0,0,0,488.867,240.875Zm-4.374,1.145a1.441,1.441,0,0,1-1.411-1.446,1.3,1.3,0,0,1,1.318-1.312,1.446,1.446,0,0,1,1.446,1.446A1.294,1.294,0,0,1,484.493,242.02Z" transform="translate(-419.353 -220.166)"/><path class="a" d="M468.963,227.353a1.63,1.63,0,0,0-1.482-1.132,1.422,1.422,0,0,1,.907,1.471,1.3,1.3,0,0,1-1,1.043c-.605.13-1.112-.159-1.585-.913a1.853,1.853,0,0,0,.771,1.326l-.122.05a1.428,1.428,0,0,0-.86,1.715,1.25,1.25,0,0,0,.566.841,2.739,2.739,0,0,0,1.093.322,1.392,1.392,0,0,0,1.31-1.676,1.825,1.825,0,0,0-.645-1.019C468.945,228.727,469.23,228.163,468.963,227.353Zm-.719,3.159a1.062,1.062,0,0,1-1.112,1.072,1.174,1.174,0,0,1-1.182-1.174,1.07,1.07,0,0,1,1.05-1.066A1.188,1.188,0,0,1,468.244,230.512Z" transform="translate(-405.913 -210.091)"/><path class="a" d="M469.256,272.845a.905.905,0,0,1-.541-.827c-.025-.492.372-.76,1.194-.826a1.256,1.256,0,0,0-1.583.229c-.076.1-.207.217-.316.207a1.185,1.185,0,0,1-.521-.207.9.9,0,0,1-.446-.915.8.8,0,0,1,.641-.676,2.689,2.689,0,0,1,.541-.041,1.227,1.227,0,0,0-1.605.267.826.826,0,0,0-.114.9,5.642,5.642,0,0,0,.531.738,1.087,1.087,0,0,0-1.033.938,1.223,1.223,0,0,0,.771,1.24,1.114,1.114,0,0,0,1.347-.436.911.911,0,0,0,.087-.853,6.51,6.51,0,0,0-.413-.721h.3a1.387,1.387,0,0,0,.9,1.283,1.316,1.316,0,0,0,1.2-.081A5.343,5.343,0,0,1,469.256,272.845Zm-1.209-.066a.849.849,0,0,1-.866.806.9.9,0,0,1-.872-.969.783.783,0,0,1,.864-.723.884.884,0,0,1,.874.891Z" transform="translate(-406.273 -244.51)"/><path class="a" d="M458.841,217a1.446,1.446,0,0,0-1.471,1.446A1.579,1.579,0,0,0,458.961,220a1.4,1.4,0,0,0,1.446-1.424A1.579,1.579,0,0,0,458.841,217Zm.126,2.479a1.184,1.184,0,0,1-1.192-1.174,1.074,1.074,0,0,1,1.1-1.074,1.2,1.2,0,0,1,1.19,1.188,1.058,1.058,0,0,1-1.1,1.06Z" transform="translate(-399.427 -202.776)"/><path class="a" d="M451.39,200.858a1.2,1.2,0,0,1-1.61.607c-.388-.143-.388-.155-.155-.486a1.261,1.261,0,0,0,.13-.238.492.492,0,0,0-.207-.684,1.49,1.49,0,0,0-.944-.219.355.355,0,0,0-.355.368.894.894,0,0,0,.285.736c.124.118.254.229.413.366-.895.684-1.626.242-2.378-.306a1.732,1.732,0,0,0,2.62.428,2.5,2.5,0,0,0,2.831-.436Zm-2.322.221a1.014,1.014,0,0,1-.568-.7c-.021-.223.05-.339.3-.335a3.72,3.72,0,0,1,.63.242.353.353,0,0,1,.089.333,1.783,1.783,0,0,1-.324.43A.149.149,0,0,1,449.068,201.079Z" transform="translate(-390.858 -189.155)"/></g></g></svg>