<svg version="1.1" id="Layer_1" width="170px" xmlns="http://www.w3.org/2000/svg" xmlns:xlink="http://www.w3.org/1999/xlink" x="0px" y="0px"
	 viewBox="0 0 185 37" style="enable-background:new 0 0 185 37;" xml:space="preserve">
<style type="text/css">
	.st0{fill:#FCFCFC;}
</style>
<title>logo_1</title>
<g>
	<g id="Layer_1-2">
		<path class="st0" d="M36,26.6c0.3-0.4,0.7-0.6,1.1-0.6c0.6-0.1,1.3,0.6,1.7,1c0.3,0.6,0.6,1.2,0.6,1.9c0,0.2,0.1,0.8-0.2,0.9
			s-0.6-0.2-0.7-0.4S38.4,29,38.2,29c-0.3,0-0.7-0.1-1-0.1c-0.2,0-0.3-0.1-0.5-0.2c-0.5-0.3-0.9-0.9-0.9-1.5
			C35.9,26.9,35.9,26.7,36,26.6"/>
		<path class="st0" d="M37.5,25.1c-0.3-0.6-0.1-1.4,0.6-1.7c0,0,0.1,0,0.1,0c0.5-0.2,1-0.2,1.4,0c0.4,0.2,0.8,0.5,1.1,0.9
			c0.3,0.5,0.5,1,0.6,1.6c0,0.2,0.2,0.7-0.1,0.9s-0.5-0.1-0.6-0.3c-0.1-0.1-0.2-0.2-0.2-0.4c-0.3-0.2-0.7-0.1-1.2-0.1
			c-0.3,0-0.5-0.1-0.8-0.2l-0.2-0.1C37.7,25.5,37.6,25.4,37.5,25.1"/>
		<path class="st0" d="M33.1,28.6c0.1-0.3,0.2-0.5,0.5-0.7l0.2-0.1c0.1,0,0.2-0.1,0.2-0.1c0.4-0.1,0.8,0,1.1,0.2
			c0.9,0.6,1.4,3,0.9,3.6c-0.6,0.4-0.7-0.8-1-0.8C33.9,30.6,33.1,29.7,33.1,28.6"/>
		<path class="st0" d="M20,28c-0.5-1.4-0.3-3,0.4-4.4c0.5,0.4,1,0.7,1.5,1c0.6,0.3,1.1,0.6,1.8,0.8c0.5,0.4,1,0.8,1.4,1.2
			c-0.7,1-1.6,1.8-2.6,2.4C21.5,29.3,20.4,28.9,20,28C20.1,28,20.1,28,20,28"/>
		<path class="st0" d="M48.2,9.5L48.2,9.5c-0.1-0.2-0.2-0.3-0.4,0.1c-0.4,1-1.2,1.8-2.2,2.3c-1.8,1-2.6,0.6-2.6,0.5
			c0-0.1,0.2-0.1,0.6-0.3c0.8-0.4,1.6-0.9,2.3-1.5c0.8-0.8,1.5-2.2,0.8-4.8c-0.8-2.9-4.3-3.6-4.3-3.6c-0.1,0-0.2,0.1-0.1,0.2
			c0,0,0,0,0,0c0.7,2.2,0.3,4.5-1.1,6.4c-1.2,1.6-2.9,2.8-4.7,3.4c-0.3-0.6-0.8-1.1-1.4-1.2c-2.5-0.7-5-0.8-7.5-0.5
			c-0.1-0.6-0.4-1.1-0.8-1.5c-0.5-0.5-1.1-0.8-1.8-1c-1.3-0.4-1.2,0.2-1,0.5c0.1,0.2,0.3,0.3,0.5,0.5C24.8,9.3,25,9.6,25,9.9
			c0,0.1,0,0.3-0.2,0.3c0,0,0,0-0.1,0c-0.2,0-0.4-0.3-1-0.6c-0.7-0.2-1.2,0-1,0.3s0.7,0.4,0.7,0.9c0,0.1,0,0.2-0.1,0.3
			c-1.7,0.4-3.3,1-4.9,1.8c-1,0.4-1.8,1.2-2.2,2.3c-2.3,0.2-4.5-0.3-6.5-1.4C7.7,12.7,6.4,10.5,6.2,8c0-0.1-0.1-0.2-0.2-0.1
			c0,0,0,0,0,0c0,0-3.2,2.1-2.8,5.4C3.5,16.1,4.8,17,6,17.6c1,0.5,2,0.7,3.1,0.6c0.4,0,0.5,0.1,0.5,0.1S9,19.2,6.8,18.9
			c-1.2-0.1-2.4-0.6-3.3-1.4C3.1,17.3,3,17.4,3,17.7c0,0.2,0.1,3.6,2,4.8c1.4,1,3.2,1.3,4.9,1c0.6,0,1.2-0.2,1.7-0.4
			c0.2-0.1,0.5-0.2,0.5,0c0,0.2-0.2,0.6-0.9,1.2c-0.7,0.4-1.5,0.7-2.4,0.8c-0.3,0,0,0.3,0,0.3s0.7,1.4,4.1,1.2
			c3.4-0.2,5.7-1.3,6.1-3.2c0.1-0.6,0.1-1.3-0.2-1.9c0,0-0.1-0.4,0.2-0.3c0.8,0.8,1.7,1.5,2.6,2.2c0.8,0.5,1.7,0.9,2.6,1.2
			c0,0,1.3,1.2,1.9,1.7c0.3,0.2,0.5,0.4,0.7,0.7c0.1,0.3,0.2,0.7,0.3,1c0.2,0.5,0.7,0.7,1.1,0.5c0.1,0,0.2-0.1,0.3-0.1
			c0.7-0.6,1.3-1.3,1.6-2.1c0.3-0.7,0.5-1.4,0.6-2.1c1.6-0.8,3-2,4-3.5c0.7-0.9,1.2-1.9,1.5-3c0.1-0.2,0.3,0,0.3,0.2
			c0,0.2,0,0.5,0,0.7c0.1,0.6,0.3,1.1,0.6,1.5c1,1.4,3.5,1.6,6.5,0.6s2.8-2.7,2.8-2.7s0-0.4-0.2-0.2c-0.7,0.3-1.4,0.4-2.2,0.3
			c-0.8-0.1-1.2-0.5-1.2-0.6c0-0.1,0.1-0.2,0.3-0.2c0.5,0,1-0.1,1.5-0.2c1.6-0.3,3-1.3,3.9-2.6C49.8,12.5,48.3,9.8,48.2,9.5z
			 M23.7,19.5c-1.6,0.2-3.2-0.8-3.7-2.4c-0.1-0.6,0-1.2,0.4-1.6l1.9,0.6c-0.3,0.2-0.5,0.4-0.5,0.8c-0.1,0.7,0.5,1.3,1.4,1.4
			c0.8,0.2,1.5-0.2,1.8-1c0-0.1,0-0.2,0-0.4l1.3,0.4C25.9,18.6,24.9,19.4,23.7,19.5z M28.6,26.7c-0.4,0.5-0.5,0.7-0.6,0.7
			c-0.2,0-0.2-0.5-0.3-1.1c0-0.3,0-0.3-0.4-0.6c-0.8-0.6-1.6-1.3-2.2-2.1c-0.2-0.6,0-1.2,0.3-1.7c0.4-0.4,0.8-0.8,1.2-1.2
			c0.3-0.4,0.5-0.9,0.7-1.4l0-0.1c0,0,0.2-0.3,0.4,0c0.5,0.7,0.8,1.5,1.1,2.3c0.4,0.9,0.6,1.9,0.7,2.9C29.3,25.2,29,26,28.6,26.7z
			 M31.5,17.9c-1.2,0.5-2.6-0.1-3.2-1.3l1.1-0.5c0,0.1,0,0.3,0,0.4c0.2,0.5,1,0.7,1.6,0.5c0.6-0.2,0.9-0.7,0.8-1.3
			c-0.1-0.2-0.3-0.4-0.5-0.4l1.8-0.8l0-0.1c0.1,0.2,0.2,0.3,0.3,0.5C33.7,16.2,32.9,17.6,31.5,17.9z"/>
		<path class="st0" d="M21.2,30c-0.4-0.2-0.9-0.3-1.3-0.2c-0.7,0.1-1.1,1.1-1.2,1.7c-0.1,0.7-0.1,1.4,0.1,2.1
			c0.1,0.2,0.2,0.8,0.5,0.9c0.5,0.1,0.5-0.4,0.5-0.7s0-0.4,0.2-0.5c0.3-0.1,0.6-0.3,1-0.5c0.2-0.1,0.3-0.3,0.4-0.4
			c0.4-0.5,0.5-1.2,0.3-1.9C21.6,30.3,21.4,30.1,21.2,30"/>
		<path class="st0" d="M31.8,24.3c1.3-0.7,2.4-1.6,3.2-2.8c0.1-0.1,0.1-0.2,0.2-0.2c0.7,1,1.1,2.2,1.1,3.5c-0.1,0.5-0.4,0.9-0.8,1.1
			C34.4,26.6,32.3,24.8,31.8,24.3L31.8,24.3"/>
		<path class="st0" d="M27.3,20.9c0.2,0.1,0.2,0.6,0,1s-0.6,0.6-0.9,0.4s-0.2-0.6,0-1S27.1,20.8,27.3,20.9"/>
		<path class="st0" d="M19.1,29.1c0-0.8-0.6-1.4-1.4-1.4c0,0,0,0-0.1,0c-0.5,0-1,0.2-1.3,0.6c-0.3,0.3-0.5,0.6-0.6,1
			c-0.1,0.7-0.1,1.4,0,2.1c0.1,0.3,0.1,0.8,0.5,0.9c0.5,0.1,0.5-0.3,0.5-0.6c0-0.2,0-0.3,0-0.5c0.1-0.3,0.6-0.4,1.1-0.5
			c0.3-0.1,0.5-0.3,0.7-0.5l0.2-0.2C19.1,29.6,19.1,29.6,19.1,29.1"/>
		<path class="st0" d="M24.9,31c-0.2-0.3-0.4-0.5-0.7-0.5c-0.1,0-0.1,0-0.2-0.1c-0.1,0-0.2,0-0.3,0c-0.5,0-0.9,0.3-1.1,0.7
			c-0.7,0.9-0.4,3.5,0.4,4c0.7,0.2,0.4-1,0.7-1.2C24.8,33.4,25.3,32.1,24.9,31"/>
		<g id="Layer_2-2">
			<g id="Layer_1-2-2">
				<path class="st0" d="M66.7,27.4H56.5v-17H61v13.1h5.9C66.9,24.8,66.9,26.1,66.7,27.4z"/>
				<path class="st0" d="M78.9,21.9h-7v0.2c0,1.4,0.7,1.8,2.3,1.8c1.3,0,2.6-0.4,3.7-1c0.4,1.2,0.7,2.5,0.9,3.7
					c-1.5,0.6-3.1,1-4.7,1c-4.4,0-6.8-2.3-6.8-6.7c0-4.7,2.6-6.9,6-6.9c3.9,0,5.6,2.2,5.6,5.8C79,20.5,79,21.2,78.9,21.9z
					 M71.9,19.5h2.8c0-0.2,0-0.4,0-0.6c0-1.3-0.4-2-1.3-2S71.9,17.5,71.9,19.5L71.9,19.5z"/>
				<path class="st0" d="M88.4,25.9h-0.2c-0.8,1.1-2.1,1.7-3.4,1.7c-3.2,0-4.9-2.2-4.9-6.5c0-4.6,2.4-7.1,5.9-7.1
					c0.7,0,1.5,0.1,2.2,0.3c0.7-0.2,1.4-0.3,2.2-0.3c0.5,0,1,0,1.5,0.1v9c0,0.3,0.2,0.5,0.4,0.6h1.7v1.4c0,1.9-1.2,2.5-2.7,2.5
					C90,27.7,88.9,27.1,88.4,25.9z M87.5,17.7c-0.4-0.2-0.8-0.3-1.2-0.3c-1.4,0-2,0.7-2,3.4s0.5,3.4,1.7,3.4c0.5,0,1-0.1,1.5-0.2
					L87.5,17.7z"/>
				<path class="st0" d="M98.9,27.6c-1.6,0.1-3.2-0.3-4.7-1.1c0.2-1.2,0.6-2.4,1-3.6c1.3,0.7,2.7,1.1,4.1,1.2
					c0.3,0.1,0.7-0.2,0.7-0.5c0-0.1,0-0.1,0-0.2c0-1.3-5.7-0.5-5.7-4.9c0-3.1,2.8-4.5,5.9-4.5c1.2,0,2.5,0.2,3.7,0.5
					c-0.1,1.2-0.3,2.4-0.6,3.6c-1.3-0.4-2.6-0.6-3.9-0.6c-0.3-0.1-0.7,0.2-0.7,0.5c0,0.1,0,0.1,0,0.2c0,1.3,5.7,0.5,5.7,5.1
					C104.4,26.2,102.1,27.6,98.9,27.6z"/>
				<path class="st0" d="M116.8,21.9h-7v0.2c0,1.4,0.7,1.8,2.3,1.8c1.3,0,2.6-0.4,3.7-1c0.4,1.2,0.7,2.5,0.9,3.7
					c-1.5,0.6-3.1,1-4.7,1c-4.3,0-6.8-2.3-6.8-6.7c0-4.7,2.6-6.9,6-6.9c3.9,0,5.6,2.2,5.6,5.8C116.9,20.3,116.8,21.3,116.8,21.9z
					 M109.8,19.5h2.8c0-0.2,0-0.4,0-0.6c0-1.3-0.4-2-1.3-2S109.8,17.5,109.8,19.5L109.8,19.5z"/>
				<path class="st0" d="M131.1,27.6c-2.5,0-3.3-1.3-3.3-3.2v-3.9h-4.7v6.9h-4.5v-17h4.5v6.3h4.7v-6.3h4.5v12.8
					c0,0.6,0.2,0.8,0.8,0.8h1.3v0.9C134.4,26.7,133.2,27.6,131.1,27.6z"/>
				<path class="st0" d="M142.9,25.9h-0.2c-0.8,1.1-2.1,1.7-3.4,1.7c-3.2,0-4.9-2.2-4.9-6.5c0-4.6,2.4-7.1,5.9-7.1
					c0.7,0,1.5,0.1,2.2,0.3c0.7-0.2,1.4-0.3,2.2-0.3c0.5,0,1,0,1.5,0.1v9c0,0.3,0.2,0.5,0.4,0.6h1.8v1.4c0,1.9-1.2,2.5-2.7,2.5
					C144.5,27.7,143.3,27.1,142.9,25.9z M142,17.7c-0.4-0.2-0.8-0.3-1.2-0.3c-1.4,0-2,0.7-2,3.4s0.5,3.4,1.7,3.4
					c0.5,0,1-0.1,1.5-0.2L142,17.7z"/>
				<path class="st0" d="M163.5,27.4h-4l-1.9-6.3c-0.1-0.5-0.2-1.1-0.3-1.6h-0.2c-0.1,0.5-0.2,1.1-0.3,1.6l-1.9,6.3h-4
					c-1.3-4.3-2.2-8.6-2.8-13c1.4-0.2,2.8-0.2,4.1-0.2l0.9,6.1c0.1,0.4,0.2,1.1,0.2,1.7h0.2c0.1-0.6,0.2-1.2,0.4-1.8l1.6-6h4
					l1.5,6.1c0.1,0.4,0.2,1.2,0.3,1.7h0.2c0.1-0.7,0.2-1.3,0.3-1.8l0.9-6.1c1.3,0,2.6,0.1,3.9,0.3C165.8,18.8,164.8,23.1,163.5,27.4
					z"/>
				<path class="st0" d="M175.4,27.5l-2.4-5.2l-1.1,1.3v3.8h-4.2V8.9c1.4-0.2,2.8-0.3,4.2-0.3v9.5h0.2c1.2-1.6,2.2-2.8,3.5-4.2
					c1.4,0.1,2.8,0.4,4.1,0.7l-4,4.6c1.4,2.4,2.8,5.2,4.1,8C178.3,27.4,176.9,27.5,175.4,27.5z"/>
				<path class="st0" d="M182.4,13.6c-0.3,0.3-0.7,0.4-1.1,0.4c-0.4,0-0.8-0.2-1.1-0.4c-0.3-0.3-0.4-0.7-0.4-1.1
					c0-0.8,0.7-1.5,1.5-1.5c0.4,0,0.8,0.2,1.1,0.4c0.3,0.3,0.4,0.7,0.4,1.1C182.8,12.9,182.6,13.3,182.4,13.6z M180.4,11.6
					c-0.5,0.5-0.5,1.3,0,1.8c0.5,0.5,1.3,0.5,1.8,0c0,0,0,0,0,0c0.5-0.5,0.6-1.3,0.1-1.8c-0.5-0.5-1.3-0.6-1.8-0.1
					C180.4,11.5,180.4,11.5,180.4,11.6z M181.2,11.7c0.2,0,0.3,0,0.4,0.1c0.2,0.1,0.3,0.2,0.2,0.4c0,0.1-0.1,0.3-0.2,0.3
					c-0.1,0-0.2,0.1-0.2,0.1c0.1,0,0.2,0.1,0.3,0.2c0.1,0.1,0.1,0.2,0.1,0.2v0.1c0,0,0,0.1,0,0.1c0,0,0,0.1,0,0.1l0,0h-0.3v-0.2
					c0-0.1,0-0.3-0.2-0.4c-0.1,0-0.2-0.1-0.3-0.1H181v0.6h-0.3v-1.6L181.2,11.7z M181.6,11.9c-0.1,0-0.2-0.1-0.4-0.1H181v0.6h0.3
					c0.1,0,0.2,0,0.3,0c0.1,0,0.2-0.1,0.2-0.3C181.7,12.1,181.7,12,181.6,11.9L181.6,11.9z"/>
			</g>
		</g>
	</g>
</g>
</svg>
