<svg xmlns="http://www.w3.org/2000/svg" width="152" height="28.215" viewBox="0 0 152 28.215"><defs><style>.a{fill:#fff;}</style></defs><g transform="translate(-147 -169)"><path class="a" d="M162.118,200.383h-1.736v-9.675q0-1.146.144-2.793h-.041a8.9,8.9,0,0,1-.444,1.4l-5.053,11.071h-.848l-5.063-10.991a8.105,8.105,0,0,1-.444-1.477h-.042q.083.865.083,2.813v9.655H147V185.976h2.294l4.547,10.047a12.57,12.57,0,0,1,.672,1.728h.072q.517-1.387.713-1.768l4.64-10.007h2.18v14.407" transform="translate(0 -3.801)"/><path class="a" d="M172.274,200.2h-1.7V189.907h1.7V200.2m.289-13.975a1,1,0,0,1-.331.768,1.175,1.175,0,0,1-1.571.01,1.011,1.011,0,0,1-.32-.779,1.023,1.023,0,0,1,.316-.748,1.067,1.067,0,0,1,.79-.316,1.1,1.1,0,0,1,.8.311,1.016,1.016,0,0,1,.32.754" transform="translate(-5.332 -2.981)"/><path class="a" d="M183.5,201.056a5.625,5.625,0,0,1-2.9.723,5.206,5.206,0,0,1-2.6-.648A4.524,4.524,0,0,1,176.2,199.3a5.5,5.5,0,0,1-.64-2.662,5.629,5.629,0,0,1,1.5-4.1,5.328,5.328,0,0,1,4-1.547,5.493,5.493,0,0,1,2.449.522V193.2a4.426,4.426,0,0,0-2.521-.8,3.432,3.432,0,0,0-2.672,1.14,4.235,4.235,0,0,0-1.028,2.948,4,4,0,0,0,.977,2.843,3.412,3.412,0,0,0,2.619,1.045,4.352,4.352,0,0,0,2.6-.884v1.568" transform="translate(-6.524 -4.956)"/><path class="a" d="M194,192.929a2.165,2.165,0,0,0-1.292-.332,2.129,2.129,0,0,0-1.829,1.03,4.654,4.654,0,0,0-.7,2.677v5.244h-1.694V191.261h1.694v2.12h.042A3.612,3.612,0,0,1,191.3,191.7a2.538,2.538,0,0,1,1.684-.618,2.854,2.854,0,0,1,1.013.14v1.708" transform="translate(-9.476 -5.047)"/><path class="a" d="M204.62,196.4a4.456,4.456,0,0,0-.883-2.974,3.141,3.141,0,0,0-2.527-1.035,3.3,3.3,0,0,0-2.583,1.059,4.323,4.323,0,0,0-.951,2.989,4.108,4.108,0,0,0,.956,2.889,3.329,3.329,0,0,0,2.578,1.039,3.153,3.153,0,0,0,2.532-1.025,4.4,4.4,0,0,0,.878-2.944m1.736-.06a5.46,5.46,0,0,1-1.431,3.944,5.071,5.071,0,0,1-3.839,1.491,4.959,4.959,0,0,1-3.746-1.451,5.271,5.271,0,0,1-1.4-3.823,5.549,5.549,0,0,1,1.437-4.034,5.253,5.253,0,0,1,3.957-1.481,4.792,4.792,0,0,1,3.689,1.431,5.531,5.531,0,0,1,1.333,3.923" transform="translate(-11.179 -4.956)"/><path class="a" d="M217.719,198.775a2.633,2.633,0,0,1-1.059,2.17,4.42,4.42,0,0,1-2.815.834,5.336,5.336,0,0,1-2.625-.623v-1.768a4.34,4.34,0,0,0,2.748.985q2.015,0,2.015-1.437a1.241,1.241,0,0,0-.393-.949A7.581,7.581,0,0,0,213.8,197a5.309,5.309,0,0,1-1.984-1.251,2.808,2.808,0,0,1,.476-3.9,4.111,4.111,0,0,1,2.676-.854,5.2,5.2,0,0,1,2.263.482v1.657a4.039,4.039,0,0,0-2.4-.733,2.121,2.121,0,0,0-1.348.4,1.256,1.256,0,0,0-.512,1.035,1.364,1.364,0,0,0,.393,1.049,5.868,5.868,0,0,0,1.623.87,5.875,5.875,0,0,1,2.119,1.306,2.489,2.489,0,0,1,.61,1.718" transform="translate(-14.669 -4.956)"/><path class="a" d="M229.807,196.4a4.456,4.456,0,0,0-.883-2.974A3.141,3.141,0,0,0,226.4,192.4a3.3,3.3,0,0,0-2.583,1.059,4.323,4.323,0,0,0-.951,2.989,4.108,4.108,0,0,0,.956,2.889,3.329,3.329,0,0,0,2.578,1.039,3.15,3.15,0,0,0,2.532-1.025,4.4,4.4,0,0,0,.879-2.944m1.736-.06a5.46,5.46,0,0,1-1.431,3.944,5.071,5.071,0,0,1-3.839,1.491,4.959,4.959,0,0,1-3.746-1.451,5.271,5.271,0,0,1-1.4-3.823,5.552,5.552,0,0,1,1.436-4.034,5.256,5.256,0,0,1,3.958-1.481,4.792,4.792,0,0,1,3.689,1.431,5.531,5.531,0,0,1,1.333,3.923" transform="translate(-16.933 -4.956)"/><path class="a" d="M241.73,186.289a2.309,2.309,0,0,0-1.126-.271q-1.778,0-1.778,2.18v1.587h2.48v1.4h-2.48v8.892h-1.694v-8.892h-1.8v-1.4h1.8v-1.667a3.448,3.448,0,0,1,.951-2.532,3.248,3.248,0,0,1,2.418-.964,3.411,3.411,0,0,1,1.229.181v1.487" transform="translate(-20.178 -3.218)"/><path class="a" d="M249.774,200.6a3.317,3.317,0,0,1-1.591.332q-2.77,0-2.769-3.034v-6.088h-1.819v-1.4h1.819V187.9l1.694-.532v3.044h2.666v1.4h-2.666v5.807a2.327,2.327,0,0,0,.362,1.472,1.488,1.488,0,0,0,1.209.437,1.838,1.838,0,0,0,1.095-.331V200.6" transform="translate(-21.751 -3.882)"/><path class="a" d="M176.834,216.469q0-2.863-3.472-2.863h-2.036v5.907h1.819a4.185,4.185,0,0,0,2.738-.789,2.764,2.764,0,0,0,.951-2.255m1.819-.091a4.239,4.239,0,0,1-1.483,3.371,5.741,5.741,0,0,1-3.89,1.281h-1.954v5.455H169.59V212.079h4.072a5.463,5.463,0,0,1,3.684,1.13,3.968,3.968,0,0,1,1.307,3.17" transform="translate(65.717 -29.904)"/><path class="a" d="M188.628,222.427l-2.562.351a3.86,3.86,0,0,0-1.839.608,1.678,1.678,0,0,0-.527,1.381,1.525,1.525,0,0,0,.569,1.241,2.218,2.218,0,0,0,1.457.467,2.75,2.75,0,0,0,2.082-.864,3.012,3.012,0,0,0,.821-2.16v-1.025m1.7,5.2h-1.7v-1.607h-.041a3.9,3.9,0,0,1-5.7,1.05,2.748,2.748,0,0,1-.92-2.175q0-2.873,3.493-3.356l3.172-.432q0-2.612-2.18-2.613A5.321,5.321,0,0,0,183,219.754v-1.687a5.239,5.239,0,0,1,1.592-.658,7.489,7.489,0,0,1,2-.316q3.73,0,3.731,3.848v6.69" transform="translate(62.891 -31.059)"/><path class="a" d="M201.769,219.032a2.161,2.161,0,0,0-1.292-.332,2.13,2.13,0,0,0-1.829,1.029,4.658,4.658,0,0,0-.7,2.678v5.244h-1.694V217.364h1.694v2.12h.042a3.616,3.616,0,0,1,1.085-1.683,2.54,2.54,0,0,1,1.684-.617,2.846,2.846,0,0,1,1.012.14v1.708" transform="translate(59.627 -31.15)"/><path class="a" d="M211.808,226.7a3.318,3.318,0,0,1-1.592.332q-2.77,0-2.769-3.034v-6.088h-1.819v-1.4h1.819V214l1.7-.532v3.044h2.666v1.4h-2.666v5.807a2.328,2.328,0,0,0,.361,1.472,1.49,1.49,0,0,0,1.209.437,1.837,1.837,0,0,0,1.1-.332V226.7" transform="translate(57.485 -30.525)"/><path class="a" d="M225.491,227.63H223.8v-5.867q0-3.264-2.46-3.265a2.724,2.724,0,0,0-2.092.92,3.336,3.336,0,0,0-.842,2.346v5.867h-1.7V217.343h1.7v1.708h.041a3.821,3.821,0,0,1,3.472-1.959,3.256,3.256,0,0,1,2.661,1.1,4.791,4.791,0,0,1,.914,3.134v6.3" transform="translate(54.955 -31.059)"/><path class="a" d="M237.991,221.5a3.348,3.348,0,0,0-.708-2.215,2.432,2.432,0,0,0-1.937-.789,2.772,2.772,0,0,0-2.015.824,3.808,3.808,0,0,0-1.054,2.18h5.715m1.736,1.4h-7.472a3.765,3.765,0,0,0,.946,2.657,3.354,3.354,0,0,0,2.506.919,5.281,5.281,0,0,0,3.275-1.125v1.537a6.177,6.177,0,0,1-3.679.995,4.494,4.494,0,0,1-3.534-1.422,5.691,5.691,0,0,1-1.271-3.933,6.105,6.105,0,0,1,.635-2.788,4.768,4.768,0,0,1,1.751-1.954,4.608,4.608,0,0,1,2.481-.693,4.063,4.063,0,0,1,3.208,1.3,5.31,5.31,0,0,1,1.153,3.642v.864" transform="translate(51.804 -31.059)"/><path class="a" d="M250.505,219.032a2.164,2.164,0,0,0-1.292-.332,2.13,2.13,0,0,0-1.829,1.029,4.664,4.664,0,0,0-.7,2.678v5.244h-1.7V217.364h1.7v2.12h.041a3.622,3.622,0,0,1,1.085-1.683,2.542,2.542,0,0,1,1.684-.617,2.853,2.853,0,0,1,1.013.14v1.708" transform="translate(48.495 -31.15)"/><path class="a" d="M153.146,176.21a5.03,5.03,0,0,1-2.48.618,3.718,3.718,0,0,1-1.853-.458,3.118,3.118,0,0,1-1.253-1.291,3.982,3.982,0,0,1-.439-1.883,3.7,3.7,0,0,1,3.844-3.818,4.818,4.818,0,0,1,2.031.381v.934a3.963,3.963,0,0,0-2.129-.557,2.836,2.836,0,0,0-1.46.379,2.632,2.632,0,0,0-1.012,1.072,3.264,3.264,0,0,0-.364,1.542,3.016,3.016,0,0,0,.736,2.147,2.615,2.615,0,0,0,2.008.786,3.141,3.141,0,0,0,1.5-.342v-2.014h-1.622v-.764h2.49v3.265" transform="translate(-0.028 -0.086)"/><path class="a" d="M161.174,174.747a2.227,2.227,0,0,0-.442-1.487,1.572,1.572,0,0,0-1.263-.517,1.644,1.644,0,0,0-1.292.53,2.16,2.16,0,0,0-.475,1.495,2.053,2.053,0,0,0,.478,1.444,1.666,1.666,0,0,0,1.289.52,1.576,1.576,0,0,0,1.266-.512,2.2,2.2,0,0,0,.439-1.472m.868-.03a2.729,2.729,0,0,1-.716,1.972,2.536,2.536,0,0,1-1.919.746,2.483,2.483,0,0,1-1.873-.726,2.638,2.638,0,0,1-.7-1.911,2.773,2.773,0,0,1,.718-2.017,2.624,2.624,0,0,1,1.978-.741,2.4,2.4,0,0,1,1.845.716,2.766,2.766,0,0,1,.667,1.961" transform="translate(-2.246 -0.694)"/><path class="a" d="M166.474,176.615h-.847V169h.847v7.615" transform="translate(-4.255)"/><path class="a" d="M172.8,174.289v-.758a1.411,1.411,0,0,0-.436-1.059,1.583,1.583,0,0,0-2.276.128,2.34,2.34,0,0,0-.45,1.525,2.141,2.141,0,0,0,.424,1.4,1.4,1.4,0,0,0,1.142.515,1.483,1.483,0,0,0,1.147-.492,1.793,1.793,0,0,0,.449-1.256m.848,2.326H172.8v-.874h-.02a2.161,2.161,0,0,1-3.416.3,2.8,2.8,0,0,1-.594-1.871,3.053,3.053,0,0,1,.659-2.049,2.2,2.2,0,0,1,1.765-.774,1.716,1.716,0,0,1,1.586.834h.02V169h.848v7.615" transform="translate(-4.973)"/></g></svg>