<svg xmlns="http://www.w3.org/2000/svg" width="20" height="20" viewBox="0 0 20 20"><defs><style>.a{fill:none;}.b{fill:#6f6f6f;}</style></defs><path class="a" d="M0,0H20V20H0Z"/><g transform="translate(4.167 1.667)"><path class="b" d="M10.833,2A5.829,5.829,0,0,0,5,7.833c0,4.375,5.833,10.833,5.833,10.833s5.833-6.458,5.833-10.833A5.829,5.829,0,0,0,10.833,2ZM6.667,7.833a4.167,4.167,0,1,1,8.333,0c0,2.4-2.4,5.992-4.167,8.233C9.1,13.842,6.667,10.208,6.667,7.833Z" transform="translate(-5 -2)"/><circle class="b" cx="2.083" cy="2.083" r="2.083" transform="translate(3.75 3.75)"/></g></svg>