<svg xmlns="http://www.w3.org/2000/svg" width="44" height="39.184" viewBox="0 0 44 39.184"><defs><style>.a{fill:#fff;}</style></defs><g transform="translate(0)"><path class="a" d="M219.7,97.6c0-2.915-3.65-5.677-9.247-7.39,1.291-5.7.717-10.242-1.812-11.7a3.932,3.932,0,0,0-2.009-.5v2a2.077,2.077,0,0,1,1.022.233c1.22.7,1.749,3.363,1.336,6.789-.1.843-.26,1.731-.457,2.637a43.465,43.465,0,0,0-5.7-.978,43.75,43.75,0,0,0-3.731-4.484c2.924-2.717,5.668-4.206,7.534-4.206V78h0c-2.466,0-5.7,1.758-8.96,4.807-3.265-3.031-6.493-4.771-8.96-4.771v2c1.856,0,4.61,1.48,7.534,4.179a42.356,42.356,0,0,0-3.7,4.475,41.881,41.881,0,0,0-5.7.987c-.206-.9-.359-1.767-.466-2.6-.422-3.426.1-6.09,1.309-6.8a2,2,0,0,1,1.031-.233v-2h0a4,4,0,0,0-2.027.5c-2.52,1.453-3.085,5.982-1.785,11.668-5.578,1.722-9.211,4.475-9.211,7.381s3.65,5.677,9.247,7.39c-1.291,5.7-.717,10.242,1.812,11.7a3.943,3.943,0,0,0,2.018.5c2.466,0,5.7-1.758,8.96-4.807,3.265,3.031,6.493,4.771,8.96,4.771a4,4,0,0,0,2.027-.5c2.52-1.453,3.085-5.982,1.785-11.668C216.068,103.265,219.7,100.5,219.7,97.6Zm-11.677-5.982c-.332,1.157-.744,2.35-1.211,3.543-.368-.717-.753-1.435-1.175-2.152s-.852-1.417-1.291-2.1C205.619,91.094,206.848,91.327,208.023,91.614Zm-4.108,9.552c-.7,1.211-1.417,2.359-2.161,3.426-1.336.117-2.691.179-4.054.179s-2.709-.063-4.036-.17q-1.117-1.6-2.17-3.408-1.022-1.762-1.865-3.57c.556-1.2,1.184-2.4,1.856-3.578.7-1.211,1.417-2.359,2.161-3.426,1.336-.117,2.691-.179,4.054-.179s2.709.063,4.036.17q1.117,1.6,2.17,3.408,1.022,1.762,1.865,3.57C205.207,98.789,204.588,99.991,203.915,101.166Zm2.9-1.166c.484,1.2.9,2.4,1.238,3.57-1.175.287-2.413.529-3.7.717.439-.691.879-1.4,1.291-2.126S206.444,100.717,206.812,100Zm-9.094,9.569a36.972,36.972,0,0,1-2.493-2.87c.807.036,1.632.063,2.466.063s1.677-.018,2.493-.063A35,35,0,0,1,197.718,109.569Zm-6.673-5.282c-1.274-.188-2.5-.422-3.677-.709.332-1.157.744-2.35,1.211-3.543.368.717.753,1.435,1.175,2.152S190.606,103.605,191.045,104.287Zm6.628-18.664a36.968,36.968,0,0,1,2.493,2.87c-.807-.036-1.632-.063-2.466-.063s-1.677.018-2.493.063A35,35,0,0,1,197.673,85.623Zm-6.637,5.283c-.439.691-.879,1.4-1.291,2.126s-.8,1.435-1.166,2.152c-.484-1.2-.9-2.4-1.238-3.569C188.516,91.336,189.754,91.094,191.036,90.906Zm-8.117,11.229c-3.175-1.354-5.229-3.13-5.229-4.538s2.054-3.193,5.229-4.538c.771-.332,1.614-.628,2.484-.906a43.074,43.074,0,0,0,2.018,5.462,42.468,42.468,0,0,0-1.991,5.435C184.543,102.771,183.7,102.466,182.92,102.134Zm4.825,12.816c-1.22-.7-1.749-3.363-1.336-6.789.1-.843.26-1.731.457-2.637a43.465,43.465,0,0,0,5.7.978,43.748,43.748,0,0,0,3.731,4.484c-2.924,2.717-5.668,4.206-7.534,4.206A2.14,2.14,0,0,1,187.745,114.951Zm21.273-6.834c.422,3.426-.1,6.09-1.309,6.8a2,2,0,0,1-1.031.233c-1.857,0-4.61-1.48-7.534-4.179a42.364,42.364,0,0,0,3.7-4.475,41.88,41.88,0,0,0,5.7-.987A25.112,25.112,0,0,1,209.018,108.117Zm3.453-5.982c-.771.332-1.614.628-2.484.906a43.076,43.076,0,0,0-2.018-5.462,42.464,42.464,0,0,0,1.991-5.435c.888.278,1.731.583,2.52.915,3.175,1.354,5.229,3.13,5.229,4.538S215.646,100.789,212.471,102.134Z" transform="translate(-175.7 -78)"/><path class="a" d="M320.8,78.4Z" transform="translate(-307.787 -78.364)"/><ellipse class="a" cx="4.099" cy="4.099" rx="4.099" ry="4.099" transform="translate(17.892 15.498)"/><path class="a" d="M520.5,78.1Z" transform="translate(-489.576 -78.091)"/></g></svg>