<svg xmlns="http://www.w3.org/2000/svg" width="160" height="41.054" viewBox="0 0 160 41.054"><defs><style>.a,.b,.c,.d,.e,.f,.g,.h{fill:#fff;}.b{opacity:0.665;}.c{opacity:0.548;}.d{opacity:0.105;}.e{opacity:0.394;}.f{opacity:0.19;}.g{opacity:0.402;}.h{opacity:0.324;}</style></defs><g transform="translate(-36 -36.001)"><path class="a" d="M383.641,134.6a6.089,6.089,0,0,0,2.634,4.131,4.66,4.66,0,0,0,2.28.576,3.167,3.167,0,0,0,3.48-3.1,3.212,3.212,0,0,0-1.681-2.832,27.813,27.813,0,0,0-3.408-1.849c-1.921-1.007-3.768-1.944-3.768-4.633,0-3.1,2.568-4.369,4.728-4.369a6.508,6.508,0,0,1,1.752.265A5.38,5.38,0,0,1,391.7,123.8a5.333,5.333,0,0,0,.527-.988h.553l.072,4.585h-.739a6.894,6.894,0,0,0-.935-2.423,3.981,3.981,0,0,0-3.217-1.633,2.527,2.527,0,0,0-2.832,2.448,2.57,2.57,0,0,0,.527,1.538c.553.695,1.417,1.2,4.465,2.759,1.944,1.009,3.77,1.944,3.77,5.016a5.878,5.878,0,0,1-.458,2.377,4.843,4.843,0,0,1-4.536,2.84,6.42,6.42,0,0,1-1.753-.24,7.538,7.538,0,0,1-2.975-1.561c-.313.719-.337.815-.576,1.465h-.744V134.6Z" transform="translate(-299.468 -74.704)"/><path class="a" d="M470.692,140.058a10.31,10.31,0,0,0,3.913-.937v8.834c0,1.034.288,1.129,1.681,1.25v.721H470.82v-.742c1.367-.072,1.655-.24,1.7-.988v-6.169c-.025-1.152-.553-1.225-1.826-1.225Zm1.513-4.633a1.284,1.284,0,1,1,1.3,1.272h-.023A1.286,1.286,0,0,1,472.205,135.425Z" transform="translate(-375.311 -84.724)"/><path class="a" d="M533.69,179.7c-.023.721.313.889,1.656.937l.025.7h-5.449v-.7c1.273-.025,1.656-.165,1.681-1.009v-5.642a2.615,2.615,0,0,0-.313-1.343,2.186,2.186,0,0,0-1.895-.889,3.892,3.892,0,0,0-2.736,1.272c.048.359.048.456.071.84v5.69c0,.841.265,1.082,1.681,1.082v.7h-5.469v-.7c1.271-.025,1.7-.165,1.7-1.034v-5.4a2.763,2.763,0,0,0-.313-1.559,2.2,2.2,0,0,0-1.895-.864,3.752,3.752,0,0,0-2.665,1.2v6.5c.025.866.265,1.082,1.679,1.152v.7h-5.471v-.7c1.343-.048,1.7-.24,1.7-1.152v-6.314c-.049-.96-.649-.96-1.824-.96v-.719a9.606,9.606,0,0,0,3.408-.961,6.823,6.823,0,0,1,.36,1.561,6.124,6.124,0,0,1,3.912-1.584,3.04,3.04,0,0,1,2.952,1.656,6.188,6.188,0,0,1,3.984-1.656,3.391,3.391,0,0,1,2.45.887c.72.744.744,1.482.767,2.713Z" transform="translate(-414.309 -116.127)"/><path class="a" d="M677.932,175.842A5.955,5.955,0,0,1,676.4,180a5.194,5.194,0,0,1-3.961,1.513c-3.7,0-5.472-2.425-5.472-5.523a5.344,5.344,0,0,1,2.784-5.041,6.848,6.848,0,0,1,2.786-.624A5.1,5.1,0,0,1,677.932,175.842Zm-8.689.165c0,.84,0,4.682,3.217,4.682,2.664,0,3.192-2.618,3.192-4.774,0-2.927-.767-3.984-1.776-4.512a2.938,2.938,0,0,0-1.368-.311c-2.759,0-3.265,2.662-3.265,4.919Z" transform="translate(-544.77 -115.971)"/><path class="a" d="M755.168,171.266a9.758,9.758,0,0,0,3.385-.914,5.874,5.874,0,0,1,.359,1.561,6.2,6.2,0,0,1,4.01-1.608,3.317,3.317,0,0,1,2.28.792,3.057,3.057,0,0,1,.887,2.425v5.927c0,.769.329,1.009,1.681,1.009v.7H762.3v-.7c1.271-.1,1.679-.165,1.7-1.009v-5.433a3.078,3.078,0,0,0-.384-1.656,2.108,2.108,0,0,0-1.8-.823,3.941,3.941,0,0,0-2.761,1.273v6.531c.025.912.456,1.032,1.729,1.1v.7h-5.5v-.7c1.513,0,1.681-.361,1.7-1.152v-6.3c-.023-.988-.624-.988-1.824-.988Z" transform="translate(-620.926 -115.955)"/><path class="a" d="M869.588,125.693h5.041v.823c-1.128.071-1.391.071-1.729.263-.767.384-.744,1.273-.719,1.872l.1,10.8a4.37,4.37,0,0,0,.193,1.706c.313.626.769.649,2.28.721v.769h-7.537v-.793c1.2-.048,1.513-.071,1.849-.264.647-.361.719-1.1.719-1.9l-.023-8.521c.023-1.536.023-1.992.119-3.648-.239.7-.384,1.128-.767,2.065l-5.425,13.053h-.792l-5.257-12.652c-.408-1.032-.433-1.128-.841-2.28-.048,2.353-.073,4.7-.073,7.033,0,2.16.025,3.24.049,4.656.048,1.465.239,2.282,2.5,2.45v.794h-6.048v-.794c2.036-.288,2.328-.772,2.448-2.418l.143-10.536c.025-2.16-.407-2.4-2.423-2.423v-.777h5.089l4.056,9.674c.672,1.727.864,2.208,1.464,3.912Z" transform="translate(-705.582 -77.44)"/><path class="a" d="M1026.774,178.911a4.7,4.7,0,0,1-4.28,2.595,5.033,5.033,0,0,1-3.622-1.368,5.387,5.387,0,0,1-1.536-4.058c0-3.577,2.256-5.762,5.089-5.762a4.373,4.373,0,0,1,3.145,1.273,5.375,5.375,0,0,1,1.368,3.864h-7.316a7.992,7.992,0,0,0,.456,3.219,2.946,2.946,0,0,0,2.832,1.776,3.886,3.886,0,0,0,3.24-1.921Zm-2.163-4.322a5.173,5.173,0,0,0-.359-2.255,2.117,2.117,0,0,0-1.975-1.1c-2.208,0-2.47,2.209-2.616,3.36Z" transform="translate(-847.28 -115.968)"/><path class="a" d="M1105.047,121.267a9.759,9.759,0,0,0,3.961-.84v15.722c.048.988.505,1.057,1.681,1.1v.721a11.829,11.829,0,0,0-3.433.431,5.738,5.738,0,0,1-.329-1.513,5.024,5.024,0,0,1-3.648,1.482c-3.145,0-4.681-2.57-4.681-5.5,0-4.033,2.591-5.642,4.967-5.642a4.411,4.411,0,0,1,3.337,1.368V122.97c-.072-.912-.576-1.007-1.849-.988Zm1.849,8.641a3.326,3.326,0,0,0-2.784-1.536,2.812,2.812,0,0,0-2.112.887,4.991,4.991,0,0,0-1.128,3.553,5.175,5.175,0,0,0,1.1,3.577,2.765,2.765,0,0,0,2.041.889,3.494,3.494,0,0,0,2.4-1.082,6.2,6.2,0,0,0,.479-.624Z" transform="translate(-917.442 -72.893)"/><path class="b" d="M38.24,219.791l.094.068.108.06a1.869,1.869,0,0,0,.2.055.935.935,0,0,0,.3-.014,1.413,1.413,0,0,0,.229-.068c.061-.019,14.63-5.931,14.63-5.931l.967-.291.026,1.253.859,3.279-.546,1.806-.344,2.962-.055,3.49-.163,1.556-.034.94-.479-.257L39.329,220.84s-.273-.149-.358-.21A3.108,3.108,0,0,1,38.24,219.791Z" transform="translate(-1.934 -153.399)"/><path class="c" d="M178.558,204.587s-.208.085-.746-.167-18.4-9.878-18.4-9.878a4.2,4.2,0,0,1-.746-1.3c-.041-.418-.178,1.337-1.041,1.568l-.532,2.312-.144-.333L154.16,211.08l2.658,1.478c.126.116.216.131.51.179a1.5,1.5,0,0,0,.7-.148l3.71-1.373-.019,0c5.808-2.148,16.172-5.994,16.172-5.994s.724-.505.754-.676Z" transform="translate(-102.019 -135.709)"/><path class="d" d="M172,183.668a1.6,1.6,0,0,0,1.6,1.6h.82a1.6,1.6,0,0,0,1.6-1.6h0a1.6,1.6,0,0,0-1.6-1.6h-.82A1.6,1.6,0,0,0,172,183.668Z" transform="translate(-117.422 -126.115)"/><path class="e" d="M55.454,59.191,37.566,66.464a.879.879,0,0,1-1.276-.915l.027-20.081a2.26,2.26,0,0,1,1.28-1.955l17.887-7.277a4.467,4.467,0,0,1,2.008-.187c1,.175-.5,1.131-.5,1.131l.245,2.179Z" transform="translate(-0.25)"/><path class="f" d="M206.6,68.173c0,.792-.574,1.128-1.28.751l-17.887-9.571a2.639,2.639,0,0,1-1.277-2.116l.027-20.062c0-.791.574-1.127,1.28-.749l17.887,9.562a2.637,2.637,0,0,1,1.276,2.117Z" transform="translate(-129.647 -0.234)"/><path class="g" d="M52.64,129.777l-15.376-8.22a2.614,2.614,0,0,1-1.264-2.1L36.027,99.6c0-.784.567-1.116,1.266-.742L55,108.33Z" transform="translate(0 -54.137)"/><path class="a" d="M117.392,56.837a25.157,25.157,0,0,0,1.9,6.694,5.621,5.621,0,0,1,.648,2.523,13.014,13.014,0,0,0,.316,4.283A14.332,14.332,0,0,1,120.5,75l.238,1.264,1.161-.6-.165-1.41s-.216-.382.149-3.005a13.741,13.741,0,0,0,.049-4.963,13.262,13.262,0,0,1,.1-4.049,49.637,49.637,0,0,0,0-5.931c0-1.548-1.008-2.716-1.294-5.151a5.979,5.979,0,0,1,.915-4.037,17.467,17.467,0,0,0,1.59,3.094c.59,2.758,2.251,3.982,2.716,6.037s1.223,2.645,1.885,2.546-.156-2.209-.156-2.209c.661.648.788.41.788.41-.041-.546-1.829-2.126-1.829-2.126a25.827,25.827,0,0,0-1.871-5.839,25.1,25.1,0,0,0-1.546-4.53c-.561-1.492-1.7-1.66-2.843-1.731a2.347,2.347,0,0,1-1.729-1.027,10.289,10.289,0,0,1,.055-1.111,9,9,0,0,1,.31-1.041c-.014,0,.2-.056.3-.085s.1-.592.083-.746-.337-.281-.337-.281.294-2.1-1.676-2.172-1.676,2.162-1.676,2.162-.324.126-.339.281-.014.717.085.746.31.083.3.083a8.732,8.732,0,0,1,.31,1.041,10.077,10.077,0,0,1,.056,1.112,2.347,2.347,0,0,1-1.729,1.027c-1.139.071-2.28.239-2.843,1.731A25.143,25.143,0,0,0,110,49.023a25.8,25.8,0,0,0-1.871,5.839s-1.785,1.576-1.829,2.126c0,0,.127.239.788-.41,0,0-.82,2.111-.154,2.209s1.421-.492,1.885-2.546,2.124-3.279,2.716-6.037a17.8,17.8,0,0,0,1.59-3.094,6.013,6.013,0,0,1,.914,4.037c-.281,2.434-1.28,3.6-1.28,5.15a49.328,49.328,0,0,0,0,5.93,13.2,13.2,0,0,1,.1,4.049,13.731,13.731,0,0,0,.051,4.964c.366,2.623.149,3.005.149,3.005l-.224,1.765,1.161.6.291-1.615a14.309,14.309,0,0,1,.25-4.664,12.931,12.931,0,0,0,.313-4.283,5.605,5.605,0,0,1,.646-2.522A25.111,25.111,0,0,0,117.392,56.837Z" transform="translate(-60.697 -0.265)"/><path class="h" d="M186.095,115.257l-20.47,7.277a2.274,2.274,0,0,0-1.464,1.955l-.03,19.957a16.413,16.413,0,0,0,1.639.923.209.209,0,0,1,.064.036l20.226-7.19a2.278,2.278,0,0,0,1.464-1.956l.03-20.081C187.555,115.379,186.9,114.969,186.095,115.257Z" transform="translate(-110.627 -68.35)"/><path class="a" d="M1189.859,112.614a1.385,1.385,0,0,1-2.753,0,1.289,1.289,0,0,1,1.376-1.238A1.251,1.251,0,0,1,1189.859,112.614Zm-.249,0a1.066,1.066,0,0,0-1.128-1.065,1.065,1.065,0,1,0,0,2.125A1.04,1.04,0,0,0,1189.61,112.614Zm-1.618-.226v-.329c0-.064-.036-.1-.128-.1h-.034c-.011,0-.016,0-.016-.016v-.064c0-.012,0-.017.016-.017l.283.012.393-.012a.713.713,0,0,1,.451.123.287.287,0,0,1,.117.232.428.428,0,0,1-.4.4v.011a.164.164,0,0,1,.092.064,2.284,2.284,0,0,1,.191.258.8.8,0,0,0,.2.214.3.3,0,0,0,.173.038c.018,0,.023,0,.023.017v.059c0,.011,0,.016-.023.016h-.417a.67.67,0,0,1-.1-.114c-.017-.021-.138-.188-.165-.231a1.33,1.33,0,0,0-.15-.206.213.213,0,0,0-.151-.081h-.092v.458a.078.078,0,0,0,.074.081h.094c.016,0,.016,0,.016.017v.059c0,.011,0,.016-.016.016h-.6c-.023,0-.028,0-.028-.021v-.041c0-.015,0-.021.016-.021h.053c.074,0,.122-.017.122-.112Zm.265.194a1.1,1.1,0,0,0,.15,0,.343.343,0,0,0,.38-.3c0-.01,0-.019,0-.029a.265.265,0,0,0-.115-.211.494.494,0,0,0-.3-.081.736.736,0,0,0-.115,0Z" transform="translate(-993.859 -65.079)"/></g></svg>