<svg xmlns="http://www.w3.org/2000/svg" xmlns:xlink="http://www.w3.org/1999/xlink" width="620" height="548.351" viewBox="0 0 620 548.351"><defs><style>.a{fill:url(#a);}.b{fill:url(#b);}.c{fill:url(#c);}.d{fill:url(#d);}.e{fill:url(#e);}.f{fill:url(#f);}.g{fill:url(#g);}.h{fill:url(#h);}.i{fill:url(#i);}.j{fill:url(#j);}.k{fill:url(#k);}.l{fill:url(#l);}.m{fill:url(#m);}.n{fill:url(#n);}.o{fill:url(#o);}.p{fill:url(#p);}.q{fill:url(#q);}.r{fill:url(#r);}.s{fill:url(#s);}.t{fill:url(#t);}.u{fill:url(#u);}.v{fill:url(#v);}.w{fill:url(#w);}.x{fill:url(#x);}.y{fill:url(#y);}.z{fill:url(#z);}.aa{fill:url(#aa);}.ab{fill:#d1d3d4;}.ac{fill:url(#ab);}.ad{fill:url(#ac);}.ae{fill:url(#ad);}.af{fill:url(#ae);}.ag{fill:url(#af);}.ah{fill:url(#ag);}.ai{fill:url(#ah);}.aj{fill:url(#ai);}.ak{fill:url(#aj);}.al{fill:url(#ak);}.am{fill:#58595b;}.an{fill:url(#al);}.ao{fill:url(#am);}.ap{fill:url(#an);}.aq{fill:url(#ao);}.ar{fill:url(#ap);}.as{fill:url(#aq);}.at{fill:url(#ar);}.au{fill:url(#as);}.av{fill:url(#at);}.aw{fill:url(#au);}.ax{fill:url(#av);}.ay{fill:url(#aw);}.az{fill:url(#ax);}.ba{fill:url(#ay);}.bb{fill:#fff;}.bc{opacity:0.5;}</style><radialGradient id="a" cx="310" cy="186.502" r="499.87" gradientTransform="translate(124.003 116.005) scale(0.6 0.378)" gradientUnits="userSpaceOnUse"><stop offset="0.31" stop-color="#fff"/><stop offset="0.35" stop-color="#fff" stop-opacity="0.859"/><stop offset="0.42" stop-color="#fff" stop-opacity="0.659"/><stop offset="0.49" stop-color="#fff" stop-opacity="0.478"/><stop offset="0.56" stop-color="#fff" stop-opacity="0.329"/><stop offset="0.64" stop-color="#fff" stop-opacity="0.212"/><stop offset="0.72" stop-color="#fff" stop-opacity="0.122"/><stop offset="0.8" stop-color="#fff" stop-opacity="0.051"/><stop offset="0.89" stop-color="#fff" stop-opacity="0.012"/><stop offset="1" stop-color="#fff" stop-opacity="0"/></radialGradient><linearGradient id="b" x1="0.352" y1="0.274" x2="0.547" y2="0.645" gradientUnits="objectBoundingBox"><stop offset="0.01" stop-color="#fff"/><stop offset="0.08" stop-color="#fff" stop-opacity="0.859"/><stop offset="0.22" stop-color="#fff" stop-opacity="0.639"/><stop offset="0.37" stop-color="#fff" stop-opacity="0.439"/><stop offset="0.5" stop-color="#fff" stop-opacity="0.278"/><stop offset="0.64" stop-color="#fff" stop-opacity="0.161"/><stop offset="0.77" stop-color="#fff" stop-opacity="0.071"/><stop offset="0.89" stop-color="#fff" stop-opacity="0.02"/><stop offset="1" stop-color="#fff" stop-opacity="0"/></linearGradient><linearGradient id="c" x1="0.36" y1="0.24" x2="0.518" y2="0.598" xlink:href="#b"/><linearGradient id="d" x1="0.353" y1="0.239" x2="0.502" y2="0.561" xlink:href="#b"/><linearGradient id="e" x1="-131.193" y1="-187.59" x2="-130.883" y2="-186.946" xlink:href="#b"/><linearGradient id="f" x1="-94.501" y1="-129.762" x2="-94.285" y2="-129.315" xlink:href="#b"/><linearGradient id="g" x1="-0.01" y1="0.407" x2="1.033" y2="0.597" gradientUnits="objectBoundingBox"><stop offset="0" stop-color="#939598"/><stop offset="0.08" stop-color="#989a9c"/><stop offset="0.66" stop-color="#b2b4b6"/><stop offset="1" stop-color="#bcbec0"/></linearGradient><linearGradient id="h" x1="-13.795" y1="0.407" x2="-12.752" y2="0.597" gradientUnits="objectBoundingBox"><stop offset="0" stop-color="#bcbec0"/><stop offset="0.53" stop-color="#d7d8d9"/><stop offset="1" stop-color="#f1f2f2"/></linearGradient><linearGradient id="i" x1="0.004" y1="0.5" x2="0.984" y2="0.5" gradientUnits="objectBoundingBox"><stop offset="0" stop-color="#bcbec0"/><stop offset="0.17" stop-color="#c4c5c7"/><stop offset="0.42" stop-color="#d9dadb"/><stop offset="0.55" stop-color="#e6e7e8"/><stop offset="0.58" stop-color="#e3e4e5"/><stop offset="0.8" stop-color="#d6d7d8"/><stop offset="1" stop-color="#d1d3d4"/></linearGradient><linearGradient id="j" x1="-0.24" y1="0.978" x2="1.17" y2="0.068" gradientUnits="objectBoundingBox"><stop offset="0" stop-color="#58595b"/><stop offset="0.41" stop-color="#77797b"/><stop offset="0.77" stop-color="#8c8e90"/><stop offset="1" stop-color="#939598"/></linearGradient><linearGradient id="k" x1="-1256.183" y1="-95.76" x2="-1254.772" y2="-96.671" xlink:href="#j"/><linearGradient id="l" x1="-0.242" y1="0.978" x2="1.172" y2="0.068" xlink:href="#j"/><linearGradient id="m" x1="-1260.182" y1="-95.576" x2="-1258.771" y2="-96.487" xlink:href="#j"/><linearGradient id="n" x1="-0.242" y1="0.978" x2="1.17" y2="0.068" xlink:href="#j"/><linearGradient id="o" x1="-1410.208" y1="-95.864" x2="-1408.796" y2="-96.774" xlink:href="#j"/><linearGradient id="p" x1="-1408.212" y1="-95.76" x2="-1406.801" y2="-96.671" xlink:href="#j"/><linearGradient id="q" x1="-1406.211" y1="-95.68" x2="-1404.799" y2="-96.59" xlink:href="#j"/><linearGradient id="r" x1="-1404.215" y1="-95.576" x2="-1402.804" y2="-96.487" xlink:href="#j"/><linearGradient id="s" x1="-1404.363" y1="-95.485" x2="-1402.95" y2="-96.395" xlink:href="#j"/><linearGradient id="t" x1="-0.079" y1="0.417" x2="1.105" y2="0.587" gradientUnits="objectBoundingBox"><stop offset="0" stop-color="#939598"/><stop offset="0.33" stop-color="#adafb1"/><stop offset="0.75" stop-color="#c7c9ca"/><stop offset="1" stop-color="#d1d3d4"/></linearGradient><linearGradient id="u" x1="-17.149" y1="0.417" x2="-15.965" y2="0.587" xlink:href="#h"/><linearGradient id="v" x1="0.004" y1="0.5" x2="0.984" y2="0.5" xlink:href="#i"/><linearGradient id="w" x1="0.116" y1="0.364" x2="0.901" y2="0.642" xlink:href="#g"/><linearGradient id="x" x1="-22.12" y1="0.364" x2="-21.335" y2="0.642" xlink:href="#h"/><linearGradient id="y" x1="0.5" y1="0.01" x2="0.5" y2="0.957" gradientUnits="objectBoundingBox"><stop offset="0" stop-color="#bcbec0"/><stop offset="0.47" stop-color="#cdcfd1"/><stop offset="1" stop-color="#e6e7e8"/></linearGradient><linearGradient id="z" x1="-1253.904" y1="-82.559" x2="-1252.992" y2="-83.531" xlink:href="#j"/><linearGradient id="aa" y1="0.5" x2="1.004" y2="0.5" gradientUnits="objectBoundingBox"><stop offset="0" stop-color="#bcbec0"/><stop offset="0.64" stop-color="#a3a5a8"/><stop offset="1" stop-color="#939598"/></linearGradient><linearGradient id="ab" x1="0" y1="0.5" x2="1" y2="0.5" xlink:href="#aa"/><linearGradient id="ac" x1="0" y1="0.5" x2="1" y2="0.5" xlink:href="#aa"/><linearGradient id="ad" x1="-1255.902" y1="-82.488" x2="-1254.991" y2="-83.46" xlink:href="#j"/><linearGradient id="ae" x1="-1259.83" y1="-82.408" x2="-1258.917" y2="-83.38" xlink:href="#j"/><linearGradient id="af" x1="0.04" y1="0.99" x2="0.951" y2="0.018" xlink:href="#j"/><linearGradient id="ag" x1="-1409.926" y1="-82.56" x2="-1409.015" y2="-83.532" xlink:href="#j"/><linearGradient id="ah" x1="-1407.931" y1="-82.48" x2="-1407.02" y2="-83.452" xlink:href="#j"/><linearGradient id="ai" x1="-1405.929" y1="-82.408" x2="-1405.018" y2="-83.38" xlink:href="#j"/><linearGradient id="aj" x1="-1403.934" y1="-82.32" x2="-1403.023" y2="-83.292" xlink:href="#j"/><radialGradient id="ak" cx="6.823" cy="18.355" r="8.687" gradientTransform="matrix(1.557, 0.833, -0.833, 1.557, 11.493, -15.915)" gradientUnits="userSpaceOnUse"><stop offset="0" stop-color="#d1d3d4"/><stop offset="0.16" stop-color="#b6b8b9"/><stop offset="0.34" stop-color="#9ea0a2"/><stop offset="0.53" stop-color="#8d8f92"/><stop offset="0.74" stop-color="#838588"/><stop offset="1" stop-color="#808285"/></radialGradient><linearGradient id="al" x1="0.044" y1="0.423" x2="0.951" y2="0.576" gradientUnits="objectBoundingBox"><stop offset="0" stop-color="#00daff" stop-opacity="0"/><stop offset="0.43" stop-color="#00daff" stop-opacity="0.161"/><stop offset="0.79" stop-color="#00daff" stop-opacity="0.259"/><stop offset="1" stop-color="#00daff" stop-opacity="0.302"/></linearGradient><linearGradient id="am" x1="0.038" y1="0.283" x2="0.932" y2="0.703" gradientUnits="objectBoundingBox"><stop offset="0" stop-color="#00daff" stop-opacity="0"/><stop offset="0.2" stop-color="#00daff" stop-opacity="0.031"/><stop offset="0.5" stop-color="#00daff" stop-opacity="0.11"/><stop offset="0.86" stop-color="#00daff" stop-opacity="0.239"/><stop offset="1" stop-color="#00daff" stop-opacity="0.302"/></linearGradient><linearGradient id="an" x1="0.948" y1="0.326" x2="0.095" y2="0.658" gradientUnits="objectBoundingBox"><stop offset="0" stop-color="red" stop-opacity="0"/><stop offset="0.27" stop-color="red" stop-opacity="0.012"/><stop offset="0.48" stop-color="red" stop-opacity="0.051"/><stop offset="0.68" stop-color="red" stop-opacity="0.122"/><stop offset="0.86" stop-color="red" stop-opacity="0.212"/><stop offset="1" stop-color="red" stop-opacity="0.302"/></linearGradient><linearGradient id="ao" x1="0.715" y1="0.723" x2="0.328" y2="0.321" gradientUnits="objectBoundingBox"><stop offset="0.12" stop-color="#fff"/><stop offset="0.19" stop-color="#fff" stop-opacity="0.969"/><stop offset="0.31" stop-color="#fff" stop-opacity="0.89"/><stop offset="0.45" stop-color="#fff" stop-opacity="0.761"/><stop offset="0.6" stop-color="#fff" stop-opacity="0.58"/><stop offset="0.78" stop-color="#fff" stop-opacity="0.341"/><stop offset="0.96" stop-color="#fff" stop-opacity="0.059"/><stop offset="1" stop-color="#fff" stop-opacity="0"/></linearGradient><linearGradient id="ap" x1="0.28" y1="0.716" x2="0.685" y2="0.319" xlink:href="#ao"/><linearGradient id="aq" x1="0.965" y1="0.304" x2="-0.021" y2="0.719" xlink:href="#an"/><linearGradient id="ar" x1="0.296" y1="0.368" x2="0.866" y2="0.737" xlink:href="#al"/><linearGradient id="as" x1="0.889" y1="0.149" x2="0.318" y2="0.664" gradientUnits="objectBoundingBox"><stop offset="0" stop-color="red" stop-opacity="0"/><stop offset="0.22" stop-color="red" stop-opacity="0.02"/><stop offset="0.45" stop-color="red" stop-opacity="0.071"/><stop offset="0.7" stop-color="red" stop-opacity="0.161"/><stop offset="0.95" stop-color="red" stop-opacity="0.278"/><stop offset="1" stop-color="red" stop-opacity="0.302"/></linearGradient><linearGradient id="at" x1="0.353" y1="0.246" x2="0.518" y2="0.596" xlink:href="#b"/><linearGradient id="au" x1="0.372" y1="0.21" x2="0.517" y2="0.602" gradientUnits="objectBoundingBox"><stop offset="0.01" stop-color="#fff"/><stop offset="0.05" stop-color="#fff" stop-opacity="0.929"/><stop offset="0.2" stop-color="#fff" stop-opacity="0.678"/><stop offset="0.36" stop-color="#fff" stop-opacity="0.478"/><stop offset="0.5" stop-color="#fff" stop-opacity="0.302"/><stop offset="0.64" stop-color="#fff" stop-opacity="0.169"/><stop offset="0.78" stop-color="#fff" stop-opacity="0.078"/><stop offset="0.9" stop-color="#fff" stop-opacity="0.02"/><stop offset="1" stop-color="#fff" stop-opacity="0"/></linearGradient><linearGradient id="av" x1="0.351" y1="0.241" x2="0.524" y2="0.607" xlink:href="#b"/><linearGradient id="aw" x1="0.367" y1="0.273" x2="0.506" y2="0.579" xlink:href="#b"/><linearGradient id="ax" x1="0.352" y1="0.21" x2="0.507" y2="0.573" gradientUnits="objectBoundingBox"><stop offset="0.01" stop-color="#fff"/><stop offset="0.11" stop-color="#fff" stop-opacity="0.839"/><stop offset="0.3" stop-color="#fff" stop-opacity="0.588"/><stop offset="0.47" stop-color="#fff" stop-opacity="0.38"/><stop offset="0.64" stop-color="#fff" stop-opacity="0.22"/><stop offset="0.78" stop-color="#fff" stop-opacity="0.102"/><stop offset="0.91" stop-color="#fff" stop-opacity="0.031"/><stop offset="1" stop-color="#fff" stop-opacity="0"/></linearGradient><linearGradient id="ay" x1="0.351" y1="0.239" x2="0.508" y2="0.574" gradientUnits="objectBoundingBox"><stop offset="0.01" stop-color="#fff"/><stop offset="0.01" stop-color="#fff" stop-opacity="0.988"/><stop offset="0.13" stop-color="#fff" stop-opacity="0.761"/><stop offset="0.25" stop-color="#fff" stop-opacity="0.561"/><stop offset="0.38" stop-color="#fff" stop-opacity="0.388"/><stop offset="0.5" stop-color="#fff" stop-opacity="0.251"/><stop offset="0.62" stop-color="#fff" stop-opacity="0.141"/><stop offset="0.75" stop-color="#fff" stop-opacity="0.059"/><stop offset="0.87" stop-color="#fff" stop-opacity="0.02"/><stop offset="1" stop-color="#fff" stop-opacity="0"/></linearGradient></defs><g transform="translate(-10.74 -55.95)"><g transform="translate(10.74 232.306)"><ellipse class="a" cx="310" cy="185.997" rx="310" ry="185.997"/><path class="b" d="M379.954,330.885a6.726,6.726,0,0,0,2.9-5.184c0-1.918-1.3-2.7-2.9-1.736a4.834,4.834,0,0,0-1.1.92c-.194-3.071-2.41-4.289-5.119-2.67a10.25,10.25,0,0,0-3.123,3.162v-1.3c0-6.816-4.652-9.6-10.367-6.194a16.185,16.185,0,0,0-2.864,2.216c-2.009-6.246-7.866-8.177-14.721-4.056s-12.479,12.7-14.6,21.2c-.285.155-.583.3-.894.479a19.84,19.84,0,0,0-5.482,5.184c-2.2-3.486-6.479-4.212-11.326-1.3-7,4.2-12.726,14.423-12.881,22.872a7.035,7.035,0,0,0-2.268.907,16.289,16.289,0,0,0-7.024,12.635c0,4.626,3.162,6.479,7.024,4.212Z" transform="translate(71.348 -155.994)"/><path class="c" d="M248.476,288.386a9.46,9.46,0,0,0,4.069-7.322c0-2.682-1.827-3.784-4.069-2.449a7.132,7.132,0,0,0-1.529,1.3c-.285-4.3-3.382-6.013-7.179-3.732a14.255,14.255,0,0,0-4.367,4.432q.078-.933.078-1.866c0-9.538-6.479-13.451-14.475-8.669a23.745,23.745,0,0,0-4,3.1c-2.825-8.747-11.028-11.443-20.643-5.676-9.421,5.65-17.468,17.805-20.449,29.714a13.145,13.145,0,0,0-1.3.674,27.072,27.072,0,0,0-7.685,7.309c-3.084-4.885-9.071-5.9-15.862-1.814-9.81,5.883-17.844,20.216-18.065,32.047a9.979,9.979,0,0,0-3.175,1.3c-5.417,3.253-9.836,11.222-9.836,17.715s4.419,9.136,9.836,5.9Z" transform="translate(21.585 -170.617)"/><path class="d" d="M168.732,285.536A6.881,6.881,0,0,0,171.7,280.2c0-1.957-1.3-2.76-2.968-1.775a4.96,4.96,0,0,0-1.114.933c-.207-3.136-2.475-4.38-5.183-2.721a10.535,10.535,0,0,0-3.175,3.24v-1.361c0-6.972-4.743-9.81-10.548-6.337a16.936,16.936,0,0,0-2.929,2.268c-2.06-6.389-8.047-8.345-15.058-4.134s-12.739,12.959-14.916,21.667c-.311.155-.609.311-.92.492a19.942,19.942,0,0,0-5.611,5.326c-2.242-3.564-6.6-4.3-11.559-1.3-7.166,4.289-12.959,14.734-13.179,23.326a6.856,6.856,0,0,0-2.32.92A16.665,16.665,0,0,0,75.04,333.7c0,4.73,3.227,6.674,7.179,4.3Z" transform="translate(8.285 -169.542)"/><path class="e" d="M378.046,294.081a5.469,5.469,0,0,0,2.372-4.25c0-1.568-1.063-2.2-2.372-1.425a4.312,4.312,0,0,0-.881.752c-.168-2.5-1.97-3.486-4.173-2.164a8.332,8.332,0,0,0-2.592,2.592,10.378,10.378,0,0,0,0-1.089c0-5.546-3.784-7.775-8.4-5.041a14.254,14.254,0,0,0-2.333,1.8c-1.633-5.08-6.4-6.635-11.974-3.292s-10.147,10.367-11.87,17.248a7.774,7.774,0,0,0-.726.389,15.848,15.848,0,0,0-4.471,4.238c-1.788-2.825-5.248-3.421-9.2-1.037-5.7,3.408-10.367,11.728-10.484,18.6a5.819,5.819,0,0,0-1.853.739,13.27,13.27,0,0,0-5.7,10.276c0,3.771,2.592,5.3,5.7,3.421Z" transform="translate(75.849 -165.957)"/><path class="f" d="M389.376,243.668a7.918,7.918,0,0,0,3.4-6.117c0-2.255-1.529-3.162-3.4-2.047a5.91,5.91,0,0,0-1.3,1.089c-.233-3.6-2.825-5.028-6-3.123a11.663,11.663,0,0,0-3.641,3.706c0-.531.065-1.05.065-1.555,0-7.983-5.443-11.248-12.091-7.257a19.338,19.338,0,0,0-3.343,2.592c-2.371-7.309-9.227-9.564-17.261-4.743s-14.566,14.877-17.093,24.829c-.337.168-.687.35-1.037.557a23.067,23.067,0,0,0-6.479,6.117c-2.592-4.082-7.555-4.937-13.257-1.516-8.19,4.924-14.9,16.846-15.084,26.786a8.087,8.087,0,0,0-2.669,1.05,19.153,19.153,0,0,0-8.19,14.8c0,5.43,3.706,7.646,8.216,4.937Z" transform="translate(69.52 -182.684)"/></g><g transform="translate(227.087 248.155)"><path class="g" d="M249.59,418.919V303.314l93.161-55.9V363.015Z" transform="translate(-156.416 -191.506)"/><path class="h" d="M270.864,418.919V303.314l-93.174-55.9V363.015Z" transform="translate(-177.69 -191.506)"/><path class="i" d="M270.864,204.27l-93.174,55.9,93.174,55.9,93.161-55.9Z" transform="translate(-177.69 -204.27)"/><path class="j" d="M256.12,401.075V295.63l8.475-5.08V396Z" transform="translate(-154.484 -178.742)"/><path class="k" d="M269.19,393.238V287.78l8.475-5.08V388.146Z" transform="translate(-150.617 -181.064)"/><path class="l" d="M282.27,385.385V279.94l8.462-5.08V380.306Z" transform="translate(-146.747 -183.384)"/><path class="m" d="M295.34,377.548V272.1l8.475-5.093V372.469Z" transform="translate(-142.88 -185.707)"/><path class="n" d="M308.41,369.708V264.25l8.475-5.08V364.629Z" transform="translate(-139.013 -188.026)"/><path class="o" d="M244.985,401.075V295.63l-8.475-5.08V396Z" transform="translate(-160.286 -178.742)"/><path class="p" d="M231.915,393.238V287.78l-8.475-5.08V388.146Z" transform="translate(-164.154 -181.064)"/><path class="q" d="M218.845,385.385V279.94l-8.475-5.08V380.306Z" transform="translate(-168.021 -183.384)"/><path class="r" d="M205.775,377.548V272.1L197.3,267.01V372.469Z" transform="translate(-171.888 -185.707)"/><path class="s" d="M192.692,369.708V264.25l-8.462-5.08V364.629Z" transform="translate(-175.755 -188.026)"/></g><g transform="translate(244.024 55.95)"><path class="t" d="M249.59,323.309V191.182l76.224-45.732V277.578Z" transform="translate(-173.353 -29.469)"/><path class="u" d="M267,323.309V191.182L190.76,145.45V277.578Z" transform="translate(-190.76 -29.469)"/><path class="v" d="M267,110.15,190.76,155.895,267,201.626l76.224-45.732Z" transform="translate(-190.76 -39.913)"/><path class="w" d="M249.59,185.664V165.332l59.286-35.572v20.332Z" transform="translate(-173.353 -34.111)"/><path class="x" d="M263.126,185.664V165.332L203.84,129.76v20.332Z" transform="translate(-186.89 -34.111)"/><path class="y" d="M263.126,102.31,203.84,137.882l59.286,35.572,59.286-35.572Z" transform="translate(-186.89 -42.233)"/><path class="z" d="M256.12,307.632V185.82l8.475-5.08v121.8Z" transform="translate(-171.421 -19.027)"/><path class="aa" d="M246.11,106.79v30.648a2.345,2.345,0,0,0,1.3,1.918,6.868,6.868,0,0,0,6.389,0,2.333,2.333,0,0,0,1.3-1.918V106.79Z" transform="translate(-174.383 -40.908)"/><ellipse class="ab" cx="4.51" cy="2.708" rx="4.51" ry="2.708" transform="translate(71.727 63.174)"/><path class="ac" d="M247.55,87.53v24.505a1.3,1.3,0,0,0,.778,1.114,3.965,3.965,0,0,0,3.732,0,1.3,1.3,0,0,0,.765-1.114V87.53Z" transform="translate(-173.957 -46.606)"/><ellipse class="ab" cx="2.644" cy="1.581" rx="2.644" ry="1.581" transform="translate(73.593 39.343)"/><path class="ad" d="M248.45,56.63V96.245a.764.764,0,0,0,.428.635,2.281,2.281,0,0,0,2.086,0,.778.778,0,0,0,.441-.635V56.63Z" transform="translate(-173.691 -55.749)"/><ellipse class="ab" cx="1.477" cy="0.881" rx="1.477" ry="0.881" transform="translate(74.759)"/><path class="ae" d="M269.19,299.779V177.98l8.475-5.08V294.7Z" transform="translate(-167.554 -21.347)"/><path class="af" d="M282.27,291.939V170.14l8.462-5.08v121.8Z" transform="translate(-163.684 -23.667)"/><path class="ag" d="M295.34,284.1V162.29l8.475-5.08V279.023Z" transform="translate(-159.817 -25.989)"/><path class="ah" d="M244.985,307.692V185.88l-8.475-5.08V302.613Z" transform="translate(-177.224 -19.01)"/><path class="ai" d="M231.915,299.852V178.04l-8.475-5.08v121.8Z" transform="translate(-181.091 -21.329)"/><path class="aj" d="M218.845,292V170.2l-8.475-5.08v121.8Z" transform="translate(-184.958 -23.649)"/><path class="ak" d="M205.775,284.162V162.35l-8.475-5.08V279.083Z" transform="translate(-188.825 -25.972)"/><ellipse class="al" cx="6.985" cy="12.337" rx="6.985" ry="12.337" transform="matrix(0.882, -0.472, 0.472, 0.882, 55.786, 69.872)"/><path class="am" d="M245.533,117.334a.713.713,0,0,0,.246-.6,2.164,2.164,0,0,0-.933-1.685.6.6,0,0,0-.661,0h0l-5.961,4.367h0c-.117,0-.194.143-.194.324a1.05,1.05,0,0,0,.467.829.3.3,0,0,0,.35,0h0l6.635-3.2h0Z" transform="translate(-176.774 -38.492)"/></g><g transform="translate(227.087 151.599)"><path class="an" d="M249.59,418.919V303.314l93.161-55.9V363.015Z" transform="translate(-156.416 -94.95)"/><path class="ao" d="M249.59,323.833V190.008l76.224-46.328V277.505Z" transform="translate(-156.416 -125.641)"/><path class="ap" d="M270.864,418.919V303.314l-93.174-55.9V363.015Z" transform="translate(-177.69 -94.95)"/><path class="aq" d="M249.59,420.215v-116.9l93.161-55.9v116.9Z" transform="translate(-156.416 -94.95)"/><path class="ar" d="M270.864,420.215v-116.9l-93.174-55.9v116.9Z" transform="translate(-177.69 -94.95)"/><path class="as" d="M267,323.309V191.182L190.76,145.45V277.578Z" transform="translate(-173.823 -125.118)"/><path class="at" d="M249.59,185.664V165.332l59.286-35.572v20.332Z" transform="translate(-156.416 -129.76)"/><path class="au" d="M263.126,185.664V165.332L203.84,129.76v20.332Z" transform="translate(-169.953 -129.76)"/></g><g transform="translate(113.296 355.546)"><path class="av" d="M462.156,368.739a10.367,10.367,0,0,0,4.484-8.06c0-2.968-2.022-4.173-4.484-2.7a8.2,8.2,0,0,0-1.7,1.425c-.3-4.743-3.719-6.622-7.9-4.108a15.888,15.888,0,0,0-4.808,4.885c.065-.7.091-1.387.091-2.06,0-10.51-7.166-14.812-15.926-9.551a25.467,25.467,0,0,0-4.406,3.408c-3.123-9.628-12.142-12.6-22.73-6.246-10.367,6.233-19.231,19.594-22.509,32.708-.454.233-.92.466-1.374.739a30.248,30.248,0,0,0-8.475,8.047c-3.382-5.378-9.952-6.479-17.455-1.983-10.795,6.479-19.646,22.25-19.879,35.274a10.806,10.806,0,0,0-3.5,1.387c-5.961,3.577-10.833,12.35-10.833,19.5s4.873,10.069,10.834,6.479Z" transform="translate(-21.571 -270.798)"/><path class="aw" d="M384.435,392.042a13.321,13.321,0,0,0,5.728-10.3c0-3.784-2.592-5.326-5.728-3.434a10.006,10.006,0,0,0-2.164,1.814c-.389-6.052-4.756-8.449-10.095-5.248a20.307,20.307,0,0,0-6.142,6.233c.078-.881.117-1.75.117-2.592,0-13.425-9.149-18.92-20.345-12.207a32.981,32.981,0,0,0-5.637,4.367c-3.965-12.311-15.551-16.095-29.015-7.983-13.257,7.957-24.622,25.023-28.769,41.779-.57.285-1.153.583-1.749.946a38.528,38.528,0,0,0-10.821,10.276c-4.328-6.868-12.713-8.294-22.3-2.592-13.788,8.281-25.075,28.445-25.334,45.084a14.022,14.022,0,0,0-4.471,1.775c-7.607,4.561-13.827,15.771-13.827,24.894s6.22,12.868,13.827,8.307Z" transform="translate(-56.15 -266.058)"/><path class="ax" d="M472.523,314.677a10.924,10.924,0,0,0,4.678-8.436c0-3.084-2.112-4.354-4.678-2.8a7.853,7.853,0,0,0-1.775,1.477c-.324-4.95-3.888-6.907-8.255-4.289a16.314,16.314,0,0,0-5.028,5.106c0-.726.091-1.438.091-2.151,0-10.976-7.49-15.473-16.639-9.978a26.055,26.055,0,0,0-4.613,3.564C433.051,287.1,423.617,284,412.55,290.69c-10.834,6.479-20.1,20.475-23.52,34.185a15.652,15.652,0,0,0-1.438.778,31.439,31.439,0,0,0-8.851,8.4c-3.538-5.611-10.367-6.777-18.246-2.073-11.287,6.777-20.527,23.248-20.734,36.868a11.352,11.352,0,0,0-3.667,1.451c-6.22,3.732-11.313,12.959-11.313,20.371s5.093,10.523,11.313,6.79Z" transform="translate(-20.378 -287.141)"/><path class="ay" d="M290.577,395.909a8.734,8.734,0,0,0,3.745-6.739c0-2.475-1.685-3.486-3.745-2.255a6.062,6.062,0,0,0-1.413,1.192c-.259-3.965-3.123-5.533-6.609-3.434a12.959,12.959,0,0,0-4.017,4.082c0-.583.078-1.153.078-1.711,0-8.786-6-12.389-13.322-8a21.286,21.286,0,0,0-3.68,2.851c-2.592-8.047-10.147-10.523-19-5.183s-16.069,16.367-18.816,27.33c-.376.181-.752.389-1.14.622a24.92,24.92,0,0,0-7.076,6.726c-2.838-4.5-8.32-5.43-14.592-1.672-9.071,5.417-16.419,18.6-16.613,29.494a13.759,13.759,0,0,0-2.929,1.153c-10.367,4.769-15.551,26.617-28.691,38.138-4.484,3.888,23.715-13.425,28.691-16.419Z" transform="translate(-71.418 -261.476)"/><path class="az" d="M244.8,357.508a11.43,11.43,0,0,0,4.911-8.838c0-3.24-2.216-4.562-4.911-2.942a8.63,8.63,0,0,0-1.853,1.529c-.337-5.184-4.082-7.244-8.669-4.5a17.17,17.17,0,0,0-5.261,5.352c.065-.765.091-1.516.091-2.255,0-11.507-7.775-16.224-17.443-10.471a28.51,28.51,0,0,0-4.834,3.745c-3.408-10.548-13.3-13.8-24.894-6.842-11.365,6.816-21.071,21.46-24.622,35.831-.492.246-1,.505-1.5.816a32.864,32.864,0,0,0-9.278,8.812c-3.706-5.9-10.9-7.114-19.127-2.177-11.831,7.1-21.512,24.375-21.771,38.656a11.521,11.521,0,0,0-3.888,1.516c-6.479,3.888-11.87,13.516-11.87,21.356s5.339,11.054,11.818,7.14Z" transform="translate(-89.88 -274.872)"/><path class="ba" d="M213.332,403.618a7.568,7.568,0,0,0,3.253-5.857c0-2.138-1.464-3.019-3.253-1.944a5.338,5.338,0,0,0-1.231,1.024c-.22-3.434-2.708-4.795-5.741-2.98a11.416,11.416,0,0,0-3.486,3.551c0-.505.065-1.011.065-1.49,0-7.633-5.184-10.756-11.559-6.946a18.865,18.865,0,0,0-3.2,2.488c-2.255-7-8.812-9.149-16.484-4.536s-13.97,14.255-16.341,23.74a9.316,9.316,0,0,0-1,.531,21.809,21.809,0,0,0-6.155,5.844c-2.449-3.888-7.218-4.717-12.661-1.451-7.84,4.7-14.255,16.147-14.436,25.607a8.035,8.035,0,0,0-2.592,1.011,18.272,18.272,0,0,0-7.853,14.138c0,5.183,3.538,7.309,7.853,4.717Z" transform="translate(-83.732 -258.339)"/></g><g transform="translate(143.904 132.044)"><circle class="bb" cx="2.281" cy="2.281" r="2.281" transform="translate(361.77 224.355)"/><path class="bb" d="M395.711,296.436a5.6,5.6,0,1,1,5.585-5.6,5.6,5.6,0,0,1-5.585,5.6Zm0-10.652a5.067,5.067,0,1,0,5.054,5.054A5.067,5.067,0,0,0,395.711,285.784Z" transform="translate(-31.66 -64.202)"/><circle class="bb" cx="2.281" cy="2.281" r="2.281" transform="translate(237.599 168.97)"/><path class="bb" d="M299.891,253.7a5.6,5.6,0,1,1,5.585-5.6A5.6,5.6,0,0,1,299.891,253.7Zm0-10.652a5.067,5.067,0,1,0,5.054,5.054A5.067,5.067,0,0,0,299.891,243.044Z" transform="translate(-60.011 -76.848)"/><circle class="bb" cx="2.281" cy="2.281" r="2.281" transform="translate(160.948 246.022)"/><path class="bb" d="M240.738,313.146a5.585,5.585,0,1,1,3.958-1.631A5.6,5.6,0,0,1,240.738,313.146Zm0-10.639a5.054,5.054,0,1,0,5.067,5.054A5.054,5.054,0,0,0,240.738,302.507Z" transform="translate(-77.509 -59.258)"/><circle class="bb" cx="2.281" cy="2.281" r="2.281" transform="translate(287.879 354.462)"/><path class="bb" d="M338.688,396.836a5.6,5.6,0,1,1,5.6-5.6,5.6,5.6,0,0,1-5.6,5.6Zm0-10.652a5.054,5.054,0,1,0,5.067,5.054A5.054,5.054,0,0,0,338.688,386.184Z" transform="translate(-48.528 -34.496)"/><circle class="bb" cx="2.281" cy="2.281" r="2.281" transform="translate(140.188 396.629)"/><path class="bb" d="M224.718,429.376a5.6,5.6,0,1,1,5.6-5.6,5.6,5.6,0,0,1-5.6,5.6Zm0-10.652a5.067,5.067,0,1,0,5.067,5.054A5.067,5.067,0,0,0,224.718,418.724Z" transform="translate(-82.249 -24.868)"/><circle class="bb" cx="2.281" cy="2.281" r="2.281" transform="translate(3.317 325.123)"/><path class="bb" d="M119.1,374.2a5.6,5.6,0,1,1,5.6-5.6A5.6,5.6,0,0,1,119.1,374.2Zm0-10.652a5.054,5.054,0,1,0,5.054,5.054,5.054,5.054,0,0,0-5.054-5.054Z" transform="translate(-113.5 -41.195)"/><circle class="bb" cx="2.281" cy="2.281" r="2.281" transform="translate(6.181 198.956)"/><path class="bb" d="M121.278,276.826a5.6,5.6,0,1,1,5.6-5.585A5.6,5.6,0,0,1,121.278,276.826Zm0-10.652a5.067,5.067,0,1,0,5.054,5.067,5.067,5.067,0,0,0-5.054-5.067Z" transform="translate(-112.855 -70.004)"/><circle class="bb" cx="2.281" cy="2.281" r="2.281" transform="translate(110.551 153.004)"/><path class="bb" d="M201.851,241.376a5.6,5.6,0,1,1,5.585-5.6A5.6,5.6,0,0,1,201.851,241.376Zm0-10.652a5.054,5.054,0,1,0,5.054,5.054A5.054,5.054,0,0,0,201.851,230.724Z" transform="translate(-89.019 -80.493)"/><g class="bc" transform="translate(239.737 170.952)"><line class="bb" x2="124.171" y2="55.386" transform="translate(0.143 0.298)"/><path class="bb" d="M422.684,302.572,298.5,247.186l.272-.6,124.171,55.4Z" transform="translate(-298.5 -246.59)"/></g><g class="bc" transform="translate(163.027 248.075)"><line class="bb" x2="126.931" y2="108.439" transform="translate(0.202 0.228)"/><rect class="bb" width="0.648" height="166.948" transform="matrix(0.65, -0.76, 0.76, 0.65, 0, 0.493)"/></g><g class="bc" transform="translate(161.117 5.404)"><line class="bb" x2="78.504" y2="165.639" transform="translate(0.259 0.207)"/><path class="bb" d="M316.334,284.881l-78.5-165.639.518-.4,78.5,165.652Z" transform="translate(-237.83 -118.84)"/></g><g class="bc" transform="translate(112.551 155.143)"><line class="bb" x2="50.397" y2="93.018" transform="translate(0.281 0.142)"/><rect class="bb" width="0.648" height="105.796" transform="matrix(0.879, -0.476, 0.476, 0.879, 0, 0.309)"/></g><g class="bc" transform="translate(5.488 247.95)"><line class="bb" y1="79.1" x2="157.631" transform="translate(0.11 0.353)"/><rect class="bb" width="176.369" height="0.648" transform="matrix(0.894, -0.449, 0.449, 0.894, 0, 79.163)"/></g><g class="bc" transform="translate(112.547 5.443)"><line class="bb" y1="149.674" x2="48.544" transform="translate(0.285 0.168)"/><path class="bb" d="M200.907,268.868l-.557-.311L248.894,118.87l.57.324Z" transform="translate(-200.35 -118.87)"/></g><g class="bc" transform="translate(142.469 248.303)"><line class="bb" x1="20.76" y2="150.607"/><rect class="bb" width="152.032" height="0.648" transform="translate(0.103 152.224) rotate(-81.951)"/></g><g class="bc" transform="translate(8.302 155.051)"><line class="bb" x1="104.37" y2="45.952" transform="translate(0.16 0.234)"/><rect class="bb" width="114.037" height="0.648" transform="translate(0 45.856) rotate(-23.71)"/></g><g class="bc" transform="translate(162.996 171.03)"><line class="bb" y1="77.053" x2="76.651" transform="translate(0.233 0.22)"/><path class="bb" d="M239.747,324.156l-.467-.466,76.651-77.04.454.454Z" transform="translate(-239.28 -246.65)"/></g><g class="bc" transform="translate(239.569 171.163)"><line class="bb" x1="50.28" y1="183.211" transform="translate(0.311 0.088)"/><rect class="bb" width="0.648" height="189.989" transform="translate(0 0.172) rotate(-15.35)"/></g><circle class="bb" cx="2.281" cy="2.281" r="2.281" transform="translate(159.095 3.33)"/><path class="bb" d="M239.278,125.866a5.585,5.585,0,1,1,3.958-1.631A5.6,5.6,0,0,1,239.278,125.866Zm0-10.652a5.067,5.067,0,1,0,5.067,5.067A5.067,5.067,0,0,0,239.278,115.214Z" transform="translate(-77.941 -114.67)"/><g class="bc" transform="translate(5.468 155.044)"><line class="bb" y1="172.119" x2="107.234" transform="translate(0.13 0.241)"/><rect class="bb" width="202.792" height="0.648" transform="matrix(0.527, -0.85, 0.85, 0.527, 0, 172.296)"/></g></g></g></svg>