<svg xmlns="http://www.w3.org/2000/svg" width="40" height="39.93" viewBox="0 0 40 39.93"><defs><style>.a,.b{fill:#fff;}.a{opacity:0.2;}</style></defs><path class="a" d="M0-236.035v19.965H40V-256H0Z" transform="translate(0 256)"/><path class="b" d="M14.058,16.4l.013-1.635h-5.2V0H5.2V14.768H0v1.6a15.713,15.713,0,0,0,.044,1.648c.019.025,3.182.038,7.016.032l6.978-.019Z" transform="translate(22.912 36.501) rotate(180)"/><path class="b" d="M161.559-235.161a4.97,4.97,0,0,1,2.5,1.439,6.576,6.576,0,0,1,.957,1.28c.013.051-1.724,1.217-2.776,1.87-.038.025-.19-.139-.361-.393A2.263,2.263,0,0,0,160-232.094c-1.211-.082-1.99.551-1.984,1.61a1.464,1.464,0,0,0,.171.748c.266.551.761.881,2.313,1.553,2.859,1.23,4.082,2.041,4.842,3.194a5.794,5.794,0,0,1,.463,4.868,5.353,5.353,0,0,1-4.418,3.163,12.242,12.242,0,0,1-3.042-.032,7.337,7.337,0,0,1-4.063-2.117,7.053,7.053,0,0,1-1.039-1.54,2.983,2.983,0,0,1,.368-.235c.177-.1.849-.488,1.483-.856l1.147-.666.241.355A5.36,5.36,0,0,0,158-220.6a3.708,3.708,0,0,0,3.885-.2,1.47,1.47,0,0,0,.52-1.2,1.463,1.463,0,0,0-.3-1.014c-.311-.444-.944-.818-2.744-1.6a9.882,9.882,0,0,1-3.759-2.313,5.265,5.265,0,0,1-1.1-2,8,8,0,0,1-.07-2.548,4.867,4.867,0,0,1,4.094-3.79A10.114,10.114,0,0,1,161.559-235.161Z" transform="translate(-129.269 253.584)"/></svg>