<svg xmlns="http://www.w3.org/2000/svg" xmlns:xlink="http://www.w3.org/1999/xlink" width="236" height="100" viewBox="0 0 236 100"><defs><style>.a{fill:#fff;opacity:0;}.b{fill:url(#a);}.c{fill:url(#b);}.d{fill:url(#c);}.e{fill:url(#d);}.f{fill:url(#e);}.g{fill:url(#f);}.h{fill:url(#g);}.i{fill:url(#h);}.j{fill:url(#i);}.k{fill:url(#j);}</style><linearGradient id="a" x1="0.013" y1="0.5" x2="2.508" y2="0.5" gradientUnits="objectBoundingBox"><stop offset="0" stop-color="red"/><stop offset="1" stop-color="#00daff"/></linearGradient><linearGradient id="b" x1="-0.077" y1="0.5" x2="2.835" y2="0.5" xlink:href="#a"/><linearGradient id="c" x1="-0.654" y1="0.5" x2="5.169" y2="0.5" xlink:href="#a"/><linearGradient id="d" x1="-2.962" y1="0.5" x2="14.507" y2="0.5" xlink:href="#a"/><linearGradient id="e" x1="-0.692" y1="0.5" x2="2.801" y2="0.5" xlink:href="#a"/><linearGradient id="f" x1="-2.741" y1="0.5" x2="1.627" y2="0.5" xlink:href="#a"/><linearGradient id="g" x1="-3.385" y1="0.5" x2="3.603" y2="0.5" xlink:href="#a"/><linearGradient id="h" x1="-14.462" y1="0.5" x2="3.007" y2="0.5" xlink:href="#a"/><linearGradient id="i" x1="-2.22" y1="0.5" x2="0.956" y2="0.5" xlink:href="#a"/><linearGradient id="j" x1="-6.981" y1="0.5" x2="1.754" y2="0.5" xlink:href="#a"/></defs><rect class="a" width="236" height="100"/><path class="b" d="M62.5,14.5H61.469l-.055,0H61.4l-.055,0h-.015l-.069,0h-.015l-.14.005h0q-1.606.063-3.172.268h0l-.014,0h0l-.068.009h0l-.012,0h0l-.013,0h0l-.041,0h0l-.011,0h0l-.011,0h0l-.027,0h-.042l-.011,0h0l-.013,0h0l-.012,0h0l-.01,0h-.1l-.026,0h-.05l-.021,0h0l-.009,0h0l-.009,0H57.4l-.044.006h0l-.011,0h0l-.011,0h0l-.068.01h0q-.366.055-.729.117l.338,1.971A33.394,33.394,0,0,1,62.5,16.5v-2Zm-9.866,1.41q-.664.2-1.316.414h0l-.01,0h0l-.066.023h0l-.01,0h0l-.01,0h0l-.009,0h0l-.008,0h0l-.008,0h0l-.03.01,0,0-.008,0,0,0-.007,0-.005,0-.007,0-.005,0-.007,0,0,0-.007,0,0,0-.026.008,0,0-.006,0-.005,0-.007,0-.006,0h-.005l-.007,0,0,0-.007,0-.005,0-.007,0-.005,0-.011,0-.007,0-.005,0-.007,0-.005,0-.006,0-.006,0-.006,0-.007,0H50.93l-.006,0-.006,0-.006,0-.006,0-.011,0-.005,0-.007,0-.006,0-.006,0,0,0-.008,0h0l-.008,0h0l-.009,0h0l-.009,0h0l-.024.009h0l-.01,0h0l-.009,0h0l-.009,0h0l-.011,0h0l-.049.017h0l-.01,0h0l-.009,0h0l-.011,0h0l-.05.018h0l-.012,0h0l-.011,0h0l-.012,0h0l-.075.028h0q-.8.294-1.59.625h0l-.012.005h0l-.011,0h0l-.049.02h0l-.011,0h0l-.011,0h0l-.011.005h0l-.012,0h0l-.048.021h0l-.01,0h0l-.01,0h0l-.01,0h0l-.024.01h0l-.011,0h0l-.009,0,0,0-.008,0,0,0-.009,0h0l-.009,0h0l-.01.005h0l-.012,0h0l-.009,0,0,0-.008,0-.005,0-.007,0,0,0-.007,0,0,0-.006,0-.006,0-.006,0-.005,0-.006,0-.012.005,0,0-.008,0,0,0-.007,0,0,0-.007,0,0,0-.007,0,0,0-.008,0h0l-.029.013h0l-.009,0h0l-.009,0h0l-.008,0h0l-.008,0h0q-.66.292-1.307.611l.884,1.794A32.867,32.867,0,0,1,53.2,17.829l-.562-1.919Zm-9.063,4.145-.02.013h0l-.019.013h0l-.078.051h0l-.079.051h0l-.02.013h0l-.078.051h0l-.02.012h0L43.2,20.3h0l-.019.013h0l-.019.012h0l-.058.039h0l-.019.012h0L43,20.43h0l-.019.013h0l-.058.039h0L42.9,20.5h0l-.076.052h0l-.019.013h0l-.057.039h0l-.018.013h0l-.018.012h0l-.038.026h0l-.018.013h0l-.018.012,0,0-.018.012h0l-.038.027h0l-.018.013h0l-.018.012h0l-.018.013h0l-.019.013h0l-.017.012,0,0-.017.012h0l-.018.012v0l-.036.025h0l-.017.012,0,0-.017.012,0,0-.017.012h0l-.017.012h0l-.017.012,0,0-.017.012,0,0-.017.012,0,0-.018.012h0l-.018.013h0l-.017.012,0,0-.017.012,0,0L42.173,21l0,0-.017.012h0l-.018.013,0,0-.017.011,0,0-.016.011,0,0-.016.012h0l-.016.012h0l-.017.012,0,0-.016.012,0,0L42,21.127l0,0-.017.012h0l-.017.012,0,0-.016.012,0,0-.016.012,0,0-.016.012,0,0-.016.012h0l-.016.012,0,0-.015.011-.005,0-.015.011,0,0-.016.011,0,0-.015.011,0,0-.015.011-.005,0-.015.011,0,0-.015.012,0,0-.014.011-.005,0-.014.01,0,0-.015.01-.005,0-.014.011,0,0-.015.012,0,0-.013.01,0,0-.015.011,0,0-.015.011-.005,0-.015.011,0,0-.014.011,0,0-.014.01,0,0-.015.011-.005,0-.014.011-.005,0-.015.011,0,0-.012.009-.007.005-.012.009-.005,0-.014.011-.006,0-.014.011-.005,0-.013.009-.006,0-.011.008-.007,0-.012.01-.006,0-.014.01-.006,0-.013.011-.006,0-.011.008-.007.006-.011.008-.006,0-.014.01-.006.005-.013.01-.006,0-.013.009-.006,0-.011.008-.007.006-.011.009-.007,0-.012.009-.008.006-.012.01-.007.005-.009.007-.01.008L41.1,21.8l-.008.007-.011.008-.007.006-.012.009-.007.006-.011.008-.009.007-.008.006-.011.009-.008.006L41,21.877l-.011.008-.007.006-.012.009-.008.007-.007.005-.012.009-.007.006-.012.009-.008.006-.008.007-.011.008-.008.007-.01.008-.009.007-.008.006-.012.009L40.847,22l-.012.009-.007.006-.009.007-.01.008-.009.007-.006,0-.013.01-.006,0-.014.011-.005,0-.015.012-.005,0-.009.007-.005,0-.014.012-.005,0-.015.012,0,0-.017.013,0,0-.029.024,0,0-.017.014,0,0L40.6,22.2l0,0-.018.014,0,0-.009.008h0l-.018.015h0l-.018.015,0,0-.019.015h0l-.05.041h0l-.018.016h0l-.07.057h0l-.019.016h0q-.774.633-1.51,1.31l1.353,1.473a33.194,33.194,0,0,1,4.473-3.455l-1.083-1.682Zm-7.528,6.531-.005,0-.007.008-.008.01-.007.008-.007.008L36,26.636l-.007.007-.007.008-.009.011-.006.007-.01.011-.006.007-.01.012-.005.007-.008.008-.006.008-.01.011,0,.005-.012.014-.005,0-.011.014,0,0-.013.015,0,0-.008.01v0l-.015.017,0,0-.013.016,0,0-.015.017h0l-.025.03,0,0-.014.017,0,0-.014.017,0,0-.041.049,0,0L35.686,27h0l-.058.07h0l-.016.019h0c-.04.047-.079.094-.118.142h0q-.819.993-1.565,2.045h0l-.068.1h0l-.015.021h0l-.037.053v0l-.014.02h0l-.014.02h0l-.037.053v0l-.013.019,0,0-.014.02h0l-.022.032,0,0-.012.018,0,0-.012.018,0,0-.022.032h0l-.014.019,0,0-.012.017,0,0-.012.017,0,0-.021.031,0,0-.011.017,0,.005-.011.016,0,0-.014.02h0l-.007.01,0,0L33.5,29.9l0,.005-.01.015,0,.006-.01.014,0,.006-.006.01-.005.007-.009.013,0,.007-.01.014,0,.006-.01.015,0,.006-.01.015,0,.005-.007.01-.005.007-.009.013,0,.006-.009.015,0,.006-.009.014,0,.006-.007.011-.007.01-.006.01,0,0-.01.016,0,0-.009.015L33.3,30.2l-.009.013-.005.008-.006.009-.007.011-.006.01,0,.007-.009.013,0,.008-.007.012-.006.008-.006.009-.007.011-.006.009-.006.009-.008.012-.005.007-.008.013-.005.008-.008.012-.006.009,0,.008-.008.012-.006.009-.005.009-.008.011-.005.009-.008.011-.005.009-.007.01-.007.011,0,.008-.008.011-.006.01-.005.008-.008.012-.005.008-.007.011-.007.01-.005.008-.008.013-.005.008-.007.01-.006.01-.006.01-.007.01-.006.01L33,30.657l-.008.013-.006.008-.008.013-.005.008-.006.009-.007.011-.006.01-.006.01-.007.01-.005.008-.008.013-.005.008-.006.01-.007.011-.006.008-.007.012-.005.009-.007.009-.007.012,0,.007-.008.013-.005.008-.006.01-.007.011-.006.01-.006.009-.007.011,0,.007-.009.014,0,.007-.009.014,0,.007-.007.011L32.785,31l-.006.01-.005.008-.008.013,0,.007-.008.014,0,.007-.006.011-.007.01-.006.01-.006.01-.006.01,0,.008-.008.013,0,.008-.008.013-.005.007-.007.012-.005.009-.006.01-.006.009-.007.012,0,.007-.008.013,0,.008-.007.012-.005.009-.006.01-.007.011-.006.009,0,.008-.008.013,0,.008-.009.013,0,.008-.007.011-.006.009-.006.01-.006.01-.006.011,0,.008-.008.013-.005.008-.006.011,0,.005,1.712,1.034A33.2,33.2,0,0,1,37.554,27.9l-1.511-1.31ZM30.65,34.968l0,.006v0l-.006.011h0L30.636,35h0l-.006.012v0l0,.009,0,0,0,.008,0,.005,0,.006,0,.005,0,.007,0,.005,0,.005,0,.006v0l-.012.027,0,0,0,.008,0,0,0,.008,0,0,0,.008,0,0,0,.008v0l-.018.041h0l0,.01h0l0,.01h0l0,.009v0a34.758,34.758,0,0,0-1.842,5.183h0l0,.011h0l0,.011h0l-.012.043v0l0,.009v0l0,.01v0l0,.009v0l0,.009v0l-.011.04v0l0,.008v.005l0,.007v0l0,.007,0,.006v.006h0l1.935.507a32.826,32.826,0,0,1,1.9-5.32l-1.819-.831Zm-2.8,9.564c-.023.161-.045.321-.065.483h0l0,.04v0l0,.037v.02l0,.024h0v.033l0,.016v.036l0,.012v.024l0,.016v0l0,.013V45.3l0,.013v0l0,.017v0l0,.014v0l0,.035v.02h0l0,.019h0l0,.017v0l0,.036h0l-.007.057h0q-.147,1.305-.2,2.638h0l0,.058h0v.038h0l0,.058h0v.038h0l0,.039h0v.019h0v.078h0v.019h0v.156h0v.019h0v.1h0v.038h0v.2h0V49.3h0v.1h0v.1h0v.368h0V49.9h0v.224h0l.009.4,2-.057c-.009-.319-.014-.638-.014-.959a33.426,33.426,0,0,1,.33-4.687l-1.98-.281Zm1.984,9.684-1.98.283a34.967,34.967,0,0,0,.739,3.715h0l.017.067h0l0,.01h0l0,.01v0l.014.054v0l0,.009v0l0,.009v0l0,.009v0l.011.042v0l0,.009v0l0,.008v0l0,.008v0l0,.008v0l.007.026v.005l0,.007,0,.005v.007l0,.006v.006l0,.006,0,.006,0,.007v.005l0,.009,0,.006,0,.009,0,.005,0,.007v.006l0,.007v.005l0,.007,0,0,0,.008v.005l0,.007,0,.005,0,.012v0l0,.009v0l0,.009v0l0,.008v0l0,.01v0l0,.012h0l.006.025v0l0,.01v0l0,.01v0l0,.01v0l.01.039h0l0,.012v0l0,.01v0l0,.011h0l.018.065h0l0,.013h0l0,.013h0l.015.052h0q.186.659.4,1.307l1.9-.619a32.958,32.958,0,0,1-1.278-5.5Zm2.648,9.012-1.819.833q.376.819.792,1.616h0l0,.01h0l.005.01h0l.005.01h0l.021.039v0l0,.008v0l.005.009v0l0,.008,0,0,0,.008,0,0,0,.008v0l.019.036,0,0,0,.007,0,0,0,.007,0,0,0,.005,0,.006,0,.006,0,0,0,0,0,.006,0,0,.011.022,0,0,0,.009,0,0,0,.008,0,0,0,.008,0,0,0,.007,0,0,.005.008v0l0,.01h0l.018.034h0l.005.011v0l.006.009v0l.006.01h0l.037.069h0l.006.011h0q.489.9,1.028,1.77h0l.048.078h0l.006.009v0l.006.008v0l.006.009v0l.006.01h0l0,.009,0,0,.013.022,0,0,.005.007,0,0,0,.005,0,0,0,.007,0,0,0,.006,0,.005,0,0,0,.005,0,0,.015.024,0,0,0,.008,0,0,.005.008,0,0,.005.009h0l.005.009h0q.344.543.707,1.072l1.649-1.132a32.944,32.944,0,0,1-2.785-4.915Zm5.091,7.9-1.51,1.312q.677.778,1.4,1.516h0l.049.049h0l.016.016v0l.016.015v0l.015.015h0l.016.016h0l.015.015,0,0,.015.015,0,0,.015.014,0,0,.015.015h0l.014.014,0,0,.014.015,0,0,.014.014,0,0,.014.013,0,0,.013.014,0,0,.013.013,0,0,.014.013,0,0,.014.013,0,0,.014.013,0,0,.012.012,0,0,.013.013,0,0,.012.013,0,0,.012.012.005.005.012.012.005.005.011.01,0,0,.013.012,0,0,.012.012.006,0,.012.012.005.005.01.01.007.006.01.01,0,.005.012.012.005.006L38,74.5l.006,0,.011.012.006.005.009.01.007.006.01.01.006.006.011.011.007.006.011.011.006.006.009.009.009.008.007.007.01.009.008.008.007.007.01.011.007.006.01.01.008.007.008.008.009.008.008.009.007.006.011.01.006.007.011.01.007.007.009.008.008.009.008.007.009.008.009.009.006.006.011.011.007.006.011.01.007.007.008.008.008.008.009.009.008.007.01.009.006.006.011.011.007.006.011.01.007.007.008.008.009.008.008.008.008.007.01.01.006.006.012.01.006.007.01.009.008.007.008.008.009.008.008.008.007.007.011.01.007.006.011.011.007.006.01.01.007.006.009.008.008.008.009.009.007.006.011.011.007.006.011.011.006.005.009.009.009.008.009.008.006.005.012.011.006.006.012.011.005,0,.013.012.005,0,.01.01.006,0,.011.011.005.005.013.012.005,0,.013.012,0,0,.013.012,0,0,.012.011,0,0,.013.012.005,0,.013.012,0,0,.013.013,0,0,.013.012,0,0,.013.012,0,0,.014.012,0,0,.014.013,0,0,.015.013,0,0,.014.012,0,0,.015.014,0,0,.015.014,0,0,.015.014,0,0,.016.014h0l.016.015h0l.016.014,0,0,.015.014h0l.016.015h0l.033.03h0l.016.014,0,0,.016.015h0q.568.507,1.158.99l1.266-1.549a33.305,33.305,0,0,1-4.056-3.937Zm7.106,6.153L43.6,78.962a34.814,34.814,0,0,0,5.3,2.8l.778-1.842a33.059,33.059,0,0,1-5-2.637Zm8.546,3.9-.561,1.92a34.69,34.69,0,0,0,4.094.932h0l.011,0h0l.011,0h0l.045.008h.051l.028,0h.067l.012,0h.063l.013,0h0l.012,0h0l.01,0h.03l.039.006h0l.011,0h0l.01,0h0l.011,0h0l.08.012h0q.627.095,1.26.165l.224-1.987a32.907,32.907,0,0,1-5.538-1.112Zm14.937.838a33.394,33.394,0,0,1-5.632.483l0,2h.5q1.629-.024,3.219-.195h0l.069-.007h.013l.011,0h0l.044,0h.026l.043,0H66.5l.029,0h.118l.027,0H66.7l.011,0h.015l.013,0h0l.012,0h.015l.012,0h0q.869-.106,1.722-.254l-.34-1.97Zm8.93-2.91a32.83,32.83,0,0,1-5.26,2.056l.564,1.918a34.474,34.474,0,0,0,3.414-1.2h0l.075-.031h0l.009,0h0l.009,0h0l.009,0h0l.039-.016,0,0,.008,0h0l.008,0,0,0,.007,0,.005,0,.006,0,.005,0,.007,0h0l.025-.011,0,0,.007,0,0,0,.006,0,0,0,.007,0,0,0,.006,0,.005,0,.007,0,.005,0,.006,0,.006,0,.011,0,.006,0,0,0,.006,0,.006,0,.006,0,.005,0,.006,0,.006,0,.007,0,0,0,.009,0h0l.023-.01h0l.009,0h0l.009,0h0l.009,0h0l.01,0h0l.048-.021h0l.012,0h0l.012-.005h0q.83-.357,1.634-.755l-.886-1.793Zm7.748-5.319a33.124,33.124,0,0,1-4.469,3.459l1.084,1.681q1.126-.728,2.19-1.535h0l.167-.128h0l.018-.015h0l.055-.042h0l.017-.014h0l.073-.057h0L84,77.121h0l.054-.043h0l.018-.014h0l.092-.072h0l.073-.058h0l.091-.073h0l.163-.132h0q.875-.706,1.7-1.468L84.84,73.788Zm5.946-7.28a33.276,33.276,0,0,1-3.32,4.573l1.512,1.309c.248-.286.49-.576.729-.87h0l.056-.071h0l.015-.019h0l.04-.051h0l.015-.019,0,0,.015-.02h0l.024-.031h0l.015-.019,0,0,.013-.017,0,0,.039-.049,0,0,.012-.015,0,0,.011-.015,0-.005L90,71.156l0-.007.007-.008,0-.007.01-.013,0-.006.01-.013,0-.006.01-.013,0-.007.007-.008.009-.011.006-.008.006-.008.009-.012.006-.007.009-.012L90.118,71,90.124,71l.009-.012.006-.008.008-.009.007-.01.006-.008.009-.011.006-.008.007-.009.008-.01L90.2,70.9l.009-.012.006-.007.008-.011.006-.008.008-.01.006-.008.009-.011,0-.006.01-.013,0-.006.01-.013,0-.007.009-.012,0-.006.009-.011,0-.006.01-.013,0-.006.01-.013,0-.006.01-.014,0-.005.009-.012,0-.007.009-.011,0-.006.01-.013,0-.007.01-.013,0,0,.011-.015,0,0,.01-.013,0,0,.011-.014,0,0,.011-.015,0,0,.011-.015,0,0,.011-.015,0,0L90.5,70.5l0,0,.011-.015,0,0,.012-.015,0,0,.012-.016,0,0,.012-.016v0l.012-.016,0,0,.011-.016,0,0,.012-.015,0,0,.012-.017,0,0,.011-.015,0,0,.012-.016,0,0,.012-.016,0,0,.012-.017v0l.013-.017h0l.013-.018,0,0,.012-.017,0,0,.012-.017,0,0,.013-.017h0l.013-.018h0l.013-.018h0l.013-.018v0L90.8,70.1h0l.027-.037h0l.013-.017v0l.013-.018h0l.04-.056h0l.013-.018h0q.843-1.168,1.591-2.408l-1.713-1.032Zm3.648-8.655a32.757,32.757,0,0,1-1.891,5.321l1.82.83q.294-.645.562-1.3h0l.025-.062v0l0-.008v0l0-.008,0,0,0-.008v0l0-.008v0l.012-.028v0l0-.007,0,0,0-.007,0,0,0-.008,0,0,0-.007,0,0,0-.006,0-.007v-.005l0-.011,0,0,0-.008v0l0-.008,0,0,0-.007,0-.005,0-.007,0-.005,0-.007v0l0-.01v0l0-.012h0l0-.012,0,0,0-.009v0l0-.009v0l0-.009v0l0-.009,0,0,.014-.037h0l.005-.012h0l0-.011h0l0-.011v0l.029-.073h0a34.693,34.693,0,0,0,1.1-3.3h0l0-.012v0l.014-.051h0l0-.012h0l0-.011v0l0-.012h0l.01-.039h0l0-.012v0l0-.01v0l0-.01v0l0-.009v0l0-.01v0l0-.012v0l0-.011v0l0-.008,0,0,0-.008v0l0-.008v-.005l0-.007,0-.005,0-.008v0l0-.012V58.57l0-.008,0-.006,0-.006v-.006l0-.007v0l0-.007,0-.005,0-.007v-.006l0-.006v-.006l0-.006,0-.014v0l0-.008v0l0-.007v-.005l0-.008v0l0-.008v0l0-.008v0l.008-.03v0l0-.009v0l0-.008v0l-1.936-.5Zm3.051-9.4-2,.058c.01.329.015.658.015.989a33.478,33.478,0,0,1-.326,4.658l1.98.279,0-.027v0l.005-.038v0l0-.012v0l0-.035v-.005l0-.011v-.005l0-.018v-.032l0-.014v-.025l0-.009v-.009l0-.013v-.007l0-.01v-.02l0-.009V54.1l0-.016v-.022l0-.035v0l0-.015v0l0-.018v0l0-.016v0l0-.035v0l0-.016v0l.005-.036v0l0-.037h0l0-.018h0l0-.037h0q.173-1.425.231-2.885h0l0-.058h0l0-.038h0v-.038h0v-.018h0v-.058h0V50.6h0v-.018h0v-.155h0V50.4h0v-.1h0v-.039h0v-.059h0v-.2h0v-.059h0v-.1h0v-.1h0V49.6h0v-.1h0v-.885l0-.162ZM95.78,38.634l-1.9.62a32.949,32.949,0,0,1,1.283,5.5l1.979-.284c-.018-.125-.036-.25-.056-.375v0l0-.01v0l0-.01h0l-.007-.045h0v-.049l0-.03v-.061l0-.012v-.043l0-.009v0l0-.011v0l-.005-.026h0l0-.012v0l0-.011v0l0-.01v0a34.717,34.717,0,0,0-1.248-5.1ZM91.365,29.7l-1.649,1.133a33.092,33.092,0,0,1,2.79,4.913l1.818-.834A34.957,34.957,0,0,0,91.365,29.7Zm-6.753-7.33-1.264,1.549a33.3,33.3,0,0,1,4.059,3.933l1.509-1.312a35.186,35.186,0,0,0-4.3-4.17Zm-8.538-5.14L75.3,19.073a32.877,32.877,0,0,1,5,2.632l1.08-1.684-.145-.092h0l-.043-.028,0,0-.008-.005h0l-.008,0,0,0-.008,0,0,0-.008,0,0,0-.009-.006h0l-.011-.007h0l-.01-.006,0,0-.007-.005,0,0-.005,0-.006,0,0,0-.005,0,0,0-.006,0,0,0-.007,0h0L81,19.785h0l-.009-.006h0l-.009-.006h0l-.078-.048h0q-1.25-.776-2.568-1.445h0l-.072-.037h0l-.009,0h0l-.009,0h0l-.009,0h0l-.009,0h0l-.029-.015h0l-.007,0,0,0-.007,0,0,0-.007,0,0,0-.007,0-.005,0,0,0-.007,0,0,0-.008,0,0,0-.011,0,0,0-.006,0-.005,0-.006,0-.005,0-.007,0,0,0-.007,0,0,0-.007,0,0,0-.008,0h0l-.023-.011,0,0-.01,0h0l-.009,0h0l-.009,0h0l-.009,0,0,0-.011-.005h0l-.059-.029h0l-.011-.006h0l-.012-.006h0q-.882-.432-1.791-.815ZM66.43,14.718l-.222,1.988a32.945,32.945,0,0,1,5.539,1.106l.559-1.92q-.238-.069-.479-.135h0l-.009,0h0l-.009,0h0l-.01,0h0l-.029-.008h0l-.007,0,0,0-.007,0h-.006l-.006,0h-.006l-.006,0-.007,0h0l-.012,0h0l-.01,0h0l-.008,0h0l-.008,0h0l-.01,0h0a34.943,34.943,0,0,0-3.456-.746h0l-.012,0h0l-.012,0h0l-.04-.006h0l-.012,0h0l-.011,0H68.06l-.013,0h0l-.01,0h-.064l-.011,0h-.018l-.008,0h0l-.008,0h0l-.009,0h0l-.045-.007h0l-.011,0h-.012q-.7-.107-1.408-.186Z"/><path class="c" d="M63,22A28,28,0,1,1,35,50,28.032,28.032,0,0,1,63,22m0-2A30,30,0,1,0,93,50,30,30,0,0,0,63,20Z"/><path class="d" d="M63,37A13,13,0,1,1,50,50,13.015,13.015,0,0,1,63,37m0-2A15,15,0,1,0,78,50,15,15,0,0,0,63,35Z"/><circle class="e" cx="5" cy="5" r="5" transform="translate(58 45)"/><rect class="f" width="50" height="2" transform="translate(63 49)"/><rect class="g" width="40" height="2" transform="translate(138 49)"/><path class="h" d="M125.5,39.5A10.5,10.5,0,1,1,115,50a10.512,10.512,0,0,1,10.5-10.5m0-2A12.5,12.5,0,1,0,138,50a12.5,12.5,0,0,0-12.5-12.5Z"/><circle class="i" cx="5" cy="5" r="5" transform="translate(173 45)"/><path class="j" d="M178,17a25.5,25.5,0,1,1-25.5,25.5A25.529,25.529,0,0,1,178,17m0-2a27.5,27.5,0,1,0,27.5,27.5A27.5,27.5,0,0,0,178,15Z"/><rect class="k" width="20" height="2" transform="translate(168 74)"/><rect class="k" width="20" height="2" transform="translate(168 79)"/><rect class="i" width="10" height="2" transform="translate(173 84)"/></svg>