<svg xmlns="http://www.w3.org/2000/svg" xmlns:xlink="http://www.w3.org/1999/xlink" width="236" height="100" viewBox="0 0 236 100"><defs><style>.a{fill:#fff;opacity:0;}.b{fill:url(#a);}.c{fill:url(#b);}.d{fill:url(#c);}.e{fill:url(#d);}.f{fill:url(#e);}.g{fill:url(#f);}.h{fill:url(#i);}.i{fill:url(#j);}.j{fill:url(#k);}.k{fill:url(#l);}.l{fill:url(#m);}</style><linearGradient id="a" x1="0.006" y1="0.5" x2="2.594" y2="0.5" gradientUnits="objectBoundingBox"><stop offset="0" stop-color="red"/><stop offset="1" stop-color="#00daff"/></linearGradient><linearGradient id="b" x1="-10.92" x2="25.322" xlink:href="#a"/><linearGradient id="c" x1="-1.637" x2="0.952" xlink:href="#a"/><linearGradient id="d" x1="-8.96" x2="9.161" xlink:href="#a"/><linearGradient id="e" x1="-0.069" x2="1.226" xlink:href="#a"/><linearGradient id="f" x1="-0.192" x2="3.432" xlink:href="#a"/><linearGradient id="i" x1="-8.92" x2="27.322" xlink:href="#a"/><linearGradient id="j" x1="-4.407" x2="0.995" xlink:href="#a"/><linearGradient id="k" x1="-4.274" x2="0.903" xlink:href="#a"/><linearGradient id="l" x1="-74.3" x2="16.304" xlink:href="#a"/><linearGradient id="m" x1="-3.737" x2="1.666" xlink:href="#a"/></defs><rect class="a" width="236" height="100"/><path class="b" d="M95,17V83H29V17H95m2-2H27V85H97V15Z"/><circle class="c" cx="2.5" cy="2.5" r="2.5" transform="translate(82 70)"/><path class="d" d="M177,17a33,33,0,1,1-33,33,33.038,33.038,0,0,1,33-33m0-2a35,35,0,1,0,35,35,35,35,0,0,0-35-35Z"/><circle class="e" cx="5" cy="5" r="5" transform="translate(117 45)"/><rect class="f" width="140" height="2" transform="translate(37 49)"/><rect class="g" width="50" height="2" transform="translate(37 39)"/><rect class="g" width="50" height="2" transform="translate(37 29)"/><rect class="g" width="50" height="2" transform="translate(37 59)"/><circle class="h" cx="2.5" cy="2.5" r="2.5" transform="translate(72 70)"/><rect class="i" width="33.541" height="2" transform="translate(176.553 49.105) rotate(-26.565)"/><rect class="j" width="35" height="2" transform="translate(177 49)"/><rect class="k" width="2" height="35" transform="translate(176 15)"/><rect class="l" width="33.541" height="2" transform="translate(161.105 79.553) rotate(-63.435)"/></svg>