<svg xmlns="http://www.w3.org/2000/svg" xmlns:xlink="http://www.w3.org/1999/xlink" width="236" height="100" viewBox="0 0 236 100"><defs><style>.a{fill:#fff;opacity:0;}.b{fill:url(#a);}.c{fill:url(#b);}.d{fill:url(#c);}.e{fill:url(#d);}.f{fill:url(#e);}.g{fill:url(#f);}.h{fill:url(#g);}.i{fill:url(#h);}.j{fill:url(#j);}.k{fill:url(#l);}.l{fill:url(#m);}.m{fill:url(#n);}.n{fill:url(#o);}.o{fill:url(#p);}</style><linearGradient id="a" x1="0.013" y1="0.5" x2="1.894" y2="0.5" gradientUnits="objectBoundingBox"><stop offset="0" stop-color="red"/><stop offset="1" stop-color="#00daff"/></linearGradient><linearGradient id="b" x1="-0.718" x2="3.985" xlink:href="#a"/><linearGradient id="c" x1="-17.742" x2="19.877" xlink:href="#a"/><linearGradient id="d" x1="-15.742" x2="21.877" xlink:href="#a"/><linearGradient id="e" x1="-0.718" x2="3.989" xlink:href="#a"/><linearGradient id="f" x1="-1.124" x2="5.146" xlink:href="#a"/><linearGradient id="g" x1="-4.371" x2="14.439" xlink:href="#a"/><linearGradient id="h" x1="-2.06" x2="0.974" xlink:href="#a"/><linearGradient id="j" x1="-3.343" x2="1.36" xlink:href="#a"/><linearGradient id="l" x1="-35.742" x2="1.877" xlink:href="#a"/><linearGradient id="m" x1="-0.443" x2="1.267" xlink:href="#a"/><linearGradient id="n" x1="-15.371" x2="3.439" xlink:href="#a"/><linearGradient id="o" x1="-4.79" x2="1.48" xlink:href="#a"/><linearGradient id="p" x1="-78.854" x2="15.193" xlink:href="#a"/></defs><rect class="a" width="236" height="100"/><path class="b" d="M120,17V78H24V17h96m2-2H22V80H122V15Z"/><rect class="c" width="40" height="2" transform="translate(52 84)"/><circle class="d" cx="2.5" cy="2.5" r="2.5" transform="translate(112 20)"/><circle class="e" cx="2.5" cy="2.5" r="2.5" transform="translate(102 20)"/><path class="f" d="M72,30h-.688c-.637.021-1.267.073-1.888.152h0l-.011,0H69.4l-.011,0h-.117l-.007,0h-.033l-.02,0H69.2l-.014,0h0l-.022,0h0l-.153.022.3,1.978A18.179,18.179,0,0,1,72,32V30Zm-5.911.888q-.351.108-.694.228h0l-.022.007h0l-.022.008h0l-.021.008h0l-.022.008h0l-.022.007h0l-.01,0h0l-.011,0h0l-.01,0h0l-.021.007h0l-.021.007h0l-.021.007h0l-.021.007h0l-.011,0h0l-.01,0h0l-.011,0h0l-.01,0h0l-.011,0h0l-.01,0h0l-.01,0h0l-.01,0h0l-.01,0h0l-.02.008h0l-.01,0h0l-.01,0h0l-.01,0h0l-.009,0h0l-.01,0h0l-.009,0h0l-.009,0h0l-.009,0h0l-.01,0h0l-.009,0h0l-.01,0h0l-.009,0h0l-.01,0h0l-.009,0h0l-.01,0h0l-.01,0h0l-.009,0h0l-.009,0h0l-.008,0h0l-.009,0h0l-.008,0h0l-.009,0h0l-.008,0h0l-.009,0h0l-.008,0h0l-.009,0h0l-.008,0h0l-.01,0h0l-.01,0h0l-.009,0h0l-.009,0h0l-.008,0h0l-.009,0h0l-.008,0h0l-.01,0h0l-.008,0h0l-.009,0h0l-.007,0h0l-.009,0h0l-.008,0h0l-.009,0h0l-.009,0h0l-.009,0h0l-.009,0h0l-.009,0h0l-.009,0h0l-.008,0h0l-.009,0h0l-.008,0h0l-.009,0h0l-.008,0h0l-.009,0h0l-.008,0h0l-.01,0h0l-.019.008h0l-.01,0h0l-.01,0h0l-.01,0h0l-.01,0h0l-.01,0h0l-.009,0h0l-.01,0h0l-.009,0h0l-.01,0h0l-.008,0h0l-.01,0h0l-.01,0h0l-.01,0h0l-.02.008h0l-.01,0h0l-.01,0h0l-.01,0h0l-.01.005h0l-.021.009h0l-.01,0h0l-.02.008h0l-.02.008h0l-.02.009h0l-.02.009h0l-.021.009h0l-.02.008h0l-.01,0h0l-.01,0h0l-.011,0h0l-.021.009h0l-.02.009h0l-.021.009h0l-.02.009h0l-.021.009h0c-.21.092-.418.189-.624.288l.871,1.8a17.867,17.867,0,0,1,2.508-.988l-.59-1.911Zm-5.381,2.6a19.937,19.937,0,0,0-2.339,1.874l1.363,1.463a18.274,18.274,0,0,1,2.106-1.688l-1.13-1.649Zm-4.374,4.075q-.2.256-.4.519h0l-.014.018h0l-.007.009h0l-.007.008h0l-.007.009h0l-.007.008h0l-.006.008,0,0,0,.008h0l0,.008v0l-.006.008h0l-.005.007,0,0-.006.007,0,0,0,.006,0,0-.006.008v0l-.005.006v0l-.006.007,0,0-.005.006,0,0-.005.006,0,0,0,.008,0,0,0,.005,0,0-.006.007,0,0,0,0,0,0-.005.007,0,0,0,0,0,.007,0,0,0,0,0,0-.005.006,0,0,0,0,0,0-.005.007,0,0-.011.016,0,0-.007.009v0l0,0v0l-.007.01h0l0,.006h0l-.007.01,0,0-.012.017h0l-.012.018h0q-.542.768-1.013,1.586l1.733,1A18.188,18.188,0,0,1,57.9,38.81l-1.566-1.244Zm-2.979,5.182q-.294.756-.527,1.54h0l-.006.022h0l-.006.021h0l0,.014h0l0,.007v0l0,.012v.011l0,.01v0l0,.006v0l0,.008,0,.005v0l0,.005,0,.007v.006l0,0,0,.008v0l0,.007v0l0,.009v0l0,.007v0l0,.01v0l0,.008v0l0,.01h0l0,.01h0l0,.01h0l0,.011h0l0,.011h0q-.146.519-.265,1.051l1.952.436a17.95,17.95,0,0,1,.785-2.578l-1.864-.726ZM52.05,48.581q-.041.565-.048,1.14h0v.033h0v.032h0V49.8h0v.111h0v.033h0V50h0v.025h0v.085h0v.025h0v.049h0v.049h0v.011h0v.012h0v.011h0v.061h0v.024h0v.012h0v.012h0V50.4h0v.024h0v.024h0c.008.38.027.758.056,1.132l1.994-.156C54.019,50.953,54,50.474,54,50c0-.426.015-.856.045-1.279l-1.995-.14Zm2.416,5.508-1.948.452.012.051h0l.005.022h0l.005.022v0l0,.013h0l0,.007h0l0,.013v.01l0,.012v0l0,.006v0l0,.011v.013l0,.01v0l0,.005,0,.008v.015l0,.008v0l0,.006V54.8l0,.008v.014l0,.009v0l0,.006v0l0,.008v0l0,.006v.005l0,.008v0l0,.008V54.9l0,.008v0l0,.007v0l0,.009v0l0,.008v0l0,.01v0l0,.008v0l0,.009v0l0,.008v0l0,.009v0l0,.008v0l0,.01v0l0,.009v0l0,.01v0l0,.009v0l0,.01v0l0,.009h0l0,.01v0l0,.009h0l0,.01v0l0,.01h0l0,.009v0l0,.01h0l0,.009v0l0,.01h0l0,.009v0l0,.009v0l0,.009v0l0,.01v0l0,.008v0l0,.01v0l0,.008v0l0,.01v0l0,.007v0l0,.009v0l0,.007v0l0,.009v0l0,.008v0l0,.009v0l0,.008v0l0,.008v0l0,.008v0l0,.007v0l0,.009v0l0,.007v0l0,.009v0l0,.006v0l0,.009v0l0,.006v0l0,.008,0,.005v.009l0,.009v0l0,.006v0l0,.008v0l0,.005v0l0,.009v.009l0,.007,0,.006,0,.005v0l0,.008v0l0,.005v.005l0,.008v.01l0,0,0,.009v0l0,.007v0l0,.011v0l0,.007h0l0,.013v0l.006.02v0l.006.02v0l.006.021h0l.006.021h0l.006.021h0c.167.556.358,1.1.571,1.637l1.858-.74a17.916,17.916,0,0,1-.806-2.572Zm1.99,4.994L54.73,60.094c.055.093.109.184.165.276h0l.03.051h0l.011.018h0l.011.018v0l.006.01,0,0,0,.005v0l.006.01h0l0,.006v0l.006.009,0,0,0,.005,0,.007,0,0,0,0,.005.008,0,0,0,.005,0,0,0,.007,0,0,0,.005,0,0,0,.007,0,0,0,0,0,.006,0,0,0,.005,0,0,0,.007,0,0,0,.005,0,0,0,.007,0,0,0,.005,0,0,0,.006,0,0,0,.006,0,0,0,.006,0,0,.005.008,0,0,0,.005,0,0,.005.007,0,0,0,.005,0,0,.005.008,0,0,0,.006,0,0,0,.006,0,0,0,.007v0l0,.006,0,0,.005.008,0,0,0,.007v0l.006.009v0l.005.007v0l.005.008,0,0,.005.007v0l.005.008v0l.006.008v0l0,.007,0,0,0,.008,0,0,0,.007,0,0,0,.008,0,0,0,.006,0,0,0,.008,0,0,.005.007,0,0,0,.007,0,0,.005.008,0,0,0,.007,0,0,.005.008v0l.005.007v0l.006.008v0l0,.008h0l0,.008,0,0,.006.009h0l.005.007,0,0,.005.008v0l.005.007,0,0,.005.008,0,0,0,.006,0,0,.005.008v0l.005.007v0l.006.008v0l.006.009h0l.005.007v0l.006.009v0l.005.007v0l0,.008,0,0,0,.007v0l0,.008,0,0,0,.008h0l.005.009,0,0,.006.008h0l.006.008v0l.006.008v0l.005.007v0l.006.009h0l.005.008h0l.006.009v0l.005.008h0l.006.008v0l.006.008v0l.005.007v0l.006.008v0l.005.006,0,0,.005.007,0,0,0,.006,0,0,0,.007,0,0,0,.007v0l0,.006,0,0,0,.008,0,0,0,.005,0,0,.005.007,0,0,0,.006,0,0,.006.008,0,0,0,.006,0,0,.005.007,0,0,0,.006,0,0,0,.006,0,0,.005.007,0,0,0,.005,0,0,.006.007,0,0,0,.005,0,0,.005.007,0,0,0,.005,0,0,0,.006,0,0,0,0,0,.005,0,.005,0,0,.005.007,0,0,0,0,0,0,.005.008,0,0,0,.005,0,0,0,.007,0,0,0,.005,0,0,0,.006,0,0,.005.007,0,0,0,.005,0,0,.005.007,0,0,0,.005,0,0,0,.007,0,0,0,0,0,.005,0,.006,0,0,0,0,0,.006,0,0,0,0,0,.005,0,.005,0,0,0,0,0,.007,0,0,0,0,0,0,0,.007,0,0,0,0,0,0,0,.006,0,0,0,0,0,.006,0,.005,0,0,0,.006,0,0,0,.005,0,0,0,.007,0,0,0,0,0,0,0,.007,0,0,0,0,.005.006,0,0,0,0,0,0,.005.007,0,0,0,0,0,0,.005.007,0,0,0,0,.005.007,0,0,0,0,0,0,0,.005,0,.005,0,0,.005.007,0,0,0,0,0,0,0,.006,0,0,0,.005,0,0,0,.006,0,0,0,0,0,.006,0,0,0,.005,0,0,0,.006,0,0,0,0,.006.007,0,0,0,.005,0,0L56,62l0,0,0,0,0,.006,0,0,0,0,0,0,0,.007,0,0,0,0,0,.005,0,0,0,0,0,0,0,.006,0,0,0,0,0,0,.005.006,0,0,0,0,0,.006,0,0,0,0,0,0,.005.006,0,0,0,0,0,.006,0,0,0,0,0,0,0,0,0,.005,0,0,.005.006,0,0,0,.005,0,0,.005.007,0,0,0,0,0,0,.005.006,0,0,0,.005,0,0,.005.007,0,0,0,.005,0,0,0,.006,0,0,.005.007,0,0,.005.005,0,0,.005.007,0,0,0,0,0,0,.005.007,0,0,0,.005,0,0,.006.007,0,0,.006.007h0l.005.007,0,0,.006.007,0,0,0,.007v0l.007.008h0l0,.007v0l.007.008v0l.006.007h0l.006.008,0,0,.006.008h0l.007.008v0l.006.008v0l.006.007h0l.007.008v0l.013.017h0l.007.008h0l.007.009h0l.013.017h0l.007.009h0l.007.009h0l.044.055L57.99,61.3a18.144,18.144,0,0,1-1.534-2.22Zm3.382,4.187-1.351,1.474a20.054,20.054,0,0,0,2.1,1.679h0l.011.007,0,0,.017.011,0,0,.005,0,.006.005.005,0,0,0,.008.006,0,0,0,0,0,0,.007,0,0,0,0,0,.005,0,.006,0,0,0,0,0,.007,0,0,0,.005,0,0,0,.007,0,0,0,.006,0,0,0,.007,0,0,0,.008.006h0l.008.006h0l.008.006h0l.007.005h0l.009.006h0l.018.012h0l.019.012h0l.02.013h0l1.117-1.659a18.127,18.127,0,0,1-2.12-1.671ZM64.3,66.276l-.856,1.807q.723.343,1.477.628h0l.019.008h0l.02.008h0l.012.005h0l.006,0h0l.012,0h0l.006,0h0l.008,0,0,0,0,0h0l.007,0,0,0,.005,0,.006,0,.006,0,0,0,0,0,.009,0h0l.006,0,0,0,.009,0h0l.007,0h0l.009,0h0l.007,0h0l.009,0h0l.009,0h0l.009,0h0l.01,0h0l.01,0h0l.01,0h0l.009,0h0l.01,0h0l.009,0h0l.01,0h0l.009,0h0l.01,0h0l.01,0h0l.011,0h0l.021.008h0l.021.008h0q.311.109.624.209h0l.022.007h0l.022.007h0l.022.007h0l.022.007h0l.01,0h0l.009,0h0l.011,0h0l.01,0h0l.01,0h0l.009,0h0l.009,0h0l.009,0h0l.008,0h0l.008,0,0,0,.006,0h0l.008,0,.005,0h0l0,0H66.2l.009,0h0l.019.006h0l0,0,.575-1.916a17.909,17.909,0,0,1-2.516-.967Zm5.149,1.545-.28,1.98a20.146,20.146,0,0,0,2.1.186h.89l-.016-2H72a18.21,18.21,0,0,1-2.55-.179Zm8.009-.663a17.951,17.951,0,0,1-2.623.62l.312,1.976q.429-.069.852-.154h0l.015,0h0l.021,0h.009l.014,0h.009l.014,0h.011l.011,0h0l.006,0h0l.01,0h.01l0,0h.024l.007,0h.009l.009,0h.014l.009,0h.014l.009,0h0l.006,0h0l.009,0h0l.008,0h0l.01,0h0l.008,0h0l.01,0h0l.009,0h0l.01,0h0l.01,0h0l.01,0h0l.021-.005h0l.023,0h0l.023,0h0l.022-.006h0q.824-.186,1.62-.44l-.606-1.906Zm4.822-2.381a18.018,18.018,0,0,1-2.322,1.373l.886,1.793h0l.021-.01h0a20.1,20.1,0,0,0,2.055-1.175h0l.019-.013h0l.018-.012h0l.009-.006h0l.009-.006h0l.009-.006h0L83,66.707h0l.008-.006h0l.008,0h0l.008,0,0,0,.007,0,0,0,.006,0,0,0,.007,0,0,0,.006,0,0,0,.007,0,0,0,0,0,0,0,.007,0,0,0,0,0,.009,0,0,0,.005,0,0,0,.009-.006h0l0,0h0l.01-.007h0l.017-.012h0l.018-.012h0l.236-.162-1.144-1.641Zm3.909-3.7a18.269,18.269,0,0,1-1.816,2l1.375,1.452a20.038,20.038,0,0,0,1.525-1.613h0l.015-.017h0l.014-.016h0l.008-.01h0l0-.005,0,0,.007-.007,0,0,0-.005,0,0,0-.006,0,0,0,0,.006-.006,0,0,0,0,0,0,.006-.007,0,0,0-.006,0,0,0-.007,0,0,.006-.007v0l.006-.006,0,0,.006-.007v0l.006-.006v0l.007-.008h0l.006-.008h0l.007-.008h0l.015-.017h0q.161-.2.316-.393L86.19,61.076Zm2.643-4.685a17.838,17.838,0,0,1-1.145,2.441l1.742.983,0,0h0l.006-.011v0l0-.006h0l.011-.019h0l.007-.013h0A19.951,19.951,0,0,0,90.7,57.1l-1.87-.711Zm1.132-5.257a18.129,18.129,0,0,1-.368,2.673l1.955.42c.011-.05.022-.1.032-.15h0l0-.014h0l0-.007h0l0-.013v-.012l0-.01v-.013l0-.009v-.037l0-.008v-.042l0-.009v-.037l0-.009v-.037l0-.009v-.036l0-.01v0l0-.008v0l0-.01V53.7l0-.009V53.68l0-.009v0l0-.008v0l0-.009v0l0-.008v-.027l0-.009v-.014l0-.008v0l0-.008v0l0-.009v0l0-.009v0l0-.009v0l0-.009v0l0-.007v0l0-.009v0l0-.007v0l0-.009v0l0-.008v0l0-.009v0l0-.007v0l0-.009v0l0-.007v0l0-.009v0l0-.006v0l0-.009v-.014l0-.009v-.106l0-.009v-.066l0-.008v-.015l0-.009v-.013l0-.011v-.012l0-.011v-.035l0-.011v-.012l0-.012v-.011l0-.013h0l0-.007v0l0-.014h0v-.008h0l0-.022h0q.123-.835.177-1.694l-2-.124Zm1.48-5.832L89.5,45.77a18.076,18.076,0,0,1,.432,2.662l1.992-.171-.008-.1h0l0-.023h0l0-.022v0l0-.021v-.01h0v-.268h0v-.023h0v-.022h0l0-.01v-.013h0v-.012l0-.01h0v-.023h0l0-.01v-.013h0v-.024h0v-.013l0-.01h0V47.6h0l0-.01v0l0-.021v0l0-.021v0l0-.021v0l0-.01h0v-.013l0-.021v0l0-.01h0v-.013l0-.01h0v-.012l0-.01h0V47.4l0-.01h0v-.013l0-.009v-.015l0-.009h0v-.071l0-.009V47.18l0-.009V47.11l0-.009v-.032l0-.013h0v-.009l0-.021v0l0-.021v0l0-.02v0l0-.021v0l0-.022h0l0-.023h0l0-.023h0q-.126-.8-.314-1.582Zm-2.257-5.534L87.47,40.792a18.093,18.093,0,0,1,1.2,2.413l1.852-.755-.007-.016v0l-.008-.019v0L90.5,42.4h0l0-.006v0l0-.01v0l0-.006v0l0-.01v0l0-.005v0l0-.008v0l0-.005,0,0,0-.008v0l0-.007,0-.006,0-.005v0l0-.008,0,0,0-.005,0,0,0-.007,0-.005,0-.005,0-.005,0-.006,0-.006v0l0-.008v0l0-.006v0l0-.008v0l0,0v-.005l0-.008,0,0,0-.005,0,0,0-.008,0,0,0-.005,0-.007,0,0,0-.005,0-.005,0-.006,0-.006,0,0,0-.008,0,0,0,0,0,0,0-.008v0l0-.006v0l0-.007,0-.005,0-.006,0,0,0-.008,0,0,0-.006,0-.005,0-.006,0,0,0-.007,0-.005,0-.006v0l0-.009v0l0-.006,0,0,0-.008,0,0,0-.006,0,0,0-.008v0l0-.006,0-.005,0-.006,0,0,0-.006,0-.005,0-.007v0l0-.008,0,0,0-.006,0,0,0-.008,0,0,0-.006,0,0,0-.008v0l0-.006,0,0,0-.008,0,0,0-.006v0l0-.008v0l0-.007,0,0,0-.007,0,0,0-.008v0l0-.006,0,0,0-.008,0,0,0-.006,0,0,0-.008,0,0,0-.005,0,0,0-.008,0,0,0-.005,0-.006,0-.006,0,0,0-.005,0-.007,0,0,0,0,0-.007,0-.005,0,0,0,0,0-.008,0,0,0,0,0,0,0-.008,0,0,0,0,0-.006,0-.006,0-.005,0-.005,0,0,0-.006,0,0,0-.006,0-.006,0,0,0,0,0-.006,0-.006,0,0,0,0,0-.006,0-.007v0l0-.005,0-.007,0,0,0,0,0-.007,0-.005,0-.005,0,0,0-.009,0,0,0-.006,0,0,0-.007,0,0,0-.006,0,0,0-.009,0,0,0-.005v0l-.005-.01v0l0-.008,0,0,0,0v0l0-.008v0l0,0,0,0,0-.008v0l0,0,0,0,0-.008v0l0-.005v0l0-.011v0L90,41.276v0l-.009-.018v0l-.009-.019h0l-.005-.011v0l0-.007h0l-.006-.013h0l-.01-.019h0l-.01-.02h0l-.01-.02h0c-.231-.467-.48-.925-.746-1.37Zm-3.794-4.62-1.339,1.484a18.288,18.288,0,0,1,1.863,1.953l1.546-1.269c-.154-.188-.311-.372-.471-.554h0l-.016-.017h0l-.015-.018h0l-.015-.017h0l-.008-.009h0l-.008-.009h0l-.007-.008h0l-.007-.008h0l-.006-.008,0,0-.007-.007v0l-.006-.006v0l-.007-.008h0l-.006-.007h0l-.006-.007,0,0-.006-.006,0,0-.006-.007,0,0-.007-.007v0l-.005-.006,0,0-.006-.007,0,0-.005-.005,0,0-.006-.007,0,0,0-.006h0l-.007-.007,0,0,0-.006,0,0,0-.005,0,0-.006-.006,0,0,0,0,0,0,0-.007,0,0,0,0,0,0-.005-.005,0,0,0,0-.007-.006,0,0,0-.005,0,0-.006-.007,0,0,0-.005h0l-.009-.01,0,0-.009-.009h0l0,0,0,0-.007-.008h0l0-.005h0l-.009-.01h0l0,0h0l-.009-.01,0,0-.014-.015h0l-.015-.016h0q-.582-.624-1.217-1.195Zm-4.985-3.3-.841,1.814a18.036,18.036,0,0,1,2.354,1.316l1.1-1.668c-.127-.084-.254-.166-.383-.247h0l-.02-.012h0l-.019-.012h0l-.009-.006h0l-.009-.006h0l-.01-.006h0l-.018-.011,0,0L82.544,33h0l-.009,0,0,0-.009,0h0l-.007,0h0l-.008-.005,0,0-.006,0h0l-.007-.005,0,0-.006,0,0,0-.008,0,0,0-.006,0,0,0-.006,0,0,0-.006,0,0,0,0,0,0,0-.007,0,0,0-.005,0,0,0-.007,0,0,0,0,0-.007,0,0,0,0,0,0,0-.007-.005,0,0-.005,0,0,0-.008-.005,0,0-.006,0h0l-.009-.006h0l-.017-.011h0l-.018-.011h0l-.01-.006h0l-.006,0h0l-.011-.007h0l-.006,0h0l-.013-.008h0l-.019-.012h0l-.019-.011h0a19.727,19.727,0,0,0-1.781-.938Zm-5.738-1.672-.265,1.982a17.9,17.9,0,0,1,2.638.557L77.6,30.8a19.839,19.839,0,0,0-2.826-.6h0l-.023,0h0l-.012,0h-.012l-.011,0h-.047Z"/><path class="g" d="M72,37A13,13,0,1,1,59,50,13.015,13.015,0,0,1,72,37m0-2A15,15,0,1,0,87,50,15,15,0,0,0,72,35Z"/><circle class="h" cx="5" cy="5" r="5" transform="translate(67 45)"/><path class="i" d="M213,45h-2V40a9.92,9.92,0,0,0-9.909-9.909h-1.084l-.123-.858a18.066,18.066,0,0,0-35.768,0l-.123.858h-1.084A9.92,9.92,0,0,0,153,40v5h-2V40a11.925,11.925,0,0,1,11.275-11.893,20.067,20.067,0,0,1,39.45,0A11.925,11.925,0,0,1,213,40Z"/><path class="i" d="M213,86H151V50h2V84h58V50h2Z"/><rect class="j" width="40" height="2" transform="translate(157 69)"/><rect class="j" width="40" height="2" transform="translate(157 74)"/><circle class="k" cx="2.5" cy="2.5" r="2.5" transform="translate(202 75)"/><rect class="l" width="110" height="2" transform="translate(72 49)"/><circle class="m" cx="5" cy="5" r="5" transform="translate(177 45)"/><path class="n" d="M182,37a13,13,0,1,1-13,13,13.015,13.015,0,0,1,13-13m0-2a15,15,0,1,0,15,15,15,15,0,0,0-15-15Z"/><rect class="o" width="2" height="5" transform="translate(181 30)"/><path class="m" d="M182,20l-5,10h10Z"/></svg>