<svg xmlns="http://www.w3.org/2000/svg" xmlns:xlink="http://www.w3.org/1999/xlink" width="236" height="100" viewBox="0 0 236 100"><defs><style>.a{fill:#fff;opacity:0;}.b{fill:url(#a);}.c{fill:url(#b);}.d{fill:url(#c);}.e{fill:url(#d);}.f{fill:url(#e);}.g{fill:url(#f);}.h{fill:url(#g);}.i{fill:url(#h);}.j{fill:url(#i);}.k{fill:url(#j);}.l{fill:url(#k);}</style><linearGradient id="a" x1="-0.998" y1="0.5" x2="1.805" y2="0.5" gradientUnits="objectBoundingBox"><stop offset="0" stop-color="red"/><stop offset="1" stop-color="#00daff"/></linearGradient><linearGradient id="b" x1="-6.491" x2="6.591" xlink:href="#a"/><linearGradient id="c" x1="-4.743" x2="5.068" xlink:href="#a"/><linearGradient id="d" x1="-2.777" x2="3.355" xlink:href="#a"/><linearGradient id="e" x1="-2.597" x2="1.327" xlink:href="#a"/><linearGradient id="f" x1="-17.487" x2="2.136" xlink:href="#a"/><linearGradient id="g" x1="-3.997" x2="0.909" xlink:href="#a"/><linearGradient id="h" x1="0.01" x2="3.746" xlink:href="#a"/><linearGradient id="i" x1="-0.331" x2="2.939" xlink:href="#a"/><linearGradient id="j" x1="-1.487" x2="18.136" xlink:href="#a"/><linearGradient id="k" x1="-51.934" x2="46.18" xlink:href="#a"/></defs><rect class="a" width="236" height="100"/><path class="b" d="M122,17A33,33,0,1,1,89,50a33.038,33.038,0,0,1,33-33m0-2a35,35,0,1,0,35,35,35,35,0,0,0-35-35Z"/><path class="c" d="M122,28a5.5,5.5,0,1,1-5.5,5.5A5.506,5.506,0,0,1,122,28m0-2a7.5,7.5,0,1,0,7.5,7.5A7.5,7.5,0,0,0,122,26Z"/><path class="d" d="M132,75H112V50h2V73h16V50h2Z"/><path class="e" d="M138,65h-2V45H108V65h-2V43h32Z"/><rect class="f" width="50" height="2" transform="translate(147 49)"/><circle class="g" cx="5" cy="5" r="5" transform="translate(192 45)"/><path class="h" d="M197,32a18,18,0,1,1-18,18,18.021,18.021,0,0,1,18-18m0-2a20,20,0,1,0,20,20,20,20,0,0,0-20-20Z"/><path class="i" d="M37.268,70.895H16.6V29.1H37.268l.222.147L69.131,50ZM18.4,69.105H36.732L65.869,50,36.732,30.9H18.4Z"/><rect class="j" width="60" height="2" transform="translate(37 49)"/><circle class="k" cx="5" cy="5" r="5" transform="translate(32 45)"/><rect class="l" width="2" height="10" transform="translate(121 10)"/><rect class="l" width="2" height="10" transform="translate(121 80)"/></svg>