<svg xmlns="http://www.w3.org/2000/svg" xmlns:xlink="http://www.w3.org/1999/xlink" width="236" height="100" viewBox="0 0 236 100"><defs><style>.a{fill:#fff;opacity:0;}.b{fill:url(#a);}.c{fill:url(#b);}.d{fill:url(#c);}.e{fill:url(#j);}.f{fill:url(#k);}.g{fill:url(#n);}.h{fill:url(#o);}</style><linearGradient id="a" x1="-0.015" y1="0.5" x2="11.955" y2="0.5" gradientUnits="objectBoundingBox"><stop offset="0" stop-color="red"/><stop offset="1" stop-color="#00daff"/></linearGradient><linearGradient id="b" x1="-1.349" y1="0.5" x2="10.621" y2="0.5" xlink:href="#a"/><linearGradient id="c" x1="-2.682" y1="0.5" x2="9.288" y2="0.5" xlink:href="#a"/><linearGradient id="j" x1="-0.997" y1="0.5" x2="1.451" y2="0.5" xlink:href="#a"/><linearGradient id="k" x1="-3.988" y1="0.5" x2="7.982" y2="0.5" xlink:href="#a"/><linearGradient id="n" x1="-1.238" y1="0.5" x2="0.962" y2="0.5" xlink:href="#a"/><linearGradient id="o" x1="-3.498" y1="0.5" x2="1.562" y2="0.5" xlink:href="#a"/></defs><rect class="a" width="236" height="100"/><path class="b" d="M32.666,22.182v12h-12v-12h12M34.848,20H18.484V36.364H34.848V20Z"/><path class="c" d="M54.484,22.182v12h-12v-12h12M56.666,20H40.3V36.364H56.666V20Z"/><path class="d" d="M76.3,22.182v12h-12v-12h12M78.484,20H62.12V36.364H78.484V20Z"/><path class="b" d="M32.666,44V56h-12V44h12m2.182-2.182H18.484V58.182H34.848V41.818Z"/><path class="c" d="M54.484,44V56h-12V44h12m2.182-2.182H40.3V58.182H56.666V41.818Z"/><path class="d" d="M76.3,44V56h-12V44h12m2.182-2.182H62.12V58.182H78.484V41.818Z"/><path class="b" d="M32.666,65.818v12h-12v-12h12m2.182-2.182H18.484V80H34.848V63.636Z"/><path class="c" d="M54.484,65.818v12h-12v-12h12m2.182-2.182H40.3V80H56.666V63.636Z"/><path class="d" d="M76.3,65.818v12h-12v-12h12m2.182-2.182H62.12V80H78.484V63.636Z"/><path class="e" d="M173,45a5,5,0,0,0-4.9,4H98v2h70.1a5,5,0,1,0,4.9-6Z"/><path class="f" d="M97.666,22.182v12h-12v-12h12M99.848,20H83.484V36.364H99.848V20Z"/><path class="f" d="M97.666,44V56h-12V44h12m2.182-2.182H83.484V58.182H99.848V41.818Z"/><path class="f" d="M97.666,65.818v12h-12v-12h12m2.182-2.182H83.484V80H99.848V63.636Z"/><path class="g" d="M199.613,80H146.387a17.9,17.9,0,0,1-2.866-35.565,30,30,0,0,1,58.958,0A17.9,17.9,0,0,1,199.613,80ZM173,21.935a27.939,27.939,0,0,0-27.692,23.516l-.117.718-.723.087a15.962,15.962,0,0,0,1.919,31.809h53.226a15.962,15.962,0,0,0,1.919-31.809l-.723-.087-.117-.718A27.939,27.939,0,0,0,173,21.935Z"/><path class="h" d="M173,32.581A17.419,17.419,0,1,1,155.581,50,17.439,17.439,0,0,1,173,32.581m0-1.936A19.355,19.355,0,1,0,192.355,50,19.356,19.356,0,0,0,173,30.645Z"/></svg>