<svg xmlns="http://www.w3.org/2000/svg" xmlns:xlink="http://www.w3.org/1999/xlink" width="236" height="100" viewBox="0 0 236 100"><defs><style>.a{fill:#fff;opacity:0;}.b{fill:url(#a);}.c{fill:url(#b);}.d{fill:url(#c);}.e{fill:url(#d);}.f{fill:url(#e);}.g{fill:url(#f);}.h{fill:url(#g);}.i{fill:url(#h);}.j{fill:url(#i);}.k{fill:url(#j);}</style><linearGradient id="a" x1="-0.002" y1="0.5" x2="1.71" y2="0.5" gradientUnits="objectBoundingBox"><stop offset="0" stop-color="red"/><stop offset="1" stop-color="#00daff"/></linearGradient><linearGradient id="b" x1="0.076" x2="1.523" xlink:href="#a"/><linearGradient id="c" x1="-20.035" x2="17.611" xlink:href="#a"/><linearGradient id="d" x1="-18.035" x2="19.611" xlink:href="#a"/><linearGradient id="e" x1="-3.754" x2="0.951" xlink:href="#a"/><linearGradient id="f" x1="-8.009" x2="1.403" xlink:href="#a"/><linearGradient id="g" x1="-5.018" x2="13.805" xlink:href="#a"/><linearGradient id="h" x1="-0.553" x2="1.206" xlink:href="#a"/><linearGradient id="i" x1="-0.879" x2="3.826" xlink:href="#a"/><linearGradient id="j" x1="-16.518" x2="2.305" xlink:href="#a"/></defs><rect class="a" width="236" height="100"/><path class="b" d="M131,12V78H25V12H131m2-2H23V80H133V10Z"/><rect class="c" width="130" height="2" transform="translate(13 84)"/><circle class="d" cx="2.5" cy="2.5" r="2.5" transform="translate(123 15)"/><circle class="e" cx="2.5" cy="2.5" r="2.5" transform="translate(113 15)"/><path class="f" d="M211,22V83H175V22h36m2-2H173V85h40V20Z"/><rect class="g" width="20" height="2" transform="translate(183 24)"/><rect class="h" width="10" height="10" rx="5" transform="translate(73 40)"/><rect class="i" width="111" height="2" transform="translate(82 44)"/><path class="j" d="M78,27A18,18,0,1,1,60,45,18.021,18.021,0,0,1,78,27m0-2A20,20,0,1,0,98,45,20,20,0,0,0,78,25Z"/><rect class="k" width="5" height="5" rx="2.5" transform="translate(190.5 42.5)"/><path class="g" d="M193,37a8,8,0,1,1-8,8,8.009,8.009,0,0,1,8-8m0-2a10,10,0,1,0,10,10,10,10,0,0,0-10-10Z"/></svg>