<svg xmlns="http://www.w3.org/2000/svg" xmlns:xlink="http://www.w3.org/1999/xlink" width="820.532" height="610.373" viewBox="0 0 820.532 610.373"><defs><style>.a{fill:url(#a);}.b,.bs{fill:#fff;}.c{fill:url(#b);}.d{fill:url(#c);}.e{fill:url(#d);}.f{fill:url(#f);}.g{fill:url(#g);}.h{fill:url(#h);}.i{fill:url(#i);}.j{fill:url(#j);}.k{fill:url(#k);}.l{fill:url(#l);}.m{fill:url(#m);}.n{fill:url(#n);}.o{fill:url(#o);}.p{fill:url(#p);}.q{fill:url(#q);}.r{fill:#231f20;opacity:0.22;}.s{fill:#303030;}.t{fill:url(#r);}.u{fill:url(#s);}.v{fill:url(#t);}.w{fill:url(#u);}.x{fill:url(#v);}.y{fill:url(#w);}.z{fill:url(#x);}.aa{fill:#474748;}.ab{fill:#58595b;}.ac{fill:url(#y);}.ad{fill:url(#z);}.ae{fill:#d1d3d4;}.af{fill:url(#aa);}.ag{fill:url(#ab);}.ah{fill:url(#ac);}.ai{fill:url(#ad);}.aj{fill:url(#ae);}.ak{fill:url(#af);}.al{fill:url(#ag);}.am{fill:url(#ah);}.an{fill:url(#ai);}.ao{fill:url(#aj);}.ap{fill:url(#ak);}.aq{fill:url(#al);}.ar{fill:url(#am);}.as{fill:url(#an);}.at{fill:url(#ao);}.au{fill:url(#ap);}.av{fill:url(#aq);}.aw{fill:url(#ar);}.ax{fill:url(#as);}.ay{fill:url(#at);}.az{fill:url(#au);}.ba{fill:url(#av);}.bb{fill:url(#aw);}.bc{fill:url(#ax);}.bd{fill:url(#ay);}.be{fill:url(#az);}.bf{fill:url(#ba);}.bg{fill:url(#bb);}.bh{fill:url(#bc);}.bi{fill:url(#bd);}.bj{fill:url(#be);}.bk{fill:url(#bf);}.bl{fill:url(#bg);}.bm{fill:url(#bk);}.bn{fill:url(#bm);}.bo{fill:url(#bn);}.bp{fill:url(#bo);}.bq{fill:url(#bp);}.br{fill:url(#bq);}.bs{opacity:0.3;}</style><radialGradient id="a" cx="418.226" cy="351.644" r="547.796" gradientTransform="translate(107.118 188.481) scale(0.744 0.464)" gradientUnits="userSpaceOnUse"><stop offset="0" stop-color="#fff" stop-opacity="0.4"/><stop offset="0.2" stop-color="#f6f6f6" stop-opacity="0.38"/><stop offset="0.4" stop-color="#dddcdc" stop-opacity="0.341"/><stop offset="0.59" stop-color="#b2b0b1" stop-opacity="0.259"/><stop offset="0.79" stop-color="#757373" stop-opacity="0.149"/><stop offset="0.99" stop-color="#282425" stop-opacity="0.012"/><stop offset="1" stop-color="#231f20" stop-opacity="0"/></radialGradient><linearGradient id="b" x1="-47.14" y1="0.5" x2="48.14" y2="0.5" gradientUnits="objectBoundingBox"><stop offset="0" stop-color="#fff"/><stop offset="0.15" stop-color="#fcffff"/><stop offset="0.28" stop-color="#f1fdff"/><stop offset="0.4" stop-color="#e0faff"/><stop offset="0.52" stop-color="#c7f7ff"/><stop offset="0.63" stop-color="#a7f2ff"/><stop offset="0.74" stop-color="#80edff"/><stop offset="0.84" stop-color="#52e6ff"/><stop offset="0.95" stop-color="#1edeff"/><stop offset="1" stop-color="#00daff"/></linearGradient><linearGradient id="c" x1="0.069" y1="0.5" x2="0.931" y2="0.5" gradientUnits="objectBoundingBox"><stop offset="0" stop-color="#ffb5b5"/><stop offset="0.45" stop-color="#ffd4d4"/><stop offset="1" stop-color="#fff"/></linearGradient><linearGradient id="d" x1="0.5" y1="0.812" x2="0.5" y2="0.025" gradientUnits="objectBoundingBox"><stop offset="0" stop-color="#fff" stop-opacity="0.502"/><stop offset="0.06" stop-color="#fff" stop-opacity="0.42"/><stop offset="0.17" stop-color="#fff" stop-opacity="0.29"/><stop offset="0.29" stop-color="#fff" stop-opacity="0.188"/><stop offset="0.42" stop-color="#fff" stop-opacity="0.102"/><stop offset="0.56" stop-color="#fff" stop-opacity="0.039"/><stop offset="0.74" stop-color="#fff" stop-opacity="0.012"/><stop offset="1" stop-color="#fff" stop-opacity="0"/></linearGradient><linearGradient id="f" y1="0.5" x2="1" y2="0.5" gradientUnits="objectBoundingBox"><stop offset="0" stop-color="#fff"/><stop offset="0.94" stop-color="#abf3ff"/></linearGradient><linearGradient id="g" x1="0.5" y1="0.719" x2="0.5" y2="0.009" xlink:href="#d"/><linearGradient id="h" x1="-0.083" y1="0.563" x2="0.186" y2="0.534" gradientUnits="objectBoundingBox"><stop offset="0" stop-color="#fff" stop-opacity="0.302"/><stop offset="0.01" stop-color="#fff" stop-opacity="0.29"/><stop offset="0.15" stop-color="#fff" stop-opacity="0.188"/><stop offset="0.31" stop-color="#fff" stop-opacity="0.102"/><stop offset="0.48" stop-color="#fff" stop-opacity="0.039"/><stop offset="0.69" stop-color="#fff" stop-opacity="0.012"/><stop offset="1" stop-color="#fff" stop-opacity="0"/></linearGradient><linearGradient id="i" x1="-10.047" y1="0.563" x2="-9.778" y2="0.534" xlink:href="#h"/><linearGradient id="j" x1="0.005" y1="0.495" x2="0.995" y2="0.505" gradientUnits="objectBoundingBox"><stop offset="0" stop-color="#ff8a8a"/><stop offset="0.4" stop-color="red"/></linearGradient><linearGradient id="k" x1="0.39" y1="0.346" x2="0.638" y2="0.693" gradientUnits="objectBoundingBox"><stop offset="0" stop-color="red"/><stop offset="0.29" stop-color="#ff3c3c"/><stop offset="0.94" stop-color="#ffd3d3"/><stop offset="1" stop-color="#ffe0e0"/></linearGradient><linearGradient id="l" x1="0.613" y1="0.347" x2="0.37" y2="0.675" gradientUnits="objectBoundingBox"><stop offset="0" stop-color="red"/><stop offset="0.25" stop-color="#ff3c3c"/><stop offset="0.83" stop-color="#ffd3d3"/><stop offset="1" stop-color="#fff"/></linearGradient><linearGradient id="m" x1="0.053" y1="0.466" x2="0.969" y2="0.536" gradientUnits="objectBoundingBox"><stop offset="0" stop-color="red" stop-opacity="0"/><stop offset="0.37" stop-color="red" stop-opacity="0"/><stop offset="0.55" stop-color="#aa4955" stop-opacity="0.231"/><stop offset="0.76" stop-color="#4f97b0" stop-opacity="0.478"/><stop offset="0.92" stop-color="#16c7e9" stop-opacity="0.639"/><stop offset="1" stop-color="#00daff" stop-opacity="0.698"/></linearGradient><linearGradient id="n" x1="0.907" y1="0.581" x2="0.373" y2="0.475" gradientUnits="objectBoundingBox"><stop offset="0" stop-color="#00daff" stop-opacity="0.698"/><stop offset="1" stop-color="#fff" stop-opacity="0"/></linearGradient><linearGradient id="o" x1="0.496" y1="0.991" x2="0.504" y2="0.028" gradientUnits="objectBoundingBox"><stop offset="0" stop-color="#fff" stop-opacity="0.8"/><stop offset="0.06" stop-color="#fff2f2" stop-opacity="0.761"/><stop offset="0.16" stop-color="#ffd0d0" stop-opacity="0.651"/><stop offset="0.3" stop-color="#ff9898" stop-opacity="0.478"/><stop offset="0.46" stop-color="#ff4b4b" stop-opacity="0.239"/><stop offset="0.6" stop-color="red" stop-opacity="0"/><stop offset="0.73" stop-color="#ff0f0f" stop-opacity="0.012"/><stop offset="0.83" stop-color="#ff3f3f" stop-opacity="0.051"/><stop offset="0.92" stop-color="#ff8f8f" stop-opacity="0.11"/><stop offset="1" stop-color="#fff" stop-opacity="0.2"/></linearGradient><linearGradient id="p" x1="0.013" y1="0.5" x2="0.984" y2="0.5" gradientUnits="objectBoundingBox"><stop offset="0" stop-color="red" stop-opacity="0"/><stop offset="0.05" stop-color="#ff0909" stop-opacity="0.031"/><stop offset="0.13" stop-color="#f22" stop-opacity="0.11"/><stop offset="0.22" stop-color="#ff4b4b" stop-opacity="0.239"/><stop offset="0.32" stop-color="#ff8484" stop-opacity="0.42"/><stop offset="0.43" stop-color="#ffcdcd" stop-opacity="0.639"/><stop offset="0.5" stop-color="#fff" stop-opacity="0.8"/><stop offset="0.51" stop-color="#fff0f0" stop-opacity="0.749"/><stop offset="0.58" stop-color="#ffb1b1" stop-opacity="0.561"/><stop offset="0.65" stop-color="#ff7b7b" stop-opacity="0.388"/><stop offset="0.72" stop-color="#ff4f4f" stop-opacity="0.251"/><stop offset="0.79" stop-color="#ff2c2c" stop-opacity="0.141"/><stop offset="0.86" stop-color="#ff1414" stop-opacity="0.059"/><stop offset="0.93" stop-color="#ff0505" stop-opacity="0.02"/><stop offset="1" stop-color="red" stop-opacity="0"/></linearGradient><linearGradient id="q" x1="0.004" y1="0.485" x2="0.995" y2="0.505" gradientUnits="objectBoundingBox"><stop offset="0" stop-color="#ffb5b5"/><stop offset="0.23" stop-color="red" stop-opacity="0"/><stop offset="0.23" stop-color="#ff0505" stop-opacity="0.02"/><stop offset="0.29" stop-color="#ff5050" stop-opacity="0.31"/><stop offset="0.35" stop-color="#ff8e8e" stop-opacity="0.561"/><stop offset="0.4" stop-color="#ffbfbf" stop-opacity="0.749"/><stop offset="0.45" stop-color="#ffe2e2" stop-opacity="0.89"/><stop offset="0.49" stop-color="#fff7f7" stop-opacity="0.969"/><stop offset="0.51" stop-color="#fff"/><stop offset="0.53" stop-color="#f7feff" stop-opacity="0.969"/><stop offset="0.57" stop-color="#e2fbff" stop-opacity="0.89"/><stop offset="0.61" stop-color="#bff6ff" stop-opacity="0.749"/><stop offset="0.66" stop-color="#8fefff" stop-opacity="0.561"/><stop offset="0.71" stop-color="#51e6ff" stop-opacity="0.322"/><stop offset="0.77" stop-color="#06dbff" stop-opacity="0.02"/><stop offset="0.78" stop-color="#00daff" stop-opacity="0"/><stop offset="1" stop-color="#94efff"/></linearGradient><linearGradient id="r" x1="0.016" y1="0.695" x2="0.866" y2="0.306" gradientUnits="objectBoundingBox"><stop offset="0" stop-color="#b5b5b5"/><stop offset="0.12" stop-color="#9cc8cf"/><stop offset="0.27" stop-color="#84dbe9"/><stop offset="0.4" stop-color="#75e7f9"/><stop offset="0.51" stop-color="#70ebff"/><stop offset="0.61" stop-color="#75ecff"/><stop offset="0.74" stop-color="#85eeff"/><stop offset="0.88" stop-color="#9ef1ff"/><stop offset="1" stop-color="#b8f5ff"/></linearGradient><linearGradient id="s" y1="0.5" x2="1" y2="0.5" gradientUnits="objectBoundingBox"><stop offset="0" stop-color="#fff"/><stop offset="0.28" stop-color="#fafafb"/><stop offset="0.6" stop-color="#ecedee"/><stop offset="0.94" stop-color="#d6d8d8"/><stop offset="1" stop-color="#d1d3d4"/></linearGradient><linearGradient id="t" x1="0.497" y1="0.975" x2="0.503" y2="0.01" gradientUnits="objectBoundingBox"><stop offset="0" stop-color="#fff"/><stop offset="0.23" stop-color="#fafbfb"/><stop offset="0.49" stop-color="#ededed"/><stop offset="0.51" stop-color="#ebecec"/><stop offset="0.62" stop-color="#e6e7e7"/><stop offset="0.75" stop-color="#d6d8d9"/><stop offset="0.9" stop-color="#bdbfc1"/><stop offset="1" stop-color="#a7a9ac"/></linearGradient><linearGradient id="u" x1="0.785" y1="0.948" x2="0.218" y2="0.056" gradientUnits="objectBoundingBox"><stop offset="0" stop-color="#f5f9ff"/><stop offset="0.17" stop-color="#cdd1d6"/><stop offset="0.43" stop-color="#96989c"/><stop offset="0.55" stop-color="#808285"/><stop offset="0.62" stop-color="#727376"/><stop offset="0.77" stop-color="#575759"/><stop offset="0.9" stop-color="#474648"/><stop offset="1" stop-color="#414042"/></linearGradient><linearGradient id="v" x1="0.49" y1="0.975" x2="0.51" y2="0.051" xlink:href="#t"/><linearGradient id="w" y1="0.5" x2="1" y2="0.5" gradientUnits="objectBoundingBox"><stop offset="0" stop-color="#6d6e71"/><stop offset="0.17" stop-color="#697276"/><stop offset="0.4" stop-color="#5e7f86"/><stop offset="0.64" stop-color="#4c94a0"/><stop offset="0.73" stop-color="#449dab"/><stop offset="0.79" stop-color="#38a8ba"/><stop offset="0.92" stop-color="#18c4e1"/><stop offset="1" stop-color="#00daff"/></linearGradient><linearGradient id="x" x1="0.186" y1="0.089" x2="0.944" y2="1.081" gradientUnits="objectBoundingBox"><stop offset="0" stop-color="#b5b5b5"/><stop offset="0.34" stop-color="#a1c5cb"/><stop offset="1" stop-color="#70ebff"/></linearGradient><linearGradient id="y" y1="0.5" x2="1" y2="0.5" gradientUnits="objectBoundingBox"><stop offset="0" stop-color="#808285"/><stop offset="1" stop-color="#414042"/></linearGradient><linearGradient id="z" x1="0" y1="0.5" x2="1" y2="0.5" xlink:href="#y"/><linearGradient id="aa" x1="0.5" y1="1.008" x2="0.5" y2="0.055" gradientUnits="objectBoundingBox"><stop offset="0" stop-color="#00daff" stop-opacity="0.502"/><stop offset="0.07" stop-color="#00daff" stop-opacity="0.4"/><stop offset="0.17" stop-color="#00daff" stop-opacity="0.278"/><stop offset="0.28" stop-color="#00daff" stop-opacity="0.169"/><stop offset="0.4" stop-color="#00daff" stop-opacity="0.102"/><stop offset="0.54" stop-color="#00daff" stop-opacity="0.039"/><stop offset="0.7" stop-color="#00daff" stop-opacity="0.012"/><stop offset="1" stop-color="#00daff" stop-opacity="0"/></linearGradient><linearGradient id="ab" x1="-0.258" y1="0.539" x2="0.437" y2="0.503" gradientUnits="objectBoundingBox"><stop offset="0" stop-color="#00daff" stop-opacity="0.502"/><stop offset="0.06" stop-color="#00daff" stop-opacity="0.42"/><stop offset="0.17" stop-color="#00daff" stop-opacity="0.29"/><stop offset="0.29" stop-color="#00daff" stop-opacity="0.188"/><stop offset="0.42" stop-color="#00daff" stop-opacity="0.102"/><stop offset="0.56" stop-color="#00daff" stop-opacity="0.039"/><stop offset="0.74" stop-color="#00daff" stop-opacity="0.012"/><stop offset="1" stop-color="#00daff" stop-opacity="0"/></linearGradient><linearGradient id="ac" x1="-33.421" y1="0.539" x2="-32.725" y2="0.503" xlink:href="#ab"/><linearGradient id="ad" x1="0.5" y1="1.008" x2="0.5" y2="0.055" gradientUnits="objectBoundingBox"><stop offset="0" stop-color="red" stop-opacity="0.502"/><stop offset="0.07" stop-color="red" stop-opacity="0.4"/><stop offset="0.17" stop-color="red" stop-opacity="0.278"/><stop offset="0.28" stop-color="red" stop-opacity="0.169"/><stop offset="0.4" stop-color="red" stop-opacity="0.102"/><stop offset="0.54" stop-color="red" stop-opacity="0.039"/><stop offset="0.7" stop-color="red" stop-opacity="0.012"/><stop offset="1" stop-color="red" stop-opacity="0"/></linearGradient><linearGradient id="ae" x1="-0.258" y1="0.539" x2="0.437" y2="0.503" gradientUnits="objectBoundingBox"><stop offset="0" stop-color="red" stop-opacity="0.502"/><stop offset="0.06" stop-color="#ff1616" stop-opacity="0.42"/><stop offset="0.17" stop-color="#ff3b3b" stop-opacity="0.29"/><stop offset="0.29" stop-color="#ff5a5a" stop-opacity="0.188"/><stop offset="0.42" stop-color="#ff7171" stop-opacity="0.102"/><stop offset="0.56" stop-color="#ff8282" stop-opacity="0.039"/><stop offset="0.74" stop-color="#ff8c8c" stop-opacity="0.012"/><stop offset="1" stop-color="#ff8f8f" stop-opacity="0"/></linearGradient><linearGradient id="af" x1="-10.144" y1="0.539" x2="-9.448" y2="0.503" xlink:href="#ae"/><linearGradient id="ag" x1="0.5" y1="1.008" x2="0.5" y2="0.055" gradientUnits="objectBoundingBox"><stop offset="0" stop-color="#fff" stop-opacity="0.502"/><stop offset="0.07" stop-color="#fff" stop-opacity="0.4"/><stop offset="0.17" stop-color="#fff" stop-opacity="0.278"/><stop offset="0.28" stop-color="#fff" stop-opacity="0.169"/><stop offset="0.4" stop-color="#fff" stop-opacity="0.102"/><stop offset="0.54" stop-color="#fff" stop-opacity="0.039"/><stop offset="0.7" stop-color="#fff" stop-opacity="0.012"/><stop offset="1" stop-color="#fff" stop-opacity="0"/></linearGradient><linearGradient id="ah" x1="-0.229" y1="0.542" x2="0.44" y2="0.503" xlink:href="#d"/><linearGradient id="ai" x1="-21.752" y1="0.542" x2="-21.083" y2="0.503" xlink:href="#d"/><radialGradient id="aj" cx="62.258" cy="121.946" r="114.472" gradientTransform="translate(10.931 -45.055) scale(0.616 0.616)" gradientUnits="userSpaceOnUse"><stop offset="0" stop-color="#fff"/><stop offset="0.18" stop-color="#fffcfc"/><stop offset="0.33" stop-color="#fff1f1"/><stop offset="0.48" stop-color="#ffe0e0"/><stop offset="0.61" stop-color="#ffc7c7"/><stop offset="0.74" stop-color="#ffa7a7"/><stop offset="0.87" stop-color="#ff8181"/><stop offset="0.99" stop-color="#ff5454"/><stop offset="1" stop-color="#ff5252"/></radialGradient><radialGradient id="ak" cx="179.315" cy="121.545" r="107.327" gradientTransform="translate(-133.62 -45.205) scale(0.616 0.616)" xlink:href="#b"/><radialGradient id="al" cx="120.698" cy="156.507" r="95.743" gradientTransform="translate(-61.384 -88.953) scale(0.616 0.616)" gradientUnits="userSpaceOnUse"><stop offset="0" stop-color="#fff"/><stop offset="0.27" stop-color="#fcfcfc"/><stop offset="0.5" stop-color="#f1f2f2"/><stop offset="0.72" stop-color="#e0e1e2"/><stop offset="0.92" stop-color="#c7c9cb"/><stop offset="1" stop-color="#bcbec0"/></radialGradient><linearGradient id="am" x1="0" y1="0.5" x2="1" y2="0.5" xlink:href="#t"/><linearGradient id="an" x1="0.87" y1="0.677" x2="0.118" y2="0.317" gradientUnits="objectBoundingBox"><stop offset="0" stop-color="#fff"/><stop offset="0.23" stop-color="#fafbfb"/><stop offset="0.49" stop-color="#ededed"/><stop offset="0.51" stop-color="#ebecec"/><stop offset="0.6" stop-color="#ebe7e7"/><stop offset="0.71" stop-color="#e9d7d7"/><stop offset="0.83" stop-color="#e7bebe"/><stop offset="0.96" stop-color="#e49b9b"/><stop offset="1" stop-color="#e38d8d"/></linearGradient><linearGradient id="ao" x1="0.01" y1="0.99" x2="1.001" y2="-0.001" xlink:href="#s"/><linearGradient id="ap" x1="0.5" y1="0.987" x2="0.5" y2="0.028" gradientUnits="objectBoundingBox"><stop offset="0" stop-color="#fff"/><stop offset="0.23" stop-color="#fafbfb"/><stop offset="0.49" stop-color="#ededed"/><stop offset="0.51" stop-color="#ebecec"/><stop offset="0.62" stop-color="#eae7e7"/><stop offset="0.77" stop-color="#e8d7d7"/><stop offset="0.92" stop-color="#e5bebe"/><stop offset="1" stop-color="#e3afaf"/></linearGradient><linearGradient id="aq" x1="0.503" y1="0.96" x2="0.496" y2="-0.016" xlink:href="#t"/><linearGradient id="ar" x1="0.936" y1="0.98" x2="0.16" y2="0" xlink:href="#an"/><linearGradient id="as" x1="0" y1="0.5" x2="1" y2="0.5" xlink:href="#an"/><linearGradient id="at" x1="-6.871" y1="1.548" x2="2.73" y2="0.183" gradientUnits="objectBoundingBox"><stop offset="0" stop-color="#00daff"/><stop offset="0.11" stop-color="#05d6fa"/><stop offset="0.23" stop-color="#13caec"/><stop offset="0.36" stop-color="#29b7d6"/><stop offset="0.5" stop-color="#4a9bb5"/><stop offset="0.64" stop-color="#73788c"/><stop offset="0.79" stop-color="#a54d5a"/><stop offset="0.93" stop-color="#e01a1f"/><stop offset="1" stop-color="red"/></linearGradient><linearGradient id="au" x1="-4.584" y1="1.447" x2="4.713" y2="-0.285" xlink:href="#at"/><linearGradient id="av" x1="-2.379" y1="1.275" x2="6.456" y2="-1.103" xlink:href="#at"/><linearGradient id="aw" x1="-0.336" y1="0.904" x2="7.599" y2="-2.939" xlink:href="#at"/><linearGradient id="ax" x1="-37.92" y1="0.5" x2="-36.92" y2="0.5" xlink:href="#t"/><linearGradient id="ay" x1="0.083" y1="0.769" x2="0.875" y2="0.258" gradientUnits="objectBoundingBox"><stop offset="0" stop-color="#fff"/><stop offset="0.18" stop-color="#fafeff"/><stop offset="0.38" stop-color="#ecfcff"/><stop offset="0.6" stop-color="#d6f9ff"/><stop offset="0.82" stop-color="#b6f5ff"/><stop offset="1" stop-color="#96f0ff"/></linearGradient><linearGradient id="az" x1="-45.615" y1="1.038" x2="-44.764" y2="-0.049" xlink:href="#at"/><linearGradient id="ba" x1="-679.81" y1="0.987" x2="-679.81" y2="0.028" gradientUnits="objectBoundingBox"><stop offset="0" stop-color="#e6e7e8"/><stop offset="0.16" stop-color="#e1e6e7"/><stop offset="0.34" stop-color="#d3e2e5"/><stop offset="0.53" stop-color="#bddbe1"/><stop offset="0.73" stop-color="#9dd1db"/><stop offset="0.94" stop-color="#74c5d3"/><stop offset="1" stop-color="#66c1d1"/></linearGradient><linearGradient id="bb" x1="1.095" y1="0.947" x2="-0.098" y2="0.038" gradientUnits="objectBoundingBox"><stop offset="0" stop-color="#d1d3d4"/><stop offset="0.44" stop-color="#d6d7d8"/><stop offset="0.93" stop-color="#e3e5e6"/><stop offset="1" stop-color="#e6e7e8"/></linearGradient><linearGradient id="bc" x1="1.089" y1="0.95" x2="-0.102" y2="0.04" xlink:href="#bb"/><linearGradient id="bd" x1="1.089" y1="0.95" x2="-0.102" y2="0.04" gradientUnits="objectBoundingBox"><stop offset="0" stop-color="#929496"/><stop offset="0.34" stop-color="#97999b"/><stop offset="0.74" stop-color="#a4a6a8"/><stop offset="1" stop-color="#b2b4b5"/></linearGradient><linearGradient id="be" x1="1.095" y1="0.948" x2="-0.098" y2="0.037" xlink:href="#bb"/><linearGradient id="bf" x1="1.089" y1="0.95" x2="-0.102" y2="0.04" xlink:href="#bb"/><linearGradient id="bg" x1="1.089" y1="0.949" x2="-0.102" y2="0.04" xlink:href="#bd"/><linearGradient id="bk" x1="1.095" y1="0.947" x2="-0.098" y2="0.037" xlink:href="#bb"/><linearGradient id="bm" x1="1.089" y1="0.95" x2="-0.102" y2="0.04" gradientUnits="objectBoundingBox"><stop offset="0" stop-color="#0089a1"/><stop offset="0.19" stop-color="#008da6"/><stop offset="0.41" stop-color="#0099b4"/><stop offset="0.63" stop-color="#00adca"/><stop offset="0.87" stop-color="#00c8ea"/><stop offset="1" stop-color="#00daff"/></linearGradient><linearGradient id="bn" y1="0.499" x2="1" y2="0.499" gradientUnits="objectBoundingBox"><stop offset="0" stop-color="#ff8f8f"/><stop offset="0.49" stop-color="#fffbfb"/><stop offset="0.51" stop-color="#fff"/><stop offset="1" stop-color="#7aebff"/></linearGradient><linearGradient id="bo" x1="0.015" y1="0.596" x2="0.986" y2="0.404" gradientUnits="objectBoundingBox"><stop offset="0" stop-color="red"/><stop offset="0.11" stop-color="#fb0404"/><stop offset="0.24" stop-color="#ee0f11"/><stop offset="0.37" stop-color="#d82127"/><stop offset="0.5" stop-color="#ba3b45"/><stop offset="0.63" stop-color="#925d6d"/><stop offset="0.77" stop-color="#63869c"/><stop offset="0.91" stop-color="#2bb5d4"/><stop offset="1" stop-color="#00daff"/></linearGradient><linearGradient id="bp" x1="0.5" y1="0.983" x2="0.5" y2="0.028" gradientUnits="objectBoundingBox"><stop offset="0" stop-color="#fff"/><stop offset="1" stop-color="#7aebff"/></linearGradient><linearGradient id="bq" x1="0.5" y1="0.953" x2="0.5" y2="0.05" gradientUnits="objectBoundingBox"><stop offset="0.02" stop-color="#fff"/><stop offset="1" stop-color="#bcbec0"/></linearGradient></defs><rect class="a" width="820.532" height="610.373"/><g transform="translate(117.913 250.071)"><rect class="b" width="1.272" height="339.317" transform="matrix(0.515, -0.857, 0.857, 0.515, 0.001, 100.813)"/><rect class="b" width="334.383" height="1.272" transform="translate(311.623 266.652) rotate(-30.93)"/><rect class="c" width="1.272" height="140.551" transform="translate(469.564 3.522) rotate(-59.03)"/><rect class="d" width="145.371" height="1.272" transform="translate(0 74.806) rotate(-30.97)"/><rect class="b" width="16.62" height="9.969" transform="translate(465.756 165.097)"/><rect class="b" width="16.62" height="9.969" transform="translate(108.37 165.097)"/><rect class="e" width="16.569" height="61.877" transform="translate(108.37 113.126)"/><rect class="e" width="16.569" height="61.877" transform="translate(465.782 113.126)"/></g><g transform="translate(105.722 11.355)"><rect class="b" width="6.358" height="92.281" transform="translate(304.347 448.663)"/><rect class="f" width="56.828" height="6.358" transform="translate(515.346 323.32)"/><rect class="b" width="99.821" height="6.358" transform="translate(0 323.32)"/><path class="g" d="M164.129,346.327,353.345,459.856a33.062,33.062,0,0,0,34.028,0L576.589,346.327a12.589,12.589,0,0,0,6.167-10.9V8.93H158v326.5a12.589,12.589,0,0,0,6.129,10.9Z" transform="translate(-62.807 -8.93)"/><rect class="h" width="212.384" height="301.664" transform="translate(95.155 24.822)"/><rect class="i" width="212.384" height="301.664" transform="translate(519.949 326.499) rotate(180)"/></g><g transform="translate(200.87 208.701)"><path class="b" d="M387.383,417.7,576.6,304.174a12.716,12.716,0,0,0,0-21.808L387.383,168.837a33.062,33.062,0,0,0-34.028,0L164.139,282.366a12.716,12.716,0,0,0,0,21.808L353.354,417.7A33.062,33.062,0,0,0,387.383,417.7Z" transform="translate(-157.965 -164.123)"/></g><g transform="translate(222.063 99.869)"><path class="j" d="M383.517,301.658,552.642,200.183a8.9,8.9,0,0,0,0-15.259L383.517,83.436a34.334,34.334,0,0,0-35.351,0l-169.251,101.6a8.812,8.812,0,0,0,0,15.119l169.251,101.5A34.334,34.334,0,0,0,383.517,301.658Z" transform="translate(-174.631 -78.537)"/></g><g transform="translate(222.061 213.86)"><path class="k" d="M516.11,168.23a8.812,8.812,0,0,1-4.3,7.63L342.675,277.3a34.333,34.333,0,0,1-17.675,4.9V421.306a33.056,33.056,0,0,0,17.009-4.714L516.136,312.113V168.23Z" transform="translate(-133.787 -168.166)"/><path class="l" d="M348.167,277.31,178.915,175.81a8.774,8.774,0,0,1-4.285-7.63h0V312.114L348.841,416.6a33.062,33.062,0,0,0,17,4.718v-139.1a34.333,34.333,0,0,1-17.675-4.908Z" transform="translate(-174.63 -168.18)"/></g><g transform="translate(222.097 99.96)"><path class="m" d="M383.485,301.638,552.761,200.113a8.787,8.787,0,0,0,0-15.069L383.485,83.493a34.333,34.333,0,0,0-35.3,0L178.908,185.082a8.736,8.736,0,0,0,0,14.992L348.185,301.638A34.333,34.333,0,0,0,383.485,301.638Z" transform="translate(-174.658 -78.609)"/><path class="n" d="M516.11,168.23a8.812,8.812,0,0,1-4.3,7.63L342.675,277.3a34.333,34.333,0,0,1-17.675,4.9V421.306a33.056,33.056,0,0,0,17.009-4.714L516.136,312.113V168.23Z" transform="translate(-133.823 -54.267)"/></g><g transform="translate(222.126 100.231)"><path class="o" d="M384.343,301.084l168.412-101a8.812,8.812,0,0,0,0-15.119L384.343,83.944a36.025,36.025,0,0,0-37.029,0L178.965,184.961a8.812,8.812,0,0,0,0,15.119l168.349,101a35.974,35.974,0,0,0,37.029,0Z" transform="translate(-174.681 -78.822)"/></g><g transform="translate(222.061 212.003)"><path class="p" d="M556.953,168.244a8.812,8.812,0,0,1-4.3,7.63L383.518,277.31a34.334,34.334,0,0,1-35.351,0L178.915,175.81a8.774,8.774,0,0,1-4.285-7.63h0V312.114L348.841,416.6a33.062,33.062,0,0,0,34.028,0L556.991,312.126V168.244Z" transform="translate(-174.63 -166.323)"/><path class="q" d="M552.652,172.43,383.515,273.891a34.333,34.333,0,0,1-35.351,0l-169.251-101.5a8.672,8.672,0,0,1-4.056-5.659,8.774,8.774,0,0,0,4.056,9.473l169.251,101.5a34.334,34.334,0,0,0,35.351,0L552.64,176.232a8.9,8.9,0,0,0,4.082-9.512,8.761,8.761,0,0,1-4.069,5.71Z" transform="translate(-174.627 -166.72)"/></g><g transform="translate(305.263 144.112)"><path class="r" d="M331.451,252.978l141.314-84.791L381.3,113.33,240.06,198.146Z" transform="translate(-240.06 -113.33)"/></g><g transform="translate(305.25 93.514)"><path class="s" d="M402.51,169.055l-12.5-7.49,8.342-4.985Z" transform="translate(-199.319 -50.985)"/><path class="s" d="M330.617,212.245l-12.487-7.49,8.342-4.985Z" transform="translate(-218.843 -39.255)"/><path class="t" d="M311.93,239.232V209.311l41.556-34.906,68.438-41.035,14.662-8.85h16.633v29.934Z" transform="translate(-220.527 -59.693)"/><path class="u" d="M331.453,202.917l-91.4-54.857v29.921l91.4,54.857Z" transform="translate(-240.05 -53.3)"/><path class="v" d="M240.05,155.516l41.556-34.906,91.4,54.857-41.556,34.906Z" transform="translate(-240.05 -60.755)"/><path class="w" d="M364.133,182.928l24.924-34.918L297.641,93.14,272.73,128.071" transform="translate(-231.174 -68.216)"/><path class="x" d="M292.32,98.464l91.416,54.87,41.556-25.025L333.876,73.54Z" transform="translate(-225.853 -73.54)"/><path class="y" d="M427.71,126.668,411.09,116.61l-41.556,25.025L344.61,176.554Z" transform="translate(-211.65 -61.842)"/><path class="z" d="M446.116,136.237,354.687,81.38H338.08l91.4,54.857Z" transform="translate(-213.424 -71.411)"/><path class="aa" d="M337.462,185.675C330.608,189.8,325,199.892,325,208.119s5.608,11.61,12.462,7.49,12.462-14.217,12.462-22.444S344.316,181.555,337.462,185.675Z" transform="translate(-216.977 -43.56)"/><path class="ab" d="M331.115,212.747c-2.81,0-3.115-3.815-3.115-5.43,0-6.93,4.858-15.717,10.618-19.176a7.1,7.1,0,0,1,3.56-1.272c2.81,0,3.116,3.815,3.116,5.443,0,6.943-4.858,15.73-10.605,19.176a7.045,7.045,0,0,1-3.573,1.208Z" transform="translate(-216.162 -42.758)"/><path class="aa" d="M409.422,142.536c-6.854,4.12-12.462,14.229-12.462,22.457s5.608,11.6,12.462,7.49,12.462-14.217,12.462-22.457S416.276,138.416,409.422,142.536Z" transform="translate(-197.432 -55.278)"/><path class="ab" d="M403.075,169.606c-2.81,0-3.115-3.815-3.115-5.43,0-6.943,4.858-15.73,10.605-19.189a7.044,7.044,0,0,1,3.573-1.208c2.81,0,3.115,3.815,3.115,5.43,0,6.943-4.87,15.73-10.618,19.176a7.1,7.1,0,0,1-3.561,1.272Z" transform="translate(-196.617 -54.462)"/><path class="ac" d="M240.05,148.06l8.049,4.819a17.637,17.637,0,0,1,8.545,15.107h0L240.114,158Z" transform="translate(-240.05 -53.3)"/><path class="ad" d="M304.254,186.01l11.2,6.714,12.5-2.467-4.158,7.477-8.342,4.959-16.607-9.982v-3.65a3.561,3.561,0,0,1,5.4-3.052Z" transform="translate(-224.079 -43.132)"/><path class="ae" d="M259.64,159.82l41.569,24.911L292.88,199.7l-24.936-14.967Z" transform="translate(-234.729 -50.105)"/><path class="b" d="M240.05,148.185l91.378,54.832,41.582-34.88-41.556,32.388-90.7-52.924Z" transform="translate(-240.05 -53.424)"/></g><g transform="translate(43.184 145.892)"><rect class="af" width="108.557" height="191.988" transform="translate(631.647)"/><rect class="ag" width="54.272" height="183.163" transform="translate(631.647 8.812)"/><rect class="ah" width="54.272" height="183.163" transform="translate(685.932 8.812)"/><rect class="ai" width="108.557" height="191.988"/><rect class="aj" width="54.272" height="183.163" transform="translate(0 8.812)"/><rect class="ak" width="54.272" height="183.163" transform="translate(54.272 8.812)"/><rect class="al" width="108.557" height="172.036" transform="translate(315.792 209.409)"/><rect class="am" width="54.272" height="164.14" transform="translate(315.792 217.306)"/><rect class="an" width="54.272" height="164.14" transform="translate(370.064 217.306)"/></g><g transform="translate(43.178 304.428)"><path class="ao" d="M140.509,269.307l-47.8-28.675a8.672,8.672,0,0,0-8.9,0L35.97,269.307a4.12,4.12,0,0,0,0,7.083l47.8,28.688a8.673,8.673,0,0,0,8.9,0l47.8-28.688a4.133,4.133,0,0,0,.038-7.083Z" transform="translate(-33.956 -239.403)"/><path class="ap" d="M637.231,269.307l-47.8-28.675a8.673,8.673,0,0,0-8.9,0l-47.8,28.675a4.12,4.12,0,0,0,0,7.083l47.8,28.688a8.673,8.673,0,0,0,8.9,0l47.8-28.687a4.12,4.12,0,0,0,0-7.083Z" transform="translate(100.97 -239.403)"/><path class="aq" d="M388.841,418.31l-47.8-28.688a8.672,8.672,0,0,0-8.9,0l-47.8,28.688a4.12,4.12,0,0,0,0,7.083L332.1,454.017a8.672,8.672,0,0,0,8.9,0l47.8-28.675a4.133,4.133,0,0,0,.038-7.032Z" transform="translate(33.504 -198.936)"/></g><g transform="translate(61.749 196.769)"><path class="ar" d="M48.56,199.615l74.8-44.875,2.467,1.475L51.027,201.1Z" transform="translate(-48.56 -154.74)"/><path class="as" d="M50.5,200.788V260.63l49.873-29.921L125.3,215.742V155.9Z" transform="translate(-48.033 -154.425)"/><path class="at" d="M52.5,201.263l69.71-41.823v53.9L52.5,255.167Z" transform="translate(-47.49 -153.463)"/><path class="au" d="M48.56,190.03v59.842l2.467,1.488V191.518Z" transform="translate(-48.56 -145.155)"/><path class="av" d="M103.35,219.715,78.414,234.669l-8.3-4.985L95.046,214.73Z" transform="translate(-42.707 -138.446)"/><path class="aw" d="M78.767,233.458l-9.957-5.977,1.653-.992,8.3,4.985Z" transform="translate(-43.06 -135.252)"/><path class="ax" d="M101.576,218.65v1.984L76.64,235.588V233.6Z" transform="translate(-40.933 -137.381)"/><path class="ay" d="M93.865,173.55v39.89l-4.145,2.492v-39.89Z" transform="translate(-37.38 -149.631)"/><path class="az" d="M87.338,185.31v29.921l-4.158,2.505V187.815Z" transform="translate(-39.157 -146.437)"/><path class="ba" d="M80.8,197.08v19.952l-4.158,2.492V199.572Z" transform="translate(-40.933 -143.24)"/><path class="bb" d="M74.268,208.84v9.982l-4.158,2.492v-9.969Z" transform="translate(-42.707 -140.046)"/></g><g transform="translate(704.18 196.769)"><path class="bc" d="M597.844,179.638l-41.607-24.9-2.467,1.475,41.556,24.936Z" transform="translate(-553.77 -154.74)"/><path class="bd" d="M553.77,240.678V155.9l41.607,24.974-.051,84.74Z" transform="translate(-553.77 -154.425)"/><path class="be" d="M592.291,181.412l-36.521-22.2v17.268l36.521,22.037Z" transform="translate(-553.227 -153.526)"/><path class="bf" d="M588.968,174.32l-.064,84.8-2.454,1.488V175.833Z" transform="translate(-544.894 -149.422)"/><path class="bg" d="M557.03,177.47l.229,10.109,8.087,4.858v-9.982Z" transform="translate(-552.885 -148.566)"/><path class="bh" d="M566.84,183.35v9.982l8.316,4.985v-9.969Z" transform="translate(-550.22 -146.969)"/><path class="bi" d="M576.64,189.24v9.969l8.316,4.985v-9.969Z" transform="translate(-547.558 -145.369)"/><path class="bj" d="M557.03,189.24l.229,10.1,8.087,4.858v-9.969Z" transform="translate(-552.885 -145.369)"/><path class="bk" d="M566.84,195.12v9.969l8.316,4.985V200.1Z" transform="translate(-550.22 -143.772)"/><path class="bl" d="M576.64,201v9.969l8.316,5v-9.982Z" transform="translate(-547.558 -142.175)"/><path class="bg" d="M557.03,201l.229,10.109,8.087,4.858v-9.982Z" transform="translate(-552.885 -142.175)"/><path class="bh" d="M566.84,206.88v9.982l8.316,4.985v-9.969Z" transform="translate(-550.22 -140.578)"/><path class="bi" d="M576.64,212.77v9.969l8.316,4.985v-9.969Z" transform="translate(-547.558 -138.978)"/><path class="bm" d="M557.03,212.77l.229,10.1,8.087,4.858v-9.969Z" transform="translate(-552.885 -138.978)"/><path class="bk" d="M566.84,218.65v9.969l8.316,4.985v-9.969Z" transform="translate(-550.22 -137.381)"/><path class="bn" d="M576.64,224.53V234.5l8.316,4.985v-9.969Z" transform="translate(-547.558 -135.784)"/></g><g transform="translate(369.32 429.735)"><path class="bo" d="M290.48,366.423v1.564a2.9,2.9,0,0,0,1.424,2.543l30.4,18.248a7.324,7.324,0,0,0,7.553,0l49.593-29.73a2.886,2.886,0,0,0,1.424-2.543h0V355.08Z" transform="translate(-290.422 -333.291)"/><path class="bp" d="M291.917,373.823l30.4,18.248a7.324,7.324,0,0,0,7.553,0l49.593-29.73a2.925,2.925,0,0,0,0-5.086l-30.43-18.26a7.325,7.325,0,0,0-7.553,0L291.891,368.75a2.925,2.925,0,0,0,.025,5.074Z" transform="translate(-290.435 -337.945)"/><path class="bq" d="M344.649,344.695l4.6,2.734a1.157,1.157,0,0,1,0,2L336.4,357.144a4.069,4.069,0,0,1-4.2,0l-4.578-2.747a1.17,1.17,0,0,1,0-2.009l12.831-7.693a4.056,4.056,0,0,1,4.2,0Z" transform="translate(-280.489 -336.271)"/><path class="br" d="M313.471,363.56l4.7,2.823a1.094,1.094,0,0,1,0,1.882l-4.7,2.823a4.006,4.006,0,0,1-4.095,0l-4.692-2.823a1.094,1.094,0,0,1,0-1.882l4.692-2.823A4.005,4.005,0,0,1,313.471,363.56Z" transform="translate(-286.71 -331.141)"/><path class="bs" d="M298.87,365.849l16.62-9.969,2.06,1.259-16.416,10.02Z" transform="translate(-288.143 -333.074)"/><path class="bs" d="M312.98,374.535l1.984-1.2,4.73,2.836-2,1.2Z" transform="translate(-284.311 -328.332)"/><path class="bs" d="M315,373.325l1.984-1.2,4.73,2.836-2,1.2Z" transform="translate(-283.762 -328.66)"/><path class="bs" d="M316.95,372.145l1.984-1.2,4.73,2.836-1.984,1.2Z" transform="translate(-283.233 -328.981)"/><path class="bs" d="M318.87,371l2-1.2,4.73,2.836-2,1.2Z" transform="translate(-282.711 -329.293)"/><path class="bs" d="M322.65,368.8l1.984-1.2,4.73,2.836-2,1.2Z" transform="translate(-281.684 -329.891)"/><path class="bs" d="M324.66,367.585l2-1.2,4.718,2.836-1.984,1.2Z" transform="translate(-281.138 -330.219)"/><path class="bs" d="M326.62,366.393l1.984-1.183,4.73,2.836-2,1.2Z" transform="translate(-280.606 -330.54)"/><path class="bs" d="M328.54,365.255l2-1.2,4.718,2.836-1.984,1.2Z" transform="translate(-280.085 -330.852)"/><path class="bs" d="M332.2,363.065l1.984-1.2,4.73,2.836-2,1.2Z" transform="translate(-279.091 -331.447)"/><path class="bs" d="M334.21,361.855l2-1.2,4.73,2.836-2,1.2Z" transform="translate(-278.545 -331.776)"/><path class="bs" d="M336.17,360.663l1.984-1.183,4.73,2.823-2,1.208Z" transform="translate(-278.012 -332.096)"/><path class="bs" d="M338.09,359.525l2-1.2,4.73,2.836-2,1.2Z" transform="translate(-277.491 -332.409)"/><path class="bs" d="M341.75,357.323l2-1.183,4.73,2.823-2,1.208Z" transform="translate(-276.497 -333.003)"/><path class="bs" d="M343.77,356.113l2-1.183,4.718,2.823-1.984,1.208Z" transform="translate(-275.948 -333.332)"/><path class="bs" d="M345.73,354.935l1.984-1.2,4.73,2.836-2,1.2Z" transform="translate(-275.416 -333.655)"/><path class="bs" d="M347.65,353.783l2-1.183,4.718,2.823-1.984,1.2Z" transform="translate(-274.894 -333.965)"/></g></svg>