<svg xmlns="http://www.w3.org/2000/svg" width="82.122" height="79.939" viewBox="0 0 82.122 79.939"><defs><style>.a{fill:#63b245;}.b{fill:#fff;}</style></defs><g transform="translate(-168 -2352.998)"><path class="a" d="M4,46.91A40.523,40.523,0,0,1,45.061,6.945c22.678,0,41.061,17.892,41.061,39.965S67.737,86.876,45.061,86.876A40.523,40.523,0,0,1,4,46.91" transform="translate(164 2346.057)"/><path class="b" d="M44.09,63.427h8.518a.275.275,0,0,1,.253.376,18.646,18.646,0,1,1,0-14.127.275.275,0,0,1-.253.376H44.09a.263.263,0,0,1-.205-.1,10.694,10.694,0,0,0-18.964,7.106A10.818,10.818,0,0,0,35.161,67.433a10.676,10.676,0,0,0,8.725-3.9.257.257,0,0,1,.205-.1M76.978,52.328H45.593a.148.148,0,0,0-.135.205,10.61,10.61,0,0,1,0,8.418.148.148,0,0,0,.135.205H58.028a.154.154,0,0,1,.154.152V73.668a.154.154,0,0,0,.152.154h8.532a.152.152,0,0,0,.152-.154V61.308a.154.154,0,0,1,.154-.152h5.775a.154.154,0,0,1,.152.152V73.668a.154.154,0,0,0,.152.154h3.572a5.114,5.114,0,0,0,5.116-5.116V57.282a4.962,4.962,0,0,0-4.962-4.962" transform="translate(159.693 2334.51)"/></g></svg>