<svg xmlns="http://www.w3.org/2000/svg" xmlns:xlink="http://www.w3.org/1999/xlink" width="660.82" height="834.75" viewBox="0 0 660.82 834.75"><defs><style>.a{opacity:0.849;fill:url(#a);}.b{fill:#e6e7e8;}.c,.k{fill:#d1d3d4;}.d{fill:#bcbec0;}.e,.f,.g{fill:#939598;}.e,.h{opacity:0.5;}.f,.i{opacity:0.75;}.g,.j{opacity:0.4;}.h,.i,.j,.m{fill:#ff312e;}.k{opacity:0.33;}.l{fill:#fff;}.n{fill:none;stroke:#ff312e;stroke-miterlimit:10;stroke-width:2px;}.o{fill:#a7a9ac;}</style><radialGradient id="a" cx="0.5" cy="0.5" r="0.5" gradientUnits="objectBoundingBox"><stop offset="0" stop-color="#fff" stop-opacity="0.698"/><stop offset="0.178" stop-color="#fff" stop-opacity="0.502"/><stop offset="0.44" stop-color="#fff" stop-opacity="0.302"/><stop offset="0.744" stop-color="#fff" stop-opacity="0.102"/><stop offset="1" stop-color="#a2a2a2" stop-opacity="0"/></radialGradient></defs><g transform="translate(-1119.441 -3119.25)"><ellipse class="a" cx="330" cy="194" rx="330" ry="194" transform="translate(1120 3566)"/><g transform="translate(1105.641 3119.59)"><g transform="translate(58.755 421.983)"><path class="b" d="M300.577,465.1,28.38,301.773l272.2-163.293L572.742,301.773Z" transform="translate(-28.38 -138.48)"/><path class="c" d="M28.38,191.44v17.205L300.515,371.907V354.733Z" transform="translate(-28.38 -28.147)"/><path class="d" d="M116.67,354.517,388.743,191.44v17.205L116.67,371.722Z" transform="translate(155.557 -28.147)"/></g><g transform="translate(130.473 439.188)"><path class="e" d="M136.024,233.7v34.379L107.38,250.909V216.53Z" transform="translate(64.485 6.919)"/><path class="f" d="M116.67,233.7v34.379l28.675-17.174V216.53Z" transform="translate(83.839 6.919)"/><path class="g" d="M107.38,228.134l28.644-17.174L164.7,228.134l-28.675,17.174Z" transform="translate(64.485 -4.685)"/><path class="e" d="M107.38,239.3l28.644-17.2L164.7,239.3l-28.675,17.174Z" transform="translate(64.485 18.523)"/><path class="e" d="M154.583,222.585v34.348L125.97,239.759V205.38Z" transform="translate(103.214 -16.31)"/><path class="f" d="M135.25,222.585v34.348l28.675-17.174V205.38Z" transform="translate(122.547 -16.31)"/><path class="g" d="M125.97,216.984l28.613-17.174,28.675,17.174-28.675,17.205Z" transform="translate(103.214 -27.914)"/><path class="e" d="M125.97,228.134l28.613-17.174,28.675,17.174-28.675,17.174Z" transform="translate(103.214 -4.685)"/><path class="h" d="M173.194,211.435v34.379L144.55,228.609V194.23Z" transform="translate(141.922 -39.539)"/><path class="i" d="M153.84,211.435v34.379l28.644-17.205V194.23Z" transform="translate(161.276 -39.539)"/><path class="j" d="M144.55,205.834l28.644-17.174,28.644,17.174-28.644,17.2Z" transform="translate(141.922 -51.143)"/><path class="h" d="M144.55,216.984l28.644-17.174,28.644,17.174-28.644,17.205Z" transform="translate(141.922 -27.914)"/><path class="e" d="M191.774,200.285v34.379L163.13,217.459V183.08Z" transform="translate(180.631 -62.768)"/><path class="f" d="M172.42,200.285v34.379l28.644-17.205V183.08Z" transform="translate(199.985 -62.768)"/><path class="g" d="M163.13,194.684l28.644-17.174,28.644,17.174-28.644,17.205Z" transform="translate(180.631 -74.373)"/><path class="e" d="M163.13,205.834l28.644-17.174,28.644,17.174-28.644,17.2Z" transform="translate(180.631 -51.143)"/><path class="e" d="M117.444,222.585v34.348L88.8,239.759V205.38Z" transform="translate(25.777 -16.31)"/><path class="f" d="M98.09,222.585v34.348l28.644-17.174V205.38Z" transform="translate(45.131 -16.31)"/><path class="g" d="M88.8,216.984l28.644-17.174,28.644,17.174-28.644,17.205Z" transform="translate(25.777 -27.914)"/><path class="e" d="M88.8,228.134l28.644-17.174,28.644,17.174-28.644,17.174Z" transform="translate(25.777 -4.685)"/><path class="e" d="M136.024,211.435v34.379L107.38,228.609V194.23Z" transform="translate(64.485 -39.539)"/><path class="f" d="M116.67,211.435v34.379l28.675-17.205V194.23Z" transform="translate(83.839 -39.539)"/><path class="g" d="M107.38,205.834l28.644-17.174L164.7,205.834l-28.675,17.2Z" transform="translate(64.485 -51.143)"/><path class="e" d="M107.38,216.984l28.644-17.174L164.7,216.984l-28.675,17.205Z" transform="translate(64.485 -27.914)"/><path class="e" d="M154.583,200.285v34.379L125.97,217.459V183.08Z" transform="translate(103.214 -62.768)"/><path class="f" d="M135.25,200.285v34.379l28.675-17.205V183.08Z" transform="translate(122.547 -62.768)"/><path class="g" d="M125.97,194.684l28.613-17.174,28.675,17.174-28.675,17.205Z" transform="translate(103.214 -74.373)"/><path class="e" d="M125.97,205.834l28.613-17.174,28.675,17.174-28.675,17.2Z" transform="translate(103.214 -51.143)"/><path class="e" d="M173.194,189.114v34.379L144.55,206.288V171.94Z" transform="translate(141.922 -85.977)"/><path class="f" d="M153.84,189.114v34.379l28.644-17.205V171.94Z" transform="translate(161.276 -85.977)"/><path class="g" d="M144.55,183.565l28.644-17.2,28.644,17.2-28.644,17.174Z" transform="translate(141.922 -97.602)"/><path class="e" d="M144.55,194.684l28.644-17.174,28.644,17.174-28.644,17.205Z" transform="translate(141.922 -74.373)"/><path class="h" d="M98.864,211.435v34.379L70.22,228.609V194.23Z" transform="translate(-12.932 -39.539)"/><path class="i" d="M79.51,211.435v34.379l28.644-17.205V194.23Z" transform="translate(6.422 -39.539)"/><path class="j" d="M70.22,205.834,98.864,188.66l28.644,17.174-28.644,17.2Z" transform="translate(-12.932 -51.143)"/><path class="h" d="M70.22,216.984,98.864,199.81l28.644,17.174L98.864,234.189Z" transform="translate(-12.932 -27.914)"/><path class="h" d="M117.444,200.285v34.379L88.8,217.459V183.08Z" transform="translate(25.777 -62.768)"/><path class="i" d="M98.09,200.285v34.379l28.644-17.205V183.08Z" transform="translate(45.131 -62.768)"/><path class="j" d="M88.8,194.684l28.644-17.174,28.644,17.174-28.644,17.205Z" transform="translate(25.777 -74.373)"/><path class="h" d="M88.8,205.834l28.644-17.174,28.644,17.174-28.644,17.2Z" transform="translate(25.777 -51.143)"/><path class="e" d="M136.024,189.114v34.379L107.38,206.288V171.94Z" transform="translate(64.485 -85.977)"/><path class="f" d="M116.67,189.114v34.379l28.675-17.205V171.94Z" transform="translate(83.839 -85.977)"/><path class="g" d="M107.38,183.565l28.644-17.2,28.675,17.2-28.675,17.174Z" transform="translate(64.485 -97.602)"/><path class="e" d="M107.38,194.684l28.644-17.174L164.7,194.684l-28.675,17.205Z" transform="translate(64.485 -74.373)"/><path class="h" d="M154.583,177.964v34.379L125.97,195.169V160.79Z" transform="translate(103.214 -109.206)"/><path class="i" d="M135.25,177.964v34.379l28.675-17.174V160.79Z" transform="translate(122.547 -109.206)"/><path class="j" d="M125.97,172.415l28.613-17.2,28.675,17.2-28.675,17.174Z" transform="translate(103.214 -120.831)"/><path class="h" d="M125.97,183.565l28.613-17.2,28.675,17.2-28.675,17.174Z" transform="translate(103.214 -97.602)"/><path class="e" d="M80.284,200.285v34.379L51.64,217.459V183.08Z" transform="translate(-51.64 -62.768)"/><path class="f" d="M60.93,200.285v34.379l28.644-17.205V183.08Z" transform="translate(-32.286 -62.768)"/><path class="g" d="M51.64,194.684,80.284,177.51l28.644,17.174L80.284,211.889Z" transform="translate(-51.64 -74.373)"/><path class="e" d="M51.64,205.834,80.284,188.66l28.644,17.174-28.644,17.2Z" transform="translate(-51.64 -51.143)"/><path class="e" d="M98.864,189.114v34.379L70.22,206.288V171.94Z" transform="translate(-12.932 -85.977)"/><path class="f" d="M79.51,189.114v34.379l28.644-17.205V171.94Z" transform="translate(6.422 -85.977)"/><path class="g" d="M70.22,183.565l28.644-17.2,28.644,17.2L98.864,200.739Z" transform="translate(-12.932 -97.602)"/><path class="e" d="M70.22,194.684,98.864,177.51l28.644,17.174L98.864,211.889Z" transform="translate(-12.932 -74.373)"/><path class="e" d="M117.444,177.964v34.379L88.8,195.169V160.79Z" transform="translate(25.777 -109.206)"/><path class="f" d="M98.09,177.964v34.379l28.644-17.174V160.79Z" transform="translate(45.131 -109.206)"/><path class="g" d="M88.8,172.415l28.644-17.2,28.644,17.2-28.644,17.174Z" transform="translate(25.777 -120.831)"/><path class="e" d="M88.8,183.565l28.644-17.2,28.644,17.2-28.644,17.174Z" transform="translate(25.777 -97.602)"/><path class="e" d="M136.024,166.814v34.379L107.38,184.019V149.64Z" transform="translate(64.485 -132.435)"/><path class="f" d="M116.67,166.814v34.379l28.675-17.174V149.64Z" transform="translate(83.839 -132.435)"/><path class="g" d="M107.38,161.265l28.644-17.205L164.7,161.265l-28.675,17.174Z" transform="translate(64.485 -144.06)"/><path class="e" d="M107.38,172.415l28.644-17.2,28.675,17.2-28.675,17.174Z" transform="translate(64.485 -120.831)"/></g><g transform="translate(13.8 -7.59)"><path class="k" d="M17.06,145.524H183.93l100.732,93.795-86.58-93.795h21.275V97.27H17.06Z" transform="translate(-7.008 205.239)"/><path class="k" d="M13.8,185.253H121.655l93.672,87.227-79.519-87.227h21.275V137.03H13.8Z" transform="translate(-13.8 288.072)"/><path class="k" d="M407.251,125.934h-203.5L135.27,224.262,189.6,125.934H168.323V77.68H407.251Z" transform="translate(239.262 164.426)"/><path class="k" d="M382.87,185.933h-160.7L153.84,226.047l54.174-40.114H186.739V137.71H382.87Z" transform="translate(277.95 289.489)"/><path class="l" d="M214.05,26h-3.076V8.227h3.076Zm6.262-13.208.085,1.526a4.749,4.749,0,0,1,3.845-1.77q4.126,0,4.2,4.724V26h-2.966V17.443a2.72,2.72,0,0,0-.543-1.862,2.285,2.285,0,0,0-1.776-.6,2.858,2.858,0,0,0-2.673,1.624V26h-2.966V12.792ZM236.12,22.24l2.8-9.448h3.064L237.4,26h-2.576l-4.614-13.208h3.076Zm13.525,4a6.137,6.137,0,0,1-4.572-1.776,6.443,6.443,0,0,1-1.752-4.73v-.366a7.926,7.926,0,0,1,.763-3.534,5.807,5.807,0,0,1,2.142-2.423,5.664,5.664,0,0,1,3.076-.867,5.184,5.184,0,0,1,4.169,1.721,7.278,7.278,0,0,1,1.471,4.871v1.2h-8.63a3.966,3.966,0,0,0,1.093,2.588,3.28,3.28,0,0,0,2.411.952,4.017,4.017,0,0,0,3.32-1.648l1.6,1.526a5.34,5.34,0,0,1-2.118,1.837A6.631,6.631,0,0,1,249.645,26.244Zm-.354-11.316a2.5,2.5,0,0,0-1.971.854,4.429,4.429,0,0,0-.958,2.38h5.652v-.22a3.605,3.605,0,0,0-.793-2.252A2.479,2.479,0,0,0,249.291,14.928ZM260,12.792l.085,1.526a4.749,4.749,0,0,1,3.845-1.77q4.126,0,4.2,4.724V26h-2.966V17.443a2.72,2.72,0,0,0-.543-1.862,2.285,2.285,0,0,0-1.776-.6,2.858,2.858,0,0,0-2.673,1.624V26H257.2V12.792Zm14.868-3.21v3.21H277.2v2.2h-2.332v7.373a1.624,1.624,0,0,0,.3,1.093,1.387,1.387,0,0,0,1.068.336,4.57,4.57,0,0,0,1.038-.122v2.295a7.306,7.306,0,0,1-1.953.281q-3.418,0-3.418-3.772V14.989h-2.173v-2.2H271.9V9.582Zm3.424,9.692a7.788,7.788,0,0,1,.769-3.5,5.617,5.617,0,0,1,2.161-2.393,6.088,6.088,0,0,1,3.2-.836,5.769,5.769,0,0,1,4.34,1.721,6.77,6.77,0,0,1,1.8,4.565l.012.7a7.858,7.858,0,0,1-.751,3.491,5.549,5.549,0,0,1-2.148,2.38,6.132,6.132,0,0,1-3.229.842,5.729,5.729,0,0,1-4.474-1.862,7.13,7.13,0,0,1-1.678-4.962Zm2.966.256a5.322,5.322,0,0,0,.842,3.192,2.738,2.738,0,0,0,2.344,1.154A2.708,2.708,0,0,0,286.78,22.7a5.878,5.878,0,0,0,.836-3.43,5.253,5.253,0,0,0-.861-3.174,2.9,2.9,0,0,0-4.645-.018A5.767,5.767,0,0,0,281.256,19.53ZM297.7,21.752l2.686-8.96h3.162L298.3,28q-1.208,3.333-4.1,3.333a5.314,5.314,0,0,1-1.428-.22V28.82l.562.037a2.886,2.886,0,0,0,1.691-.409,2.711,2.711,0,0,0,.9-1.373l.427-1.135-4.639-13.147h3.2ZM314.85,19.4V26h-3.088V8.227h6.8a6.88,6.88,0,0,1,4.73,1.55,5.21,5.21,0,0,1,1.752,4.1,5.037,5.037,0,0,1-1.715,4.065,7.214,7.214,0,0,1-4.8,1.453Zm0-2.478h3.711a3.655,3.655,0,0,0,2.515-.775,2.849,2.849,0,0,0,.867-2.24,3.074,3.074,0,0,0-.879-2.3,3.388,3.388,0,0,0-2.417-.885h-3.8ZM334.369,15.5a7.34,7.34,0,0,0-1.208-.1,2.721,2.721,0,0,0-2.747,1.563V26h-2.966V12.792h2.832l.073,1.477a3.342,3.342,0,0,1,2.979-1.721,2.777,2.777,0,0,1,1.05.171Zm.379,3.772a7.788,7.788,0,0,1,.769-3.5,5.617,5.617,0,0,1,2.161-2.393,6.088,6.088,0,0,1,3.2-.836,5.769,5.769,0,0,1,4.34,1.721,6.77,6.77,0,0,1,1.8,4.565l.012.7a7.858,7.858,0,0,1-.751,3.491,5.549,5.549,0,0,1-2.148,2.38,6.132,6.132,0,0,1-3.229.842,5.729,5.729,0,0,1-4.474-1.862,7.13,7.13,0,0,1-1.678-4.962Zm2.966.256a5.322,5.322,0,0,0,.842,3.192,2.738,2.738,0,0,0,2.344,1.154,2.708,2.708,0,0,0,2.338-1.172,5.878,5.878,0,0,0,.836-3.43,5.253,5.253,0,0,0-.861-3.174,2.9,2.9,0,0,0-4.645-.018A5.767,5.767,0,0,0,337.714,19.53Zm11.267-.232a7.853,7.853,0,0,1,1.416-4.9,4.537,4.537,0,0,1,3.8-1.849,4.311,4.311,0,0,1,3.394,1.465V7.25h2.966V26h-2.686l-.146-1.367a4.373,4.373,0,0,1-3.552,1.611,4.512,4.512,0,0,1-3.754-1.868A8.14,8.14,0,0,1,348.981,19.3Zm2.966.256a5.5,5.5,0,0,0,.775,3.143,2.515,2.515,0,0,0,2.2,1.129,2.8,2.8,0,0,0,2.661-1.624v-5.64a2.759,2.759,0,0,0-2.637-1.587,2.534,2.534,0,0,0-2.222,1.141A6.123,6.123,0,0,0,351.947,19.555Zm19.7,5.151a4.6,4.6,0,0,1-3.711,1.538,4.1,4.1,0,0,1-3.253-1.257,5.349,5.349,0,0,1-1.1-3.638V12.792h2.966v8.521q0,2.515,2.087,2.515a2.932,2.932,0,0,0,2.917-1.55V12.792h2.966V26h-2.8Zm11.316-.83a2.682,2.682,0,0,0,1.843-.647,2.21,2.21,0,0,0,.781-1.6h2.8a4.357,4.357,0,0,1-.769,2.3,5.044,5.044,0,0,1-1.953,1.691,5.82,5.82,0,0,1-2.661.623,5.631,5.631,0,0,1-4.395-1.794,7.117,7.117,0,0,1-1.624-4.956v-.305a7,7,0,0,1,1.611-4.828,5.58,5.58,0,0,1,4.395-1.813,5.427,5.427,0,0,1,3.839,1.373,4.919,4.919,0,0,1,1.556,3.607h-2.8a2.716,2.716,0,0,0-.775-1.868,2.494,2.494,0,0,0-1.849-.732,2.61,2.61,0,0,0-2.222,1.044,5.326,5.326,0,0,0-.793,3.168v.476a5.414,5.414,0,0,0,.775,3.2A2.608,2.608,0,0,0,382.965,23.876ZM394.342,9.582v3.21h2.332v2.2h-2.332v7.373a1.624,1.624,0,0,0,.3,1.093,1.387,1.387,0,0,0,1.068.336,4.57,4.57,0,0,0,1.038-.122v2.295a7.306,7.306,0,0,1-1.953.281q-3.418,0-3.418-3.772V14.989H389.2v-2.2h2.173V9.582ZM405.451,26V8.227h6.091a7.437,7.437,0,0,1,4.59,1.208,4.256,4.256,0,0,1,1.575,3.6,3.838,3.838,0,0,1-.659,2.2,4.243,4.243,0,0,1-1.929,1.514,3.923,3.923,0,0,1,2.228,1.471,4.284,4.284,0,0,1,.787,2.594,4.732,4.732,0,0,1-1.605,3.845,6.98,6.98,0,0,1-4.6,1.343Zm3.088-8.02v5.554h3.43a3.319,3.319,0,0,0,2.271-.72,2.528,2.528,0,0,0,.818-2q0-2.771-2.832-2.832Zm0-2.271h3.027a3.5,3.5,0,0,0,2.252-.653,2.238,2.238,0,0,0,.812-1.849,2.268,2.268,0,0,0-.751-1.9,3.791,3.791,0,0,0-2.338-.586h-3ZM424.091,26h-2.966V12.792h2.966ZM420.941,9.362a1.574,1.574,0,0,1,.433-1.135,1.637,1.637,0,0,1,1.239-.452,1.658,1.658,0,0,1,1.245.452,1.562,1.562,0,0,1,.439,1.135,1.526,1.526,0,0,1-.439,1.117,1.671,1.671,0,0,1-1.245.446,1.65,1.65,0,0,1-1.239-.446A1.538,1.538,0,0,1,420.941,9.362Zm9.131,3.43.085,1.526A4.749,4.749,0,0,1,434,12.548q4.126,0,4.2,4.724V26h-2.966V17.443a2.72,2.72,0,0,0-.543-1.862,2.285,2.285,0,0,0-1.776-.6,2.858,2.858,0,0,0-2.673,1.624V26h-2.966V12.792Zm18.555,9.619a1.345,1.345,0,0,0-.653-1.208,6.946,6.946,0,0,0-2.167-.732,11.138,11.138,0,0,1-2.527-.806,3.372,3.372,0,0,1-2.222-3.113A3.516,3.516,0,0,1,442.5,13.7a5.694,5.694,0,0,1,3.662-1.147,5.925,5.925,0,0,1,3.827,1.172,3.719,3.719,0,0,1,1.459,3.04H448.48a1.828,1.828,0,0,0-.635-1.422,2.433,2.433,0,0,0-1.685-.568,2.629,2.629,0,0,0-1.593.452,1.424,1.424,0,0,0-.616,1.208,1.2,1.2,0,0,0,.574,1.062,7.89,7.89,0,0,0,2.319.763,10.979,10.979,0,0,1,2.74.916,3.881,3.881,0,0,1,1.477,1.276,3.253,3.253,0,0,1,.482,1.807,3.441,3.441,0,0,1-1.477,2.887,6.3,6.3,0,0,1-3.87,1.1,6.83,6.83,0,0,1-2.893-.586,4.762,4.762,0,0,1-1.978-1.611,3.814,3.814,0,0,1-.708-2.209H443.5a2.09,2.09,0,0,0,.793,1.617,3.083,3.083,0,0,0,1.941.568,3,3,0,0,0,1.782-.446A1.379,1.379,0,0,0,448.627,22.411Z" transform="translate(0 797.918)"/><path class="m" d="M264.865,20.214a6.417,6.417,0,0,1-2.1,4.437,7.158,7.158,0,0,1-4.871,1.593,6.931,6.931,0,0,1-3.741-1.007,6.61,6.61,0,0,1-2.5-2.863,10.33,10.33,0,0,1-.916-4.309v-1.66a10.4,10.4,0,0,1,.891-4.431A6.716,6.716,0,0,1,254.19,9.02a7.134,7.134,0,0,1,3.851-1.038,6.853,6.853,0,0,1,4.736,1.6,6.681,6.681,0,0,1,2.087,4.517h-3.076a4.39,4.39,0,0,0-1.117-2.765,3.692,3.692,0,0,0-2.631-.848,3.607,3.607,0,0,0-3.094,1.471,7.346,7.346,0,0,0-1.1,4.315v1.575a7.793,7.793,0,0,0,1.031,4.395,3.424,3.424,0,0,0,3.021,1.514,3.993,3.993,0,0,0,2.734-.818,4.265,4.265,0,0,0,1.16-2.722Zm1.917-.94a7.788,7.788,0,0,1,.769-3.5,5.617,5.617,0,0,1,2.161-2.393,6.088,6.088,0,0,1,3.2-.836,5.769,5.769,0,0,1,4.34,1.721,6.77,6.77,0,0,1,1.8,4.565l.012.7a7.858,7.858,0,0,1-.751,3.491,5.549,5.549,0,0,1-2.148,2.38,6.132,6.132,0,0,1-3.229.842,5.729,5.729,0,0,1-4.474-1.862,7.13,7.13,0,0,1-1.678-4.962Zm2.966.256a5.322,5.322,0,0,0,.842,3.192,2.738,2.738,0,0,0,2.344,1.154,2.708,2.708,0,0,0,2.338-1.172,5.878,5.878,0,0,0,.836-3.43,5.253,5.253,0,0,0-.861-3.174,2.9,2.9,0,0,0-4.645-.018A5.767,5.767,0,0,0,269.748,19.53ZM288.486,15.5a7.34,7.34,0,0,0-1.208-.1,2.721,2.721,0,0,0-2.747,1.563V26h-2.966V12.792H284.4l.073,1.477a3.342,3.342,0,0,1,2.979-1.721,2.777,2.777,0,0,1,1.05.171Zm6.165,4.834-1.318,1.355V26h-2.966V7.25h2.966V18.065l.928-1.16,3.65-4.114h3.564L296.567,18.3,302,26h-3.43ZM309.921,26V8.227h6.091a7.437,7.437,0,0,1,4.59,1.208,4.256,4.256,0,0,1,1.575,3.6,3.838,3.838,0,0,1-.659,2.2,4.243,4.243,0,0,1-1.929,1.514,3.923,3.923,0,0,1,2.228,1.471,4.284,4.284,0,0,1,.787,2.594A4.732,4.732,0,0,1,321,24.657,6.98,6.98,0,0,1,316.4,26Zm3.088-8.02v5.554h3.43a3.319,3.319,0,0,0,2.271-.72,2.528,2.528,0,0,0,.818-2q0-2.771-2.832-2.832Zm0-2.271h3.027a3.5,3.5,0,0,0,2.252-.653,2.238,2.238,0,0,0,.812-1.849,2.268,2.268,0,0,0-.751-1.9,3.791,3.791,0,0,0-2.338-.586h-3Zm11.841,3.564a7.788,7.788,0,0,1,.769-3.5,5.617,5.617,0,0,1,2.161-2.393,6.088,6.088,0,0,1,3.2-.836,5.769,5.769,0,0,1,4.34,1.721,6.77,6.77,0,0,1,1.8,4.565l.012.7a7.858,7.858,0,0,1-.751,3.491,5.549,5.549,0,0,1-2.148,2.38,6.132,6.132,0,0,1-3.229.842,5.729,5.729,0,0,1-4.474-1.862,7.13,7.13,0,0,1-1.678-4.962Zm2.966.256a5.322,5.322,0,0,0,.842,3.192A2.738,2.738,0,0,0,331,23.876,2.708,2.708,0,0,0,333.34,22.7a5.878,5.878,0,0,0,.836-3.43,5.253,5.253,0,0,0-.861-3.174,2.9,2.9,0,0,0-4.645-.018A5.767,5.767,0,0,0,327.817,19.53ZM346.554,15.5a7.34,7.34,0,0,0-1.208-.1,2.721,2.721,0,0,0-2.747,1.563V26h-2.966V12.792h2.832l.073,1.477a3.342,3.342,0,0,1,2.979-1.721,2.777,2.777,0,0,1,1.05.171Zm1.355,3.8a7.725,7.725,0,0,1,1.447-4.913,4.643,4.643,0,0,1,3.839-1.837,4.349,4.349,0,0,1,3.552,1.575l.134-1.331h2.673V25.6a5.322,5.322,0,0,1-1.617,4.1,6.161,6.161,0,0,1-4.364,1.5,7.034,7.034,0,0,1-2.838-.6,5.043,5.043,0,0,1-2.106-1.581l1.4-1.782a4.24,4.24,0,0,0,3.369,1.624,3.277,3.277,0,0,0,2.332-.8,3.064,3.064,0,0,0,.854-2.35v-.891a4.367,4.367,0,0,1-3.418,1.428,4.632,4.632,0,0,1-3.79-1.843A7.975,7.975,0,0,1,347.909,19.3Zm2.954.256a5.318,5.318,0,0,0,.812,3.131,2.61,2.61,0,0,0,2.252,1.141,2.855,2.855,0,0,0,2.661-1.538V16.479a2.814,2.814,0,0,0-2.637-1.5,2.62,2.62,0,0,0-2.277,1.16A5.954,5.954,0,0,0,350.863,19.555Zm28.2,2.307h-6.885L370.737,26h-3.21L374.24,8.227h2.771L383.737,26h-3.223Zm-6.018-2.49H378.2L375.619,12Zm23.987.159a7.864,7.864,0,0,1-1.392,4.889,4.834,4.834,0,0,1-7.214.4v6.262h-2.966V12.792h2.734l.122,1.343a4.357,4.357,0,0,1,3.552-1.587,4.5,4.5,0,0,1,3.79,1.8,8.074,8.074,0,0,1,1.373,5Zm-2.954-.256a5.509,5.509,0,0,0-.787-3.137,2.56,2.56,0,0,0-2.252-1.16,2.73,2.73,0,0,0-2.612,1.5v5.859a2.755,2.755,0,0,0,2.637,1.538,2.557,2.557,0,0,0,2.216-1.141A6.064,6.064,0,0,0,394.076,19.274Zm17.029.256a7.864,7.864,0,0,1-1.392,4.889,4.834,4.834,0,0,1-7.214.4v6.262h-2.966V12.792h2.734l.122,1.343a4.357,4.357,0,0,1,3.552-1.587,4.5,4.5,0,0,1,3.79,1.8,8.074,8.074,0,0,1,1.373,5Zm-2.954-.256a5.509,5.509,0,0,0-.787-3.137,2.56,2.56,0,0,0-2.252-1.16,2.73,2.73,0,0,0-2.612,1.5v5.859a2.755,2.755,0,0,0,2.637,1.538,2.557,2.557,0,0,0,2.216-1.141A6.064,6.064,0,0,0,408.151,19.274Z" transform="translate(0.423)"/><path class="l" d="M29.731,21.422a2.146,2.146,0,0,0-.824-1.807,9.914,9.914,0,0,0-2.972-1.282,14.354,14.354,0,0,1-3.418-1.44,4.561,4.561,0,0,1-2.429-3.979,4.331,4.331,0,0,1,1.752-3.54,7.09,7.09,0,0,1,4.547-1.392,7.681,7.681,0,0,1,3.308.684,5.43,5.43,0,0,1,2.283,1.947,4.994,4.994,0,0,1,.83,2.8H29.731a2.785,2.785,0,0,0-.873-2.179,3.6,3.6,0,0,0-2.5-.787,3.762,3.762,0,0,0-2.35.647,2.154,2.154,0,0,0-.836,1.807,1.949,1.949,0,0,0,.9,1.63,10.407,10.407,0,0,0,2.979,1.27,13.7,13.7,0,0,1,3.333,1.4,5.3,5.3,0,0,1,1.843,1.807,4.705,4.705,0,0,1,.586,2.386,4.23,4.23,0,0,1-1.7,3.534,7.386,7.386,0,0,1-4.62,1.312,8.682,8.682,0,0,1-3.546-.714,5.957,5.957,0,0,1-2.515-1.971,4.913,4.913,0,0,1-.9-2.93h3.088a2.875,2.875,0,0,0,1,2.344,4.383,4.383,0,0,0,2.869.83,3.809,3.809,0,0,0,2.423-.653A2.107,2.107,0,0,0,29.731,21.422Zm17.114.488,2.1-9.119h2.893L48.237,26H45.8l-2.832-9.07L40.18,26H37.739L34.126,12.792h2.893l2.136,9.021,2.71-9.021H44.1Zm12.793,4.333a6.137,6.137,0,0,1-4.572-1.776,6.443,6.443,0,0,1-1.752-4.73v-.366a7.925,7.925,0,0,1,.763-3.534,5.807,5.807,0,0,1,2.142-2.423,5.664,5.664,0,0,1,3.076-.867,5.184,5.184,0,0,1,4.169,1.721,7.278,7.278,0,0,1,1.471,4.871v1.2h-8.63A3.966,3.966,0,0,0,57.4,22.924a3.28,3.28,0,0,0,2.411.952,4.017,4.017,0,0,0,3.32-1.648l1.6,1.526a5.34,5.34,0,0,1-2.118,1.837A6.631,6.631,0,0,1,59.638,26.244Zm-.354-11.316a2.5,2.5,0,0,0-1.971.854,4.429,4.429,0,0,0-.958,2.38h5.652v-.22a3.605,3.605,0,0,0-.793-2.252A2.479,2.479,0,0,0,59.284,14.928Zm13.77,11.316a6.137,6.137,0,0,1-4.572-1.776,6.443,6.443,0,0,1-1.752-4.73v-.366a7.925,7.925,0,0,1,.763-3.534,5.807,5.807,0,0,1,2.142-2.423,5.664,5.664,0,0,1,3.076-.867,5.184,5.184,0,0,1,4.169,1.721,7.278,7.278,0,0,1,1.471,4.871v1.2h-8.63a3.966,3.966,0,0,0,1.093,2.588,3.28,3.28,0,0,0,2.411.952,4.017,4.017,0,0,0,3.32-1.648l1.6,1.526a5.34,5.34,0,0,1-2.118,1.837A6.631,6.631,0,0,1,73.054,26.244ZM72.7,14.928a2.5,2.5,0,0,0-1.971.854,4.429,4.429,0,0,0-.958,2.38h5.652v-.22a3.605,3.605,0,0,0-.793-2.252A2.479,2.479,0,0,0,72.7,14.928Zm19.519,4.6a7.864,7.864,0,0,1-1.392,4.889,4.834,4.834,0,0,1-7.214.4v6.262H80.647V12.792h2.734l.122,1.343a4.357,4.357,0,0,1,3.552-1.587,4.5,4.5,0,0,1,3.79,1.8,8.074,8.074,0,0,1,1.373,5Zm-2.954-.256a5.509,5.509,0,0,0-.787-3.137,2.56,2.56,0,0,0-2.252-1.16,2.73,2.73,0,0,0-2.612,1.5v5.859a2.755,2.755,0,0,0,2.637,1.538,2.557,2.557,0,0,0,2.216-1.141A6.064,6.064,0,0,0,89.265,19.274Zm26.16-1.7a10.9,10.9,0,0,1-.9,4.584,6.83,6.83,0,0,1-2.582,3.027,7.574,7.574,0,0,1-7.715,0,6.935,6.935,0,0,1-2.612-3.009,10.563,10.563,0,0,1-.934-4.5v-1a10.811,10.811,0,0,1,.922-4.59,6.927,6.927,0,0,1,2.6-3.046,7.589,7.589,0,0,1,7.7-.012,6.839,6.839,0,0,1,2.594,3,10.788,10.788,0,0,1,.928,4.559Zm-3.088-.928a7.77,7.77,0,0,0-1.117-4.529,3.941,3.941,0,0,0-6.3-.006,7.619,7.619,0,0,0-1.154,4.437v1.025a7.711,7.711,0,0,0,1.141,4.529,3.675,3.675,0,0,0,3.168,1.6,3.632,3.632,0,0,0,3.156-1.562,7.877,7.877,0,0,0,1.1-4.565ZM125.129,15.5a7.34,7.34,0,0,0-1.208-.1,2.721,2.721,0,0,0-2.747,1.563V26h-2.966V12.792h2.832l.073,1.477a3.342,3.342,0,0,1,2.979-1.721,2.777,2.777,0,0,1,1.05.171Zm1.318,3.8a7.853,7.853,0,0,1,1.416-4.9,4.537,4.537,0,0,1,3.8-1.849,4.311,4.311,0,0,1,3.394,1.465V7.25h2.966V26h-2.686l-.146-1.367a4.373,4.373,0,0,1-3.552,1.611,4.512,4.512,0,0,1-3.754-1.868A8.14,8.14,0,0,1,126.447,19.3Zm2.966.256a5.5,5.5,0,0,0,.775,3.143,2.515,2.515,0,0,0,2.2,1.129,2.8,2.8,0,0,0,2.661-1.624v-5.64a2.759,2.759,0,0,0-2.637-1.587,2.534,2.534,0,0,0-2.222,1.141A6.123,6.123,0,0,0,129.414,19.555Zm17.517,6.689a6.137,6.137,0,0,1-4.572-1.776,6.443,6.443,0,0,1-1.752-4.73v-.366a7.926,7.926,0,0,1,.763-3.534,5.807,5.807,0,0,1,2.142-2.423,5.664,5.664,0,0,1,3.076-.867,5.184,5.184,0,0,1,4.169,1.721,7.278,7.278,0,0,1,1.471,4.871v1.2H143.6a3.966,3.966,0,0,0,1.093,2.588,3.28,3.28,0,0,0,2.411.952,4.017,4.017,0,0,0,3.32-1.648l1.6,1.526a5.34,5.34,0,0,1-2.118,1.837A6.631,6.631,0,0,1,146.931,26.244Zm-.354-11.316a2.5,2.5,0,0,0-1.971.854,4.429,4.429,0,0,0-.958,2.38H149.3v-.22a3.605,3.605,0,0,0-.793-2.252A2.479,2.479,0,0,0,146.577,14.928Zm14.868.574a7.34,7.34,0,0,0-1.208-.1,2.721,2.721,0,0,0-2.747,1.563V26h-2.966V12.792h2.832l.073,1.477a3.342,3.342,0,0,1,2.979-1.721,2.777,2.777,0,0,1,1.05.171Z" transform="translate(20.503 306.737)"/><path class="l" d="M21.307,26V8.227H27.4a7.437,7.437,0,0,1,4.59,1.208,4.256,4.256,0,0,1,1.575,3.6,3.838,3.838,0,0,1-.659,2.2,4.243,4.243,0,0,1-1.929,1.514A3.923,3.923,0,0,1,33.2,18.218a4.284,4.284,0,0,1,.787,2.594,4.732,4.732,0,0,1-1.605,3.845A6.98,6.98,0,0,1,27.789,26ZM24.4,17.98v5.554h3.43a3.319,3.319,0,0,0,2.271-.72,2.528,2.528,0,0,0,.818-2q0-2.771-2.832-2.832Zm0-2.271h3.027a3.5,3.5,0,0,0,2.252-.653,2.238,2.238,0,0,0,.812-1.849,2.268,2.268,0,0,0-.751-1.9,3.791,3.791,0,0,0-2.338-.586h-3ZM39.947,26H36.981V12.792h2.966ZM36.8,9.362a1.574,1.574,0,0,1,.433-1.135,1.637,1.637,0,0,1,1.239-.452,1.658,1.658,0,0,1,1.245.452,1.562,1.562,0,0,1,.439,1.135,1.526,1.526,0,0,1-.439,1.117,1.671,1.671,0,0,1-1.245.446,1.65,1.65,0,0,1-1.239-.446A1.538,1.538,0,0,1,36.8,9.362Zm9.131,3.43.085,1.526a4.749,4.749,0,0,1,3.845-1.77q4.126,0,4.2,4.724V26H51.092V17.443a2.72,2.72,0,0,0-.543-1.862,2.285,2.285,0,0,0-1.776-.6A2.858,2.858,0,0,0,46.1,16.6V26H43.133V12.792ZM66.68,23.534h8.069V26H63.592V8.227H66.68Zm9.595-4.26a7.788,7.788,0,0,1,.769-3.5A5.617,5.617,0,0,1,79.2,13.384a6.088,6.088,0,0,1,3.2-.836,5.769,5.769,0,0,1,4.34,1.721,6.77,6.77,0,0,1,1.8,4.565l.012.7a7.858,7.858,0,0,1-.751,3.491,5.549,5.549,0,0,1-2.148,2.38,6.132,6.132,0,0,1-3.229.842,5.729,5.729,0,0,1-4.474-1.862,7.13,7.13,0,0,1-1.678-4.962Zm2.966.256a5.322,5.322,0,0,0,.842,3.192,2.738,2.738,0,0,0,2.344,1.154A2.708,2.708,0,0,0,84.765,22.7a5.878,5.878,0,0,0,.836-3.43,5.253,5.253,0,0,0-.861-3.174,2.9,2.9,0,0,0-4.645-.018A5.767,5.767,0,0,0,79.241,19.53ZM96.49,23.876a2.682,2.682,0,0,0,1.843-.647,2.21,2.21,0,0,0,.781-1.6h2.8a4.357,4.357,0,0,1-.769,2.3,5.044,5.044,0,0,1-1.953,1.691,5.82,5.82,0,0,1-2.661.623,5.631,5.631,0,0,1-4.395-1.794,7.117,7.117,0,0,1-1.624-4.956v-.305a7,7,0,0,1,1.611-4.828,5.58,5.58,0,0,1,4.395-1.813,5.427,5.427,0,0,1,3.839,1.373,4.919,4.919,0,0,1,1.556,3.607h-2.8a2.716,2.716,0,0,0-.775-1.868,2.494,2.494,0,0,0-1.849-.732,2.61,2.61,0,0,0-2.222,1.044,5.326,5.326,0,0,0-.793,3.168v.476a5.414,5.414,0,0,0,.775,3.2A2.608,2.608,0,0,0,96.49,23.876ZM112.042,26a4.578,4.578,0,0,1-.342-1.233,4.99,4.99,0,0,1-6.714.342,3.632,3.632,0,0,1-1.257-2.808A3.75,3.75,0,0,1,105.3,19.06a7.6,7.6,0,0,1,4.486-1.129H111.6v-.867a2.314,2.314,0,0,0-.574-1.642,2.274,2.274,0,0,0-1.746-.616,2.613,2.613,0,0,0-1.66.507,1.568,1.568,0,0,0-.647,1.288h-2.966a3.292,3.292,0,0,1,.72-2.032,4.8,4.8,0,0,1,1.959-1.483,6.882,6.882,0,0,1,2.765-.537,5.542,5.542,0,0,1,3.7,1.166,4.157,4.157,0,0,1,1.416,3.278v5.957a6.751,6.751,0,0,0,.5,2.844V26Zm-3.259-2.136a3.374,3.374,0,0,0,1.654-.427,2.854,2.854,0,0,0,1.166-1.147V19.8H110a4.373,4.373,0,0,0-2.478.574,1.859,1.859,0,0,0-.83,1.624,1.733,1.733,0,0,0,.568,1.361A2.2,2.2,0,0,0,108.782,23.864Zm12.61-14.282v3.21h2.332v2.2h-2.332v7.373a1.624,1.624,0,0,0,.3,1.093,1.387,1.387,0,0,0,1.068.336,4.569,4.569,0,0,0,1.038-.122v2.295a7.306,7.306,0,0,1-1.953.281q-3.418,0-3.418-3.772V14.989h-2.173v-2.2h2.173V9.582ZM129.144,26h-2.966V12.792h2.966ZM125.994,9.362a1.574,1.574,0,0,1,.433-1.135,1.637,1.637,0,0,1,1.239-.452,1.658,1.658,0,0,1,1.245.452,1.562,1.562,0,0,1,.439,1.135,1.526,1.526,0,0,1-.439,1.117,1.671,1.671,0,0,1-1.245.446,1.65,1.65,0,0,1-1.239-.446A1.538,1.538,0,0,1,125.994,9.362Zm9.131,3.43.085,1.526a4.749,4.749,0,0,1,3.845-1.77q4.126,0,4.2,4.724V26h-2.966V17.443a2.72,2.72,0,0,0-.543-1.862,2.285,2.285,0,0,0-1.776-.6A2.858,2.858,0,0,0,135.3,16.6V26H132.33V12.792ZM145.757,19.3a7.725,7.725,0,0,1,1.447-4.913,4.643,4.643,0,0,1,3.839-1.837,4.349,4.349,0,0,1,3.552,1.575l.134-1.331H157.4V25.6a5.322,5.322,0,0,1-1.617,4.1,6.161,6.161,0,0,1-4.364,1.5,7.034,7.034,0,0,1-2.838-.6,5.043,5.043,0,0,1-2.106-1.581l1.4-1.782a4.24,4.24,0,0,0,3.369,1.624,3.277,3.277,0,0,0,2.332-.8,3.064,3.064,0,0,0,.854-2.35v-.891a4.367,4.367,0,0,1-3.418,1.428,4.632,4.632,0,0,1-3.79-1.843A7.975,7.975,0,0,1,145.757,19.3Zm2.954.256a5.317,5.317,0,0,0,.812,3.131,2.61,2.61,0,0,0,2.252,1.141,2.855,2.855,0,0,0,2.661-1.538V16.479a2.814,2.814,0,0,0-2.637-1.5,2.62,2.62,0,0,0-2.277,1.16A5.954,5.954,0,0,0,148.712,19.555Z" transform="translate(474.648 432.934)"/><path class="l" d="M24.807,19.4V26H21.718V8.227h6.8a6.88,6.88,0,0,1,4.73,1.55A5.21,5.21,0,0,1,35,13.878a5.037,5.037,0,0,1-1.715,4.065,7.214,7.214,0,0,1-4.8,1.453Zm0-2.478h3.711a3.655,3.655,0,0,0,2.515-.775A2.849,2.849,0,0,0,31.9,13.9a3.074,3.074,0,0,0-.879-2.3,3.388,3.388,0,0,0-2.417-.885h-3.8ZM44.326,15.5a7.34,7.34,0,0,0-1.208-.1,2.721,2.721,0,0,0-2.747,1.563V26H37.4V12.792h2.832l.073,1.477a3.342,3.342,0,0,1,2.979-1.721,2.777,2.777,0,0,1,1.05.171Zm.379,3.772a7.788,7.788,0,0,1,.769-3.5,5.617,5.617,0,0,1,2.161-2.393,6.088,6.088,0,0,1,3.2-.836,5.769,5.769,0,0,1,4.34,1.721,6.77,6.77,0,0,1,1.8,4.565l.012.7a7.858,7.858,0,0,1-.751,3.491,5.549,5.549,0,0,1-2.148,2.38,6.132,6.132,0,0,1-3.229.842,5.729,5.729,0,0,1-4.474-1.862A7.13,7.13,0,0,1,44.7,19.42Zm2.966.256a5.322,5.322,0,0,0,.842,3.192,2.738,2.738,0,0,0,2.344,1.154A2.708,2.708,0,0,0,53.195,22.7a5.878,5.878,0,0,0,.836-3.43A5.253,5.253,0,0,0,53.17,16.1a2.9,2.9,0,0,0-4.645-.018A5.767,5.767,0,0,0,47.671,19.53ZM58.938,19.3a7.853,7.853,0,0,1,1.416-4.9,4.537,4.537,0,0,1,3.8-1.849,4.311,4.311,0,0,1,3.394,1.465V7.25H70.51V26H67.825l-.146-1.367a4.373,4.373,0,0,1-3.552,1.611,4.512,4.512,0,0,1-3.754-1.868A8.14,8.14,0,0,1,58.938,19.3Zm2.966.256a5.5,5.5,0,0,0,.775,3.143,2.515,2.515,0,0,0,2.2,1.129A2.8,2.8,0,0,0,67.544,22.2v-5.64a2.759,2.759,0,0,0-2.637-1.587,2.534,2.534,0,0,0-2.222,1.141A6.123,6.123,0,0,0,61.9,19.555Zm19.7,5.151A4.6,4.6,0,0,1,77.9,26.244a4.1,4.1,0,0,1-3.253-1.257,5.349,5.349,0,0,1-1.1-3.638V12.792H76.5v8.521q0,2.515,2.087,2.515a2.932,2.932,0,0,0,2.917-1.55V12.792h2.966V26h-2.8Zm11.316-.83a2.682,2.682,0,0,0,1.843-.647,2.21,2.21,0,0,0,.781-1.6h2.8a4.357,4.357,0,0,1-.769,2.3,5.044,5.044,0,0,1-1.953,1.691,5.82,5.82,0,0,1-2.661.623,5.631,5.631,0,0,1-4.395-1.794,7.117,7.117,0,0,1-1.624-4.956v-.305a7,7,0,0,1,1.611-4.828,5.58,5.58,0,0,1,4.395-1.813,5.427,5.427,0,0,1,3.839,1.373,4.919,4.919,0,0,1,1.556,3.607h-2.8a2.716,2.716,0,0,0-.775-1.868,2.494,2.494,0,0,0-1.849-.732A2.61,2.61,0,0,0,90.7,15.972a5.326,5.326,0,0,0-.793,3.168v.476a5.414,5.414,0,0,0,.775,3.2A2.608,2.608,0,0,0,92.922,23.876ZM104.3,9.582v3.21h2.332v2.2H104.3v7.373a1.624,1.624,0,0,0,.3,1.093,1.387,1.387,0,0,0,1.068.336,4.569,4.569,0,0,0,1.038-.122v2.295a7.306,7.306,0,0,1-1.953.281q-3.418,0-3.418-3.772V14.989H99.16v-2.2h2.173V9.582Zm14.2,13.953h8.069V26H115.408V8.227H118.5Zm9.595-4.26a7.788,7.788,0,0,1,.769-3.5,5.617,5.617,0,0,1,2.161-2.393,6.088,6.088,0,0,1,3.2-.836,5.769,5.769,0,0,1,4.34,1.721,6.77,6.77,0,0,1,1.8,4.565l.012.7a7.858,7.858,0,0,1-.751,3.491,5.549,5.549,0,0,1-2.148,2.38,6.132,6.132,0,0,1-3.229.842,5.729,5.729,0,0,1-4.474-1.862,7.13,7.13,0,0,1-1.678-4.962Zm2.966.256a5.322,5.322,0,0,0,.842,3.192,2.738,2.738,0,0,0,2.344,1.154,2.708,2.708,0,0,0,2.338-1.172,5.878,5.878,0,0,0,.836-3.43,5.253,5.253,0,0,0-.861-3.174,2.9,2.9,0,0,0-4.645-.018A5.767,5.767,0,0,0,131.057,19.53Zm11.267-.256a7.788,7.788,0,0,1,.769-3.5,5.617,5.617,0,0,1,2.161-2.393,6.088,6.088,0,0,1,3.2-.836,5.769,5.769,0,0,1,4.34,1.721,6.77,6.77,0,0,1,1.8,4.565l.012.7a7.858,7.858,0,0,1-.751,3.491,5.549,5.549,0,0,1-2.148,2.38,6.132,6.132,0,0,1-3.229.842A5.729,5.729,0,0,1,144,24.383a7.13,7.13,0,0,1-1.678-4.962Zm2.966.256a5.322,5.322,0,0,0,.842,3.192,2.738,2.738,0,0,0,2.344,1.154,2.708,2.708,0,0,0,2.338-1.172,5.878,5.878,0,0,0,.836-3.43,5.253,5.253,0,0,0-.861-3.174,2.9,2.9,0,0,0-4.645-.018A5.767,5.767,0,0,0,145.29,19.53Zm16.113.806-1.318,1.355V26h-2.966V7.25h2.966V18.065l.928-1.16,3.65-4.114h3.564L163.32,18.3l5.432,7.7h-3.43Zm16.76,4.37a4.6,4.6,0,0,1-3.711,1.538,4.1,4.1,0,0,1-3.253-1.257,5.349,5.349,0,0,1-1.1-3.638V12.792h2.966v8.521q0,2.515,2.087,2.515a2.932,2.932,0,0,0,2.917-1.55V12.792h2.966V26h-2.8ZM195.62,19.53a7.864,7.864,0,0,1-1.392,4.889,4.834,4.834,0,0,1-7.214.4v6.262h-2.966V12.792h2.734l.122,1.343a4.357,4.357,0,0,1,3.552-1.587,4.5,4.5,0,0,1,3.79,1.8,8.074,8.074,0,0,1,1.373,5Zm-2.954-.256a5.509,5.509,0,0,0-.787-3.137,2.56,2.56,0,0,0-2.252-1.16,2.73,2.73,0,0,0-2.612,1.5v5.859a2.755,2.755,0,0,0,2.637,1.538,2.557,2.557,0,0,0,2.216-1.141A6.064,6.064,0,0,0,192.666,19.274Z" transform="translate(417.36 246.639)"/><path class="l" d="M23.436,21.422a2.146,2.146,0,0,0-.824-1.807,9.914,9.914,0,0,0-2.972-1.282,14.354,14.354,0,0,1-3.418-1.44,4.561,4.561,0,0,1-2.429-3.979,4.331,4.331,0,0,1,1.752-3.54,7.09,7.09,0,0,1,4.547-1.392,7.681,7.681,0,0,1,3.308.684,5.43,5.43,0,0,1,2.283,1.947,4.994,4.994,0,0,1,.83,2.8H23.436a2.785,2.785,0,0,0-.873-2.179,3.6,3.6,0,0,0-2.5-.787,3.762,3.762,0,0,0-2.35.647,2.154,2.154,0,0,0-.836,1.807,1.949,1.949,0,0,0,.9,1.63,10.407,10.407,0,0,0,2.979,1.27A13.7,13.7,0,0,1,24.1,17.2a5.3,5.3,0,0,1,1.843,1.807,4.705,4.705,0,0,1,.586,2.386,4.23,4.23,0,0,1-1.7,3.534,7.386,7.386,0,0,1-4.62,1.312,8.682,8.682,0,0,1-3.546-.714,5.957,5.957,0,0,1-2.515-1.971,4.913,4.913,0,0,1-.9-2.93h3.088a2.875,2.875,0,0,0,1,2.344,4.383,4.383,0,0,0,2.869.83,3.809,3.809,0,0,0,2.423-.653A2.107,2.107,0,0,0,23.436,21.422ZM32.665,9.582v3.21H35v2.2H32.665v7.373a1.624,1.624,0,0,0,.3,1.093,1.387,1.387,0,0,0,1.068.336,4.569,4.569,0,0,0,1.038-.122v2.295a7.306,7.306,0,0,1-1.953.281q-3.418,0-3.418-3.772V14.989H27.526v-2.2H29.7V9.582Zm3.424,9.692a7.788,7.788,0,0,1,.769-3.5,5.617,5.617,0,0,1,2.161-2.393,6.088,6.088,0,0,1,3.2-.836,5.769,5.769,0,0,1,4.34,1.721,6.77,6.77,0,0,1,1.8,4.565l.012.7a7.858,7.858,0,0,1-.751,3.491A5.549,5.549,0,0,1,45.47,25.4a6.132,6.132,0,0,1-3.229.842,5.729,5.729,0,0,1-4.474-1.862,7.13,7.13,0,0,1-1.678-4.962Zm2.966.256a5.322,5.322,0,0,0,.842,3.192,2.738,2.738,0,0,0,2.344,1.154A2.708,2.708,0,0,0,44.579,22.7a5.878,5.878,0,0,0,.836-3.43,5.253,5.253,0,0,0-.861-3.174,2.9,2.9,0,0,0-4.645-.018A5.767,5.767,0,0,0,39.055,19.53ZM56.3,23.876a2.682,2.682,0,0,0,1.843-.647,2.21,2.21,0,0,0,.781-1.6h2.8a4.357,4.357,0,0,1-.769,2.3A5.044,5.044,0,0,1,59,25.622a5.82,5.82,0,0,1-2.661.623,5.631,5.631,0,0,1-4.395-1.794,7.117,7.117,0,0,1-1.624-4.956v-.305a7,7,0,0,1,1.611-4.828,5.58,5.58,0,0,1,4.395-1.813,5.427,5.427,0,0,1,3.839,1.373,4.919,4.919,0,0,1,1.556,3.607h-2.8a2.716,2.716,0,0,0-.775-1.868,2.494,2.494,0,0,0-1.849-.732,2.61,2.61,0,0,0-2.222,1.044,5.326,5.326,0,0,0-.793,3.168v.476a5.414,5.414,0,0,0,.775,3.2A2.608,2.608,0,0,0,56.3,23.876Zm11.951-3.54-1.318,1.355V26H63.97V7.25h2.966V18.065l.928-1.16,3.65-4.114h3.564L70.171,18.3,75.6,26h-3.43ZM80.169,26H77.2V12.792h2.966ZM77.019,9.362a1.574,1.574,0,0,1,.433-1.135,1.637,1.637,0,0,1,1.239-.452,1.658,1.658,0,0,1,1.245.452,1.562,1.562,0,0,1,.439,1.135,1.526,1.526,0,0,1-.439,1.117,1.671,1.671,0,0,1-1.245.446,1.65,1.65,0,0,1-1.239-.446A1.538,1.538,0,0,1,77.019,9.362Zm9.131,3.43.085,1.526a4.749,4.749,0,0,1,3.845-1.77q4.126,0,4.2,4.724V26H91.314V17.443a2.72,2.72,0,0,0-.543-1.862,2.285,2.285,0,0,0-1.776-.6A2.858,2.858,0,0,0,86.321,16.6V26H83.355V12.792ZM96.782,19.3a7.725,7.725,0,0,1,1.447-4.913,4.643,4.643,0,0,1,3.839-1.837,4.349,4.349,0,0,1,3.552,1.575l.134-1.331h2.673V25.6a5.322,5.322,0,0,1-1.617,4.1,6.161,6.161,0,0,1-4.364,1.5,7.034,7.034,0,0,1-2.838-.6A5.043,5.043,0,0,1,97.5,29.015l1.4-1.782a4.24,4.24,0,0,0,3.369,1.624,3.277,3.277,0,0,0,2.332-.8,3.064,3.064,0,0,0,.854-2.35v-.891a4.367,4.367,0,0,1-3.418,1.428,4.632,4.632,0,0,1-3.79-1.843A7.975,7.975,0,0,1,96.782,19.3Zm2.954.256a5.318,5.318,0,0,0,.812,3.131,2.61,2.61,0,0,0,2.252,1.141,2.855,2.855,0,0,0,2.661-1.538V16.479a2.814,2.814,0,0,0-2.637-1.5,2.62,2.62,0,0,0-2.277,1.16A5.954,5.954,0,0,0,99.737,19.555Z" transform="translate(10.052 431.036)"/><path class="n" d="M121.32,105v69.067l100.27,59.817-.123,146.551" transform="translate(210.2 221.343)"/><path class="m" d="M153.14,195.675a2.035,2.035,0,1,0,2.035-2.035,2.035,2.035,0,0,0-2.035,2.035Z" transform="translate(276.491 406.01)"/><path class="n" d="M179.761,110.31v52.232L79.583,222.7,79.46,367.028" transform="translate(122.992 232.406)"/><path class="m" d="M78.8,194.915a2.035,2.035,0,1,0,2.035-2.035,2.035,2.035,0,0,0-2.035,2.035Z" transform="translate(121.617 404.426)"/><path class="n" d="M125.93,102.09v52.2l28.8-17.575-.092,144.3" transform="translate(219.804 215.281)"/><path class="m" d="M134.58,161.465a2.035,2.035,0,1,0,2.035-2.035,2.035,2.035,0,0,0-2.035,2.035Z" transform="translate(237.825 334.739)"/><path class="n" d="M155.348,107.28l-.031,87.382L98.06,229.226l.093,109.859" transform="translate(161.742 226.093)"/><path class="m" d="M97.44,183.805a2.035,2.035,0,1,0,2-2.035,2,2,0,0,0-2,2.035Z" transform="translate(160.45 381.28)"/></g><g transform="translate(266.448 49.301)"><path class="c" d="M95.74,86.368,210.317,17.61l7.153,4.317L102.893,90.654Z" transform="translate(-95.74 -17.61)"/><path class="o" d="M95.74,39.91v257.8l7.153,4.317V44.2Z" transform="translate(-95.74 28.848)"/><path class="d" d="M212.637,19.01v257.8L98.06,345.566V87.737Z" transform="translate(-90.907 -14.693)"/><path class="l" d="M100.38,83.346V323.969l100.27-60.156V23.19Z" transform="translate(-86.073 -5.985)"/><path class="b" d="M100.38,83.346v32.221L200.65,55.411V23.19Z" transform="translate(-86.073 -5.985)"/><path class="d" d="M107.35,61.749l7.153,4.286,42.982-25.777,7.153-12.888Z" transform="translate(-71.553 2.723)"/><path class="b" d="M102.854,111.592,102.7,162.9,141.427,139.8V88.59Z" transform="translate(-81.24 130.265)"/><path class="b" d="M118.184,102.691,118.03,154l38.7-23.433V79.35Z" transform="translate(-49.303 111.015)"/><path class="b" d="M102.854,91.6l-.154,51.307,38.727-23.094V68.6Z" transform="translate(-81.24 88.619)"/><path class="b" d="M118.184,82.67l-.154,51.337,38.7-23.433V59.36Z" transform="translate(-49.303 69.369)"/><path class="b" d="M102.854,72.012l-.154,51.307,38.727-23.125V48.98Z" transform="translate(-81.24 47.744)"/><path class="b" d="M118.184,63.06l-.154,51.307,38.7-23.4V39.75Z" transform="translate(-49.303 28.515)"/></g></g></g></svg>