<svg xmlns="http://www.w3.org/2000/svg" width="80" height="80" viewBox="0 0 80 80"><defs><style>.a{fill:#fff;}.b{fill:#003d7d;}.c{fill:#e31b23;}.d{fill:#d13239;}</style></defs><g transform="translate(-1476 -1216)"><circle class="a" cx="40" cy="40" r="40" transform="translate(1476 1216)"/><g transform="translate(1494 1232)"><path class="b" d="M30.433,52.064a74.928,74.928,0,0,1,5.411-5.79C45.91,36.75,56.462,31.446,59.33,34.477s-1.082,14.016-11.2,23.594c-1.353,1.3-3.572,2.976-5.033,4.113l-3.3-2.165a59.354,59.354,0,0,0,5.79-4.816C53.81,47.464,57,39.942,55,37.561c0-.054-.054-.054-.054-.108-2.165-2.273-10.661,2.219-18.994,10.065a63.737,63.737,0,0,0-5.033,5.141M34,63.482a26.079,26.079,0,0,1-5.357,2.11c-1.894.271-3.68-.271-3.9-2.327-.162-1.732.866-3.085,1.569-4.546a4.241,4.241,0,0,0-.541-.812c-2.11,2.922-4.329,8.442.541,9.632,3.68.92,7.576-.487,11.148-1.894Z" transform="translate(-15.443 -20.569)"/><path class="c" d="M8.7,14.316a4.773,4.773,0,0,0,4.654,4.87,4.738,4.738,0,0,0,4.654-4.87A4.76,4.76,0,0,0,13.354,9.5,4.76,4.76,0,0,0,8.7,14.316Z" transform="translate(-8.7 -9.5)"/><path class="d" d="M56.888,57.109c-1.623-1.136-3.788-2.327-3.788-2.327L54.182,53.7a22.489,22.489,0,0,1,3.247,3.355C57.267,57.38,56.888,57.109,56.888,57.109Z" transform="translate(-29.073 -29.781)"/><path class="c" d="M13.654,34.482c2.489-2.6,10.661.974,19.373,8.117l-.974,1.136c-6.6-5.2-11.905-7.847-13.691-6.007-.054.054-.054.054-.054.108-2,2.435.6,10.065,8.821,17.8A97.635,97.635,0,0,0,44.5,67.98c.162.108.325.325.162.487a1.269,1.269,0,0,1-.649.108A50.617,50.617,0,0,1,24.856,58.022C13.979,48.715,10.786,37.567,13.654,34.482Z" transform="translate(-10.516 -20.575)"/></g></g></svg>