<svg xmlns="http://www.w3.org/2000/svg" xmlns:xlink="http://www.w3.org/1999/xlink" width="820.532" height="610.373" viewBox="0 0 820.532 610.373"><defs><style>.a{fill:url(#a);}.b{opacity:0.5;}.c{fill:#fff;}.d{opacity:0.05;}.e{fill:url(#b);}.f,.j,.o,.s{opacity:0.7;}.f,.h,.i{fill:url(#c);}.g,.k,.p,.t{opacity:0.6;}.g{fill:url(#d);}.h,.l,.q,.u{opacity:0.3;}.i,.m,.r,.v{opacity:0.1;}.j,.l,.m,.p{fill:url(#h);}.k{fill:url(#i);}.n{fill:url(#l);}.o,.q,.r{fill:url(#m);}.s,.u,.v{fill:url(#r);}.t{fill:url(#s);}.w{fill:url(#v);}.x{fill:url(#w);}.y{fill:url(#x);}.z{fill:url(#y);}.aa{fill:url(#z);}.ab{fill:url(#aa);}.ac{fill:url(#ab);}.ad{fill:url(#ac);}.ae{fill:url(#ad);}.af{fill:url(#ae);}.ag{fill:url(#af);}.ah{fill:url(#ag);}.ai{fill:url(#ah);}.aj{fill:url(#ai);}.ak{fill:url(#aj);}.al{fill:url(#ak);}.am{fill:url(#al);}.an{fill:#231f20;opacity:0.22;}.ao{fill:red;}.ap{fill:url(#am);}.aq{fill:url(#an);}.ar{fill:url(#ao);}.as{fill:url(#ap);}.at{fill:url(#aq);}.au{fill:url(#ar);}.av{fill:url(#as);}.aw{fill:url(#at);}.ax{fill:url(#au);}.ay{fill:url(#av);}.az{fill:#d1d3d4;}.ba{fill:url(#aw);}.bb{fill:url(#ax);}.bc{fill:url(#ay);}.bd{fill:url(#az);}.be{fill:url(#ba);}.bf{fill:url(#bb);}.bg{fill:url(#bc);}.bh{fill:url(#bd);}.bi{fill:url(#be);}.bj{fill:url(#bf);}.bk{fill:url(#bg);}.bl{fill:url(#bh);}.bm{fill:url(#bi);}.bn{fill:url(#bj);}.bo{fill:url(#bk);}.bp{fill:url(#bl);}.bq{fill:url(#bm);}.br{fill:url(#bn);}.bs{fill:url(#bo);}.bt{fill:url(#bp);}.bu{fill:url(#bq);}.bv{fill:url(#br);}.bw{fill:url(#bs);}.bx{fill:url(#bt);}.by{fill:url(#bu);}.bz{fill:url(#bx);}.ca{fill:url(#by);}.cb{fill:url(#bz);}.cc{fill:url(#ca);}.cd{fill:url(#cb);}.ce{fill:url(#cc);}.cf{fill:url(#cd);}.cg{fill:url(#ce);}.ch{fill:url(#cf);}.ci{fill:url(#cg);}.cj{fill:url(#ch);}.ck{fill:url(#ci);}.cl{fill:url(#cj);}.cm{fill:url(#ck);}.cn{fill:url(#cl);}</style><radialGradient id="a" cx="418.226" cy="351.644" r="547.796" gradientTransform="translate(107.118 188.481) scale(0.744 0.464)" gradientUnits="userSpaceOnUse"><stop offset="0" stop-color="#fff" stop-opacity="0.502"/><stop offset="0.18" stop-color="#f8f8f8" stop-opacity="0.478"/><stop offset="0.36" stop-color="#e4e3e3" stop-opacity="0.439"/><stop offset="0.53" stop-color="#c1c0c0" stop-opacity="0.361"/><stop offset="0.71" stop-color="#918f8f" stop-opacity="0.251"/><stop offset="0.88" stop-color="#535051" stop-opacity="0.11"/><stop offset="1" stop-color="#231f20" stop-opacity="0"/></radialGradient><linearGradient id="b" x1="0.5" y1="0.838" x2="0.5" y2="0.176" gradientUnits="objectBoundingBox"><stop offset="0" stop-color="#fff" stop-opacity="0.502"/><stop offset="0.17" stop-color="#fff" stop-opacity="0.369"/><stop offset="0.43" stop-color="#fff" stop-opacity="0.212"/><stop offset="0.66" stop-color="#fff" stop-opacity="0.102"/><stop offset="0.86" stop-color="#fff" stop-opacity="0.031"/><stop offset="1" stop-color="#fff" stop-opacity="0"/></linearGradient><linearGradient id="c" x1="0.5" y1="0.94" x2="0.5" y2="0.001" gradientUnits="objectBoundingBox"><stop offset="0" stop-color="#fff"/><stop offset="0.08" stop-color="#fff" stop-opacity="0.929"/><stop offset="0.72" stop-color="#fff" stop-opacity="0.341"/><stop offset="1" stop-color="#fff" stop-opacity="0.102"/></linearGradient><linearGradient id="d" x1="0.5" y1="0.941" x2="0.5" y2="0.001" xlink:href="#c"/><linearGradient id="h" x1="0.5" y1="0.941" x2="0.5" y2="0.002" xlink:href="#c"/><linearGradient id="i" x1="0.5" y1="0.94" x2="0.5" y2="0.001" xlink:href="#c"/><linearGradient id="l" x1="0.5" y1="0.838" x2="0.5" y2="0.176" xlink:href="#b"/><linearGradient id="m" x1="0.5" y1="0.941" x2="0.5" y2="0.001" xlink:href="#c"/><linearGradient id="r" x1="0.5" y1="0.941" x2="0.5" y2="0.001" xlink:href="#c"/><linearGradient id="s" x1="0.5" y1="0.941" x2="0.5" y2="0.002" xlink:href="#c"/><linearGradient id="v" x1="0.175" y1="0.778" x2="0.789" y2="0.252" gradientUnits="objectBoundingBox"><stop offset="0" stop-color="#fff" stop-opacity="0.302"/><stop offset="0.14" stop-color="#fff" stop-opacity="0.2"/><stop offset="0.3" stop-color="#fff" stop-opacity="0.11"/><stop offset="0.47" stop-color="#fff" stop-opacity="0.051"/><stop offset="0.67" stop-color="#fff" stop-opacity="0.012"/><stop offset="0.93" stop-color="#fff" stop-opacity="0"/></linearGradient><linearGradient id="w" x1="0.777" y1="0.745" x2="0.221" y2="0.257" xlink:href="#v"/><linearGradient id="x" x1="0.5" y1="0.719" x2="0.5" y2="0.009" gradientUnits="objectBoundingBox"><stop offset="0" stop-color="#fff" stop-opacity="0.502"/><stop offset="0.06" stop-color="#fff" stop-opacity="0.42"/><stop offset="0.17" stop-color="#fff" stop-opacity="0.29"/><stop offset="0.29" stop-color="#fff" stop-opacity="0.188"/><stop offset="0.42" stop-color="#fff" stop-opacity="0.102"/><stop offset="0.56" stop-color="#fff" stop-opacity="0.039"/><stop offset="0.74" stop-color="#fff" stop-opacity="0.012"/><stop offset="1" stop-color="#fff" stop-opacity="0"/></linearGradient><linearGradient id="y" x1="-0.083" y1="0.563" x2="0.186" y2="0.534" gradientUnits="objectBoundingBox"><stop offset="0" stop-color="#fff" stop-opacity="0.302"/><stop offset="0.01" stop-color="#fff" stop-opacity="0.29"/><stop offset="0.15" stop-color="#fff" stop-opacity="0.188"/><stop offset="0.31" stop-color="#fff" stop-opacity="0.102"/><stop offset="0.48" stop-color="#fff" stop-opacity="0.039"/><stop offset="0.69" stop-color="#fff" stop-opacity="0.012"/><stop offset="1" stop-color="#fff" stop-opacity="0"/></linearGradient><linearGradient id="z" x1="-10.047" y1="0.563" x2="-9.778" y2="0.534" xlink:href="#y"/><linearGradient id="aa" x1="0.005" y1="0.495" x2="0.996" y2="0.505" gradientUnits="objectBoundingBox"><stop offset="0" stop-color="#ff8a8a"/><stop offset="0.4" stop-color="red"/></linearGradient><linearGradient id="ab" x1="0.39" y1="0.348" x2="0.647" y2="0.704" gradientUnits="objectBoundingBox"><stop offset="0" stop-color="red"/><stop offset="0.29" stop-color="#ff3c3c"/><stop offset="0.94" stop-color="#ffd3d3"/><stop offset="1" stop-color="#ffe0e0"/></linearGradient><linearGradient id="ac" x1="0.611" y1="0.35" x2="0.359" y2="0.691" gradientUnits="objectBoundingBox"><stop offset="0" stop-color="red"/><stop offset="0.25" stop-color="#ff3c3c"/><stop offset="0.83" stop-color="#ffd3d3"/><stop offset="1" stop-color="#fff"/></linearGradient><linearGradient id="ad" x1="0.053" y1="0.466" x2="0.969" y2="0.536" gradientUnits="objectBoundingBox"><stop offset="0" stop-color="red" stop-opacity="0"/><stop offset="0.37" stop-color="red" stop-opacity="0"/><stop offset="0.55" stop-color="#aa4955" stop-opacity="0.231"/><stop offset="0.76" stop-color="#4f97b0" stop-opacity="0.478"/><stop offset="0.92" stop-color="#16c7e9" stop-opacity="0.639"/><stop offset="1" stop-color="#00daff" stop-opacity="0.698"/></linearGradient><linearGradient id="ae" x1="0.907" y1="0.582" x2="0.373" y2="0.475" gradientUnits="objectBoundingBox"><stop offset="0" stop-color="#00daff" stop-opacity="0.698"/><stop offset="1" stop-color="#fff" stop-opacity="0"/></linearGradient><linearGradient id="af" x1="0.496" y1="0.991" x2="0.504" y2="0.028" gradientUnits="objectBoundingBox"><stop offset="0" stop-color="#fff" stop-opacity="0.8"/><stop offset="0.06" stop-color="#fff2f2" stop-opacity="0.761"/><stop offset="0.16" stop-color="#ffd0d0" stop-opacity="0.651"/><stop offset="0.3" stop-color="#ff9898" stop-opacity="0.478"/><stop offset="0.46" stop-color="#ff4b4b" stop-opacity="0.239"/><stop offset="0.6" stop-color="red" stop-opacity="0"/><stop offset="0.73" stop-color="#ff0f0f" stop-opacity="0.012"/><stop offset="0.83" stop-color="#ff3f3f" stop-opacity="0.051"/><stop offset="0.92" stop-color="#ff8f8f" stop-opacity="0.11"/><stop offset="1" stop-color="#fff" stop-opacity="0.2"/></linearGradient><linearGradient id="ag" x1="0.013" y1="0.5" x2="0.984" y2="0.5" gradientUnits="objectBoundingBox"><stop offset="0" stop-color="red" stop-opacity="0"/><stop offset="0.05" stop-color="#ff0909" stop-opacity="0.031"/><stop offset="0.13" stop-color="#f22" stop-opacity="0.11"/><stop offset="0.22" stop-color="#ff4b4b" stop-opacity="0.239"/><stop offset="0.32" stop-color="#ff8484" stop-opacity="0.42"/><stop offset="0.43" stop-color="#ffcdcd" stop-opacity="0.639"/><stop offset="0.5" stop-color="#fff" stop-opacity="0.8"/><stop offset="0.51" stop-color="#fff0f0" stop-opacity="0.749"/><stop offset="0.58" stop-color="#ffb1b1" stop-opacity="0.561"/><stop offset="0.65" stop-color="#ff7b7b" stop-opacity="0.388"/><stop offset="0.72" stop-color="#ff4f4f" stop-opacity="0.251"/><stop offset="0.79" stop-color="#ff2c2c" stop-opacity="0.141"/><stop offset="0.86" stop-color="#ff1414" stop-opacity="0.059"/><stop offset="0.93" stop-color="#ff0505" stop-opacity="0.02"/><stop offset="1" stop-color="red" stop-opacity="0"/></linearGradient><linearGradient id="ah" x1="0.004" y1="0.485" x2="0.995" y2="0.505" gradientUnits="objectBoundingBox"><stop offset="0" stop-color="#ffb5b5"/><stop offset="0.23" stop-color="red" stop-opacity="0"/><stop offset="0.23" stop-color="#ff0505" stop-opacity="0.02"/><stop offset="0.29" stop-color="#ff5050" stop-opacity="0.31"/><stop offset="0.35" stop-color="#ff8e8e" stop-opacity="0.561"/><stop offset="0.4" stop-color="#ffbfbf" stop-opacity="0.749"/><stop offset="0.45" stop-color="#ffe2e2" stop-opacity="0.89"/><stop offset="0.49" stop-color="#fff7f7" stop-opacity="0.969"/><stop offset="0.51" stop-color="#fff"/><stop offset="0.53" stop-color="#f7feff" stop-opacity="0.969"/><stop offset="0.57" stop-color="#e2fbff" stop-opacity="0.89"/><stop offset="0.61" stop-color="#bff6ff" stop-opacity="0.749"/><stop offset="0.66" stop-color="#8fefff" stop-opacity="0.561"/><stop offset="0.71" stop-color="#51e6ff" stop-opacity="0.322"/><stop offset="0.77" stop-color="#06dbff" stop-opacity="0.02"/><stop offset="0.78" stop-color="#00daff" stop-opacity="0"/><stop offset="1" stop-color="#94efff"/></linearGradient><linearGradient id="ai" x1="0.844" y1="0.891" x2="0.396" y2="0.374" gradientUnits="objectBoundingBox"><stop offset="0" stop-color="#fff" stop-opacity="0.2"/><stop offset="0.19" stop-color="#fff" stop-opacity="0.11"/><stop offset="0.39" stop-color="#fff" stop-opacity="0.051"/><stop offset="0.62" stop-color="#fff" stop-opacity="0.012"/><stop offset="0.93" stop-color="#fff" stop-opacity="0"/></linearGradient><linearGradient id="aj" x1="-0.02" y1="0.596" x2="0.773" y2="0.45" xlink:href="#v"/><linearGradient id="ak" x1="-0.013" y1="0.994" x2="0.813" y2="0.223" xlink:href="#v"/><linearGradient id="al" x1="1.059" y1="0.61" x2="0.201" y2="0.441" xlink:href="#v"/><linearGradient id="am" x1="0.152" y1="0.156" x2="0.513" y2="0.607" gradientUnits="objectBoundingBox"><stop offset="0" stop-color="red" stop-opacity="0"/><stop offset="1" stop-color="#a3f1ff" stop-opacity="0.502"/></linearGradient><linearGradient id="an" x1="0.685" y1="0.709" x2="0.309" y2="0.284" gradientUnits="objectBoundingBox"><stop offset="0" stop-color="#fff"/><stop offset="1" stop-color="#d1d3d4"/></linearGradient><linearGradient id="ao" x1="0.04" y1="0.152" x2="1.565" y2="0.883" xlink:href="#an"/><linearGradient id="ap" x1="0.794" y1="0.143" x2="-0.07" y2="0.977" xlink:href="#an"/><linearGradient id="aq" x1="0.555" y1="0.816" x2="0.474" y2="0.129" gradientUnits="objectBoundingBox"><stop offset="0" stop-color="#fff"/><stop offset="0.39" stop-color="#fcfdfd"/><stop offset="0.63" stop-color="#f4f5f5"/><stop offset="0.82" stop-color="#e6e7e8"/><stop offset="0.99" stop-color="#d2d4d5"/><stop offset="1" stop-color="#d1d3d4"/></linearGradient><linearGradient id="ar" x1="0.759" y1="0.228" x2="0.463" y2="0.729" xlink:href="#an"/><linearGradient id="as" x1="0.333" y1="1.132" x2="0.576" y2="-0.153" gradientUnits="objectBoundingBox"><stop offset="0" stop-color="#fff"/><stop offset="0.34" stop-color="#fcfcfc"/><stop offset="0.6" stop-color="#f2f3f3"/><stop offset="0.83" stop-color="#e2e4e4"/><stop offset="1" stop-color="#d1d3d4"/></linearGradient><radialGradient id="at" cx="74.333" cy="-53.217" r="251.435" gradientTransform="matrix(0.519, -0.302, 0.124, 0.213, -76.365, -112.811)" gradientUnits="userSpaceOnUse"><stop offset="0" stop-color="#fff"/><stop offset="0.19" stop-color="#fff" stop-opacity="0.988"/><stop offset="0.33" stop-color="#fff" stop-opacity="0.949"/><stop offset="0.45" stop-color="#fff" stop-opacity="0.89"/><stop offset="0.56" stop-color="#fff" stop-opacity="0.8"/><stop offset="0.67" stop-color="#fff" stop-opacity="0.69"/><stop offset="0.77" stop-color="#fff" stop-opacity="0.549"/><stop offset="0.87" stop-color="#fff" stop-opacity="0.38"/><stop offset="0.96" stop-color="#fff" stop-opacity="0.188"/><stop offset="1" stop-color="#fff" stop-opacity="0.102"/></radialGradient><linearGradient id="au" x1="-0.108" y1="0.633" x2="0.602" y2="0.478" gradientUnits="objectBoundingBox"><stop offset="0" stop-color="#54e7ff" stop-opacity="0.302"/><stop offset="0.26" stop-color="#96f0ff" stop-opacity="0.18"/><stop offset="0.54" stop-color="#d0f8ff" stop-opacity="0.078"/><stop offset="0.8" stop-color="#f3fdff" stop-opacity="0.02"/><stop offset="1" stop-color="#fff" stop-opacity="0"/></linearGradient><linearGradient id="av" x1="0.71" y1="0.913" x2="0.502" y2="0.215" xlink:href="#au"/><linearGradient id="aw" x1="0.495" y1="0.98" x2="0.701" y2="0.039" gradientUnits="objectBoundingBox"><stop offset="0" stop-color="#fff"/><stop offset="0.45" stop-color="#fafbfb"/><stop offset="0.96" stop-color="#ededed"/><stop offset="1" stop-color="#ebecec"/></linearGradient><linearGradient id="ax" x1="0.986" y1="0.922" x2="0.037" y2="0.033" gradientUnits="objectBoundingBox"><stop offset="0" stop-color="#d1d3d4"/><stop offset="0.44" stop-color="#ccced0"/><stop offset="0.93" stop-color="#bfc1c2"/><stop offset="1" stop-color="#bcbec0"/></linearGradient><linearGradient id="ay" x1="0.965" y1="1.094" x2="0.038" y2="-0.123" gradientUnits="objectBoundingBox"><stop offset="0" stop-color="#a7a9ac"/><stop offset="0.02" stop-color="#a9abae"/><stop offset="0.43" stop-color="#cacccd"/><stop offset="0.77" stop-color="#dfe0e1"/><stop offset="1" stop-color="#e6e7e8"/></linearGradient><linearGradient id="az" x1="0.064" y1="0.638" x2="1.047" y2="0.316" gradientUnits="objectBoundingBox"><stop offset="0" stop-color="#fff"/><stop offset="0.23" stop-color="#fafbfb"/><stop offset="0.49" stop-color="#ededed"/><stop offset="0.51" stop-color="#ebecec"/><stop offset="0.62" stop-color="#e6e7e7"/><stop offset="0.75" stop-color="#d6d8d9"/><stop offset="0.9" stop-color="#bdbfc1"/><stop offset="1" stop-color="#a7a9ac"/></linearGradient><linearGradient id="ba" x1="-0.034" y1="0.537" x2="0.997" y2="0.475" gradientUnits="objectBoundingBox"><stop offset="0" stop-color="red"/><stop offset="0.03" stop-color="#f5080a"/><stop offset="0.24" stop-color="#ad4652"/><stop offset="0.44" stop-color="#71798e"/><stop offset="0.62" stop-color="#43a1bc"/><stop offset="0.78" stop-color="#21bede"/><stop offset="0.91" stop-color="#0cd0f3"/><stop offset="1" stop-color="#05d6fa"/></linearGradient><linearGradient id="bb" x1="-1.933" y1="0.616" x2="9.523" y2="0.057" xlink:href="#ba"/><linearGradient id="bc" x1="-0.368" y1="0.702" x2="1.435" y2="0.282" gradientUnits="objectBoundingBox"><stop offset="0" stop-color="#00daff" stop-opacity="0.698"/><stop offset="0.22" stop-color="#4be5ff" stop-opacity="0.522"/><stop offset="0.47" stop-color="#98f0ff" stop-opacity="0.341"/><stop offset="0.69" stop-color="#d0f8ff" stop-opacity="0.212"/><stop offset="0.88" stop-color="#f3fdff" stop-opacity="0.129"/><stop offset="1" stop-color="#fff" stop-opacity="0.102"/></linearGradient><linearGradient id="bd" x1="0.357" y1="0.961" x2="0.642" y2="0.041" xlink:href="#bc"/><linearGradient id="be" x1="-102.646" y1="0.98" x2="-102.427" y2="0.038" xlink:href="#aw"/><linearGradient id="bf" x1="1" y1="0.01" x2="0.027" y2="0.994" gradientUnits="objectBoundingBox"><stop offset="0" stop-color="#fff"/><stop offset="1" stop-color="#d5d5d5"/></linearGradient><linearGradient id="bg" x1="0.925" y1="-0.001" x2="0.021" y2="0.94" xlink:href="#ax"/><linearGradient id="bh" x1="-5.886" y1="1.094" x2="-6.813" y2="-0.123" xlink:href="#ay"/><linearGradient id="bi" x1="0.004" y1="1.289" x2="1.059" y2="-0.326" xlink:href="#ba"/><linearGradient id="bj" x1="-2.729" y1="4.082" x2="4.946" y2="-4.432" xlink:href="#ba"/><linearGradient id="bk" x1="0.221" y1="0.812" x2="7.898" y2="-7.71" xlink:href="#ba"/><linearGradient id="bl" x1="0.108" y1="1.109" x2="1.018" y2="0.042" xlink:href="#ba"/><linearGradient id="bm" x1="1.304" y1="0.906" x2="-0.156" y2="0.17" xlink:href="#bc"/><linearGradient id="bn" x1="0.656" y1="0.791" x2="0.329" y2="0.181" xlink:href="#bc"/><linearGradient id="bo" x1="1.211" y1="1.163" x2="-0.025" y2="0.011" xlink:href="#bc"/><linearGradient id="bp" x1="1.424" y1="0.798" x2="-0.223" y2="0.332" xlink:href="#bc"/><linearGradient id="bq" x1="1.288" y1="1.183" x2="0.094" y2="0.148" xlink:href="#bc"/><linearGradient id="br" x1="0.599" y1="0.798" x2="0.445" y2="0.029" xlink:href="#bc"/><linearGradient id="bs" x1="0.167" y1="0.798" x2="1.347" y2="0.376" xlink:href="#az"/><linearGradient id="bt" x1="0.496" y1="0.98" x2="0.711" y2="0.038" xlink:href="#aw"/><linearGradient id="bu" x1="0.986" y1="0.922" x2="0.037" y2="0.033" gradientUnits="objectBoundingBox"><stop offset="0" stop-color="#e6e7e8"/><stop offset="0.44" stop-color="#e1e3e4"/><stop offset="0.93" stop-color="#d4d5d6"/><stop offset="1" stop-color="#d1d3d4"/></linearGradient><linearGradient id="bx" x1="0.122" y1="0.771" x2="0.98" y2="0.157" gradientUnits="objectBoundingBox"><stop offset="0" stop-color="#00daff" stop-opacity="0.502"/><stop offset="0.2" stop-color="#59e7ff" stop-opacity="0.361"/><stop offset="0.4" stop-color="#a2f1ff" stop-opacity="0.251"/><stop offset="0.61" stop-color="#d5f9ff" stop-opacity="0.169"/><stop offset="0.81" stop-color="#f5fdff" stop-opacity="0.122"/><stop offset="1" stop-color="#fff" stop-opacity="0.102"/></linearGradient><linearGradient id="by" x1="-0.066" y1="0.486" x2="1.506" y2="0.525" xlink:href="#bx"/><linearGradient id="bz" x1="0.166" y1="0.931" x2="0.757" y2="0.171" xlink:href="#bx"/><linearGradient id="ca" x1="-0.314" y1="0.352" x2="1.226" y2="0.632" xlink:href="#bx"/><linearGradient id="cb" x1="-0.156" y1="0.616" x2="6.968" y2="-0.645" xlink:href="#ba"/><linearGradient id="cc" x1="-0.449" y1="0.68" x2="1.016" y2="0.402" xlink:href="#ba"/><linearGradient id="cd" x1="-3.348" y1="1.181" x2="3.779" y2="-0.08" xlink:href="#ba"/><linearGradient id="ce" x1="0.009" y1="0.592" x2="2.911" y2="0.118" xlink:href="#ba"/><linearGradient id="cf" x1="-252.954" y1="0.98" x2="-252.734" y2="0.038" xlink:href="#aw"/><linearGradient id="cg" x1="0.924" y1="-0.001" x2="0.021" y2="0.94" xlink:href="#ax"/><linearGradient id="ch" x1="-14.352" y1="1.094" x2="-15.279" y2="-0.123" xlink:href="#ay"/><linearGradient id="ci" x1="0.991" y1="0.012" x2="0.031" y2="0.994" gradientUnits="objectBoundingBox"><stop offset="0" stop-color="#fff"/><stop offset="1" stop-color="#d3d3d3"/></linearGradient><linearGradient id="cj" x1="1.003" y1="0.788" x2="-0.028" y2="0.327" xlink:href="#ba"/><linearGradient id="ck" x1="1" y1="1" x2="-0.182" y2="0" xlink:href="#bc"/><linearGradient id="cl" x1="0.8" y1="0.598" x2="-0.015" y2="0.295" xlink:href="#bc"/></defs><rect class="a" width="820.532" height="610.373"/><g transform="translate(64.216 128.089)"><g class="b" transform="translate(74.796 44.392)"><path class="c" d="M384.2,136.784c70.244,0,140.488,16,193.781,47.965,106.586,63.949,106.586,168.6,0,232.552C524.692,449.27,454.448,465.254,384.2,465.254S243.7,449.27,190.411,417.3c-106.574-63.949-106.574-168.6,0-232.552C243.7,152.781,313.948,136.784,384.2,136.784m0-1.144c-73.626,0-142.662,17.09-194.378,48.118-26.2,15.717-46.49,34.117-60.325,54.679-13.39,19.913-20.18,40.971-20.18,62.6s6.79,42.688,20.18,62.589c13.835,20.562,34.13,38.962,60.325,54.679,51.716,31.04,120.8,48.13,194.378,48.13s142.649-17.09,194.378-48.13c26.182-15.7,46.477-34.1,60.313-54.679,13.39-19.9,20.18-40.959,20.18-62.589s-6.79-42.688-20.18-62.6c-13.835-20.549-34.13-38.949-60.312-54.679C526.853,152.73,457.78,135.64,384.2,135.64Z" transform="translate(-109.32 -135.64)"/></g><g class="d"><path class="c" d="M399.15,102.192c89.1,0,178.2,20.346,245.8,60.834,135.2,81.116,135.2,213.847,0,295.014-67.6,40.552-156.7,60.834-245.8,60.834s-178.2-20.282-245.79-60.834c-135.2-81.116-135.2-213.847,0-295.014,67.586-40.552,156.688-60.834,245.79-60.834m0-1.462c-93.374,0-180.937,21.617-246.553,61.037C119.383,181.706,93.646,205,76.1,231.108c-16.989,25.254-25.6,51.958-25.6,79.4s8.609,54.145,25.6,79.4c17.548,26.068,43.235,49.4,76.5,69.328,65.615,39.42,153.178,61.037,246.553,61.037S580.1,498.592,645.7,459.235c33.227-19.926,58.965-43.235,76.513-69.328,16.989-25.254,25.6-51.958,25.6-79.4s-8.609-54.145-25.6-79.4c-17.548-26.081-43.235-49.4-76.513-69.341C580.1,122.411,492.537,100.73,399.15,100.73Z" transform="translate(-50.5 -100.73)"/></g><path class="c" d="M492.789,381.326c-6.854-4.107-6.867-10.847,0-14.967s18.07-4.107,24.924,0,6.867,10.847,0,14.967S499.656,385.446,492.789,381.326Z" transform="translate(68.233 -29.42)"/><path class="c" d="M492.789,381.326c-6.854-4.107-6.867-10.847,0-14.967s18.07-4.107,24.924,0,6.867,10.847,0,14.967S499.656,385.446,492.789,381.326Z" transform="translate(68.233 -29.42)"/><path class="c" d="M139.84,381.326c-6.867-4.107-6.867-10.847,0-14.967s18.082-4.107,24.936,0,6.854,10.847,0,14.967S146.707,385.446,139.84,381.326Z" transform="translate(-27.633 -29.42)"/><path class="c" d="M492.789,169.566c-6.854-4.12-6.867-10.86,0-14.967s18.07-4.12,24.924,0,6.867,10.86,0,14.967S499.656,173.749,492.789,169.566Z" transform="translate(68.233 -86.937)"/><path class="c" d="M139.84,169.566c-6.867-4.12-6.867-10.86,0-14.967s18.082-4.12,24.936,0,6.854,10.86,0,14.967S146.707,173.749,139.84,169.566Z" transform="translate(-27.633 -86.937)"/><path class="e" d="M494.94,384.322l.1-59.842,16.531,10.084v49.758Z" transform="translate(70.215 -39.957)"/><path class="f" d="M497.367,365.929c-3.23-1.946-3.23-5.086,0-7.057a12.6,12.6,0,0,1,11.775,0c3.23,1.946,3.23,5.086,0,7.057a12.6,12.6,0,0,1-11.775,0Z" transform="translate(70.216 -31.012)"/><path class="g" d="M497.367,359.642c-3.23-1.946-3.23-5.086,0-7.07a12.6,12.6,0,0,1,11.775,0c3.23,1.946,3.23,5.086,0,7.07a12.716,12.716,0,0,1-11.775,0Z" transform="translate(70.216 -32.723)"/><path class="h" d="M497.367,350.879c-3.23-1.946-3.23-5.086,0-7.057a12.6,12.6,0,0,1,11.775,0c3.23,1.946,3.23,5.086,0,7.057A12.6,12.6,0,0,1,497.367,350.879Z" transform="translate(70.216 -35.1)"/><path class="i" d="M497.367,339.879c-3.23-1.946-3.23-5.086,0-7.057a12.6,12.6,0,0,1,11.775,0c3.23,1.946,3.23,5.086,0,7.057A12.6,12.6,0,0,1,497.367,339.879Z" transform="translate(70.216 -38.088)"/><path class="e" d="M142,384.372l.1-59.842,16.531,10.084v49.758Z" transform="translate(-25.648 -39.943)"/><path class="j" d="M144.429,365.981c-3.243-1.946-3.243-5.086,0-7.07a12.614,12.614,0,0,1,11.762,0c3.243,1.933,3.243,5.086,0,7.057a12.576,12.576,0,0,1-11.762.013Z" transform="translate(-25.648 -31)"/><path class="k" d="M144.429,359.679c-3.243-1.933-3.243-5.086,0-7.057a12.576,12.576,0,0,1,11.762,0c3.243,1.946,3.243,5.086,0,7.07A12.614,12.614,0,0,1,144.429,359.679Z" transform="translate(-25.648 -32.71)"/><path class="l" d="M144.429,350.931c-3.243-1.946-3.243-5.086,0-7.07a12.614,12.614,0,0,1,11.762,0c3.243,1.933,3.243,5.086,0,7.057A12.576,12.576,0,0,1,144.429,350.931Z" transform="translate(-25.648 -35.088)"/><path class="m" d="M144.429,339.931c-3.243-1.946-3.243-5.086,0-7.07a12.614,12.614,0,0,1,11.762,0c3.243,1.933,3.243,5.086,0,7.057A12.576,12.576,0,0,1,144.429,339.931Z" transform="translate(-25.648 -38.076)"/><path class="n" d="M142,172.6l.1-59.829,16.531,10.071V172.6Z" transform="translate(-25.648 -97.46)"/><path class="o" d="M144.429,154.222c-3.243-1.946-3.243-5.086,0-7.07a12.576,12.576,0,0,1,11.762,0c3.243,1.946,3.243,5.086,0,7.07A12.716,12.716,0,0,1,144.429,154.222Z" transform="translate(-25.648 -88.518)"/><path class="p" d="M144.429,147.921c-3.243-1.946-3.243-5.086,0-7.07a12.614,12.614,0,0,1,11.762,0c3.243,1.933,3.243,5.086,0,7.057a12.576,12.576,0,0,1-11.762.013Z" transform="translate(-25.648 -90.228)"/><path class="q" d="M144.429,139.172c-3.243-1.946-3.243-5.086,0-7.07a12.576,12.576,0,0,1,11.762,0c3.243,1.946,3.243,5.086,0,7.07A12.716,12.716,0,0,1,144.429,139.172Z" transform="translate(-25.648 -92.606)"/><path class="r" d="M144.429,128.172c-3.243-1.946-3.243-5.086,0-7.07a12.576,12.576,0,0,1,11.762,0c3.243,1.946,3.243,5.086,0,7.07a12.716,12.716,0,0,1-11.762,0Z" transform="translate(-25.648 -95.593)"/><path class="n" d="M494.95,172.6l.1-59.829,16.531,10.071V172.6Z" transform="translate(70.218 -97.46)"/><path class="s" d="M497.378,154.222c-3.23-1.946-3.243-5.086,0-7.07a12.576,12.576,0,0,1,11.762,0c3.243,1.946,3.243,5.086,0,7.07a12.716,12.716,0,0,1-11.762,0Z" transform="translate(70.218 -88.518)"/><path class="t" d="M497.378,147.921c-3.23-1.946-3.243-5.086,0-7.07a12.614,12.614,0,0,1,11.762,0c3.243,1.933,3.243,5.086,0,7.057a12.6,12.6,0,0,1-11.762.013Z" transform="translate(70.218 -90.228)"/><path class="u" d="M497.378,139.172c-3.23-1.946-3.243-5.086,0-7.07a12.576,12.576,0,0,1,11.762,0c3.243,1.946,3.243,5.086,0,7.07a12.716,12.716,0,0,1-11.762,0Z" transform="translate(70.218 -92.606)"/><path class="v" d="M497.378,128.172c-3.23-1.946-3.243-5.086,0-7.07a12.576,12.576,0,0,1,11.762,0c3.243,1.946,3.243,5.086,0,7.07a12.716,12.716,0,0,1-11.762,0Z" transform="translate(70.218 -95.593)"/></g><g transform="translate(75.108 134.816)"><path class="c" d="M416.51,326.659V316.69l219.862,131.9a3.192,3.192,0,0,1,0,5.468h0a7.337,7.337,0,0,1-7.528,0Z" transform="translate(38.021 -48.799)"/><path class="c" d="M280.9,316.68,60.406,448.927a2.734,2.734,0,0,0,0,4.705h0a8.494,8.494,0,0,0,8.774,0L289.144,321.677Z" transform="translate(-59.065 -48.802)"/><path class="c" d="M423.08,229.341l8.265,4.959L635.057,112.086a2.848,2.848,0,0,0,0-4.883h0a8.215,8.215,0,0,0-8.494,0Z" transform="translate(39.805 -106.02)"/><path class="c" d="M264.245,234.285,60.482,112.02a2.8,2.8,0,0,1,0-4.807h0a8.342,8.342,0,0,1,8.66.051L272.6,229.339Z" transform="translate(-59.052 -106.018)"/></g><g transform="translate(75.178 8.749)"><path class="w" d="M59.12,136.139V6.88H272.56l.025,259.332Z" transform="translate(-59.12 -6.88)"/><path class="x" d="M632.9,136.533V7.618L436.123,6.88l-.013,249.337Z" transform="translate(43.275 -6.88)"/></g><g transform="translate(200.876 11.355)"><path class="y" d="M164.129,346.327,353.345,459.856a33.062,33.062,0,0,0,34.028,0L576.589,346.327a12.589,12.589,0,0,0,6.167-10.9V8.93H158v326.5a12.589,12.589,0,0,0,6.129,10.9Z" transform="translate(-157.962 -8.93)"/><rect class="z" width="212.384" height="301.664" transform="translate(0 24.822)"/><rect class="aa" width="212.384" height="301.664" transform="translate(424.794 326.499) rotate(180)"/></g><g transform="translate(200.87 208.701)"><path class="c" d="M387.383,417.7,576.6,304.174a12.716,12.716,0,0,0,0-21.808L387.383,168.837a33.062,33.062,0,0,0-34.028,0L164.139,282.366a12.716,12.716,0,0,0,0,21.808L353.354,417.7A33.062,33.062,0,0,0,387.383,417.7Z" transform="translate(-157.965 -164.123)"/></g><g transform="translate(222.151 99.275)"><path class="ab" d="M383.524,301.123,552.648,199.636a8.9,8.9,0,0,0,0-15.2L383.524,82.966a34.333,34.333,0,0,0-35.338,0l-169.2,101.525a8.8,8.8,0,0,0,0,15.107l169.2,101.525a34.333,34.333,0,0,0,35.338,0Z" transform="translate(-174.7 -78.07)"/></g><g transform="translate(222.112 213.186)"><path class="ac" d="M516.108,167.714a8.774,8.774,0,0,1-4.3,7.63L342.685,276.831a34.423,34.423,0,0,1-17.675,4.9V421.464a33.056,33.056,0,0,0,17.009-4.714l91.027-54.682,8.329,4.947v-9.931l74.783-44.875V167.65Z" transform="translate(-133.836 -167.65)"/><path class="ad" d="M347.266,276.024,178.052,174.5c-2.848-1.7-3.382-3.344-3.382-6.269h0V312.1L249.492,357v9.919l8.329-4.934,91,54.6a33.063,33.063,0,0,0,17.014,4.718v-140.2A37.678,37.678,0,0,1,347.266,276.024Z" transform="translate(-174.67 -167.492)"/></g><g transform="translate(222.097 99.27)"><path class="ae" d="M383.523,301.124,552.761,199.573a8.774,8.774,0,0,0,0-15.069L383.523,82.954a34.334,34.334,0,0,0-35.313,0l-169.3,101.589a8.736,8.736,0,0,0,0,14.992L348.223,301.124a34.333,34.333,0,0,0,35.3,0Z" transform="translate(-174.658 -78.066)"/><path class="af" d="M516.11,168.244a8.812,8.812,0,0,1-4.3,7.63L342.675,277.31a34.333,34.333,0,0,1-17.675,4.9V421.32a33.056,33.056,0,0,0,17.009-4.714l91.027-54.682,8.329,4.947v-9.944l74.771-44.862V168.18Z" transform="translate(-133.823 -53.59)"/></g><g transform="translate(222.128 99.523)"><path class="ag" d="M384.343,300.536l168.412-101a8.825,8.825,0,0,0,0-15.132L384.343,83.4a35.974,35.974,0,0,0-37.029,0l-168.349,101a8.825,8.825,0,0,0,0,15.132l168.349,101a35.974,35.974,0,0,0,37.029,0Z" transform="translate(-174.682 -78.266)"/></g><g transform="translate(222.061 212.003)"><path class="ah" d="M556.953,168.244a8.812,8.812,0,0,1-4.3,7.63L383.518,277.31a34.334,34.334,0,0,1-35.351,0L178.915,175.81a8.774,8.774,0,0,1-4.285-7.63h0V312.114L249.439,357V367l8.291-5.01,91.035,54.679a33.062,33.062,0,0,0,34.028,0l91.022-54.679,8.329,5.01V357l74.8-44.875V168.244Z" transform="translate(-174.63 -166.323)"/><path class="ai" d="M552.652,172.43,383.515,273.891a34.334,34.334,0,0,1-35.351,0l-169.251-101.5a8.672,8.672,0,0,1-4.056-5.659,8.774,8.774,0,0,0,4.056,9.474l169.251,101.5a34.334,34.334,0,0,0,35.351,0L552.639,176.232a8.9,8.9,0,0,0,4.082-9.512,8.761,8.761,0,0,1-4.069,5.71Z" transform="translate(-174.627 -166.72)"/></g><g transform="translate(75.114 238.007)"><path class="aj" d="M616.875,473.635V311.416L494.94,238.26V397.834Z" transform="translate(59.317 -173.293)"/><path class="ak" d="M518.118,421.68l-.1-169.544L410.2,187.17l-.216,169.62Z" transform="translate(36.241 -187.17)"/><path class="al" d="M59.07,474.626V312.394L189.461,234.33V403.823Z" transform="translate(-59.07 -174.361)"/><path class="am" d="M161.61,416.6V247.109l99.516-59.829.216,169.48Z" transform="translate(-31.219 -187.14)"/></g><g transform="translate(321.857 158.354)"><path class="an" d="M311.3,239.229l132.972-79.794L386.1,124.53,253.11,204.324Z" transform="translate(-253.11 -124.53)"/></g><g transform="translate(321.857 26.506)"><path class="c" d="M386.1,22.57,253.11,102.351V222.035L311.3,256.941,444.271,177.16V57.476Z" transform="translate(-253.11 -20.376)"/><path class="ao" d="M289.6,92.8a2.543,2.543,0,0,1-2.543-2.543v-19.7c0-18.667,9.88-39.776,22.012-47.05,5.252-3.154,10.567-3.522,14.954-1.03,6.155,3.471,9.677,11.915,9.677,23.156v19.7a2.543,2.543,0,0,1-5.086,0v-19.7c0-9.219-2.645-16.213-7.1-18.731-3.5-1.984-7.274-.572-9.83.954-10.592,6.358-19.545,25.915-19.545,42.7v19.7A2.543,2.543,0,0,1,289.6,92.8Z" transform="translate(-243.889 -20.844)"/><path class="ap" d="M289.6,92.8a2.543,2.543,0,0,1-2.543-2.543v-19.7c0-18.667,9.88-39.776,22.012-47.05,5.252-3.154,10.567-3.522,14.954-1.03,6.155,3.471,9.677,11.915,9.677,23.156v19.7a2.543,2.543,0,0,1-5.086,0v-19.7c0-9.219-2.645-16.213-7.1-18.731-3.5-1.984-7.274-.572-9.83.954-10.592,6.358-19.545,25.915-19.545,42.7v19.7A2.543,2.543,0,0,1,289.6,92.8Z" transform="translate(-243.889 -20.844)"/><path class="aq" d="M298.87,249.485,431.842,169.7V50.02L298.87,129.814Z" transform="translate(-240.681 -12.92)"/><path class="ar" d="M305.084,236.171,275.99,183.818V99.04L305.084,116.5Z" transform="translate(-246.896 0.394)"/><path class="as" d="M282.2,187.548,253.11,204.994V85.31L282.2,102.769Z" transform="translate(-253.11 -3.335)"/><path class="at" d="M386.1,92.381V22.57L253.11,102.351,311.3,137.269Z" transform="translate(-253.11 -20.376)"/><path class="au" d="M311.3,218.062,253.11,183.156,282.2,165.71Z" transform="translate(-253.11 18.503)"/><path class="av" d="M415.866,57.476,357.69,22.57V92.381Z" transform="translate(-224.705 -20.376)"/></g><g transform="translate(321.857 28.7)"><path class="aw" d="M444.271,57.476,386.1,22.57,253.11,102.351,311.3,137.269Z" transform="translate(-253.11 -22.57)"/></g><g transform="translate(321.857 3.764)"><path class="ax" d="M311.3,142.6,253.11,107.677V2.96H311.3Z" transform="translate(-253.11 -2.96)"/><path class="ay" d="M415.866,62.8,357.69,27.9V2.96h58.176Z" transform="translate(-224.705 -2.96)"/></g><g transform="translate(421.196 61.523)"><path class="c" d="M363.93,87.573a8.215,8.215,0,0,1,3.535-6.358c1.946-1.157,3.535-.2,3.535,2.124a8.215,8.215,0,0,1-3.535,6.358C365.519,90.854,363.93,89.9,363.93,87.573Z" transform="translate(-322.348 -39.598)"/><path class="c" d="M331.23,107.463a8.215,8.215,0,0,1,3.535-6.358c1.946-1.157,3.548-.2,3.548,2.124a8.189,8.189,0,0,1-3.548,6.358C332.819,110.795,331.23,109.841,331.23,107.463Z" transform="translate(-331.23 -34.195)"/><path class="ao" d="M335.353,120.378a2.543,2.543,0,0,1-2.543-2.543V98.087c0-18.667,9.88-39.776,22.012-47.05,5.252-3.141,10.567-3.51,14.967-1.03,6.142,3.484,9.664,11.928,9.664,23.156V92.848a2.543,2.543,0,1,1-5.086,0V73.15c0-9.206-2.645-16.213-7.083-18.718-3.51-1.984-7.286-.572-9.842.954C346.849,61.744,337.9,81.3,337.9,98.087v19.748A2.543,2.543,0,0,1,335.353,120.378Z" transform="translate(-330.801 -48.382)"/><path class="az" d="M355.138,116.676l15.7-9.41c.649-.381,1.17-.076,1.17.572v6.968a2.276,2.276,0,0,1-1.183,1.755l-22.457,13.466c-.661.394-1.183.178-1.183-.483v-.191c0-4.4,3.6-10.071,7.973-12.716" transform="translate(-326.895 -32.434)"/><path class="az" d="M366.573,121.036,340.912,136.41a2.441,2.441,0,0,0-1.132,1.818v7.032c0,.636.509.839,1.132.458l8.024-4.807v25.9c0,.865.687,1.144,1.551.636l6.193-3.675a3.37,3.37,0,0,0,1.564-2.543V135.354l8.316-4.985a2.441,2.441,0,0,0,1.132-1.818v-7.045c0-.623-.5-.827-1.119-.445" transform="translate(-328.908 -28.694)"/></g><g transform="translate(587.802 298.702)"><path class="ba" d="M545.35,369.788l4.425-2.543a4.158,4.158,0,0,0,2.047-3.573V291.19l-4.158,2.543Z" transform="translate(-439.679 -219.611)"/><path class="bb" d="M472.431,235.51a4.247,4.247,0,0,0-4.387,0l-4.514,2.708L567.8,300.248,569.938,309l4.158-2.543v-4.285a9.982,9.982,0,0,0-4.845-8.545Z" transform="translate(-461.902 -234.9)"/><path class="bc" d="M570.235,308.467v-5.239a8.367,8.367,0,0,0-4.057-7.172l-97.57-58.6a4.184,4.184,0,0,0-6.358,3.586v2.543Z" transform="translate(-462.25 -234.37)"/><path class="bd" d="M570.23,379.377V307.022L462.27,242.17V317.2a8.393,8.393,0,0,0,4.095,7.223l97.494,58.558a4.209,4.209,0,0,0,6.371-3.6Z" transform="translate(-462.244 -232.925)"/><ellipse class="c" cx="1.539" cy="2.709" rx="1.539" ry="2.709" transform="matrix(0.879, -0.476, 0.476, 0.879, 99.359, 63.989)"/><ellipse class="c" cx="1.539" cy="2.709" rx="1.539" ry="2.709" transform="matrix(0.879, -0.476, 0.476, 0.879, 93.376, 60.462)"/><path class="c" d="M490.184,273.56l-8.3,4.985v9.982l8.3,14.954,41.556,24.936V298.5ZM529.2,323.928,492.078,301.65l-7.63-13.784v-7.871l5.76-3.471,39.013,23.41Z" transform="translate(-456.918 -224.4)"/><path class="c" d="M488.853,283.433c-1.132-.687-2.073-.127-2.073,1.272a4.87,4.87,0,0,0,2.073,3.739c1.145.687,2.086.114,2.086-1.272a4.807,4.807,0,0,0-2.085-3.739Z" transform="translate(-455.587 -221.798)"/><path class="be" d="M477.114,281.4l-8.3,5v9.969l8.3,14.954,41.531,24.936V306.324ZM516.1,331.756l-37.118-22.279-7.63-13.784v-7.871l5.76-3.459,38.988,23.41Z" transform="translate(-460.468 -222.27)"/><path class="bf" d="M475.783,291.273c-1.144-.687-2.073-.127-2.073,1.272a4.82,4.82,0,0,0,2.073,3.739c1.144.687,2.085.127,2.085-1.272A4.832,4.832,0,0,0,475.783,291.273Z" transform="translate(-459.137 -219.668)"/><path class="bg" d="M508.02,333.06l16.62-9.969V293.17l-16.62,9.969Z" transform="translate(-449.818 -219.073)"/><path class="bh" d="M475.34,283.529l16.633-9.969L533.516,298.5l-16.62,9.969Z" transform="translate(-458.695 -224.4)"/></g><g transform="translate(126.64 298.803)"><path class="bi" d="M105.694,369.659l-4.095-2.442a4.12,4.12,0,0,1-2.009-3.548V291.29l4.158,2.543Z" transform="translate(-99.59 -219.686)"/><path class="bj" d="M102.82,379.381V307.1L210.78,242.25v75.025a8.456,8.456,0,0,1-4.095,7.248l-97.431,58.494a4.247,4.247,0,0,1-6.434-3.637Z" transform="translate(-98.713 -233.005)"/><path class="bk" d="M201.192,235.59a4.247,4.247,0,0,1,4.387,0l4.514,2.709L105.884,300.328l-2.136,8.749-4.158-2.543V302.2a9.97,9.97,0,0,1,4.833-8.546Z" transform="translate(-99.59 -234.98)"/><path class="bl" d="M102.86,308.549V303.31a8.367,8.367,0,0,1,4.057-7.172l97.57-58.6a4.171,4.171,0,0,1,6.358,3.586v2.543Z" transform="translate(-98.702 -234.452)"/><ellipse class="c" cx="2.709" cy="1.539" rx="2.709" ry="1.539" transform="matrix(0.476, -0.879, 0.879, 0.476, 98.25, 12.7)"/><ellipse class="c" cx="2.709" cy="1.539" rx="2.709" ry="1.539" transform="matrix(0.476, -0.879, 0.879, 0.476, 104.248, 9.17)"/><path class="c" d="M128.93,298.764l3.586,15.946L165.578,300.8l6.358-27.848Zm34.41.407-29.107,11.546L131.817,300l36.317-21.8Z" transform="translate(-91.621 -224.667)"/><path class="c" d="M159.7,300.348a6.879,6.879,0,0,0-2.963,5.328c0,1.946,1.272,2.734,2.95,1.768a6.879,6.879,0,0,0,2.963-5.315C162.653,300.17,161.331,299.382,159.7,300.348Z" transform="translate(-84.067 -217.337)"/><path class="c" d="M136.63,314.389a6.867,6.867,0,0,0-2.95,5.315c0,1.946,1.272,2.747,2.95,1.768a6.867,6.867,0,0,0,2.95-5.315C139.529,314.211,138.194,313.41,136.63,314.389Z" transform="translate(-90.331 -213.525)"/><path class="c" d="M182.06,268.472l-4.145,2.492L169.6,305.87,132.2,328.3V325.02l34.664-20.842,8.3-34.791,6.892-4.247Z" transform="translate(-90.733 -226.788)"/><path class="bm" d="M142,306.574l3.586,15.946,33.062-13.911,6.358-27.848Zm34.41.407L147.3,318.527l-2.416-10.72,36.317-21.8Z" transform="translate(-88.071 -222.546)"/><path class="bn" d="M172.773,308.158a6.879,6.879,0,0,0-2.963,5.315c0,1.958,1.335,2.747,2.95,1.78a6.88,6.88,0,0,0,2.963-5.315C175.723,307.98,174.4,307.192,172.773,308.158Z" transform="translate(-80.517 -215.216)"/><path class="bo" d="M149.63,322.2a6.866,6.866,0,0,0-2.95,5.315c0,1.946,1.272,2.747,2.95,1.768a6.88,6.88,0,0,0,2.963-5.315C152.618,322.058,151.283,321.219,149.63,322.2Z" transform="translate(-86.8 -211.403)"/><path class="bp" d="M195.143,276.282l-4.158,2.492-8.316,34.906-37.4,22.444V332.83l34.664-20.842,8.3-34.791,6.9-4.247Z" transform="translate(-87.183 -224.667)"/><path class="bq" d="M189.515,275.071l-16.633-9.931-6.892,4.247,16.62,9.931Z" transform="translate(-81.555 -226.788)"/><path class="br" d="M188.569,282.881l-16.62-9.931L128.93,298.764l16.62,9.931Z" transform="translate(-91.621 -224.667)"/><path class="bs" d="M132.516,309.2l16.62,9.931-3.586-15.946-16.62-9.931Z" transform="translate(-91.621 -219.153)"/><path class="bt" d="M174.67,313.2l8.3-34.791-16.62-9.931-1.7,7.134,14.217,8.482L172.5,311.944Z" transform="translate(-81.919 -225.881)"/><path class="bu" d="M132.2,315.511l16.62,9.944v-3.293L132.2,312.23Z" transform="translate(-90.733 -213.998)"/><path class="bv" d="M183.484,303.919l-2.174-1.259-33.062,13.911-9.5-5.684-6.549,3.942,16.62,9.931Z" transform="translate(-90.733 -216.597)"/></g><g transform="translate(130.722 24.444)"><path class="bw" d="M135.43,87.459l16.62,9.982V77.49" transform="translate(-93.937 -3.397)"/><path class="bx" d="M186.11,153.976l4.133-2.429a4.2,4.2,0,0,0,2.073-3.624V75.53l-4.158,2.543Z" transform="translate(-80.172 -3.929)"/><path class="by" d="M112.981,19.83a4.247,4.247,0,0,0-4.374,0l-4.527,2.721L208.352,84.567l2.136,8.749,4.158-2.543V86.487a9.982,9.982,0,0,0-4.845-8.545Z" transform="translate(-102.452 -19.223)"/><path class="bc" d="M210.785,92.787V87.548a8.367,8.367,0,0,0-4.057-7.172l-97.57-58.6a4.184,4.184,0,0,0-6.358,3.586v2.543Z" transform="translate(-102.8 -18.694)"/><path class="bd" d="M210.78,163.684V91.342L102.82,26.49v75.025a8.4,8.4,0,0,0,4.044,7.235l97.494,58.494a4.209,4.209,0,0,0,6.422-3.561Z" transform="translate(-102.795 -17.249)"/><ellipse class="c" cx="1.539" cy="2.709" rx="1.539" ry="2.709" transform="matrix(0.879, -0.476, 0.476, 0.879, 99.362, 64.006)"/><ellipse class="c" cx="1.539" cy="2.709" rx="1.539" ry="2.709" transform="matrix(0.879, -0.476, 0.476, 0.879, 93.379, 60.467)"/><ellipse class="c" cx="3.421" cy="6.053" rx="3.421" ry="6.053" transform="translate(27.458 78.468) rotate(-28.16)"/><path class="c" d="M139.17,61.8V96.718l10.313,6.18a4.718,4.718,0,0,1,4.476-3.306,6.053,6.053,0,0,1,3.154.954A12.068,12.068,0,0,1,162.5,110.2v.5l9.944,5.964V81.752Zm30.709,50.369-4.87-2.925a14.725,14.725,0,0,0-6.587-10.885,8.66,8.66,0,0,0-4.463-1.272,7.108,7.108,0,0,0-5.328,2.378l-6.918-4.158V66.3l28.166,16.887Z" transform="translate(-92.921 -7.659)"/><ellipse class="c" cx="3.421" cy="6.053" rx="3.421" ry="6.053" transform="translate(57.01 96.31) rotate(-28.16)"/><path class="c" d="M127.036,61.9a2.861,2.861,0,0,0-4.336,2.454V84.43l1.653.916a4.718,4.718,0,0,1,4.527-3.51,6.053,6.053,0,0,1,3.154.954,12.068,12.068,0,0,1,5.392,9.652v.127l2.085,1.144V69.375Zm4.184,14.954-6.231-3.815V65.6l6.358,3.7Z" transform="translate(-97.395 -7.743)"/><path class="bz" d="M126.11,71.782,142.717,61.8,175.97,81.752l-16.62,9.969Z" transform="translate(-96.469 -7.659)"/><path class="ca" d="M168.87,77.49l-16.62,9.969v34.906l16.62-9.969Z" transform="translate(-89.369 -3.397)"/><path class="cb" d="M128.06,61.55l-16.9,10.058,14.852,7.719,16.62-9.969L129.7,61.652Z" transform="translate(-100.529 -7.727)"/><path class="cc" d="M139.46,67.69V92.029l-16.62,9.982V77.659Z" transform="translate(-97.357 -6.059)"/><ellipse class="cd" cx="3.421" cy="6.053" rx="3.421" ry="6.053" transform="translate(10.851 88.443) rotate(-28.16)"/><path class="ce" d="M126.11,69.65v34.906l10.313,6.18a4.7,4.7,0,0,1,4.476-3.293,6.155,6.155,0,0,1,3.154.941,12.093,12.093,0,0,1,5.392,9.664v.483l9.944,5.964V89.589Zm30.7,50.356-4.858-2.861a14.687,14.687,0,0,0-6.587-10.885,8.545,8.545,0,0,0-4.463-1.272,7.134,7.134,0,0,0-5.328,2.365l-6.918-4.2V74.139l28.153,16.9Z" transform="translate(-96.469 -5.527)"/><ellipse class="cf" cx="3.421" cy="6.053" rx="3.421" ry="6.053" transform="translate(40.404 106.285) rotate(-28.16)"/><path class="cg" d="M113.976,69.737a2.861,2.861,0,0,0-4.336,2.454V92.27l1.64.916a4.743,4.743,0,0,1,4.54-3.51,6.078,6.078,0,0,1,3.154.954,12.131,12.131,0,0,1,5.392,9.664s0,.076,0,.114l2.073,1.157V77.215Zm4.184,14.954-6.231-3.815-.076-7.426,6.358,3.688Z" transform="translate(-100.942 -5.614)"/></g><g transform="translate(583.746 24.394)"><path class="ch" d="M465.161,153.948l-3.98-2.391a4.349,4.349,0,0,1-2.111-3.726V75.49l4.145,2.543Z" transform="translate(-459.057 -3.89)"/><path class="ci" d="M560.713,19.789a4.273,4.273,0,0,1,4.387,0l4.514,2.721L465.342,84.54l-2.136,8.736-4.145-2.543V86.409a9.944,9.944,0,0,1,4.832-8.545Z" transform="translate(-459.06 -19.183)"/><path class="cj" d="M462.33,92.744V87.505a8.342,8.342,0,0,1,4.069-7.159l97.558-58.6a4.184,4.184,0,0,1,6.358,3.586v2.543Z" transform="translate(-458.172 -18.652)"/><path class="ck" d="M462.33,163.72V91.3L570.29,26.45v75.025a8.52,8.52,0,0,1-4.107,7.274L468.65,167.306a4.184,4.184,0,0,1-6.32-3.586Z" transform="translate(-458.172 -17.21)"/><ellipse class="c" cx="2.709" cy="1.539" rx="2.709" ry="1.539" transform="matrix(0.476, -0.879, 0.879, 0.476, 98.27, 12.694)"/><ellipse class="c" cx="2.709" cy="1.539" rx="2.709" ry="1.539" transform="matrix(0.476, -0.879, 0.879, 0.476, 104.268, 9.165)"/><path class="c" d="M535.262,98.024,519.125,88.41a33.444,33.444,0,0,0,3.4-13.873c0-10.58-7.223-14.916-16.035-9.613S490.45,83.2,490.45,93.789s7.21,14.9,16.035,9.613A32.579,32.579,0,0,0,517,92.34l16.111,9.55Zm-30.519,2.543a10.961,10.961,0,0,1-5.443,1.793c-5.226,0-5.633-6.6-5.633-8.609,0-9.435,6.612-21.363,14.445-26.068a11.051,11.051,0,0,1,5.443-1.793c5.226,0,5.646,6.587,5.646,8.609.051,9.486-6.574,21.414-14.407,26.119Z" transform="translate(-450.534 -7.375)"/><path class="cl" d="M550.344,106.43l-16.175-9.6a33.494,33.494,0,0,0,3.421-13.861c0-10.593-7.21-14.916-16.035-9.626S505.52,91.628,505.52,102.208s7.21,14.916,16.035,9.626a32.693,32.693,0,0,0,10.516-11.076l16.022,9.55Zm-30.519,2.543a10.961,10.961,0,0,1-5.43,1.793c-5.239,0-5.646-6.587-5.646-8.609,0-9.423,6.612-21.363,14.445-26.055a11.051,11.051,0,0,1,5.443-1.793c5.239,0,5.646,6.587,5.646,8.609.038,9.473-6.536,21.414-14.42,26.106Z" transform="translate(-446.441 -5.087)"/><path class="cm" d="M509.86,104.34l.14.076h0Z" transform="translate(-445.262 3.946)"/><path class="cn" d="M509.608,104.485c0-10.58,7.21-23.576,16.035-28.866,3.815-2.276,7.3-2.759,10.058-1.742L517.848,63.794h-.076l-.153-.089h0c-2.887-1.615-6.8-1.348-11.114,1.272-8.825,5.29-16.035,18.273-16.035,28.866,0,4.7,1.424,8.164,3.815,10.1h.076a7.958,7.958,0,0,0,2.174,1.272l17.459,9.817C511.261,113.158,509.608,109.546,509.608,104.485Z" transform="translate(-450.529 -7.364)"/></g></svg>