<svg xmlns="http://www.w3.org/2000/svg" width="78.869" height="88" viewBox="0 0 78.869 88"><defs><style>.a{fill:#009f55;}</style></defs><g transform="translate(-14.129 0.01)"><path class="a" d="M300.486,292.745a7.553,7.553,0,0,0,3.776,8.289c2.851,1.473,6.816,1.114,10.479-1.888,7.987-6.722,7.647-17.825-.17-18.882a8.38,8.38,0,0,0-1.171-.094c-5.853,0-11.9,6.137-12.9,12.727" transform="translate(-286.174 -253.405)"/><path class="a" d="M321.535,266.877c-1.775.283-1.624,1.3.245,1.152a45.072,45.072,0,0,1,41.937,22.659,40.974,40.974,0,0,1-15.106,55.929c-22.168,12.424-27.4-19.2-27.4-19.2-.925-3.588-1.02-7.723-5.986-8.4a11.462,11.462,0,0,0-9.837,3.4c-4.116,4.645-1.888,10.1-.208,13.633a49.1,49.1,0,0,0,5.381,9.045s13.8,17.541,39.086,3.38c23.98-13.444,33.893-41.333,22.13-62.311-7.76-13.878-22.961-20.166-39.426-20.166a70.208,70.208,0,0,0-10.82.869" transform="translate(-283.734 -266)"/><path class="a" d="M317.875,275.658a3.474,3.474,0,0,0-2.927,4.192L325.9,324.827a3.04,3.04,0,0,0,4.418,1.888,28.437,28.437,0,0,0,14.577-32.1,24.547,24.547,0,0,0-23.6-19.335,23.288,23.288,0,0,0-3.418.245" transform="translate(-273.239 -257.749)"/></g></svg>