<svg xmlns="http://www.w3.org/2000/svg" width="130.01" height="92.698" viewBox="0 0 130.01 92.698"><defs><style>.a{fill:#f47b20;}.b{fill:#fff;}</style></defs><path class="a" d="M127.948,20.656c-.283-.537-.565-.989-1.159.226a12.659,12.659,0,0,1-6.075,6.612c-5.086,2.826-7.347,1.582-7.432,1.385s.65-.4,1.667-.876a26.223,26.223,0,0,0,6.556-4.323c2.261-2.232,4.323-6.358,2.4-13.507C121.505,1.865,111.644,0,111.644,0a.48.48,0,0,0-.4.565,20.034,20.034,0,0,1-3.08,18A29.246,29.246,0,0,1,94.8,28.257a5.962,5.962,0,0,0-4.041-3.419,53.462,53.462,0,0,0-21.278-1.356,10.144,10.144,0,0,0-2.317-4.267,11.3,11.3,0,0,0-4.973-2.826c-3.56-1.046-3.476.452-2.826,1.441a14.947,14.947,0,0,0,1.356,1.328,5.03,5.03,0,0,1,1.582,2.487.763.763,0,0,1-.65.989c-.622,0-.989-.9-2.826-1.554s-3.391,0-2.826.9,1.978,1.187,1.865,2.6a4.3,4.3,0,0,1-.226.989,54.027,54.027,0,0,0-13.7,5.143A10.964,10.964,0,0,0,37.808,37.1a31.337,31.337,0,0,1-18.367-3.984A21.645,21.645,0,0,1,8.9,16.333a.509.509,0,0,0-.622-.4S-.819,21.9.367,31.083c1.046,7.912,4.86,10.709,8.11,12.179a14.835,14.835,0,0,0,8.844,1.724c1.159,0,1.328.17,1.356.4s-1.752,2.374-7.94,1.667a16.276,16.276,0,0,1-9.325-3.843C.17,42.386,0,42.838,0,43.488s.254,10.2,5.651,13.7a18.819,18.819,0,0,0,13.874,2.826,14.722,14.722,0,0,0,4.775-1.13c.706-.283,1.272-.622,1.272,0s-.593,1.78-2.6,3.25a15.852,15.852,0,0,1-6.725,2.289c-.819,0,0,.819,0,.819s1.95,3.984,11.585,3.306,16.022-3.758,17.293-8.929a8.731,8.731,0,0,0-.537-5.284s-.17-1.017.452-.932a49.167,49.167,0,0,0,7.29,6.188,33.908,33.908,0,0,0,7.4,3.306s3.7,3.476,5.284,4.719A5.821,5.821,0,0,1,66.913,69.6a14.129,14.129,0,0,0,.961,2.826,2.458,2.458,0,0,0,3.871,1.1,14.581,14.581,0,0,0,4.549-6.047,20.6,20.6,0,0,0,1.7-5.877,32.411,32.411,0,0,0,11.3-9.749,25.855,25.855,0,0,0,4.3-8.477h0c.339-.65.989,0,.876.509a17.859,17.859,0,0,0,0,2.063,9.155,9.155,0,0,0,1.7,4.38c2.826,3.984,9.805,4.606,18.254,1.724S122.3,44.5,122.3,44.5s0-1.046-.537-.622a10.427,10.427,0,0,1-6.075.876c-2.289-.424-3.25-1.441-3.391-1.837s.17-.537.735-.537a14.976,14.976,0,0,0,4.352-.678,17.491,17.491,0,0,0,11.077-7.347c3.7-5.454-.339-13.2-.622-13.761"/><path class="a" d="M33.329,25.469a4.38,4.38,0,0,1,3.108-1.78c1.78-.283,3.786,1.611,4.691,2.826a14.129,14.129,0,0,1,1.808,5.341c0,.678.226,2.119-.424,2.656s-1.7-.452-1.978-1.13-.509-1.046-.989-1.1a21.531,21.531,0,0,1-2.826-.311,3.871,3.871,0,0,1-1.385-.622,5.115,5.115,0,0,1-2.515-4.323,7.771,7.771,0,0,1,.509-1.554" transform="translate(59.92 43.196)"/><path class="a" d="M34.7,26.187A3.56,3.56,0,0,1,36.565,21.3a4.86,4.86,0,0,1,3.956.141,8.053,8.053,0,0,1,3.024,2.6,15.118,15.118,0,0,1,1.7,4.465c.141.678.424,1.921-.226,2.487s-1.385-.367-1.752-.848a4.748,4.748,0,0,1-.622-1.074c-.961-.565-2.034-.226-3.363-.17a4.832,4.832,0,0,1-2.2-.48l-.537-.2c-1.1-.848-1.413-.989-1.837-2.035" transform="translate(62.674 38.239)"/><path class="a" d="M30.13,28.127a2.826,2.826,0,0,1,1.356-1.95l.452-.311a3.25,3.25,0,0,1,.706-.339,3.108,3.108,0,0,1,3.221.706c2.628,1.667,3.928,8.477,2.43,10.257-1.78,1.017-1.921-2.2-2.826-2.261a6.047,6.047,0,0,1-5.284-6.1" transform="translate(55.008 46.274)"/><path class="a" d="M17.523,33.688a15.372,15.372,0,0,1,1.1-12.348,29.472,29.472,0,0,0,4.154,2.826A36.056,36.056,0,0,0,27.724,26.4a23.368,23.368,0,0,1,3.928,3.476,18.96,18.96,0,0,1-7.46,6.64,4.973,4.973,0,0,1-6.471-2.826" transform="translate(30.514 38.961)"/><path class="b" d="M28.343,17.448a15.372,15.372,0,0,1-1.978,3.871A37.753,37.753,0,0,0,22.974,24.8a5.651,5.651,0,0,0-.848,4.747,49.167,49.167,0,0,0,6.33,5.906c1.159.9,1.13.876,1.215,1.752.17,1.667.424,3.221.876,3.193s.735-.4,1.724-1.921A16.954,16.954,0,0,0,34.644,32a29.754,29.754,0,0,0-1.95-8.279,26.816,26.816,0,0,0-3.023-6.527c-.593-.989-1.13,0-1.215,0" transform="translate(40.039 30.589)"/><path class="b" d="M39.045,12.318l-5.228,2.289a2.091,2.091,0,0,1,1.441,1.243A3.137,3.137,0,0,1,33,19.552c-1.893.65-4.126,0-4.578-1.3a1.808,1.808,0,0,1,0-1.215l-3.08,1.385A6.923,6.923,0,0,0,34.3,22.038a7.262,7.262,0,0,0,5.482-8.477,5.03,5.03,0,0,0-.763-1.441" transform="translate(46.263 22.128)"/><path class="b" d="M31.017,17.474a2.628,2.628,0,0,1,0,1.046,4.1,4.1,0,0,1-4.945,2.826c-2.458-.339-4.267-2.148-4.012-4.041a3.023,3.023,0,0,1,1.554-2.2l-5.482-1.78a5.369,5.369,0,0,0-1.046,4.549,9.918,9.918,0,0,0,10.54,6.669,8.308,8.308,0,0,0,7.093-5.877Z" transform="translate(30.95 24.318)"/><path class="a" d="M23.058,28.172a4.606,4.606,0,0,0-3.786-.452c-1.893.424-3.108,3.108-3.5,4.719a15.061,15.061,0,0,0,.367,6.047c.2.706.622,2.2,1.5,2.43,1.469.4,1.5-1.13,1.526-1.921s0-1.243.509-1.5a23.058,23.058,0,0,0,2.684-1.441,4.38,4.38,0,0,0,1.1-1.187,5.651,5.651,0,0,0,.9-5.341,5.651,5.651,0,0,0-1.3-1.356" transform="translate(28.511 50.213)"/><path class="a" d="M28.76,27.4a26.392,26.392,0,0,0,9.155-7.884c.254-.311.2-.48.452-.48a17.745,17.745,0,0,1,3.024,9.777,4.606,4.606,0,0,1-2.317,3.165c-2.826,2.063-8.788-3.165-10.314-4.465h0" transform="translate(52.507 34.761)"/><path class="a" d="M26.252,18.773c.678.424.678,1.7,0,2.826s-1.808,1.667-2.487,1.243-.706-1.7,0-2.826,1.808-1.667,2.487-1.243" transform="translate(42.441 34.011)"/><path class="a" d="M22.417,29.518a4.013,4.013,0,0,0-4.069-4.1A4.3,4.3,0,0,0,14.7,27.258a8.9,8.9,0,0,0-1.667,2.826,14.411,14.411,0,0,0,0,6.019c.141.735.424,2.374,1.328,2.515,1.385.226,1.328-.876,1.3-1.667a3.476,3.476,0,0,1,.141-1.385c.311-.819,1.837-1.017,3.193-1.5a5.284,5.284,0,0,0,1.95-1.356l.452-.452c.763-1.3,1.017-1.526,1.017-2.826" transform="translate(23.218 46.408)"/><path class="a" d="M26.737,29.811a3,3,0,0,0-2.035-1.5,2.346,2.346,0,0,0-.593-.17,3.843,3.843,0,0,0-.819,0,3.391,3.391,0,0,0-3.023,1.865c-2.035,2.6-.989,9.918,1.187,11.3,1.95.452,1.13-2.826,2.091-3.306a6.471,6.471,0,0,0,3.193-8.025" transform="translate(35.005 51.343)"/></svg>