<svg xmlns="http://www.w3.org/2000/svg" xmlns:xlink="http://www.w3.org/1999/xlink" width="820" height="609.978" viewBox="0 0 820 609.978"><defs><style>.a{fill:url(#a);}.b,.c{fill:none;stroke:#fff;stroke-linecap:round;stroke-miterlimit:10;}.b{stroke-width:6px;}.c{stroke-width:8px;}.d{opacity:0.32;fill:url(#b);}.e,.f,.g{opacity:0.49;}.e{fill:url(#c);}.f{fill:url(#d);}.h{fill:#00daff;}.h,.n,.o,.q,.t{opacity:0.5;}.i{fill:url(#e);}.j{fill:url(#f);}.k{fill:url(#g);}.l{fill:url(#h);}.m{fill:url(#i);}.n{fill:url(#j);}.o{fill:url(#k);}.p{fill:url(#l);}.r,.s,.t,.u{fill:#fff;}.s{opacity:0.15;}.az,.ba,.u,.v{opacity:0.3;}.w{opacity:0.2;}.x{fill:url(#m);}.y{fill:url(#n);}.z{fill:url(#o);}.aa{fill:url(#p);}.ab{fill:url(#q);}.ac{fill:url(#r);}.ad{fill:url(#s);}.ae{fill:url(#t);}.af{fill:url(#u);}.ag{fill:url(#v);}.ah{fill:url(#w);}.ai{fill:url(#x);}.aj{fill:url(#y);}.ak{fill:url(#z);}.al{fill:#231f20;opacity:0.22;}.am{fill:url(#aa);}.an{fill:url(#ab);}.ao{fill:url(#ac);}.ap{fill:url(#ad);}.aq{fill:url(#ae);}.ar{fill:url(#af);}.as{fill:url(#ag);}.at{fill:red;}.au{fill:url(#ah);}.av{fill:url(#ai);}.aw{fill:#a7a9ac;opacity:0.33;}.ax{fill:url(#aj);}.ay{fill:url(#ak);}.az{fill:url(#al);}.ba{fill:url(#am);}.bb{fill:url(#an);}.bc{fill:url(#ao);}.bd{fill:url(#ap);}.be{fill:url(#aq);}</style><radialGradient id="a" cx="417.955" cy="351.416" r="547.441" gradientTransform="translate(107.049 188.358) scale(0.744 0.464)" gradientUnits="userSpaceOnUse"><stop offset="0" stop-color="#fff" stop-opacity="0.502"/><stop offset="0.18" stop-color="#f8f8f8" stop-opacity="0.478"/><stop offset="0.36" stop-color="#e4e3e3" stop-opacity="0.439"/><stop offset="0.53" stop-color="#c1c0c0" stop-opacity="0.361"/><stop offset="0.71" stop-color="#918f8f" stop-opacity="0.251"/><stop offset="0.88" stop-color="#535051" stop-opacity="0.11"/><stop offset="1" stop-color="#231f20" stop-opacity="0"/></radialGradient><linearGradient id="b" x1="0.26" y1="0.026" x2="0.706" y2="0.907" gradientUnits="objectBoundingBox"><stop offset="0" stop-color="#fff" stop-opacity="0.698"/><stop offset="0.13" stop-color="#fff" stop-opacity="0.49"/><stop offset="0.3" stop-color="#fff" stop-opacity="0.231"/><stop offset="0.43" stop-color="#fff" stop-opacity="0.059"/><stop offset="0.5" stop-color="#fff" stop-opacity="0"/><stop offset="0.56" stop-color="#fff" stop-opacity="0.031"/><stop offset="0.64" stop-color="#fff" stop-opacity="0.102"/><stop offset="0.73" stop-color="#fff" stop-opacity="0.22"/><stop offset="0.83" stop-color="#fff" stop-opacity="0.38"/><stop offset="0.94" stop-color="#fff" stop-opacity="0.588"/><stop offset="1" stop-color="#fff" stop-opacity="0.698"/></linearGradient><linearGradient id="c" x1="0.477" y1="0.381" x2="0.567" y2="0.853" gradientUnits="objectBoundingBox"><stop offset="0" stop-color="#00daff" stop-opacity="0.502"/><stop offset="0.1" stop-color="#2de1ff" stop-opacity="0.431"/><stop offset="0.36" stop-color="#92efff" stop-opacity="0.259"/><stop offset="0.5" stop-color="#b9f5ff" stop-opacity="0.2"/><stop offset="0.65" stop-color="#c5f7ff" stop-opacity="0.22"/><stop offset="0.87" stop-color="#e5fbff" stop-opacity="0.259"/><stop offset="1" stop-color="#fff" stop-opacity="0.302"/></linearGradient><linearGradient id="d" x1="0" y1="0.5" x2="1" y2="0.5" xlink:href="#c"/><linearGradient id="e" x1="-0.126" y1="0.405" x2="1.073" y2="0.602" xlink:href="#c"/><linearGradient id="f" x1="0.996" y1="0.425" x2="-0.007" y2="0.561" xlink:href="#c"/><linearGradient id="g" x1="0.628" y1="0.39" x2="0.342" y2="0.656" xlink:href="#c"/><linearGradient id="h" x1="0.201" y1="0.15" x2="0.674" y2="0.686" xlink:href="#c"/><linearGradient id="i" x1="2.159" y1="0.543" x2="-0.061" y2="0.461" gradientUnits="objectBoundingBox"><stop offset="0.2" stop-color="#fff" stop-opacity="0.502"/><stop offset="0.65" stop-color="#fff" stop-opacity="0.212"/><stop offset="1" stop-color="#fff" stop-opacity="0"/></linearGradient><linearGradient id="j" x1="0.499" y1="0.551" x2="0.405" y2="0.04" gradientUnits="objectBoundingBox"><stop offset="0" stop-color="#fff"/><stop offset="0.26" stop-color="#d8f9ff" stop-opacity="0.831"/><stop offset="0.48" stop-color="#baf5ff" stop-opacity="0.698"/><stop offset="1" stop-color="#66e9ff"/></linearGradient><linearGradient id="k" x1="-0.55" y1="0.609" x2="0.876" y2="0.461" gradientUnits="objectBoundingBox"><stop offset="0" stop-color="#fff"/><stop offset="0.3" stop-color="#dbfaff" stop-opacity="0.859"/><stop offset="0.63" stop-color="#b0f4ff" stop-opacity="0.698"/><stop offset="1" stop-color="#66e9ff" stop-opacity="0.698"/></linearGradient><linearGradient id="l" x1="0.61" y1="0.68" x2="0.307" y2="0.055" gradientUnits="objectBoundingBox"><stop offset="0" stop-color="#fff"/><stop offset="0.07" stop-color="#fff" stop-opacity="0.761"/><stop offset="0.23" stop-color="#fff" stop-opacity="0.169"/><stop offset="0.28" stop-color="#fff" stop-opacity="0"/><stop offset="0.41" stop-color="#fff" stop-opacity="0.529"/><stop offset="0.52" stop-color="#fff"/><stop offset="0.78" stop-color="#fff" stop-opacity="0"/><stop offset="1" stop-color="#fff"/></linearGradient><linearGradient id="m" x1="-71.972" y1="9.999" x2="-71.187" y2="10.692" gradientUnits="objectBoundingBox"><stop offset="0" stop-color="#fff" stop-opacity="0.8"/><stop offset="0.14" stop-color="#fff" stop-opacity="0.78"/><stop offset="0.31" stop-color="#fff" stop-opacity="0.729"/><stop offset="0.48" stop-color="#fff" stop-opacity="0.639"/><stop offset="0.66" stop-color="#fff" stop-opacity="0.51"/><stop offset="0.85" stop-color="#fff" stop-opacity="0.349"/><stop offset="1" stop-color="#fff" stop-opacity="0.2"/></linearGradient><linearGradient id="n" x1="-71.986" y1="12.469" x2="-71.146" y2="13.226" xlink:href="#m"/><linearGradient id="o" x1="-72.003" y1="14.869" x2="-71.116" y2="15.653" xlink:href="#m"/><linearGradient id="p" x1="0.5" y1="0.719" x2="0.5" y2="0.009" gradientUnits="objectBoundingBox"><stop offset="0" stop-color="#fff" stop-opacity="0.502"/><stop offset="0.06" stop-color="#fff" stop-opacity="0.42"/><stop offset="0.17" stop-color="#fff" stop-opacity="0.29"/><stop offset="0.29" stop-color="#fff" stop-opacity="0.188"/><stop offset="0.42" stop-color="#fff" stop-opacity="0.102"/><stop offset="0.56" stop-color="#fff" stop-opacity="0.039"/><stop offset="0.74" stop-color="#fff" stop-opacity="0.012"/><stop offset="1" stop-color="#fff" stop-opacity="0"/></linearGradient><linearGradient id="q" x1="-0.083" y1="0.563" x2="0.186" y2="0.534" gradientUnits="objectBoundingBox"><stop offset="0" stop-color="#fff" stop-opacity="0.302"/><stop offset="0.01" stop-color="#fff" stop-opacity="0.29"/><stop offset="0.15" stop-color="#fff" stop-opacity="0.188"/><stop offset="0.31" stop-color="#fff" stop-opacity="0.102"/><stop offset="0.48" stop-color="#fff" stop-opacity="0.039"/><stop offset="0.69" stop-color="#fff" stop-opacity="0.012"/><stop offset="1" stop-color="#fff" stop-opacity="0"/></linearGradient><linearGradient id="r" x1="-10.047" y1="0.563" x2="-9.778" y2="0.534" xlink:href="#q"/><linearGradient id="s" x1="0.005" y1="0.495" x2="0.996" y2="0.505" gradientUnits="objectBoundingBox"><stop offset="0" stop-color="#ff8a8a"/><stop offset="0.4" stop-color="red"/></linearGradient><linearGradient id="t" x1="0.389" y1="0.345" x2="0.639" y2="0.693" gradientUnits="objectBoundingBox"><stop offset="0" stop-color="red"/><stop offset="0.29" stop-color="#ff3c3c"/><stop offset="0.94" stop-color="#ffd3d3"/><stop offset="1" stop-color="#ffe0e0"/></linearGradient><linearGradient id="u" x1="0.613" y1="0.347" x2="0.37" y2="0.675" gradientUnits="objectBoundingBox"><stop offset="0" stop-color="red"/><stop offset="0.25" stop-color="#ff3c3c"/><stop offset="0.83" stop-color="#ffd3d3"/><stop offset="1" stop-color="#fff"/></linearGradient><linearGradient id="v" x1="0.053" y1="0.466" x2="0.969" y2="0.536" gradientUnits="objectBoundingBox"><stop offset="0" stop-color="red" stop-opacity="0"/><stop offset="0.37" stop-color="red" stop-opacity="0"/><stop offset="0.55" stop-color="#aa4955" stop-opacity="0.231"/><stop offset="0.76" stop-color="#4f97b0" stop-opacity="0.478"/><stop offset="0.92" stop-color="#16c7e9" stop-opacity="0.639"/><stop offset="1" stop-color="#00daff" stop-opacity="0.698"/></linearGradient><linearGradient id="w" x1="0.907" y1="0.581" x2="0.373" y2="0.475" gradientUnits="objectBoundingBox"><stop offset="0" stop-color="#00daff" stop-opacity="0.698"/><stop offset="1" stop-color="#fff" stop-opacity="0"/></linearGradient><linearGradient id="x" x1="0.496" y1="0.991" x2="0.504" y2="0.028" gradientUnits="objectBoundingBox"><stop offset="0" stop-color="#fff" stop-opacity="0.8"/><stop offset="0.06" stop-color="#fff2f2" stop-opacity="0.761"/><stop offset="0.16" stop-color="#ffd0d0" stop-opacity="0.651"/><stop offset="0.3" stop-color="#ff9898" stop-opacity="0.478"/><stop offset="0.46" stop-color="#ff4b4b" stop-opacity="0.239"/><stop offset="0.6" stop-color="red" stop-opacity="0"/><stop offset="0.73" stop-color="#ff0f0f" stop-opacity="0.012"/><stop offset="0.83" stop-color="#ff3f3f" stop-opacity="0.051"/><stop offset="0.92" stop-color="#ff8f8f" stop-opacity="0.11"/><stop offset="1" stop-color="#fff" stop-opacity="0.2"/></linearGradient><linearGradient id="y" x1="0.013" y1="0.5" x2="0.984" y2="0.5" gradientUnits="objectBoundingBox"><stop offset="0" stop-color="red" stop-opacity="0"/><stop offset="0.05" stop-color="#ff0909" stop-opacity="0.031"/><stop offset="0.13" stop-color="#f22" stop-opacity="0.11"/><stop offset="0.22" stop-color="#ff4b4b" stop-opacity="0.239"/><stop offset="0.32" stop-color="#ff8484" stop-opacity="0.42"/><stop offset="0.43" stop-color="#ffcdcd" stop-opacity="0.639"/><stop offset="0.5" stop-color="#fff" stop-opacity="0.8"/><stop offset="0.51" stop-color="#fff0f0" stop-opacity="0.749"/><stop offset="0.58" stop-color="#ffb1b1" stop-opacity="0.561"/><stop offset="0.65" stop-color="#ff7b7b" stop-opacity="0.388"/><stop offset="0.72" stop-color="#ff4f4f" stop-opacity="0.251"/><stop offset="0.79" stop-color="#ff2c2c" stop-opacity="0.141"/><stop offset="0.86" stop-color="#ff1414" stop-opacity="0.059"/><stop offset="0.93" stop-color="#ff0505" stop-opacity="0.02"/><stop offset="1" stop-color="red" stop-opacity="0"/></linearGradient><linearGradient id="z" x1="0.004" y1="0.485" x2="0.995" y2="0.505" gradientUnits="objectBoundingBox"><stop offset="0" stop-color="#ffb5b5"/><stop offset="0.23" stop-color="red" stop-opacity="0"/><stop offset="0.23" stop-color="#ff0505" stop-opacity="0.02"/><stop offset="0.29" stop-color="#ff5050" stop-opacity="0.31"/><stop offset="0.35" stop-color="#ff8e8e" stop-opacity="0.561"/><stop offset="0.4" stop-color="#ffbfbf" stop-opacity="0.749"/><stop offset="0.45" stop-color="#ffe2e2" stop-opacity="0.89"/><stop offset="0.49" stop-color="#fff7f7" stop-opacity="0.969"/><stop offset="0.51" stop-color="#fff"/><stop offset="0.53" stop-color="#f7feff" stop-opacity="0.969"/><stop offset="0.57" stop-color="#e2fbff" stop-opacity="0.89"/><stop offset="0.61" stop-color="#bff6ff" stop-opacity="0.749"/><stop offset="0.66" stop-color="#8fefff" stop-opacity="0.561"/><stop offset="0.71" stop-color="#51e6ff" stop-opacity="0.322"/><stop offset="0.77" stop-color="#06dbff" stop-opacity="0.02"/><stop offset="0.78" stop-color="#00daff" stop-opacity="0"/><stop offset="1" stop-color="#94efff"/></linearGradient><linearGradient id="aa" x1="0.589" y1="0.037" x2="0.408" y2="0.98" gradientUnits="objectBoundingBox"><stop offset="0" stop-color="#d1d3d4"/><stop offset="1" stop-color="#fff"/></linearGradient><linearGradient id="ab" x1="0.974" y1="0.955" x2="0.027" y2="0.045" gradientUnits="objectBoundingBox"><stop offset="0" stop-color="#fff"/><stop offset="0.23" stop-color="#fafbfb"/><stop offset="0.49" stop-color="#ededed"/><stop offset="0.51" stop-color="#ebecec"/><stop offset="0.6" stop-color="#ebe7e7"/><stop offset="0.71" stop-color="#e9d7d7"/><stop offset="0.83" stop-color="#e7bebe"/><stop offset="0.96" stop-color="#e49b9b"/><stop offset="1" stop-color="#e38d8d"/></linearGradient><linearGradient id="ac" x1="0.987" y1="0.019" x2="0.017" y2="0.977" gradientUnits="objectBoundingBox"><stop offset="0" stop-color="#9ef1ff"/><stop offset="0.11" stop-color="#a3f1fe"/><stop offset="0.23" stop-color="#b1f0fa"/><stop offset="0.36" stop-color="#c7eef5"/><stop offset="0.49" stop-color="#e7eced"/><stop offset="0.51" stop-color="#ebecec"/><stop offset="0.6" stop-color="#ebe7e7"/><stop offset="0.71" stop-color="#e9d7d7"/><stop offset="0.83" stop-color="#e7bebe"/><stop offset="0.96" stop-color="#e49b9b"/><stop offset="1" stop-color="#e38d8d"/></linearGradient><linearGradient id="ad" x1="0.967" y1="0.618" x2="0.024" y2="0.38" xlink:href="#ab"/><linearGradient id="ae" x1="0.025" y1="0.965" x2="0.985" y2="0.026" gradientUnits="objectBoundingBox"><stop offset="0" stop-color="#fff"/><stop offset="0.23" stop-color="#fafbfb"/><stop offset="0.49" stop-color="#ededed"/><stop offset="0.51" stop-color="#ebecec"/><stop offset="0.62" stop-color="#e6e7e7"/><stop offset="0.75" stop-color="#d6d8d9"/><stop offset="0.9" stop-color="#bdbfc1"/><stop offset="1" stop-color="#a7a9ac"/></linearGradient><linearGradient id="af" x1="0.349" y1="0.984" x2="0.645" y2="0.041" gradientUnits="objectBoundingBox"><stop offset="0" stop-color="#fff"/><stop offset="0.23" stop-color="#fafbfb"/><stop offset="0.49" stop-color="#ededed"/><stop offset="0.51" stop-color="#ebecec"/><stop offset="0.62" stop-color="#eae7e7"/><stop offset="0.77" stop-color="#e8d7d7"/><stop offset="0.92" stop-color="#e5bebe"/><stop offset="1" stop-color="#e3afaf"/></linearGradient><linearGradient id="ag" x1="0.28" y1="0.377" x2="0.856" y2="0.699" gradientUnits="objectBoundingBox"><stop offset="0" stop-color="#003640"/><stop offset="0.24" stop-color="#003843"/><stop offset="0.39" stop-color="#00404b"/><stop offset="0.52" stop-color="#004c5a"/><stop offset="0.63" stop-color="#005e6e"/><stop offset="0.73" stop-color="#007589"/><stop offset="0.82" stop-color="#0091aa"/><stop offset="0.91" stop-color="#00b2d0"/><stop offset="0.99" stop-color="#00d7fc"/><stop offset="1" stop-color="#00daff"/></linearGradient><linearGradient id="ah" x1="0.559" y1="0.005" x2="0.472" y2="0.738" gradientUnits="objectBoundingBox"><stop offset="0" stop-color="#a7a9ac"/><stop offset="1" stop-color="#d1d3d4"/></linearGradient><linearGradient id="ai" x1="0.542" y1="-0.046" x2="0.46" y2="1.022" gradientUnits="objectBoundingBox"><stop offset="0" stop-color="#bcbec0"/><stop offset="1" stop-color="#e6e7e8"/></linearGradient><linearGradient id="aj" x1="0.5" y1="0.833" x2="0.5" y2="0.036" gradientUnits="objectBoundingBox"><stop offset="0" stop-color="#fff" stop-opacity="0.302"/><stop offset="0.29" stop-color="#fff" stop-opacity="0.212"/><stop offset="1" stop-color="#fff" stop-opacity="0"/></linearGradient><linearGradient id="ak" x1="0.18" y1="1.004" x2="0.534" y2="0.251" xlink:href="#i"/><linearGradient id="al" x1="0.5" y1="0.993" x2="0.5" y2="0.451" gradientUnits="objectBoundingBox"><stop offset="0" stop-color="#fff"/><stop offset="0.28" stop-color="#d7f9ff" stop-opacity="0.871"/><stop offset="0.63" stop-color="#a1f1ff" stop-opacity="0.698"/><stop offset="1" stop-color="#66e9ff"/></linearGradient><linearGradient id="am" x1="-0.317" y1="0.623" x2="2.794" y2="0.186" gradientUnits="objectBoundingBox"><stop offset="0" stop-color="#fff"/><stop offset="0.21" stop-color="#d6f9ff" stop-opacity="0.839"/><stop offset="0.63" stop-color="#7cecff" stop-opacity="0.502"/><stop offset="1" stop-color="#66e9ff"/></linearGradient><linearGradient id="an" x1="0.5" y1="0.991" x2="0.5" y2="0.029" xlink:href="#l"/><linearGradient id="ao" x1="0.066" y1="0.117" x2="0.852" y2="0.811" xlink:href="#m"/><linearGradient id="ap" x1="0.052" y1="0.096" x2="0.892" y2="0.853" xlink:href="#m"/><linearGradient id="aq" x1="0.034" y1="0.089" x2="0.923" y2="0.873" xlink:href="#m"/></defs><rect class="a" width="820" height="609.978"/><g transform="translate(142.455 197.209)"><path class="b" d="M516.49,176.553c-103.162-35.43-237.726-26.8-325.576,25.911-51.594,30.956-77.836,71.583-78.789,112.376h0c-.648,28.669,11.208,57.427,35.582,82.97" transform="translate(-112.1 -155.186)"/><path class="c" d="M587.869,218.93c24.768,25.949,36.611,55.228,35.582,84.355-1.487,40.335-27.729,80.39-78.725,110.99-87.849,52.7-222.388,61.328-325.576,25.911" transform="translate(-83.113 -137.926)"/></g><g transform="translate(47.248 149.457)"><path class="d" d="M400.968,554.24h0c-97.52,0-188.953-22.633-257.461-63.7-34.629-20.765-61.455-45.062-79.729-72.193-17.651-26.229-26.6-53.945-26.6-82.423s8.9-56.181,26.572-82.4c18.248-27.131,45.062-51.429,79.666-72.193,68.483-41.085,159.9-63.717,257.423-63.717h0c97.52,0,188.941,22.633,257.423,63.717,34.629,20.777,61.443,45.075,79.716,72.232,17.639,26.216,26.585,53.945,26.585,82.423s-8.9,56.181-26.559,82.385c-18.261,27.131-45.049,51.416-79.653,72.168C589.9,531.607,498.488,554.24,400.968,554.24Zm-.127-435.994c-97.406,0-188.712,22.595-257.093,63.628-34.527,20.714-61.265,44.948-79.475,72-17.562,26.1-26.47,53.716-26.458,82.042s8.9,55.915,26.5,82.067c18.223,27.055,44.973,51.289,79.526,72,68.406,41.021,159.725,63.6,257.131,63.616s188.7-22.595,257.055-63.616c34.527-20.7,61.252-44.922,79.45-71.977,17.562-26.1,26.458-53.691,26.458-82.029s-8.9-55.915-26.483-82.08c-18.21-27.068-44.96-51.3-79.5-72.028-68.394-41.034-159.7-63.628-257.105-63.628Z" transform="translate(-37.18 -117.61)"/></g><g transform="translate(80.723 92.217)"><path class="e" d="M555.833,344.108c-58.456,35.074-133.75,54.288-210.671,57.643a3.99,3.99,0,0,0-3.812,3.978v68.267a3.99,3.99,0,0,0,4.155,3.99c76.794-3.393,151.961-22.607,210.328-57.63a280.284,280.284,0,0,0,29.228-20.066,3.952,3.952,0,0,0,1.512-3.139v-66.2a3.978,3.978,0,0,0-6.354-3.177,282.023,282.023,0,0,1-24.386,16.33Z" transform="translate(11.71 -3.673)"/><path class="f" d="M534.309,182.036V118.345a5.719,5.719,0,0,0-3.329-5.21C467.555,84.16,390.431,70.7,314.183,72.774a5.718,5.718,0,0,0-5.553,5.731v64.81a5.731,5.731,0,0,0,5.9,5.719c74.189-1.957,149.279,10.789,211.688,38.263a5.731,5.731,0,0,0,8.095-5.261Z" transform="translate(2.85 -72.567)"/><g class="g" transform="translate(627.105 110.874)"><path class="h" d="M587.734,228.45h0a124.639,124.639,0,0,1-6.024,39.394,125.325,125.325,0,0,1,6,35.366h0Z" transform="translate(-550.309 -141.23)"/><path class="i" d="M594.374,294.816a125.324,125.324,0,0,0-6-35.366,146.205,146.205,0,0,1-17.1,35.366q-4.282,6.532-9.353,12.911A22.137,22.137,0,0,0,557,321.477v59a3.355,3.355,0,0,0,6,2.071C584.614,354.886,595.047,324.807,594.374,294.816Z" transform="translate(-557 -132.835)"/><path class="j" d="M557,161.944v65.28a13.724,13.724,0,0,0,3.088,8.7q4.5,5.49,8.413,11.107a148.058,148.058,0,0,1,19.824,39.394,124.641,124.641,0,0,0,6.023-39.394c-.318-29.647-11.437-59.269-33.523-86.413A2.148,2.148,0,0,0,557,161.944Z" transform="translate(-557 -159.815)"/></g><path class="h" d="M69.568,268.128a124.27,124.27,0,0,1-6.036-38.975V227.12h0v80.9h0A124.372,124.372,0,0,1,69.568,268.128Z" transform="translate(-63.522 -30.716)"/><g class="g" transform="translate(0.012 28.597)"><path class="k" d="M160.6,362.413c-31.1-18.655-54.644-40.157-70.859-63.133a148.237,148.237,0,0,1-20.18-39.89,124.372,124.372,0,0,0-6.024,39.89c.737,50.577,33.04,101.015,97.063,139.38a361.6,361.6,0,0,0,62.014,29.228,5.261,5.261,0,0,0,7.078-4.943V399.532a7.625,7.625,0,0,0-5.083-7.193,363.156,363.156,0,0,1-64.009-29.927Z" transform="translate(-63.532 -50.575)"/><path class="l" d="M160.519,124.666C97.056,162.79,64.765,212.694,63.57,262.877v2.033a124.27,124.27,0,0,0,6.036,38.975,148.835,148.835,0,0,1,20.968-41.008c16.114-22.544,39.394-43.626,69.995-61.963a364.093,364.093,0,0,1,65.674-30.5,5.2,5.2,0,0,0,3.495-4.918v-65.2a5.223,5.223,0,0,0-7.015-4.905,361.373,361.373,0,0,0-62.2,29.279Z" transform="translate(-63.522 -95.071)"/></g></g><g transform="translate(138.922 51.111)"><path class="m" d="M109.32,40.22H152.2V428.928L128.649,406.5,109.32,354.181Z" transform="translate(-109.32 -40.22)"/></g><g transform="translate(142.481 14.192)"><path class="n" d="M112.184,169.422c1.487-40.322,27.729-80.377,78.789-110.978C272.76,9.328,395.175-1.512,494.944,25.9a29.228,29.228,0,0,1,21.54,28.262v161.39c-103.162-35.43-237.726-26.8-325.576,25.911-51.594,30.956-77.836,71.583-78.789,112.376Z" transform="translate(-112.12 -11.168)"/></g><g transform="translate(142.481 172.446)"><path class="o" d="M112.145,320.091c-.648,28.669,11.208,57.427,35.582,82.97V242.383a62.269,62.269,0,0,0-12.352-36.967c-16.33-22.086-24.056-45.952-23.179-69.715Z" transform="translate(-112.12 -135.7)"/></g><g transform="translate(141.207 12.959)"><path class="p" d="M149.257,437.045h-2.542V276.367A60.6,60.6,0,0,0,134.6,240.15c-16.215-21.934-24.31-46.307-23.421-70.5,1.563-42.482,29.736-82.271,79.348-112.033,79.64-47.782,202.22-60.922,304.989-32.685a30.626,30.626,0,0,1,22.506,29.495v161.39h-2.542V54.424a28.072,28.072,0,0,0-20.6-26.979C392.7-.677,270.922,12.348,191.841,59.8c-48.849,29.3-76.578,68.33-78.115,109.936-.864,23.611,7.053,47.438,22.874,68.9a63.171,63.171,0,0,1,12.606,37.73Z" transform="translate(-111.118 -10.197)"/></g><g transform="translate(147.894 31.147)"><g class="q" transform="translate(69.389 54.18)"><path class="r" d="M209.039,110.231c.165,1.271.343,2.631.521,3.939a8.234,8.234,0,0,1,.2,1.6,20.052,20.052,0,0,0,.61,5.083c.318,1.487.585,3,.877,4.5l1.067,5.325a3.64,3.64,0,0,1,.127.534,54.4,54.4,0,0,1,.254,6.481c-.152,2.427-.165,4.791-.254,7.193a21.5,21.5,0,0,1-.292,2.3c-.178,1.271-.369,2.542-.534,3.812a5.338,5.338,0,0,0,0,1.271c.152,1.372.343,2.732.508,4.1a10.166,10.166,0,0,1,0,1.4,20.472,20.472,0,0,0,.559,5.185,9.375,9.375,0,0,1,.076,1.067,46.043,46.043,0,0,1-.966,11.208c-.445,2.542-.877,5.007-1.195,7.485a27.077,27.077,0,0,0-.241,3.812c0,3.088,1.919,4.956,4.664,4.753a2.415,2.415,0,0,1,1.271.178.775.775,0,0,1,.216.839,2.414,2.414,0,0,1-.864,1.106,18.476,18.476,0,0,0-2.834,1.423,6.507,6.507,0,0,1-2.2.737,11.055,11.055,0,0,0-2.631.928,7.955,7.955,0,0,1-1.741.521c-.674.1-1.131-.534-.851-1.347a14.131,14.131,0,0,0,.483-4.727c0-1.042.267-2.2.28-3.241a33.536,33.536,0,0,0-1.271-9.76,20.815,20.815,0,0,1-.254-8.285c.191-1.487.267-2.936.369-4.384a7.968,7.968,0,0,0-.546-3.431,19.06,19.06,0,0,1-.674-3.2c-.127-.762-.165-1.589-.343-2.313a67.83,67.83,0,0,0-2.287-8.146,37.932,37.932,0,0,1-1.487-5.655,14.053,14.053,0,0,1,0-2.656c0-.432-.14-.61-.6-.394a.9.9,0,0,0-.572.978c.165,3.812-1.055,7.892-2.046,11.984-.635,2.542-1.08,5.159-1.55,7.726-.343,1.906-.585,3.812-.9,5.655-.1.61-.292,1.271-.445,1.868a11.437,11.437,0,0,0-.267,5.083,34.588,34.588,0,0,1,.673,5.261,30.982,30.982,0,0,1-.966,7.243,26.891,26.891,0,0,0-.8,6.57,3.025,3.025,0,0,1,0,1.118,5.452,5.452,0,0,0,.114,3.495,3.126,3.126,0,0,1,0,1.474,4.206,4.206,0,0,0,.241,2.974,3.064,3.064,0,0,1,.254,1.08,2.211,2.211,0,0,1-.89,1.893,6.684,6.684,0,0,1-1.449.991,20.334,20.334,0,0,0-3.812,2.364,3.978,3.978,0,0,1-.724.445,19.343,19.343,0,0,0-3.3,1.487.712.712,0,0,1-.864-.241,1.156,1.156,0,0,1,.356-1.385c.267-.267.483-.7.75-.864a11.92,11.92,0,0,0,3.329-4.054c.368-.6.686-1.271,1-1.843a3.38,3.38,0,0,0,.356-.851,17.792,17.792,0,0,0,.356-4.054c-.521-3.558-1.271-6.977-1.906-10.471a28.733,28.733,0,0,1-.7-7.625,26.491,26.491,0,0,1,.343-3.113,33.37,33.37,0,0,0,.546-6.024c0-1.093.241-2.3.267-3.406a19.9,19.9,0,0,0-.254-4.893c-.851-3.52-.572-7.625-.648-11.6a32.875,32.875,0,0,1,.8-7.841c.521-2.3.686-4.537,1.017-6.8a16.911,16.911,0,0,1,.368-2.542,21.209,21.209,0,0,0,.572-5.083,35.377,35.377,0,0,1,.61-4.778,14.742,14.742,0,0,0,0-3.253c0-2.237-1.017-3.812-1.334-5.782,0-.1-.165-.127-.28-.14s-.152.178-.2.28a15.415,15.415,0,0,0-1.207,4.74c-.28,2.148-.419,4.244-.623,6.354a2.91,2.91,0,0,1-.064.661,65.977,65.977,0,0,1-2.427,8.209,34.985,34.985,0,0,0-2.681,9.175,10.167,10.167,0,0,0-.191,1.792,19.952,19.952,0,0,1-.7,6.214,10.763,10.763,0,0,0-.1,4.257c0,.241.191.457.1.686a2.033,2.033,0,0,1-.635.851c-.381.28-.458,0-.5-.356-.1-.877-.2-1.754-.33-2.631,0-.1-.178-.114-.267-.165-.089.152-.241.318-.254.432-.127,1.271-.2,2.389-.343,3.584a7.333,7.333,0,0,1-.356,1.677,1.563,1.563,0,0,1-.712.661c-.14.064-.292-.178-.419-.318a.584.584,0,0,1,0-.305c.191-1.588.381-3.164.559-4.74a1.251,1.251,0,0,0-.152-.432,2.873,2.873,0,0,0-.356.623c-.33,1.525-.61,3.024-.928,4.537-.178.851-.6,1.588-.94,1.677s-.445-.483-.318-1.334.241-1.868.343-2.8c0-.127-.089-.216-.14-.318a1.894,1.894,0,0,1-.165.5l-.61,1.881c-.152.508-.432,1.029-.864,1-.2,0-.33-.47-.292-.788a19.77,19.77,0,0,1,.432-2.338c.152-.674.356-1.36.534-2.046a3.365,3.365,0,0,1,.114-.623c-.152.152-.3.318-.47.457a4.192,4.192,0,0,1-.686.534c-.343.165-.585.14-.432-.381.381-1.271.737-2.542,1.131-3.749a4.447,4.447,0,0,1,.521-1,19.85,19.85,0,0,1,1.372-2.1,5.744,5.744,0,0,0,1.271-3.317,27.763,27.763,0,0,1,.635-3.812,38.469,38.469,0,0,0,.928-9.137,13.33,13.33,0,0,1,.33-3.406,22.672,22.672,0,0,1,1.271-3.215c.432-1.029.89-2.059,1.271-3.088a13.979,13.979,0,0,0,.928-4.842,27.08,27.08,0,0,1,.483-3.939,4.5,4.5,0,0,0,0-2.148,14.272,14.272,0,0,1-.419-4.791,12.544,12.544,0,0,1,1.347-4.422,16.787,16.787,0,0,1,3.355-4.842,6.773,6.773,0,0,1,1.957-1.512,16.609,16.609,0,0,0,5.007-4.1,13.572,13.572,0,0,0,2.237-2.847,1.665,1.665,0,0,0,.267-.788c-.114-1.449-.267-2.885-.445-4.3a.928.928,0,0,0-.394-.623c-.953-.635-1.093-1.906-1.067-3.3a1.106,1.106,0,0,1,.2-.635c.915-.572.623-1.169.686-1.779a17.613,17.613,0,0,1,.368-2.643,8.273,8.273,0,0,1,2.681-4.194,7.892,7.892,0,0,1,3.9-2.008c1.97-.292,3.024.877,3.241,2.745a12.708,12.708,0,0,1,0,1.563c0,.572,0,1.042.7.788a.447.447,0,0,1,.381.407,18.322,18.322,0,0,1-.267,2.287,4.156,4.156,0,0,1-.445,1.195,12.708,12.708,0,0,0-1.271,6.71.826.826,0,0,0,.635.7c2.059.483,4.079,1.055,6.735-.241a4.041,4.041,0,0,1,3.647.14c2.046.826,3.139,2.669,3.3,5.388a11.436,11.436,0,0,1-.381,3.113,8.9,8.9,0,0,0,0,4.283,8.666,8.666,0,0,1,.381,2.542,7.18,7.18,0,0,0,1.855,5.3A14.781,14.781,0,0,1,220.756,106a4.384,4.384,0,0,1,.381,1.652,20.663,20.663,0,0,1,0,2.351,25.327,25.327,0,0,0,.839,6.888c.394,1.588.61,3.291.966,4.905.114.47.343,1.017.737,1.118a3.406,3.406,0,0,1,2.542,2.542,10.448,10.448,0,0,0,.674,1.423c.318.686.165.991-.661,1.271s-.712.28-.546.839c.3,1,.572,2.046.915,3.012a.877.877,0,0,1-.241,1.042c-.432.457-.686.178-.826,0-.343-.534-.585-1.156-.877-1.728,0-.089-.127-.1-.2-.153a.8.8,0,0,0-.064.33c.152.839.343,1.665.47,2.542a3.812,3.812,0,0,1,0,1.372c-.076.445-.61.788-.813.546a2.682,2.682,0,0,1-.534-1.017c-.33-1.144-.61-2.338-.915-3.495a.813.813,0,0,0-.178-.28,2.746,2.746,0,0,0-.114.5c.076.89.191,1.779.254,2.669v1.868a.851.851,0,0,1-.432.877.621.621,0,0,1-.686-.152,9.277,9.277,0,0,1-.394-1.792c-.127-.966-.2-1.97-.318-2.948,0-.089-.076-.14-.114-.216a1.511,1.511,0,0,0-.152.33c-.114.661-.216,1.271-.318,1.982s-.127.979-.229,1.487-.292.75-.635.737-.318-.241-.318-.457a24.371,24.371,0,0,1,0-3.329,3.457,3.457,0,0,0-.165-1.576,13.2,13.2,0,0,1-.8-5.007,12.466,12.466,0,0,0-1.677-6.913c-.686-1.271-1.538-2.453-2.135-3.812a16.609,16.609,0,0,1-1.614-6.824,13.382,13.382,0,0,0-1.741-7.027c0-.076-.127-.127-.191-.2a3.4,3.4,0,0,0-.089.343C210.069,104.513,208.963,107.5,209.039,110.231Z" transform="translate(-170.983 -67.145)"/></g><path class="s" d="M160.16,98.639a29.012,29.012,0,0,1,12.708-23.967,254.523,254.523,0,0,1,26.191-15.8A338.583,338.583,0,0,1,231.6,44.5a7.32,7.32,0,0,1,9.938,6.824V172.344A29.063,29.063,0,0,1,223.5,199.285c-6.125,2.542-13.623,5.871-22.213,10.255A288.466,288.466,0,0,0,171.6,227.052a7.307,7.307,0,0,1-11.437-6.074Z" transform="translate(-104.525 -19.227)"/><ellipse class="r" cx="1.855" cy="1.296" rx="1.855" ry="1.296" transform="translate(102.867 83.386) rotate(-72.67)"/><path class="r" d="M198.918,94.557c-1.843.114-3.113-1.83-2.808-4.333s2.046-4.638,3.9-4.753,3.113,1.83,2.808,4.333S200.773,94.443,198.918,94.557Zm1.017-8.527c-1.614.1-3.152,1.97-3.418,4.168s.851,3.9,2.542,3.812,3.152-1.97,3.418-4.168S201.561,85.929,199.935,86.03Z" transform="translate(-94.803 -8.004)"/><ellipse class="r" cx="1.855" cy="1.296" rx="1.855" ry="1.296" transform="translate(92.23 115.496) rotate(-72.67)"/><path class="r" d="M190.548,119.827c-1.843.114-3.113-1.83-2.808-4.333s2.046-4.638,3.9-4.753,3.113,1.83,2.808,4.333S192.4,119.713,190.548,119.827Zm1.029-8.527c-1.627.1-3.164,1.97-3.431,4.168s.851,3.9,2.478,3.812,3.152-1.97,3.418-4.168S193.166,111.2,191.577,111.3Z" transform="translate(-97.069 -1.161)"/><path class="r" d="M208.61,71.2v-3L225.3,58.23v3Z" transform="translate(-91.405 -15.379)"/><path class="r" d="M162.79,114.792v-3l16.673-9.963v3Z" transform="translate(-103.813 -3.573)"/><path class="r" d="M199.11,96.157l-.61-.14,4.333-17.855.114-.064L228.033,63.04v.75L203.393,78.569Z" transform="translate(-94.143 -14.077)"/><path class="r" d="M162.79,118.044v-.737l25.174-15.1,10.141,15.211-.534.343-9.8-14.69Z" transform="translate(-103.813 -3.47)"/><g class="q" transform="translate(278.823)"><path class="r" d="M341.775,24.51h.114a415.636,415.636,0,0,1,90.378,11.361,5.985,5.985,0,0,1,4.587,5.858V179.673a6.011,6.011,0,0,1-7.244,5.9A454.446,454.446,0,0,0,341.75,175.9a6.062,6.062,0,0,1-5.96-6.024V30.534a6.011,6.011,0,0,1,5.985-6.024Zm89.082,159.929a4.715,4.715,0,0,0,2.961-1.055,4.778,4.778,0,0,0,1.766-3.711V41.729a4.74,4.74,0,0,0-3.609-4.626,414.747,414.747,0,0,0-90.111-11.323,4.854,4.854,0,0,0-3.38,1.347,4.791,4.791,0,0,0-1.423,3.406V169.875a4.791,4.791,0,0,0,4.715,4.753,455.8,455.8,0,0,1,88.091,9.7A4.4,4.4,0,0,0,430.858,184.439Z" transform="translate(-335.79 -24.51)"/></g><path class="t" d="M339.136,150.111a463.935,463.935,0,0,1,71.266,7.625,4.994,4.994,0,0,0,5.884-4.918V98.174a5.007,5.007,0,0,0-4.028-4.918A464.956,464.956,0,0,0,339.4,85.25a4.981,4.981,0,0,0-5.083,4.994v54.822A4.994,4.994,0,0,0,339.136,150.111Z" transform="translate(-57.365 -8.063)"/><path class="r" d="M376.35,76.11a333.492,333.492,0,0,1,39.992,6.545V86.34a333.5,333.5,0,0,0-39.992-6.557Z" transform="translate(-45.984 -10.537)"/><path class="r" d="M386.89,73.63a222.979,222.979,0,0,1,26.6,4.562v2.389a220.444,220.444,0,0,0-26.6-4.562Z" transform="translate(-43.13 -11.209)"/><path class="u" d="M334.29,53.72a662.88,662.88,0,0,1,82,8.9V74.942a662.867,662.867,0,0,0-82-8.9Z" transform="translate(-57.373 -16.6)"/><path class="u" d="M343.29,35.11a662.915,662.915,0,0,1,82,8.9V62.572a665.375,665.375,0,0,0-82-8.9Z" transform="translate(-54.936 -21.64)"/><path class="u" d="M237.787,185.476a432.067,432.067,0,0,1,70.808-12.352,5.083,5.083,0,0,0,4.664-5.083V58.689a5.083,5.083,0,0,0-5.63-5.083,384.612,384.612,0,0,0-72.6,14.131,5.083,5.083,0,0,0-3.609,4.893V180.545a5.083,5.083,0,0,0,6.367,4.931Z" transform="translate(-85.229 -16.639)"/><path class="s" d="M237.787,68.7a433.334,433.334,0,0,1,70.808-12.365,5.083,5.083,0,0,0,4.664-5.083V34.729a5.083,5.083,0,0,0-5.63-5.083,384.613,384.613,0,0,0-72.6,14.131,5.083,5.083,0,0,0-3.609,4.88v15.11a5.083,5.083,0,0,0,6.367,4.931Z" transform="translate(-85.229 -23.127)"/><g class="v" transform="translate(0 164.325)"><path class="r" d="M158.786,153.82a1.868,1.868,0,0,1,.8.178c1.042.47,1.639,1.83,1.639,3.723v48.43a10.268,10.268,0,0,1-2.859,7.167,335.331,335.331,0,0,0-37.285,36.992c-1.271,1.487-2.4,1.36-2.948,1.157-1.118-.419-1.754-1.8-1.754-3.812V200.636a10.865,10.865,0,0,1,2.173-6.494,312.41,312.41,0,0,1,38.441-39.521A2.719,2.719,0,0,1,158.786,153.82Zm-39.992,96.465a2.046,2.046,0,0,0,1.271-.839h0a335.491,335.491,0,0,1,37.425-37.12,9.061,9.061,0,0,0,2.4-6.2v-48.4c0-1.588-.483-2.376-.89-2.542s-.966.178-1.271.407a311.836,311.836,0,0,0-38.289,39.394,9.683,9.683,0,0,0-1.881,5.68V247.68c0,1.665.5,2.453.928,2.542A.6.6,0,0,0,118.794,250.285Z" transform="translate(-116.38 -153.82)"/></g><g class="w" transform="translate(0.635 138.102)"><path class="r" d="M120.451,186.844a222.261,222.261,0,0,1,37.387-33.295,7.955,7.955,0,0,0,2.618-6.062v-11.03c0-2.758-1.474-4.054-3.164-2.783-14.322,10.8-25.644,21.9-38.39,36.929a9.442,9.442,0,0,0-2.021,5.6v8.972C116.88,187.988,118.634,188.865,120.451,186.844Z" transform="translate(-116.88 -133.184)"/></g><g class="w" transform="translate(0.635 114.77)"><path class="r" d="M120.451,168.484a222.259,222.259,0,0,1,37.387-33.295,7.955,7.955,0,0,0,2.618-6.062V118.1c0-2.758-1.474-4.054-3.164-2.783-14.322,10.8-25.644,21.9-38.39,36.929a9.442,9.442,0,0,0-2.021,5.6v8.972C116.88,169.691,118.634,170.441,120.451,168.484Z" transform="translate(-116.88 -114.824)"/></g><g class="w" transform="translate(0.635 91.388)"><path class="r" d="M120.451,150.135a222.26,222.26,0,0,1,37.387-33.295,7.955,7.955,0,0,0,2.618-6.062V99.7c0-2.758-1.474-4.054-3.164-2.783-14.322,10.8-25.644,21.9-38.39,36.929a9.442,9.442,0,0,0-2.021,5.6v8.972C116.88,151.279,118.634,152.092,120.451,150.135Z" transform="translate(-116.88 -96.424)"/></g><path class="x" d="M274.265,147.367a140.277,140.277,0,0,1,16.914-2.148,1.036,1.036,0,0,0,1.118-.89V119.308c0-.521-.635-.928-1.347-.877a122.62,122.62,0,0,0-17.346,2.453.979.979,0,0,0-.864.851v24.78C272.74,147.113,273.49,147.519,274.265,147.367Z" transform="translate(-74.04 0.921)"/><path class="y" d="M274.265,118.919a137.78,137.78,0,0,1,16.914-2.148,1.036,1.036,0,0,0,1.118-.89V90.86c0-.521-.635-.94-1.347-.89A124.463,124.463,0,0,0,273.6,92.436a.979.979,0,0,0-.864.851v24.768C272.74,118.64,273.49,119.072,274.265,118.919Z" transform="translate(-74.04 -6.785)"/><path class="z" d="M274.265,91.469a137.755,137.755,0,0,1,16.914-2.16,1.027,1.027,0,0,0,1.118-.877V63.41c0-.534-.635-.94-1.347-.89A122.592,122.592,0,0,0,273.6,64.986a.979.979,0,0,0-.864.851V90.605C272.74,91.19,273.49,91.622,274.265,91.469Z" transform="translate(-74.04 -14.218)"/><path class="r" d="M303.33,134.16l19.507-.94v1.957l-19.507.94Z" transform="translate(-65.756 4.927)"/><path class="r" d="M303.33,129.78l19.507-.94V130.8l-19.507.94Z" transform="translate(-65.756 3.741)"/><path class="r" d="M303.33,125.09l19.507-.94v1.957l-19.507.94Z" transform="translate(-65.756 2.471)"/><path class="r" d="M253.7,141.944l19.507-3.634v1.97L253.7,143.9Z" transform="translate(-79.196 6.306)"/><path class="u" d="M235.143,143.114l43.283-8.654-.013,1.944-43.283,8.654Z" transform="translate(-84.224 5.263)"/><path class="u" d="M235.143,140.114l43.283-8.654-.013,1.944-43.283,8.654Z" transform="translate(-84.224 4.451)"/><path class="r" d="M253.7,113.952l19.507-3.622v1.957L253.7,115.909Z" transform="translate(-79.196 -1.271)"/><path class="u" d="M235.143,115.124l43.283-8.654-.013,1.944-43.283,8.654Z" transform="translate(-84.224 -2.316)"/><path class="u" d="M235.143,112.124l43.283-8.654-.013,1.944-43.283,8.654Z" transform="translate(-84.224 -3.129)"/><path class="r" d="M253.7,86.5l19.507-3.622v1.957L253.7,88.459Z" transform="translate(-79.196 -8.704)"/><path class="u" d="M235.143,87.674l43.283-8.654-.013,1.944L235.13,89.618Z" transform="translate(-84.224 -9.749)"/><path class="u" d="M235.143,84.674l43.283-8.654-.013,1.944L235.13,86.618Z" transform="translate(-84.224 -10.562)"/><path class="u" d="M134.148,342.012a2.427,2.427,0,0,0,4.524-1.207V275.283a5.159,5.159,0,0,0-1.347-3.469,155.435,155.435,0,0,1-12.708-16.139,2.008,2.008,0,0,0-3.66,1.144v34.934C120.5,308.971,124.947,325.822,134.148,342.012Z" transform="translate(-115.149 37.852)"/><path class="r" d="M128.69,255.35l8.2,10.281v1.97l-8.2-10.293Z" transform="translate(-113.047 37.998)"/><path class="u" d="M120.88,242.22l18.21,22.2-.013,1.932-18.2-22.2Z" transform="translate(-115.161 34.443)"/><path class="u" d="M120.88,239.22l18.21,22.2-.013,1.932-18.2-22.2Z" transform="translate(-115.161 33.631)"/><path class="r" d="M128.69,235.35l8.2,10.281v1.97l-8.2-10.293Z" transform="translate(-113.047 32.583)"/><path class="u" d="M120.88,222.22l18.21,22.2-.013,1.944-18.2-22.213Z" transform="translate(-115.161 29.027)"/><path class="u" d="M120.88,219.22l18.21,22.2-.013,1.944-18.2-22.213Z" transform="translate(-115.161 28.215)"/></g><g transform="translate(200.746 11.348)"><path class="aa" d="M164.125,346.108,353.218,459.564a33.04,33.04,0,0,0,34.006,0L576.318,346.108a12.581,12.581,0,0,0,6.163-10.891V8.93H158V335.217a12.581,12.581,0,0,0,6.125,10.891Z" transform="translate(-157.962 -8.93)"/><rect class="ab" width="212.247" height="301.469" transform="translate(0 24.806)"/><rect class="ac" width="212.247" height="301.469" transform="translate(424.519 326.287) rotate(180)"/></g><g transform="translate(200.74 208.565)"><path class="r" d="M387.234,417.539,576.327,304.084a12.708,12.708,0,0,0,0-21.794L387.234,168.834a33.04,33.04,0,0,0-34.006,0L164.135,282.29a12.708,12.708,0,0,0,0,21.794L353.228,417.539A33.04,33.04,0,0,0,387.234,417.539Z" transform="translate(-157.965 -164.123)"/></g><g transform="translate(222.006 99.21)"><path class="ad" d="M383.389,300.979,552.4,199.557a8.9,8.9,0,0,0,0-15.186L383.389,82.962a34.311,34.311,0,0,0-35.315,0L178.983,184.422a8.794,8.794,0,0,0,0,15.1l169.091,101.46a34.311,34.311,0,0,0,35.315,0Z" transform="translate(-174.7 -78.07)"/></g><g transform="translate(221.079 212.514)"><path class="ae" d="M515.984,167.7a8.768,8.768,0,0,1-4.3,7.625L342.674,276.746a34.4,34.4,0,0,1-17.664,4.893V421.285a33.034,33.034,0,0,0,17-4.711L516.022,312.163V167.7Z" transform="translate(-133.07 -167.103)"/><path class="af" d="M347.343,276.225l-169.1-101.46c-2.847-1.7-3.38-3.342-3.38-6.265l-.89-1.271.89,145.06,174.1,104.421a33.04,33.04,0,0,0,16.94,4.7v-140.1A37.654,37.654,0,0,1,347.343,276.225Z" transform="translate(-173.97 -167.23)"/></g><g transform="translate(221.953 99.205)"><path class="ag" d="M383.387,300.98,552.516,199.495a8.768,8.768,0,0,0,0-15.059L383.387,82.951a34.311,34.311,0,0,0-35.29,0L178.905,184.474a8.73,8.73,0,0,0,0,14.983L348.11,300.98a34.311,34.311,0,0,0,35.277,0Z" transform="translate(-174.658 -78.066)"/><path class="ah" d="M515.987,168.23a8.807,8.807,0,0,1-4.3,7.625L342.664,277.225A34.312,34.312,0,0,1,325,282.118V421.142a33.034,33.034,0,0,0,17-4.711L516.012,312.02V168.23Z" transform="translate(-133.947 -53.651)"/></g><g transform="translate(221.984 99.459)"><path class="ai" d="M384.207,300.392l168.3-100.939a8.819,8.819,0,0,0,0-15.122L384.207,83.392a35.951,35.951,0,0,0-37.005,0L178.962,184.331a8.819,8.819,0,0,0,0,15.122L347.2,300.392a35.951,35.951,0,0,0,37.005,0Z" transform="translate(-174.682 -78.266)"/></g><g transform="translate(221.917 211.866)"><path class="aj" d="M556.7,168.244a8.807,8.807,0,0,1-4.3,7.625L383.382,277.239a34.311,34.311,0,0,1-35.328,0L178.913,175.8a8.768,8.768,0,0,1-4.283-7.625h0V312.02l174.1,104.421a33.04,33.04,0,0,0,34.006,0L556.743,312.033V168.244Z" transform="translate(-174.63 -166.325)"/><path class="ak" d="M552.407,172.426,383.38,273.822a34.311,34.311,0,0,1-35.328,0L178.91,172.388a8.667,8.667,0,0,1-4.054-5.655,8.768,8.768,0,0,0,4.054,9.467L348.052,277.634a34.311,34.311,0,0,0,35.328,0L552.394,176.225a8.9,8.9,0,0,0,4.079-9.505,8.755,8.755,0,0,1-4.067,5.706Z" transform="translate(-174.627 -166.72)"/></g><g transform="translate(305.065 144.018)"><path class="al" d="M331.391,252.888l141.223-84.736L381.206,113.33,240.06,198.091Z" transform="translate(-240.06 -113.33)"/></g><g transform="translate(300.884 26.191)"><path class="am" d="M240.04,188.582,331.41,243.4l132.9-79.729L372.926,108.84Z" transform="translate(-235.885 3.281)"/><path class="an" d="M236.8,174.611l-.025-4.981L332.3,226.942v4.981Z" transform="translate(-236.77 19.743)"/><path class="ao" d="M444.839,156.959V151.99l-132.9,79.729V236.7Z" transform="translate(-216.415 14.966)"/><path class="ap" d="M240.04,211.943V102.3l132.9-79.729L372.926,132.2Z" transform="translate(-235.885 -20.079)"/><path class="aq" d="M236.77,100.339l132.9-79.729,4.155,2.491-132.9,79.729Z" transform="translate(-236.77 -20.61)"/><path class="ar" d="M236.77,83.35V192.993l4.155,2.491V85.841Z" transform="translate(-236.77 -3.621)"/><path class="as" d="M243.31,103.21v99.668L367.9,128.118V28.45Z" transform="translate(-234.999 -18.487)"/><path class="at" d="M243.27,146.276c9.048-5.719,18.185-11.323,27.271-16.978l13.686-8.413,3.431-2.1a1.766,1.766,0,0,0,.851-1.067l.623-1.919,2.478-7.625.152-.47a1.652,1.652,0,0,1,.712-.915,1.614,1.614,0,0,1,2.186.5l1.029,1.8.991,1.741.5.877.254.432c.076.14,0,0-.089-.089a.686.686,0,0,0-.28-.127.546.546,0,0,0-.508.2.521.521,0,0,0-.127.267v-.216l.089-.991.178-2.008.356-3.99,1.525-16,.75-7.993.191-2,.1-1v-.5a1.983,1.983,0,0,1,.47-1.131,1.868,1.868,0,0,1,3.215.788,2.541,2.541,0,0,1,.076.381v.241l.267,2L305.729,95.9c1.436,10.624,2.707,21.248,4.041,31.884l.5,3.812a.686.686,0,0,0-.33-.407.547.547,0,0,0-.445,0,.636.636,0,0,0-.368.381.307.307,0,0,0,0,.1v-.356l.254-1.982,1.055-7.968,1.042-7.968.534-3.978.267-2a21.113,21.113,0,0,1,.343-2.109,5.591,5.591,0,0,1,1.144-2.173,5.692,5.692,0,0,1,.915-.839,5.762,5.762,0,0,1,.508-.33l.432-.254,3.457-2.033,6.938-4.054,13.864-8.12c9.277-5.35,18.528-10.751,27.843-16.025l.14.229c-9.035,5.744-18.147,11.374-27.246,17.041L327.04,97.173l-6.837,4.194-3.431,2.11-.419.254-.33.229a3.71,3.71,0,0,0-.559.534,3.622,3.622,0,0,0-.686,1.36L312.82,121.7l-.991,7.968-.254,2v.394a1.7,1.7,0,0,1-.089.343,1.741,1.741,0,0,1-1.055,1.055,1.792,1.792,0,0,1-1.423-.089,1.754,1.754,0,0,1-.9-1.182l-.546-4.079c-1.385-10.624-2.834-21.235-4.13-31.871l-2.046-15.961-.254-2V77.92a.508.508,0,0,0,.216.292.457.457,0,0,0,.623-.089c.089-.076.127-.318.114-.2v.5l-.1,1-.2,2-.813,7.993-1.614,15.974-.419,4-.216,2-.1.991v.292a1.487,1.487,0,0,1-1.716,1.271,1.271,1.271,0,0,1-.724-.318,1.421,1.421,0,0,1-.267-.292,2.392,2.392,0,0,0-.127-.2l-.229-.445-.483-.877-.966-1.766-.928-1.7a.318.318,0,0,0,.432.089c.064,0,.14-.191.114-.127l-.165.483-2.618,7.625-.661,1.906a3.482,3.482,0,0,1-1.614,1.957l-3.469,2.033-13.852,8.12c-9.277,5.363-18.515,10.776-27.83,16.088Z" transform="translate(-235.01 -6.832)"/><path class="au" d="M253.11,186.456,369.4,116.69,415.072,144.1,298.795,213.867Z" transform="translate(-232.345 5.407)"/><path class="av" d="M318.47,185.8l49.84-29.9,24.92,14.957-49.84,29.9Z" transform="translate(-214.647 16.025)"/><path class="aw" d="M289.945,208.56l-4.155-2.491L402.08,136.29l4.143,2.5Z" transform="translate(-223.496 10.715)"/><path class="aw" d="M283.4,204.64l-4.143-2.491L395.537,132.37l4.155,2.491Z" transform="translate(-225.264 9.653)"/><path class="aw" d="M276.875,200.707l-4.155-2.491L389.01,128.45l4.143,2.491Z" transform="translate(-227.035 8.592)"/><path class="aw" d="M270.333,196.787,266.19,194.3,382.467,124.53l4.155,2.491Z" transform="translate(-228.803 7.53)"/><path class="aw" d="M263.805,192.867l-4.155-2.491L375.927,120.61l4.155,2.491Z" transform="translate(-230.574 6.469)"/><path class="aw" d="M257.266,188.947l-4.155-2.491L369.4,116.69l4.143,2.491Z" transform="translate(-232.345 5.407)"/></g><g transform="translate(274.109 13.724)"><path class="ax" d="M505.31,274.933l28.821,27.411,16.914,55.216V10.8H505.31Z" transform="translate(-137.277 -10.8)"/><path class="ay" d="M629.468,78.26H215.7V480.223s99.121,41.44,251.934,8.285S629.468,335.645,629.468,335.645Z" transform="translate(-215.7 7.467)"/></g><g transform="translate(278.455 192.791)"><path class="az" d="M623.421,349.711c-9.137,27.7-30.5,59.943-78.725,88.65-88.091,52.382-222.413,60.528-325.576,25.06V314.129a29.228,29.228,0,0,1,35.76-28.491c96.974,22.7,211.815,10.636,289.816-36.154,51.581-30.956,69.512-61.62,78.789-97.774Z" transform="translate(-219.12 -151.71)"/></g><g transform="translate(647.212 108.675)"><path class="ba" d="M544.882,155.033c.508-22.607-6.748-45.265-21.781-66.36a7.625,7.625,0,0,0-13.8,4.5v169.37c24.768,25.962,35.582,51.4,35.582,88.065Z" transform="translate(-509.3 -85.518)"/></g><g transform="translate(277.184 107.369)"><path class="bb" d="M220.662,476.54H218.12V332.332a30.5,30.5,0,0,1,37.323-29.724c100.024,23.4,213.4,9.264,288.863-36.014a205.194,205.194,0,0,0,42.571-33.257V93.449a8.819,8.819,0,0,1,6.227-8.5,8.692,8.692,0,0,1,9.912,3.266c14.932,20.943,22.544,44.16,22.023,67.123-.635,28.211-12.987,55.254-35.582,79.018v29.965l-2.542-2.872V236.972a209.82,209.82,0,0,1-41.263,31.77C494,299.736,424.7,316.256,354.018,316.256a437.4,437.4,0,0,1-99.121-11.2,27.957,27.957,0,0,0-34.2,27.246ZM595.9,87.057a6.532,6.532,0,0,0-2.021.318,6.354,6.354,0,0,0-4.461,6.074V230.694c20.981-22.874,32.43-48.569,33.04-75.37.521-22.734-6.735-44.8-21.6-65.585A6.011,6.011,0,0,0,595.9,87.057Z" transform="translate(-218.12 -84.49)"/></g><g transform="translate(311.19 108.675)"><g class="q" transform="translate(244.98 213.958)"><path class="r" d="M475.708,296.907c.165,1.271.343,2.631.521,3.939a8.235,8.235,0,0,1,.2,1.6,20.13,20.13,0,0,0,.61,5.083c.318,1.474.585,3,.877,4.486l1.067,5.325a2.628,2.628,0,0,1,.127.546,54.2,54.2,0,0,1,.254,6.468c-.152,2.44-.165,4.8-.254,7.205a21.479,21.479,0,0,1-.292,2.3c-.165,1.271-.369,2.542-.534,3.812a5.332,5.332,0,0,0,0,1.271c.152,1.372.343,2.719.508,4.092a10.362,10.362,0,0,1,0,1.411,20.332,20.332,0,0,0,.559,5.172,9.576,9.576,0,0,1,.076,1.067,46.191,46.191,0,0,1-.966,11.221c-.445,2.542-.877,4.994-1.195,7.472a27.344,27.344,0,0,0-.242,3.876c0,3.075,1.919,4.956,4.664,4.74a2.542,2.542,0,0,1,1.271.178.788.788,0,0,1,.216.852,2.363,2.363,0,0,1-.864,1.093,19.791,19.791,0,0,0-2.834,1.436,7.116,7.116,0,0,1-2.2.737,11.055,11.055,0,0,0-2.631.928,7.258,7.258,0,0,1-1.741.508c-.673.1-1.131-.521-.851-1.334a14.156,14.156,0,0,0,.483-4.727c0-1.042.267-2.2.292-3.241a33.958,33.958,0,0,0-1.271-9.76,20.828,20.828,0,0,1-.254-8.285c.191-1.487.267-2.936.369-4.4a8.031,8.031,0,0,0-.546-3.431,17.628,17.628,0,0,1-.661-3.2c-.14-.75-.178-1.576-.356-2.3a64.964,64.964,0,0,0-2.287-8.146,37.923,37.923,0,0,1-1.487-5.655,14.061,14.061,0,0,1,0-2.656c0-.432-.14-.623-.6-.394a.89.89,0,0,0-.572.966c.165,3.812-1.055,7.9-2.046,12-.635,2.542-1.08,5.159-1.55,7.726-.343,1.893-.585,3.812-.9,5.655-.1.61-.292,1.271-.445,1.855a11.437,11.437,0,0,0-.267,5.083,34.367,34.367,0,0,1,.674,5.261,31.069,31.069,0,0,1-.966,7.244,26.885,26.885,0,0,0-.8,6.57,3.036,3.036,0,0,1,0,1.118,5.541,5.541,0,0,0,.114,3.495,3.126,3.126,0,0,1,0,1.474,4.181,4.181,0,0,0,.241,2.961,3.074,3.074,0,0,1,.254,1.093,2.186,2.186,0,0,1-.89,1.881,6.354,6.354,0,0,1-1.449,1,18.656,18.656,0,0,0-3.812,2.364,3.7,3.7,0,0,1-.737.432,19.337,19.337,0,0,0-3.3,1.487.686.686,0,0,1-.864-.229,1.194,1.194,0,0,1,.356-1.4c.267-.254.483-.686.75-.851a11.844,11.844,0,0,0,3.329-4.067c.369-.585.686-1.271,1-1.83a3.46,3.46,0,0,0,.356-.864,17.651,17.651,0,0,0,.356-4.041c-.521-3.571-1.271-6.977-1.906-10.471a28.885,28.885,0,0,1-.7-7.625,26.8,26.8,0,0,1,.343-3.113,33.274,33.274,0,0,0,.546-6.023c0-1.093.241-2.287.267-3.393a19.9,19.9,0,0,0-.254-4.893c-.851-3.52-.572-7.625-.648-11.6a32.869,32.869,0,0,1,.8-7.841c.521-2.3.686-4.537,1.017-6.8a17.079,17.079,0,0,1,.369-2.542,20.589,20.589,0,0,0,.572-5.083,35.462,35.462,0,0,1,.61-4.765,14.118,14.118,0,0,0,0-3.266c0-2.237-1.017-3.812-1.334-5.782,0-.1-.165-.127-.28-.14a.979.979,0,0,0-.2.28,15.577,15.577,0,0,0-1.207,4.753c-.28,2.135-.419,4.232-.623,6.354a2.8,2.8,0,0,1-.063.648,66.156,66.156,0,0,1-2.427,8.222,34.848,34.848,0,0,0-2.681,9.175,10.011,10.011,0,0,0-.191,1.792,20,20,0,0,1-.7,6.214,10.7,10.7,0,0,0-.1,4.244c0,.241.191.47.1.7a2.122,2.122,0,0,1-.635.851c-.381.28-.457,0-.5-.356-.1-.89-.2-1.766-.33-2.631,0-.1-.178-.114-.267-.165a1.591,1.591,0,0,0-.254.432c-.127,1.195-.2,2.376-.343,3.584a7.335,7.335,0,0,1-.356,1.677,1.576,1.576,0,0,1-.712.661c-.14.064-.292-.191-.419-.33a.584.584,0,0,1,0-.3c.191-1.576.381-3.164.559-4.74a1.351,1.351,0,0,0-.152-.432,3.267,3.267,0,0,0-.356.635c-.33,1.512-.61,3.024-.928,4.537-.165.839-.6,1.589-.94,1.677s-.445-.5-.318-1.271.241-1.868.343-2.8c0-.127-.089-.216-.14-.33a1.894,1.894,0,0,1-.165.5l-.61,1.893c-.152.508-.432,1.017-.864.991-.2,0-.33-.457-.292-.788a20.328,20.328,0,0,1,.432-2.338c.153-.673.356-1.36.534-2.033a3.362,3.362,0,0,1,.114-.623c-.152.152-.3.318-.47.457a4.189,4.189,0,0,1-.686.534c-.343.165-.585.14-.419-.381.369-1.271.724-2.542,1.118-3.812a4.369,4.369,0,0,1,.521-.991,21.438,21.438,0,0,1,1.372-2.109,5.706,5.706,0,0,0,1.271-3.317,27.611,27.611,0,0,1,.635-3.812,38.528,38.528,0,0,0,.928-9.137,13.328,13.328,0,0,1,.33-3.406,22.094,22.094,0,0,1,1.271-3.215c.432-1.029.89-2.059,1.271-3.088a14.1,14.1,0,0,0,.928-4.842,27.248,27.248,0,0,1,.483-3.952,4.448,4.448,0,0,0,0-2.135,14.3,14.3,0,0,1-.419-4.791,12.71,12.71,0,0,1,1.347-4.435,17.22,17.22,0,0,1,3.355-4.842,7.015,7.015,0,0,1,1.957-1.512,16.52,16.52,0,0,0,5.007-4.092,13.65,13.65,0,0,0,2.237-2.859,1.577,1.577,0,0,0,.267-.775c-.114-1.449-.267-2.885-.445-4.3a.9.9,0,0,0-.394-.623c-.953-.635-1.093-1.906-1.067-3.3a1.169,1.169,0,0,1,.2-.635c.928-.585.623-1.182.686-1.792a17.466,17.466,0,0,1,.369-2.631,8.209,8.209,0,0,1,2.681-4.194,7.891,7.891,0,0,1,3.9-2.008c1.97-.292,3.024.877,3.24,2.732a12.708,12.708,0,0,1,0,1.563c0,.572,0,1.042.7.788a.447.447,0,0,1,.381.407,18.51,18.51,0,0,1-.267,2.3,4.3,4.3,0,0,1-.445,1.195,12.632,12.632,0,0,0-1.271,6.71.826.826,0,0,0,.635.7c2.059.483,4.079,1.055,6.735-.241a4.054,4.054,0,0,1,3.6,0c2.046.839,3.139,2.681,3.3,5.388a10.915,10.915,0,0,1-.381,3.113,8.9,8.9,0,0,0,0,4.3,8.53,8.53,0,0,1,.381,2.542,7.193,7.193,0,0,0,1.855,5.312,14.778,14.778,0,0,1,1.385,1.893,4.383,4.383,0,0,1,.381,1.639,20.916,20.916,0,0,1,0,2.364,25.417,25.417,0,0,0,.839,6.888c.394,1.576.61,3.291.966,4.892.114.483.343,1.029.737,1.118a3.444,3.444,0,0,1,2.542,2.542,10.442,10.442,0,0,0,.674,1.423c.318.674.165.978-.661,1.271s-.712.267-.546.826c.3,1,.572,2.059.915,3.024a.877.877,0,0,1-.241,1.042c-.432.445-.686.178-.826,0a18.566,18.566,0,0,1-.877-1.741c0-.076-.127-.1-.2-.152s-.089.254-.064.33c.152.851.343,1.665.47,2.542a3.925,3.925,0,0,1,0,1.385c-.076.445-.61.788-.813.546a2.872,2.872,0,0,1-.534-1.017c-.33-1.156-.61-2.338-.915-3.507,0-.114-.114-.178-.178-.267a2.894,2.894,0,0,0-.114.483c.076.9.191,1.779.254,2.681a18.244,18.244,0,0,0,.063,1.868.852.852,0,0,1-.432.877.643.643,0,0,1-.686-.152,9.716,9.716,0,0,1-.394-1.792c-.127-.966-.2-1.97-.318-2.961,0-.089-.076-.14-.114-.2a1.434,1.434,0,0,0-.152.318c-.114.674-.216,1.334-.318,2s-.127.978-.229,1.474-.292.75-.635.75-.318-.241-.318-.457a24.333,24.333,0,0,1,0-3.329,3.432,3.432,0,0,0-.165-1.576,13.279,13.279,0,0,1-.8-5.007A12.542,12.542,0,0,0,483,305.816c-.686-1.271-1.538-2.453-2.135-3.812a16.521,16.521,0,0,1-1.614-6.811,13.419,13.419,0,0,0-1.741-7.04,1.346,1.346,0,0,0-.191-.191,1.405,1.405,0,0,1-.089.33C476.75,291.176,475.632,294.175,475.708,296.907Z" transform="translate(-437.658 -253.885)"/></g><path class="s" d="M508.339,364.643a29.037,29.037,0,0,1-12.644,23.967,255.9,255.9,0,0,1-26.191,15.8,340.027,340.027,0,0,1-32.608,14.347,7.307,7.307,0,0,1-9.925-6.824V290.81a29.05,29.05,0,0,1,18.083-26.89c6.138-2.542,13.636-5.871,22.226-10.255a287.574,287.574,0,0,0,29.686-17.511,7.307,7.307,0,0,1,11.374,6.087Z" transform="translate(-195.572 -45.063)"/><ellipse class="r" cx="1.855" cy="1.296" rx="1.855" ry="1.296" transform="translate(278.423 243.08) rotate(-72.67)"/><path class="r" d="M465.608,281.25c-1.843.114-3.113-1.83-2.808-4.346s2.046-4.638,3.9-4.753,3.113,1.843,2.808,4.346S467.438,281.135,465.608,281.25Zm1.029-8.527c-1.627.089-3.164,1.957-3.431,4.155s.851,3.9,2.542,3.812,3.152-1.97,3.418-4.168-.94-3.9-2.554-3.8Z" transform="translate(-185.882 -34.982)"/><ellipse class="r" cx="1.855" cy="1.296" rx="1.855" ry="1.296" transform="translate(267.799 275.189) rotate(-72.67)"/><path class="r" d="M457.218,306.52c-1.843.114-3.113-1.843-2.808-4.346s2.046-4.638,3.9-4.753,3.113,1.843,2.808,4.346S459.073,306.405,457.218,306.52Zm1.029-8.527c-1.627.089-3.164,1.957-3.431,4.155s.851,3.9,2.478,3.812,3.152-1.97,3.418-4.168-.851-3.9-2.465-3.8Z" transform="translate(-188.154 -28.139)"/><path class="r" d="M475.28,257.882v-3l16.685-9.963v3Z" transform="translate(-182.491 -42.354)"/><path class="r" d="M429.46,301.482v-3l16.673-9.963v2.986Z" transform="translate(-194.898 -30.548)"/><path class="r" d="M465.78,282.847l-.61-.152,4.333-17.842.114-.076L494.7,249.73v.737l-24.641,14.779Z" transform="translate(-185.228 -41.052)"/><path class="r" d="M429.46,304.734v-.75L454.634,288.9l10.141,15.2-.534.356-9.8-14.7Z" transform="translate(-194.898 -30.445)"/><g class="q" transform="translate(0 237.722)"><path class="r" d="M339.948,433.778h-.1a415.644,415.644,0,0,1-90.391-11.361,5.986,5.986,0,0,1-4.575-5.858V278.615a6.011,6.011,0,0,1,2.237-4.689,5.934,5.934,0,0,1,5.007-1.207,454.315,454.315,0,0,0,87.85,9.671,6.062,6.062,0,0,1,5.973,6.023V427.754a6.036,6.036,0,0,1-1.8,4.308A5.96,5.96,0,0,1,339.948,433.778ZM250.878,273.862a4.638,4.638,0,0,0-2.961,1.055,4.689,4.689,0,0,0-1.766,3.7V416.559a4.727,4.727,0,0,0,3.609,4.626,414.627,414.627,0,0,0,90.1,11.323,4.855,4.855,0,0,0,3.393-1.347,4.765,4.765,0,0,0,1.423-3.406V288.362a4.791,4.791,0,0,0-4.715-4.753,455.93,455.93,0,0,1-88.1-9.7,4.272,4.272,0,0,0-.979-.051Z" transform="translate(-244.88 -272.585)"/></g><path class="t" d="M329.529,289.3a465.342,465.342,0,0,1-71.266-7.625,4.994,4.994,0,0,0-5.884,4.918v54.644a4.981,4.981,0,0,0,4.028,4.905,464.628,464.628,0,0,0,72.842,8.006,4.994,4.994,0,0,0,5.083-4.994V294.283a4.994,4.994,0,0,0-4.8-4.982Zm-13.661,51.759-44.91-4.117v-3.622a5.49,5.49,0,0,1,4.5-5.515l9.747-1.817a3.457,3.457,0,0,0,2.834-3.469v-.165c0-1.347-.775-2.262-1.55-3.685a27.449,27.449,0,0,1-2.821-9.874v-3.228a8.743,8.743,0,0,1,9.747-8.9h0a10.891,10.891,0,0,1,9.747,10.637v3.228a23.306,23.306,0,0,1-2.783,9.429,6.431,6.431,0,0,0-1.55,3.406v.165a4.321,4.321,0,0,0,2.821,3.978l9.76,3.609a6.9,6.9,0,0,1,4.5,6.354Z" transform="translate(-242.849 -32.423)"/><path class="r" d="M292.372,348.7A323.683,323.683,0,0,1,252.38,344.4V340.71a323.673,323.673,0,0,0,39.992,4.308Z" transform="translate(-242.849 -16.416)"/><path class="r" d="M278.978,350.978a214.755,214.755,0,0,1-26.6-2.872V345.73a214.768,214.768,0,0,0,26.6,2.885Z" transform="translate(-242.849 -15.056)"/><path class="u" d="M334.384,374.752a665.379,665.379,0,0,1-82-8.9V353.53a665.383,665.383,0,0,0,82,8.9Z" transform="translate(-242.849 -12.944)"/><path class="u" d="M334.384,394.682a665.336,665.336,0,0,1-82-8.832V367.22a665.389,665.389,0,0,0,82,8.9Z" transform="translate(-242.849 -9.237)"/><path class="u" d="M430.85,266.6a433.132,433.132,0,0,1-70.859,12.365,5.083,5.083,0,0,0-4.651,5.083V393.339a5.083,5.083,0,0,0,5.63,5.083,385.05,385.05,0,0,0,72.6-14.131,5.083,5.083,0,0,0,3.609-4.88V271.534a5.083,5.083,0,0,0-6.328-4.931Z" transform="translate(-214.969 -36.525)"/><path class="s" d="M430.85,363.6a433.129,433.129,0,0,1-70.859,12.365,5.083,5.083,0,0,0-4.651,5.083v16.52a5.083,5.083,0,0,0,5.63,5.083,385.052,385.052,0,0,0,72.6-14.131,5.083,5.083,0,0,0,3.609-4.88v-15.11a5.083,5.083,0,0,0-6.328-4.931Z" transform="translate(-214.969 -10.258)"/><g class="v" transform="translate(323.606 136.9)"><path class="r" d="M501.957,290.936a1.919,1.919,0,0,1-.8-.178c-1.029-.47-1.627-1.83-1.627-3.723V238.682a10.255,10.255,0,0,1,2.847-7.167,333.244,333.244,0,0,0,37.3-36.993c1.271-1.474,2.4-1.36,2.948-1.156,1.118.419,1.754,1.8,1.754,3.812V244.2a10.84,10.84,0,0,1-2.186,6.494,311.46,311.46,0,0,1-38.428,39.521A2.745,2.745,0,0,1,501.957,290.936Zm40-96.465a2.071,2.071,0,0,0-1.271.839h0a337.863,337.863,0,0,1-37.425,37.132,9,9,0,0,0-2.4,6.189v48.4c0,1.6.483,2.376.89,2.542s.953-.165,1.271-.407a310.8,310.8,0,0,0,38.289-39.394,9.682,9.682,0,0,0,1.894-5.693V197.063c0-1.665-.5-2.44-.928-2.542a.648.648,0,0,0-.318-.051Z" transform="translate(-499.53 -193.247)"/></g><g class="w" transform="translate(324.202 206.088)"><path class="r" d="M540.03,248.77a223.167,223.167,0,0,1-37.374,33.282A7.93,7.93,0,0,0,500,288.113v11.03c0,2.77,1.474,4.054,3.164,2.783,14.322-10.8,25.644-21.9,38.391-36.929a9.4,9.4,0,0,0,2.021-5.6v-8.972C543.614,247.613,541.847,246.813,540.03,248.77Z" transform="translate(-499.999 -247.692)"/></g><g class="w" transform="translate(324.239 229.418)"><path class="r" d="M540.022,267.13a223.16,223.16,0,0,1-37.374,33.282,7.93,7.93,0,0,0-2.618,6.062V317.5c0,2.77,1.474,4.054,3.164,2.783,14.322-10.8,25.644-21.9,38.39-36.929a9.378,9.378,0,0,0,2.021-5.6v-8.972C543.606,265.986,541.839,265.16,540.022,267.13Z" transform="translate(-500.029 -266.05)"/></g><g class="w" transform="translate(324.239 252.749)"><path class="r" d="M540.022,285.49a223.167,223.167,0,0,1-37.374,33.282,7.93,7.93,0,0,0-2.618,6.062v11.03c0,2.77,1.474,4.054,3.164,2.783,14.322-10.8,25.644-21.9,38.39-36.929a9.378,9.378,0,0,0,2.021-5.6v-8.972C543.606,284.346,541.839,283.52,540.022,285.49Z" transform="translate(-500.029 -284.41)"/></g><path class="bc" d="M381.09,282.746a137.469,137.469,0,0,1-16.914,2.148,1.032,1.032,0,0,0-1.106.89v25.022c0,.521.623.94,1.347.877a122.177,122.177,0,0,0,17.334-2.453c.521-.114.864-.457.864-.851V283.61C382.615,283.077,381.865,282.594,381.09,282.746Z" transform="translate(-212.876 -32.119)"/><path class="bd" d="M381.09,311.2a137.433,137.433,0,0,1-16.914,2.16,1.023,1.023,0,0,0-1.106.877v25.022c0,.534.623.94,1.347.89a122.145,122.145,0,0,0,17.334-2.5c.521-.114.864-.457.864-.851V312.06C382.615,311.475,381.865,311.056,381.09,311.2Z" transform="translate(-212.876 -24.415)"/><path class="be" d="M381.09,338.646a137.438,137.438,0,0,1-16.914,2.16,1.023,1.023,0,0,0-1.106.877V366.7c0,.534.623.94,1.347.89a122.148,122.148,0,0,0,17.334-2.465c.521-.114.864-.457.864-.851V339.51C382.615,338.925,381.865,338.506,381.09,338.646Z" transform="translate(-212.876 -16.982)"/><path class="r" d="M352.027,290.4l-19.507.94V289.38l19.507-.94Z" transform="translate(-221.148 -30.57)"/><path class="r" d="M352.027,294.777l-19.507.94V293.76l19.507-.94Z" transform="translate(-221.148 -29.384)"/><path class="r" d="M352.027,299.48l-19.507.928V298.45l19.507-.94Z" transform="translate(-221.148 -28.114)"/><path class="r" d="M401.657,283.187l-19.507,3.634v-1.97l19.507-3.622Z" transform="translate(-207.709 -32.522)"/><path class="u" d="M425.283,283.084,382,291.751l.013-1.944L425.3,281.14Z" transform="translate(-207.75 -32.546)"/><path class="u" d="M425.283,286.084,382,294.751l.013-1.944L425.3,284.14Z" transform="translate(-207.75 -31.734)"/><path class="r" d="M401.657,311.177l-19.507,3.634v-1.97l19.507-3.622Z" transform="translate(-207.709 -24.943)"/><path class="u" d="M425.283,311.074,382,319.741l.013-1.957L425.3,309.13Z" transform="translate(-207.75 -24.967)"/><path class="u" d="M425.283,314.074,382,322.741l.013-1.957L425.3,312.13Z" transform="translate(-207.75 -24.155)"/><path class="r" d="M401.657,338.627l-19.507,3.634v-1.97l19.507-3.622Z" transform="translate(-207.709 -17.51)"/><path class="u" d="M425.283,338.524,382,347.191l.013-1.957L425.3,336.58Z" transform="translate(-207.75 -17.534)"/><path class="u" d="M425.283,341.524,382,350.191l.013-1.957L425.3,339.58Z" transform="translate(-207.75 -16.722)"/><path class="ba" d="M544.882,155.033c.508-22.607-6.748-45.265-21.781-66.36a7.625,7.625,0,0,0-13.8,4.5v169.37c24.768,25.962,35.582,51.4,35.582,88.065Z" transform="translate(-173.278 -85.518)"/><path class="u" d="M520.824,100.777a2.427,2.427,0,0,0-4.524,1.195v65.5a5.249,5.249,0,0,0,1.347,3.469,155.312,155.312,0,0,1,12.708,16.126,2.008,2.008,0,0,0,3.66-1.144V150.986C534.485,133.8,530.024,116.954,520.824,100.777Z" transform="translate(-171.383 -81.713)"/><path class="r" d="M524.259,171.2l-8.209-10.281V158.96l8.209,10.281Z" transform="translate(-171.451 -65.631)"/><path class="u" d="M534.2,186.875l-18.21-22.213V162.73l18.21,22.2Z" transform="translate(-171.467 -64.61)"/><path class="u" d="M534.2,189.875l-18.21-22.213V165.73l18.21,22.213Z" transform="translate(-171.467 -63.798)"/><path class="r" d="M524.259,191.2l-8.209-10.281V178.96l8.209,10.281Z" transform="translate(-171.451 -60.215)"/><path class="u" d="M534.2,206.875l-18.21-22.213V182.73l18.21,22.213Z" transform="translate(-171.467 -59.194)"/><path class="u" d="M534.2,209.875l-18.21-22.213V185.73l18.21,22.213Z" transform="translate(-171.467 -58.382)"/></g></svg>