<svg xmlns="http://www.w3.org/2000/svg" width="79.873" height="80" viewBox="0 0 79.873 80"><defs><style>.a,.c{fill:#007dc3;}.b,.d{fill:#73c167;}.c,.d{opacity:0.5;}.e{fill:#fff;}</style></defs><g transform="translate(-20 -20.658)"><path class="a" d="M21.6,159.925l.186.149.223.111c.149.037.26.074.409.111a1.655,1.655,0,0,0,.594-.037,2.1,2.1,0,0,0,.446-.149c.111-.037,28.531-11.554,28.531-11.554L53.884,148l.037,2.452,1.672,6.39-1.077,3.529-.669,5.758-.149,6.761-.334,3.046-.074,1.82-.929-.483L23.718,161.969s-.52-.3-.706-.409A6.465,6.465,0,0,1,21.6,159.925Z" transform="translate(-1.006 -80.034)"/><path class="b" d="M119.506,136.434c1.672-.446,1.932-3.864,2.043-3.046A8.026,8.026,0,0,0,123,135.914s34.81,18.761,35.85,19.244,1.449.334,1.449.334l.186-.074c-.074.334-1.486,1.3-1.486,1.3s-38,14.117-38.971,14.414c-.929.3-1.077,0-1.077,0s-1.449-.52-1.449-1.486.037-24.742.037-24.742Z" transform="translate(-61.279 -70.771)"/><path class="b" d="M110.061,152.2l2.3,5.312.854,11.145.929,10.811,5.238.854L112.142,183a3.068,3.068,0,0,1-1.375.3c-.594-.074-.743-.111-1-.334l-5.164-2.9Z" transform="translate(-53.171 -82.674)"/><path class="b" d="M117.5,128.421a3.139,3.139,0,0,0,3.121,3.121h1.6a3.139,3.139,0,0,0,3.121-3.121h0a3.139,3.139,0,0,0-3.121-3.121h-1.6A3.115,3.115,0,0,0,117.5,128.421Z" transform="translate(-61.279 -65.767)"/><path class="c" d="M57.536,65.848,22.689,80.04A1.712,1.712,0,0,1,20.2,78.256l.037-39.119a4.406,4.406,0,0,1,2.489-3.826L57.573,21.119a8.744,8.744,0,0,1,3.9-.372c1.932.334-.966,2.192-.966,2.192l.483,4.235" transform="translate(-0.126)"/><path class="d" d="M167.525,83.04c0,1.56-1.115,2.192-2.489,1.449L130.189,65.84a5.136,5.136,0,0,1-2.489-4.124l.037-39.082c0-1.523,1.114-2.192,2.489-1.449l34.847,18.649a5.191,5.191,0,0,1,2.489,4.124Z" transform="translate(-67.689 -0.14)"/><path class="c" d="M52.432,126.143l-29.98-16.012A5.087,5.087,0,0,1,20,106.045l.037-38.711a1.521,1.521,0,0,1,2.452-1.449L57,84.349" transform="translate(0 -28.234)"/><path class="e" d="M91.9,60.8a47.347,47.347,0,0,0,3.715,13.04,11.171,11.171,0,0,1,1.263,4.9,25.229,25.229,0,0,0,.632,8.359,27.532,27.532,0,0,1,.483,9.1l.446,2.452,2.266-1.152-.334-2.749s-.409-.743.3-5.87.446-9.213.111-9.659c-.371-.446-.26-4.5.186-7.876s0-8.545,0-11.554-1.969-5.275-2.526-10.031a11.664,11.664,0,0,1,1.783-7.876c.26,1.486,3.083,6.018,3.083,6.018,1.152,5.387,4.384,7.764,5.275,11.777s2.378,5.164,3.678,4.978-.3-4.309-.3-4.309c1.3,1.263,1.523.78,1.523.78-.074-1.077-3.566-4.161-3.566-4.161a50.7,50.7,0,0,0-3.641-11.368c-.372-2.675-1.932-5.907-3.009-8.842s-3.306-3.232-5.535-3.381a4.614,4.614,0,0,1-3.381-2.006,20.928,20.928,0,0,1,.111-2.155,18.486,18.486,0,0,1,.594-2.043,4.162,4.162,0,0,1,.594-.149c.186-.074.186-1.152.149-1.449s-.669-.557-.669-.557.557-4.087-3.269-4.235-3.269,4.2-3.269,4.2-.632.26-.669.557-.037,1.412.149,1.449a4.711,4.711,0,0,1,.557.149,12.879,12.879,0,0,1,.594,2.043,20.928,20.928,0,0,1,.111,2.155,4.614,4.614,0,0,1-3.381,2.006c-2.229.149-4.458.483-5.535,3.381-1.115,2.9-2.638,6.167-3.009,8.842a49.389,49.389,0,0,0-3.641,11.368S70.274,60.024,70.2,61.1c0,0,.26.483,1.523-.78,0,0-1.6,4.124-.3,4.309s2.786-.966,3.678-4.978,4.124-6.39,5.275-11.777c0,0,2.823-4.569,3.083-6.018a11.664,11.664,0,0,1,1.783,7.876c-.557,4.755-2.489,7.021-2.489,10.031s-.446,8.173,0,11.554.557,7.43.186,7.876-.632,4.569.111,9.659c.706,5.127.3,5.87.3,5.87l-.446,3.455,2.266,1.152.557-3.158a27.531,27.531,0,0,1,.483-9.1,24.683,24.683,0,0,0,.594-8.359,10.552,10.552,0,0,1,1.263-4.9A48.094,48.094,0,0,0,91.9,60.8Z" transform="translate(-31.551 -0.083)"/><path class="d" d="M154.634,77.5,114.735,91.7a4.457,4.457,0,0,0-2.861,3.826l-.074,38.9a32.6,32.6,0,0,0,3.195,1.783c.037,0,.074.037.111.074l39.416-14.006a4.457,4.457,0,0,0,2.861-3.826l.074-39.119C157.458,77.764,156.195,76.947,154.634,77.5Z" transform="translate(-57.696 -35.617)"/></g></svg>