<svg xmlns="http://www.w3.org/2000/svg" xmlns:xlink="http://www.w3.org/1999/xlink" width="456" height="439.737" viewBox="0 0 456 439.737"><defs><style>.a{fill:url(#a);}.b{fill:#231f20;opacity:0.21;}.c{fill:url(#b);}.d{fill:url(#c);}.e{fill:url(#d);}.f{fill:url(#e);}.g{fill:url(#f);}.h{fill:url(#g);}.i{opacity:0.52;fill:url(#h);}.j{fill:url(#i);}.k{fill:url(#j);}.l{fill:url(#k);}.m{fill:url(#l);}.n{fill:url(#m);}.o{fill:url(#n);}.p,.q,.r{fill:url(#o);}.q{opacity:0.5;}.r{opacity:0.2;}.s{fill:url(#r);}.t{fill:url(#s);}.u{fill:url(#t);}.v{fill:url(#u);}.w{fill:url(#v);}.x{fill:url(#w);}.y{fill:url(#x);}.z{fill:url(#y);}.aa{fill:url(#z);}.ab{fill:url(#aa);}.ac{fill:url(#ab);}.ad{fill:url(#ac);}.ae{fill:url(#ad);}.af{fill:url(#ae);}.ag{fill:url(#af);}.ah{fill:url(#ag);}.ai{fill:url(#ah);}.aj{fill:url(#ai);}.ak{fill:url(#aj);}.al{fill:url(#al);}.am{fill:url(#am);}.an{fill:url(#ao);}.ao{fill:url(#ap);}.ap{fill:url(#ar);}.aq{fill:url(#as);}.ar{fill:url(#at);}.as{fill:url(#au);}.at{fill:url(#av);}.au{fill:url(#ax);}.av{opacity:0.62;}.aw{fill:url(#ay);}.ax{fill:url(#ba);}.ay{fill:url(#bb);}.az{fill:url(#bd);}.ba{fill:url(#be);}.bb{fill:url(#bg);}.bc{fill:url(#bh);}.bd{fill:url(#bi);}.be{fill:url(#bj);}.bf{fill:url(#bk);}.bg{fill:url(#bm);}.bh{fill:url(#bo);}.bi{fill:url(#bp);}.bj{fill:url(#bq);}.bk{fill:url(#bs);}.bl{opacity:0.74;}.bm{fill:url(#bt);}.bn{fill:url(#bv);}.bo{opacity:0.43;}.bp{fill:url(#bw);}.bq{fill:url(#by);}.br{opacity:0.82;}.bs{fill:url(#bz);}.bt{fill:url(#ca);}.bu{fill:url(#cc);}.bv{fill:url(#cd);}.bw{fill:url(#ce);}.bx{fill:url(#cf);}.by{fill:url(#ch);}.bz{fill:url(#ci);}.ca{fill:url(#ck);}.cb{fill:url(#cl);}.cc{fill:url(#cn);}.cd{fill:url(#cr);}.ce{fill:url(#ct);}.cf{fill:url(#cu);}.cg{fill:url(#cw);}.ch{fill:url(#cz);}.ci{fill:url(#da);}.cj{fill:url(#dc);}.ck{fill:url(#dd);}.cl{fill:url(#df);}.cm{fill:url(#dg);}.cn{fill:url(#dj);}.co{opacity:0.42;}.cp{fill:url(#dm);}.cq{fill:url(#dn);}.cr{fill:url(#do);}.cs{fill:url(#du);}.ct{fill:url(#dv);}.cu{fill:url(#dx);}.cv{opacity:0.67;}.cw{fill:url(#dy);}.cx{fill:url(#ea);}.cy{fill:url(#ee);}.cz{fill:url(#eg);}.da{opacity:0.32;}.db{fill:url(#eh);}.dc{fill:url(#ej);}.dd{opacity:0.55;}.de{fill:url(#ek);}.df{fill:url(#em);}.dg{fill:url(#en);}.dh{fill:url(#ep);}.di{fill:url(#eq);}</style><radialGradient id="a" cx="232.521" cy="183.045" r="321.624" gradientTransform="translate(68.806 107.759) scale(0.704 0.411)" gradientUnits="userSpaceOnUse"><stop offset="0" stop-color="#fff" stop-opacity="0.502"/><stop offset="0.17" stop-color="#f8f7f7" stop-opacity="0.478"/><stop offset="0.35" stop-color="#e1e1e1" stop-opacity="0.431"/><stop offset="0.53" stop-color="#bdbcbc" stop-opacity="0.349"/><stop offset="0.72" stop-color="#898788" stop-opacity="0.231"/><stop offset="0.91" stop-color="#484445" stop-opacity="0.078"/><stop offset="1" stop-color="#231f20" stop-opacity="0"/></radialGradient><linearGradient id="b" x1="0.441" y1="0.319" x2="0.581" y2="0.623" gradientUnits="objectBoundingBox"><stop offset="0" stop-color="#b50000"/><stop offset="0.08" stop-color="#d40000"/><stop offset="0.15" stop-color="#ec0000"/><stop offset="0.23" stop-color="#fa0000"/><stop offset="0.29" stop-color="red"/><stop offset="0.53" stop-color="#d80606"/><stop offset="1" stop-color="#821515"/></linearGradient><linearGradient id="c" x1="0.5" y1="0.085" x2="0.5" y2="0.945" gradientUnits="objectBoundingBox"><stop offset="0" stop-color="#b50000"/><stop offset="0.34" stop-color="#a70606"/><stop offset="0.99" stop-color="#831515"/><stop offset="1" stop-color="#821515"/></linearGradient><linearGradient id="d" x1="0.425" y1="0.275" x2="0.602" y2="0.698" gradientUnits="objectBoundingBox"><stop offset="0" stop-color="#e6e7e8"/><stop offset="0.23" stop-color="#d8d9db"/><stop offset="0.66" stop-color="#b4b5b8"/><stop offset="1" stop-color="#939598"/></linearGradient><linearGradient id="e" x1="-5.5" y1="1.013" x2="-4.526" y2="1.013" gradientUnits="objectBoundingBox"><stop offset="0" stop-color="#a7a9ac"/><stop offset="0.51" stop-color="#fff"/><stop offset="0.67" stop-color="#e1e2e3"/><stop offset="1" stop-color="#a7a9ac"/></linearGradient><radialGradient id="f" cx="202.783" cy="188.035" r="258.73" gradientTransform="translate(40.547 -7.434) scale(0.585 0.41)" gradientUnits="userSpaceOnUse"><stop offset="0" stop-color="#00daff" stop-opacity="0"/><stop offset="0.4" stop-color="#00daff" stop-opacity="0.012"/><stop offset="0.54" stop-color="#00daff" stop-opacity="0.031"/><stop offset="0.65" stop-color="#00daff" stop-opacity="0.078"/><stop offset="0.73" stop-color="#00daff" stop-opacity="0.149"/><stop offset="0.8" stop-color="#00daff" stop-opacity="0.231"/><stop offset="0.86" stop-color="#00daff" stop-opacity="0.341"/><stop offset="0.92" stop-color="#00daff" stop-opacity="0.471"/><stop offset="0.97" stop-color="#00daff" stop-opacity="0.612"/><stop offset="1" stop-color="#00daff" stop-opacity="0.698"/></radialGradient><radialGradient id="g" cx="202.783" cy="188.035" r="258.73" gradientTransform="translate(40.547 -7.434) scale(0.585 0.41)" gradientUnits="userSpaceOnUse"><stop offset="0" stop-color="#00daff" stop-opacity="0"/><stop offset="0.41" stop-color="#03dafe" stop-opacity="0.012"/><stop offset="0.56" stop-color="#0cdafc" stop-opacity="0.039"/><stop offset="0.67" stop-color="#1dd9f9" stop-opacity="0.102"/><stop offset="0.76" stop-color="#35d8f4" stop-opacity="0.18"/><stop offset="0.83" stop-color="#54d7ee" stop-opacity="0.278"/><stop offset="0.9" stop-color="#7ad6e6" stop-opacity="0.412"/><stop offset="0.95" stop-color="#a6d4dd" stop-opacity="0.561"/><stop offset="1" stop-color="#d1d3d4" stop-opacity="0.698"/></radialGradient><linearGradient id="h" x1="0.5" y1="0.969" x2="0.5" y2="-0.003" gradientUnits="objectBoundingBox"><stop offset="0" stop-color="#fff" stop-opacity="0"/><stop offset="0.11" stop-color="#fff" stop-opacity="0.02"/><stop offset="0.27" stop-color="#fff" stop-opacity="0.09"/><stop offset="0.46" stop-color="#fff" stop-opacity="0.212"/><stop offset="0.66" stop-color="#fff" stop-opacity="0.369"/><stop offset="0.88" stop-color="#fff" stop-opacity="0.569"/><stop offset="1" stop-color="#fff" stop-opacity="0.698"/></linearGradient><linearGradient id="i" x1="-0.106" y1="0.575" x2="0.291" y2="0.526" gradientUnits="objectBoundingBox"><stop offset="0" stop-color="#fff" stop-opacity="0.502"/><stop offset="0.1" stop-color="#fff" stop-opacity="0.431"/><stop offset="0.39" stop-color="#fff" stop-opacity="0.251"/><stop offset="0.65" stop-color="#fff" stop-opacity="0.11"/><stop offset="0.86" stop-color="#fff" stop-opacity="0.031"/><stop offset="1" stop-color="#fff" stop-opacity="0"/></linearGradient><linearGradient id="j" x1="-13.535" y1="0.575" x2="-13.137" y2="0.526" xlink:href="#i"/><linearGradient id="k" x1="0.5" y1="0.997" x2="0.5" y2="0.019" gradientUnits="objectBoundingBox"><stop offset="0" stop-color="#fff"/><stop offset="0.33" stop-color="#e1e2e3"/><stop offset="1" stop-color="#a7a9ac"/></linearGradient><linearGradient id="l" x1="0.015" y1="0.5" x2="0.989" y2="0.5" xlink:href="#e"/><linearGradient id="m" x1="0.002" y1="0.502" x2="1" y2="0.502" xlink:href="#e"/><linearGradient id="n" x1="0" y1="0.491" x2="1" y2="0.491" xlink:href="#e"/><linearGradient id="o" x1="0.261" y1="0.01" x2="0.708" y2="0.926" gradientUnits="objectBoundingBox"><stop offset="0" stop-color="red" stop-opacity="0.698"/><stop offset="0.02" stop-color="#fd0304" stop-opacity="0.659"/><stop offset="0.09" stop-color="#f60e12" stop-opacity="0.502"/><stop offset="0.16" stop-color="#f1161c" stop-opacity="0.388"/><stop offset="0.21" stop-color="#ee1a22" stop-opacity="0.322"/><stop offset="0.25" stop-color="#ed1c24" stop-opacity="0.302"/><stop offset="0.29" stop-color="#d92b34" stop-opacity="0.239"/><stop offset="0.44" stop-color="#9c5767" stop-opacity="0.071"/><stop offset="0.52" stop-color="#85687a" stop-opacity="0"/><stop offset="0.67" stop-color="#479db8" stop-opacity="0.141"/><stop offset="0.82" stop-color="#00daff" stop-opacity="0.302"/><stop offset="0.85" stop-color="#00daff" stop-opacity="0.322"/><stop offset="0.89" stop-color="#00daff" stop-opacity="0.38"/><stop offset="0.93" stop-color="#00daff" stop-opacity="0.471"/><stop offset="0.97" stop-color="#00daff" stop-opacity="0.612"/><stop offset="1" stop-color="#00daff" stop-opacity="0.698"/></linearGradient><linearGradient id="r" x1="0.5" y1="0.002" x2="0.5" y2="0.979" gradientUnits="objectBoundingBox"><stop offset="0" stop-color="#ed1c24"/><stop offset="0.13" stop-color="#f1161d" stop-opacity="0.8"/><stop offset="0.3" stop-color="#f51014" stop-opacity="0.561"/><stop offset="0.47" stop-color="#f90a0d" stop-opacity="0.361"/><stop offset="0.62" stop-color="#fb0607" stop-opacity="0.2"/><stop offset="0.77" stop-color="#fd0303" stop-opacity="0.09"/><stop offset="0.9" stop-color="#ff0101" stop-opacity="0.02"/><stop offset="1" stop-color="red" stop-opacity="0"/></linearGradient><linearGradient id="s" x1="0.5" y1="0.944" x2="0.5" y2="0.011" gradientUnits="objectBoundingBox"><stop offset="0" stop-color="#fff" stop-opacity="0.502"/><stop offset="0.22" stop-color="#fff" stop-opacity="0.329"/><stop offset="0.45" stop-color="#fff" stop-opacity="0.188"/><stop offset="0.66" stop-color="#fff" stop-opacity="0.078"/><stop offset="0.85" stop-color="#fff" stop-opacity="0.02"/><stop offset="1" stop-color="#fff" stop-opacity="0"/></linearGradient><linearGradient id="t" x1="4.636" y1="0.225" x2="-0.402" y2="0.583" xlink:href="#s"/><linearGradient id="u" x1="0.5" y1="0.002" x2="0.5" y2="0.978" xlink:href="#r"/><linearGradient id="v" x1="0.5" y1="0.943" x2="0.5" y2="0.01" xlink:href="#s"/><linearGradient id="w" x1="3.209" y1="0.221" x2="-0.026" y2="0.591" xlink:href="#s"/><linearGradient id="x" x1="0.5" y1="0.002" x2="0.5" y2="0.979" xlink:href="#r"/><linearGradient id="y" x1="0.5" y1="0.943" x2="0.5" y2="0.011" xlink:href="#s"/><linearGradient id="z" x1="6.665" y1="0.227" x2="-0.937" y2="0.579" xlink:href="#s"/><linearGradient id="aa" x1="0.5" y1="0.002" x2="0.5" y2="0.979" xlink:href="#r"/><linearGradient id="ab" x1="0.5" y1="0.943" x2="0.5" y2="0.011" xlink:href="#s"/><linearGradient id="ac" x1="4.642" y1="0.225" x2="-0.404" y2="0.583" xlink:href="#s"/><linearGradient id="ad" x1="0.5" y1="0.002" x2="0.5" y2="0.979" xlink:href="#r"/><linearGradient id="ae" x1="0.5" y1="0.944" x2="0.5" y2="0.011" xlink:href="#s"/><linearGradient id="af" x1="3.202" y1="0.221" x2="-0.023" y2="0.591" xlink:href="#s"/><linearGradient id="ag" x1="0.5" y1="0.002" x2="0.5" y2="0.978" xlink:href="#r"/><linearGradient id="ah" x1="0.5" y1="0.944" x2="0.5" y2="0.01" xlink:href="#s"/><linearGradient id="ai" x1="4.057" y1="0.224" x2="-0.249" y2="0.586" xlink:href="#s"/><linearGradient id="aj" x1="0.5" y1="0.002" x2="0.5" y2="0.979" xlink:href="#r"/><linearGradient id="al" x1="3.481" y1="0.222" x2="-0.096" y2="0.589" xlink:href="#s"/><linearGradient id="am" x1="0.5" y1="0.002" x2="0.5" y2="0.978" xlink:href="#r"/><linearGradient id="ao" x1="2.319" y1="0.214" x2="0.208" y2="0.604" xlink:href="#s"/><linearGradient id="ap" x1="0.5" y1="0.002" x2="0.5" y2="0.978" xlink:href="#r"/><linearGradient id="ar" x1="2.038" y1="0.21" x2="0.283" y2="0.612" xlink:href="#s"/><linearGradient id="as" x1="0.5" y1="0.002" x2="0.5" y2="0.979" xlink:href="#r"/><linearGradient id="at" x1="0.5" y1="0.943" x2="0.5" y2="0.011" xlink:href="#s"/><linearGradient id="au" x1="1.742" y1="0.202" x2="0.361" y2="0.625" xlink:href="#s"/><linearGradient id="av" x1="0.5" y1="0.002" x2="0.5" y2="0.978" xlink:href="#r"/><linearGradient id="ax" x1="1.743" y1="0.202" x2="0.361" y2="0.625" xlink:href="#s"/><linearGradient id="ay" x1="0.5" y1="0.003" x2="0.5" y2="0.979" xlink:href="#r"/><linearGradient id="ba" x1="1.164" y1="0.144" x2="0.513" y2="0.733" xlink:href="#s"/><linearGradient id="bb" x1="0.5" y1="0.003" x2="0.5" y2="0.979" xlink:href="#r"/><linearGradient id="bd" x1="1.744" y1="0.202" x2="0.36" y2="0.626" xlink:href="#s"/><linearGradient id="be" x1="0.5" y1="0.002" x2="0.5" y2="0.979" xlink:href="#r"/><linearGradient id="bg" x1="2.618" y1="0.217" x2="0.13" y2="0.598" xlink:href="#s"/><linearGradient id="bh" x1="0.5" y1="0.002" x2="0.5" y2="0.978" xlink:href="#r"/><linearGradient id="bi" x1="0.5" y1="0.944" x2="0.5" y2="0.01" xlink:href="#s"/><linearGradient id="bj" x1="1.599" y1="0.196" x2="0.4" y2="0.636" xlink:href="#s"/><linearGradient id="bk" x1="0.5" y1="0.003" x2="0.5" y2="0.979" xlink:href="#r"/><linearGradient id="bm" x1="1.742" y1="0.202" x2="0.361" y2="0.625" xlink:href="#s"/><linearGradient id="bo" x1="0.5" y1="0.943" x2="0.5" y2="0.01" xlink:href="#s"/><linearGradient id="bp" x1="1.742" y1="0.202" x2="0.361" y2="0.626" xlink:href="#s"/><linearGradient id="bq" x1="0.5" y1="0.003" x2="0.5" y2="0.978" xlink:href="#r"/><linearGradient id="bs" x1="1.164" y1="0.145" x2="0.515" y2="0.733" xlink:href="#s"/><linearGradient id="bt" x1="0.5" y1="0.003" x2="0.5" y2="0.978" xlink:href="#r"/><linearGradient id="bv" x1="1.162" y1="0.145" x2="0.514" y2="0.733" xlink:href="#s"/><linearGradient id="bw" x1="0.5" y1="0.003" x2="0.5" y2="0.979" xlink:href="#r"/><linearGradient id="by" x1="1.162" y1="0.144" x2="0.514" y2="0.733" xlink:href="#s"/><linearGradient id="bz" x1="0.5" y1="0.002" x2="0.5" y2="0.978" xlink:href="#r"/><linearGradient id="ca" x1="0.5" y1="0.944" x2="0.5" y2="0.01" xlink:href="#s"/><linearGradient id="cc" x1="0.5" y1="0.003" x2="0.5" y2="0.979" xlink:href="#r"/><linearGradient id="cd" x1="0.5" y1="0.944" x2="0.5" y2="0.011" xlink:href="#s"/><linearGradient id="ce" x1="1.162" y1="0.145" x2="0.514" y2="0.733" xlink:href="#s"/><linearGradient id="cf" x1="0.5" y1="0.002" x2="0.5" y2="0.979" gradientUnits="objectBoundingBox"><stop offset="0" stop-color="#00daff"/><stop offset="0.17" stop-color="#00daff" stop-opacity="0.749"/><stop offset="0.33" stop-color="#00daff" stop-opacity="0.522"/><stop offset="0.49" stop-color="#00daff" stop-opacity="0.329"/><stop offset="0.64" stop-color="#00daff" stop-opacity="0.188"/><stop offset="0.78" stop-color="#00daff" stop-opacity="0.078"/><stop offset="0.9" stop-color="#00daff" stop-opacity="0.02"/><stop offset="1" stop-color="#00daff" stop-opacity="0"/></linearGradient><linearGradient id="ch" x1="4.636" y1="0.225" x2="-0.402" y2="0.583" xlink:href="#s"/><linearGradient id="ci" x1="0.5" y1="0.002" x2="0.5" y2="0.979" xlink:href="#cf"/><linearGradient id="ck" x1="3.209" y1="0.221" x2="-0.026" y2="0.591" xlink:href="#s"/><linearGradient id="cl" x1="0.5" y1="0.002" x2="0.5" y2="0.979" xlink:href="#cf"/><linearGradient id="cn" x1="6.089" y1="0.227" x2="-0.786" y2="0.58" xlink:href="#s"/><linearGradient id="cr" x1="0.5" y1="0.002" x2="0.5" y2="0.978" xlink:href="#cf"/><linearGradient id="ct" x1="3.197" y1="0.221" x2="-0.023" y2="0.591" xlink:href="#s"/><linearGradient id="cu" x1="0.5" y1="0.002" x2="0.5" y2="0.978" xlink:href="#cf"/><linearGradient id="cw" x1="4.061" y1="0.224" x2="-0.251" y2="0.586" xlink:href="#s"/><linearGradient id="cz" x1="3.477" y1="0.222" x2="-0.096" y2="0.589" xlink:href="#s"/><linearGradient id="da" x1="0.5" y1="0.002" x2="0.5" y2="0.979" xlink:href="#cf"/><linearGradient id="dc" x1="2.317" y1="0.214" x2="0.209" y2="0.604" xlink:href="#s"/><linearGradient id="dd" x1="0.5" y1="0.002" x2="0.5" y2="0.978" xlink:href="#cf"/><linearGradient id="df" x1="1.46" y1="0.188" x2="0.434" y2="0.651" xlink:href="#s"/><linearGradient id="dg" x1="0.5" y1="0.002" x2="0.5" y2="0.978" xlink:href="#cf"/><linearGradient id="dj" x1="0.5" y1="0.002" x2="0.5" y2="0.979" xlink:href="#cf"/><linearGradient id="dm" x1="0.5" y1="0.002" x2="0.5" y2="0.978" xlink:href="#cf"/><linearGradient id="dn" x1="0.5" y1="0.943" x2="0.5" y2="0.01" xlink:href="#s"/><linearGradient id="do" x1="1.164" y1="0.144" x2="0.513" y2="0.732" xlink:href="#s"/><linearGradient id="du" x1="2.618" y1="0.217" x2="0.13" y2="0.598" xlink:href="#s"/><linearGradient id="dv" x1="0.5" y1="0.003" x2="0.5" y2="0.978" xlink:href="#cf"/><linearGradient id="dx" x1="1.598" y1="0.196" x2="0.399" y2="0.636" xlink:href="#s"/><linearGradient id="dy" x1="0.5" y1="0.002" x2="0.5" y2="0.979" xlink:href="#cf"/><linearGradient id="ea" x1="1.744" y1="0.202" x2="0.36" y2="0.625" xlink:href="#s"/><linearGradient id="ee" x1="0.5" y1="0.002" x2="0.5" y2="0.979" xlink:href="#cf"/><linearGradient id="eg" x1="1.164" y1="0.144" x2="0.514" y2="0.733" xlink:href="#s"/><linearGradient id="eh" x1="0.5" y1="0.003" x2="0.5" y2="0.978" xlink:href="#cf"/><linearGradient id="ej" x1="1.162" y1="0.144" x2="0.514" y2="0.732" xlink:href="#s"/><linearGradient id="ek" x1="0.5" y1="0.003" x2="0.5" y2="0.978" xlink:href="#cf"/><linearGradient id="em" x1="1.164" y1="0.144" x2="0.515" y2="0.732" xlink:href="#s"/><linearGradient id="en" x1="0.5" y1="0.003" x2="0.5" y2="0.979" xlink:href="#cf"/><linearGradient id="ep" x1="1.164" y1="0.144" x2="0.515" y2="0.733" xlink:href="#s"/><linearGradient id="eq" x1="0.5" y1="0.002" x2="0.5" y2="0.979" xlink:href="#cf"/></defs><g transform="translate(-35.01 -43.05)"><g transform="translate(35.01 161.725)"><rect class="a" width="456" height="321.063"/></g><g transform="translate(110.227 174.19)"><path class="b" d="M481.254,179.472c0-7.4-5.043-16.48-11.208-20.185-3.008-1.8-5.718-1.99-7.754-.881h-.08l-.172.091-96.419,57.913h0c-2.413,1.018-3.968,3.763-3.968,7.845a20.086,20.086,0,0,0,.492,4.209L344.11,239.341c-56.77-31.358-145.939-30.535-200.982,2.482a125.806,125.806,0,0,0-12.2,8.326,99.026,99.026,0,0,0-11.905,10.842,79.947,79.947,0,0,0-6.29,7.662,67.922,67.922,0,0,0-6.942,11.962c-.606,1.361-1.144,2.722-1.658,4.094s-.938,2.745-1.327,4.117c-.194.7-.366,1.384-.538,2.081a53.613,53.613,0,0,0-1.487,12.523v23.307c0,22.335,14.112,44.659,42.314,61.6,56.472,33.886,148.878,33.886,205.339,0,28.236-16.937,42.314-39.261,42.314-61.6v-23.25a55.157,55.157,0,0,0-4.06-20.791c-.274-.686-.572-1.361-.869-2.047a67.989,67.989,0,0,0-6.953-11.962,81.555,81.555,0,0,0-6.279-7.662,98.351,98.351,0,0,0-11.951-10.819c-.7-.537-1.4-1.075-2.116-1.6l11.059-6.644a18.07,18.07,0,0,0,3.259,2.539c3.042,1.83,5.821,2.013,7.845.835h0l97.083-58.245h0C479.974,185.819,481.254,183.2,481.254,179.472ZM106.144,303.121q-.16,1.452-.24,2.916c0-.755-.069-1.51-.069-2.287ZM385.6,306.038q-.069-1.464-.24-2.916c.1.217.217.435.309.663a18.536,18.536,0,0,1-.023,2.253Z" transform="translate(-100.78 -157.72)"/></g><g transform="translate(350.641 154.748)"><path class="c" d="M447.992,162.472c0-7.4-5.043-16.48-11.208-20.185-3.008-1.8-5.718-1.99-7.754-.881h-.08l-.172.091L332.36,199.411l15.1,28.877,97.209-58.325h0C446.712,168.819,447.992,166.2,447.992,162.472Z" transform="translate(-307.932 -140.72)"/><ellipse class="d" cx="9.241" cy="16.331" rx="9.241" ry="16.331" transform="translate(15.825 63.255) rotate(-28.16)"/><path class="e" d="M346.453,209.7a12.305,12.305,0,0,0-5.284-9.515,3.591,3.591,0,0,0-3.728-.377h0L311,215.7l12.98,10.087,20.837-12.523h.069a3.957,3.957,0,0,0,1.567-3.568Z" transform="translate(-311 -132.284)"/></g><g transform="translate(110.261 213.502)"><path class="f" d="M143.124,240.819c56.472-33.886,148.878-33.886,205.339,0,28.236,16.937,42.314,39.261,42.314,61.6V279.108c0-22.335-14.112-44.659-42.314-61.607C292,183.626,199.6,183.626,143.124,217.5c-28.236,16.949-42.314,39.272-42.314,61.607v23.307C100.776,280.046,114.888,257.757,143.124,240.819Z" transform="translate(-100.81 -192.095)"/></g><g transform="translate(115.327 223.686)"><path class="g" d="M345.208,340.157c-26.532,15.919-62.065,24.68-100.045,24.68s-73.524-8.76-100.056-24.68C119.4,324.729,105.24,304.4,105.24,282.918s14.158-41.8,39.867-57.182C171.639,209.772,207.172,201,245.163,201s73.513,8.772,100.045,24.691c25.72,15.428,39.878,35.75,39.878,57.182S370.928,324.729,345.208,340.157Z" transform="translate(-105.24 -201)"/><path class="h" d="M345.208,340.157c-26.532,15.919-62.065,24.68-100.045,24.68s-73.524-8.76-100.056-24.68C119.4,324.729,105.24,304.4,105.24,282.918s14.158-41.8,39.867-57.182C171.639,209.772,207.172,201,245.163,201s73.513,8.772,100.045,24.691c25.72,15.428,39.878,35.75,39.878,57.182S370.928,324.729,345.208,340.157Z" transform="translate(-105.24 -201)"/><path class="i" d="M270.063,251.251c-9.584,5.718-22.415,8.92-36.127,8.92s-26.555-3.134-36.127-8.92c-9.286-5.569-14.4-12.912-14.4-20.665s5.112-15.1,14.4-20.665c9.572-5.718,22.4-8.92,36.127-8.92s26.544,3.168,36.127,8.92c9.286,5.569,14.4,12.912,14.4,20.665S279.349,245.682,270.063,251.251Z" transform="translate(-94.012 -201)"/></g><g transform="translate(115.327 50.198)"><path class="j" d="M245.163,380.7c-37.991,0-73.524-8.772-100.056-24.691-25.709-15.428-39.867-35.75-39.867-57.182V49.3H245.163Z" transform="translate(-105.24 -49.3)"/><path class="k" d="M227.59,49.3H367.513V298.783c0,21.477-14.158,41.8-39.878,57.182C301.1,371.884,265.57,380.656,227.59,380.656Z" transform="translate(-87.667 -49.3)"/></g><g transform="translate(110.225 213.502)"><path class="l" d="M348.468,217.5c-56.461-33.874-148.866-33.874-205.339,0s-56.461,89.329,0,123.2,148.889,33.886,205.339-.046S404.94,251.387,348.468,217.5Zm-2.619,118.835c-26.532,15.919-62.065,24.691-100.045,24.691s-73.524-8.772-100.056-24.691c-25.709-15.428-39.867-35.75-39.867-57.182s14.158-41.8,39.867-57.239c26.532-15.908,62.065-24.68,100.056-24.68s73.513,8.772,100.045,24.68c25.72,15.439,39.878,35.761,39.878,57.239s-14.158,41.754-39.878,57.182Z" transform="translate(-100.779 -192.095)"/><path class="m" d="M348.463,329.736c-56.461,33.886-148.866,33.886-205.339,0-28.236-16.937-42.314-39.272-42.314-61.6v23.307c0,22.335,14.112,44.659,42.314,61.6,56.472,33.886,148.878,33.886,205.339,0,28.236-16.937,42.314-39.261,42.314-61.6V268.186C390.812,290.509,376.7,312.845,348.463,329.736Z" transform="translate(-100.774 -181.173)"/><path class="n" d="M350.031,268.731a42.5,42.5,0,0,0-.722-7.809,48.51,48.51,0,0,1,.711,8.015C350.019,268.891,350.031,268.811,350.031,268.731Z" transform="translate(-65.082 -182.209)"/><path class="o" d="M105.24,268.72v.286a48.513,48.513,0,0,1,.709-8.005A43.458,43.458,0,0,0,105.24,268.72Z" transform="translate(-100.138 -182.198)"/></g><g transform="translate(115.327 129.589)"><path class="p" d="M345.208,257.82c-26.532,15.919-62.065,24.691-100.045,24.691s-73.524-8.772-100.056-24.691c-25.709-15.428-39.867-35.75-39.867-57.182S119.4,158.827,145.107,143.4c26.532-15.919,62.065-24.68,100.056-24.68s73.513,8.76,100.045,24.68c25.72,15.428,39.878,35.761,39.878,57.239S370.928,242.392,345.208,257.82Z" transform="translate(-105.24 -118.72)"/><path class="q" d="M345.208,285.82c-26.532,15.919-62.065,24.691-100.045,24.691s-73.524-8.772-100.056-24.691c-25.709-15.428-39.867-35.75-39.867-57.182S119.4,186.827,145.107,171.4c26.532-15.919,62.065-24.68,100.056-24.68s73.513,8.76,100.045,24.68c25.72,15.428,39.878,35.761,39.878,57.239S370.928,270.392,345.208,285.82Z" transform="translate(-105.24 -114.698)"/><path class="r" d="M345.208,315.82c-26.532,15.919-62.065,24.691-100.045,24.691s-73.524-8.772-100.056-24.691c-25.709-15.428-39.867-35.75-39.867-57.182S119.4,216.827,145.107,201.4c26.532-15.919,62.065-24.68,100.056-24.68s73.513,8.76,100.045,24.68c25.72,15.428,39.878,35.761,39.878,57.239S370.928,300.392,345.208,315.82Z" transform="translate(-105.24 -110.389)"/></g><g transform="translate(128.182 43.05)"><path class="s" d="M194.91,211.2V94.593l7.468-4.483,7.479,4.483V211.2Z" transform="translate(-105.215 -36.291)"/><path class="t" d="M202.378,90.11l-7.468,4.483,7.468,4.483,7.479-4.483Z" transform="translate(-105.215 -36.291)"/><path class="u" d="M201.44,98.513V210.635h7.479V94.03Z" transform="translate(-104.277 -35.728)"/><path class="v" d="M162.23,178.846V106.363l7.468-4.483,7.479,4.483v72.483Z" transform="translate(-109.909 -34.6)"/><path class="w" d="M169.7,101.88l-7.468,4.483,7.468,4.483,7.479-4.483Z" transform="translate(-109.909 -34.6)"/><path class="x" d="M168.76,110.283v68h7.479V105.8Z" transform="translate(-108.971 -34.037)"/><path class="y" d="M181.84,226.934V47.533l7.468-4.483,7.479,4.483v179.4Z" transform="translate(-107.092 -43.05)"/><path class="z" d="M189.308,43.05l-7.468,4.483,7.468,4.494,7.479-4.494Z" transform="translate(-107.092 -43.05)"/><path class="aa" d="M188.37,51.464V226.371h7.479V46.97Z" transform="translate(-106.154 -42.487)"/><path class="ab" d="M175.3,195.519V78.914l7.479-4.494,7.468,4.494v116.6Z" transform="translate(-108.032 -38.544)"/><path class="ac" d="M182.779,74.42,175.3,78.914l7.479,4.483,7.468-4.483Z" transform="translate(-108.032 -38.544)"/><path class="ad" d="M181.84,82.833V194.955h7.468V78.35Z" transform="translate(-107.092 -37.98)"/><path class="ae" d="M155.69,197.838V125.743l7.479-4.483,7.468,4.483v72.094Z" transform="translate(-110.848 -31.817)"/><path class="af" d="M163.169,121.26l-7.479,4.483,7.479,4.483,7.468-4.483Z" transform="translate(-110.848 -31.817)"/><path class="ag" d="M162.23,129.663v67.611H169.7V125.18Z" transform="translate(-109.909 -31.254)"/><path class="ah" d="M185.1,206.7V108.023l7.479-4.483,7.479,4.483V206.7Z" transform="translate(-106.624 -34.362)"/><path class="ai" d="M192.579,103.54l-7.479,4.483,7.479,4.483,7.479-4.483Z" transform="translate(-106.624 -34.362)"/><path class="aj" d="M191.64,111.943v94.189h7.479V107.46Z" transform="translate(-105.685 -33.799)"/><path class="ak" d="M201.44,202.772V122.043l7.479-4.483,7.468,4.483v80.729Z" transform="translate(-104.277 -32.348)"/><path class="ac" d="M208.919,117.56l-7.479,4.483,7.479,4.494,7.468-4.494Z" transform="translate(-104.277 -32.348)"/><path class="al" d="M207.98,125.974v76.234h7.468V121.48Z" transform="translate(-103.338 -31.785)"/><path class="am" d="M175.3,182.286V137.433l7.479-4.483,7.468,4.483v44.853Z" transform="translate(-108.032 -30.138)"/><path class="af" d="M182.779,132.95l-7.479,4.483,7.479,4.483,7.468-4.483Z" transform="translate(-108.032 -30.138)"/><path class="an" d="M181.84,141.353v40.37h7.468V136.87Z" transform="translate(-107.092 -29.575)"/><path class="ao" d="M181.84,208.953V172.734l7.468-4.494,7.479,4.494v36.219Z" transform="translate(-107.092 -25.069)"/><path class="z" d="M189.308,168.24l-7.468,4.494,7.468,4.483,7.479-4.483Z" transform="translate(-107.092 -25.069)"/><path class="ap" d="M188.37,176.653v31.736h7.479V172.17Z" transform="translate(-106.154 -24.504)"/><path class="aq" d="M214.51,184.344V157.263l7.479-4.483,7.479,4.483v27.081Z" transform="translate(-102.4 -27.289)"/><path class="ar" d="M221.989,152.78l-7.479,4.483,7.479,4.494,7.479-4.494Z" transform="translate(-102.4 -27.289)"/><path class="as" d="M221.05,161.194v22.587h7.479V156.7Z" transform="translate(-101.461 -26.726)"/><path class="at" d="M227.59,164.594V137.513l7.468-4.483,7.479,4.483v27.081Z" transform="translate(-100.521 -30.126)"/><path class="w" d="M235.058,133.03l-7.468,4.483L235.058,142l7.479-4.483Z" transform="translate(-100.521 -30.126)"/><path class="au" d="M234.12,141.433v22.6H241.6V136.95Z" transform="translate(-99.583 -29.563)"/><g class="av" transform="translate(119.589 89.615)"><path class="aw" d="M221.05,135.031v-9.138l7.479-4.483L236,125.893v9.138Z" transform="translate(-221.05 -121.41)"/><path class="af" d="M228.529,121.41l-7.479,4.483,7.479,4.483L236,125.893Z" transform="translate(-221.05 -121.41)"/><path class="ax" d="M227.59,129.813v4.655h7.468V125.33Z" transform="translate(-220.111 -120.847)"/></g><path class="ay" d="M142.62,168.654v-27.07l7.479-4.495,7.468,4.495v27.07Z" transform="translate(-112.726 -29.543)"/><path class="ac" d="M150.1,137.09l-7.479,4.495,7.479,4.483,7.468-4.483Z" transform="translate(-112.726 -29.543)"/><path class="az" d="M149.16,145.5V168.09h7.468V141.02Z" transform="translate(-111.786 -28.979)"/><path class="ba" d="M194.91,203.354V149.2l7.468-4.483,7.479,4.483v54.151Z" transform="translate(-105.215 -28.447)"/><path class="w" d="M202.378,144.72,194.91,149.2l7.468,4.483,7.479-4.483Z" transform="translate(-105.215 -28.447)"/><path class="bb" d="M201.44,153.123v49.668h7.479V148.64Z" transform="translate(-104.277 -27.884)"/><path class="bc" d="M155.69,172.021v-22.6l7.479-4.483,7.468,4.483v22.6Z" transform="translate(-110.848 -28.416)"/><path class="bd" d="M163.169,144.94l-7.479,4.483,7.479,4.483,7.468-4.483Z" transform="translate(-110.848 -28.416)"/><path class="be" d="M162.23,153.343v18.115H169.7v-22.6Z" transform="translate(-109.909 -27.852)"/><path class="bf" d="M136.08,188.264v-27.07l7.479-4.494,7.479,4.494v27.07Z" transform="translate(-113.665 -26.726)"/><path class="ar" d="M143.559,156.7l-7.479,4.494,7.479,4.483,7.479-4.483Z" transform="translate(-113.665 -26.726)"/><path class="bg" d="M142.62,165.113V187.7H150.1V160.63Z" transform="translate(-112.726 -26.162)"/><path class="aq" d="M168.76,192.183v-27.07l7.479-4.483,7.479,4.483v27.07Z" transform="translate(-108.971 -26.162)"/><path class="bh" d="M176.239,160.63l-7.479,4.483,7.479,4.483,7.479-4.483Z" transform="translate(-108.971 -26.162)"/><path class="bi" d="M175.3,169.033V191.62h7.479V164.55Z" transform="translate(-108.032 -25.599)"/><path class="bj" d="M123.01,162.192v-9.149l7.479-4.483,7.468,4.483v9.149Z" transform="translate(-115.542 -27.896)"/><path class="ac" d="M130.489,148.56l-7.479,4.483,7.479,4.494,7.468-4.494Z" transform="translate(-115.542 -27.896)"/><path class="bk" d="M129.55,156.974v4.655h7.468V152.48Z" transform="translate(-114.603 -27.333)"/><g class="bl" transform="translate(52.321 166.032)"><path class="bm" d="M162.23,201.862v-9.149l7.468-4.483,7.479,4.483v9.149Z" transform="translate(-162.23 -188.23)"/><path class="t" d="M169.7,188.23l-7.468,4.483L169.7,197.2l7.479-4.483Z" transform="translate(-162.23 -188.23)"/><path class="bn" d="M168.76,196.633V201.3h7.479V192.15Z" transform="translate(-161.292 -187.667)"/></g><g class="bo" transform="translate(0 179.539)"><path class="bp" d="M116.48,213.661v-9.138l7.468-4.483,7.479,4.483v9.138Z" transform="translate(-116.48 -200.04)"/><path class="t" d="M123.948,200.04l-7.468,4.483,7.468,4.483,7.479-4.483Z" transform="translate(-116.48 -200.04)"/><path class="bq" d="M123.01,208.443V213.1h7.479V203.96Z" transform="translate(-115.542 -199.477)"/></g><g class="br" transform="translate(0 143.663)"><path class="bs" d="M116.48,182.291v-9.138l7.468-4.483,7.479,4.483v9.138Z" transform="translate(-116.48 -168.67)"/><path class="bt" d="M123.948,168.67l-7.468,4.483,7.468,4.483,7.479-4.483Z" transform="translate(-116.48 -168.67)"/><path class="bq" d="M123.01,177.073v4.655h7.479V172.59Z" transform="translate(-115.542 -168.107)"/></g><path class="bu" d="M136.08,194.051v-9.138l7.479-4.483,7.479,4.483v9.138Z" transform="translate(-113.665 -23.318)"/><path class="bv" d="M143.559,180.43l-7.479,4.483,7.479,4.483,7.479-4.483Z" transform="translate(-113.665 -23.318)"/><path class="bw" d="M142.62,188.833v4.655H150.1V184.35Z" transform="translate(-112.726 -22.755)"/></g><g transform="translate(217.877 110.467)"><path class="bx" d="M279.88,270.148v-116.6l7.468-4.483,7.479,4.483v116.6Z" transform="translate(-182.706 -95.241)"/><path class="bt" d="M287.348,149.06l-7.468,4.483,7.468,4.483,7.479-4.483Z" transform="translate(-182.706 -95.241)"/><path class="by" d="M286.41,157.463V269.585h7.479V152.98Z" transform="translate(-181.768 -94.678)"/><path class="bz" d="M247.19,237.786V165.3l7.479-4.483,7.479,4.483v72.483Z" transform="translate(-187.401 -93.552)"/><path class="bv" d="M254.669,160.82,247.19,165.3l7.479,4.483,7.479-4.483Z" transform="translate(-187.401 -93.552)"/><path class="ca" d="M253.73,169.223v68h7.479V164.74Z" transform="translate(-186.462 -92.989)"/><path class="cb" d="M266.8,268.021V106.483L274.279,102l7.479,4.483V268.021Z" transform="translate(-184.584 -102)"/><path class="ai" d="M274.279,102l-7.479,4.483,7.479,4.483,7.479-4.483Z" transform="translate(-184.584 -102)"/><path class="cc" d="M273.34,110.4V267.458h7.479V105.92Z" transform="translate(-183.645 -101.437)"/><path class="bx" d="M260.27,254.458v-116.6l7.468-4.483,7.479,4.483v116.6Z" transform="translate(-185.522 -97.494)"/><path class="t" d="M267.738,133.37l-7.468,4.483,7.468,4.483,7.479-4.483Z" transform="translate(-185.522 -97.494)"/><path class="u" d="M266.8,141.773V253.895h7.479V137.29Z" transform="translate(-184.584 -96.931)"/><path class="cd" d="M240.66,256.788V184.693l7.468-4.483,7.479,4.483v72.094Z" transform="translate(-188.339 -90.767)"/><path class="w" d="M248.128,180.21l-7.468,4.483,7.468,4.483,7.479-4.483Z" transform="translate(-188.339 -90.767)"/><path class="ce" d="M247.19,188.613v67.611h7.479V184.13Z" transform="translate(-187.401 -90.204)"/><path class="cf" d="M273.34,271.9V173.223l7.479-4.483,7.468,4.483V271.9Z" transform="translate(-183.645 -92.414)"/><path class="t" d="M280.819,168.74l-7.479,4.483,7.479,4.483,7.468-4.483Z" transform="translate(-183.645 -92.414)"/><path class="cg" d="M279.88,177.143v94.189h7.468V172.66Z" transform="translate(-182.706 -91.851)"/><path class="cf" d="M289.68,271.6V190.873l7.468-4.483,7.479,4.483V271.6Z" transform="translate(-181.298 -89.879)"/><path class="bt" d="M297.148,186.39l-7.468,4.483,7.468,4.483,7.479-4.483Z" transform="translate(-181.298 -89.879)"/><path class="ch" d="M296.21,194.793v76.246h7.479V190.31Z" transform="translate(-180.36 -89.316)"/><path class="ci" d="M260.27,241.225V196.383l7.468-4.483,7.479,4.483v44.842Z" transform="translate(-185.522 -89.088)"/><path class="w" d="M267.738,191.9l-7.468,4.483,7.468,4.483,7.479-4.483Z" transform="translate(-185.522 -89.088)"/><path class="cj" d="M266.8,200.3v40.359h7.479V195.82Z" transform="translate(-184.584 -88.525)"/><path class="ck" d="M266.8,250.04V231.673l7.479-4.483,7.479,4.483V250.04Z" transform="translate(-184.584 -84.019)"/><path class="bv" d="M274.279,227.19l-7.479,4.483,7.479,4.483,7.479-4.483Z" transform="translate(-184.584 -84.019)"/><path class="cl" d="M273.34,235.593v13.884h7.479V231.11Z" transform="translate(-183.645 -83.456)"/><path class="cm" d="M299.48,243.294V216.213l7.479-4.483,7.479,4.483v27.081Z" transform="translate(-179.891 -86.239)"/><path class="ai" d="M306.959,211.73l-7.479,4.483,7.479,4.483,7.479-4.483Z" transform="translate(-179.891 -86.239)"/><path class="as" d="M306.02,220.133v22.6H313.5V215.65Z" transform="translate(-178.951 -85.676)"/><path class="cn" d="M306.02,219.764V192.683l7.468-4.483,7.479,4.483v27.081Z" transform="translate(-178.951 -89.619)"/><path class="bt" d="M313.488,188.2l-7.468,4.483,7.468,4.483,7.479-4.483Z" transform="translate(-178.951 -89.619)"/><path class="au" d="M312.55,196.6v22.6h7.479V192.12Z" transform="translate(-178.013 -89.056)"/><g class="co" transform="translate(142.016 71.763)"><path class="cp" d="M319.09,178.371v-9.138l7.479-4.483,7.468,4.483v9.138Z" transform="translate(-319.09 -164.75)"/><path class="cq" d="M326.569,164.75l-7.479,4.483,7.479,4.483,7.468-4.483Z" transform="translate(-319.09 -164.75)"/><path class="cr" d="M325.63,173.153v4.655H333.1V168.67Z" transform="translate(-318.151 -164.187)"/></g><path class="cn" d="M227.59,227.6V200.523l7.468-4.483,7.479,4.483V227.6Z" transform="translate(-190.216 -88.493)"/><path class="t" d="M235.058,196.04l-7.468,4.483,7.468,4.483,7.479-4.483Z" transform="translate(-190.216 -88.493)"/><path class="au" d="M234.12,204.443v22.6H241.6V199.96Z" transform="translate(-189.278 -87.93)"/><path class="cf" d="M279.88,262.305V208.143l7.468-4.483,7.479,4.483v54.162Z" transform="translate(-182.706 -87.399)"/><path class="t" d="M287.348,203.66l-7.468,4.483,7.468,4.483,7.479-4.483Z" transform="translate(-182.706 -87.399)"/><path class="cs" d="M286.41,212.063v49.679h7.479V207.58Z" transform="translate(-181.768 -86.836)"/><path class="ct" d="M240.66,230.961V208.374l7.468-4.494,7.479,4.494v22.587Z" transform="translate(-188.339 -87.367)"/><path class="ac" d="M248.128,203.88l-7.468,4.494,7.468,4.483,7.479-4.483Z" transform="translate(-188.339 -87.367)"/><path class="cu" d="M247.19,212.293v18.1h7.479V207.81Z" transform="translate(-187.401 -86.802)"/><g class="cv" transform="translate(29.894 129.974)"><path class="cw" d="M221.05,247.214V220.133l7.479-4.483L236,220.133v27.081Z" transform="translate(-221.05 -215.65)"/><path class="bd" d="M228.529,215.65l-7.479,4.483,7.479,4.483L236,220.133Z" transform="translate(-221.05 -215.65)"/><path class="cx" d="M227.59,224.053v22.6h7.468V219.57Z" transform="translate(-220.111 -215.087)"/></g><path class="cw" d="M253.73,251.134V224.053l7.479-4.483,7.468,4.483v27.081Z" transform="translate(-186.462 -85.113)"/><path class="af" d="M261.209,219.57l-7.479,4.483,7.479,4.483,7.468-4.483Z" transform="translate(-186.462 -85.113)"/><path class="cx" d="M260.27,227.973v22.6h7.468V223.49Z" transform="translate(-185.522 -84.55)"/><path class="cy" d="M207.98,221.131v-9.138l7.468-4.483,7.479,4.483v9.138Z" transform="translate(-193.033 -86.846)"/><path class="bd" d="M215.448,207.51l-7.468,4.483,7.468,4.483,7.479-4.483Z" transform="translate(-193.033 -86.846)"/><path class="cz" d="M214.51,215.913v4.655h7.479V211.43Z" transform="translate(-192.095 -86.283)"/><g class="da" transform="translate(0 156.963)"><path class="db" d="M194.91,252.882v-9.138l7.468-4.494,7.479,4.494v9.138Z" transform="translate(-194.91 -239.25)"/><path class="z" d="M202.378,239.25l-7.468,4.494,7.468,4.483,7.479-4.483Z" transform="translate(-194.91 -239.25)"/><path class="dc" d="M201.44,247.663v4.655h7.479V243.18Z" transform="translate(-193.972 -238.686)"/></g><g class="dd" transform="translate(44.842 156.963)"><path class="de" d="M234.12,252.882v-9.138l7.479-4.494,7.468,4.494v9.138Z" transform="translate(-234.12 -239.25)"/><path class="ac" d="M241.6,239.25l-7.479,4.494,7.479,4.483,7.468-4.483Z" transform="translate(-234.12 -239.25)"/><path class="df" d="M240.66,247.663v4.655h7.468V243.18Z" transform="translate(-233.181 -238.686)"/></g><path class="dg" d="M325.82,197.971v-9.138l7.479-4.483,7.468,4.483v9.138Z" transform="translate(-176.107 -90.172)"/><path class="af" d="M333.3,184.35l-7.479,4.483,7.479,4.483,7.468-4.483Z" transform="translate(-176.107 -90.172)"/><path class="dh" d="M332.36,192.753v4.655h7.468V188.27Z" transform="translate(-175.168 -89.609)"/><path class="di" d="M299.48,182.091v-9.138l7.479-4.483,7.479,4.483v9.138Z" transform="translate(-179.891 -92.453)"/><path class="ai" d="M306.959,168.47l-7.479,4.483,7.479,4.483,7.479-4.483Z" transform="translate(-179.891 -92.453)"/><path class="bq" d="M306.02,176.873v4.655H313.5V172.39Z" transform="translate(-178.951 -91.89)"/></g></g></svg>