<svg xmlns="http://www.w3.org/2000/svg" xmlns:xlink="http://www.w3.org/1999/xlink" width="456" height="360.438" viewBox="0 0 456 360.438"><defs><style>.a{fill:none;}.b{fill:url(#a);}.c{fill:url(#b);}.d{fill:url(#c);}.e{fill:url(#d);}.f{fill:url(#e);}.g{fill:url(#g);}.h{clip-path:url(#h);}.i{fill:#05b7c9;}.j{fill:url(#i);}.k{fill:url(#j);}.l{fill:#cc0e0e;}.m{fill:#a7a9ac;opacity:0.3;}.n{fill:#fff;opacity:0.5;}</style><radialGradient id="a" cx="232.521" cy="195.753" r="304.426" gradientTransform="translate(59.558 104.925) scale(0.744 0.464)" gradientUnits="userSpaceOnUse"><stop offset="0" stop-color="#fff" stop-opacity="0.502"/><stop offset="0.27" stop-color="#c9c8c9" stop-opacity="0.38"/><stop offset="0.87" stop-color="#413e3f" stop-opacity="0.071"/><stop offset="1" stop-color="#231f20" stop-opacity="0"/></radialGradient><linearGradient id="b" x1="0.496" y1="0.965" x2="0.504" y2="0.036" gradientUnits="objectBoundingBox"><stop offset="0" stop-color="#fff" stop-opacity="0.302"/><stop offset="0.14" stop-color="#fff" stop-opacity="0.188"/><stop offset="0.31" stop-color="#fff" stop-opacity="0.09"/><stop offset="0.46" stop-color="#fff" stop-opacity="0.02"/><stop offset="0.58" stop-color="#fff" stop-opacity="0"/><stop offset="1" stop-color="#fff" stop-opacity="0.051"/></linearGradient><linearGradient id="c" y1="0.5" x2="1" y2="0.5" gradientUnits="objectBoundingBox"><stop offset="0" stop-color="#fff" stop-opacity="0.502"/><stop offset="0" stop-color="#fff" stop-opacity="0.49"/><stop offset="0.06" stop-color="#fff" stop-opacity="0.322"/><stop offset="0.11" stop-color="#fff" stop-opacity="0.18"/><stop offset="0.15" stop-color="#fff" stop-opacity="0.078"/><stop offset="0.19" stop-color="#fff" stop-opacity="0.02"/><stop offset="0.23" stop-color="#fff" stop-opacity="0"/><stop offset="0.29" stop-color="#fff" stop-opacity="0.102"/><stop offset="0.43" stop-color="#fff" stop-opacity="0.361"/><stop offset="0.5" stop-color="#fff" stop-opacity="0.502"/><stop offset="0.65" stop-color="#fff" stop-opacity="0.2"/><stop offset="0.76" stop-color="#fff" stop-opacity="0"/><stop offset="0.82" stop-color="#fff" stop-opacity="0.09"/><stop offset="0.93" stop-color="#fff" stop-opacity="0.329"/><stop offset="1" stop-color="#fff" stop-opacity="0.502"/></linearGradient><linearGradient id="d" x1="0.496" y1="0.965" x2="0.504" y2="0.036" xlink:href="#b"/><linearGradient id="e" x1="0" y1="0.5" y2="0.5" xlink:href="#c"/><linearGradient id="g" x1="0" y1="0.5" y2="0.5" xlink:href="#c"/><clipPath id="h"><rect class="a" width="14.947" height="17.944"/></clipPath><linearGradient id="i" x1="0.5" y1="0.944" x2="0.5" y2="0.011" gradientUnits="objectBoundingBox"><stop offset="0" stop-color="#fff" stop-opacity="0.502"/><stop offset="0.22" stop-color="#fff" stop-opacity="0.329"/><stop offset="0.45" stop-color="#fff" stop-opacity="0.188"/><stop offset="0.66" stop-color="#fff" stop-opacity="0.078"/><stop offset="0.85" stop-color="#fff" stop-opacity="0.02"/><stop offset="1" stop-color="#fff" stop-opacity="0"/></linearGradient><linearGradient id="j" x1="0.011" y1="0.975" x2="0.979" y2="0.035" xlink:href="#i"/></defs><g transform="translate(-35.01 -78.55)"><g transform="translate(35.01 99.787)"><rect class="b" width="456" height="339.201"/></g><g transform="translate(45.977 123.403)"><path class="c" d="M313.562,385.637l112.121-67.268L313.562,251.1,201.44,318.368Z" transform="translate(-22.073 -98.62)"/><path class="d" d="M313.562,378.332l112.121-67.268V309.92L313.562,377.188,201.44,309.92v1.144Z" transform="translate(-22.073 -90.171)"/><path class="e" d="M156.722,315.058l112.122-67.28L156.722,180.51,44.6,247.778Z" transform="translate(-44.6 -108.759)"/><path class="f" d="M156.722,307.753l112.122-67.28V239.33L156.722,306.61,44.6,239.33v1.144Z" transform="translate(-44.6 -100.31)"/><path class="c" d="M326.643,252.307l112.11-67.268L326.643,117.77,214.51,185.038Z" transform="translate(-20.196 -117.77)"/><path class="g" d="M326.643,245l112.11-67.268V176.59l-112.11,67.268L214.51,176.59v1.144Z" transform="translate(-20.196 -109.322)"/></g><g transform="translate(90.819 78.55)"><g class="h" transform="translate(246.658 282.534)"><path class="i" d="M0,13.461V4.483L7.479,0l7.468,4.483v8.977L7.479,17.944Z"/><path class="j" d="M7.479,0,0,4.483,7.479,8.966l7.468-4.483Z"/><path class="k" d="M6.52,8.4l.023,8.977L14.011,12.9,14,3.92Z" transform="translate(0.936 0.563)"/></g><g class="h" transform="translate(284.021 242.175)"><path class="l" d="M0,13.461V4.483L7.479,0l7.468,4.483v8.977L7.479,17.944Z"/><path class="j" d="M7.479,0,0,4.483,7.479,8.966l7.468-4.483Z"/><path class="k" d="M6.52,8.4l.023,8.977L14.011,12.9,14,3.92Z" transform="translate(0.936 0.563)"/></g><g class="h" transform="translate(291.5 246.658)"><path class="i" d="M0,13.461V4.483L7.479,0l7.468,4.483v8.977L7.479,17.944Z"/><path class="j" d="M7.479,0,0,4.483,7.479,8.966l7.468-4.483Z"/><path class="k" d="M6.52,8.4l.023,8.977L14.011,12.9,14,3.92Z" transform="translate(0.936 0.563)"/></g><g class="h" transform="translate(194.28 89.695)"><path class="m" d="M0,13.461V4.483L7.479,0l7.468,4.483v8.977L7.479,17.944Z"/><path class="j" d="M7.479,0,0,4.483,7.479,8.966l7.468-4.483Z"/><path class="k" d="M6.52,8.4l.023,8.977L14.011,12.9,14,3.92Z" transform="translate(0.936 0.563)"/></g><g class="h" transform="translate(179.378 251.141)"><path class="l" d="M0,13.461V4.483L7.479,0l7.468,4.483v8.977L7.479,17.944Z"/><path class="j" d="M7.479,0,0,4.483,7.479,8.966l7.468-4.483Z"/><path class="k" d="M6.52,8.4l.023,8.977L14.011,12.9,14,3.92Z" transform="translate(0.936 0.563)"/></g><g class="h" transform="translate(239.179 233.209)"><path class="i" d="M0,13.461V4.483L7.479,0l7.468,4.483v8.977L7.479,17.944Z"/><path class="j" d="M7.479,0,0,4.483,7.479,8.966l7.468-4.483Z"/><path class="k" d="M6.52,8.4l.023,8.977L14.011,12.9,14,3.92Z" transform="translate(0.936 0.563)"/></g><g class="h" transform="translate(239.179 287.028)"><path class="l" d="M0,13.461V4.483L7.479,0l7.468,4.483v8.977L7.479,17.944Z"/><path class="j" d="M7.479,0,0,4.483,7.479,8.966l7.468-4.483Z"/><path class="k" d="M6.52,8.4l.023,8.977L14.011,12.9,14,3.92Z" transform="translate(0.936 0.563)"/></g><g class="h" transform="translate(298.968 251.141)"><path class="i" d="M0,13.461V4.483L7.479,0l7.468,4.483v8.977L7.479,17.944Z"/><path class="j" d="M7.479,0,0,4.483,7.479,8.966l7.468-4.483Z"/><path class="k" d="M6.52,8.4l.023,8.977L14.011,12.9,14,3.92Z" transform="translate(0.936 0.563)"/></g><g class="h" transform="translate(239.179 224.232)"><path class="l" d="M0,13.461V4.483L7.479,0l7.468,4.483v8.977L7.479,17.944Z"/><path class="j" d="M7.479,0,0,4.483,7.479,8.966l7.468-4.483Z"/><path class="k" d="M6.52,8.4l.023,8.977L14.011,12.9,14,3.92Z" transform="translate(0.936 0.563)"/></g><g class="h" transform="translate(239.179 215.266)"><path class="i" d="M0,13.461V4.483L7.479,0l7.468,4.483v8.977L7.479,17.944Z"/><path class="j" d="M7.479,0,0,4.483,7.479,8.966l7.468-4.483Z"/><path class="k" d="M6.52,8.4l.023,8.977L14.011,12.9,14,3.92Z" transform="translate(0.936 0.563)"/></g><g class="h" transform="translate(239.133 206.299)"><path class="l" d="M0,13.461V4.483L7.479,0l7.468,4.483v8.977L7.479,17.944Z"/><path class="j" d="M7.479,0,0,4.483,7.479,8.966l7.468-4.483Z"/><path class="k" d="M6.52,8.4l.023,8.977L14.011,12.9,14,3.92Z" transform="translate(0.936 0.563)"/></g><g class="h" transform="translate(224.22 224.232)"><path class="i" d="M0,13.461V4.483L7.479,0l7.468,4.483v8.977L7.479,17.944Z"/><path class="j" d="M7.479,0,0,4.483,7.479,8.966l7.468-4.483Z"/><path class="k" d="M6.52,8.4l.023,8.977L14.011,12.9,14,3.92Z" transform="translate(0.936 0.563)"/></g><g class="h" transform="translate(224.22 215.266)"><path class="l" d="M0,13.461V4.483L7.479,0l7.468,4.483v8.977L7.479,17.944Z"/><path class="j" d="M7.479,0,0,4.483,7.479,8.966l7.468-4.483Z"/><path class="k" d="M6.52,8.4l.023,8.977L14.011,12.9,14,3.92Z" transform="translate(0.936 0.563)"/></g><g class="h" transform="translate(261.605 228.726)"><path class="l" d="M0,13.461V4.483L7.479,0l7.468,4.483v8.977L7.479,17.944Z"/><path class="j" d="M7.479,0,0,4.483,7.479,8.966l7.468-4.483Z"/><path class="k" d="M6.52,8.4l.023,8.977L14.011,12.9,14,3.92Z" transform="translate(0.936 0.563)"/></g><g class="h" transform="translate(261.605 219.749)"><path class="i" d="M0,13.461V4.483L7.479,0l7.468,4.483v8.977L7.479,17.944Z"/><path class="j" d="M7.479,0,0,4.483,7.479,8.966l7.468-4.483Z"/><path class="k" d="M6.52,8.4l.023,8.977L14.011,12.9,14,3.92Z" transform="translate(0.936 0.563)"/></g><g class="h" transform="translate(261.594 210.783)"><path class="l" d="M0,13.461V4.483L7.479,0l7.468,4.483v8.977L7.479,17.944Z"/><path class="j" d="M7.479,0,0,4.483,7.479,8.966l7.468-4.483Z"/><path class="k" d="M6.52,8.4l.023,8.977L14.011,12.9,14,3.92Z" transform="translate(0.936 0.563)"/></g><g class="h" transform="translate(209.284 242.175)"><path class="l" d="M0,13.461V4.483L7.479,0l7.468,4.483v8.977L7.479,17.944Z"/><path class="j" d="M7.479,0,0,4.483,7.479,8.966l7.468-4.483Z"/><path class="k" d="M6.52,8.4l.023,8.977L14.011,12.9,14,3.92Z" transform="translate(0.936 0.563)"/></g><g class="h" transform="translate(209.284 233.209)"><path class="i" d="M0,13.461V4.483L7.479,0l7.468,4.483v8.977L7.479,17.944Z"/><path class="j" d="M7.479,0,0,4.483,7.479,8.966l7.468-4.483Z"/><path class="k" d="M6.52,8.4l.023,8.977L14.011,12.9,14,3.92Z" transform="translate(0.936 0.563)"/></g><g class="h" transform="translate(209.262 224.232)"><path class="l" d="M0,13.461V4.483L7.479,0l7.468,4.483v8.977L7.479,17.944Z"/><path class="j" d="M7.479,0,0,4.483,7.479,8.966l7.468-4.483Z"/><path class="k" d="M6.52,8.4l.023,8.977L14.011,12.9,14,3.92Z" transform="translate(0.936 0.563)"/></g><g class="h" transform="translate(209.25 215.266)"><path class="i" d="M0,13.461V4.483L7.479,0l7.468,4.483v8.977L7.479,17.944Z"/><path class="j" d="M7.479,0,0,4.483,7.479,8.966l7.468-4.483Z"/><path class="k" d="M6.52,8.4l.023,8.977L14.011,12.9,14,3.92Z" transform="translate(0.936 0.563)"/></g><g class="h" transform="translate(209.284 206.299)"><path class="i" d="M0,13.461V4.483L7.479,0l7.468,4.483v8.977L7.479,17.944Z"/><path class="j" d="M7.479,0,0,4.483,7.479,8.966l7.468-4.483Z"/><path class="k" d="M6.52,8.4l.023,8.977L14.011,12.9,14,3.92Z" transform="translate(0.936 0.563)"/></g><g class="h" transform="translate(179.356 242.175)"><path class="i" d="M0,13.461V4.483L7.479,0l7.468,4.483v8.977L7.479,17.944Z"/><path class="j" d="M7.479,0,0,4.483,7.479,8.966l7.468-4.483Z"/><path class="k" d="M6.52,8.4l.023,8.977L14.011,12.9,14,3.92Z" transform="translate(0.936 0.563)"/></g><g class="h" transform="translate(186.538 255.624)"><path class="i" d="M0,13.461V4.483L7.479,0l7.468,4.483v8.977L7.479,17.944Z"/><path class="j" d="M7.479,0,0,4.483,7.479,8.966l7.468-4.483Z"/><path class="k" d="M6.52,8.4l.023,8.977L14.011,12.9,14,3.92Z" transform="translate(0.936 0.563)"/></g><g class="h" transform="translate(254.138 251.141)"><path class="i" d="M0,13.461V4.483L7.479,0l7.468,4.483v8.977L7.479,17.944Z"/><path class="j" d="M7.479,0,0,4.483,7.479,8.966l7.468-4.483Z"/><path class="k" d="M6.52,8.4l.023,8.977L14.011,12.9,14,3.92Z" transform="translate(0.936 0.563)"/></g><g class="h" transform="translate(254.138 242.175)"><path class="l" d="M0,13.461V4.483L7.479,0l7.468,4.483v8.977L7.479,17.944Z"/><path class="j" d="M7.479,0,0,4.483,7.479,8.966l7.468-4.483Z"/><path class="k" d="M6.52,8.4l.023,8.977L14.011,12.9,14,3.92Z" transform="translate(0.936 0.563)"/></g><g class="h" transform="translate(254.115 233.209)"><path class="l" d="M0,13.461V4.483L7.479,0l7.468,4.483v8.977L7.479,17.944Z"/><path class="j" d="M7.479,0,0,4.483,7.479,8.966l7.468-4.483Z"/><path class="k" d="M6.52,8.4l.023,8.977L14.011,12.9,14,3.92Z" transform="translate(0.936 0.563)"/></g><g class="h" transform="translate(231.711 264.602)"><path class="i" d="M0,13.461V4.483L7.479,0l7.468,4.483v8.977L7.479,17.944Z"/><path class="j" d="M7.479,0,0,4.483,7.479,8.966l7.468-4.483Z"/><path class="k" d="M6.52,8.4l.023,8.977L14.011,12.9,14,3.92Z" transform="translate(0.936 0.563)"/></g><g class="h" transform="translate(231.711 255.624)"><path class="l" d="M0,13.461V4.483L7.479,0l7.468,4.483v8.977L7.479,17.944Z"/><path class="j" d="M7.479,0,0,4.483,7.479,8.966l7.468-4.483Z"/><path class="k" d="M6.52,8.4l.023,8.977L14.011,12.9,14,3.92Z" transform="translate(0.936 0.563)"/></g><g class="h" transform="translate(231.711 246.658)"><path class="i" d="M0,13.461V4.483L7.479,0l7.468,4.483v8.977L7.479,17.944Z"/><path class="j" d="M7.479,0,0,4.483,7.479,8.966l7.468-4.483Z"/><path class="k" d="M6.52,8.4l.023,8.977L14.011,12.9,14,3.92Z" transform="translate(0.936 0.563)"/></g><g class="h" transform="translate(231.688 237.692)"><path class="l" d="M0,13.461V4.483L7.479,0l7.468,4.483v8.977L7.479,17.944Z"/><path class="j" d="M7.479,0,0,4.483,7.479,8.966l7.468-4.483Z"/><path class="k" d="M6.52,8.4l.023,8.977L14.011,12.9,14,3.92Z" transform="translate(0.936 0.563)"/></g><g class="h" transform="translate(261.571 264.602)"><path class="i" d="M0,13.461V4.483L7.479,0l7.468,4.483v8.977L7.479,17.944Z"/><path class="j" d="M7.479,0,0,4.483,7.479,8.966l7.468-4.483Z"/><path class="k" d="M6.52,8.4l.023,8.977L14.011,12.9,14,3.92Z" transform="translate(0.936 0.563)"/></g><g class="h" transform="translate(261.571 255.624)"><path class="l" d="M0,13.461V4.483L7.479,0l7.468,4.483v8.977L7.479,17.944Z"/><path class="j" d="M7.479,0,0,4.483,7.479,8.966l7.468-4.483Z"/><path class="k" d="M6.52,8.4l.023,8.977L14.011,12.9,14,3.92Z" transform="translate(0.936 0.563)"/></g><g class="h" transform="translate(261.571 246.658)"><path class="i" d="M0,13.461V4.483L7.479,0l7.468,4.483v8.977L7.479,17.944Z"/><path class="j" d="M7.479,0,0,4.483,7.479,8.966l7.468-4.483Z"/><path class="k" d="M6.52,8.4l.023,8.977L14.011,12.9,14,3.92Z" transform="translate(0.936 0.563)"/></g><g class="h" transform="translate(246.635 273.568)"><path class="l" d="M0,13.461V4.483L7.479,0l7.468,4.483v8.977L7.479,17.944Z"/><path class="j" d="M7.479,0,0,4.483,7.479,8.966l7.468-4.483Z"/><path class="k" d="M6.52,8.4l.023,8.977L14.011,12.9,14,3.92Z" transform="translate(0.936 0.563)"/></g><g class="h" transform="translate(284.021 260.119)"><path class="l" d="M0,13.461V4.483L7.479,0l7.468,4.483v8.977L7.479,17.944Z"/><path class="j" d="M7.479,0,0,4.483,7.479,8.966l7.468-4.483Z"/><path class="k" d="M6.52,8.4l.023,8.977L14.011,12.9,14,3.92Z" transform="translate(0.936 0.563)"/></g><g class="h" transform="translate(298.968 242.175)"><path class="l" d="M0,13.461V4.483L7.479,0l7.468,4.483v8.977L7.479,17.944Z"/><path class="j" d="M7.479,0,0,4.483,7.479,8.966l7.468-4.483Z"/><path class="k" d="M6.52,8.4l.023,8.977L14.011,12.9,14,3.92Z" transform="translate(0.936 0.563)"/></g><g class="h" transform="translate(298.956 233.209)"><path class="i" d="M0,13.461V4.483L7.479,0l7.468,4.483v8.977L7.479,17.944Z"/><path class="j" d="M7.479,0,0,4.483,7.479,8.966l7.468-4.483Z"/><path class="k" d="M6.52,8.4l.023,8.977L14.011,12.9,14,3.92Z" transform="translate(0.936 0.563)"/></g><g class="h" transform="translate(194.005 260.119)"><path class="l" d="M0,13.461V4.483L7.479,0l7.468,4.483v8.977L7.479,17.944Z"/><path class="j" d="M7.479,0,0,4.483,7.479,8.966l7.468-4.483Z"/><path class="k" d="M6.52,8.4l.023,8.977L14.011,12.9,14,3.92Z" transform="translate(0.936 0.563)"/></g><g class="h" transform="translate(179.344 233.209)"><path class="l" d="M0,13.461V4.483L7.479,0l7.468,4.483v8.977L7.479,17.944Z"/><path class="j" d="M7.479,0,0,4.483,7.479,8.966l7.468-4.483Z"/><path class="k" d="M6.52,8.4l.023,8.977L14.011,12.9,14,3.92Z" transform="translate(0.936 0.563)"/></g><g class="h" transform="translate(216.764 255.624)"><path class="l" d="M0,13.461V4.483L7.479,0l7.468,4.483v8.977L7.479,17.944Z"/><path class="j" d="M7.479,0,0,4.483,7.479,8.966l7.468-4.483Z"/><path class="k" d="M6.52,8.4l.023,8.977L14.011,12.9,14,3.92Z" transform="translate(0.936 0.563)"/></g><g class="h" transform="translate(67.28 201.816)"><path class="i" d="M0,13.461V4.483L7.479,0l7.468,4.483v8.977L7.479,17.944Z"/><path class="j" d="M7.479,0,0,4.483,7.479,8.966l7.468-4.483Z"/><path class="k" d="M6.52,8.4l.023,8.977L14.011,12.9,14,3.92Z" transform="translate(0.936 0.563)"/></g><g class="h" transform="translate(104.654 161.446)"><path class="l" d="M0,13.461V4.483L7.479,0l7.468,4.483v8.977L7.479,17.944Z"/><path class="j" d="M7.479,0,0,4.483,7.479,8.966l7.468-4.483Z"/><path class="k" d="M6.52,8.4l.023,8.977L14.011,12.9,14,3.92Z" transform="translate(0.936 0.563)"/></g><g class="h" transform="translate(112.122 165.929)"><path class="i" d="M0,13.461V4.483L7.479,0l7.468,4.483v8.977L7.479,17.944Z"/><path class="j" d="M7.479,0,0,4.483,7.479,8.966l7.468-4.483Z"/><path class="k" d="M6.52,8.4l.023,8.977L14.011,12.9,14,3.92Z" transform="translate(0.936 0.563)"/></g><g class="h" transform="translate(0 170.412)"><path class="l" d="M0,13.461V4.483L7.479,0l7.468,4.483v8.977L7.479,17.944Z"/><path class="j" d="M7.479,0,0,4.483,7.479,8.966l7.468-4.483Z"/><path class="k" d="M6.52,8.4l.023,8.977L14.011,12.9,14,3.92Z" transform="translate(0.936 0.563)"/></g><g class="h" transform="translate(59.8 152.48)"><path class="i" d="M0,13.461V4.483L7.479,0l7.468,4.483v8.977L7.479,17.944Z"/><path class="j" d="M7.479,0,0,4.483,7.479,8.966l7.468-4.483Z"/><path class="k" d="M6.52,8.4l.023,8.977L14.011,12.9,14,3.92Z" transform="translate(0.936 0.563)"/></g><g class="h" transform="translate(59.8 206.299)"><path class="l" d="M0,13.461V4.483L7.479,0l7.468,4.483v8.977L7.479,17.944Z"/><path class="j" d="M7.479,0,0,4.483,7.479,8.966l7.468-4.483Z"/><path class="k" d="M6.52,8.4l.023,8.977L14.011,12.9,14,3.92Z" transform="translate(0.936 0.563)"/></g><g class="h" transform="translate(119.601 170.412)"><path class="i" d="M0,13.461V4.483L7.479,0l7.468,4.483v8.977L7.479,17.944Z"/><path class="j" d="M7.479,0,0,4.483,7.479,8.966l7.468-4.483Z"/><path class="k" d="M6.52,8.4l.023,8.977L14.011,12.9,14,3.92Z" transform="translate(0.936 0.563)"/></g><g class="h" transform="translate(59.8 143.514)"><path class="l" d="M0,13.461V4.483L7.479,0l7.468,4.483v8.977L7.479,17.944Z"/><path class="j" d="M7.479,0,0,4.483,7.479,8.966l7.468-4.483Z"/><path class="k" d="M6.52,8.4l.023,8.977L14.011,12.9,14,3.92Z" transform="translate(0.936 0.563)"/></g><g class="h" transform="translate(59.8 134.537)"><path class="i" d="M0,13.461V4.483L7.479,0l7.468,4.483v8.977L7.479,17.944Z"/><path class="j" d="M7.479,0,0,4.483,7.479,8.966l7.468-4.483Z"/><path class="k" d="M6.52,8.4l.023,8.977L14.011,12.9,14,3.92Z" transform="translate(0.936 0.563)"/></g><g class="h" transform="translate(59.778 125.571)"><path class="l" d="M0,13.461V4.483L7.479,0l7.468,4.483v8.977L7.479,17.944Z"/><path class="j" d="M7.479,0,0,4.483,7.479,8.966l7.468-4.483Z"/><path class="k" d="M6.52,8.4l.023,8.977L14.011,12.9,14,3.92Z" transform="translate(0.936 0.563)"/></g><g class="h" transform="translate(44.853 143.514)"><path class="i" d="M0,13.461V4.483L7.479,0l7.468,4.483v8.977L7.479,17.944Z"/><path class="j" d="M7.479,0,0,4.483,7.479,8.966l7.468-4.483Z"/><path class="k" d="M6.52,8.4l.023,8.977L14.011,12.9,14,3.92Z" transform="translate(0.936 0.563)"/></g><g class="h" transform="translate(44.853 134.537)"><path class="l" d="M0,13.461V4.483L7.479,0l7.468,4.483v8.977L7.479,17.944Z"/><path class="j" d="M7.479,0,0,4.483,7.479,8.966l7.468-4.483Z"/><path class="k" d="M6.52,8.4l.023,8.977L14.011,12.9,14,3.92Z" transform="translate(0.936 0.563)"/></g><g class="h" transform="translate(82.238 147.997)"><path class="l" d="M0,13.461V4.483L7.479,0l7.468,4.483v8.977L7.479,17.944Z"/><path class="j" d="M7.479,0,0,4.483,7.479,8.966l7.468-4.483Z"/><path class="k" d="M6.52,8.4l.023,8.977L14.011,12.9,14,3.92Z" transform="translate(0.936 0.563)"/></g><g class="h" transform="translate(82.238 139.02)"><path class="i" d="M0,13.461V4.483L7.479,0l7.468,4.483v8.977L7.479,17.944Z"/><path class="j" d="M7.479,0,0,4.483,7.479,8.966l7.468-4.483Z"/><path class="k" d="M6.52,8.4l.023,8.977L14.011,12.9,14,3.92Z" transform="translate(0.936 0.563)"/></g><g class="h" transform="translate(82.216 130.054)"><path class="l" d="M0,13.461V4.483L7.479,0l7.468,4.483v8.977L7.479,17.944Z"/><path class="j" d="M7.479,0,0,4.483,7.479,8.966l7.468-4.483Z"/><path class="k" d="M6.52,8.4l.023,8.977L14.011,12.9,14,3.92Z" transform="translate(0.936 0.563)"/></g><g class="h" transform="translate(29.906 161.446)"><path class="l" d="M0,13.461V4.483L7.479,0l7.468,4.483v8.977L7.479,17.944Z"/><path class="j" d="M7.479,0,0,4.483,7.479,8.966l7.468-4.483Z"/><path class="k" d="M6.52,8.4l.023,8.977L14.011,12.9,14,3.92Z" transform="translate(0.936 0.563)"/></g><g class="h" transform="translate(29.906 152.48)"><path class="i" d="M0,13.461V4.483L7.479,0l7.468,4.483v8.977L7.479,17.944Z"/><path class="j" d="M7.479,0,0,4.483,7.479,8.966l7.468-4.483Z"/><path class="k" d="M6.52,8.4l.023,8.977L14.011,12.9,14,3.92Z" transform="translate(0.936 0.563)"/></g><g class="h" transform="translate(29.894 143.514)"><path class="l" d="M0,13.461V4.483L7.479,0l7.468,4.483v8.977L7.479,17.944Z"/><path class="j" d="M7.479,0,0,4.483,7.479,8.966l7.468-4.483Z"/><path class="k" d="M6.52,8.4l.023,8.977L14.011,12.9,14,3.92Z" transform="translate(0.936 0.563)"/></g><g class="h" transform="translate(29.872 134.537)"><path class="i" d="M0,13.461V4.483L7.479,0l7.468,4.483v8.977L7.479,17.944Z"/><path class="j" d="M7.479,0,0,4.483,7.479,8.966l7.468-4.483Z"/><path class="k" d="M6.52,8.4l.023,8.977L14.011,12.9,14,3.92Z" transform="translate(0.936 0.563)"/></g><g class="h" transform="translate(29.906 125.571)"><path class="i" d="M0,13.461V4.483L7.479,0l7.468,4.483v8.977L7.479,17.944Z"/><path class="j" d="M7.479,0,0,4.483,7.479,8.966l7.468-4.483Z"/><path class="k" d="M6.52,8.4l.023,8.977L14.011,12.9,14,3.92Z" transform="translate(0.936 0.563)"/></g><g class="h" transform="translate(82.193 121.088)"><path class="i" d="M0,13.461V4.483L7.479,0l7.468,4.483v8.977L7.479,17.944Z"/><path class="j" d="M7.479,0,0,4.483,7.479,8.966l7.468-4.483Z"/><path class="k" d="M6.52,8.4l.023,8.977L14.011,12.9,14,3.92Z" transform="translate(0.936 0.563)"/></g><g class="h" transform="translate(22.427 183.873)"><path class="i" d="M0,13.461V4.483L7.479,0l7.468,4.483v8.977L7.479,17.944Z"/><path class="j" d="M7.479,0,0,4.483,7.479,8.966l7.468-4.483Z"/><path class="k" d="M6.52,8.4l.023,8.977L14.011,12.9,14,3.92Z" transform="translate(0.936 0.563)"/></g><g class="h" transform="translate(74.759 170.412)"><path class="i" d="M0,13.461V4.483L7.479,0l7.468,4.483v8.977L7.479,17.944Z"/><path class="j" d="M7.479,0,0,4.483,7.479,8.966l7.468-4.483Z"/><path class="k" d="M6.52,8.4l.023,8.977L14.011,12.9,14,3.92Z" transform="translate(0.936 0.563)"/></g><g class="h" transform="translate(74.759 161.446)"><path class="l" d="M0,13.461V4.483L7.479,0l7.468,4.483v8.977L7.479,17.944Z"/><path class="j" d="M7.479,0,0,4.483,7.479,8.966l7.468-4.483Z"/><path class="k" d="M6.52,8.4l.023,8.977L14.011,12.9,14,3.92Z" transform="translate(0.936 0.563)"/></g><g class="h" transform="translate(74.736 152.48)"><path class="l" d="M0,13.461V4.483L7.479,0l7.468,4.483v8.977L7.479,17.944Z"/><path class="j" d="M7.479,0,0,4.483,7.479,8.966l7.468-4.483Z"/><path class="k" d="M6.52,8.4l.023,8.977L14.011,12.9,14,3.92Z" transform="translate(0.936 0.563)"/></g><g class="h" transform="translate(52.333 183.873)"><path class="i" d="M0,13.461V4.483L7.479,0l7.468,4.483v8.977L7.479,17.944Z"/><path class="j" d="M7.479,0,0,4.483,7.479,8.966l7.468-4.483Z"/><path class="k" d="M6.52,8.4l.023,8.977L14.011,12.9,14,3.92Z" transform="translate(0.936 0.563)"/></g><g class="h" transform="translate(52.333 174.907)"><path class="l" d="M0,13.461V4.483L7.479,0l7.468,4.483v8.977L7.479,17.944Z"/><path class="j" d="M7.479,0,0,4.483,7.479,8.966l7.468-4.483Z"/><path class="k" d="M6.52,8.4l.023,8.977L14.011,12.9,14,3.92Z" transform="translate(0.936 0.563)"/></g><g class="h" transform="translate(52.333 165.929)"><path class="i" d="M0,13.461V4.483L7.479,0l7.468,4.483v8.977L7.479,17.944Z"/><path class="j" d="M7.479,0,0,4.483,7.479,8.966l7.468-4.483Z"/><path class="k" d="M6.52,8.4l.023,8.977L14.011,12.9,14,3.92Z" transform="translate(0.936 0.563)"/></g><g class="h" transform="translate(52.321 156.963)"><path class="l" d="M0,13.461V4.483L7.479,0l7.468,4.483v8.977L7.479,17.944Z"/><path class="j" d="M7.479,0,0,4.483,7.479,8.966l7.468-4.483Z"/><path class="k" d="M6.52,8.4l.023,8.977L14.011,12.9,14,3.92Z" transform="translate(0.936 0.563)"/></g><g class="h" transform="translate(82.193 183.873)"><path class="i" d="M0,13.461V4.483L7.479,0l7.468,4.483v8.977L7.479,17.944Z"/><path class="j" d="M7.479,0,0,4.483,7.479,8.966l7.468-4.483Z"/><path class="k" d="M6.52,8.4l.023,8.977L14.011,12.9,14,3.92Z" transform="translate(0.936 0.563)"/></g><g class="h" transform="translate(82.193 174.907)"><path class="l" d="M0,13.461V4.483L7.479,0l7.468,4.483v8.977L7.479,17.944Z"/><path class="j" d="M7.479,0,0,4.483,7.479,8.966l7.468-4.483Z"/><path class="k" d="M6.52,8.4l.023,8.977L14.011,12.9,14,3.92Z" transform="translate(0.936 0.563)"/></g><g class="h" transform="translate(82.193 165.929)"><path class="i" d="M0,13.461V4.483L7.479,0l7.468,4.483v8.977L7.479,17.944Z"/><path class="j" d="M7.479,0,0,4.483,7.479,8.966l7.468-4.483Z"/><path class="k" d="M6.52,8.4l.023,8.977L14.011,12.9,14,3.92Z" transform="translate(0.936 0.563)"/></g><g class="h" transform="translate(67.257 192.839)"><path class="l" d="M0,13.461V4.483L7.479,0l7.468,4.483v8.977L7.479,17.944Z"/><path class="j" d="M7.479,0,0,4.483,7.479,8.966l7.468-4.483Z"/><path class="k" d="M6.52,8.4l.023,8.977L14.011,12.9,14,3.92Z" transform="translate(0.936 0.563)"/></g><g class="h" transform="translate(104.654 179.39)"><path class="l" d="M0,13.461V4.483L7.479,0l7.468,4.483v8.977L7.479,17.944Z"/><path class="j" d="M7.479,0,0,4.483,7.479,8.966l7.468-4.483Z"/><path class="k" d="M6.52,8.4l.023,8.977L14.011,12.9,14,3.92Z" transform="translate(0.936 0.563)"/></g><g class="h" transform="translate(119.601 161.446)"><path class="l" d="M0,13.461V4.483L7.479,0l7.468,4.483v8.977L7.479,17.944Z"/><path class="j" d="M7.479,0,0,4.483,7.479,8.966l7.468-4.483Z"/><path class="k" d="M6.52,8.4l.023,8.977L14.011,12.9,14,3.92Z" transform="translate(0.936 0.563)"/></g><g class="h" transform="translate(29.906 188.356)"><path class="l" d="M0,13.461V4.483L7.479,0l7.468,4.483v8.977L7.479,17.944Z"/><path class="j" d="M7.479,0,0,4.483,7.479,8.966l7.468-4.483Z"/><path class="k" d="M6.52,8.4l.023,8.977L14.011,12.9,14,3.92Z" transform="translate(0.936 0.563)"/></g><g class="h" transform="translate(82.17 112.11)"><path class="l" d="M0,13.461V4.483L7.479,0l7.468,4.483v8.977L7.479,17.944Z"/><path class="j" d="M7.479,0,0,4.483,7.479,8.966l7.468-4.483Z"/><path class="k" d="M6.52,8.4l.023,8.977L14.011,12.9,14,3.92Z" transform="translate(0.936 0.563)"/></g><g class="h" transform="translate(37.385 174.907)"><path class="l" d="M0,13.461V4.483L7.479,0l7.468,4.483v8.977L7.479,17.944Z"/><path class="j" d="M7.479,0,0,4.483,7.479,8.966l7.468-4.483Z"/><path class="k" d="M6.52,8.4l.023,8.977L14.011,12.9,14,3.92Z" transform="translate(0.936 0.563)"/></g><g class="h" transform="translate(82.193 103.144)"><path class="i" d="M0,13.461V4.483L7.479,0l7.468,4.483v8.977L7.479,17.944Z"/><path class="j" d="M7.479,0,0,4.483,7.479,8.966l7.468-4.483Z"/><path class="k" d="M6.52,8.4l.023,8.977L14.011,12.9,14,3.92Z" transform="translate(0.936 0.563)"/></g><g class="h" transform="translate(29.86 116.605)"><path class="l" d="M0,13.461V4.483L7.479,0l7.468,4.483v8.977L7.479,17.944Z"/><path class="j" d="M7.479,0,0,4.483,7.479,8.966l7.468-4.483Z"/><path class="k" d="M6.52,8.4l.023,8.977L14.011,12.9,14,3.92Z" transform="translate(0.936 0.563)"/></g><g class="h" transform="translate(261.583 130.054)"><path class="i" d="M0,13.461V4.483L7.479,0l7.468,4.483v8.977L7.479,17.944Z"/><path class="j" d="M7.479,0,0,4.483,7.479,8.966l7.468-4.483Z"/><path class="k" d="M6.52,8.4l.023,8.977L14.011,12.9,14,3.92Z" transform="translate(0.936 0.563)"/></g><g class="h" transform="translate(298.945 89.695)"><path class="l" d="M0,13.461V4.483L7.479,0l7.468,4.483v8.977L7.479,17.944Z"/><path class="j" d="M7.479,0,0,4.483,7.479,8.966l7.468-4.483Z"/><path class="k" d="M6.52,8.4l.023,8.977L14.011,12.9,14,3.92Z" transform="translate(0.936 0.563)"/></g><g class="h" transform="translate(306.424 94.178)"><path class="i" d="M0,13.461V4.483L7.479,0l7.468,4.483v8.977L7.479,17.944Z"/><path class="j" d="M7.479,0,0,4.483,7.479,8.966l7.468-4.483Z"/><path class="k" d="M6.52,8.4l.023,8.977L14.011,12.9,14,3.92Z" transform="translate(0.936 0.563)"/></g><g class="h" transform="translate(194.303 98.661)"><path class="l" d="M0,13.461V4.483L7.479,0l7.468,4.483v8.977L7.479,17.944Z"/><path class="j" d="M7.479,0,0,4.483,7.479,8.966l7.468-4.483Z"/><path class="k" d="M6.52,8.4l.023,8.977L14.011,12.9,14,3.92Z" transform="translate(0.936 0.563)"/></g><g class="h" transform="translate(254.092 80.717)"><path class="i" d="M0,13.461V4.483L7.479,0l7.468,4.483v8.977L7.479,17.944Z"/><path class="j" d="M7.479,0,0,4.483,7.479,8.966l7.468-4.483Z"/><path class="k" d="M6.52,8.4l.023,8.977L14.011,12.9,14,3.92Z" transform="translate(0.936 0.563)"/></g><g class="h" transform="translate(254.092 134.537)"><path class="l" d="M0,13.461V4.483L7.479,0l7.468,4.483v8.977L7.479,17.944Z"/><path class="j" d="M7.479,0,0,4.483,7.479,8.966l7.468-4.483Z"/><path class="k" d="M6.52,8.4l.023,8.977L14.011,12.9,14,3.92Z" transform="translate(0.936 0.563)"/></g><g class="h" transform="translate(313.892 98.661)"><path class="i" d="M0,13.461V4.483L7.479,0l7.468,4.483v8.977L7.479,17.944Z"/><path class="j" d="M7.479,0,0,4.483,7.479,8.966l7.468-4.483Z"/><path class="k" d="M6.52,8.4l.023,8.977L14.011,12.9,14,3.92Z" transform="translate(0.936 0.563)"/></g><g class="h" transform="translate(254.092 71.751)"><path class="l" d="M0,13.461V4.483L7.479,0l7.468,4.483v8.977L7.479,17.944Z"/><path class="j" d="M7.479,0,0,4.483,7.479,8.966l7.468-4.483Z"/><path class="k" d="M6.52,8.4l.023,8.977L14.011,12.9,14,3.92Z" transform="translate(0.936 0.563)"/></g><g class="h" transform="translate(254.092 62.785)"><path class="i" d="M0,13.461V4.483L7.479,0l7.468,4.483v8.977L7.479,17.944Z"/><path class="j" d="M7.479,0,0,4.483,7.479,8.966l7.468-4.483Z"/><path class="k" d="M6.52,8.4l.023,8.977L14.011,12.9,14,3.92Z" transform="translate(0.936 0.563)"/></g><g class="h" transform="translate(254.08 53.808)"><path class="l" d="M0,13.461V4.483L7.479,0l7.468,4.483v8.977L7.479,17.944Z"/><path class="j" d="M7.479,0,0,4.483,7.479,8.966l7.468-4.483Z"/><path class="k" d="M6.52,8.4l.023,8.977L14.011,12.9,14,3.92Z" transform="translate(0.936 0.563)"/></g><g class="h" transform="translate(239.145 71.751)"><path class="i" d="M0,13.461V4.483L7.479,0l7.468,4.483v8.977L7.479,17.944Z"/><path class="j" d="M7.479,0,0,4.483,7.479,8.966l7.468-4.483Z"/><path class="k" d="M6.52,8.4l.023,8.977L14.011,12.9,14,3.92Z" transform="translate(0.936 0.563)"/></g><g class="h" transform="translate(239.145 62.785)"><path class="l" d="M0,13.461V4.483L7.479,0l7.468,4.483v8.977L7.479,17.944Z"/><path class="j" d="M7.479,0,0,4.483,7.479,8.966l7.468-4.483Z"/><path class="k" d="M6.52,8.4l.023,8.977L14.011,12.9,14,3.92Z" transform="translate(0.936 0.563)"/></g><g class="h" transform="translate(276.53 76.234)"><path class="l" d="M0,13.461V4.483L7.479,0l7.468,4.483v8.977L7.479,17.944Z"/><path class="j" d="M7.479,0,0,4.483,7.479,8.966l7.468-4.483Z"/><path class="k" d="M6.52,8.4l.023,8.977L14.011,12.9,14,3.92Z" transform="translate(0.936 0.563)"/></g><g class="h" transform="translate(276.53 67.268)"><path class="i" d="M0,13.461V4.483L7.479,0l7.468,4.483v8.977L7.479,17.944Z"/><path class="j" d="M7.479,0,0,4.483,7.479,8.966l7.468-4.483Z"/><path class="k" d="M6.52,8.4l.023,8.977L14.011,12.9,14,3.92Z" transform="translate(0.936 0.563)"/></g><g class="h" transform="translate(276.507 58.302)"><path class="l" d="M0,13.461V4.483L7.479,0l7.468,4.483v8.977L7.479,17.944Z"/><path class="j" d="M7.479,0,0,4.483,7.479,8.966l7.468-4.483Z"/><path class="k" d="M6.52,8.4l.023,8.977L14.011,12.9,14,3.92Z" transform="translate(0.936 0.563)"/></g><g class="h" transform="translate(224.209 89.695)"><path class="l" d="M0,13.461V4.483L7.479,0l7.468,4.483v8.977L7.479,17.944Z"/><path class="j" d="M7.479,0,0,4.483,7.479,8.966l7.468-4.483Z"/><path class="k" d="M6.52,8.4l.023,8.977L14.011,12.9,14,3.92Z" transform="translate(0.936 0.563)"/></g><g class="h" transform="translate(224.209 80.717)"><path class="i" d="M0,13.461V4.483L7.479,0l7.468,4.483v8.977L7.479,17.944Z"/><path class="j" d="M7.479,0,0,4.483,7.479,8.966l7.468-4.483Z"/><path class="k" d="M6.52,8.4l.023,8.977L14.011,12.9,14,3.92Z" transform="translate(0.936 0.563)"/></g><g class="h" transform="translate(224.186 71.751)"><path class="l" d="M0,13.461V4.483L7.479,0l7.468,4.483v8.977L7.479,17.944Z"/><path class="j" d="M7.479,0,0,4.483,7.479,8.966l7.468-4.483Z"/><path class="k" d="M6.52,8.4l.023,8.977L14.011,12.9,14,3.92Z" transform="translate(0.936 0.563)"/></g><g class="h" transform="translate(224.174 62.785)"><path class="i" d="M0,13.461V4.483L7.479,0l7.468,4.483v8.977L7.479,17.944Z"/><path class="j" d="M7.479,0,0,4.483,7.479,8.966l7.468-4.483Z"/><path class="k" d="M6.52,8.4l.023,8.977L14.011,12.9,14,3.92Z" transform="translate(0.936 0.563)"/></g><g class="h" transform="translate(224.209 53.808)"><path class="i" d="M0,13.461V4.483L7.479,0l7.468,4.483v8.977L7.479,17.944Z"/><path class="j" d="M7.479,0,0,4.483,7.479,8.966l7.468-4.483Z"/><path class="k" d="M6.52,8.4l.023,8.977L14.011,12.9,14,3.92Z" transform="translate(0.936 0.563)"/></g><g class="h" transform="translate(276.484 49.325)"><path class="i" d="M0,13.461V4.483L7.479,0l7.468,4.483v8.977L7.479,17.944Z"/><path class="j" d="M7.479,0,0,4.483,7.479,8.966l7.468-4.483Z"/><path class="k" d="M6.52,8.4l.023,8.977L14.011,12.9,14,3.92Z" transform="translate(0.936 0.563)"/></g><g class="h" transform="translate(216.729 112.11)"><path class="i" d="M0,13.461V4.483L7.479,0l7.468,4.483v8.977L7.479,17.944Z"/><path class="j" d="M7.479,0,0,4.483,7.479,8.966l7.468-4.483Z"/><path class="k" d="M6.52,8.4l.023,8.977L14.011,12.9,14,3.92Z" transform="translate(0.936 0.563)"/></g><g class="h" transform="translate(269.051 98.661)"><path class="i" d="M0,13.461V4.483L7.479,0l7.468,4.483v8.977L7.479,17.944Z"/><path class="j" d="M7.479,0,0,4.483,7.479,8.966l7.468-4.483Z"/><path class="k" d="M6.52,8.4l.023,8.977L14.011,12.9,14,3.92Z" transform="translate(0.936 0.563)"/></g><g class="h" transform="translate(269.051 89.695)"><path class="l" d="M0,13.461V4.483L7.479,0l7.468,4.483v8.977L7.479,17.944Z"/><path class="j" d="M7.479,0,0,4.483,7.479,8.966l7.468-4.483Z"/><path class="k" d="M6.52,8.4l.023,8.977L14.011,12.9,14,3.92Z" transform="translate(0.936 0.563)"/></g><g class="h" transform="translate(269.039 80.717)"><path class="l" d="M0,13.461V4.483L7.479,0l7.468,4.483v8.977L7.479,17.944Z"/><path class="j" d="M7.479,0,0,4.483,7.479,8.966l7.468-4.483Z"/><path class="k" d="M6.52,8.4l.023,8.977L14.011,12.9,14,3.92Z" transform="translate(0.936 0.563)"/></g><g class="h" transform="translate(246.635 112.11)"><path class="i" d="M0,13.461V4.483L7.479,0l7.468,4.483v8.977L7.479,17.944Z"/><path class="j" d="M7.479,0,0,4.483,7.479,8.966l7.468-4.483Z"/><path class="k" d="M6.52,8.4l.023,8.977L14.011,12.9,14,3.92Z" transform="translate(0.936 0.563)"/></g><g class="h" transform="translate(246.635 103.144)"><path class="l" d="M0,13.461V4.483L7.479,0l7.468,4.483v8.977L7.479,17.944Z"/><path class="j" d="M7.479,0,0,4.483,7.479,8.966l7.468-4.483Z"/><path class="k" d="M6.52,8.4l.023,8.977L14.011,12.9,14,3.92Z" transform="translate(0.936 0.563)"/></g><g class="h" transform="translate(246.635 94.178)"><path class="i" d="M0,13.461V4.483L7.479,0l7.468,4.483v8.977L7.479,17.944Z"/><path class="j" d="M7.479,0,0,4.483,7.479,8.966l7.468-4.483Z"/><path class="k" d="M6.52,8.4l.023,8.977L14.011,12.9,14,3.92Z" transform="translate(0.936 0.563)"/></g><g class="h" transform="translate(246.612 85.2)"><path class="l" d="M0,13.461V4.483L7.479,0l7.468,4.483v8.977L7.479,17.944Z"/><path class="j" d="M7.479,0,0,4.483,7.479,8.966l7.468-4.483Z"/><path class="k" d="M6.52,8.4l.023,8.977L14.011,12.9,14,3.92Z" transform="translate(0.936 0.563)"/></g><g class="h" transform="translate(276.496 112.11)"><path class="i" d="M0,13.461V4.483L7.479,0l7.468,4.483v8.977L7.479,17.944Z"/><path class="j" d="M7.479,0,0,4.483,7.479,8.966l7.468-4.483Z"/><path class="k" d="M6.52,8.4l.023,8.977L14.011,12.9,14,3.92Z" transform="translate(0.936 0.563)"/></g><g class="h" transform="translate(276.496 103.144)"><path class="l" d="M0,13.461V4.483L7.479,0l7.468,4.483v8.977L7.479,17.944Z"/><path class="j" d="M7.479,0,0,4.483,7.479,8.966l7.468-4.483Z"/><path class="k" d="M6.52,8.4l.023,8.977L14.011,12.9,14,3.92Z" transform="translate(0.936 0.563)"/></g><g class="h" transform="translate(276.496 94.178)"><path class="i" d="M0,13.461V4.483L7.479,0l7.468,4.483v8.977L7.479,17.944Z"/><path class="j" d="M7.479,0,0,4.483,7.479,8.966l7.468-4.483Z"/><path class="k" d="M6.52,8.4l.023,8.977L14.011,12.9,14,3.92Z" transform="translate(0.936 0.563)"/></g><g class="h" transform="translate(261.548 121.088)"><path class="l" d="M0,13.461V4.483L7.479,0l7.468,4.483v8.977L7.479,17.944Z"/><path class="j" d="M7.479,0,0,4.483,7.479,8.966l7.468-4.483Z"/><path class="k" d="M6.52,8.4l.023,8.977L14.011,12.9,14,3.92Z" transform="translate(0.936 0.563)"/></g><g class="h" transform="translate(298.945 107.627)"><path class="l" d="M0,13.461V4.483L7.479,0l7.468,4.483v8.977L7.479,17.944Z"/><path class="j" d="M7.479,0,0,4.483,7.479,8.966l7.468-4.483Z"/><path class="k" d="M6.52,8.4l.023,8.977L14.011,12.9,14,3.92Z" transform="translate(0.936 0.563)"/></g><g class="h" transform="translate(313.892 89.695)"><path class="l" d="M0,13.461V4.483L7.479,0l7.468,4.483v8.977L7.479,17.944Z"/><path class="j" d="M7.479,0,0,4.483,7.479,8.966l7.468-4.483Z"/><path class="k" d="M6.52,8.4l.023,8.977L14.011,12.9,14,3.92Z" transform="translate(0.936 0.563)"/></g><g class="h" transform="translate(224.197 116.605)"><path class="l" d="M0,13.461V4.483L7.479,0l7.468,4.483v8.977L7.479,17.944Z"/><path class="j" d="M7.479,0,0,4.483,7.479,8.966l7.468-4.483Z"/><path class="k" d="M6.52,8.4l.023,8.977L14.011,12.9,14,3.92Z" transform="translate(0.936 0.563)"/></g><g class="h" transform="translate(276.461 40.359)"><path class="l" d="M0,13.461V4.483L7.479,0l7.468,4.483v8.977L7.479,17.944Z"/><path class="j" d="M7.479,0,0,4.483,7.479,8.966l7.468-4.483Z"/><path class="k" d="M6.52,8.4l.023,8.977L14.011,12.9,14,3.92Z" transform="translate(0.936 0.563)"/></g><g class="h" transform="translate(231.677 103.144)"><path class="l" d="M0,13.461V4.483L7.479,0l7.468,4.483v8.977L7.479,17.944Z"/><path class="j" d="M7.479,0,0,4.483,7.479,8.966l7.468-4.483Z"/><path class="k" d="M6.52,8.4l.023,8.977L14.011,12.9,14,3.92Z" transform="translate(0.936 0.563)"/></g><g class="h" transform="translate(276.484 31.393)"><path class="i" d="M0,13.461V4.483L7.479,0l7.468,4.483v8.977L7.479,17.944Z"/><path class="j" d="M7.479,0,0,4.483,7.479,8.966l7.468-4.483Z"/><path class="k" d="M6.52,8.4l.023,8.977L14.011,12.9,14,3.92Z" transform="translate(0.936 0.563)"/></g><g class="h" transform="translate(224.152 44.842)"><path class="l" d="M0,13.461V4.483L7.479,0l7.468,4.483v8.977L7.479,17.944Z"/><path class="j" d="M7.479,0,0,4.483,7.479,8.966l7.468-4.483Z"/><path class="k" d="M6.52,8.4l.023,8.977L14.011,12.9,14,3.92Z" transform="translate(0.936 0.563)"/></g><g class="h" transform="translate(82.204 94.178)"><path class="m" d="M0,13.461V4.483L7.479,0l7.468,4.483v8.977L7.479,17.944Z"/><path class="j" d="M7.479,0,0,4.483,7.479,8.966l7.468-4.483Z"/><path class="k" d="M6.52,8.4l.023,8.977L14.011,12.9,14,3.92Z" transform="translate(0.936 0.563)"/></g><g class="h" transform="translate(209.227 197.322)"><path class="m" d="M0,13.461V4.483L7.479,0l7.468,4.483v8.977L7.479,17.944Z"/><path class="j" d="M7.479,0,0,4.483,7.479,8.966l7.468-4.483Z"/><path class="k" d="M6.52,8.4l.023,8.977L14.011,12.9,14,3.92Z" transform="translate(0.936 0.563)"/></g><g class="h" transform="translate(261.537 201.816)"><path class="m" d="M0,13.461V4.483L7.479,0l7.468,4.483v8.977L7.479,17.944Z"/><path class="j" d="M7.479,0,0,4.483,7.479,8.966l7.468-4.483Z"/><path class="k" d="M6.52,8.4l.023,8.977L14.011,12.9,14,3.92Z" transform="translate(0.936 0.563)"/></g><g class="h" transform="translate(67.234 183.873)"><path class="m" d="M0,13.461V4.483L7.479,0l7.468,4.483v8.977L7.479,17.944Z"/><path class="j" d="M7.479,0,0,4.483,7.479,8.966l7.468-4.483Z"/><path class="k" d="M6.52,8.4l.023,8.977L14.011,12.9,14,3.92Z" transform="translate(0.936 0.563)"/></g><g class="h" transform="translate(127.057 219.749)"><path class="i" d="M0,13.461V4.483L7.479,0l7.468,4.483v8.977L7.479,17.944Z"/><path class="j" d="M7.479,0,0,4.483,7.479,8.966l7.468-4.483Z"/><path class="k" d="M6.52,8.4l.023,8.977L14.011,12.9,14,3.92Z" transform="translate(0.936 0.563)"/></g><g class="h" transform="translate(209.284 161.446)"><path class="l" d="M0,13.461V4.483L7.479,0l7.468,4.483v8.977L7.479,17.944Z"/><path class="j" d="M7.479,0,0,4.483,7.479,8.966l7.468-4.483Z"/><path class="k" d="M6.52,8.4l.023,8.977L14.011,12.9,14,3.92Z" transform="translate(0.936 0.563)"/></g><g class="h" transform="translate(82.238 58.302)"><path class="l" d="M0,13.461V4.483L7.479,0l7.468,4.483v8.977L7.479,17.944Z"/><path class="j" d="M7.479,0,0,4.483,7.479,8.966l7.468-4.483Z"/><path class="k" d="M6.52,8.4l.023,8.977L14.011,12.9,14,3.92Z" transform="translate(0.936 0.563)"/></g><g class="h" transform="translate(142.005 121.088)"><path class="i" d="M0,13.461V4.483L7.479,0l7.468,4.483v8.977L7.479,17.944Z"/><path class="j" d="M7.479,0,0,4.483,7.479,8.966l7.468-4.483Z"/><path class="k" d="M6.52,8.4l.023,8.977L14.011,12.9,14,3.92Z" transform="translate(0.936 0.563)"/></g><g class="h" transform="translate(224.22)"><path class="i" d="M0,13.461V4.483L7.479,0l7.468,4.483v8.977L7.479,17.944Z"/><path class="j" d="M7.479,0,0,4.483,7.479,8.966l7.468-4.483Z"/><path class="k" d="M6.52,8.4l.023,8.977L14.011,12.9,14,3.92Z" transform="translate(0.936 0.563)"/></g><g class="h" transform="translate(224.22 35.876)"><path class="m" d="M0,13.461V4.483L7.479,0l7.468,4.483v8.977L7.479,17.944Z"/><path class="j" d="M7.479,0,0,4.483,7.479,8.966l7.468-4.483Z"/><path class="k" d="M6.52,8.4l.023,8.977L14.011,12.9,14,3.92Z" transform="translate(0.936 0.563)"/></g><g class="h" transform="translate(261.514 112.11)"><path class="m" d="M0,13.461V4.483L7.479,0l7.468,4.483v8.977L7.479,17.944Z"/><path class="j" d="M7.479,0,0,4.483,7.479,8.966l7.468-4.483Z"/><path class="k" d="M6.52,8.4l.023,8.977L14.011,12.9,14,3.92Z" transform="translate(0.936 0.563)"/></g><g class="h" transform="translate(321.394 147.997)"><path class="i" d="M0,13.461V4.483L7.479,0l7.468,4.483v8.977L7.479,17.944Z"/><path class="j" d="M7.479,0,0,4.483,7.479,8.966l7.468-4.483Z"/><path class="k" d="M6.52,8.4l.023,8.977L14.011,12.9,14,3.92Z" transform="translate(0.936 0.563)"/></g><g class="h" transform="translate(291.5 183.873)"><path class="l" d="M0,13.461V4.483L7.479,0l7.468,4.483v8.977L7.479,17.944Z"/><path class="j" d="M7.479,0,0,4.483,7.479,8.966l7.468-4.483Z"/><path class="k" d="M6.52,8.4l.023,8.977L14.011,12.9,14,3.92Z" transform="translate(0.936 0.563)"/></g></g><g transform="translate(169.112 96.482)"><path class="n" d="M273.606,257.812H273v-1.807h.572Zm0-2.951H273v-2.287h.572Zm0-3.431H273v-2.287h.572Zm0-3.431H273v-2.287h.572Zm0-3.431H273v-2.287h.572Zm0-3.431H273v-2.287h.572Zm0-3.431H273V235.42h.572Z" transform="translate(-134.929 -73.951)"/><path class="n" d="M322.517,262.867l-.3-.492,1.967-1.144.3.492Zm2.939-1.761-.286-.492,1.956-1.144.3.492Zm2.951-1.761-.3-.492,1.956-1.144.3.492Zm2.939-1.773-.3-.492,1.967-1.144.286.492Zm2.939-1.761-.3-.492,1.967-1.144.3.492Zm2.939-1.761-.286-.492,1.956-1.144.3.492Zm2.951-1.773-.3-.492,1.956-1.144.3.492Zm2.939-1.761-.3-.492,1.841-1.144.3.492Z" transform="translate(-127.86 -72.018)"/><path class="n" d="M200.886,278.556l-1.967-1.144.3-.492,1.967,1.144Zm-2.939-1.761-1.967-1.144.3-.492,1.956,1.144ZM195,275.022l-1.956-1.144.3-.492,1.956,1.144Zm-2.939-1.761-1.956-1.144.286-.492,1.967,1.144Zm-2.939-1.761-1.967-1.144.3-.492,1.956,1.144Zm-2.951-1.773-1.956-1.144.3-.48,1.956,1.144Zm-2.939-1.761-1.956-1.144.286-.492,1.967,1.144Zm-2.939-1.807-1.967-1.144.3-.492,1.967,1.144ZM177.35,264.4l-1.967-1.144.3-.492,1.956,1.144Zm-2.951-1.67-1.956-1.144.286-.492,1.967,1.144Zm-2.939-1.761-1.956-1.144.286-.492,1.967,1.144Zm-2.939-1.761-1.967-1.144.3-.492,1.956,1.144Zm-2.951-1.773-1.956-1.144.3-.492,1.956,1.144Zm-2.939-1.761-1.956-1.144.286-.492,1.967,1.144Zm-2.939-1.761-1.967-1.144.3-.492,1.967,1.144Zm-2.939-1.761-1.967-1.144.3-.492,1.956,1.144Zm-2.951-1.773-1.532-.915.3-.492,1.532.915Z" transform="translate(-152.27 -72.005)"/><path class="n" d="M162.5,167.611h-.572v-1.8h.572Zm0-2.939h-.572v-2.287h.572Zm0-3.431h-.572v-2.287h.572Zm0-3.431h-.572v-2.287h.572Zm0-3.431h-.572v-2.287h.572Zm0-3.431h-.572v-2.287h.572Zm0-3.431h-.572V145.23h.572Z" transform="translate(-150.882 -86.905)"/><path class="n" d="M222.037,191.172l-.3-.492,1.967-1.144.286.492Zm2.939-1.773-.3-.492,1.967-1.144.286.492Zm2.939-1.761-.3-.492L229.585,186l.3.48Zm2.939-1.773-.286-.492,1.956-1.144.3.492Zm2.939-1.773-.286-.492,1.956-1.144.3.492Zm2.951-1.761-.3-.492L238.4,180.7l.3.492Zm2.939-1.773-.3-.492,1.956-1.144.3.492Zm2.939-1.761-.3-.492,1.956-1.144.3.492Zm2.939-1.773-.3-.492,1.956-1.144.3.492Zm2.939-1.773-.3-.48,1.967-1.144.286.48Zm2.939-1.761-.3-.492,1.967-1.144.3.492Zm2.939-1.773-.3-.492,1.967-1.144.3.492Zm2.939-1.761-.286-.492,1.956-1.144.3.492Zm2.939-1.773-.286-.492,1.956-1.144.3.492Z" transform="translate(-142.292 -83.843)"/><path class="n" d="M286.732,116.611h-.572v-1.8h.572Zm0-2.939h-.572v-2.287h.572Zm0-3.431h-.572v-2.287h.572Zm0-3.431h-.572v-2.287h.572Zm0-3.431h-.572v-2.287h.572Zm0-3.431h-.572V97.661h.572Zm0-3.431h-.572V94.23h.572Z" transform="translate(-133.039 -94.23)"/><path class="n" d="M370.766,215.85l-1.956-1.144.3-.492,1.956,1.144Zm-2.939-1.773-1.956-1.144.286-.492,1.967,1.144Zm-2.939-1.8-1.956-1.144.286-.492,1.967,1.144Zm-2.893-1.738-1.967-1.144.3-.492,1.967,1.144Zm-2.939-1.773-1.967-1.144.3-.48,1.967,1.144Zm-2.939-1.761-1.967-1.144.3-.492,1.956,1.144Zm-2.939-1.773-1.967-1.144.3-.492,1.956,1.144Zm-2.951-1.761-1.956-1.144.3-.492,1.956,1.144Zm-2.939-1.773-1.956-1.144.3-.492,1.956,1.144Zm-2.939-1.761-1.956-1.144.3-.492,1.956,1.144Zm-2.939-1.773-1.956-1.144.286-.492,1.967,1.144ZM338.47,196.4l-1.956-1.144.286-.48,1.967,1.144Zm-2.939-1.761-1.967-1.144.3-.492,1.967,1.144Zm-2.985-1.8-1.967-1.144.3-.492,1.967,1.144Zm-2.939-1.761-1.967-1.144.3-.492,1.956,1.144Zm-2.951-1.773-1.956-1.144.3-.492,1.956,1.144Zm-2.939-1.761-1.487-.9.3-.492,1.487.9Z" transform="translate(-127.858 -81.027)"/></g></g></svg>