<svg xmlns="http://www.w3.org/2000/svg" xmlns:xlink="http://www.w3.org/1999/xlink" width="456" height="445.104" viewBox="0 0 456 445.104"><defs><style>.a{fill:url(#a);}.b{fill:url(#b);}.c{fill:url(#c);}.d{fill:url(#d);}.e{fill:url(#e);}.f{fill:#fff;}.g{fill:url(#f);}.h{fill:url(#g);}.i{fill:url(#h);}.j{fill:url(#i);}.k{fill:url(#j);}.l{fill:url(#k);}.m{fill:url(#l);}.n{fill:url(#m);}.o{fill:url(#o);}.p{fill:url(#q);}.q{fill:url(#r);}.r{fill:url(#s);}.s{fill:url(#t);}.t{fill:url(#u);}</style><radialGradient id="a" cx="232.494" cy="195.888" r="304.434" gradientTransform="translate(59.548 104.996) scale(0.744 0.464)" gradientUnits="userSpaceOnUse"><stop offset="0" stop-color="#fff" stop-opacity="0.502"/><stop offset="0.27" stop-color="#c9c8c9" stop-opacity="0.38"/><stop offset="0.87" stop-color="#413e3f" stop-opacity="0.071"/><stop offset="1" stop-color="#231f20" stop-opacity="0"/></radialGradient><radialGradient id="b" cx="83.396" cy="84.705" r="80.833" gradientTransform="translate(0 1.694) scale(1 0.98)" gradientUnits="userSpaceOnUse"><stop offset="0" stop-color="#fff"/><stop offset="0.15" stop-color="#e4e4e4" stop-opacity="0.878"/><stop offset="0.47" stop-color="#9f9d9e" stop-opacity="0.561"/><stop offset="0.94" stop-color="#322f30" stop-opacity="0.071"/><stop offset="1" stop-color="#231f20" stop-opacity="0"/></radialGradient><linearGradient id="c" x1="0.108" y1="0.032" x2="0.902" y2="0.956" gradientUnits="objectBoundingBox"><stop offset="0" stop-color="#fff"/><stop offset="1" stop-color="#fff" stop-opacity="0"/></linearGradient><linearGradient id="d" x1="0.052" y1="0.385" x2="0.966" y2="0.619" gradientUnits="objectBoundingBox"><stop offset="0" stop-color="#fff" stop-opacity="0.502"/><stop offset="0.06" stop-color="#fff" stop-opacity="0.369"/><stop offset="0.15" stop-color="#fff" stop-opacity="0.239"/><stop offset="0.23" stop-color="#fff" stop-opacity="0.129"/><stop offset="0.31" stop-color="#fff" stop-opacity="0.059"/><stop offset="0.4" stop-color="#fff" stop-opacity="0.012"/><stop offset="0.49" stop-color="#fff" stop-opacity="0"/><stop offset="0.66" stop-color="#fff" stop-opacity="0.012"/><stop offset="0.79" stop-color="#fff" stop-opacity="0.051"/><stop offset="0.89" stop-color="#fff" stop-opacity="0.11"/><stop offset="1" stop-color="#fff" stop-opacity="0.2"/></linearGradient><linearGradient id="e" x1="0.013" y1="0.905" x2="0.99" y2="0.092" gradientUnits="objectBoundingBox"><stop offset="0" stop-color="red"/><stop offset="1" stop-color="#00daff"/></linearGradient><linearGradient id="f" x1="0.783" y1="-0.081" x2="-0.194" y2="0.893" gradientUnits="objectBoundingBox"><stop offset="0" stop-color="#fff" stop-opacity="0.698"/><stop offset="0.18" stop-color="#fff" stop-opacity="0.22"/><stop offset="0.27" stop-color="#fff" stop-opacity="0"/><stop offset="0.3" stop-color="#fff" stop-opacity="0.102"/><stop offset="0.37" stop-color="#fff" stop-opacity="0.369"/><stop offset="0.48" stop-color="#fff" stop-opacity="0.788"/><stop offset="0.52" stop-color="#fff"/><stop offset="0.6" stop-color="#fff" stop-opacity="0.651"/><stop offset="0.68" stop-color="#fff" stop-opacity="0.302"/><stop offset="0.74" stop-color="#fff" stop-opacity="0.078"/><stop offset="0.77" stop-color="#fff" stop-opacity="0"/><stop offset="0.87" stop-color="#fff" stop-opacity="0.322"/><stop offset="1" stop-color="#fff" stop-opacity="0.698"/></linearGradient><linearGradient id="g" x1="-7.092" y1="1.254" x2="-8.048" y2="2.243" gradientUnits="objectBoundingBox"><stop offset="0" stop-color="#fff" stop-opacity="0"/><stop offset="0.13" stop-color="#fff" stop-opacity="0.102"/><stop offset="0.39" stop-color="#fff" stop-opacity="0.369"/><stop offset="0.52" stop-color="#fff" stop-opacity="0.502"/><stop offset="0.69" stop-color="#fff" stop-opacity="0.302"/><stop offset="0.9" stop-color="#fff" stop-opacity="0.078"/><stop offset="1" stop-color="#fff" stop-opacity="0"/></linearGradient><linearGradient id="h" x1="-13.957" y1="0.385" x2="-13.043" y2="0.619" xlink:href="#d"/><linearGradient id="i" x1="-13.996" y1="0.905" x2="-13.019" y2="0.092" xlink:href="#e"/><linearGradient id="j" x1="-13.116" y1="-0.081" x2="-14.094" y2="0.893" xlink:href="#f"/><linearGradient id="k" x1="4.029" y1="1.254" x2="3.073" y2="2.243" xlink:href="#g"/><linearGradient id="l" x1="-6.932" y1="0.846" x2="-5.889" y2="0.176" gradientUnits="objectBoundingBox"><stop offset="0" stop-color="#fff" stop-opacity="0.502"/><stop offset="0.03" stop-color="#fff" stop-opacity="0.412"/><stop offset="0.09" stop-color="#fff" stop-opacity="0.278"/><stop offset="0.15" stop-color="#fff" stop-opacity="0.18"/><stop offset="0.22" stop-color="#fff" stop-opacity="0.102"/><stop offset="0.3" stop-color="#fff" stop-opacity="0.039"/><stop offset="0.39" stop-color="#fff" stop-opacity="0.012"/><stop offset="0.54" stop-color="#fff" stop-opacity="0"/><stop offset="0.64" stop-color="#fff" stop-opacity="0.012"/><stop offset="0.72" stop-color="#fff" stop-opacity="0.051"/><stop offset="0.79" stop-color="#fff" stop-opacity="0.122"/><stop offset="0.86" stop-color="#fff" stop-opacity="0.22"/><stop offset="0.93" stop-color="#fff" stop-opacity="0.341"/><stop offset="1" stop-color="#fff" stop-opacity="0.49"/><stop offset="1" stop-color="#fff" stop-opacity="0.502"/></linearGradient><linearGradient id="m" x1="-0.079" y1="0.846" x2="0.963" y2="0.176" xlink:href="#l"/><linearGradient id="o" x1="0.013" y1="0.905" x2="0.99" y2="0.092" xlink:href="#e"/><linearGradient id="q" x1="-9.982" y1="0.072" x2="-10.938" y2="1.062" xlink:href="#g"/><linearGradient id="r" x1="-7.824" y1="0.385" x2="-6.91" y2="0.619" xlink:href="#d"/><linearGradient id="s" x1="-7.863" y1="0.905" x2="-6.886" y2="0.092" xlink:href="#e"/><linearGradient id="t" x1="-7.034" y1="-0.081" x2="-8.012" y2="0.893" xlink:href="#f"/><linearGradient id="u" x1="0.784" y1="0.072" x2="-0.171" y2="1.062" xlink:href="#g"/></defs><g transform="translate(-26.47 -47.17)"><g transform="translate(26.47 153.069)"><rect class="a" width="456" height="339.206"/></g><g transform="translate(170.126 79.135)"><circle class="b" cx="83.847" cy="83.847" r="83.847" transform="translate(0 0)"/></g><g transform="translate(213.178 106.509)"><path class="c" d="M272.189,218.919c1.626-15.706-.406-27.629-1.129-30.068s-2.574-30.87-2.766-33.444-1.569-6.368-4.945-8.13-20.042-6.9-21.4-9.981-.677-6.538-.542-9.383a4.358,4.358,0,0,1,2.168-3.805c1.321-1.129,1.84-4.053,2.044-5.905a1.513,1.513,0,0,0-1.513-1.66h0c1.761-18.28-11.777-16.79-11.777-16.79s-13.549-1.49-11.777,16.79h0a1.513,1.513,0,0,0-1.513,1.66c.2,1.852.723,4.731,2.055,5.905a4.37,4.37,0,0,1,2.157,3.805c.135,2.845.813,6.3-.531,9.383s-18.066,8.22-21.453,9.981-4.765,5.555-4.957,8.13-2.089,31.005-2.766,33.444-2.71,14.362-1.129,30.068-2.981,18.416,2.71,24.648,6.775,2.258,6.775,2.258-3.523-1.9-3.929-3.929-.406-5.149.406-4.742,2.032.542,2.032,2.439.271,3.523,1.626,2.439,2.021-6.1.8-9.214-3.647-5.646-3.387-8.931,6.086-16.485,5.95-20.7,1.219-26.026,2.574-24.129,2.981,15.028,2.258,27.482-3.116,31.829-2.439,42.8,2.258,23.418,3.071,27.889.994,14.848.587,22.661,6.233,28.126,4.336,36.38-5.487,12.093-3.828,14.17,7.9,5.058,10.738,3.161,2.157-4.618,1.615-9.755,0-19.488,1.208-24.773a66.4,66.4,0,0,0,1.129-20.448c-.813-6.639-.271-9.033.406-15.57s3.794-24.761,4.2-42.511c0,0-.271-2.078.948-2.258,1.219.124.948,2.258.948,2.258.406,17.75,3.523,36.007,4.2,42.511s1.219,8.931.406,15.57a66.4,66.4,0,0,0,1.129,20.448c1.242,5.284,1.75,19.635,1.208,24.773s-1.219,7.9,1.626,9.755,9.033-1.129,10.726-3.161-1.931-5.905-3.828-14.17,4.742-28.566,4.336-36.38-.271-18.19.587-22.661,2.394-16.937,3.071-27.889-1.761-30.339-2.439-42.8.948-25.586,2.258-27.482,2.71,19.906,2.574,24.129,5.646,17.445,5.95,20.7-2.157,5.815-3.387,8.931-.542,8.13.813,9.214,1.626-.542,1.626-2.439,1.208-2.032,2.021-2.439.813,2.71.406,4.742-3.918,3.929-3.918,3.929,1.129,3.918,6.775-2.258S270.574,234.625,272.189,218.919Z" transform="translate(-191.829 -99.724)"/></g><g transform="translate(80.159 47.17)"><path class="d" d="M75.08,140.656V262.882l141.036-84.615V56.03Z" transform="translate(-73.883 -46.026)"/><path class="e" d="M75.08,132.326,216.116,47.7v9.405L75.08,141.732Z" transform="translate(-73.883 -47.102)"/><ellipse class="f" cx="2.371" cy="1.344" rx="2.371" ry="1.344" transform="matrix(0.472, -0.882, 0.882, 0.472, 135.193, 8.555)"/><ellipse class="f" cx="2.371" cy="1.344" rx="2.371" ry="1.344" transform="matrix(0.472, -0.882, 0.882, 0.472, 130.083, 11.881)"/><path class="g" d="M74.02,131.672V263.3l1.2.723V132.395L216.253,47.768l-1-.6Z" transform="translate(-74.02 -47.17)"/><path class="h" d="M216.116,178.38V56.03l-1.2.723v120.9l-139.84,83.9v1.321Z" transform="translate(-73.883 -46.026)"/><path class="i" d="M396.526,140.656V262.882L255.49,178.267V56.03Z" transform="translate(-50.591 -46.026)"/><path class="j" d="M396.526,132.326,255.49,47.7v9.405l141.036,84.626Z" transform="translate(-50.591 -47.102)"/><ellipse class="f" cx="1.344" cy="2.371" rx="1.344" ry="2.371" transform="matrix(0.882, -0.472, 0.472, 0.882, 207.318, 5.677)"/><ellipse class="f" cx="1.344" cy="2.371" rx="1.344" ry="2.371" transform="matrix(0.882, -0.472, 0.472, 0.882, 212.439, 9.013)"/><path class="k" d="M397.723,131.672V263.3l-1.2.723V132.395L255.49,47.768l1-.6Z" transform="translate(-50.591 -47.17)"/><path class="l" d="M255.49,178.38V56.03l1.2.723v120.9l139.84,83.9v1.321Z" transform="translate(-50.591 -46.026)"/></g><g transform="translate(144.055 110.728)"><path class="m" d="M144.765,117.851l-8.073,4.934a7.271,7.271,0,0,0-3.037,5.476L130.64,159l3.387-2.044,3.512-22.751-.113,16.632-3.387,46.926L341.85,322.3l5.984-17.806,10.975,7.61-2.732-52.5,4.392-21.25-6.989-4.516-.113-5.239L145.725,104.11s-2.586.9-3.545,5.646c-1.039,5.137.711,7.2.711,7.2" transform="translate(-130.606 -103.377)"/><path class="f" d="M338.492,253.905l3.387-2.032-2.947-26.613a2.54,2.54,0,0,0-3.839-1.908l-13.606,8.163A7.9,7.9,0,0,0,317.7,237.5l-3.015,30.666,3.387-2.044,3.387-22.435V260l-3.387,46.926,3.387-2.044,6.775-40.795,6.775,32.642,3.387-2.044-3.387-42.838v-16.3Z" transform="translate(-106.844 -88.03)"/><ellipse class="f" cx="6.571" cy="3.173" rx="6.571" ry="3.173" transform="translate(216.954 137.397) rotate(-77.61)"/><path class="f" d="M154.4,143.61l3.387-2.032-2.97-26.658a2.54,2.54,0,0,0-3.828-1.908l-13.549,8.163a7.9,7.9,0,0,0-3.783,5.984l-3.015,30.734,3.387-2.044,3.387-22.435V149.73l-3.387,46.926,3.387-2.044,6.775-40.795,6.775,32.642,3.387-2.044-3.387-42.838V125.251Z" transform="translate(-130.606 -102.274)"/><ellipse class="f" cx="6.571" cy="3.173" rx="6.571" ry="3.173" transform="translate(9.084 12.864) rotate(-77.61)"/><path class="n" d="M350.894,117.851l8.118,4.934a7.272,7.272,0,0,1,3.037,5.476L365.064,159l-3.387-2.044L358.166,134.2l.113,16.632,3.387,46.926L153.809,322.3l-6.029-17.806L136.8,312.1l2.732-52.5-4.347-21.25,6.955-4.449.113-5.239L349.934,104.11s2.586.9,3.545,5.646c1.039,5.137-.711,7.2-.711,7.2" transform="translate(-130.019 -103.377)"/><path class="f" d="M134,253.905l-3.387-2.032,2.947-26.613a2.541,2.541,0,0,1,3.839-1.908l13.549,8.163a7.9,7.9,0,0,1,3.783,5.984l3.071,30.666-3.387-2.044-3.387-22.435V260l3.387,46.926-3.387-2.044L144.25,264.09l-6.775,32.642-3.387-2.044,3.387-42.838v-16.3Z" transform="translate(-130.61 -88.03)"/><ellipse class="f" cx="3.173" cy="6.571" rx="3.173" ry="6.571" transform="translate(9.079 125.904) rotate(-12.39)"/><path class="f" d="M318.087,143.61l-3.387-2.032,2.97-26.658a2.541,2.541,0,0,1,3.828-1.908l13.606,8.163a7.9,7.9,0,0,1,3.782,5.984l3.015,30.734-3.387-2.044-3.387-22.435V149.73l3.387,46.926-3.387-2.044-6.775-40.795-6.775,32.642-3.387-2.044,3.387-42.838V125.251Z" transform="translate(-106.843 -102.274)"/><ellipse class="f" cx="3.173" cy="6.571" rx="3.173" ry="6.571" transform="translate(216.943 1.362) rotate(-12.39)"/></g><g transform="translate(81.333 169.407)"><path class="d" d="M255.57,248.905V371.142l141.036-84.626V164.29Z" transform="translate(-51.755 -154.286)"/><path class="o" d="M255.57,240.586,396.606,155.96v9.405L255.57,249.981Z" transform="translate(-51.755 -155.362)"/><ellipse class="f" cx="2.371" cy="1.344" rx="2.371" ry="1.344" transform="matrix(0.472, -0.882, 0.882, 0.472, 337.807, 8.536)"/><ellipse class="f" cx="2.371" cy="1.344" rx="2.371" ry="1.344" transform="matrix(0.472, -0.882, 0.882, 0.472, 332.687, 11.857)"/><path class="g" d="M254.51,239.932V371.563l1.2.723V240.655l141.036-84.626-.994-.6Z" transform="translate(-51.892 -155.43)"/><path class="p" d="M396.606,286.64V164.29l-1.2.711V285.917l-139.84,83.9v1.321Z" transform="translate(-51.755 -154.286)"/><path class="q" d="M216.1,248.905V371.142L75.06,286.516V164.29Z" transform="translate(-75.06 -154.286)"/><path class="r" d="M216.1,240.586,75.06,155.96v9.405L216.1,249.981Z" transform="translate(-75.06 -155.362)"/><ellipse class="f" cx="1.344" cy="2.371" rx="1.344" ry="2.371" transform="matrix(0.882, -0.472, 0.472, 0.882, 2.403, 5.676)"/><ellipse class="f" cx="1.344" cy="2.371" rx="1.344" ry="2.371" transform="matrix(0.882, -0.472, 0.472, 0.882, 7.52, 8.99)"/><path class="s" d="M217.3,239.932V371.563l-1.208.723V240.655L75.06,156.028l1-.6Z" transform="translate(-75.06 -155.43)"/><path class="t" d="M75.06,286.64V164.29l1.208.711V285.917l139.828,83.9v1.321Z" transform="translate(-75.06 -154.286)"/></g></g></svg>