<svg xmlns="http://www.w3.org/2000/svg" xmlns:xlink="http://www.w3.org/1999/xlink" width="456" height="389.761" viewBox="0 0 456 389.761"><defs><style>.a{fill:url(#a);}.b,.c,.d,.e,.f,.g,.h,.i{opacity:0.76;}.b{fill:url(#b);}.c{fill:url(#c);}.d{fill:url(#d);}.e{fill:url(#e);}.f{fill:url(#f);}.g{fill:url(#g);}.h{fill:url(#h);}.i{fill:url(#i);}.j{fill:#231f20;opacity:0.25;}.k{fill:url(#j);}.l{fill:url(#k);}.m{fill:url(#l);}.n{fill:url(#m);}.o{fill:url(#n);}.p{fill:url(#o);}.q{fill:#f1f2f2;}.r{fill:url(#p);}.s{fill:url(#q);}.t{fill:#a7a9ac;opacity:0.33;}.u{fill:url(#r);}.v{fill:#fff;}.w{fill:url(#s);}.x{fill:url(#t);}.y{fill:url(#u);}.z{fill:url(#v);}.aa{fill:#d1d3d4;}.ab{fill:url(#w);}.ac{fill:url(#x);}.ad{fill:url(#y);}.ae{fill:url(#z);}.af{fill:#bcbec0;}.ag{fill:url(#aa);}.ah{fill:url(#ab);}.ai{fill:url(#ac);}.aj{fill:url(#ad);}.ak{fill:#e6e7e8;}</style><radialGradient id="a" cx="232.379" cy="195.593" r="304.433" gradientTransform="translate(59.516 104.837) scale(0.744 0.464)" gradientUnits="userSpaceOnUse"><stop offset="0" stop-color="#fff" stop-opacity="0.502"/><stop offset="0.27" stop-color="#c9c8c9" stop-opacity="0.38"/><stop offset="0.87" stop-color="#413e3f" stop-opacity="0.071"/><stop offset="1" stop-color="#231f20" stop-opacity="0"/></radialGradient><linearGradient id="b" x1="0.35" y1="0.229" x2="0.52" y2="0.6" gradientUnits="objectBoundingBox"><stop offset="0" stop-color="#fff" stop-opacity="0.8"/><stop offset="0.1" stop-color="#fff" stop-opacity="0.659"/><stop offset="0.27" stop-color="#fff" stop-opacity="0.459"/><stop offset="0.43" stop-color="#fff" stop-opacity="0.302"/><stop offset="0.59" stop-color="#fff" stop-opacity="0.169"/><stop offset="0.74" stop-color="#fff" stop-opacity="0.078"/><stop offset="0.88" stop-color="#fff" stop-opacity="0.02"/><stop offset="1" stop-color="#fff" stop-opacity="0"/></linearGradient><linearGradient id="c" x1="0.35" y1="0.229" x2="0.519" y2="0.6" xlink:href="#b"/><linearGradient id="d" x1="0.367" y1="0.241" x2="0.518" y2="0.6" xlink:href="#b"/><linearGradient id="e" x1="0.367" y1="0.241" x2="0.518" y2="0.6" xlink:href="#b"/><linearGradient id="f" x1="0.367" y1="0.241" x2="0.518" y2="0.6" xlink:href="#b"/><linearGradient id="g" x1="0.367" y1="0.241" x2="0.518" y2="0.6" xlink:href="#b"/><linearGradient id="h" x1="0.352" y1="0.225" x2="0.527" y2="0.617" xlink:href="#b"/><linearGradient id="i" x1="0.352" y1="0.225" x2="0.527" y2="0.617" xlink:href="#b"/><linearGradient id="j" x1="0.589" y1="0.037" x2="0.408" y2="0.98" gradientUnits="objectBoundingBox"><stop offset="0" stop-color="#d1d3d4"/><stop offset="1" stop-color="#fff"/></linearGradient><linearGradient id="k" x1="0.974" y1="0.955" x2="0.027" y2="0.046" gradientUnits="objectBoundingBox"><stop offset="0" stop-color="#fff"/><stop offset="0.23" stop-color="#fafafb"/><stop offset="0.49" stop-color="#ecedee"/><stop offset="0.76" stop-color="#d6d7d8"/><stop offset="1" stop-color="#bcbec0"/></linearGradient><linearGradient id="l" x1="0.987" y1="0.019" x2="0.017" y2="0.977" xlink:href="#k"/><linearGradient id="m" y1="0.5" x2="1" y2="0.5" gradientUnits="objectBoundingBox"><stop offset="0" stop-color="#fff"/><stop offset="0.28" stop-color="#fafafb"/><stop offset="0.6" stop-color="#ecedee"/><stop offset="0.94" stop-color="#d6d8d8"/><stop offset="1" stop-color="#d1d3d4"/></linearGradient><linearGradient id="n" x1="0.025" y1="0.965" x2="0.985" y2="0.026" xlink:href="#k"/><linearGradient id="o" x1="0.347" y1="0.984" x2="0.642" y2="0.041" xlink:href="#k"/><linearGradient id="p" x1="0.559" y1="0.005" x2="0.472" y2="0.738" gradientUnits="objectBoundingBox"><stop offset="0" stop-color="#a7a9ac"/><stop offset="1" stop-color="#d1d3d4"/></linearGradient><linearGradient id="q" x1="0.542" y1="-0.046" x2="0.46" y2="1.022" gradientUnits="objectBoundingBox"><stop offset="0" stop-color="#bcbec0"/><stop offset="1" stop-color="#e6e7e8"/></linearGradient><linearGradient id="r" x1="1.194" y1="-0.205" x2="-0.035" y2="1.043" gradientUnits="objectBoundingBox"><stop offset="0" stop-color="#00daff"/><stop offset="0.4" stop-color="#63859c"/><stop offset="1" stop-color="red"/></linearGradient><linearGradient id="s" x1="-161.743" y1="14.776" x2="-151.082" y2="13.42" gradientUnits="objectBoundingBox"><stop offset="0" stop-color="#00daff"/><stop offset="0.11" stop-color="#05d6fa"/><stop offset="0.23" stop-color="#13caec"/><stop offset="0.36" stop-color="#29b7d6"/><stop offset="0.5" stop-color="#4a9bb5"/><stop offset="0.64" stop-color="#73788c"/><stop offset="0.79" stop-color="#a54d5a"/><stop offset="0.93" stop-color="#e01a1f"/><stop offset="1" stop-color="red"/></linearGradient><linearGradient id="t" x1="-163.336" y1="18.626" x2="-152.772" y2="16.909" xlink:href="#s"/><linearGradient id="u" x1="-164.42" y1="30.485" x2="-155.645" y2="28.099" xlink:href="#s"/><linearGradient id="v" x1="-166.39" y1="53.968" x2="-158.455" y2="50.106" xlink:href="#s"/><linearGradient id="w" x1="-62.392" y1="0.5" x2="-61.392" y2="0.5" gradientUnits="objectBoundingBox"><stop offset="0" stop-color="#fff"/><stop offset="0.23" stop-color="#fafbfb"/><stop offset="0.49" stop-color="#ededed"/><stop offset="0.51" stop-color="#ebecec"/><stop offset="0.62" stop-color="#e6e7e7"/><stop offset="0.75" stop-color="#d6d8d9"/><stop offset="0.9" stop-color="#bdbfc1"/><stop offset="1" stop-color="#a7a9ac"/></linearGradient><linearGradient id="x" x1="0.045" y1="0.774" x2="0.909" y2="0.253" gradientUnits="objectBoundingBox"><stop offset="0" stop-color="#e6e7e8"/><stop offset="0.3" stop-color="#e1e2e4"/><stop offset="0.63" stop-color="#d3d5d6"/><stop offset="0.99" stop-color="#bdbfc1"/><stop offset="1" stop-color="#bcbec0"/></linearGradient><linearGradient id="y" x1="0.958" y1="0.976" x2="0.006" y2="-0.013" xlink:href="#s"/><linearGradient id="z" x1="-1278.325" y1="0.987" x2="-1278.325" y2="0.028" xlink:href="#w"/><linearGradient id="aa" x1="-265.233" y1="1.548" x2="-255.657" y2="0.183" xlink:href="#s"/><linearGradient id="ab" x1="-266.965" y1="1.447" x2="-257.667" y2="-0.285" xlink:href="#s"/><linearGradient id="ac" x1="-269.447" y1="1.276" x2="-260.588" y2="-1.103" xlink:href="#s"/><linearGradient id="ad" x1="-270.711" y1="0.905" x2="-262.775" y2="-2.94" xlink:href="#s"/></defs><g transform="translate(0 -45.08)"><rect class="a" width="456" height="339.21" transform="translate(0 56.79)"/><path class="b" d="M405.82,277.62a7.46,7.46,0,0,0,3.22-5.78c0-2.12-1.45-3-3.22-1.93a5.469,5.469,0,0,0-1.21,1c-.22-3.4-2.67-4.75-5.67-2.95a11.24,11.24,0,0,0-3.45,3.51c0-.5.06-1,.06-1.48,0-7.54-5.14-10.62-11.42-6.85a18.339,18.339,0,0,0-3.17,2.45c-2.23-6.91-8.71-9-16.3-4.48s-13.8,14.05-16.15,23.46c-.33.16-.66.33-1,.53a21.9,21.9,0,0,0-6.08,5.77c-2.43-3.85-7.14-4.65-12.52-1.42-7.75,4.65-14.09,16-14.26,25.31a7.879,7.879,0,0,0-2.52,1c-4.27,2.57-7.76,8.86-7.76,14s3.49,7.22,7.76,4.66Z"/><path class="c" d="M349,365.41a9,9,0,0,0,3.86-6.94c0-2.55-1.74-3.59-3.86-2.31a6.529,6.529,0,0,0-1.45,1.22c-.27-4.08-3.21-5.7-6.81-3.54a13.7,13.7,0,0,0-4.13,4.2c.05-.59.07-1.18.07-1.76,0-9-6.16-12.75-13.7-8.22a22.339,22.339,0,0,0-3.8,2.93c-2.68-8.29-10.44-10.84-19.55-5.37-8.93,5.35-16.55,16.86-19.37,28.14-.4.2-.79.4-1.19.64a26.1,26.1,0,0,0-7.28,6.92c-2.92-4.62-8.57-5.58-15-1.71-9.29,5.58-16.9,19.15-17.1,30.36a9.138,9.138,0,0,0-3,1.2c-5.12,3.07-9.32,10.62-9.32,16.77s4.2,8.66,9.32,5.59Z"/><path class="d" d="M425.07,126.1a6.89,6.89,0,0,0,2.95-5.32c0-2-1.33-2.75-2.95-1.77a4.858,4.858,0,0,0-1.12.93c-.2-3.12-2.46-4.36-5.21-2.71a10.38,10.38,0,0,0-3.17,3.22q.06-.67.06-1.35c0-6.93-4.73-9.77-10.51-6.3a17.161,17.161,0,0,0-2.9,2.25c-2.06-6.35-8-8.3-15-4.12s-12.68,12.92-14.84,21.57c-.3.15-.6.3-.91.49a19.92,19.92,0,0,0-5.58,5.3c-2.24-3.54-6.57-4.28-11.51-1.31-7.12,4.27-12.95,14.67-13.11,23.27a6.75,6.75,0,0,0-2.31.91c-3.93,2.36-7.14,8.14-7.14,12.85s3.21,6.64,7.14,4.28Z"/><path class="e" d="M120.11,115.31a6.89,6.89,0,0,0,3-5.32c0-1.95-1.33-2.74-3-1.77a5.14,5.14,0,0,0-1.12.94c-.2-3.13-2.46-4.37-5.21-2.71a10.16,10.16,0,0,0-3.17,3.22c0-.46.06-.91.06-1.36,0-6.93-4.73-9.76-10.5-6.3a17.34,17.34,0,0,0-2.91,2.25c-2.06-6.35-8-8.3-15-4.11s-12.68,12.92-14.84,21.56c-.3.15-.6.31-.91.49a19.82,19.82,0,0,0-5.58,5.31c-2.24-3.55-6.57-4.28-11.51-1.31-7.12,4.27-13,14.66-13.11,23.26a7,7,0,0,0-2.31.91c-3.93,2.36-7.14,8.14-7.14,12.85s3.21,6.64,7.14,4.29Z"/><path class="f" d="M147,291a8.06,8.06,0,0,0,3.46-6.24c0-2.28-1.56-3.22-3.46-2.08a5.651,5.651,0,0,0-1.31,1.11c-.24-3.67-2.89-5.13-6.12-3.19a12.319,12.319,0,0,0-3.72,3.78c0-.53.07-1.06.07-1.58,0-8.14-5.55-11.47-12.32-7.4a19.841,19.841,0,0,0-3.42,2.64c-2.41-7.45-9.39-9.74-17.58-4.83-8,4.82-14.88,15.16-17.42,25.31-.35.17-.71.35-1.07.57a23.451,23.451,0,0,0-6.55,6.23c-2.62-4.16-7.7-5-13.51-1.54-8.35,5-15.19,17.21-15.38,27.3A8.239,8.239,0,0,0,46,332.11c-4.61,2.77-8.38,9.55-8.38,15.08s3.77,7.79,8.38,5Z"/><path class="g" d="M323.31,281a13.39,13.39,0,0,0,5.74-10.34c0-3.79-2.59-5.34-5.74-3.44a9.91,9.91,0,0,0-2.17,1.82c-.4-6.08-4.78-8.48-10.14-5.27a20.25,20.25,0,0,0-6.16,6.26c.08-.89.12-1.76.12-2.63,0-13.47-9.19-19-20.42-12.25a32.661,32.661,0,0,0-5.65,4.38c-4-12.35-15.56-16.15-29.13-8-13.3,8-24.65,25.12-28.86,41.92-.58.29-1.17.6-1.76.95a38.85,38.85,0,0,0-10.86,10.32c-4.34-6.89-12.76-8.32-22.37-2.55-13.85,8.3-25.18,28.52-25.48,45.22a13.89,13.89,0,0,0-4.5,1.78c-7.63,4.58-13.88,15.82-13.88,25s6.25,12.91,13.88,8.33Z"/><path class="h" d="M272.35,65.7a8.15,8.15,0,0,0,3.5-6.31c0-2.31-1.57-3.25-3.5-2.1A6.181,6.181,0,0,0,271,58.4c-.24-3.7-2.92-5.17-6.18-3.21A12.26,12.26,0,0,0,261.09,59c0-.54.07-1.08.07-1.61,0-8.22-5.61-11.58-12.46-7.47a20.64,20.64,0,0,0-3.45,2.67c-2.43-7.53-9.49-9.85-17.76-4.88-8.11,4.86-15,15.32-17.61,25.57-.35.18-.71.36-1.07.58a23.65,23.65,0,0,0-6.62,6.29c-2.65-4.2-7.79-5.07-13.65-1.55C180.09,83.67,173.18,96,173,106.19a8.24,8.24,0,0,0-2.74,1.09c-4.65,2.79-8.46,9.65-8.46,15.24s3.81,7.87,8.46,5.08Z"/><path class="i" d="M322.28,78A6.37,6.37,0,0,0,325,73.06c0-1.81-1.23-2.56-2.74-1.65a4.669,4.669,0,0,0-1,.87c-.19-2.9-2.29-4.06-4.85-2.52a9.72,9.72,0,0,0-2.95,3q.06-.65.06-1.26c0-6.45-4.4-9.09-9.77-5.86A15.371,15.371,0,0,0,301,67.73c-1.91-5.91-7.44-7.72-13.93-3.83s-11.8,12-13.81,20.06c-.28.14-.56.28-.85.45a18.739,18.739,0,0,0-5.19,4.94c-2.08-3.3-6.1-4-10.71-1.22-6.62,4-12,13.65-12.19,21.64a6.45,6.45,0,0,0-2.15.85c-3.65,2.19-6.64,7.57-6.64,11.95s3,6.18,6.64,4Z"/><path class="j" d="M77.67,243.69l84.98,50.98,117.64-70.59-85-50.96Z"/><path class="j" d="M306.34,224.08l3.36-1.94,54.71,32.76-3.19,1.91Z"/><path class="k" d="M81.5,225.86l81.15,48.69,118.04-70.81-81.17-48.7Z"/><path class="l" d="M77.82,228.08l-.01-4.43,84.84,50.9v4.43Z"/><path class="m" d="M280.69,208.16v-4.42L162.65,274.55v4.43Z"/><path class="n" d="M81.5,225.86V128.49L199.53,57.66l-.01,97.38Z"/><path class="o" d="M77.81,126.27,195.84,55.45l3.69,2.21L81.5,128.49Z"/><path class="p" d="M77.81,126.27v97.38l3.69,2.21V128.49Z"/><path class="q" d="M85.18,130.7v88.52l110.66-66.39V64.3Z"/><path class="r" d="M96.25,225.86,199.53,163.9l40.58,24.34L136.82,250.21Z"/><path class="s" d="M170.02,234.72l44.26-26.56,22.14,13.28L192.15,248Z"/><path class="t" d="M136.82,250.21,133.14,248l103.28-61.97,3.69,2.21Z"/><path class="t" d="M129.45,245.78l-3.69-2.21L229.04,181.6l3.69,2.21Z"/><path class="t" d="M122.07,241.36l-3.69-2.22,103.28-61.96,3.69,2.21Z"/><path class="t" d="M114.69,236.93,111,234.72l103.28-61.97,3.69,2.21Z"/><path class="t" d="M107.32,232.5l-3.69-2.21,103.28-61.97,3.69,2.21Z"/><path class="t" d="M99.94,228.08l-3.69-2.22L199.53,163.9l3.69,2.21Z"/><path class="u" d="M85.18,130.7l.01,8.85L195.84,73.16V64.3Z"/><path class="v" d="M88.88,141.76v57.55l44.22-26.54.08-57.59Z"/><path class="w" d="M99.94,143.94v40.01l3.69-2.21V141.76Z"/><path class="x" d="M107.32,148.66v30.83l3.69-2.18V146.49Z"/><path class="y" d="M114.7,157.52v17.54l3.69-2.17V155.34Z"/><path class="z" d="M122.07,161.78v8.85l3.69-2.17v-8.85Z"/><path class="aa" d="M88.88,141.73v57.58l3.68-2.22V139.55Z"/><path class="v" d="M88.88,203.74l.01,8.83,44.23-26.53.06-8.88Z"/><path class="aa" d="M88.88,203.69v8.9l3.68-2.22v-8.85Z"/><path class="v" d="M136.81,113.2l.04,17.67,55.3-33.37.04-17.72Z"/><path class="aa" d="M136.81,113.15v17.72l3.69-2.21V110.97"/><path class="v" d="M136.81,135.14v17.69l55.33-33.21.05-17.69Z"/><path class="aa" d="M136.81,135.14v17.69l3.69-2.21.01-17.71Z"/><path class="v" d="M136.81,157.47v26.34l55.33-33.19.05-26.56Z"/><path class="aa" d="M136.81,157.42v26.39l3.69-2.21V155.25"/><path class="q" d="M144.97,112.42v2.79l24.21-14.58V97.89Z"/><path class="q" d="M144.97,118.64v2.79l10.3-6.22v-2.74Z"/><path class="q" d="M144.97,134.57v2.79l24.21-14.58v-2.74Z"/><path class="q" d="M144.97,140.79v2.79l10.3-6.22v-2.74Z"/><path class="q" d="M144.97,156.8v17.71l17.68-10.61V146.19Z"/><path class="q" d="M165.3,144.52v2.79l24.21-14.58v-2.74Z"/><path class="q" d="M165.3,150.75v2.78l10.3-6.22v-2.74Z"/><path class="ab" d="M364.08,117.32,309.13,84.44l-2.79,1.68,54.88,32.91Z"/><path class="ac" d="M306.34,208.39V86.12l54.95,32.95-.07,122.23Z"/><path class="q" d="M309.93,206.35V92.47l47.76,28.64-.06,113.84Z"/><path class="ad" d="M309.93,107.13V92.47l47.76,28.64v14.66Z"/><path class="ae" d="M364.08,117.32l-.07,122.31-2.79,1.67V119.03Z"/><path class="af" d="M322.01,104.98l23.51,14.09,4.39-2.63L318.56,97.65Z"/><path class="v" d="M314.17,114.34v51.72l39.19,23.52V137.85Z"/><path class="v" d="M314.17,170.27v14.6l39.23,23.52V194.28Z"/><path class="ag" d="M322.01,123.74v37.62l3.92,2.35V126.09Z"/><path class="ah" d="M329.85,137.85v28.21l3.92,2.36V140.2Z"/><path class="ai" d="M337.69,151.96v18.81l3.91,2.35V154.31Z"/><path class="aj" d="M345.52,166.06v9.41l3.92,2.35v-9.4Z"/><path class="aa" d="M314.17,114.34v51.72l3.92,2.36V116.69Z"/><path class="v" d="M314.2,189.07v14.61l39.23,23.52V213.08Z"/><path class="aa" d="M314.17,170.27v14.6l3.92,2.36V172.62Z"/><path class="aa" d="M314.17,189.08v14.6l3.92,2.35v-14.6Z"/><path class="ak" d="M322.01,177.82v2.35l23.51,14.11-.01-2.35Z"/><path class="ak" d="M322.01,182.62v2.35l13.65,8.13-.01-2.35Z"/><path class="ak" d="M322.01,196.63v2.35l23.51,14.11-.01-2.35Z"/><path class="ak" d="M322.01,201.43v2.35l13.65,8.13-.01-2.35Z"/></g></svg>