<svg xmlns="http://www.w3.org/2000/svg" xmlns:xlink="http://www.w3.org/1999/xlink" width="456" height="420.954" viewBox="0 0 456 420.954"><defs><style>.a{fill:url(#a);}.b,.d{fill:#231f20;}.b{opacity:0.3;}.c{fill:url(#b);}.d{opacity:0.1;}.e{fill:url(#c);}.f{fill:url(#d);}.g{fill:url(#e);}.h{fill:url(#f);}.i{fill:url(#g);}.j{fill:red;}.k{fill:url(#h);}.l{fill:#1f96b0;}.m{fill:url(#i);}.n{fill:url(#j);}.o{fill:url(#k);}.p{fill:url(#m);}.q{fill:url(#o);}.r{fill:url(#p);}.s{fill:url(#q);}.t{fill:url(#r);}.u{fill:url(#s);}.v{fill:url(#t);}.w{fill:url(#u);}.x{fill:url(#v);}.y{fill:url(#w);}.z{fill:url(#aa);}.aa{fill:url(#ab);}.ab{fill:url(#ac);}.ac{fill:url(#ad);}.ad{fill:url(#ag);}.ae{fill:url(#ah);}.af{fill:url(#ai);}.ag{fill:url(#aj);}.ah{opacity:0.42;}.ai{fill:url(#aq);}.aj{opacity:0.16;}.ak{fill:url(#ay);}.al{fill:url(#az);}.am{opacity:0.46;}.an{opacity:0.66;}.ao{opacity:0.15;}.ap{fill:url(#bj);}.aq{fill:url(#bk);}.ar{fill:url(#bl);}.as{fill:url(#bm);}.at{fill:url(#bn);}.au{fill:url(#bo);}.av{fill:url(#bp);}.aw{fill:url(#bq);}.ax{fill:url(#br);}.ay{fill:url(#bs);}.az{fill:url(#bt);}.ba{fill:url(#bu);}.bb{fill:url(#bv);}.bc{fill:url(#bw);}.bd{fill:url(#bx);}.be{fill:url(#by);}.bf{fill:url(#bz);}.bg{fill:url(#ca);}.bh{fill:url(#cb);}.bi{fill:url(#cc);}.bj{fill:url(#cd);}.bk{fill:url(#ce);}.bl{fill:url(#cf);}.bm{fill:url(#cg);}.bn{fill:url(#ch);}.bo{fill:url(#ci);}.bp{fill:url(#cj);}.bq{fill:url(#ck);}.br{fill:url(#cl);}.bs{fill:url(#cm);}.bt{fill:url(#cn);}.bu{fill:url(#co);}.bv{fill:url(#cp);}.bw{fill:url(#cq);}.bx{fill:url(#cr);}.by{fill:url(#dc);}</style><radialGradient id="a" cx="232.483" cy="195.775" r="304.421" gradientTransform="translate(59.544 104.934) scale(0.744 0.464)" gradientUnits="userSpaceOnUse"><stop offset="0" stop-color="#fff" stop-opacity="0.502"/><stop offset="0.15" stop-color="#f5f5f5" stop-opacity="0.478"/><stop offset="0.34" stop-color="#d9d9d9" stop-opacity="0.412"/><stop offset="0.55" stop-color="#abaaaa" stop-opacity="0.31"/><stop offset="0.78" stop-color="#6c6969" stop-opacity="0.161"/><stop offset="1" stop-color="#231f20" stop-opacity="0"/></radialGradient><linearGradient id="b" x1="0.5" y1="0.986" x2="0.5" y2="0.044" gradientUnits="objectBoundingBox"><stop offset="0" stop-color="#fff" stop-opacity="0.502"/><stop offset="0.22" stop-color="#fff" stop-opacity="0.329"/><stop offset="0.45" stop-color="#fff" stop-opacity="0.188"/><stop offset="0.66" stop-color="#fff" stop-opacity="0.078"/><stop offset="0.85" stop-color="#fff" stop-opacity="0.02"/><stop offset="1" stop-color="#fff" stop-opacity="0"/></linearGradient><linearGradient id="c" x1="1.023" y1="0.583" x2="0.654" y2="0.524" gradientUnits="objectBoundingBox"><stop offset="0" stop-color="#fff" stop-opacity="0.8"/><stop offset="0.01" stop-color="#fff" stop-opacity="0.788"/><stop offset="0.1" stop-color="#fff" stop-opacity="0.6"/><stop offset="0.2" stop-color="#fff" stop-opacity="0.439"/><stop offset="0.3" stop-color="#fff" stop-opacity="0.31"/><stop offset="0.41" stop-color="#fff" stop-opacity="0.188"/><stop offset="0.52" stop-color="#fff" stop-opacity="0.11"/><stop offset="0.65" stop-color="#fff" stop-opacity="0.051"/><stop offset="0.79" stop-color="#fff" stop-opacity="0.012"/><stop offset="1" stop-color="#fff" stop-opacity="0"/></linearGradient><linearGradient id="d" x1="-0.028" y1="0.572" x2="0.301" y2="0.527" xlink:href="#c"/><linearGradient id="e" x1="0.5" y1="0.943" x2="0.5" y2="0.011" xlink:href="#b"/><linearGradient id="f" x1="0.009" y1="0.976" x2="0.98" y2="0.034" xlink:href="#b"/><linearGradient id="g" x1="-9.486" y1="-1.257" x2="-8.529" y2="-2.186" xlink:href="#b"/><linearGradient id="h" x1="1.289" y1="0.936" x2="0.852" y2="0.556" xlink:href="#b"/><linearGradient id="i" x1="1.038" y1="0.564" x2="0.299" y2="0.476" xlink:href="#b"/><linearGradient id="j" x1="-0.055" y1="-0.028" x2="0.988" y2="0.964" xlink:href="#b"/><linearGradient id="k" x1="-0.056" y1="-0.028" x2="0.99" y2="0.964" xlink:href="#b"/><linearGradient id="m" x1="0.5" y1="0.943" x2="0.5" y2="0.011" xlink:href="#b"/><linearGradient id="o" x1="-0.318" y1="0.043" x2="0.734" y2="0.792" xlink:href="#b"/><linearGradient id="p" x1="-0.037" y1="-0.016" x2="0.488" y2="0.732" gradientUnits="objectBoundingBox"><stop offset="0" stop-color="#fff" stop-opacity="0.502"/><stop offset="0.14" stop-color="#fff" stop-opacity="0.459"/><stop offset="0.38" stop-color="#fff" stop-opacity="0.361"/><stop offset="0.69" stop-color="#fff" stop-opacity="0.2"/><stop offset="1" stop-color="#fff" stop-opacity="0"/></linearGradient><linearGradient id="q" x1="0.5" y1="0.943" x2="0.5" y2="0.011" xlink:href="#b"/><linearGradient id="r" x1="0.5" y1="0.943" x2="0.5" y2="0.011" xlink:href="#b"/><linearGradient id="s" x1="0.499" y1="0.943" x2="0.499" y2="0.011" xlink:href="#b"/><linearGradient id="t" x1="-0.335" y1="0.024" x2="1.234" y2="0.919" xlink:href="#b"/><linearGradient id="u" x1="-0.055" y1="-0.028" x2="0.988" y2="0.965" xlink:href="#b"/><linearGradient id="v" x1="0.5" y1="0.944" x2="0.5" y2="0.011" xlink:href="#b"/><linearGradient id="w" x1="0.5" y1="0.943" x2="0.5" y2="0.01" xlink:href="#b"/><linearGradient id="aa" x1="0.5" y1="0.943" x2="0.5" y2="0.011" xlink:href="#b"/><linearGradient id="ab" x1="0.01" y1="0.975" x2="0.979" y2="0.034" xlink:href="#b"/><linearGradient id="ac" x1="0.5" y1="0.943" x2="0.5" y2="0.011" xlink:href="#b"/><linearGradient id="ad" x1="0.012" y1="0.975" x2="0.979" y2="0.034" xlink:href="#b"/><linearGradient id="ag" x1="0.5" y1="0.944" x2="0.5" y2="0.011" xlink:href="#b"/><linearGradient id="ah" x1="0.012" y1="0.976" x2="0.978" y2="0.035" xlink:href="#b"/><linearGradient id="ai" x1="0.5" y1="0.944" x2="0.5" y2="0.011" xlink:href="#b"/><linearGradient id="aj" x1="0.01" y1="0.976" x2="0.979" y2="0.035" xlink:href="#b"/><linearGradient id="aq" x1="0.5" y1="0.944" x2="0.5" y2="0.011" xlink:href="#b"/><linearGradient id="ay" x1="0.5" y1="0.943" x2="0.5" y2="0.01" xlink:href="#b"/><linearGradient id="az" x1="0.01" y1="0.976" x2="0.979" y2="0.034" xlink:href="#b"/><linearGradient id="bj" x1="0.012" y1="0.975" x2="0.978" y2="0.034" xlink:href="#b"/><linearGradient id="bk" x1="0.143" y1="0.187" x2="0.864" y2="0.819" gradientUnits="objectBoundingBox"><stop offset="0" stop-color="red"/><stop offset="0.14" stop-color="#d10f11"/><stop offset="0.45" stop-color="#5f333c"/><stop offset="0.51" stop-color="#4a3a44"/><stop offset="0.56" stop-color="#47414d"/><stop offset="0.64" stop-color="#3d5564"/><stop offset="0.75" stop-color="#2e768a"/><stop offset="0.87" stop-color="#1aa3be"/><stop offset="1" stop-color="#00daff"/></linearGradient><linearGradient id="bl" x1="0.493" y1="0.927" x2="0.503" y2="0.298" xlink:href="#b"/><linearGradient id="bm" x1="0.029" y1="0.949" x2="0.633" y2="0.374" xlink:href="#b"/><linearGradient id="bn" x1="-0.039" y1="0.006" x2="0.568" y2="0.563" xlink:href="#b"/><linearGradient id="bo" x1="-1432.999" y1="-680.936" x2="-1431.953" y2="-679.943" gradientUnits="objectBoundingBox"><stop offset="0" stop-color="#fff" stop-opacity="0.4"/><stop offset="0.11" stop-color="#fff" stop-opacity="0.329"/><stop offset="0.37" stop-color="#fff" stop-opacity="0.188"/><stop offset="0.61" stop-color="#fff" stop-opacity="0.078"/><stop offset="0.83" stop-color="#fff" stop-opacity="0.02"/><stop offset="1" stop-color="#fff" stop-opacity="0"/></linearGradient><linearGradient id="bp" x1="-1429.854" y1="-681.908" x2="-1428.809" y2="-680.916" xlink:href="#bo"/><linearGradient id="bq" x1="-1433.939" y1="-678.017" x2="-1432.895" y2="-677.024" xlink:href="#bo"/><linearGradient id="br" x1="-1432.922" y1="-678.989" x2="-1431.877" y2="-677.997" xlink:href="#bo"/><linearGradient id="bs" x1="-1432.999" y1="-679.638" x2="-1431.953" y2="-678.645" xlink:href="#bo"/><linearGradient id="bt" x1="-1430.957" y1="-682.882" x2="-1429.911" y2="-681.889" xlink:href="#bo"/><linearGradient id="bu" x1="-1429.854" y1="-682.558" x2="-1428.809" y2="-681.565" xlink:href="#bo"/><linearGradient id="bv" x1="-1429.854" y1="-680.611" x2="-1428.809" y2="-679.619" xlink:href="#bo"/><linearGradient id="bw" x1="-1429.854" y1="-679.314" x2="-1428.809" y2="-678.321" xlink:href="#bo"/><linearGradient id="bx" x1="-1430.957" y1="-680.286" x2="-1429.911" y2="-679.294" xlink:href="#bo"/><linearGradient id="by" x1="-1434.024" y1="-678.017" x2="-1432.978" y2="-677.024" xlink:href="#bo"/><linearGradient id="bz" x1="-1435.048" y1="-678.341" x2="-1434.002" y2="-677.348" xlink:href="#bo"/><linearGradient id="ca" x1="-1434.024" y1="-679.314" x2="-1432.978" y2="-678.321" xlink:href="#bo"/><linearGradient id="cb" x1="-1432.999" y1="-680.286" x2="-1431.953" y2="-679.294" xlink:href="#bo"/><linearGradient id="cc" x1="-1429.854" y1="-681.261" x2="-1428.809" y2="-680.268" xlink:href="#bo"/><linearGradient id="cd" x1="-1434.963" y1="-677.604" x2="-1433.918" y2="-676.611" xlink:href="#bo"/><linearGradient id="ce" x1="-1430.957" y1="-681.584" x2="-1429.911" y2="-680.592" xlink:href="#bo"/><linearGradient id="cf" x1="-1210.831" y1="-675.422" x2="-1209.787" y2="-674.43" xlink:href="#bo"/><linearGradient id="cg" x1="-1208.063" y1="-675.746" x2="-1207.02" y2="-674.754" xlink:href="#bo"/><linearGradient id="ch" x1="-0.056" y1="-0.028" x2="0.99" y2="0.964" xlink:href="#bo"/><linearGradient id="ci" x1="-0.056" y1="-0.028" x2="0.99" y2="0.965" xlink:href="#bo"/><linearGradient id="cj" x1="-1206.124" y1="-677.604" x2="-1205.081" y2="-676.611" xlink:href="#bo"/><linearGradient id="ck" x1="-1206.124" y1="-677.692" x2="-1205.081" y2="-676.699" xlink:href="#bo"/><linearGradient id="cl" x1="-1205.156" y1="-678.017" x2="-1204.113" y2="-677.024" xlink:href="#bo"/><linearGradient id="cm" x1="-1205.975" y1="-677.692" x2="-1204.931" y2="-676.699" xlink:href="#bo"/><linearGradient id="cn" x1="-1205.975" y1="-678.341" x2="-1204.931" y2="-677.348" xlink:href="#bo"/><linearGradient id="co" x1="-0.055" y1="-0.027" x2="0.988" y2="0.965" xlink:href="#bo"/><linearGradient id="cp" x1="0.5" y1="0.943" x2="0.5" y2="0.011" gradientUnits="objectBoundingBox"><stop offset="0" stop-color="#fff" stop-opacity="0.4"/><stop offset="0.44" stop-color="#fff" stop-opacity="0.2"/><stop offset="0.81" stop-color="#fff" stop-opacity="0.051"/><stop offset="1" stop-color="#fff" stop-opacity="0"/></linearGradient><linearGradient id="cq" x1="0.5" y1="0.943" x2="0.5" y2="0.011" xlink:href="#cp"/><linearGradient id="cr" x1="0.5" y1="0.943" x2="0.5" y2="0.011" xlink:href="#cp"/><linearGradient id="dc" x1="-0.055" y1="-0.028" x2="0.99" y2="0.965" xlink:href="#bo"/></defs><g transform="translate(-23.88 -33.64)"><g transform="translate(23.88 115.385)"><rect class="a" width="456" height="339.209" transform="translate(0 0)"/></g><g transform="translate(95.141 329.979)"><path class="b" d="M87.91,313.365l22.437-13.455L244.9,380.642,379.441,299.91l22.414,13.455L244.644,407.7Z" transform="translate(-87.91 -299.91)"/></g><g transform="translate(95.163 222.337)"><path class="c" d="M244.9,391.564l156.956-94.187L244.886,203.19,87.93,297.377Z" transform="translate(-87.93 -203.19)"/></g><g transform="translate(162.428 289.613)"><path class="d" d="M148.37,286.065l29.882-17.907,59.809,35.847L290.38,263.64l37.372,22.426-89.691,53.888Z" transform="translate(-148.37 -263.64)"/></g><g transform="translate(95.141 128.161)"><path class="e" d="M228.96,401.12l156.967-94.187V118.57L229.839,212.223Z" transform="translate(-71.982 -118.57)"/><path class="f" d="M244.888,401.12,87.921,306.933,87.91,118.57l157.858,93.653Z" transform="translate(-87.91 -118.57)"/></g><g transform="translate(95.152 33.64)"><path class="g" d="M244.887,33.64,87.92,128.161l156.967,94.176,156.967-94.176Z" transform="translate(-87.92 -33.64)"/><path class="h" d="M228.96,212.746V401.12l156.956-94.187.011-188.363Z" transform="translate(-71.993 -24.049)"/><path class="i" d="M244.887,212.746,87.92,118.57V306.933L244.887,401.12Z" transform="translate(-87.92 -24.049)"/></g><g transform="translate(162.428 137.131)"><path class="j" d="M200.689,126.63v17.94l-22.437,13.444V167l-14.935,8.97v17.94l-7.479,4.485v8.97l-7.468,4.474,14.947,8.97,37.372-22.414v-17.94L223.114,167V140.085Z" transform="translate(-148.37 -126.63)"/><path class="k" d="M228.96,208.65l59.8,35.892,29.9,17.929V154.84Z" transform="translate(-139.269 -123.444)"/><path class="l" d="M283.448,235.9l7.479-4.5v26.911l-14.947,8.97v-8.97l7.468-4.485Z" transform="translate(-133.959 -114.799)"/></g><g transform="translate(27.875 137.131)"><path class="m" d="M283.448,235.9l7.479-4.5v26.911l-14.947,8.97v-8.97l7.468-4.485Z" transform="translate(0.594 -114.799)"/><path class="n" d="M202.871,147.235l-.022,8.97-7.479-4.485.022-8.97Z" transform="translate(-8.509 -124.81)"/><path class="o" d="M209.58,151.265l-.011,8.97-7.479-4.485.022-8.97Z" transform="translate(-7.751 -124.355)"/><path class="n" d="M202.871,163.355l-.022,8.97-7.479-4.485.022-8.97Z" transform="translate(-8.509 -122.989)"/><path class="p" d="M205.134,156.205l-7.479-4.485-.011-.011V142.75L175.23,156.205l7.479,4.485h0l-7.479,4.485,7.479,4.485,7.468-4.485,7.468,4.485v-8.97h.011Z" transform="translate(-10.784 -124.81)"/><path class="o" d="M196.14,167.385l-.011,8.97-7.479-4.485.011-8.97Z" transform="translate(-9.268 -122.534)"/><path class="q" d="M182.72,167.385l-.022,8.97-7.468,4.485.011-17.94Z" transform="translate(-10.784 -122.534)"/><path class="r" d="M175.22,163.81l.022-8.97,7.479,4.485Z" transform="translate(-10.785 -123.444)"/><path class="s" d="M176.747,162.9,161.8,171.87l7.479,4.485,7.468-4.485Z" transform="translate(-12.3 -122.534)"/><path class="t" d="M182.709,174.99l-7.479,4.485,7.479,4.485Z" transform="translate(-10.784 -121.169)"/><path class="u" d="M175.988,179.02l-7.468,4.485,7.468,4.485Z" transform="translate(-11.542 -120.714)"/><path class="v" d="M169.291,175.445l-.022,17.94L161.79,188.9l.022-17.94Z" transform="translate(-12.302 -121.624)"/><path class="w" d="M162.571,195.6l-.022,8.959-7.479-4.474.022-8.97Z" transform="translate(-13.06 -119.348)"/><path class="x" d="M155.828,199.17l-7.468,4.474,14.958,8.97-.011-8.97Z" transform="translate(-13.818 -118.438)"/><path class="y" d="M169.279,191.11,161.8,195.6l7.479,4.485Z" transform="translate(-12.3 -119.348)"/><path class="t" d="M162.569,187.08l-7.479,4.485,7.479,4.485,7.479-4.485Z" transform="translate(-13.058 -119.804)"/><path class="n" d="M202.871,139.175l-.022,8.97-7.479-4.485.022-8.97Z" transform="translate(-8.509 -125.72)"/><path class="n" d="M202.871,131.115l-.022,8.97L195.37,135.6l.022-8.97Z" transform="translate(-8.509 -126.63)"/><path class="j" d="M168.51,152.175v-8.97l7.468-4.485,7.479,4.485v8.97l-7.479,4.485Z" transform="translate(-11.543 -125.265)"/><path class="z" d="M175.978,138.72l-7.468,4.485,7.468,4.485,7.479-4.485Z" transform="translate(-11.543 -125.265)"/><path class="aa" d="M175.21,147.235l.011,8.97,7.479-4.485-.022-8.97Z" transform="translate(-10.786 -124.81)"/><path class="j" d="M122.48,140.085v-8.97l7.479-4.485,7.468,4.485v8.97l-7.468,4.485Z" transform="translate(-16.741 -126.63)"/><path class="ab" d="M129.959,126.63l-7.479,4.485,7.479,4.485,7.468-4.485Z" transform="translate(-16.741 -126.63)"/><path class="ac" d="M129.18,135.145l.022,8.97,7.468-4.485-.011-8.97Z" transform="translate(-15.984 -126.175)"/><path class="j" d="M141.65,160.235v-8.97l7.479-4.485,7.468,4.485v8.97l-7.468,4.485Z" transform="translate(-14.576 -124.355)"/><path class="ab" d="M149.129,146.78l-7.479,4.485,7.479,4.485,7.468-4.485Z" transform="translate(-14.576 -124.355)"/><path class="aa" d="M148.35,155.3l.022,8.97,7.468-4.485-.011-8.97Z" transform="translate(-13.819 -123.899)"/><path class="l" d="M289.41,232.765V223.8l7.479-4.485,7.479,4.485v8.97l-7.479,4.485Z" transform="translate(2.11 -116.164)"/><path class="ad" d="M296.889,219.31,289.41,223.8l7.479,4.485,7.479-4.485Z" transform="translate(2.11 -116.164)"/><path class="ae" d="M296.11,227.825l.022,8.97,7.479-4.485-.022-8.97Z" transform="translate(2.867 -115.709)"/><path class="l" d="M302.85,248.885v-8.97l7.479-4.485,7.468,4.485v8.97l-7.468,4.485Z" transform="translate(3.628 -114.343)"/><path class="af" d="M310.329,235.43l-7.479,4.485,7.479,4.485,7.468-4.485Z" transform="translate(3.628 -114.343)"/><path class="ag" d="M309.55,243.945l.022,8.97,7.468-4.485-.011-8.97Z" transform="translate(4.385 -113.888)"/><path class="l" d="M282.69,260.975v-8.97l7.479-4.485,7.479,4.485v8.97l-7.479,4.485Z" transform="translate(1.351 -112.978)"/><path class="ad" d="M290.169,247.52l-7.479,4.485,7.479,4.485,7.479-4.485Z" transform="translate(1.351 -112.978)"/><path class="ae" d="M289.39,256.035l.022,8.97,7.479-4.485-.022-8.97Z" transform="translate(2.108 -112.523)"/><g class="ah" transform="translate(22.448 4.485)"><path class="j" d="M47.64,144.115v-8.97l7.479-4.485,7.468,4.485v8.97L55.119,148.6Z" transform="translate(-47.64 -130.66)"/><path class="ab" d="M55.119,130.66l-7.479,4.485,7.479,4.485,7.468-4.485Z" transform="translate(-47.64 -130.66)"/><path class="aa" d="M54.34,139.175l.022,8.97,7.468-4.485-.011-8.97Z" transform="translate(-46.883 -130.205)"/></g><path class="j" d="M148.36,188.445v-8.97l7.468-4.485,7.479,4.485v8.97l-7.479,4.485Z" transform="translate(-13.818 -121.169)"/><path class="ab" d="M155.828,174.99l-7.468,4.485,7.468,4.485,7.479-4.485Z" transform="translate(-13.818 -121.169)"/><path class="aa" d="M155.06,183.505l.011,8.97,7.479-4.485-.011-8.97Z" transform="translate(-13.062 -120.714)"/><path class="l" d="M309.57,220.675v-8.97l7.468-4.485,7.479,4.485v8.97l-7.479,4.485Z" transform="translate(4.387 -117.529)"/><path class="ai" d="M317.038,207.22l-7.468,4.485,7.468,4.485,7.479-4.485Z" transform="translate(4.387 -117.529)"/><path class="ag" d="M316.27,215.735l.011,8.97,7.479-4.485-.022-8.97Z" transform="translate(5.144 -117.074)"/><path class="l" d="M329.71,248.885v-8.97l7.468-4.485,7.479,4.485v8.97l-7.479,4.485Z" transform="translate(6.661 -114.343)"/><path class="ai" d="M337.178,235.43l-7.468,4.485,7.468,4.485,7.479-4.485Z" transform="translate(6.661 -114.343)"/><path class="ag" d="M336.41,243.945l.011,8.97,7.479-4.485-.022-8.97Z" transform="translate(7.418 -113.888)"/><path class="l" d="M349.12,228.735v-8.97l7.479-4.485,7.479,4.485v8.97L356.6,233.22Z" transform="translate(8.853 -116.619)"/><path class="ad" d="M356.6,215.28l-7.479,4.485,7.479,4.485,7.479-4.485Z" transform="translate(8.853 -116.619)"/><path class="ae" d="M355.82,223.8l.022,8.97,7.479-4.485-.022-8.97Z" transform="translate(9.61 -116.164)"/><path class="l" d="M376.72,244.855v-8.97L384.2,231.4l7.468,4.485v8.97L384.2,249.34Z" transform="translate(11.97 -114.799)"/><path class="af" d="M384.2,231.4l-7.479,4.485,7.479,4.485,7.468-4.485Z" transform="translate(11.97 -114.799)"/><path class="ag" d="M383.42,239.915l.022,8.97,7.468-4.485-.011-8.97Z" transform="translate(12.727 -114.343)"/><g class="aj" transform="translate(433.541 71.762)"><path class="l" d="M417.02,204.554V195.6l7.479-4.485,7.468,4.485v8.959l-7.468,4.485Z" transform="translate(-417.02 -191.11)"/><path class="ak" d="M424.5,191.11,417.02,195.6l7.479,4.485,7.468-4.485Z" transform="translate(-417.02 -191.11)"/><path class="al" d="M423.72,199.625l.022,8.959,7.468-4.485-.011-8.959Z" transform="translate(-416.263 -190.655)"/></g><g class="am" transform="translate(403.626 89.691)"><path class="l" d="M390.14,220.675v-8.97l7.468-4.485,7.479,4.485v8.97l-7.479,4.485Z" transform="translate(-390.14 -207.22)"/><path class="ai" d="M397.608,207.22l-7.468,4.485,7.468,4.485,7.479-4.485Z" transform="translate(-390.14 -207.22)"/><path class="ag" d="M396.84,215.735l.011,8.97,7.479-4.485-.022-8.97Z" transform="translate(-389.383 -206.765)"/></g><path class="j" d="M94.64,148.145v-8.97l7.468-4.485,7.479,4.485v8.97l-7.479,4.485Z" transform="translate(-19.885 -125.72)"/><path class="z" d="M102.108,134.69l-7.468,4.485,7.468,4.485,7.479-4.485Z" transform="translate(-19.885 -125.72)"/><path class="aa" d="M101.34,143.205l.011,8.97,7.479-4.485-.022-8.97Z" transform="translate(-19.128 -125.265)"/><path class="j" d="M108.07,164.265V155.3l7.479-4.485,7.468,4.485v8.97l-7.468,4.485Z" transform="translate(-18.368 -123.899)"/><path class="ab" d="M115.549,150.81,108.07,155.3l7.479,4.485,7.468-4.485Z" transform="translate(-18.368 -123.899)"/><path class="aa" d="M114.77,159.325l.022,8.97,7.468-4.485-.011-8.97Z" transform="translate(-17.611 -123.444)"/><g class="an" transform="translate(44.862 26.911)"><path class="j" d="M67.78,164.265V155.3l7.468-4.485,7.479,4.485v8.97l-7.479,4.485Z" transform="translate(-67.78 -150.81)"/><path class="z" d="M75.248,150.81,67.78,155.3l7.468,4.485,7.479-4.485Z" transform="translate(-67.78 -150.81)"/><path class="aa" d="M74.48,159.325l.011,8.97,7.479-4.485-.022-8.97Z" transform="translate(-67.023 -150.355)"/></g><g class="ao" transform="translate(0 26.911)"><path class="j" d="M27.47,164.265V155.3l7.479-4.485,7.479,4.485v8.97l-7.479,4.485Z" transform="translate(-27.47 -150.81)"/><path class="t" d="M34.949,150.81,27.47,155.3l7.479,4.485,7.479-4.485Z" transform="translate(-27.47 -150.81)"/><path class="ap" d="M34.17,159.325l.022,8.97,7.479-4.485-.022-8.97Z" transform="translate(-26.713 -150.355)"/></g></g><g transform="translate(162.428 114.706)"><path class="aq" d="M238.061,106.48l-37.372,22.425,7.479,4.485-7.479,4.485,7.479,4.485-7.479,4.485,14.947,8.97-14.947,8.97,7.479,4.485-22.425,13.455v8.97l-7.479-4.485v8.97L170.8,191.7v17.94l-7.479-4.485v17.929l-14.947-8.97v53.821l89.691,53.821,52.33-31.4v-17.94l7.468-4.485V250l14.958-8.981v-8.97l7.468-4.485V218.6l7.479-4.485V160.3Z" transform="translate(-148.37 -106.48)"/></g><g transform="translate(162.417 114.706)"><path class="ar" d="M238.061,106.48,148.37,160.3l89.691,53.81,89.7-53.81Z" transform="translate(-148.359 -106.48)"/><path class="as" d="M228.96,208.65V316.292l89.7-53.821V154.84Z" transform="translate(-139.258 -101.019)"/><path class="at" d="M238.061,208.65,148.37,154.84V262.471l89.691,53.821Z" transform="translate(-148.359 -101.019)"/><path class="au" d="M275.97,247.975l.022,8.97,7.468-4.485-.011-8.97Z" transform="translate(-133.949 -91.008)"/><path class="av" d="M269.25,260.065l.022,8.97,7.479-4.485-.022-8.97Z" transform="translate(-134.708 -89.642)"/><path class="aw" d="M296.11,211.705l.022,8.97,7.479-4.485-.022-8.97Z" transform="translate(-131.675 -95.104)"/><path class="ax" d="M289.39,223.8l.022,8.97,7.479-4.485-.022-8.97Z" transform="translate(-132.434 -93.738)"/><path class="ay" d="M275.97,231.855l.022,8.97,7.468-4.485-.011-8.97Z" transform="translate(-133.949 -92.828)"/><path class="az" d="M262.54,272.155l.011,8.97,7.479-4.485-.022-8.97Z" transform="translate(-135.466 -88.277)"/><path class="ba" d="M269.25,268.125l.022,8.97,7.479-4.485-.022-8.97Z" transform="translate(-134.708 -88.732)"/><path class="bb" d="M269.25,243.945l.022,8.97,7.479-4.485-.022-8.97Z" transform="translate(-134.708 -91.463)"/><path class="bc" d="M269.25,227.825l.022,8.97,7.479-4.485-.022-8.97Z" transform="translate(-134.708 -93.283)"/><path class="bd" d="M262.54,239.915l.011,8.97,7.479-4.485-.022-8.97Z" transform="translate(-135.466 -91.918)"/><path class="be" d="M282.69,211.705l.011,8.97,7.479-4.485-.022-8.97Z" transform="translate(-133.19 -95.104)"/><path class="bf" d="M289.4,215.735l.022,8.97,7.468-4.485-.011-8.97Z" transform="translate(-132.433 -94.649)"/><path class="bg" d="M282.69,227.825l.011,8.97,7.479-4.485-.022-8.97Z" transform="translate(-133.19 -93.283)"/><path class="bh" d="M275.97,239.915l.022,8.97,7.468-4.485-.011-8.97Z" transform="translate(-133.949 -91.918)"/><path class="bi" d="M269.25,252.005l.022,8.97,7.479-4.485-.022-8.97Z" transform="translate(-134.708 -90.553)"/><path class="bj" d="M302.83,199.614l.022,8.97,7.479-4.485-.022-8.959Z" transform="translate(-130.916 -96.468)"/><path class="bk" d="M262.54,256.035l.011,8.97,7.479-4.485-.022-8.97Z" transform="translate(-135.466 -90.098)"/><path class="bl" d="M189.43,179.475l-.011,8.97-7.479-4.485.022-8.97Z" transform="translate(-144.568 -98.743)"/><path class="bm" d="M182.721,183.505l-.022,8.97-7.479-4.485.022-8.97Z" transform="translate(-145.327 -98.288)"/><path class="bn" d="M176,187.535l-.022,8.97-7.468-4.485.022-8.97Z" transform="translate(-146.085 -97.833)"/><path class="bo" d="M176,195.6l-.022,8.959-7.468-4.474.022-8.97Z" transform="translate(-146.085 -96.923)"/><path class="bp" d="M169.291,199.625l-.022,8.959L161.79,204.1l.022-8.959Z" transform="translate(-146.843 -96.468)"/><path class="bq" d="M169.291,207.675l-.022,8.97-7.479-4.485.022-8.97Z" transform="translate(-146.843 -95.559)"/><path class="br" d="M162.571,211.705l-.022,8.97-7.479-4.485.022-8.97Z" transform="translate(-147.602 -95.104)"/><path class="bs" d="M155.85,207.675l-.022,8.97-7.468-4.485.022-8.97Z" transform="translate(-148.36 -95.559)"/><path class="bt" d="M155.85,215.735l-.022,8.97-7.468-4.485.022-8.97Z" transform="translate(-148.36 -94.649)"/><path class="bu" d="M182.721,207.675l-.022,8.97-7.479-4.485.022-8.97Z" transform="translate(-145.327 -95.559)"/><path class="bv" d="M189.428,170.96l-7.468,4.485,7.468,4.485,7.479-4.485Z" transform="translate(-144.566 -99.198)"/><path class="bw" d="M196.149,166.93l-7.479,4.485,7.479,4.485,7.479-4.485Z" transform="translate(-143.808 -99.654)"/><path class="bx" d="M202.859,162.9l-7.479,4.485,7.479,4.485,7.468-4.485Z" transform="translate(-143.05 -100.109)"/><path class="bx" d="M202.859,170.96l-7.479,4.485,7.479,4.485,7.468-4.485Z" transform="translate(-143.05 -99.198)"/><path class="bx" d="M202.869,154.84l-7.479,4.485,7.479,4.485,7.468-4.485Z" transform="translate(-143.049 -101.019)"/><path class="bv" d="M209.578,150.81,202.11,155.3l7.468,4.485,7.479-4.485Z" transform="translate(-142.29 -101.474)"/><path class="z" d="M209.568,142.75l-7.468,4.485,7.468,4.485,7.479-4.485Z" transform="translate(-142.291 -102.384)"/><path class="bw" d="M202.849,138.72l-7.479,4.485,7.479,4.485,7.479-4.485Z" transform="translate(-143.051 -102.839)"/><path class="bx" d="M202.859,130.66l-7.479,4.485,7.479,4.485,7.468-4.485Z" transform="translate(-143.05 -103.749)"/><path class="bw" d="M202.849,122.6l-7.479,4.485,7.479,4.485,7.479-4.485Z" transform="translate(-143.051 -104.66)"/><path class="bx" d="M216.3,130.66l-7.479,4.485,7.479,4.485,7.468-4.485Z" transform="translate(-141.532 -103.749)"/><path class="bx" d="M223.008,150.81,215.54,155.3l7.468,4.485,7.479-4.485Z" transform="translate(-140.773 -101.474)"/><path class="bw" d="M216.289,162.9l-7.479,4.485,7.479,4.485,7.479-4.485Z" transform="translate(-141.534 -100.109)"/><path class="by" d="M189.43,195.6l-.011,8.959-7.479-4.474.022-8.97Z" transform="translate(-144.568 -96.923)"/><path class="bu" d="M169.291,223.8l-.022,8.97-7.479-4.485.022-8.97Z" transform="translate(-146.843 -93.738)"/></g></g></svg>