<svg xmlns="http://www.w3.org/2000/svg" xmlns:xlink="http://www.w3.org/1999/xlink" width="456" height="325.065" viewBox="0 0 456 325.065"><defs><style>.a{fill:url(#a);}.b{fill:#939598;}.c{fill:url(#b);}.d{fill:url(#c);}.e{fill:url(#d);}.f{fill:url(#e);}.g{fill:url(#f);}.h{fill:url(#g);}.i{fill:url(#h);}.j{opacity:0.21;fill:url(#i);}.k{opacity:0.6;fill:url(#j);}.l,.t{opacity:0.34;}.l{fill:url(#k);}.m,.n{opacity:0.11;}.m{fill:url(#l);}.n{fill:url(#m);}.o{fill:url(#n);}.p{fill:url(#o);}.q{fill:url(#p);}.r{fill:url(#q);}.s{fill:url(#r);}.t{fill:url(#s);}.u{fill:#d1d3d4;opacity:0.09;}.v,.w,.y{stroke:#fff;stroke-miterlimit:10;stroke-width:0.25px;}.v{fill:url(#t);}.w{fill:url(#u);}.x{fill:#fff;}.y{fill:none;}</style><radialGradient id="a" cx="222.771" cy="187.541" r="291.743" gradientTransform="translate(57.059 100.523) scale(0.744 0.464)" gradientUnits="userSpaceOnUse"><stop offset="0" stop-color="#fff" stop-opacity="0.502"/><stop offset="0.27" stop-color="#c9c8c9" stop-opacity="0.38"/><stop offset="0.87" stop-color="#413e3f" stop-opacity="0.071"/><stop offset="1" stop-color="#231f20" stop-opacity="0"/></radialGradient><radialGradient id="b" cx="81.335" cy="-54.037" r="72.55" gradientTransform="translate(-41.432 -220.172) scale(0.6 0.36)" gradientUnits="userSpaceOnUse"><stop offset="0.78" stop-color="#f1f2f2"/><stop offset="0.84" stop-color="#ecedee"/><stop offset="0.9" stop-color="#dfe0e1"/><stop offset="0.97" stop-color="#c8cacc"/><stop offset="1" stop-color="#bcbec0"/></radialGradient><radialGradient id="c" cx="81.319" cy="-52.605" r="72.556" gradientTransform="translate(-41.444 -215.888) scale(0.6 0.36)" xlink:href="#b"/><radialGradient id="d" cx="81.335" cy="-51.128" r="72.55" gradientTransform="translate(-41.432 -211.555) scale(0.6 0.36)" xlink:href="#b"/><radialGradient id="e" cx="81.319" cy="-49.685" r="72.556" gradientTransform="translate(-41.444 -207.263) scale(0.6 0.36)" xlink:href="#b"/><radialGradient id="f" cx="81.346" cy="-48.193" r="72.547" gradientTransform="translate(-41.425 -202.914) scale(0.6 0.36)" xlink:href="#b"/><radialGradient id="g" cx="81.346" cy="-46.731" r="72.547" gradientTransform="translate(-41.425 -198.599) scale(0.6 0.36)" xlink:href="#b"/><linearGradient id="h" y1="0.5" x2="1" y2="0.5" gradientUnits="objectBoundingBox"><stop offset="0" stop-color="#414042" stop-opacity="0.502"/><stop offset="0.18" stop-color="#575758" stop-opacity="0.431"/><stop offset="0.38" stop-color="#98989a" stop-opacity="0.231"/><stop offset="0.53" stop-color="#e0e1e2" stop-opacity="0"/><stop offset="0.77" stop-color="#99999a" stop-opacity="0.22"/><stop offset="1" stop-color="#414042" stop-opacity="0.502"/></linearGradient><linearGradient id="i" x1="0.821" y1="0.853" x2="0.156" y2="0.123" gradientUnits="objectBoundingBox"><stop offset="0" stop-color="#00daff"/><stop offset="0.12" stop-color="#00daff" stop-opacity="0.749"/><stop offset="0.41" stop-color="#00daff" stop-opacity="0.129"/><stop offset="0.47" stop-color="#00daff" stop-opacity="0"/><stop offset="0.64" stop-color="red" stop-opacity="0"/><stop offset="1" stop-color="red"/></linearGradient><linearGradient id="j" x1="0.891" y1="0.751" x2="0.069" y2="0.223" gradientUnits="objectBoundingBox"><stop offset="0" stop-color="#00daff"/><stop offset="0.18" stop-color="#2bb5d4" stop-opacity="0.839"/><stop offset="0.53" stop-color="#84697b" stop-opacity="0.502"/><stop offset="1" stop-color="red"/></linearGradient><linearGradient id="k" x1="0.792" y1="0.985" x2="0.208" y2="0.015" gradientUnits="objectBoundingBox"><stop offset="0" stop-color="#fff"/><stop offset="0.05" stop-color="#fff" stop-opacity="0.82"/><stop offset="0.12" stop-color="#fff" stop-opacity="0.612"/><stop offset="0.19" stop-color="#fff" stop-opacity="0.42"/><stop offset="0.27" stop-color="#fff" stop-opacity="0.271"/><stop offset="0.33" stop-color="#fff" stop-opacity="0.149"/><stop offset="0.4" stop-color="#fff" stop-opacity="0.071"/><stop offset="0.47" stop-color="#fff" stop-opacity="0.02"/><stop offset="0.53" stop-color="#fff" stop-opacity="0"/><stop offset="0.58" stop-color="#fff" stop-opacity="0.02"/><stop offset="0.64" stop-color="#fff" stop-opacity="0.071"/><stop offset="0.7" stop-color="#fff" stop-opacity="0.169"/><stop offset="0.77" stop-color="#fff" stop-opacity="0.302"/><stop offset="0.83" stop-color="#fff" stop-opacity="0.459"/><stop offset="0.9" stop-color="#fff" stop-opacity="0.659"/><stop offset="0.97" stop-color="#fff" stop-opacity="0.898"/><stop offset="1" stop-color="#fff"/></linearGradient><linearGradient id="l" x1="0.792" y1="0.985" x2="0.208" y2="0.015" xlink:href="#k"/><linearGradient id="m" x1="0.792" y1="0.985" x2="0.208" y2="0.015" xlink:href="#k"/><linearGradient id="n" x1="1.049" y1="0.039" x2="0.321" y2="0.758" gradientUnits="objectBoundingBox"><stop offset="0" stop-color="red"/><stop offset="0.26" stop-color="red" stop-opacity="0.749"/><stop offset="0.87" stop-color="red" stop-opacity="0.129"/><stop offset="1" stop-color="red" stop-opacity="0"/></linearGradient><linearGradient id="o" x1="-0.166" y1="0.882" x2="0.75" y2="0.313" gradientUnits="objectBoundingBox"><stop offset="0" stop-color="#00daff"/><stop offset="0.26" stop-color="#00daff" stop-opacity="0.749"/><stop offset="0.87" stop-color="#00daff" stop-opacity="0.129"/><stop offset="1" stop-color="#00daff" stop-opacity="0"/></linearGradient><linearGradient id="p" x1="0.5" y1="0.763" x2="0.5" y2="0.043" gradientUnits="objectBoundingBox"><stop offset="0" stop-color="#fff"/><stop offset="0.02" stop-color="#fff" stop-opacity="0.929"/><stop offset="0.08" stop-color="#fff" stop-opacity="0.761"/><stop offset="0.14" stop-color="#fff" stop-opacity="0.6"/><stop offset="0.2" stop-color="#fff" stop-opacity="0.471"/><stop offset="0.27" stop-color="#fff" stop-opacity="0.349"/><stop offset="0.35" stop-color="#fff" stop-opacity="0.259"/><stop offset="0.44" stop-color="#fff" stop-opacity="0.188"/><stop offset="0.55" stop-color="#fff" stop-opacity="0.141"/><stop offset="0.69" stop-color="#fff" stop-opacity="0.11"/><stop offset="1" stop-color="#fff" stop-opacity="0.102"/></linearGradient><linearGradient id="q" y1="0.5" x2="1" y2="0.5" gradientUnits="objectBoundingBox"><stop offset="0" stop-color="#fff" stop-opacity="0.502"/><stop offset="0.04" stop-color="#fff" stop-opacity="0.431"/><stop offset="0.14" stop-color="#fff" stop-opacity="0.278"/><stop offset="0.23" stop-color="#fff" stop-opacity="0.161"/><stop offset="0.33" stop-color="#fff" stop-opacity="0.071"/><stop offset="0.42" stop-color="#fff" stop-opacity="0.02"/><stop offset="0.5" stop-color="#fff" stop-opacity="0"/><stop offset="0.63" stop-color="#fff" stop-opacity="0.012"/><stop offset="0.71" stop-color="#fff" stop-opacity="0.051"/><stop offset="0.79" stop-color="#fff" stop-opacity="0.11"/><stop offset="0.85" stop-color="#fff" stop-opacity="0.188"/><stop offset="0.92" stop-color="#fff" stop-opacity="0.302"/><stop offset="0.97" stop-color="#fff" stop-opacity="0.431"/><stop offset="1" stop-color="#fff" stop-opacity="0.502"/></linearGradient><radialGradient id="r" cx="81.64" cy="81.671" r="80.415" gradientUnits="userSpaceOnUse"><stop offset="0.54" stop-color="#fff" stop-opacity="0"/><stop offset="0.72" stop-color="#fff" stop-opacity="0.012"/><stop offset="0.79" stop-color="#fff" stop-opacity="0.031"/><stop offset="0.84" stop-color="#fff" stop-opacity="0.078"/><stop offset="0.88" stop-color="#fff" stop-opacity="0.149"/><stop offset="0.91" stop-color="#fff" stop-opacity="0.231"/><stop offset="0.94" stop-color="#fff" stop-opacity="0.341"/><stop offset="0.96" stop-color="#fff" stop-opacity="0.471"/><stop offset="0.99" stop-color="#fff" stop-opacity="0.612"/><stop offset="1" stop-color="#fff" stop-opacity="0.698"/></radialGradient><linearGradient id="s" x1="0.028" y1="0.501" x2="0.98" y2="0.499" gradientUnits="objectBoundingBox"><stop offset="0" stop-color="#fff" stop-opacity="0.502"/><stop offset="0.05" stop-color="#fff" stop-opacity="0.4"/><stop offset="0.14" stop-color="#fff" stop-opacity="0.251"/><stop offset="0.23" stop-color="#fff" stop-opacity="0.141"/><stop offset="0.32" stop-color="#fff" stop-opacity="0.059"/><stop offset="0.41" stop-color="#fff" stop-opacity="0.02"/><stop offset="0.49" stop-color="#fff" stop-opacity="0"/><stop offset="0.61" stop-color="#fff" stop-opacity="0.012"/><stop offset="0.69" stop-color="#fff" stop-opacity="0.051"/><stop offset="0.77" stop-color="#fff" stop-opacity="0.122"/><stop offset="0.85" stop-color="#fff" stop-opacity="0.212"/><stop offset="0.92" stop-color="#fff" stop-opacity="0.329"/><stop offset="0.99" stop-color="#fff" stop-opacity="0.471"/><stop offset="1" stop-color="#fff" stop-opacity="0.502"/></linearGradient><linearGradient id="t" x1="0.694" y1="0.745" x2="0.405" y2="0.191" gradientUnits="objectBoundingBox"><stop offset="0" stop-color="#fff"/><stop offset="0.16" stop-color="#fff" stop-opacity="0.812"/><stop offset="0.38" stop-color="#fff" stop-opacity="0.561"/><stop offset="0.59" stop-color="#fff" stop-opacity="0.361"/><stop offset="0.76" stop-color="#fff" stop-opacity="0.22"/><stop offset="0.91" stop-color="#fff" stop-opacity="0.129"/><stop offset="1" stop-color="#fff" stop-opacity="0.102"/></linearGradient><linearGradient id="u" x1="0.598" y1="0.678" x2="0.394" y2="0.18" xlink:href="#t"/></defs><g transform="translate(-8.66 -85.54)"><g transform="translate(17.224 85.54)"><rect class="a" width="436.994" height="325.065"/></g><g transform="translate(193.009 272.424)"><path class="b" d="M247.159,324.233c-9.9-5.937-26.1-5.927-35.988,0s-9.872,15.674,0,21.6,26.106,5.917,35.988,0S257.062,330.17,247.159,324.233Z" transform="translate(-185.592 -263.519)"/><path class="c" d="M260.725,299.81c-16.982-10.193-44.759-10.173-61.72,0s-16.92,26.874.073,37.036,44.77,10.141,61.72,0S277.655,309.993,260.725,299.81Z" transform="translate(-186.255 -264.569)"/><path class="d" d="M260.725,294.49c-16.982-10.183-44.759-10.172-61.72,0s-16.92,26.874.073,37.036,44.77,10.141,61.72,0S277.655,304.652,260.725,294.49Z" transform="translate(-186.255 -264.771)"/><path class="e" d="M260.725,289.17c-16.982-10.183-44.759-10.173-61.72,0s-16.92,26.874.073,37.036,44.77,10.152,61.72,0S277.655,299.352,260.725,289.17Z" transform="translate(-186.255 -264.973)"/><path class="f" d="M260.725,283.849c-16.982-10.183-44.759-10.162-61.72,0s-16.92,26.874.073,37.036,44.77,10.152,61.72,0S277.655,294.032,260.725,283.849Z" transform="translate(-186.255 -265.175)"/><path class="g" d="M260.725,278.529c-16.982-10.183-44.759-10.162-61.72,0s-16.92,26.885.073,37.047,44.77,10.141,61.72,0S277.655,288.723,260.725,278.529Z" transform="translate(-186.255 -265.378)"/><path class="h" d="M260.725,273.209c-16.982-10.183-44.759-10.162-61.72,0s-16.92,26.885.073,37.047,44.77,10.141,61.72,0S277.655,283.4,260.725,273.209Z" transform="translate(-186.255 -265.58)"/><path class="i" d="M273.184,294.52c1.329-7.609-2.834-15.508-12.508-21.31-16.982-10.183-44.759-10.162-61.72,0-9.622,5.8-13.774,13.681-12.456,21.279a15.912,15.912,0,0,0,0,5.522,15.861,15.861,0,0,0,0,5.512,15.912,15.912,0,0,0,0,5.522,15.912,15.912,0,0,0,0,5.522c-1.329,7.609,2.844,15.508,12.518,21.29,16.992,10.162,44.77,10.141,61.72,0,9.622-5.782,13.764-13.66,12.456-21.259a15.915,15.915,0,0,0,0-5.522,15.861,15.861,0,0,0,0-5.512,15.914,15.914,0,0,0,0-5.522A15.913,15.913,0,0,0,273.184,294.52Z" transform="translate(-186.257 -265.58)"/></g><g transform="translate(8.66 89.204)"><path class="j" d="M236.509,367.785c-57.091,0-114.182-12.653-157.643-37.971C35.082,304.32,11,269.734,11,232.417s24.082-71.893,67.865-97.4c86.923-50.614,228.363-50.614,315.287,0,43.794,25.5,67.907,60.091,67.907,97.4s-24.113,71.9-67.907,97.4C350.69,355.131,293.6,367.785,236.509,367.785Zm.062-246.321c-53.831,0-104.134,12.031-141.648,33.87-35.884,20.906-55.658,48.278-55.658,77.083S59.039,288.6,94.924,309.511c37.514,21.8,87.816,33.87,141.648,33.87S340.7,331.35,378.208,309.511c35.895-20.906,55.658-48.278,55.658-77.093s-19.722-56.177-55.658-77.083c-37.5-21.84-87.816-33.87-141.637-33.87Z" transform="translate(-8.571 -88.766)"/><path class="k" d="M236.66,370.335c-58.295,0-116.579-13.318-160.955-39.943-43.233-25.95-67.045-60.7-67.045-97.885s23.812-71.945,67.045-97.885c88.75-53.25,233.159-53.25,321.909,0,43.233,25.95,67.045,60.7,67.045,97.885s-23.812,71.945-67.045,97.885C353.239,357.017,294.945,370.335,236.66,370.335Zm0-270.787c-60.08,0-116.372,13.909-158.484,39.185C36.437,163.77,13.445,197.08,13.445,232.507s22.992,68.737,64.731,93.785c42.112,25.265,98.4,39.185,158.484,39.185s116.372-13.92,158.495-39.185c41.739-25.047,64.72-58.347,64.72-93.785s-22.992-68.737-64.72-93.774C353.032,113.457,296.74,99.548,236.66,99.548Z" transform="translate(-8.66 -88.857)"/><path class="l" d="M236.162,361.469c-54.869,0-109.739-12.539-151.55-37.6C44.1,299.562,21.76,267.01,21.76,232.195S44.1,164.838,84.653,140.507c83.539-50.126,219.478-50.126,303.017,0,40.555,24.331,62.883,56.894,62.883,91.688s-22.328,67.367-62.883,91.7C345.87,348.951,291.032,361.469,236.162,361.469Zm0-255.632c-56.862,0-110.144,13.183-150.035,37.109-39.652,23.791-61.492,55.482-61.492,89.269s21.8,65.395,61.492,89.269c39.891,23.937,93.172,37.109,150.035,37.109s110.144-13.172,150.024-37.109c39.663-23.791,61.492-55.482,61.492-89.269s-21.8-65.395-61.492-89.269c-39.881-23.905-93.162-37.088-150.024-37.088Z" transform="translate(-8.162 -88.544)"/><path class="m" d="M236.164,347.64c-54.869,0-109.739-12.539-151.55-37.6-40.555-24.331-62.893-56.894-62.893-91.7s22.338-67.357,62.893-91.688c83.581-50.115,219.519-50.115,303.059,0,40.555,24.331,62.883,56.894,62.883,91.688s-22.328,67.367-62.883,91.7C345.871,335.1,291.033,347.64,236.164,347.64Zm0-255.632c-56.862,0-110.144,13.183-150.035,37.109-39.652,23.8-61.492,55.482-61.492,89.269s21.8,65.395,61.492,89.269c39.891,23.926,93.172,37.109,150.035,37.109s110.144-13.183,150.024-37.109c39.663-23.8,61.492-55.492,61.492-89.269s-21.8-65.395-61.492-89.269c-39.881-23.926-93.162-37.109-150.024-37.109Z" transform="translate(-8.164 -89.07)"/><path class="n" d="M236.6,375.051c-57.942,0-115.884-13.235-160-39.694-42.829-25.7-66.433-60.091-66.433-96.836S33.754,167.385,76.6,141.684c88.231-52.939,231.778-52.939,320,0,42.829,25.7,66.433,60.091,66.433,96.836s-23.584,71.135-66.433,96.836C352.539,361.816,294.545,375.051,236.6,375.051Zm0-269.946c-60.049,0-116.32,13.92-158.443,39.185-41.874,25.182-64.938,58.6-64.938,94.231s23.065,69.1,64.938,94.231c42.123,25.276,98.393,39.185,158.443,39.185s116.32-13.909,158.432-39.185c41.884-25.13,64.949-58.6,64.949-94.231s-23.065-69.049-64.949-94.231c-42.112-25.265-98.383-39.175-158.432-39.175Z" transform="translate(-8.603 -88.579)"/></g><g transform="translate(8.66 137.647)"><path class="o" d="M54.52,314.185l2.024-4.5c-27.975-22.66-43.1-50-43.1-78.733,0-32.749,21.321-62.623,57.413-86.8a4.588,4.588,0,0,0,.374-7.37h0a4.609,4.609,0,0,0-5.481-.259C27.7,161.908,8.66,196.142,8.66,230.978,8.66,261.516,24.77,290.446,54.52,314.185Z" transform="translate(-8.66 -135.739)"/><path class="p" d="M410.369,151.1l-2.325,4.339c25.078,21.892,38.583,47.749,38.583,74.924,0,35.438-24.248,67.471-65.976,92.518a208.322,208.322,0,0,1-21.092,10.806,4.619,4.619,0,0,0-1.609,7.162h0a4.609,4.609,0,0,0,5.595,1.142c7.557-3.841,14.48-8.865,21.508-13.079,43.233-25.95,66.371-61.388,66.371-98.611C451.464,201.485,437.046,174.061,410.369,151.1Z" transform="translate(4.577 -135.155)"/></g><g transform="translate(155.145 114.164)"><path class="q" d="M312.541,196.109a30.558,30.558,0,0,0-.28-6.155,81.142,81.142,0,0,0-162.055,0,30.248,30.248,0,0,0-.27,6.124h-.156a84.9,84.9,0,0,0,9.5,39.154h0l.062.114a84.782,84.782,0,0,0,5.668,9.342c7.837,13.307,21.2,37.088,22.369,47.676a10.132,10.132,0,0,0,.093,1.37v.083h0c.716,6.124,4.951,12.124,12.716,16.774,17.1,10.224,45.019,10.2,62.063,0,8.377-5.034,12.622-11.636,12.757-18.269,1.3-10.816,15.02-35.147,22.836-48.257a83.517,83.517,0,0,0,4.931-8.107,6.942,6.942,0,0,0,.363-.654,84.868,84.868,0,0,0,9.456-39.154Z" transform="translate(-149.78 -113.115)"/></g><g transform="translate(155.145 114.164)"><path class="r" d="M312.541,196.109a30.558,30.558,0,0,0-.28-6.155,81.142,81.142,0,0,0-162.055,0,30.248,30.248,0,0,0-.27,6.124h-.156a84.9,84.9,0,0,0,9.5,39.154h0l.062.114a84.782,84.782,0,0,0,5.668,9.342c7.837,13.307,21.2,37.088,22.369,47.676a10.132,10.132,0,0,0,.093,1.37v.083h0c.716,6.124,4.951,12.124,12.716,16.774,17.1,10.224,45.019,10.2,62.063,0,8.377-5.034,12.622-11.636,12.757-18.269,1.3-10.816,15.02-35.147,22.836-48.257a83.517,83.517,0,0,0,4.931-8.107,6.942,6.942,0,0,0,.363-.654,84.868,84.868,0,0,0,9.456-39.154Z" transform="translate(-149.78 -113.115)"/></g><g transform="translate(155.466 114.148)"><circle class="s" cx="81.131" cy="81.131" r="81.131"/></g><g transform="translate(54.997 127.611)"><path class="t" d="M405.166,231.8v-.965c0-4.079,4.64-7.661,11.418-8.709a65.39,65.39,0,0,0-2.076-9.176c-7,0-13.152-2.7-14.927-6.612l-.5-1.038c-1.848-3.913,1.142-8.045,7.2-10.069h0a87.948,87.948,0,0,0-6.124-8.532h0c-6.757,1.038-13.92-.633-17.4-4.152l-.924-.924c-3.55-3.508-2.522-7.962,2.45-10.837h0l-9.685-7.422c-6.072,2.076-13.8,1.474-18.684-1.422l-1.287-.654c-4.993-2.865-5.979-7.328-2.45-10.847h0l-12.705-5.668h0c-4.962,2.886-12.653,3.488-18.684,1.422l-1.578-.529c-6.083-2.014-9-6.166-7.173-10.079h0q-7.2-1.962-14.74-3.55h0c-3.488,3.519-10.629,5.252-17.376,4.152l-1.848-.28c-6.758-1.038-11.418-4.6-11.418-8.647q-7.8-.789-15.84-1.194c-1.8,3.934-7.982,6.643-15.02,6.623h-1.661c-7.038,0-13.224-2.688-15.03-6.623h0q-8.013.4-15.84,1.194c0,4.048-4.661,7.619-11.418,8.647l-1.848.28c-6.757,1.038-13.889-.654-17.376-4.152h0q-7.536,1.578-14.8,3.54h0c1.868,3.913-1.038,8.065-7.131,10.141l-1.578.529c-6.062,2.076-13.764,1.464-18.684-1.422q-6.55,2.668-12.664,5.647c3.529,3.519,2.543,7.982-2.46,10.847l-1.225.716c-4.951,2.9-12.664,3.467-18.747,1.422Q90.222,167,85.613,170.8c4.972,2.865,6.01,7.328,2.45,10.837l-.913.924c-3.477,3.519-10.65,5.19-17.408,4.152h0a89.767,89.767,0,0,0-6.124,8.533h0c6.072,2.076,9.062,6.155,7.214,10.069-.176.353-.343.706-.5,1.038-1.775,3.9-8,6.612-14.958,6.6a63.941,63.941,0,0,0-2.076,9.176c6.8,1.038,11.47,4.63,11.418,8.709v.965c0,4.069-4.64,7.65-11.418,8.7a63.318,63.318,0,0,0,2.076,9.176c7,0,13.152,2.709,14.927,6.623.156.353.322.716.5,1.038,1.848,3.913-1.142,8.045-7.214,10.069h0a88.586,88.586,0,0,0,6.124,8.543c6.768-1.038,13.951.633,17.439,4.152l.9.9c3.56,3.508,2.522,7.972-2.45,10.847q4.588,3.789,9.726,7.339c6.083-2.076,13.8-1.474,18.747,1.412l1.225.716c5,2.865,5.989,7.339,2.46,10.858h0l12.674,5.626c4.951-2.875,12.653-3.477,18.684-1.422l1.578.529c6.072,2.024,9,6.176,7.173,10.09h0c4.806,1.3,9.726,2.491,14.75,3.55h0c3.488-3.508,10.619-5.242,17.366-4.152l1.858.291c6.757,1.038,11.418,4.6,11.418,8.647q7.816.789,15.84,1.194c1.806-3.944,7.993-6.654,15.03-6.633h1.661c7.038,0,13.224,2.688,15.02,6.633q8.034-.4,15.84-1.194c0-4.048,4.671-7.619,11.418-8.647l1.848-.291c6.747-1.038,13.889.664,17.376,4.152h0c5.024-1.038,9.934-2.253,14.74-3.55h0c-1.827-3.913,1.09-8.076,7.173-10.09l1.588-.529c6.052-2.076,13.743-1.464,18.684,1.422h0l12.674-5.636h0c-3.529-3.519-2.543-7.993,2.45-10.858l1.235-.716c4.941-2.886,12.664-3.457,18.684-1.412h0l9.726-7.339h0c-4.972-2.875-6.01-7.339-2.46-10.847.311-.3.623-.6.924-.913,3.477-3.519,10.65-5.19,17.4-4.152h0a86.841,86.841,0,0,0,6.124-8.543h0c-6.062-2.024-9.051-6.155-7.2-10.069l.5-1.038c1.775-3.913,7.93-6.633,14.927-6.623a64.732,64.732,0,0,0,2.076-9.176C409.806,239.452,405.135,235.871,405.166,231.8ZM234.932,323.148c-87.432,0-158.557-41.2-158.557-91.854s71.156-91.8,158.588-91.8,158.557,41.2,158.557,91.844S322.385,323.22,234.963,323.22Z" transform="translate(-53.3 -126.07)"/><path class="u" d="M233.568,147.36C154.43,147.36,90,184.666,90,230.505s64.357,83.145,143.526,83.145,143.516-37.3,143.516-83.145S312.706,147.36,233.568,147.36Zm-.5,161.224c-74.311,0-134.765-35.023-134.765-78.079s60.464-78.069,134.776-78.069,134.755,35.033,134.755,78.069S307.381,308.584,233.07,308.584Z" transform="translate(-51.905 -125.261)"/></g><g transform="translate(174.722 149.606)"><path class="v" d="M268.527,158.6h-34.14l-32.334,20.179L188.6,205.913l18.944,22.577,34.867.747,20.459,11.086,14.107,6.3-6.809-15.29,6.9-12.186,14.667-22.2-1.318-22.193Z" transform="translate(-167.881 -146.829)"/><path class="w" d="M265.249,158.97l-32.23-10.09L201.1,153.157l-21.217,17.927-9.622,16.141.83,16.141,10.775,13.027,19.567,4.349L189.3,206.282l13.453-27.134,32.334-20.179Z" transform="translate(-168.578 -147.198)"/><circle class="x" cx="1.682" cy="1.682" r="1.682" transform="translate(64.866 10.432)"/><circle class="x" cx="1.682" cy="1.682" r="1.682" transform="translate(32.49 30.269)"/><circle class="x" cx="1.682" cy="1.682" r="1.682" transform="translate(19.037 57.496)"/><circle class="x" cx="1.682" cy="1.682" r="1.682" transform="translate(37.67 79.626)"/><circle class="x" cx="1.682" cy="1.682" r="1.682" transform="translate(72.848 80.726)"/><circle class="x" cx="1.682" cy="1.682" r="1.682" transform="translate(107.414 70.637)"/><circle class="x" cx="1.682" cy="1.682" r="1.682" transform="translate(122.174 48.434)"/><circle class="x" cx="1.682" cy="1.682" r="1.682" transform="translate(120.877 26.241)"/><circle class="x" cx="1.682" cy="1.682" r="1.682" transform="translate(98.892 10.432)"/><circle class="x" cx="1.682" cy="1.682" r="1.682" transform="translate(62.758)"/><circle class="x" cx="1.682" cy="1.682" r="1.682" transform="translate(30.808 4.277)"/><circle class="x" cx="1.682" cy="1.682" r="1.682" transform="translate(9.477 22.203)"/><circle class="x" cx="1.682" cy="1.682" r="1.682" transform="translate(0 38.344)"/><circle class="x" cx="1.682" cy="1.682" r="1.682" transform="translate(0.913 54.485)"/><circle class="x" cx="1.682" cy="1.682" r="1.682" transform="translate(11.709 67.274)"/><circle class="x" cx="1.682" cy="1.682" r="1.682" transform="translate(63.184 33.279)"/><circle class="x" cx="1.682" cy="1.682" r="1.682" transform="translate(44.863 50.115)"/><circle class="x" cx="1.682" cy="1.682" r="1.682" transform="translate(56.032 66.599)"/><circle class="x" cx="1.682" cy="1.682" r="1.682" transform="translate(70.606 51.423)"/><circle class="x" cx="1.682" cy="1.682" r="1.682" transform="translate(86.923 26.573)"/><circle class="x" cx="1.682" cy="1.682" r="1.682" transform="translate(98.072 42.04)"/><circle class="x" cx="1.682" cy="1.682" r="1.682" transform="translate(88.605 61.855)"/><path class="y" d="M266.91,158.6l-12.041,16.484-23.739,6.706,1.64-23.189,22.1,16.484" transform="translate(-166.264 -146.829)"/><path class="y" d="M289.189,195.774,255.62,209.2l9.467-19.816Z" transform="translate(-165.333 -145.659)"/><path class="y" d="M201.56,178.04l12.373,19.847,25.743,1.308L225.1,214.371l-11.169-16.484,18.321-16.837Z" transform="translate(-167.389 -146.09)"/><path class="y" d="M224.24,214.518l32.573-4.744-18-10.432,16.318-24.85,11.148,15.466,22.805-15.8" transform="translate(-166.526 -146.237)"/><path class="y" d="M231.13,180.94l7.422,18.145,27.466-9.384" transform="translate(-166.264 -145.98)"/><circle class="x" cx="1.682" cy="1.682" r="1.682" transform="translate(39.216 13.058)"/><circle class="x" cx="1.682" cy="1.682" r="1.682" transform="translate(18.435 29.604)"/><circle class="x" cx="1.682" cy="1.682" r="1.682" transform="translate(9.487 47.084)"/><path class="y" d="M234.737,158.97l-2.066-10.09-23.542,13.058-8.408-8.782-5.045,13.889-7.328,11.439-8.948,17.48" transform="translate(-168.231 -147.198)"/><path class="y" d="M179.4,194.24l9.55,10.411-7.328,9.778Z" transform="translate(-168.231 -145.474)"/><circle class="x" cx="1.682" cy="1.682" r="1.682" transform="translate(25.764 18.165)"/><line class="y" x2="6.726" y2="12.103" transform="translate(27.445 19.847)"/><line class="y" y1="2.626" x2="26.054" transform="translate(40.898 12.114)"/><circle class="x" cx="1.682" cy="1.682" r="1.682" transform="translate(93.307 91.812)"/><path class="y" d="M243.109,229.71l34.566-10.671-18.809-8.782-15.757,18.871-16.816-14.169L207.93,227.986l7.193-29.511-25.826,7.38-.623-27.85,14.055.664,6.706-17.21-13.494,5.107L179.655,170.6l9.02,7.4-18.435,8.74,9.487,8.74s-8.3,6.913-8.574,7.4" transform="translate(-168.579 -146.72)"/><circle class="x" cx="1.682" cy="1.682" r="1.682" transform="translate(100.687 82.823)"/><circle class="x" cx="1.682" cy="1.682" r="1.682" transform="translate(107.414 98.113)"/><path class="y" d="M260.9,237.736l7.38-8.989-27.84-2.1" transform="translate(-165.91 -144.242)"/></g></g></svg>