<svg xmlns="http://www.w3.org/2000/svg" xmlns:xlink="http://www.w3.org/1999/xlink" width="454" height="439.493" viewBox="0 0 454 439.493"><defs><style>.a{fill:url(#a);}.b{fill:url(#b);}.c,.d,.e,.g,.j{fill:#231f20;}.c{opacity:0.25;}.d{opacity:0.2;}.e{opacity:0.4;}.f,.k{fill:#00daff;}.g,.s{opacity:0.5;}.h{fill:url(#c);}.i{fill:red;}.i,.k{opacity:0.7;}.j{opacity:0.36;}.l{stroke:#707070;stroke-miterlimit:10;stroke-width:0.27px;fill:url(#d);}.m{fill:url(#e);}.n{fill:url(#f);}.o{fill:url(#h);}.p{fill:url(#i);}.q{fill:url(#j);}.r,.s,.w{fill:#fff;}.t{fill:url(#k);}.u{fill:url(#l);}.v{fill:url(#m);}.w{opacity:0.74;}</style><radialGradient id="a" cx="231.423" cy="194.925" r="303.099" gradientTransform="translate(59.275 104.481) scale(0.744 0.464)" gradientUnits="userSpaceOnUse"><stop offset="0" stop-color="#fff" stop-opacity="0.502"/><stop offset="0.14" stop-color="#f4f4f4" stop-opacity="0.478"/><stop offset="0.34" stop-color="#d6d6d6" stop-opacity="0.412"/><stop offset="0.56" stop-color="#a5a3a4" stop-opacity="0.302"/><stop offset="0.81" stop-color="#615e5e" stop-opacity="0.141"/><stop offset="1" stop-color="#231f20" stop-opacity="0"/></radialGradient><linearGradient id="b" x1="0.022" y1="0.372" x2="1.017" y2="0.638" gradientUnits="objectBoundingBox"><stop offset="0" stop-color="#ab0000"/><stop offset="0.43" stop-color="#643943"/><stop offset="1" stop-color="#0089a1"/></linearGradient><linearGradient id="c" x1="0.371" y1="0.336" x2="0.638" y2="0.677" gradientUnits="objectBoundingBox"><stop offset="0" stop-color="#00daff" stop-opacity="0.502"/><stop offset="0.14" stop-color="#02cff2" stop-opacity="0.471"/><stop offset="0.35" stop-color="#08b1ce" stop-opacity="0.388"/><stop offset="0.61" stop-color="#117f93" stop-opacity="0.259"/><stop offset="0.89" stop-color="#1e3b41" stop-opacity="0.071"/><stop offset="1" stop-color="#231f20" stop-opacity="0"/></linearGradient><linearGradient id="d" x1="0.039" y1="0.389" x2="0.958" y2="0.61" gradientUnits="objectBoundingBox"><stop offset="0" stop-color="#fff" stop-opacity="0.302"/><stop offset="0.16" stop-color="#fff" stop-opacity="0.2"/><stop offset="0.41" stop-color="#fff" stop-opacity="0.051"/><stop offset="0.55" stop-color="#fff" stop-opacity="0"/><stop offset="0.73" stop-color="#fff" stop-opacity="0.031"/><stop offset="1" stop-color="#fff" stop-opacity="0.051"/></linearGradient><linearGradient id="e" x1="0.102" y1="0.31" x2="0.811" y2="0.649" gradientUnits="objectBoundingBox"><stop offset="0" stop-color="#fff" stop-opacity="0.698"/><stop offset="0.06" stop-color="#fff" stop-opacity="0.588"/><stop offset="0.18" stop-color="#fff" stop-opacity="0.38"/><stop offset="0.28" stop-color="#fff" stop-opacity="0.212"/><stop offset="0.38" stop-color="#fff" stop-opacity="0.102"/><stop offset="0.46" stop-color="#fff" stop-opacity="0.031"/><stop offset="0.52" stop-color="#fff" stop-opacity="0"/><stop offset="0.59" stop-color="#fff" stop-opacity="0.02"/><stop offset="0.67" stop-color="#fff" stop-opacity="0.071"/><stop offset="0.75" stop-color="#fff" stop-opacity="0.161"/><stop offset="0.84" stop-color="#fff" stop-opacity="0.29"/><stop offset="0.93" stop-color="#fff" stop-opacity="0.451"/><stop offset="1" stop-color="#fff" stop-opacity="0.6"/></linearGradient><linearGradient id="f" x1="0" y1="0.5" x2="1" y2="0.5" xlink:href="#d"/><linearGradient id="h" x1="0.301" y1="0.972" x2="0.7" y2="0.026" gradientUnits="objectBoundingBox"><stop offset="0" stop-color="#e6e7e8"/><stop offset="1" stop-color="#d1d3d4"/></linearGradient><linearGradient id="i" x1="0.953" y1="1.004" x2="0.17" y2="0.219" gradientUnits="objectBoundingBox"><stop offset="0" stop-color="#d1d3d4"/><stop offset="1" stop-color="#a7a9ac"/></linearGradient><linearGradient id="j" x1="0.981" y1="0.038" x2="0.012" y2="0.969" gradientUnits="objectBoundingBox"><stop offset="0" stop-color="#e6e7e8"/><stop offset="1" stop-color="#bcbec0"/></linearGradient><linearGradient id="k" x1="0.647" y1="0.663" x2="-0.007" y2="-0.039" gradientUnits="objectBoundingBox"><stop offset="0" stop-color="#fff" stop-opacity="0.502"/><stop offset="0.1" stop-color="#fff" stop-opacity="0.431"/><stop offset="0.39" stop-color="#fff" stop-opacity="0.251"/><stop offset="0.65" stop-color="#fff" stop-opacity="0.11"/><stop offset="0.86" stop-color="#fff" stop-opacity="0.031"/><stop offset="1" stop-color="#fff" stop-opacity="0"/></linearGradient><linearGradient id="l" x1="0.594" y1="0.548" x2="0.461" y2="0.331" xlink:href="#k"/><linearGradient id="m" x1="0.747" y1="0.76" x2="0.091" y2="0.057" xlink:href="#k"/></defs><g transform="translate(-11.12 -17.944)"><g transform="translate(11.12 119.722)"><rect class="a" width="454" height="337.715"/></g><g transform="translate(81.517 17.944)"><path class="b" d="M83.477,360.444,298.295,231.553a6.843,6.843,0,0,0,3.322-5.858V21.356a3.416,3.416,0,0,0-5.177-2.924L81.727,147.323a6.832,6.832,0,0,0-3.364,5.858L78.3,357.52a3.416,3.416,0,0,0,5.177,2.924Z" transform="translate(-78.3 -17.944)"/><path class="c" d="M92.56,198.031v98.261l133.952-80.363.094-98.209Z" transform="translate(-77.617 -13.165)"/><path class="c" d="M92.56,155.411v35.765L226.512,110.8l.094-35.712Z" transform="translate(-77.617 -15.207)"/><path class="d" d="M248.293,197.155c-3.489,0-4.013-4.988-4.013-7.954,0-11.265,8.111-26.04,17.353-31.636A10.689,10.689,0,0,1,267,155.69c3.615,0,4.045,5.6,4.055,8.006.073,11.233-8.027,25.988-17.332,31.573a10.961,10.961,0,0,1-5.428,1.886Z" transform="translate(-70.351 -11.347)"/><path class="e" d="M248.589,203.71c-6.5,0-10.479-5.543-10.479-14.471,0-13.623,9.19-30.389,20.486-37.211a17.332,17.332,0,0,1,8.739-2.808c6.466,0,10.479,5.543,10.573,14.471.084,13.686-9.106,30.389-20.5,37.2a17.489,17.489,0,0,1-8.781,2.819Zm18.747-53.191a16.043,16.043,0,0,0-8.058,2.63c-10.772,6.518-19.91,23.054-19.91,36.089,0,12.218,7.052,13.162,9.221,13.162a16.253,16.253,0,0,0,8.111-2.62c10.846-6.507,19.91-23.054,19.91-36.079C276.536,160.611,275.813,150.519,267.336,150.519Z" transform="translate(-70.646 -11.656)"/><path class="f" d="M248.577,203.7c-5.407,0-9.19-3.919-10.227-10.542l1.205-.765c.817,6.392,4.034,10.007,9.022,10.007a16.253,16.253,0,0,0,8.111-2.62c10.846-6.507,19.91-23.054,19.91-36.079,0-3.091-.744-13.183-9.263-13.183h-.723l.178-1.31h.545c6.466,0,10.479,5.543,10.573,14.471.084,13.685-9.106,30.389-20.5,37.2a17.468,17.468,0,0,1-8.781,2.808Z" transform="translate(-70.635 -11.657)"/><path class="d" d="M234.6,135.965v17.856l44.651-26.795V109.17Z" transform="translate(-70.814 -13.575)"/><path class="d" d="M234.6,221.185v17.856l44.651-26.784V194.39Z" transform="translate(-70.814 -9.493)"/><path class="g" d="M92.56,300.333v26.784l133.952-80.373V219.96Z" transform="translate(-77.617 -8.269)"/><path class="h" d="M92.56,259.767s14.88-26.795,22.331-31.259,14.88,8.928,22.32,4.464,7.44-49.115,22.331-58.053,14.88,33.533,30.892,23.054c11.663-7.576,21.2-54.354,36.079-63.282v80.363L92.56,295.479Z" transform="translate(-77.617 -12.352)"/><path class="f" d="M92.55,259.714a151.946,151.946,0,0,1,7.451-13.4,132.87,132.87,0,0,1,8.792-12.575,27.528,27.528,0,0,1,5.522-5.512,6.686,6.686,0,0,1,3.888-1.216,10.1,10.1,0,0,1,3.919.933c2.421,1.048,4.527,2.546,6.727,3.73s4.621,2.1,6.853,1.331a5.9,5.9,0,0,0,.8-.346l.388-.2.314-.252a2.6,2.6,0,0,0,.587-.587,4.589,4.589,0,0,0,.513-.713,16.83,16.83,0,0,0,1.53-3.353,70.831,70.831,0,0,0,2.012-7.335c1.132-4.967,2.1-9.986,3.144-14.974a141.935,141.935,0,0,1,3.909-14.88,54.919,54.919,0,0,1,2.913-7.168,26.124,26.124,0,0,1,4.391-6.486,11.129,11.129,0,0,1,7.052-3.751,6.686,6.686,0,0,1,3.982,1.3,12.658,12.658,0,0,1,2.8,2.9,44.89,44.89,0,0,1,3.8,6.759c1.111,2.316,2.159,4.632,3.322,6.885a24.625,24.625,0,0,0,4.192,6.141,7.451,7.451,0,0,0,2.955,1.834,5.889,5.889,0,0,0,3.4-.157,8.322,8.322,0,0,0,1.624-.734l.8-.451.713-.534a14.994,14.994,0,0,0,1.352-1.237c.388-.472.817-.912,1.195-1.415a45.771,45.771,0,0,0,3.992-6.392c4.653-9.022,8.153-18.642,12.25-28.01a126.152,126.152,0,0,1,6.769-13.78,47.816,47.816,0,0,1,4.38-6.35,20.539,20.539,0,0,1,5.774-5.03,23.347,23.347,0,0,0-5.239,5.418,55.152,55.152,0,0,0-4.013,6.445c-2.431,4.454-4.548,9.085-6.57,13.759s-3.919,9.431-5.879,14.126-3.982,9.431-6.35,13.989a46.231,46.231,0,0,1-4.087,6.591c-.4.524-.849,1.048-1.268,1.509a15.065,15.065,0,0,1-1.478,1.352l-.807.618-.88.493a9.2,9.2,0,0,1-1.844.838,7.094,7.094,0,0,1-4.129.178,8.76,8.76,0,0,1-3.5-2.1,26.02,26.02,0,0,1-4.412-6.465c-1.195-2.284-2.242-4.621-3.353-6.906a42.959,42.959,0,0,0-3.7-6.549c-1.415-1.991-3.374-3.7-5.659-3.636a9.9,9.9,0,0,0-6.109,3.353,25.663,25.663,0,0,0-4.192,6.141,52.86,52.86,0,0,0-2.861,6.989,140.233,140.233,0,0,0-3.919,14.723c-1.1,4.967-2.1,9.986-3.217,14.974a70.12,70.12,0,0,1-2.1,7.44,17.039,17.039,0,0,1-1.666,3.584,4.548,4.548,0,0,1-.6.838,3.73,3.73,0,0,1-.765.754l-.44.335-.461.241a7.824,7.824,0,0,1-.964.409,7.335,7.335,0,0,1-4.1.073,15.519,15.519,0,0,1-3.668-1.509c-2.284-1.237-4.37-2.714-6.633-3.72a9.368,9.368,0,0,0-3.469-.849,5.575,5.575,0,0,0-3.29,1.048,26.427,26.427,0,0,0-5.239,5.239,140.766,140.766,0,0,0-8.792,12.449l-8.268,12.879Z" transform="translate(-77.618 -12.352)"/><path class="i" d="M99.66,301.941v1.352l37.211-22.32V279.61Z" transform="translate(-77.277 -5.412)"/><path class="i" d="M99.66,305.526v1.362l25.747-15.446V290.08Z" transform="translate(-77.277 -4.91)"/><path class="i" d="M99.66,309.376v1.352l25.747-15.446V293.93Z" transform="translate(-77.277 -4.726)"/><path class="f" d="M238.15,223.69v1.362l37.211-22.331V201.37Z" transform="translate(-70.644 -9.159)"/><path class="f" d="M238.15,227.286v1.352L263.9,213.192V211.84Z" transform="translate(-70.644 -8.657)"/><path class="f" d="M238.15,138.62v1.362l37.211-22.331V116.3Z" transform="translate(-70.644 -13.233)"/><path class="f" d="M238.15,142.216v1.352L263.9,128.122V126.76Z" transform="translate(-70.644 -12.732)"/><path class="j" d="M99.66,159.305v1.362L218.711,89.222V87.86Z" transform="translate(-77.277 -14.595)"/><path class="j" d="M99.66,167.825v1.362L218.753,97.742V96.39Z" transform="translate(-77.277 -14.187)"/><path class="j" d="M99.66,176.355v1.352l119.051-71.445V104.91Z" transform="translate(-77.277 -13.779)"/><path class="k" d="M99.66,158.285v1.362l81.861-49.125V109.17Z" transform="translate(-77.277 -13.575)"/><path class="i" d="M99.66,165.784v1.362l44.651-26.795V139Z" transform="translate(-77.277 -12.146)"/><path class="k" d="M99.66,174.927v1.352l66.981-40.187V134.74Z" transform="translate(-77.277 -12.35)"/><path class="d" d="M248.293,111.5c-3.489,0-4.013-4.977-4.013-7.954,0-11.254,8.111-26.04,17.353-31.636A10.689,10.689,0,0,1,267.04,70c3.615,0,4.045,5.606,4.055,8.006.073,11.244-8.027,26-17.332,31.573a10.846,10.846,0,0,1-5.47,1.918Z" transform="translate(-70.351 -15.451)"/><path class="e" d="M248.589,118.05c-6.5,0-10.479-5.543-10.479-14.461,0-13.685,9.19-30.389,20.486-37.211a17.353,17.353,0,0,1,8.739-2.819c6.465,0,10.479,5.543,10.573,14.482.084,13.675-9.106,30.389-20.5,37.2a17.573,17.573,0,0,1-8.781,2.808Zm18.747-53.191a16.043,16.043,0,0,0-8.058,2.63c-10.772,6.518-19.91,23.054-19.91,36.1,0,12.208,7.052,13.162,9.221,13.162a16.274,16.274,0,0,0,8.111-2.63c10.846-6.507,19.91-23.054,19.91-36.079C276.536,74.951,275.813,64.859,267.336,64.859Z" transform="translate(-70.646 -15.759)"/><path class="f" d="M248.577,118.051c-5.407,0-9.19-3.93-10.227-10.552l1.205-.765c.817,6.392,4.034,10.018,9.022,10.018a16.274,16.274,0,0,0,8.111-2.63c10.846-6.507,19.91-23.054,19.91-36.079,0-3.091-.744-13.183-9.263-13.183h-.723l.178-1.31h.534c6.466,0,10.479,5.543,10.573,14.471.084,13.675-9.106,30.389-20.5,37.2a17.573,17.573,0,0,1-8.781,2.808Z" transform="translate(-70.635 -15.76)"/></g><g transform="translate(133.021 48.471)"><path class="l" d="M133.166,390.124,347.984,261.233a6.843,6.843,0,0,0,3.322-5.858V51.036A3.416,3.416,0,0,0,346.13,48.1L131.364,176.909a6.832,6.832,0,0,0-3.311,5.858L128,387.19a3.427,3.427,0,0,0,5.166,2.934Z" transform="translate(-127.424 -47.05)"/><path class="m" d="M131.432,391.208a4.013,4.013,0,0,1-1.96-.524,3.93,3.93,0,0,1-2.022-3.469V182.877a7.451,7.451,0,0,1,3.594-6.34L345.758,47.646a3.982,3.982,0,0,1,6.036,3.416V255.4a7.429,7.429,0,0,1-3.594,6.35L133.433,390.643a3.962,3.962,0,0,1-2,.566ZM347.864,48.191a2.819,2.819,0,0,0-1.467.409L131.684,177.491a6.287,6.287,0,0,0-3.039,5.365l-.063,204.392a2.85,2.85,0,0,0,4.317,2.442L347.717,260.8a6.287,6.287,0,0,0,3.039-5.376V51.083a2.84,2.84,0,0,0-2.84-2.85Z" transform="translate(-127.45 -47.076)"/></g><g transform="translate(133.598 49.014)"><path class="n" d="M271.257,90.91,237.7,111.051,128.02,279.1l-.01,34.172Z" transform="translate(-128 -45.519)"/><path class="n" d="M351.254,97.438V51.016a3.416,3.416,0,0,0-5.177-2.934L288.244,82.789,128,332.889v54.3a3.427,3.427,0,0,0,5.177,2.934l58.745-35.283Z" transform="translate(-128 -47.594)"/></g><g transform="translate(200.537 296.742)"><path class="o" d="M348.163,284,191.88,377.776l66.981,40.187,156.283-93.776" transform="translate(-191.88 -284)"/><path class="p" d="M192.14,373.46l66.981,40.187v4.464L192.14,382.388Z" transform="translate(-191.868 -279.715)"/><path class="q" d="M412.332,322.32v4.464L256.06,420.56V416.1Z" transform="translate(-188.806 -282.165)"/><path class="r" d="M206.16,373.554l7.451,4.464,7.44-4.464-7.44-4.464Z" transform="translate(-191.196 -279.925)"/><path class="r" d="M216.82,367.164l7.44,4.464,7.44-4.464-7.44-4.464Z" transform="translate(-190.686 -280.231)"/><path class="r" d="M227.47,360.774l7.44,4.464,7.44-4.464-7.44-4.464Z" transform="translate(-190.175 -280.537)"/><path class="r" d="M238.12,354.354l7.44,4.464,7.451-4.464-7.451-4.464Z" transform="translate(-189.665 -280.844)"/><path class="r" d="M248.78,347.984l7.44,4.464,7.44-4.464-7.44-4.464Z" transform="translate(-189.155 -281.149)"/><path class="r" d="M259.43,341.574l7.44,4.464,7.44-4.464-7.44-4.464Z" transform="translate(-188.645 -281.456)"/><path class="r" d="M270.08,335.2l7.44,4.464,7.44-4.464-7.44-4.464Z" transform="translate(-188.135 -281.761)"/><path class="r" d="M280.55,328.914l7.44,4.475,7.44-4.475-7.44-4.464Z" transform="translate(-187.633 -282.063)"/><path class="r" d="M291.39,322.629l7.44,4.464,14.88-8.939-7.44-4.464Z" transform="translate(-187.114 -282.578)"/><path class="r" d="M313.05,309.744l7.44,4.464,7.44-4.464-7.44-4.464Z" transform="translate(-186.077 -282.981)"/><path class="r" d="M323.7,303.354l7.44,4.464,7.44-4.464-7.44-4.464Z" transform="translate(-185.567 -283.287)"/><path class="r" d="M334.35,296.964l7.44,4.464,7.451-4.464L341.79,292.5Z" transform="translate(-185.057 -283.593)"/><path class="r" d="M323.52,316.134l7.44,4.464,7.451-4.464-7.451-4.464Z" transform="translate(-185.575 -282.675)"/><path class="r" d="M334.18,309.744l7.44,4.464,7.44-4.464-7.44-4.464Z" transform="translate(-185.065 -282.981)"/><path class="r" d="M344.83,303.354l7.44,4.464,7.44-4.464-7.44-4.464Z" transform="translate(-184.555 -283.287)"/><path class="r" d="M334.18,322.524l7.44,4.464,7.44-4.464-7.44-4.464Z" transform="translate(-185.065 -282.369)"/><path class="r" d="M344.83,316.134l7.44,4.464,7.44-4.464-7.44-4.464Z" transform="translate(-184.555 -282.675)"/><path class="r" d="M355.48,309.744l7.44,4.464,7.44-4.464-7.44-4.464Z" transform="translate(-184.045 -282.981)"/><path class="r" d="M344.65,328.914l7.44,4.475,7.44-4.475-7.44-4.464Z" transform="translate(-184.563 -282.063)"/><path class="r" d="M355.3,322.524l7.44,4.464,7.451-4.464-7.451-4.464Z" transform="translate(-184.053 -282.369)"/><path class="r" d="M365.96,316.134l7.44,4.464,7.44-4.464-7.44-4.464Z" transform="translate(-183.543 -282.675)"/><path class="r" d="M216.82,380.041l7.44,4.464,11.16-6.581-7.44-4.464Z" transform="translate(-190.686 -279.715)"/><path class="r" d="M231.02,371.424l7.44,4.464,7.44-4.464-7.44-4.464Z" transform="translate(-190.005 -280.027)"/><path class="r" d="M241.67,365.134l7.451,4.464,7.44-4.464-7.44-4.464Z" transform="translate(-189.495 -280.328)"/><path class="r" d="M252.33,358.614l7.44,4.464,7.44-4.464-7.44-4.464Z" transform="translate(-188.985 -280.64)"/><path class="r" d="M262.98,352.354l7.44,4.464,7.44-4.464-7.44-4.464Z" transform="translate(-188.475 -280.94)"/><path class="r" d="M273.63,345.854l7.44,4.464,7.44-4.464-7.44-4.464Z" transform="translate(-187.965 -281.251)"/><path class="r" d="M284.28,339.574l7.451,4.464,7.44-4.464-7.44-4.464Z" transform="translate(-187.455 -281.552)"/><path class="r" d="M294.94,333.074l7.44,4.464,7.44-4.464-7.44-4.464Z" transform="translate(-186.944 -281.863)"/><path class="r" d="M305.51,326.922l7.44,4.475,11.244-6.843-7.44-4.464Z" transform="translate(-186.438 -282.271)"/><path class="r" d="M227.47,386.334l7.44,4.464,7.44-4.464-7.44-4.464Z" transform="translate(-190.175 -279.313)"/><path class="r" d="M237.97,380.054l7.44,4.464,7.44-4.464-7.44-4.464Z" transform="translate(-189.673 -279.613)"/><path class="r" d="M248.78,373.554l7.44,4.464,7.44-4.464-7.44-4.464Z" transform="translate(-189.155 -279.925)"/><path class="r" d="M259.43,367.164l7.44,4.464,7.44-4.464-7.44-4.464Z" transform="translate(-188.645 -280.231)"/><path class="r" d="M270.08,360.774l7.44,4.464,7.44-4.464-7.44-4.464Z" transform="translate(-188.135 -280.537)"/><path class="r" d="M280.73,354.484l7.44,4.464,7.451-4.464-7.451-4.464Z" transform="translate(-187.625 -280.838)"/><path class="r" d="M291.39,347.984l7.44,4.464,7.44-4.464-7.44-4.464Z" transform="translate(-187.114 -281.149)"/><path class="r" d="M302.04,341.594l7.44,4.464,7.44-4.464-7.44-4.464Z" transform="translate(-186.604 -281.455)"/><path class="r" d="M312.69,335.408l7.44,4.464,14.985-8.928-7.451-4.464Z" transform="translate(-186.094 -281.965)"/><path class="r" d="M238.39,392.936l7.44,4.464,11.16-6.7-7.44-4.464Z" transform="translate(-189.652 -279.103)"/><path class="r" d="M252.59,384.314l7.44,4.464,7.451-4.464-7.451-4.464Z" transform="translate(-188.972 -279.409)"/><path class="r" d="M263.25,377.924l7.44,4.464,7.44-4.464-7.44-4.464Z" transform="translate(-188.462 -279.715)"/><path class="r" d="M273.9,371.524,281.34,376l7.44-4.475-7.44-4.464Z" transform="translate(-187.952 -280.022)"/><path class="r" d="M284.55,365.134l7.44,4.464,7.44-4.464-7.44-4.464Z" transform="translate(-187.442 -280.328)"/><path class="r" d="M295.2,358.744l7.451,4.464,7.44-4.464-7.44-4.464Z" transform="translate(-186.932 -280.634)"/><path class="r" d="M305.86,352.354l7.44,4.464,7.44-4.464-7.44-4.464Z" transform="translate(-186.421 -280.94)"/><path class="r" d="M316.51,345.964l7.44,4.464,7.44-4.464-7.44-4.464Z" transform="translate(-185.911 -281.246)"/><path class="r" d="M327.34,339.681l7.44,4.464,10.7-6.811-7.44-4.464Z" transform="translate(-185.392 -281.659)"/><path class="r" d="M248.78,399.224l7.44,4.464,7.44-4.464-7.44-4.464Z" transform="translate(-189.155 -278.695)"/><path class="r" d="M259.61,392.834l7.44,4.464,7.44-4.464-7.44-4.464Z" transform="translate(-188.636 -279.001)"/><path class="r" d="M270.35,386.444l7.44,4.464,7.44-4.464-7.44-4.464Z" transform="translate(-188.122 -279.307)"/><path class="r" d="M312.69,360.774l7.44,4.464,7.44-4.464-7.44-4.464Z" transform="translate(-186.094 -280.537)"/><path class="r" d="M323.34,354.374l7.451,4.464,7.44-4.464-7.44-4.464Z" transform="translate(-185.584 -280.843)"/><path class="r" d="M334.02,348.188l7.44,4.464,14.859-8.928-7.44-4.464Z" transform="translate(-185.072 -281.353)"/><path class="r" d="M280.73,380.564l7.44,4.464L317.941,367l-7.44-4.464Z" transform="translate(-187.625 -280.238)"/><path class="r" d="M355.3,335.314l7.44,4.464,7.451-4.464-7.451-4.464Z" transform="translate(-184.053 -281.756)"/><path class="r" d="M365.96,328.914l7.44,4.475,7.44-4.475-7.44-4.464Z" transform="translate(-183.543 -282.063)"/><path class="r" d="M376.61,322.524l7.44,4.464,7.44-4.464-7.44-4.464Z" transform="translate(-183.033 -282.369)"/></g><g transform="translate(81.832 122.331)"><path class="s" d="M302.8,171.5v-.493A1.938,1.938,0,0,0,302.8,171.5Z" transform="translate(-67.863 -115)"/><path class="s" d="M302.213,166.467a.679.679,0,0,0-.073-.377C302.161,166.216,302.192,166.331,302.213,166.467Z" transform="translate(-67.894 -115.236)"/><path class="s" d="M302.683,169.754l-.063-.534Z" transform="translate(-67.871 -115.086)"/><path class="s" d="M195.37,283.737l.629-.157Z" transform="translate(-73.007 -109.609)"/><path class="s" d="M196.83,283.32a6.51,6.51,0,0,0,.639-.21,6.5,6.5,0,0,1-.639.21Z" transform="translate(-72.938 -109.631)"/><path class="s" d="M299.17,158.38Z" transform="translate(-68.036 -115.605)"/><path class="s" d="M299.84,159.532v-.052Z" transform="translate(-68.004 -115.552)"/><path class="t" d="M219.648,216.729a3.678,3.678,0,0,0-1.268-.189c-1.121,0-3.573.335-7.335,2.6C197.684,227.187,186,248.386,186,264.5c0,1.729.241,10.4,4.579,10.4h0c1.121,0,3.542-.335,7.251-2.578,6.287-3.793,12.638-10.9,17.416-19.5l.063-.115c.409-.754.807-1.509,1.195-2.274l15.31-29.1Z" transform="translate(-73.456 -112.82)"/><path class="u" d="M178.4,269.264c0-20.612,14.01-45.95,31.217-56.3,7.451-4.485,14.3-5.449,19.679-3.416h.136l13.518,5.04L258.911,184.2c.461-.912.933-1.8,1.415-2.693h0c5.669-10.227,13.465-19.176,22.006-24.353s16.232-5.617,21.87-2.295h0l-62.13-37.294L78.6,215.926l107.933,73.6C181.514,285.9,178.422,278.915,178.4,269.264Z" transform="translate(-78.6 -117.56)"/><path class="v" d="M292.762,173.8c0-1.74-.241-10.4-4.579-10.4h0c-1.111,0-3.542.335-7.251,2.567-6.287,3.8-12.638,10.909-17.405,19.512l-.073.115c-.409.744-.807,1.5-1.184,2.263L247,216.958l12.177,4.6a3.678,3.678,0,0,0,1.268.189c1.121,0,3.573-.335,7.335-2.6C281.088,211.1,292.793,189.912,292.762,173.8Z" transform="translate(-70.535 -115.365)"/><path class="s" d="M300.44,160.764v-.094Z" transform="translate(-67.975 -115.495)"/><path class="s" d="M301.464,163.461a.269.269,0,0,0-.073-.22C301.318,163.167,301.443,163.387,301.464,163.461Z" transform="translate(-67.931 -115.373)"/><path class="s" d="M301.874,164.924a1.1,1.1,0,0,0-.084-.3C301.821,164.725,301.853,164.819,301.874,164.924Z" transform="translate(-67.911 -115.306)"/><path class="s" d="M301,162.078a1.728,1.728,0,0,1-.073-.168C300.909,161.848,301,162,301,162.078Z" transform="translate(-67.952 -115.437)"/><path class="s" d="M302.483,168.07a3.213,3.213,0,0,0-.073-.44C302.431,167.777,302.462,167.923,302.483,168.07Z" transform="translate(-67.881 -115.162)"/><path class="s" d="M189.84,284.38Z" transform="translate(-73.272 -109.57)"/><path class="s" d="M189.022,284.33h0Z" transform="translate(-73.335 -109.573)"/><path class="s" d="M193.93,284.055l.618-.115Z" transform="translate(-73.076 -109.591)"/><path class="s" d="M202.024,281.08l-.534.283Z" transform="translate(-72.714 -109.728)"/><path class="s" d="M182.73,282.4l.168.084Z" transform="translate(-73.613 -109.665)"/><path class="s" d="M199.029,282.55l-.639.241Z" transform="translate(-72.863 -109.658)"/><path class="s" d="M200.5,281.87l-.618.283Z" transform="translate(-72.791 -109.691)"/><path class="s" d="M181.65,281.7h.063Z" transform="translate(-73.665 -109.699)"/><path class="s" d="M191.17,284.37h0Z" transform="translate(-73.209 -109.571)"/><path class="s" d="M187.3,284.1l.44.073Z" transform="translate(-73.394 -109.584)"/><path class="s" d="M192.54,284.263l.576-.073Z" transform="translate(-73.143 -109.579)"/><path class="s" d="M184.93,283.44l.335.115Z" transform="translate(-73.507 -109.615)"/><path class="s" d="M186.09,283.82l.4.094Z" transform="translate(-73.452 -109.597)"/><path class="s" d="M183.8,283l.272.126Z" transform="translate(-73.562 -109.636)"/></g><g transform="translate(181.707 157.617)"><path class="w" d="M277.84,155.631c-8.572,5.177-16.368,14.126-22.006,24.353h0c-.482.891-.954,1.781-1.415,2.693L238.46,213.066l-13.518-5.04h-.136c-5.376-2.033-12.229-1.048-19.679,3.416-17.206,10.353-31.248,35.691-31.217,56.3s14.063,29.037,31.175,18.715c8.572-5.166,16.379-14.115,22.006-24.353h0c.482-.88.954-1.781,1.415-2.683l15.97-30.389,13.507,5.051h.126c5.376,2.033,12.229,1.048,19.69-3.406,17.2-10.364,31.248-35.7,31.206-56.3S294.952,145.32,277.84,155.631Zm-60.778,97.926c-.388.765-.786,1.519-1.195,2.274l-.063.115c-4.778,8.6-11.118,15.718-17.416,19.5-3.71,2.243-6.13,2.578-7.251,2.578h0c-4.338,0-4.579-8.666-4.579-10.4,0-16.117,11.674-37.315,25.034-45.363,3.762-2.263,6.214-2.6,7.335-2.6a3.677,3.677,0,0,1,1.268.189l12.177,4.6ZM271.2,219.731c-3.762,2.263-6.214,2.6-7.335,2.6a3.677,3.677,0,0,1-1.268-.189l-12.093-4.6,15.32-29.1c.377-.765.775-1.519,1.184-2.263l.073-.115c4.768-8.6,11.108-15.718,17.405-19.5,3.71-2.242,6.141-2.578,7.251-2.578h0c4.338,0,4.579,8.656,4.579,10.4-.021,16.117-11.726,37.305-25.087,45.353Z" transform="translate(-173.91 -151.234)"/></g></g></svg>