<svg xmlns="http://www.w3.org/2000/svg" xmlns:xlink="http://www.w3.org/1999/xlink" width="501.01" height="501" viewBox="0 0 501.01 501"><defs><style>.a{fill:none;}.b{fill:#231f20;stroke:#231f20;stroke-miterlimit:10;opacity:0;}.c{fill:url(#a);}.d{fill:url(#b);}.e{fill:url(#c);}.f{fill:url(#d);}.g{fill:url(#e);}.af,.h{opacity:0.5;}.h{fill:url(#f);}.i{fill:url(#g);}.j{fill:url(#h);}.k{fill:url(#i);}.l{fill:url(#j);}.m{fill:url(#k);}.n{fill:url(#l);}.o{fill:url(#m);}.p{fill:url(#n);}.q{fill:url(#o);}.r{fill:#0072c6;}.an,.s,.t{fill:#fff;}.s{opacity:0.15;}.u{fill:#7fba00;}.v{fill:#b8d432;}.w{fill:#00758f;}.x{fill:#f29111;}.y{clip-path:url(#p);}.z{fill:url(#q);}.aa{clip-path:url(#r);}.ab{fill:url(#s);}.ac{clip-path:url(#t);}.ad{fill:url(#u);}.ae{fill:#55b2db;}.af{fill:#96c9e4;}.ag{fill:#b7d619;}.ah{fill:#26bcee;}.ai{fill:#5294cf;}.aj{fill:#1f5b98;}.ak{fill:#2d72b8;}.al{fill:#1a476f;}.am{fill:#336791;}.an{opacity:0.12;}</style><radialGradient id="a" cx="252.157" cy="161.749" r="383.75" gradientTransform="translate(88.931 97.476) scale(0.647 0.397)" gradientUnits="userSpaceOnUse"><stop offset="0" stop-color="#fff" stop-opacity="0.502"/><stop offset="0.27" stop-color="#c9c8c9" stop-opacity="0.38"/><stop offset="0.87" stop-color="#413e3f" stop-opacity="0.071"/><stop offset="1" stop-color="#231f20" stop-opacity="0"/></radialGradient><linearGradient id="b" x1="0.5" y1="0.989" x2="0.5" y2="0.025" gradientUnits="objectBoundingBox"><stop offset="0" stop-color="#fff" stop-opacity="0.502"/><stop offset="0.11" stop-color="#d0cfcf" stop-opacity="0.388"/><stop offset="0.29" stop-color="#929090" stop-opacity="0.251"/><stop offset="0.47" stop-color="#615e5f" stop-opacity="0.141"/><stop offset="0.65" stop-color="#3f3b3c" stop-opacity="0.059"/><stop offset="0.82" stop-color="#2a2627" stop-opacity="0.02"/><stop offset="1" stop-color="#231f20" stop-opacity="0"/></linearGradient><linearGradient id="c" x1="0.434" y1="0.188" x2="0.562" y2="0.308" gradientUnits="objectBoundingBox"><stop offset="0" stop-color="#fff" stop-opacity="0.302"/><stop offset="0.12" stop-color="#fff" stop-opacity="0.22"/><stop offset="0.32" stop-color="#fff" stop-opacity="0.129"/><stop offset="0.53" stop-color="#fff" stop-opacity="0.059"/><stop offset="0.75" stop-color="#fff" stop-opacity="0.012"/><stop offset="1" stop-color="#fff" stop-opacity="0"/></linearGradient><linearGradient id="d" x1="0.588" y1="0.826" x2="0.411" y2="0.673" gradientUnits="objectBoundingBox"><stop offset="0" stop-color="#fff" stop-opacity="0.302"/><stop offset="0.02" stop-color="#fff" stop-opacity="0.278"/><stop offset="0.15" stop-color="#fff" stop-opacity="0.18"/><stop offset="0.3" stop-color="#fff" stop-opacity="0.102"/><stop offset="0.47" stop-color="#fff" stop-opacity="0.039"/><stop offset="0.67" stop-color="#fff" stop-opacity="0.012"/><stop offset="1" stop-color="#fff" stop-opacity="0"/></linearGradient><linearGradient id="e" x1="0.008" y1="0.5" x2="0.982" y2="0.5" gradientUnits="objectBoundingBox"><stop offset="0" stop-color="#fff" stop-opacity="0.898"/><stop offset="0.03" stop-color="#fff" stop-opacity="0.769"/><stop offset="0.11" stop-color="#fff" stop-opacity="0.49"/><stop offset="0.18" stop-color="#fff" stop-opacity="0.278"/><stop offset="0.23" stop-color="#fff" stop-opacity="0.149"/><stop offset="0.25" stop-color="#fff" stop-opacity="0.102"/><stop offset="0.33" stop-color="#fff" stop-opacity="0.369"/><stop offset="0.51" stop-color="#fff"/><stop offset="0.68" stop-color="#fff" stop-opacity="0.471"/><stop offset="0.8" stop-color="#fff" stop-opacity="0.102"/><stop offset="0.82" stop-color="#fff" stop-opacity="0.129"/><stop offset="0.85" stop-color="#fff" stop-opacity="0.2"/><stop offset="0.89" stop-color="#fff" stop-opacity="0.322"/><stop offset="0.92" stop-color="#fff" stop-opacity="0.49"/><stop offset="0.96" stop-color="#fff" stop-opacity="0.698"/><stop offset="1" stop-color="#fff" stop-opacity="0.898"/></linearGradient><linearGradient id="f" x1="0.008" y1="1.717" x2="0.982" y2="1.717" gradientUnits="objectBoundingBox"><stop offset="0" stop-color="#fff" stop-opacity="0.502"/><stop offset="0.03" stop-color="#fff" stop-opacity="0.431"/><stop offset="0.13" stop-color="#fff" stop-opacity="0.231"/><stop offset="0.21" stop-color="#fff" stop-opacity="0.102"/><stop offset="0.25" stop-color="#fff" stop-opacity="0.051"/><stop offset="0.51" stop-color="#fff" stop-opacity="0.251"/><stop offset="0.81" stop-color="#fff" stop-opacity="0.051"/><stop offset="0.83" stop-color="#fff" stop-opacity="0.078"/><stop offset="0.85" stop-color="#fff" stop-opacity="0.149"/><stop offset="0.89" stop-color="#fff" stop-opacity="0.271"/><stop offset="0.92" stop-color="#fff" stop-opacity="0.439"/><stop offset="0.96" stop-color="#fff" stop-opacity="0.651"/><stop offset="1" stop-color="#fff" stop-opacity="0.898"/></linearGradient><linearGradient id="g" x1="1.173" y1="0.623" x2="0.831" y2="0.379" gradientUnits="objectBoundingBox"><stop offset="0" stop-color="#fff" stop-opacity="0.251"/><stop offset="0.01" stop-color="#fff" stop-opacity="0.251"/><stop offset="0.25" stop-color="#fff" stop-opacity="0.141"/><stop offset="0.5" stop-color="#fff" stop-opacity="0.059"/><stop offset="0.75" stop-color="#fff" stop-opacity="0.02"/><stop offset="1" stop-color="#fff" stop-opacity="0"/></linearGradient><linearGradient id="h" x1="-0.179" y1="0.629" x2="0.156" y2="0.388" gradientUnits="objectBoundingBox"><stop offset="0" stop-color="#fff" stop-opacity="0.251"/><stop offset="0.24" stop-color="#fff" stop-opacity="0.149"/><stop offset="0.5" stop-color="#fff" stop-opacity="0.071"/><stop offset="0.75" stop-color="#fff" stop-opacity="0.02"/><stop offset="1" stop-color="#fff" stop-opacity="0"/></linearGradient><linearGradient id="i" x1="0.596" y1="0.082" x2="0.535" y2="0.346" gradientUnits="objectBoundingBox"><stop offset="0" stop-color="#fff" stop-opacity="0.2"/><stop offset="0.16" stop-color="#fff" stop-opacity="0.141"/><stop offset="0.44" stop-color="#fff" stop-opacity="0.059"/><stop offset="0.72" stop-color="#fff" stop-opacity="0.02"/><stop offset="1" stop-color="#fff" stop-opacity="0"/></linearGradient><radialGradient id="j" cx="33.18" cy="7.534" r="164.366" gradientTransform="translate(26.69 7.269) scale(0.196 0.035)" gradientUnits="userSpaceOnUse"><stop offset="0" stop-color="#231f20" stop-opacity="0.502"/><stop offset="1" stop-color="#231f20" stop-opacity="0"/></radialGradient><radialGradient id="k" cx="33.18" cy="7.804" r="164.366" gradientTransform="translate(26.69 7.529) scale(0.196 0.035)" xlink:href="#j"/><radialGradient id="l" cx="33.18" cy="7.551" r="164.366" gradientTransform="translate(26.69 7.285) scale(0.196 0.035)" xlink:href="#j"/><radialGradient id="m" cx="33.18" cy="7.028" r="164.366" gradientTransform="translate(26.69 6.781) scale(0.196 0.035)" xlink:href="#j"/><radialGradient id="n" cx="33.18" cy="7.059" r="164.366" gradientTransform="translate(26.69 6.811) scale(0.196 0.035)" xlink:href="#j"/><radialGradient id="o" cx="52.176" cy="7.287" r="421.982" gradientTransform="translate(45.816 7.187) scale(0.122 0.014)" xlink:href="#j"/><clipPath id="p"><path class="a" d="M140.72,127.17l-1.23-.41s.16-6.21-2.08-6.64c-1.48-1.71.22-73.07,5.59-.25a4.42,4.42,0,0,0-2.18,2.49,22.758,22.758,0,0,0-.1,4.81Z"/></clipPath><linearGradient id="q" x1="-230.901" y1="6.014" x2="-230.899" y2="6.014" gradientUnits="objectBoundingBox"><stop offset="0" stop-color="#929669"/><stop offset="0.23" stop-color="#929669"/><stop offset="1" stop-color="#fdfcf1"/></linearGradient><clipPath id="r"><path class="a" d="M141.38,121.17s10.66-7,8.16-21.6c-2.4-10.59-8.08-14.07-8.69-15.4a15.721,15.721,0,0,1-1.35-2.61l.45,29.52S139,120.09,141.38,121.17Z"/></clipPath><linearGradient id="s" x1="-143.486" y1="6.21" x2="-143.485" y2="6.21" gradientUnits="objectBoundingBox"><stop offset="0" stop-color="#45aa3a"/><stop offset="1" stop-color="#3d9439"/></linearGradient><clipPath id="t"><path class="a" d="M138.87,121.56s-10-6.82-9.43-18.85,7.64-17.95,9-19a2.83,2.83,0,0,0,1-2.25c.62,1.34.52,20,.59,22.17C140.29,112.1,139.57,120,138.87,121.56Z"/></clipPath><linearGradient id="u" x1="-139.424" y1="6.129" x2="-139.424" y2="6.129" gradientUnits="objectBoundingBox"><stop offset="0" stop-color="#41a83b"/><stop offset="1" stop-color="#5ebc44"/></linearGradient></defs><g transform="translate(0.51 0.5)"><rect class="b" width="500" height="500"/><rect class="c" width="500.2" height="323.79" transform="translate(-0.51 175.05)"/><path class="d" d="M249.59,449.56l241.83-145.1L249.59,159.37,7.76,304.46Z"/><path class="e" d="M249.59,159.37,7.76,304.46l241.83,145.1Z"/><path class="f" d="M249.59,159.37,491.42,304.46,249.59,449.56Z"/><path class="g" d="M249.59,452.68l241.83-145.1v-3.12L249.59,449.56,7.76,304.46v3.12Z"/><path class="h" d="M249.59,159.35l241.83,145.1v3.11L249.59,162.47,7.76,307.56v-3.11Z"/><path class="i" d="M491.42,304.46v-200H249.59v54.91Z"/><path class="j" d="M7.76,304.46v-200H249.59v54.91Z"/><path class="k" d="M249.59,449.56,491.42,304.47,249.59,159.37,7.76,304.47Z"/><ellipse class="l" cx="33.18" cy="6.49" rx="33.18" ry="6.49" transform="translate(352.6 334.57)"/><ellipse class="m" cx="33.18" cy="6.49" rx="33.18" ry="6.49" transform="translate(219.54 400.39)"/><ellipse class="n" cx="33.18" cy="6.49" rx="33.18" ry="6.49" transform="translate(95.49 337.76)"/><ellipse class="o" cx="33.18" cy="6.49" rx="33.18" ry="6.49" transform="translate(153.96 213.82)"/><ellipse class="p" cx="33.18" cy="6.49" rx="33.18" ry="6.49" transform="translate(292.06 220.31)"/><ellipse class="q" cx="53.24" cy="6.49" rx="53.24" ry="6.49" transform="translate(197.74 274.45)"/><path class="r" d="M218.82,315.28v64c0,6.64,14.86,12,33.19,12v-76Z"/><path class="r" d="M251.56,391.26H252c18.34,0,33.2-5.38,33.2-12v-64H251.56Z"/><path class="s" d="M251.56,391.26H252c18.34,0,33.2-5.38,33.2-12v-64H251.56Z"/><path class="t" d="M285.21,315.28c0,6.64-14.87,12-33.2,12s-33.19-5.38-33.19-12,14.86-12,33.19-12,33.2,5.38,33.2,12"/><path class="u" d="M278.42,314.59c0,4.38-11.82,7.93-26.41,7.93S225.6,319,225.6,314.59s11.83-7.93,26.41-7.93,26.41,3.55,26.41,7.93"/><path class="v" d="M272.89,319.44c3.45-1.34,5.53-3,5.53-4.85,0-4.38-11.82-7.93-26.41-7.93s-26.41,3.55-26.41,7.93c0,1.83,2.08,3.5,5.54,4.85,4.83-1.88,12.37-3.09,20.87-3.09s16.05,1.21,20.88,3.09"/><path class="t" d="M241.47,359.67a5.44,5.44,0,0,1-2.16,4.62,9.75,9.75,0,0,1-6,1.64,11.43,11.43,0,0,1-5.42-1.17v-4.68a8.33,8.33,0,0,0,5.54,2.14,3.79,3.79,0,0,0,2.26-.59,1.84,1.84,0,0,0,.8-1.55,2.23,2.23,0,0,0-.77-1.65,14.5,14.5,0,0,0-3.12-1.81c-3.19-1.5-4.79-3.54-4.79-6.14a5.52,5.52,0,0,1,2.09-4.52,8.57,8.57,0,0,1,5.55-1.7,13.94,13.94,0,0,1,5.08.8v4.37a8.27,8.27,0,0,0-4.82-1.46,3.57,3.57,0,0,0-2.15.58,1.79,1.79,0,0,0-.78,1.54,2.18,2.18,0,0,0,.63,1.63,10.359,10.359,0,0,0,2.61,1.57,12.79,12.79,0,0,1,4.19,2.82,5.25,5.25,0,0,1,1.26,3.56Z"/><path class="t" d="M264,354.94a12,12,0,0,1-1.68,6.41,9,9,0,0,1-4.73,3.82l6.07,5.62h-6.13l-4.34-4.86a10.3,10.3,0,0,1-5-1.48,9.29,9.29,0,0,1-3.46-3.76,11.45,11.45,0,0,1-1.22-5.33,12.43,12.43,0,0,1,1.32-5.8,9.4,9.4,0,0,1,3.72-3.93,10.84,10.84,0,0,1,5.49-1.37,10.13,10.13,0,0,1,5.18,1.33,9.11,9.11,0,0,1,3.55,3.78A12.1,12.1,0,0,1,264,354.94Zm-5,.26a8.18,8.18,0,0,0-1.39-5,4.5,4.5,0,0,0-3.8-1.85,4.76,4.76,0,0,0-3.93,1.86,9,9,0,0,0,0,9.83,4.66,4.66,0,0,0,3.84,1.84,4.72,4.72,0,0,0,3.88-1.78,7.53,7.53,0,0,0,1.43-4.86Z"/><path class="t" d="M279.94,365.56H267.47V344.61h4.72v17.13h7.75Z"/><path class="w" d="M243.42,242.12q-2.64,14.37-7,20.88-3.37,5-7.38,5a7.06,7.06,0,0,1-2.64-.64v-2.31a11.923,11.923,0,0,0,1.8.11,4.28,4.28,0,0,0,3-1,3.77,3.77,0,0,0,1.37-2.84,18.569,18.569,0,0,0-1.07-4.41l-4.74-14.77h4.25l3.4,11a15,15,0,0,1,.95,5.25,71.871,71.871,0,0,0,3.9-16.3h4.09m-18.74,19.1h-4.32q-.22-11-1.26-20.63h0l-6.58,20.63h-3.29l-6.53-20.63h-.05q-.72,9.28-.91,20.64h-3.94q.38-13.81,1.91-25.89H205l6.24,19h0l6.28-19h5.12q1.68,14.15,2,25.88"/><path class="x" d="M301,261.23H288.66V235.34h4.14V258H301v3.19m-30.87-5.18q-1.57-2.53-1.57-8.13,0-9.78,5.93-9.78a5,5,0,0,1,4.55,2.34c1,1.68,1.57,4.37,1.57,8.05q0,9.85-5.93,9.86a5,5,0,0,1-4.55-2.34m15.37,5.8-4.74-2.35a8.56,8.56,0,0,0,1.18-1.15q3-3.57,3-10.55,0-12.84-10.06-12.85a9.54,9.54,0,0,0-7.69,3.26q-3,3.57-3,10.52t2.67,10q2.44,2.86,7.38,2.87a12.081,12.081,0,0,0,3.38-.45l6.18,3.6,1.69-2.91m-23.1-7.8a6.91,6.91,0,0,1-2.41,5.41,9.47,9.47,0,0,1-6.46,2.11,12.94,12.94,0,0,1-7.35-2.42l1.12-2.22a12.63,12.63,0,0,0,5.54,1.53,5.88,5.88,0,0,0,3.66-1,3.53,3.53,0,0,0,1.4-2.88c0-1.54-1.07-2.85-3-4s-5.43-3.08-5.43-3.08a6.19,6.19,0,0,1-2.94-5.51,6.41,6.41,0,0,1,2.2-5.08,8.28,8.28,0,0,1,5.68-1.94,11.79,11.79,0,0,1,6.54,1.92l-1,2.22a12.72,12.72,0,0,0-5-1.07,4.44,4.44,0,0,0-3.06,1,3.21,3.21,0,0,0-1.16,2.45c0,1.54,1.09,2.87,3.11,4,1.83,1,5.54,3.12,5.54,3.12a6.12,6.12,0,0,1,3,5.47"/><path class="x" d="M303.89,261.22h.68v-2.63h.9v-.54H303v.54h.93Zm5.21,0h.64v-3.17h-1l-.79,2.16-.86-2.16h-.93v3.17h.61v-2.41h0l.9,2.41h.47l.9-2.41v2.41"/><g class="y"><path class="z" d="M140.72,127.17l-1.23-.41s.16-6.21-2.08-6.64c-1.48-1.71.22-73.07,5.59-.25a4.42,4.42,0,0,0-2.18,2.49,22.112,22.112,0,0,0-.1,4.81"/></g><g class="aa"><path class="ab" d="M141.38,121.17s10.66-7,8.16-21.6c-2.4-10.59-8.08-14.07-8.69-15.4a15.721,15.721,0,0,1-1.35-2.61l.45,29.52s-.94,9,1.43,10.1"/></g><g class="ac"><path class="ad" d="M138.87,121.56s-10-6.82-9.43-18.85,7.64-17.95,9-19a2.83,2.83,0,0,0,1-2.25c.62,1.34.52,20,.59,22.17.25,8.49-.47,16.35-1.17,18"/></g><path class="t" d="M255.82,110.48a5.75,5.75,0,0,0,3.24.77,6.36,6.36,0,0,0,4.58-1.63c1.52-1.38,2.56-3.5,2.56-6.86s-1.24-5.86-3.76-7.4a10.14,10.14,0,0,0-5.39-1.25,4.55,4.55,0,0,0-1.59.2.86.86,0,0,0-.29.45c-.06.57-.06,5-.06,7.55s0,6.37.06,6.82A2,2,0,0,0,255.82,110.48Zm-6.47-17.8c.55,0,2.64.1,3.62.1,1.81,0,3.08-.1,6.48-.1a10.51,10.51,0,0,1,7,2.24,9.3,9.3,0,0,1,3.18,7.33,9.52,9.52,0,0,1-4,8.23c-2,1.48-4.54,2.31-8.2,2.31-1.95,0-5.29-.07-8.08-.1h0c-.13-.26.24-1.26.47-1.28a4.48,4.48,0,0,0,1.31-.26c.59-.24.73-.54.79-1.6.1-2,.07-4.36.07-7V95.7c-.1-1-.51-1.25-1.36-1.44-.6-.13-1.2-.22-1.81-.29-.07-.19.43-1,.6-1.25"/><path class="t" d="M278.19,94.24c-.13,0-.29.35-.29.51,0,1.15-.07,4.16-.07,6.25a.22.22,0,0,0,.16.16c.42,0,1.46.06,2.34.06a5.61,5.61,0,0,0,2.33-.35A3,3,0,0,0,284.19,98c0-2.79-1.95-3.85-4.83-3.85A9.179,9.179,0,0,0,278.19,94.24Zm7.36,12.81c0-2.82-2.08-4.42-5.87-4.42a15.372,15.372,0,0,0-1.66,0,.205.205,0,0,0-.19.16c0,2,0,5.25.06,6.53a2.16,2.16,0,0,0,.95,1.54,6.43,6.43,0,0,0,2.5.35,3.9,3.9,0,0,0,4.21-3.56,3.322,3.322,0,0,0,0-.63ZM272.33,92.67c.29,0,1.16.1,3.36.1s3.76-.06,5.77-.06c2.5,0,5.93.9,5.93,4.61a4.49,4.49,0,0,1-3,4c-.1,0-.1.1,0,.13,2.4.6,4.51,2.08,4.51,4.9s-1.72,4.48-4.22,5.57a13.56,13.56,0,0,1-5.31.9c-1.46,0-5.37-.16-7.54-.13-.23-.1.2-1.12.4-1.28a6.17,6.17,0,0,0,1.47-.23c.77-.19.87-.44,1-1.6.07-1,.07-4.55.07-7.08V95.56c0-.9-.36-1.19-1-1.35s-1.3-.19-1.95-.29c-.16-.16.34-1.12.5-1.25"/><path class="t" d="M156.34,112.77a1.33,1.33,0,0,1-.1-.65.8.8,0,0,1,.1-.43,10.5,10.5,0,0,0,1.24-.26c.58-.14.79-.45.83-1.18.09-1.73.1-5,.06-7.25v-.06a.91.91,0,0,0-.3-.82,6.6,6.6,0,0,0-1.72-.75c-.27-.08-.42-.22-.41-.39s.18-.36.53-.43a21.27,21.27,0,0,0,4.37-1.13.67.67,0,0,1,.13.46v.31c0,.33-.06.69-.06,1a.25.25,0,0,0,.24.21.21.21,0,0,0,.17-.07,8.09,8.09,0,0,1,4.34-1.95,3.72,3.72,0,0,1,3.31,2,.21.21,0,0,0,.19.11.19.19,0,0,0,.17-.09,8.61,8.61,0,0,1,4.5-2c2.65,0,4.24,2,4.24,5.31v5.86a.87.87,0,0,0,.53.67,6.33,6.33,0,0,0,1.65.41h0a2.34,2.34,0,0,1-.17,1.08h-.72c-.55,0-1.3-.07-2.18-.07-1.77,0-2.69,0-3.57.09a2.62,2.62,0,0,1,0-1.08,8.417,8.417,0,0,0,1.08-.25c.56-.18.72-.44.75-1.18,0-.53.12-5.19-.06-6.3a2.82,2.82,0,0,0-2.93-2.49,5.21,5.21,0,0,0-2.92,1.11.45.45,0,0,0-.1.27h0a12.21,12.21,0,0,1,.13,2.34c0,.6,0,1.24,0,1.87v3.42a.84.84,0,0,0,.68.89l.43.1a9.27,9.27,0,0,0,.91.19,1.85,1.85,0,0,1,0,.81.54.54,0,0,1-.11.27c-1,0-2-.06-3.44-.06h-3.07a1.17,1.17,0,0,1-.1-.56.94.94,0,0,1,.1-.52l.39-.07c.34-.06.63-.11.92-.18.48-.15.66-.41.7-1a49.511,49.511,0,0,0,0-6.56,2.7,2.7,0,0,0-2.79-2.49,5.33,5.33,0,0,0-2.92,1.11.86.86,0,0,0-.27.66v7.43a.9.9,0,0,0,.79.9,6.746,6.746,0,0,1,.67.13l.52.09a2.2,2.2,0,0,1-.09,1.08h-1c-.61,0-1.37-.06-2.23-.06s-1.72,0-2.28.06h-1"/><path class="t" d="M188.5,100.79a2.86,2.86,0,0,0-1.55.43c-1.12.69-1.7,2-1.7,4.06,0,3.76,1.89,6.38,4.58,6.38a2.84,2.84,0,0,0,2-.7c.82-.67,1.26-2,1.26-4,0-3.7-1.84-6.19-4.58-6.19Zm.52,12.26c-4.87,0-6.6-3.57-6.6-6.91a6.17,6.17,0,0,1,2.84-5.42,8.78,8.78,0,0,1,4.38-1.3,6.14,6.14,0,0,1,6.32,5.93,3.619,3.619,0,0,1,0,.57,6.7,6.7,0,0,1-3,5.93,8.4,8.4,0,0,1-3.93,1.2h0"/><path class="t" d="M239,100.79a2.81,2.81,0,0,0-1.55.43c-1.13.69-1.7,2-1.7,4.06,0,3.76,1.88,6.38,4.58,6.38a2.84,2.84,0,0,0,2-.7c.83-.67,1.27-2,1.27-4,0-3.7-1.84-6.19-4.58-6.19Zm.52,12.26c-4.87,0-6.61-3.57-6.61-6.9a6.18,6.18,0,0,1,2.84-5.43,8.81,8.81,0,0,1,4.38-1.3,6.13,6.13,0,0,1,6.33,5.93q0,.285,0,.57a6.7,6.7,0,0,1-3,5.93,8.4,8.4,0,0,1-3.93,1.2h0"/><path class="t" d="M222.65,100.66c-1.5,0-2.47,1.19-2.47,3s.83,4,3.18,4a2.23,2.23,0,0,0,1.5-.58,3.72,3.72,0,0,0,.9-2.63c0-2.39-1.16-3.82-3.11-3.82Zm-.2,12.65a2.5,2.5,0,0,0-1.22.3c-1.18.76-1.74,1.52-1.74,2.4a2.59,2.59,0,0,0,1,2.06,5.1,5.1,0,0,0,3.44,1.05c2.91,0,4.22-1.56,4.22-3.11a2.21,2.21,0,0,0-1.66-2.21,13.16,13.16,0,0,0-4.05-.49Zm.2,7.43a6.36,6.36,0,0,1-4.09-1.2,3.83,3.83,0,0,1-1.51-2.83,2.19,2.19,0,0,1,.57-1.44,15.279,15.279,0,0,1,2.64-2.11.144.144,0,0,0-.01-.27,2.74,2.74,0,0,1-1.87-1.81.25.25,0,0,0,0-.07.41.41,0,0,1,.17-.52,8.733,8.733,0,0,1,.81-.5,12.632,12.632,0,0,0,1.3-.85.21.21,0,0,0,.06-.18.18.18,0,0,0-.11-.15,4.19,4.19,0,0,1-3-4.39,4.34,4.34,0,0,1,1.83-3.6,8.31,8.31,0,0,1,4.11-1.39h.08a8.25,8.25,0,0,1,3.13.7,5.14,5.14,0,0,0,1.86.29,2.49,2.49,0,0,0,2-.75,1.56,1.56,0,0,1,.11.57,2.13,2.13,0,0,1-.36,1.32,1.64,1.64,0,0,1-1.25.54H229a4.52,4.52,0,0,1-.75-.12h-.13v.25a8.28,8.28,0,0,1,.18,1.23,4.57,4.57,0,0,1-1.94,4.14,6.55,6.55,0,0,1-3.34,1.29h-.77c-.22.06-.79.33-.79.83s.26.94,1.49,1h.8a24.74,24.74,0,0,1,4.62.58,3.19,3.19,0,0,1,2.13,3.07c0,2.12-1.5,4.1-4,5.32a8.81,8.81,0,0,1-3.81.86h0"/><path class="t" d="M214.65,111.64a6,6,0,0,1-1.85-.48.88.88,0,0,1-.23-.45c-.06-1-.06-3.88-.06-5.76a6.91,6.91,0,0,0-.91-3.85,3.91,3.91,0,0,0-3.3-1.73,7.75,7.75,0,0,0-4.35,2s-.25.24-.24-.08a9.168,9.168,0,0,1,.08-1.36.68.68,0,0,0-.21-.59,19.75,19.75,0,0,1-4.41,1.15c-.69.14-.86.8-.13,1h0a6.44,6.44,0,0,1,1.68.73.89.89,0,0,1,.26.8c0,2.15,0,5.44-.07,7.24,0,.7-.23,1-.74,1.09h0a9.411,9.411,0,0,1-1.2.22,1.79,1.79,0,0,0,0,1.29c.33,0,2-.1,3.34-.1,1.88,0,2.86.1,3.34.1a1.8,1.8,0,0,0,.13-1.29,6.66,6.66,0,0,1-1.33-.19c-.52-.13-.65-.38-.68-1-.06-1.5-.06-4.71-.06-6.88a1.26,1.26,0,0,1,.35-1.06,4.31,4.31,0,0,1,2.66-1,2.91,2.91,0,0,1,2,.67,2.76,2.76,0,0,1,.91,1.8c.13,1.21.1,3.65.1,5.76,0,1.15-.1,1.44-.52,1.57a5,5,0,0,1-1.33.25,1.79,1.79,0,0,0,0,1.29c.84,0,1.82-.1,3.24-.1,1.79,0,2.92.1,3.37.1a1.75,1.75,0,0,0,.13-1.29"/><path class="ae" d="M413.19,285.66a28.284,28.284,0,1,1-54.94,13.47c-3.9-15.24,6-30.48,21.27-34a28,28,0,0,1,33.67,20.53Z"/><path class="af" d="M382,303.74a7.48,7.48,0,0,0-7.44-7.44h-1.42a7.14,7.14,0,0,0-5-8.78l-.33-.08H358.6a27.63,27.63,0,0,0,6.73,24.1h9.22A7.81,7.81,0,0,0,382,303.74Zm9.22-30.84v1.42H388a7.8,7.8,0,0,0,0,15.6h25.9a27,27,0,0,0-14.53-22h-3.19a4.84,4.84,0,0,0-5,4.73.879.879,0,0,0,.04.25Zm22.68,22.33H398.66a6.35,6.35,0,0,0-6.38,6.33v.05a9.92,9.92,0,0,0,.71,3.19,6.43,6.43,0,0,0-4.26,7.8c.71,2.84,3.19,4.26,6,4.26H399a28.13,28.13,0,0,0,14.9-21.63Z"/><path class="ag" d="M354.35,273.61a.76.76,0,0,1-.71-.71,9.9,9.9,0,0,0-9.88-9.92h0c-.35.35-.71-.35-.71-.71a.77.77,0,0,1,.71-.71,9.91,9.91,0,0,0,9.93-9.89h0c0-.71.35-.71.7-.71s1.07,0,1.07.71a9.91,9.91,0,0,0,9.89,9.92h0a.71.71,0,1,1,0,1.42h0a9.91,9.91,0,0,0-9.92,9.89h0C355.42,273.26,355.06,273.61,354.35,273.61Z"/><path class="ah" d="M415,328.91c-.35,0-.35,0-.35-.36a5.91,5.91,0,0,0-6-5.67c-.35,0-.35,0-.35-.35s0-.36.35-.36a6.14,6.14,0,0,0,6-5.67c0-.35,0-.35.35-.35s.36,0,.36.35a5.9,5.9,0,0,0,6,5.67c.36,0,.36,0,.36.36s0,.35-.36.35a6.14,6.14,0,0,0-6,5.67C415.67,328.91,415.32,328.91,415,328.91Z"/><path d="M427,267.23c-2.84-4.25-9.22-5.31-19.5-2.83a70.465,70.465,0,0,0-9.21,2.83,28.271,28.271,0,0,1,5.31,3.55c1.78-.36,3.55-1.07,5-1.42a32,32,0,0,1,8.15-1.06c3.19,0,5,.71,5.67,1.77,1.06,1.77,0,6-5.67,12.76a32.994,32.994,0,0,1-3.55,3.54,120.112,120.112,0,0,1-21.26,16.3,98.671,98.671,0,0,1-24.1,11c-10.28,3.19-17.37,3.19-18.79.71s1.42-8.86,9.22-16.3a38,38,0,0,1-.71-6.38c-12.06,11-16,20.56-13.12,25.52q3.19,4.26,10.63,4.25a53,53,0,0,0,18.08-3.9,118.348,118.348,0,0,0,21.27-10.63,147.08,147.08,0,0,0,19.14-14.18,59.4,59.4,0,0,0,6.73-6.73C427.37,277.87,429.5,271.49,427,267.23Z"/><path class="ai" d="M136.91,322.39h.88l14.29-7.15.24-.33v-57l-.24-.34-14.29-7.14h-.89v72"/><path class="aj" d="M118.32,322.39h-.89l-14.28-7.15-.29-.5-.15-56.58.44-.63,14.28-7.14h.9v72"/><path class="ak" d="M117.45,250.39h20.32v72H117.45Z"/><path class="al" d="M159.56,284.77l-.48-.11-6.9-.64-.1.05-14.3-.57H117.45l-14.3.57v-10.9h0l14.3-3.31h20.33l14.3,3.31,5.25,2.8v-1.8l2.23-.25-.23-.45-7-5-.21.07-14.3-4.43H117.45l-14.3,4.43v-11l-7.48,8.76V274l.06-.05,2.16.24V276l-2.22,1.19v7.62h2.22V288H95.65v7.62l2.22,1.2v1.85l-2.13.24-.09-.07v7.65l7.48,8.76V304.29l14.3,4.43h20.33l14.34-4.45.19.09,6.94-5,.3-.49-2.22-.25V296.8l-.29-.11-4.75,2.56-.17.36L137.78,303H117.45l-14.3-3.32V288.69l14.3.57h20.33l14.3-.58.32.15,6.68-.58.48-.23h-2.23v-3.2h2.23"/><path class="ak" d="M152.08,304.29v11l7.48-8.77v-7.6l-7.44,5.4h0"/><path class="ak" d="M152.08,299.66h0l7.44-4V288l-7.48.68v11"/><path class="ak" d="M152.12,273.15h0v10.93l7.48.7v-7.64l-7.44-4"/><path class="ak" d="M152.12,268.53l7.44,5.37v-7.6l-7.48-8.77v11h0"/><path d="M341.71,194.47c.42-3.6.3-4.14,3-3.54l.69.06a15.48,15.48,0,0,0,6.35-1.07c3.42-1.59,5.44-4.23,2.08-3.52-7.68,1.58-8.21-1-8.21-1,8.1-12,11.5-27.3,8.56-31-8-10.2-21.8-5.39-22-5.26h-.08a27.481,27.481,0,0,0-5.13-.54,12.64,12.64,0,0,0-8.1,2.43s-24.64-10.15-23.5,12.76c.24,4.87,7,36.9,15,27.23,2.94-3.55,5.78-6.52,5.78-6.52a7.43,7.43,0,0,0,4.87,1.23l.14-.12a4.57,4.57,0,0,0,.06,1.38c-2.08,2.32-1.47,2.71-5.6,3.57s-1.73,2.4-.12,2.81c1.95.49,6.46,1.17,9.51-3.09l-.12.49c.81.66.76,4.67.87,7.56a26.891,26.891,0,0,0,.9,7.14c.58,1.59,1.28,5.65,6.71,4.49,4.54-1,8-2.38,8.34-15.45"/><path d="M331.59,213a7.12,7.12,0,0,1-5.07-1.89,9.68,9.68,0,0,1-2.42-4.25c-.06-.17-.1-.32-.13-.42-.7-1.88-.93-4.57-1.07-8v-2.78a12.3,12.3,0,0,1-8,.47,8,8,0,0,1-2.29-1,5.3,5.3,0,0,1-1.22-1,5.82,5.82,0,0,1-5.77,1.26c-2.18-.74-4.12-2.75-5.94-6.19a55.074,55.074,0,0,1-3.68-9.37,88.814,88.814,0,0,1-3.42-15.88c-.37-7.22,1.59-12.38,5.8-15.36,3.48-2.46,8.23-3.2,14.12-2.24a39.112,39.112,0,0,1,6,1.51,16,16,0,0,1,8.54-2.11,33.557,33.557,0,0,1,4.9.45,28.62,28.62,0,0,1,8.38-1.18c6.73.08,12.3,2.7,16.13,7.59,1.45,1.85,2.69,5.92.37,14.88a66.079,66.079,0,0,1-7,16.58,20.651,20.651,0,0,0,3.42-.44,6.38,6.38,0,0,1,2.22-.12,3.35,3.35,0,0,1,2.78,2.24c1.16,3.5-3.76,6.09-5.29,6.81a18.3,18.3,0,0,1-7.67,1.33h-.58a.851.851,0,0,1-.05.35,2.037,2.037,0,0,0-.06.53c-.17,6.66-1.13,10.89-3.1,13.68-2.08,3-5,3.8-7.5,4.34a9.9,9.9,0,0,1-2.4.21Zm-4.94-24.46c1.64,1.3,1.78,3.68,1.9,8.12v1.55a28.759,28.759,0,0,0,.72,6.26c.08.21.15.41.22.64.6,1.81.84,2.56,3.23,2,2.11-.46,3.19-.85,4-2,1.24-1.77,1.94-5.36,2.06-10.67l2.86.08-2.84-.34a2.091,2.091,0,0,1,.07-.66c.25-2.12.45-3.8,2-4.9a4.22,4.22,0,0,1,3-.68,3.88,3.88,0,0,1-1.08-2l-.24-1.18.67-1a59.52,59.52,0,0,0,8-17.71c1.74-6.73,1-9.58.68-10-6.34-8.11-17.38-4.79-18.6-4.4l-.21.13L332,152l-.55-.11a24.591,24.591,0,0,0-4.6-.47,9.85,9.85,0,0,0-6.34,1.84l-1.3,1-1.5-.63c-3-1.21-11.63-3.63-16.17-.43-2.5,1.77-3.65,5.27-3.39,10.41a85.912,85.912,0,0,0,3.28,14.86c2.74,8.81,5.15,11.25,5.84,11.45a2.71,2.71,0,0,0,.87-.78c3-3.57,5.78-6.55,5.9-6.67l1.65-1.74,2,1.32a4.77,4.77,0,0,0,2.22.8l4.73-4.05-.69,7a3.651,3.651,0,0,0,0,.66l.22,1.32-.9,1h0l2.21,1Z"/><path class="am" d="M353.8,186.38c-7.68,1.59-8.21-1-8.21-1,8.1-12,11.5-27.3,8.58-31-8-10.18-21.8-5.37-22-5.24h-.08a26.818,26.818,0,0,0-5.13-.53,12.67,12.67,0,0,0-8.11,2.42s-24.64-10.15-23.49,12.77c.24,4.87,7,36.9,15,27.22,2.94-3.55,5.78-6.52,5.78-6.52a7.43,7.43,0,0,0,4.87,1.23l.14-.12a4.569,4.569,0,0,0,.06,1.38c-2.08,2.32-1.47,2.71-5.6,3.57s-1.73,2.4-.12,2.81c1.95.49,6.46,1.17,9.51-3.09l-.12.49c.81.66,1.39,4.23,1.28,7.48s-.15,5.48.47,7.22,1.28,5.65,6.72,4.49c4.55-1,6.91-3.5,7.23-7.72.23-3,.77-2.55.8-5.24l.43-1.27c.48-4.06.07-5.37,2.88-4.76l.69.06a15.48,15.48,0,0,0,6.35-1.07c3.4-1.59,5.42-4.23,2.06-3.54Z"/><path class="t" d="M331.86,211.2c-4.58,0-6-3.63-6.63-5.11-.87-2.18-1.05-10.3-.85-17.4a1,1,0,1,1,1.91.05c-.22,7.9.09,15,.72,16.64,1,2.46,2.47,4.61,6.68,3.71s5.51-2.34,6.19-6.26c.51-3,1.54-11.54,1.66-13.24a1,1,0,0,1,1.9.1v.06c-.13,1.75-1.16,10.29-1.69,13.41-.81,4.66-2.89,6.78-7.67,7.8a10.25,10.25,0,0,1-2.22.24Z"/><path class="t" d="M307.25,193.65a3.67,3.67,0,0,1-1.19-.2c-3-1-5.8-5.82-8.4-14.32a86.5,86.5,0,0,1-3.33-15.42c-.32-6.52,1.36-11.15,5-13.73,3.05-2.16,7.33-2.82,12.71-1.95a35.369,35.369,0,0,1,7.09,1.91.95.95,0,1,1-.72,1.75h0c-.12,0-11.65-4.67-18-.16-3.08,2.18-4.49,6.24-4.2,12.07a84.912,84.912,0,0,0,3.25,15c2.31,7.56,4.92,12.32,7.18,13.07.35.12,1.4.47,2.91-1.36,2.93-3.53,5.62-6.33,5.65-6.36a1,1,0,1,1,1.38,1.31s-2.68,2.79-5.56,6.26A4.93,4.93,0,0,1,307.25,193.65Z"/><path class="t" d="M345.54,186.23a.968.968,0,0,1-.8-1.5h0c8.19-12.14,11.07-26.79,8.61-29.92-3.08-3.94-7.45-6-12.94-6.12a24.221,24.221,0,0,0-7.88,1.13.839.839,0,0,0-.14.06,1,1,0,0,1-.81-1.71,24.13,24.13,0,0,1,8.58-1.39c6.16.06,11.23,2.44,14.69,6.85.86,1.1,1.27,2.89,1.24,5.35a34.571,34.571,0,0,1-1.22,7.89,64.68,64.68,0,0,1-8.55,18.93.93.93,0,0,1-.78.43Z"/><path class="t" d="M346,191.85a7.19,7.19,0,0,1-3.45-.66,1.89,1.89,0,0,1-1-1.48c-.21-3.65,1.74-4.37,2.83-4.69-.14-.2-.32-.42-.5-.65a12.811,12.811,0,0,1-2.09-3.38c-.1-.24-.42-.79-.78-1.45-2-3.55-6.11-10.94-3.44-14.75,1.22-1.75,3.64-2.45,7.19-2.09a20.94,20.94,0,0,0-3.81-6.58,18.38,18.38,0,0,0-14.05-6.7,11.51,11.51,0,0,0-8.67,3.24c-4.92,5-4.75,14-4.75,14.06a.966.966,0,0,1-1.93.07h0c0-.4-.2-9.91,5.29-15.45a13.27,13.27,0,0,1,10.06-3.82,20.21,20.21,0,0,1,15.34,7.25c3,3.53,4.52,7.44,4.64,8.73a1.09,1.09,0,0,1-.79,1.27h-.34c-4.33-.7-6,.23-6.64,1.13-2,2.82,1.89,9.77,3.54,12.73a16,16,0,0,1,.87,1.65,11.24,11.24,0,0,0,1.82,2.9,4.82,4.82,0,0,1,1.1,1.83c.08.14,1.14,1.57,7.1.34q2.36-.49,2.79.84c.57,1.71-2.55,3.67-4.27,4.48a15.56,15.56,0,0,1-6.06,1.18Zm-2.52-2.32a6.17,6.17,0,0,0,3.15.41,13.64,13.64,0,0,0,4.68-1,10,10,0,0,0,2.7-1.75h0c-3.91.81-6.68.7-8.23-.33a1.79,1.79,0,0,1-.26-.2l-.4.12c-.87.26-1.7.49-1.6,2.72Z"/><path class="t" d="M318.23,194.55a12.93,12.93,0,0,1-3-.4c-.3-.08-2.95-.8-2.92-2.47s2.25-2,3.09-2.19c2.93-.6,3.11-.84,4-2,.27-.33.61-.76,1.07-1.28a2.79,2.79,0,0,1,3.57-.85,3.82,3.82,0,0,1,2.09,2.5,3.21,3.21,0,0,1-.4,2.82A8.85,8.85,0,0,1,318.23,194.55Zm-3.83-2.78a4.55,4.55,0,0,0,1.26.55c2.54.64,6.08.69,8.5-2.72a1.42,1.42,0,0,0,.13-1.19,2.14,2.14,0,0,0-1-1.28c-.52-.21-.79-.34-1.42.37h0c-.41.47-.71.85-1,1.19-1.16,1.48-1.69,2-5.14,2.68a5.741,5.741,0,0,0-1.34.4Z"/><path class="t" d="M321,187.77a1,1,0,0,1-.95-.81v-.38a8.69,8.69,0,0,1-6-2.73,9.93,9.93,0,0,1-2.61-8.29,40.289,40.289,0,0,0,.2-7.84v-1c0-.24,0-1.06,2.52-2.34a14.21,14.21,0,0,1,4.58-1.43c3.22-.34,5.36,1.1,6,4,1.69,7.86.13,11.36-1,13.89-.22.48-.41.92-.57,1.35l-.13.38a9.62,9.62,0,0,0-1,4,1,1,0,0,1-.79,1.09h0A.32.32,0,0,1,321,187.77ZM313.46,167v.6a41.081,41.081,0,0,1-.22,8.22,8,8,0,0,0,2.11,6.71,6.73,6.73,0,0,0,4.85,2.16,20.711,20.711,0,0,1,.9-2.69l.14-.38a15.842,15.842,0,0,1,.63-1.47c1.1-2.43,2.45-5.45.88-12.72a2.88,2.88,0,0,0-2.23-2.48c-2.62-.62-6.3,1.35-7.1,2.05Z"/><path class="t" d="M318.7,166.61c-.05.3.57,1.14,1.37,1.25a1.48,1.48,0,0,0,1.53-.85c0-.31-.56-.66-1.37-.77S318.75,166.3,318.7,166.61Z"/><path class="t" d="M320.24,168.2a.75.75,0,0,1-.21,0,2.12,2.12,0,0,1-1.36-.84,1.23,1.23,0,0,1-.29-.76.64.64,0,0,1,.24-.4,2.34,2.34,0,0,1,1.64-.23c.85.12,1.72.52,1.63,1.13a1.73,1.73,0,0,1-1.65,1.1ZM319,166.67a1.53,1.53,0,0,0,1.1.89,1.25,1.25,0,0,0,1.16-.57,1.86,1.86,0,0,0-1.1-.43,2,2,0,0,0-1.16.11Z"/><path class="t" d="M343,166a1.7,1.7,0,0,1-1.38,1.25,1.49,1.49,0,0,1-1.53-.85c0-.31.57-.66,1.38-.77S343,165.66,343,166Z"/><path class="t" d="M341.49,167.4a1.61,1.61,0,0,1-1.51-1c-.06-.47.7-.84,1.51-.95s1.64,0,1.71.5h0a1.21,1.21,0,0,1-.41.84,1.91,1.91,0,0,1-1.1.6Zm.52-1.66h-.47c-.84.12-1.25.44-1.24.58a1.36,1.36,0,0,0,1.34.72,1.67,1.67,0,0,0,.92-.5,1,1,0,0,0,.32-.57c-.01-.08-.32-.23-.88-.23Z"/><path class="t" d="M344.2,183.91a.94.94,0,0,1-.54-.17,1,1,0,0,1-.26-1.31h0c1.86-2.78,1.51-5.62,1.19-8.37a23.706,23.706,0,0,1-.24-3.57,27.746,27.746,0,0,1,.34-3.16,16.871,16.871,0,0,0,.27-3.47,1,1,0,0,1,1.91-.11,18.589,18.589,0,0,1-.29,3.87,22.058,22.058,0,0,0-.32,2.93,20,20,0,0,0,.24,3.28c.35,2.95.75,6.29-1.5,9.65A1,1,0,0,1,344.2,183.91Z"/><rect class="t" width="1.31" height="1.39" transform="translate(133.28 183.41)"/><rect class="t" width="1.26" height="1.35" transform="translate(133.5 185.9)"/><rect class="t" width="1.44" height="1.52" transform="translate(137.81 186.51)"/><rect class="t" width="0.96" height="1.05" transform="translate(123.43 184.11)"/><rect class="t" width="1.05" height="1.13" transform="translate(126.52 184.07)"/><path class="t" d="M138.68,183.24h-1.57V184h-1.17v1.48h1.39v-.52h1.35Z"/><rect class="t" width="0.78" height="0.87" transform="translate(121.99 181.67)"/><rect class="t" width="1.31" height="1.39" transform="translate(139.69 188.99)"/><rect class="t" width="1.13" height="1.22" transform="translate(135.55 188.21)"/><rect class="t" width="1.09" height="1.13" transform="translate(131.14 182.76)"/><rect class="t" width="1.22" height="1.31" transform="translate(130.1 184.81)"/><rect class="t" width="0.78" height="0.87" transform="translate(141.12 187.07)"/><rect class="t" width="0.74" height="0.83" transform="translate(127.61 186.16)"/><path class="t" d="M135.89,182.32v-.78h-.65v-.79h-.92v1h.79v.57Z"/><rect class="t" width="0.74" height="0.83" transform="translate(128.79 182.59)"/><rect class="t" width="0.74" height="0.83" transform="translate(118.11 180.32)"/><rect class="t" width="0.74" height="0.83" transform="translate(131.67 187.68)"/><rect class="t" width="0.87" height="0.92" transform="translate(125.74 180.71)"/><rect class="t" width="0.74" height="0.83" transform="translate(130.53 180.19)"/><path class="t" d="M133.67,179.23a20.889,20.889,0,0,1,4.14,2.7h1v.48h1.05V184h1.26v.78h-1.44v1.62h1.53v-1.09h.39v.56h.87v1.7h.66v1.57h-.44v.53h-.35a35.547,35.547,0,0,1,1.27,6C144.35,194.31,147.92,180.41,133.67,179.23Z"/><path class="t" d="M131.32,191H127l-4.66,9.2H121v3.22l-.44,1.22-4.62-5.58a6.54,6.54,0,0,0,3-1.57,3.17,3.17,0,0,0,.66-3.88,4.27,4.27,0,0,0-1.18-1.39,6.09,6.09,0,0,0-1.92-1,7.73,7.73,0,0,0-2.61-.43H103.3v5.44h-1v3.23h1v5.8h4.35V199.5h3.62l4.66,5.8h8.59l1.08-1.78h7.15l.66,1.78H138Zm-16.26,4.62a5.445,5.445,0,0,1-.48.48,2,2,0,0,1-.7.3,2.28,2.28,0,0,1-.78.13h-5.45V193.7h5.4a2.28,2.28,0,0,1,.78.13,3.36,3.36,0,0,1,.7.3,2.51,2.51,0,0,1,.48.44.82.82,0,0,1,.18.52.88.88,0,0,1-.13.57ZM127,200.23l2.18-4.57,2.18,4.57Z"/><path class="t" d="M187.14,205.25H183l-9.37-9v9h-4.18V191h4.18l9.37,9v-5.84h-1.05V191h5.23Z"/><path class="t" d="M189.1,194.22h-1V191h8.5a9.59,9.59,0,0,1,3.4.56,8.31,8.31,0,0,1,2.66,1.53,7.24,7.24,0,0,1,1.74,2.26,6,6,0,0,1,.61,2.75,5.69,5.69,0,0,1-.7,2.79,7.16,7.16,0,0,1-1.87,2.26,9,9,0,0,1-2.79,1.53,11.171,11.171,0,0,1-3.44.57h-7.1Zm3.88,8.24h3.27a6.48,6.48,0,0,0,2-.31,5.47,5.47,0,0,0,1.7-.91,5.24,5.24,0,0,0,1.18-1.35,3.37,3.37,0,0,0,.43-1.75,2.69,2.69,0,0,0-.43-1.48A5.439,5.439,0,0,0,200,195.4a6.36,6.36,0,0,0-1.7-1,8.09,8.09,0,0,0-2-.53H193v8.55Z"/><path class="t" d="M221.13,197.75a3.631,3.631,0,0,1,.79.39,2.909,2.909,0,0,1,.7.7,4,4,0,0,1,.48,1,4.21,4.21,0,0,1-.26,2.92,4.06,4.06,0,0,1-1.18,1.26,5.94,5.94,0,0,1-1.83.83,7.59,7.59,0,0,1-2.27.31H206.93v-5.67h-1.05v-3.18h1.05V191h10.24a10.09,10.09,0,0,1,2.74.34,7.631,7.631,0,0,1,1.88.92,2.94,2.94,0,0,1,.91,1.18,4,4,0,0,1,.09,2.57,5.5,5.5,0,0,1-.44.83,3.25,3.25,0,0,1-.61.56C221.48,197.53,221.31,197.66,221.13,197.75Zm-4.22,4.58a3.9,3.9,0,0,0,1-.13,3.259,3.259,0,0,0,.78-.31,2.43,2.43,0,0,0,.52-.44.82.82,0,0,0,.18-.52,1.15,1.15,0,0,0-.7-1,3.57,3.57,0,0,0-1.75-.43h-5.75v2.83Zm-5.75-5.71h5.4a2.1,2.1,0,0,0,.74-.13,3.641,3.641,0,0,0,.7-.31,1.81,1.81,0,0,0,.52-.43.78.78,0,0,0,.17-.53.66.66,0,0,0-.17-.48,1.66,1.66,0,0,0-.52-.43,3.64,3.64,0,0,0-.7-.31,2.679,2.679,0,0,0-.74-.13h-5.4Z"/><path class="t" d="M167.88,193.87V191h-13a10.28,10.28,0,0,0-3.05,2.17v3.14h-1v3.19h1v5.75h16v-2.84H156.11v-2.87H165v-3.18h-8.89v-2.44Z"/><path class="t" d="M142.39,199.49l-4.67-8.67h-4.35L141,205.25h2.92s4.1-7.59,5.4-10.07A17,17,0,0,1,142.39,199.49Z"/><path class="t" d="M154.76,185.72a2.42,2.42,0,0,0,2,.44C155.59,185.2,154,185,154.76,185.72Z"/><path class="t" d="M127,191l-3.83,7.58h4.62l1.39-2.92,1.4,2.92h4.31L131.32,191Z"/><path class="t" d="M118.9,197.53a3.29,3.29,0,0,0,1-2.44,3.2,3.2,0,0,0-.39-1.44,4.38,4.38,0,0,0-1.18-1.39,6.37,6.37,0,0,0-1.91-1,8,8,0,0,0-2.62-.43H103.3v5.44h-1v2.4h15.08A5.67,5.67,0,0,0,118.9,197.53Zm-3.84-1.87a5.445,5.445,0,0,1-.48.48,2,2,0,0,1-.7.3,2.28,2.28,0,0,1-.78.13h-5.45V193.7h5.4a2.28,2.28,0,0,1,.78.13,3.36,3.36,0,0,1,.7.3,2.51,2.51,0,0,1,.48.44.82.82,0,0,1,.18.52.88.88,0,0,1-.13.57Z"/><path class="t" d="M173.59,191h-4.18v7.58h4.18v-2.4l2.48,2.4h5.4Z"/><path class="t" d="M204.4,195.4a7.5,7.5,0,0,0-4.4-3.79,9.38,9.38,0,0,0-3.4-.57h-8.5v3.22h1v4.4h3.84v-4.79h3.26a8.091,8.091,0,0,1,2,.53,6.29,6.29,0,0,1,1.7.95,5.47,5.47,0,0,1,1.18,1.27,2.67,2.67,0,0,1,.44,1.48,1.57,1.57,0,0,1-.05.48H205v-.48a6.15,6.15,0,0,0-.6-2.7Z"/><path class="t" d="M221.92,198.1a2.91,2.91,0,0,0-.79-.39c.18-.09.4-.22.61-.35a2.55,2.55,0,0,0,.61-.57,2,2,0,0,0,.44-.83,3.46,3.46,0,0,0-.09-2.57,2.91,2.91,0,0,0-.91-1.17,5.1,5.1,0,0,0-1.83-.92,8.52,8.52,0,0,0-2.75-.35H207v5.36h-1v2.31h16.56a7,7,0,0,0-.64-.52Zm-3.4-2.35a2,2,0,0,1-.52.43,2.09,2.09,0,0,1-.7.31,2.68,2.68,0,0,1-.75.13h-5.4v-2.75h5.4a2.11,2.11,0,0,1,.75.13,3.929,3.929,0,0,1,.7.31,2,2,0,0,1,.52.43.78.78,0,0,1,.17.48.84.84,0,0,1-.17.53Z"/><path class="t" d="M156.11,196.31v-2.44h11.77V191h-13a10.28,10.28,0,0,0-3.05,2.17v3.14h-1v2.31H165v-2.31Z"/><path class="an" d="M144.57,198.62h2.87c.74-1.39,1.44-2.66,1.83-3.44A17.84,17.84,0,0,1,144.57,198.62Z"/><path class="t" d="M137.72,190.82h-4.35l4.1,7.8h4.44Z"/><path class="t" d="M181.91,194.22H183v4.4h4.18V191h-5.23Z"/><path class="t" d="M158,185.68a7,7,0,0,0-4.1-2.31,12.33,12.33,0,0,0-4.8.26c-3.35-4.4-10.76-4.53-10.76-4.53a11,11,0,0,1,5.36,3.4l.88-.05-.53.48a5.822,5.822,0,0,1,.44.66l1.44-.26-1,1.09c2.48,8.45-1.83,13.64-1.83,13.64,3.53-1.22,8.23-6.5,12-8.42s7,0,6.76-.74C161.34,187.47,158,185.68,158,185.68Zm-2.14.52a1.66,1.66,0,0,1-1.13-.48c-.35-.35-.22-.48.09-.43a3.11,3.11,0,0,1,1.83.87,2.34,2.34,0,0,1-.79,0Z"/></g></svg>