<svg xmlns="http://www.w3.org/2000/svg" xmlns:xlink="http://www.w3.org/1999/xlink" width="501.01" height="501" viewBox="0 0 501.01 501"><defs><style>.a{fill:none;}.b{fill:#231f20;stroke:#231f20;stroke-miterlimit:10;opacity:0;}.c{fill:url(#a);}.d{fill:url(#b);}.e{fill:url(#c);}.f{fill:url(#d);}.g{fill:url(#e);}.h{opacity:0.5;fill:url(#f);}.i{fill:url(#g);}.j{fill:url(#h);}.k{fill:url(#i);}.l{fill:url(#j);}.m{fill:url(#k);}.n{fill:url(#l);}.o{fill:url(#m);}.p{fill:url(#n);}.q{fill:url(#o);}.r{fill:#68217a;}.s,.u{fill:#fff;}.t{fill:#40ccf4;}.u,.v{fill-rule:evenodd;}.v{fill:#83cd29;}.w{fill:url(#p);}.x{fill:url(#q);}.y{fill:#c00;}.z{clip-path:url(#r);}.aa{fill:url(#s);}.ab{clip-path:url(#t);}.ac{fill:#777bb3;}.ad{fill:#5c8dbc;}.ae{fill:#1a4674;}.af{fill:#1b598e;}.ag{fill:#ff9317;}.ah{fill:#c47112;}.ai{fill:#ffaf54;}.aj{fill:#a90533;}.ak{fill:#e76f00;}.al{fill:#5382a1;}</style><radialGradient id="a" cx="252.165" cy="161.749" r="383.75" gradientTransform="translate(88.933 97.476) scale(0.647 0.397)" gradientUnits="userSpaceOnUse"><stop offset="0" stop-color="#fff" stop-opacity="0.502"/><stop offset="0.27" stop-color="#c9c8c9" stop-opacity="0.38"/><stop offset="0.87" stop-color="#413e3f" stop-opacity="0.071"/><stop offset="1" stop-color="#231f20" stop-opacity="0"/></radialGradient><linearGradient id="b" x1="0.5" y1="0.989" x2="0.5" y2="0.025" gradientUnits="objectBoundingBox"><stop offset="0" stop-color="#fff" stop-opacity="0.502"/><stop offset="0.11" stop-color="#d0cfcf" stop-opacity="0.388"/><stop offset="0.29" stop-color="#929090" stop-opacity="0.251"/><stop offset="0.47" stop-color="#615e5f" stop-opacity="0.141"/><stop offset="0.65" stop-color="#3f3b3c" stop-opacity="0.059"/><stop offset="0.82" stop-color="#2a2627" stop-opacity="0.02"/><stop offset="1" stop-color="#231f20" stop-opacity="0"/></linearGradient><linearGradient id="c" x1="0.434" y1="0.188" x2="0.562" y2="0.308" gradientUnits="objectBoundingBox"><stop offset="0" stop-color="#fff" stop-opacity="0.302"/><stop offset="0.12" stop-color="#fff" stop-opacity="0.22"/><stop offset="0.32" stop-color="#fff" stop-opacity="0.129"/><stop offset="0.53" stop-color="#fff" stop-opacity="0.059"/><stop offset="0.75" stop-color="#fff" stop-opacity="0.012"/><stop offset="1" stop-color="#fff" stop-opacity="0"/></linearGradient><linearGradient id="d" x1="0.588" y1="0.826" x2="0.411" y2="0.673" gradientUnits="objectBoundingBox"><stop offset="0" stop-color="#fff" stop-opacity="0.302"/><stop offset="0.02" stop-color="#fff" stop-opacity="0.278"/><stop offset="0.15" stop-color="#fff" stop-opacity="0.18"/><stop offset="0.3" stop-color="#fff" stop-opacity="0.102"/><stop offset="0.47" stop-color="#fff" stop-opacity="0.039"/><stop offset="0.67" stop-color="#fff" stop-opacity="0.012"/><stop offset="1" stop-color="#fff" stop-opacity="0"/></linearGradient><linearGradient id="e" x1="0.008" y1="0.5" x2="0.982" y2="0.5" gradientUnits="objectBoundingBox"><stop offset="0" stop-color="#fff" stop-opacity="0.898"/><stop offset="0.03" stop-color="#fff" stop-opacity="0.769"/><stop offset="0.11" stop-color="#fff" stop-opacity="0.49"/><stop offset="0.18" stop-color="#fff" stop-opacity="0.278"/><stop offset="0.23" stop-color="#fff" stop-opacity="0.149"/><stop offset="0.25" stop-color="#fff" stop-opacity="0.102"/><stop offset="0.33" stop-color="#fff" stop-opacity="0.369"/><stop offset="0.51" stop-color="#fff"/><stop offset="0.68" stop-color="#fff" stop-opacity="0.471"/><stop offset="0.8" stop-color="#fff" stop-opacity="0.102"/><stop offset="0.82" stop-color="#fff" stop-opacity="0.129"/><stop offset="0.85" stop-color="#fff" stop-opacity="0.2"/><stop offset="0.89" stop-color="#fff" stop-opacity="0.322"/><stop offset="0.92" stop-color="#fff" stop-opacity="0.49"/><stop offset="0.96" stop-color="#fff" stop-opacity="0.698"/><stop offset="1" stop-color="#fff" stop-opacity="0.898"/></linearGradient><linearGradient id="f" x1="0.008" y1="1.717" x2="0.982" y2="1.717" gradientUnits="objectBoundingBox"><stop offset="0" stop-color="#fff" stop-opacity="0.502"/><stop offset="0.03" stop-color="#fff" stop-opacity="0.431"/><stop offset="0.13" stop-color="#fff" stop-opacity="0.231"/><stop offset="0.21" stop-color="#fff" stop-opacity="0.102"/><stop offset="0.25" stop-color="#fff" stop-opacity="0.051"/><stop offset="0.51" stop-color="#fff" stop-opacity="0.251"/><stop offset="0.81" stop-color="#fff" stop-opacity="0.051"/><stop offset="0.83" stop-color="#fff" stop-opacity="0.078"/><stop offset="0.85" stop-color="#fff" stop-opacity="0.149"/><stop offset="0.89" stop-color="#fff" stop-opacity="0.271"/><stop offset="0.92" stop-color="#fff" stop-opacity="0.439"/><stop offset="0.96" stop-color="#fff" stop-opacity="0.651"/><stop offset="1" stop-color="#fff" stop-opacity="0.898"/></linearGradient><linearGradient id="g" x1="1.173" y1="0.623" x2="0.831" y2="0.379" gradientUnits="objectBoundingBox"><stop offset="0" stop-color="#fff" stop-opacity="0.251"/><stop offset="0.01" stop-color="#fff" stop-opacity="0.251"/><stop offset="0.25" stop-color="#fff" stop-opacity="0.141"/><stop offset="0.5" stop-color="#fff" stop-opacity="0.059"/><stop offset="0.75" stop-color="#fff" stop-opacity="0.02"/><stop offset="1" stop-color="#fff" stop-opacity="0"/></linearGradient><linearGradient id="h" x1="-0.179" y1="0.629" x2="0.156" y2="0.388" gradientUnits="objectBoundingBox"><stop offset="0" stop-color="#fff" stop-opacity="0.251"/><stop offset="0.24" stop-color="#fff" stop-opacity="0.149"/><stop offset="0.5" stop-color="#fff" stop-opacity="0.071"/><stop offset="0.75" stop-color="#fff" stop-opacity="0.02"/><stop offset="1" stop-color="#fff" stop-opacity="0"/></linearGradient><linearGradient id="i" x1="0.596" y1="0.082" x2="0.535" y2="0.346" gradientUnits="objectBoundingBox"><stop offset="0" stop-color="#fff" stop-opacity="0.2"/><stop offset="0.16" stop-color="#fff" stop-opacity="0.141"/><stop offset="0.44" stop-color="#fff" stop-opacity="0.059"/><stop offset="0.72" stop-color="#fff" stop-opacity="0.02"/><stop offset="1" stop-color="#fff" stop-opacity="0"/></linearGradient><radialGradient id="j" cx="33.18" cy="7.556" r="164.366" gradientTransform="translate(26.69 7.29) scale(0.196 0.035)" gradientUnits="userSpaceOnUse"><stop offset="0" stop-color="#231f20" stop-opacity="0.502"/><stop offset="1" stop-color="#231f20" stop-opacity="0"/></radialGradient><radialGradient id="k" cx="33.18" cy="7.863" r="164.366" gradientTransform="translate(26.69 7.586) scale(0.196 0.035)" xlink:href="#j"/><radialGradient id="l" cx="33.18" cy="7.542" r="164.366" gradientTransform="translate(26.69 7.277) scale(0.196 0.035)" xlink:href="#j"/><radialGradient id="m" cx="33.18" cy="7.104" r="164.366" gradientTransform="translate(26.69 6.854) scale(0.196 0.035)" xlink:href="#j"/><radialGradient id="n" cx="33.18" cy="7.089" r="164.366" gradientTransform="translate(26.69 6.839) scale(0.196 0.035)" xlink:href="#j"/><radialGradient id="o" cx="33.18" cy="7.361" r="164.366" gradientTransform="translate(26.69 7.101) scale(0.196 0.035)" xlink:href="#j"/><linearGradient id="p" x1="-48.381" y1="10.132" x2="-48.372" y2="10.124" gradientUnits="objectBoundingBox"><stop offset="0" stop-color="#5a9fd4"/><stop offset="1" stop-color="#306998"/></linearGradient><linearGradient id="q" x1="-48.565" y1="9.671" x2="-48.568" y2="9.676" gradientUnits="objectBoundingBox"><stop offset="0" stop-color="#ffd43b"/><stop offset="1" stop-color="#ffe873"/></linearGradient><clipPath id="r"><path class="a" d="M207.6,265.13c0,13.11,20.2,23.73,45.12,23.73h0c24.92,0,45.12-10.62,45.12-23.73h0c0-13.11-20.2-23.74-45.12-23.74h0c-24.92,0-45.12,10.63-45.12,23.74"/></clipPath><radialGradient id="s" cx="223.17" cy="1398.009" r="113.477" gradientTransform="matrix(0.526, 0, 0, -0.526, 6.005, 1684.543)" gradientUnits="userSpaceOnUse"><stop offset="0" stop-color="#aeb2d5"/><stop offset="0.3" stop-color="#aeb2d5"/><stop offset="0.75" stop-color="#484c89"/><stop offset="1" stop-color="#484c89"/></radialGradient><clipPath id="t"><rect class="a" width="94" height="52.87" transform="translate(205.72 238.69)"/></clipPath></defs><g transform="translate(0.51 0.5)"><rect class="b" width="500" height="500"/><rect class="c" width="500.2" height="323.79" transform="translate(-0.51 175.05)"/><path class="d" d="M249.59,449.56l241.83-145.1L249.59,159.37,7.76,304.46Z"/><path class="e" d="M249.59,159.37,7.76,304.46l241.83,145.1Z"/><path class="f" d="M249.59,159.37,491.42,304.46,249.59,449.56Z"/><path class="g" d="M249.59,452.68l241.83-145.1v-3.12L249.59,449.56,7.76,304.46v3.12Z"/><path class="h" d="M249.59,159.35l241.83,145.1v3.11L249.59,162.47,7.76,307.56v-3.11Z"/><path class="i" d="M491.42,304.46v-200H249.59v54.91Z"/><path class="j" d="M7.76,304.46v-200H249.59v54.91Z"/><path class="k" d="M249.59,449.56,491.42,304.47,249.59,159.37,7.76,304.47Z"/><ellipse class="l" cx="33.18" cy="6.49" rx="33.18" ry="6.49" transform="translate(337.32 341.07)"/><ellipse class="m" cx="33.18" cy="6.49" rx="33.18" ry="6.49" transform="translate(219.54 415.46)"/><ellipse class="n" cx="33.18" cy="6.49" rx="33.18" ry="6.49" transform="translate(100.04 335.68)"/><ellipse class="o" cx="33.18" cy="6.49" rx="33.18" ry="6.49" transform="translate(144.2 230.45)"/><ellipse class="p" cx="33.18" cy="6.49" rx="33.18" ry="6.49" transform="translate(282.64 226.8)"/><ellipse class="q" cx="33.18" cy="6.49" rx="33.18" ry="6.49" transform="translate(219.54 292.9)"/><rect class="r" width="84.38" height="84.38" transform="translate(210.94 318.94)"/><path class="s" d="M244.47,344.5a.5.5,0,0,1-.32-.85.46.46,0,0,1,.34-.14.41.41,0,0,1,.19,0,.5.5,0,0,1,.3.45.41.41,0,0,1,0,.19.44.44,0,0,1-.1.16.5.5,0,0,1-.41.19Z"/><path class="s" d="M251.72,344.4l-4.05-5.84a1.818,1.818,0,0,1-.15-.23.94.94,0,0,1-.12-.22h0a2.109,2.109,0,0,0,0,.25,2.67,2.67,0,0,1,0,.4v5.64h-.67v-7.27h.74l4,5.76.16.26.14.22h0v-6.24h.68v7.27Z"/><path class="s" d="M254.46,344.4v-7.27H258v.62h-2.87v2.67h2.66v.6h-2.66v2.77h3v.61Z"/><path class="s" d="M261.84,337.75v6.65h-.68v-6.65h-2.08v-.62H264v.62Z"/><path class="s" d="M263.64,361a2.87,2.87,0,0,0-1.75-.5,3,3,0,0,0-1.35.3,3.3,3.3,0,0,0-1,.79,4.38,4.38,0,0,0-.75,1.15,7.683,7.683,0,0,0-.5,1.36,8.791,8.791,0,0,0-.27,1.43,13.718,13.718,0,0,0-.09,1.38v7.54H256V359h1.91v3.29H258a7.591,7.591,0,0,1,.68-1.51,4.72,4.72,0,0,1,1-1.13,4,4,0,0,1,1.19-.7,3.879,3.879,0,0,1,1.35-.24,5.928,5.928,0,0,1,.84.06,3.786,3.786,0,0,1,.66.18Z"/><path class="s" d="M267.27,367.09a8.461,8.461,0,0,0,.37,2.55,5.39,5.39,0,0,0,1,1.91,4.34,4.34,0,0,0,1.65,1.19,5.479,5.479,0,0,0,2.19.42,7.94,7.94,0,0,0,4.93-1.82v1.89a8.92,8.92,0,0,1-5.36,1.58,7,7,0,0,1-2.82-.54,5.87,5.87,0,0,1-2.15-1.57,7.2,7.2,0,0,1-1.37-2.54,11.07,11.07,0,0,1-.48-3.43,9.47,9.47,0,0,1,.52-3.21,8.119,8.119,0,0,1,1.47-2.55,6.65,6.65,0,0,1,2.21-1.69,6.47,6.47,0,0,1,2.8-.6,6.3,6.3,0,0,1,2.64.53,5,5,0,0,1,1.92,1.49A6.65,6.65,0,0,1,278,363a11.259,11.259,0,0,1,.41,3.11v1Zm9.16-1.68a5.91,5.91,0,0,0-1.15-3.74,3.77,3.77,0,0,0-3.06-1.32,4.66,4.66,0,0,0-1.81.34,4.27,4.27,0,0,0-1.47,1,5.48,5.48,0,0,0-1.05,1.6,7.518,7.518,0,0,0-.59,2.12Z"/><path class="s" d="M234.12,376.9a14.46,14.46,0,0,1-4.21-10.57,14.08,14.08,0,0,1,4.21-10.51,14.59,14.59,0,0,1,20.61,0l1.23-1.27a16.43,16.43,0,0,0-23.19,0A16.92,16.92,0,0,0,228,366.33a16.38,16.38,0,0,0,28,11.85l-1.23-1.26a14.59,14.59,0,0,1-20.63,0Z"/><path class="t" d="M244.18,372.22a5.641,5.641,0,0,1-2.19-.41,4.681,4.681,0,0,1-1.66-1.15,5.22,5.22,0,0,1-1.05-1.79,6.921,6.921,0,0,1-.36-2.3,7.33,7.33,0,0,1,.39-2.46,5.27,5.27,0,0,1,1.1-1.83,4.8,4.8,0,0,1,1.72-1.16,6.22,6.22,0,0,1,2.26-.39,5.42,5.42,0,0,1,2.14.39,4.17,4.17,0,0,1,1.62,1.13,5.209,5.209,0,0,1,1,1.8,7.9,7.9,0,0,1,.35,2.41,7.12,7.12,0,0,1-.37,2.34,5.32,5.32,0,0,1-1.06,1.83,4.68,4.68,0,0,1-1.68,1.19,5.7,5.7,0,0,1-2.24.4Z"/><path class="u" d="M104.31,59.67a.53.53,0,0,0-.52.52h0V73.42a.35.35,0,0,1-.53.31l-2.16-1.25a1.07,1.07,0,0,0-1,0l-8.63,5a1.07,1.07,0,0,0-.52.91v10a1,1,0,0,0,.52.9l8.63,5a1,1,0,0,0,1,0l8.63-5a1,1,0,0,0,.52-.9V63.51a1.09,1.09,0,0,0-.54-.92l-5.14-2.87a.47.47,0,0,0-.26-.05ZM48.8,72.1a1,1,0,0,0-.46.12l-8.63,5a1,1,0,0,0-.52.9V91.47a.51.51,0,0,0,.26.45.49.49,0,0,0,.52,0L45.1,89a1,1,0,0,0,.54-.9V81.84a1,1,0,0,1,.52-.9l2.18-1.26a1,1,0,0,1,1,0l2.18,1.26a1,1,0,0,1,.52.9v6.24a1.06,1.06,0,0,0,.54.9l5.12,2.94a.49.49,0,0,0,.52,0,.51.51,0,0,0,.26-.45V78.1a1,1,0,0,0-.52-.9l-8.62-5a1,1,0,0,0-.47-.12Zm77.54.12a1,1,0,0,0-.51.14l-8.63,5a1,1,0,0,0-.52.9v10a1,1,0,0,0,.53.9L125.77,94a1.06,1.06,0,0,0,1,0L132,91.11a.51.51,0,0,0,0-.9l-8.68-5a.57.57,0,0,1-.27-.47V81.65a.52.52,0,0,1,.27-.45l2.7-1.56a.53.53,0,0,1,.52,0l2.7,1.56a.51.51,0,0,1,.26.45V84.1a.51.51,0,0,0,.51.52.44.44,0,0,0,.26-.07l5.18-3a1,1,0,0,0,.51-.9v-2.4a1,1,0,0,0-.51-.9l-8.58-5a1.07,1.07,0,0,0-.52-.14Zm-25.8,7.44a.23.23,0,0,1,.14,0l3,1.71a.28.28,0,0,1,.14.22v3.43a.28.28,0,0,1-.14.22l-3,1.71a.24.24,0,0,1-.26,0l-3-1.71a.24.24,0,0,1-.14-.22V81.64a.25.25,0,0,1,.14-.23l3-1.71a.28.28,0,0,1,.12,0Z"/><path class="v" d="M152.2,72a1.78,1.78,0,0,0-.85.21l-8.14,4.71a1.7,1.7,0,0,0-.85,1.48v9.39a1.72,1.72,0,0,0,.85,1.49l2.12,1.23a3.5,3.5,0,0,0,1.89.5,2.25,2.25,0,0,0,2.4-2.54V79.18a.23.23,0,0,0-.24-.23h-1a.23.23,0,0,0-.24.22h0v9.27c0,.71-.75,1.43-2,.82L144,88a.26.26,0,0,1-.14-.21V78.38a.28.28,0,0,1,.14-.22l8.13-4.69a.25.25,0,0,1,.24,0l8.13,4.69a.28.28,0,0,1,.14.22v9.39a.29.29,0,0,1-.12.23l-8.15,4.68a.21.21,0,0,1-.24,0L150,91.43a.26.26,0,0,0-.21,0,5.24,5.24,0,0,1-1.23.56c-.13,0-.34.12.07.34l2.73,1.61a1.72,1.72,0,0,0,1.7,0l8.14-4.68a1.72,1.72,0,0,0,.85-1.49V78.38a1.72,1.72,0,0,0-.85-1.49l-8.2-4.7a1.77,1.77,0,0,0-.8-.19Zm-77.47.19a1,1,0,0,0-.52.14c-9,5.15-9.15,5.51-9.15,5.88,0,10.33.19,10.68.52,10.86,9,5.17,9.34,5.17,9.67,5,9-5.16,9.14-5.5,9.14-5.88,0-10.33-.19-10.69-.51-10.87-8.8-5.06-9-5.11-9.15-5.11Zm79.65,6.52c-2.32,0-3.7,1-3.7,2.63s1.37,2.27,3.59,2.49c2.67.26,2.88.65,2.88,1.18,0,.91-.73,1.29-2.44,1.29-2.15,0-2.63-.53-2.79-1.6a.23.23,0,0,0-.22-.21h-1.06a.24.24,0,0,0-.24.24c0,1.37.74,3,4.31,3,2.57,0,4.06-1,4.06-2.78s-1.2-2.23-3.7-2.56-2.77-.5-2.77-1.09.21-1.14,2.08-1.14c1.67,0,2.29.36,2.54,1.48a.24.24,0,0,0,.23.19h1a.21.21,0,0,0,.17-.08.22.22,0,0,0,.07-.17c-.16-1.94-1.46-2.85-4.06-2.85Zm-28,2.37h-.11l-1.66,1a.19.19,0,0,0-.1.17v1.9a.19.19,0,0,0,.1.17l1.66,1a.21.21,0,0,0,.19,0l1.66-1a.18.18,0,0,0,.11-.17v-1.9a.18.18,0,0,0-.11-.17l-1.66-1Z"/><path class="s" d="M382.79,87.29c0-4.59-1.32-6.94-3.92-7.08a7.08,7.08,0,0,0-3.05.5,4.55,4.55,0,0,0-1.6.84v11A7.59,7.59,0,0,0,378.67,94C381.41,93.79,382.79,91.58,382.79,87.29Zm3.24.2a9.8,9.8,0,0,1-1.65,5.82A6.13,6.13,0,0,1,379.29,96a9,9,0,0,1-5.07-1.54v10l-2.8-1V81.31a5.939,5.939,0,0,1,1.77-1.46,12.14,12.14,0,0,1,6.1-1.51h0a5.64,5.64,0,0,1,5.07,2.68A11.66,11.66,0,0,1,386,87.49ZM403.19,94c0,3.13-.31,5.29-.95,6.49a6.73,6.73,0,0,1-3.61,2.88,14,14,0,0,1-4.65.92l-.48-1.76a19.819,19.819,0,0,0,3.59-.7,4.62,4.62,0,0,0,2.8-2.13,10.549,10.549,0,0,0,.61-4.42v-.73a14.68,14.68,0,0,1-6.05,1.32,5.51,5.51,0,0,1-3.66-1.32A4.44,4.44,0,0,1,389,91V79.29l2.8-1V90.12A3.57,3.57,0,0,0,393,93a4.57,4.57,0,0,0,3.16,1,7.88,7.88,0,0,0,4.15-1.51V78.76h2.8Zm11,1.82h-.92a5.41,5.41,0,0,1-3.72-1.14,3.89,3.89,0,0,1-1.32-3.13V80.52H406.3V78.76h1.93v-4.7l2.8-1v5.68h3.16v1.79H411v11a2.65,2.65,0,0,0,.84,2.24,4.19,4.19,0,0,0,2.29.61v1.46Zm17-.23h-2.8V84.75a5.17,5.17,0,0,0-.79-2.86,2.82,2.82,0,0,0-2.46-1.34,9.11,9.11,0,0,0-4.84,2v13h-2.8V69.69l2.8-.89V80.61a9.67,9.67,0,0,1,5.88-2,4.68,4.68,0,0,1,3.61,1.51,5.33,5.33,0,0,1,1.4,3.72V95.61Zm14.91-8.76a8.58,8.58,0,0,0-1-4.36,4.13,4.13,0,0,0-3.7-2.21c-3.08.16-4.61,2.37-4.61,6.6a10.9,10.9,0,0,0,1,4.87,3.88,3.88,0,0,0,3.69,2.44c3.14,0,4.67-2.47,4.67-7.34Zm3.08,0a10,10,0,0,1-1.93,6.27,6.88,6.88,0,0,1-5.85,2.8,6.71,6.71,0,0,1-5.76-2.8,10.11,10.11,0,0,1-1.88-6.27,8.92,8.92,0,0,1,2.05-6,7,7,0,0,1,5.65-2.58,7.18,7.18,0,0,1,5.68,2.58,8.81,8.81,0,0,1,2,6Zm16.12,8.73h-2.8V84.13a3.7,3.7,0,0,0-1.14-2.94,4.13,4.13,0,0,0-3-1,6.61,6.61,0,0,0-3.8,1.31V95.6h-2.8V81.14a12.92,12.92,0,0,1,7.84-2.8,7.88,7.88,0,0,1,1.87.2A5.27,5.27,0,0,1,464.12,80a3.64,3.64,0,0,1,1.14,2.77V95.64Z"/><path class="w" d="M343.66,69.78a24.709,24.709,0,0,0-4,.33c-3.58.65-4.22,2-4.22,4.4v3.21h8.45v1.07H332.21a5.29,5.29,0,0,0-5.29,4.28,15.86,15.86,0,0,0,0,8.59c.59,2.49,2.05,4.29,4.51,4.29h2.91V92.11a5.37,5.37,0,0,1,5.29-5.26h8.45a4.26,4.26,0,0,0,4.23-4.29v-8a4.73,4.73,0,0,0-4.23-4.39,25.19,25.19,0,0,0-4.42-.36Zm-4.56,2.6A1.61,1.61,0,0,1,340.69,74a1.57,1.57,0,0,1-1.55,1.6h0a1.61,1.61,0,0,1,0-3.22Z"/><path class="x" d="M353.35,78.82v3.75a5.44,5.44,0,0,1-5.29,5.37h-8.43a4.3,4.3,0,0,0-4.22,4.31v8.06c0,2.29,2,3.64,4.22,4.31a14.32,14.32,0,0,0,8.45,0c2.13-.61,4.23-1.85,4.23-4.31V97.09h-8.45V96h12.68c2.46,0,3.38-1.71,4.22-4.28a14.49,14.49,0,0,0,0-8.6c-.61-2.43-1.76-4.28-4.22-4.28h-3.19Zm-4.76,20.4a1.61,1.61,0,1,1-1.63,1.62h0a1.62,1.62,0,0,1,1.63-1.62Z"/><rect class="y" width="76.51" height="76.51" transform="translate(92.08 248.5)"/><path class="s" d="M154.36,289.27v3h5.36a3.06,3.06,0,0,0,3-3V288a3,3,0,0,0-3-3H157v-1.37h5.3v-3h-5.09a3.11,3.11,0,0,0-3.06,3.1v1a3.06,3.06,0,0,0,3.06,3h2.52v1.43m-34.12-.7s2.87-.25,2.87-4a3.94,3.94,0,0,0-3.48-4h-6.26v11.68h3.14v-2.81l2.72,2.81h4.64Zm-1.2-2.39H121.9v-2.68h2.52a1.31,1.31,0,0,1,.71,1.31,1.42,1.42,0,0,1-.72,1.37Zm11.83-5.51h-3.19a3.05,3.05,0,0,0-3,3v8.55h3.2v-2.05h3v2.05h3.1v-8.55a3,3,0,0,0-3-3h-.05Zm0,6.23h-3V284s0-.63,1-.63h1.09c.88,0,.9.63.9.63v2.83Z"/><rect class="s" width="3.33" height="11.59" transform="translate(140.8 280.64)"/><path class="s" d="M148.79,289.22v-8.58h-3.3v11.59h7.78v-3Z"/><path class="s" d="M99.06,292.23h13s-2.46-11.29,5.72-15.86c1.78-.86,7.48-4.11,16.78,2.77.18-.15.37-.3.57-.44,0,0-8.51-8.48-18-7.55-4.78.42-10.65,4.76-14.1,10.5a28.28,28.28,0,0,0-3.97,10.58Z"/><path class="s" d="M99.06,292.23h13s-2.46-11.29,5.72-15.86c1.78-.86,7.48-4.11,16.78,2.77.18-.15.37-.3.57-.44,0,0-8.51-8.48-18-7.55-4.78.42-10.65,4.76-14.1,10.5a28.28,28.28,0,0,0-3.97,10.58Z"/><path class="s" d="M99.06,292.23h13s-2.46-11.29,5.72-15.86c1.78-.86,7.48-4.11,16.78,2.77.18-.15.37-.3.57-.44,0,0-8.51-8.48-18-7.55-4.78.42-10.65,4.76-14.1,10.5a28.28,28.28,0,0,0-3.97,10.58Zm27-20.16.06-1.09a8.182,8.182,0,0,0-1.59-.58v1.09a14.178,14.178,0,0,1,1.47.58Z"/><path class="s" d="M124.46,275.53v1a8.84,8.84,0,0,1,1.62.19l.06-1C125.53,275.64,125,275.57,124.46,275.53Zm-6.06-5.11h.17l-.32-1a8.5,8.5,0,0,0-1.57.1l.31,1a13.3,13.3,0,0,1,1.41-.07Zm.79,6,.38,1.13A11.83,11.83,0,0,1,121,277l-.36-1.09a12.644,12.644,0,0,0-1.45.54Zm-7.45-4.3L111,271c-.4.21-.84.44-1.28.71l.74,1.15c.46-.27.86-.52,1.28-.73Zm3.37,7.36.79,1.19a10.754,10.754,0,0,1,1-1.17l-.74-1.11a9.632,9.632,0,0,0-1,1.1Zm-2.37,5.29,1.31,1a11.08,11.08,0,0,1,.35-1.91l-1.19-.94a15.858,15.858,0,0,0-.47,1.87ZM105.57,277l-1.17-1c-.42.4-.84.82-1.2,1.22l1.26,1.09a13.618,13.618,0,0,1,1.11-1.31Zm-5,7.33-1.87-.69c-.31.71-.65,1.53-.82,2l1.87.69c.25-.59.6-1.39.86-2ZM112.49,289a20.206,20.206,0,0,0,.19,2.06l2,.71c-.15-.63-.28-1.36-.4-2.12Z"/><g class="z"><path class="aa" d="M207.6,265.13c0,13.11,20.2,23.73,45.12,23.73h0c24.92,0,45.12-10.62,45.12-23.73h0c0-13.11-20.2-23.74-45.12-23.74h0c-24.92,0-45.12,10.63-45.12,23.74"/></g><g class="ab"><path class="ac" d="M252.72,287.1c24,0,43.36-9.84,43.36-22s-19.42-22-43.36-22-43.36,9.83-43.36,22,19.42,22,43.36,22"/></g><g class="ab"><path d="M232.11,267.85a7.14,7.14,0,0,0,4.37-1.08,5.74,5.74,0,0,0,1.89-3.64c.31-1.6.2-2.72-.35-3.33s-1.76-.92-3.57-.92H231.3l-1.74,9Zm-10.29,11.06a.53.53,0,0,1-.38-.18.49.49,0,0,1-.1-.41L226,254.54a.5.5,0,0,1,.49-.4h10c3.13,0,5.46.85,6.93,2.53s1.92,4,1.35,7a11.26,11.26,0,0,1-1.2,3.33,11.1,11.1,0,0,1-2.21,2.76,9.6,9.6,0,0,1-3.62,2.18,16.491,16.491,0,0,1-5,.65h-4l-1.15,5.92a.5.5,0,0,1-.48.4Z"/><path class="s" d="M231.71,259.37h2.74c2.19,0,3,.48,3.21.76.43.48.51,1.48.23,2.9a5.38,5.38,0,0,1-1.7,3.35,6.73,6.73,0,0,1-4.08,1h-2Zm4.7-5.72h-10a1,1,0,0,0-1,.8l-4.62,23.78a1,1,0,0,0,1,1.17H227a1,1,0,0,0,1-.79l1.07-5.54h3.64a16.82,16.82,0,0,0,5.13-.66,10.08,10.08,0,0,0,3.81-2.28,11.669,11.669,0,0,0,2.3-2.89,11.54,11.54,0,0,0,1.25-3.47c.61-3.12.12-5.61-1.46-7.42s-4-2.69-7.3-2.69M229,268.34h3.15a7.56,7.56,0,0,0,4.67-1.18,6.26,6.26,0,0,0,2.07-3.94c.34-1.77.19-3-.47-3.74s-2-1.09-3.93-1.09H230.9l-1.9,9.95m7.45-13.71c3,0,5.18.79,6.56,2.36s1.79,3.77,1.24,6.59a10.7,10.7,0,0,1-1.15,3.19,10.359,10.359,0,0,1-2.11,2.64,9.19,9.19,0,0,1-3.44,2.07,15.852,15.852,0,0,1-4.84.61h-4.44L227,278.42h-5.18l4.62-23.79h10"/><path d="M256.57,272.58a.49.49,0,0,1-.38-.17.51.51,0,0,1-.1-.41l2-10.53c.2-1,.15-1.72-.13-2s-.69-.5-2.22-.5h-3.71l-2.57,13.24a.48.48,0,0,1-.48.39h-5.14a.49.49,0,0,1-.38-.18.48.48,0,0,1-.1-.4l4.64-23.8a.48.48,0,0,1,.48-.4h5.14a.46.46,0,0,1,.37.18.47.47,0,0,1,.11.41l-1.1,5.74h4c3,0,5.09.53,6.29,1.63s1.6,2.92,1.13,5.34l-2.15,11.07a.48.48,0,0,1-.48.4Z"/><path class="s" d="M253.64,247.33h-5.13a1,1,0,0,0-1,.79l-4.62,23.79a.963.963,0,0,0,.96,1.16H249a1,1,0,0,0,1-.79l2.49-12.83h3.3c1.54,0,1.85.32,1.86.34a2.9,2.9,0,0,1,0,1.59l-2,10.53a.976.976,0,0,0,.96,1.16h5.23a1,1,0,0,0,1-.79l2.15-11.07c.5-2.59.07-4.54-1.29-5.79s-3.46-1.77-6.62-1.77h-3.4l1-5.15a.99.99,0,0,0-.96-1.17m0,1-1.22,6.32H257c2.88,0,4.87.51,6,1.51s1.42,2.63,1,4.89l-2.15,11.07h-5.22l2-10.53a2.86,2.86,0,0,0-.26-2.45,3.58,3.58,0,0,0-2.58-.65h-4.1L249,272.1h-5.14l4.63-23.79h5.14"/><path d="M272.56,267.85a7.18,7.18,0,0,0,4.37-1.08,5.83,5.83,0,0,0,1.89-3.64c.3-1.6.19-2.72-.36-3.33s-1.75-.92-3.57-.92h-3.15l-1.74,9Zm-10.3,11.06a.49.49,0,0,1-.37-.18.47.47,0,0,1-.11-.41l4.63-23.78a.48.48,0,0,1,.48-.4h10c3.13,0,5.46.85,6.93,2.53s1.93,4,1.35,7a11,11,0,0,1-1.2,3.33,11.29,11.29,0,0,1-2.2,2.76,9.64,9.64,0,0,1-3.63,2.18,16.468,16.468,0,0,1-5,.65h-4l-1.15,5.92a.5.5,0,0,1-.48.4Z"/><path class="s" d="M272.15,259.37h2.74c2.19,0,2.95.48,3.21.76.43.48.51,1.48.23,2.9a5.38,5.38,0,0,1-1.7,3.36,6.77,6.77,0,0,1-4.07,1h-2Zm4.7-5.72h-10a1,1,0,0,0-1,.8l-4.62,23.78a.977.977,0,0,0,.96,1.17h5.18a1,1,0,0,0,1-.79l1.08-5.54h3.63a16.781,16.781,0,0,0,5.13-.66,10.19,10.19,0,0,0,3.82-2.28,11.52,11.52,0,0,0,3.55-6.36c.6-3.12.11-5.61-1.47-7.42s-4-2.69-7.29-2.69m-7.45,14.68h3.15a7.56,7.56,0,0,0,4.67-1.18,6.25,6.25,0,0,0,2.07-3.94c.34-1.77.18-3-.47-3.74s-2-1.09-3.94-1.09H271.3l-1.93,10m7.44-13.71c3,0,5.19.78,6.56,2.36s1.79,3.77,1.24,6.59a10.28,10.28,0,0,1-3.25,5.82,9,9,0,0,1-3.45,2.07,16.1,16.1,0,0,1-4.83.62h-4.44l-1.23,6.32h-5.17l4.62-23.79h10"/></g><path class="ad" d="M352.94,161.73A7.719,7.719,0,0,0,352,158a7.2,7.2,0,0,0-2.71-2.63l-29.93-17.23a7.37,7.37,0,0,0-8,.08c-4,2.35-23.86,13.72-29.77,17.15a6.94,6.94,0,0,0-3.63,6.39V196.4a7.35,7.35,0,0,0,.88,3.67,7.09,7.09,0,0,0,2.75,2.71c5.91,3.44,25.82,14.81,29.77,17.16a7.39,7.39,0,0,0,8,.08l29.93-17.24a7.09,7.09,0,0,0,2.75-2.71,7.35,7.35,0,0,0,.88-3.67V161.73"/><path class="ae" d="M315.59,179l-36.7,21.15a7.16,7.16,0,0,0,2.75,2.71c5.91,3.44,25.82,14.8,29.77,17.16a7.39,7.39,0,0,0,8,.08l29.93-17.24a7.16,7.16,0,0,0,2.75-2.71L315.59,179"/><path class="ae" d="M304.74,185.23a12.44,12.44,0,0,0,21.59-.08L315.63,179l-10.89,6.27"/><path class="af" d="M352.94,161.73A7.66,7.66,0,0,0,352,158l-36.43,21,36.47,21.11a7.38,7.38,0,0,0,.88-3.68v-34.7"/><path class="s" d="M350.9,180.48h-2.83v2.83h-2.83v-2.83h-2.83v-2.83h2.83v-2.84h2.83v2.83h2.83v2.84m-10.37,0H337.7v2.83h-2.83v-2.83H332v-2.84h2.83v-2.83h2.84v2.83h2.83v2.84"/><path class="s" d="M326.29,185.15a12.42,12.42,0,1,1-.12-12.25L337,166.67a24.85,24.85,0,0,0-46.37,12.41,24.55,24.55,0,0,0,3.31,12.37,24.88,24.88,0,0,0,43.17,0l-10.81-6.26"/><path class="ag" d="M214.85,158.16a7.76,7.76,0,0,0-.92-3.77,7.18,7.18,0,0,0-2.72-2.64l-30-17.29a7.42,7.42,0,0,0-8,.08c-4,2.36-23.94,13.77-29.86,17.21a7,7,0,0,0-3.65,6.41v34.78a7.4,7.4,0,0,0,.89,3.69,7.21,7.21,0,0,0,2.76,2.72c5.92,3.44,25.9,14.85,29.86,17.21a7.4,7.4,0,0,0,8,.08l30-17.29a7.21,7.21,0,0,0,2.76-2.72,7.4,7.4,0,0,0,.88-3.69V158.16"/><path class="ah" d="M177.38,175.45l-36.82,21.22a7.21,7.21,0,0,0,2.76,2.72c5.92,3.45,25.9,14.85,29.86,17.21a7.4,7.4,0,0,0,8,.08l30-17.29a7.28,7.28,0,0,0,2.76-2.72l-36.59-21.22"/><path class="ah" d="M166.5,181.74a12.46,12.46,0,0,0,21.65-.08l-10.73-6.21-10.92,6.29"/><path class="ai" d="M214.85,158.16a7.76,7.76,0,0,0-.92-3.77l-36.55,21.06L214,196.63a7.4,7.4,0,0,0,.88-3.69V158.16"/><path class="s" d="M188.11,181.66a12.45,12.45,0,1,1-.12-12.29l10.85-6.25a24.94,24.94,0,0,0-46.52,12.45A24.59,24.59,0,0,0,155.65,188a25,25,0,0,0,43.31,0l-10.85-6.28"/><path class="aj" d="M224.84,91.74c-5.85-6.21-9.28-14.78-9.27-25A35.05,35.05,0,0,1,223.29,44H213V91.73h11.83Z"/><path class="aj" d="M278.92,91.74a49.689,49.689,0,0,0,6.83-9.52l-11.37-5.68c-4,6.48-9.83,12.46-17.9,12.5C244.73,89,240.12,79,240.15,66H284a22.428,22.428,0,0,0,0-2.84A29.81,29.81,0,0,0,278.58,44h9.86V91.74h-9.52Z"/><path class="aj" d="M240.86,54.94a10.45,10.45,0,0,1,10.51-9.8c5.45,0,9.38,4,9.52,9.8Z"/><path class="s" d="M219.26,99.82v-2h-6.11v11.79h6.12v-2h-3.84v-3.12h3.69v-2h-3.69v-2.7Z"/><path class="s" d="M229.63,104.65a3.19,3.19,0,0,0,2.42-3.27c-.06-2.51-1.68-3.55-4-3.55H225v11.79h2.27v-4.68l2.84,4.68h2.85l-3.27-5Zm-2.41-5h.28c1.24,0,2.17.33,2.13,1.85s-.86,1.77-2.13,1.71h-.29V99.67Z"/><path class="s" d="M240,97.83h-2.27v11.79h5.54v-2H240v-9.8Z"/><path class="s" d="M254.92,107.2l1,2.42h2.42l-4.4-12.08h-1.85l-4.68,12.08h2.41l1-2.42Zm-.57-1.84h-2.84l1.28-4.41Z"/><path class="s" d="M262.59,109.62H265v-8l6.25,8.24H273V97.83h-2.41v8l-6.25-8.24h-1.71v12.08Z"/><path class="s" d="M282.91,103.37v1.84h2.55a2.74,2.74,0,0,1-2.7,2.7c-2.26,0-3.38-2.14-3.4-4.12s1.13-4.23,3.4-4.26a3.22,3.22,0,0,1,2.7,1.85l2-1a5,5,0,0,0-4.68-2.84c-3.52,0-5.78,2.89-5.82,6.25a6,6,0,0,0,5.63,6.25h.05c3.72,0,5.44-3,5.4-6.39v-.28Z"/><rect class="s" width="64.64" height="88.98" rx="8.79" transform="translate(338.17 243.12)"/><path class="ak" d="M388.26,308.45H388v-.16h.73v.16h-.27v.76h-.19Zm1.46.05h0l-.27.73h-.12l-.27-.73h0v.73h-.18v-.91h.27l.25.64.25-.64h.28v.91h-.18Z"/><path class="al" d="M363.9,289.81s-1.9,1.09,1.35,1.48a28.1,28.1,0,0,0,10.26-.43,18.441,18.441,0,0,0,2.72,1.32c-9.71,4.16-22-.25-14.33-2.37m-1.19-5.42s-2.12,1.57,1.12,1.89a39.739,39.739,0,0,0,13.23-.64,5.86,5.86,0,0,0,2,1.24c-11.73,3.45-24.8.3-16.39-2.49"/><path class="ak" d="M372.7,275.18c2.4,2.74-.62,5.23-.62,5.23s6.08-3.13,3.29-7.06c-2.6-3.66-4.59-5.49,6.22-11.75,0,0-17,4.23-8.89,13.58"/><path class="al" d="M385.54,293.83s1.4,1.16-1.55,2.06c-5.6,1.69-23.31,2.21-28.23.07-1.76-.78,1.56-1.83,2.58-2.06a6.66,6.66,0,0,1,1.72-.18c-2-1.4-12.71,2.72-5.46,3.88,19.79,3.2,36.06-1.46,30.94-3.77m-20.75-15.07s-9,2.15-3.2,2.93a67.932,67.932,0,0,0,11.91-.14c3.73-.32,7.48-1,7.48-1a15.907,15.907,0,0,0-2.27,1.21c-9.14,2.4-26.81,1.28-21.73-1.17a17,17,0,0,1,7.81-1.85m16.16,9c9.3-4.82,5-9.48,2-8.84a8.058,8.058,0,0,0-1.07.29,1.63,1.63,0,0,1,.8-.61c5.94-2.08,10.51,6.14-1.92,9.41a.48.48,0,0,0,.21-.25"/><path class="ak" d="M375.35,251.48s5.14,5.14-4.89,13.07c-8,6.35-1.83,10,0,14.12-4.71-4.23-8.14-8-5.83-11.45,3.41-5.09,12.8-7.56,10.72-15.75"/><path class="al" d="M365.71,300.89c8.93.57,22.62-.32,22.94-4.55,0,0-.61,1.6-7.38,2.88a73.07,73.07,0,0,1-22.58.34s1.16.94,7,1.33"/><path class="ak" d="M364.24,317a4,4,0,0,1-2.53,1.15,1.63,1.63,0,0,1-1.77-1.46,1.131,1.131,0,0,1,0-.32c0-1.19.66-2.06,3.31-2.06h1V317m2.33,2.62v-8.11c0-2.08-1.19-3.45-4-3.45a10.31,10.31,0,0,0-4.3.94l.349,1.44a10,10,0,0,1,3.33-.67c1.65,0,2.36.67,2.36,2v1h-.82c-4,0-5.79,1.56-5.79,3.87,0,2,1.19,3.15,3.43,3.15a5.14,5.14,0,0,0,3.52-1.46l.18,1.23Zm7.75,0h-2.9l-3.5-11.36h2.54l2.17,7,.48,2.1a43.752,43.752,0,0,0,2.27-9.08h2.46a45.639,45.639,0,0,1-3.52,11.36M385.45,317a4,4,0,0,1-2.54,1.15,1.63,1.63,0,0,1-1.76-1.46,1.709,1.709,0,0,1,0-.32c0-1.19.67-2.06,3.32-2.06h1V317m2.31,2.62v-8.11c0-2.08-1.19-3.45-4-3.45a10.309,10.309,0,0,0-4.3.94l.339,1.44a10.079,10.079,0,0,1,3.34-.67c1.64,0,2.35.67,2.35,2v1h-.82c-4,0-5.78,1.56-5.78,3.87,0,2,1.19,3.15,3.43,3.15a5.18,5.18,0,0,0,3.52-1.46l.18,1.23Zm-32.66,1.92a6.13,6.13,0,0,1-2.9,2.17l-1.15-1.34a5,5,0,0,0,2-1.88,7.56,7.56,0,0,0,.43-3.29v-13H356v12.78c0,2.51-.21,3.54-.87,4.52"/></g></svg>