<svg xmlns="http://www.w3.org/2000/svg" xmlns:xlink="http://www.w3.org/1999/xlink" width="501.01" height="501" viewBox="0 0 501.01 501"><defs><style>.a{fill:#231f20;stroke:#231f20;stroke-miterlimit:10;opacity:0;}.b{fill:url(#a);}.c{fill:url(#b);}.d{fill:url(#c);}.e{fill:url(#d);}.f{fill:url(#e);}.g{opacity:0.5;fill:url(#f);}.h{fill:url(#g);}.i{fill:url(#h);}.j{fill:url(#i);}.k{fill:url(#j);}.l{fill:url(#k);}.m{fill:url(#l);}.n{fill:url(#m);}.o{fill:url(#n);}.p{fill:#fff;}.q{fill:#0089d6;}.r{fill:#232f3e;}.s{fill:#ec912e;}.t{fill:#ea4335;}.u{fill:#4285f4;}.v{fill:#34a853;}.w{fill:#fbbc05;}.x,.y{fill:#00b0ff;}.y{fill-rule:evenodd;}.z{fill:#008774;}.aa{fill:#00ae9e;}</style><radialGradient id="a" cx="252.149" cy="161.749" r="383.75" gradientTransform="translate(88.928 97.476) scale(0.647 0.397)" gradientUnits="userSpaceOnUse"><stop offset="0" stop-color="#fff" stop-opacity="0.502"/><stop offset="0.27" stop-color="#c9c8c9" stop-opacity="0.38"/><stop offset="0.87" stop-color="#413e3f" stop-opacity="0.071"/><stop offset="1" stop-color="#231f20" stop-opacity="0"/></radialGradient><linearGradient id="b" x1="0.5" y1="0.989" x2="0.5" y2="0.025" gradientUnits="objectBoundingBox"><stop offset="0" stop-color="#fff" stop-opacity="0.502"/><stop offset="0.11" stop-color="#d0cfcf" stop-opacity="0.388"/><stop offset="0.29" stop-color="#929090" stop-opacity="0.251"/><stop offset="0.47" stop-color="#615e5f" stop-opacity="0.141"/><stop offset="0.65" stop-color="#3f3b3c" stop-opacity="0.059"/><stop offset="0.82" stop-color="#2a2627" stop-opacity="0.02"/><stop offset="1" stop-color="#231f20" stop-opacity="0"/></linearGradient><linearGradient id="c" x1="0.434" y1="0.188" x2="0.562" y2="0.308" gradientUnits="objectBoundingBox"><stop offset="0" stop-color="#fff" stop-opacity="0.302"/><stop offset="0.12" stop-color="#fff" stop-opacity="0.22"/><stop offset="0.32" stop-color="#fff" stop-opacity="0.129"/><stop offset="0.53" stop-color="#fff" stop-opacity="0.059"/><stop offset="0.75" stop-color="#fff" stop-opacity="0.012"/><stop offset="1" stop-color="#fff" stop-opacity="0"/></linearGradient><linearGradient id="d" x1="0.588" y1="0.826" x2="0.411" y2="0.673" gradientUnits="objectBoundingBox"><stop offset="0" stop-color="#fff" stop-opacity="0.302"/><stop offset="0.02" stop-color="#fff" stop-opacity="0.278"/><stop offset="0.15" stop-color="#fff" stop-opacity="0.18"/><stop offset="0.3" stop-color="#fff" stop-opacity="0.102"/><stop offset="0.47" stop-color="#fff" stop-opacity="0.039"/><stop offset="0.67" stop-color="#fff" stop-opacity="0.012"/><stop offset="1" stop-color="#fff" stop-opacity="0"/></linearGradient><linearGradient id="e" x1="0.008" y1="0.5" x2="0.982" y2="0.5" gradientUnits="objectBoundingBox"><stop offset="0" stop-color="#fff" stop-opacity="0.898"/><stop offset="0.03" stop-color="#fff" stop-opacity="0.769"/><stop offset="0.11" stop-color="#fff" stop-opacity="0.49"/><stop offset="0.18" stop-color="#fff" stop-opacity="0.278"/><stop offset="0.23" stop-color="#fff" stop-opacity="0.149"/><stop offset="0.25" stop-color="#fff" stop-opacity="0.102"/><stop offset="0.33" stop-color="#fff" stop-opacity="0.369"/><stop offset="0.51" stop-color="#fff"/><stop offset="0.68" stop-color="#fff" stop-opacity="0.471"/><stop offset="0.8" stop-color="#fff" stop-opacity="0.102"/><stop offset="0.82" stop-color="#fff" stop-opacity="0.129"/><stop offset="0.85" stop-color="#fff" stop-opacity="0.2"/><stop offset="0.89" stop-color="#fff" stop-opacity="0.322"/><stop offset="0.92" stop-color="#fff" stop-opacity="0.49"/><stop offset="0.96" stop-color="#fff" stop-opacity="0.698"/><stop offset="1" stop-color="#fff" stop-opacity="0.898"/></linearGradient><linearGradient id="f" x1="0.008" y1="1.717" x2="0.982" y2="1.717" gradientUnits="objectBoundingBox"><stop offset="0" stop-color="#fff" stop-opacity="0.502"/><stop offset="0.03" stop-color="#fff" stop-opacity="0.431"/><stop offset="0.13" stop-color="#fff" stop-opacity="0.231"/><stop offset="0.21" stop-color="#fff" stop-opacity="0.102"/><stop offset="0.25" stop-color="#fff" stop-opacity="0.051"/><stop offset="0.51" stop-color="#fff" stop-opacity="0.251"/><stop offset="0.81" stop-color="#fff" stop-opacity="0.051"/><stop offset="0.83" stop-color="#fff" stop-opacity="0.078"/><stop offset="0.85" stop-color="#fff" stop-opacity="0.149"/><stop offset="0.89" stop-color="#fff" stop-opacity="0.271"/><stop offset="0.92" stop-color="#fff" stop-opacity="0.439"/><stop offset="0.96" stop-color="#fff" stop-opacity="0.651"/><stop offset="1" stop-color="#fff" stop-opacity="0.898"/></linearGradient><linearGradient id="g" x1="1.173" y1="0.623" x2="0.831" y2="0.379" gradientUnits="objectBoundingBox"><stop offset="0" stop-color="#fff" stop-opacity="0.251"/><stop offset="0.01" stop-color="#fff" stop-opacity="0.251"/><stop offset="0.25" stop-color="#fff" stop-opacity="0.141"/><stop offset="0.5" stop-color="#fff" stop-opacity="0.059"/><stop offset="0.75" stop-color="#fff" stop-opacity="0.02"/><stop offset="1" stop-color="#fff" stop-opacity="0"/></linearGradient><linearGradient id="h" x1="-0.179" y1="0.629" x2="0.156" y2="0.388" gradientUnits="objectBoundingBox"><stop offset="0" stop-color="#fff" stop-opacity="0.251"/><stop offset="0.24" stop-color="#fff" stop-opacity="0.149"/><stop offset="0.5" stop-color="#fff" stop-opacity="0.071"/><stop offset="0.75" stop-color="#fff" stop-opacity="0.02"/><stop offset="1" stop-color="#fff" stop-opacity="0"/></linearGradient><linearGradient id="i" x1="0.596" y1="0.082" x2="0.535" y2="0.346" gradientUnits="objectBoundingBox"><stop offset="0" stop-color="#fff" stop-opacity="0.2"/><stop offset="0.16" stop-color="#fff" stop-opacity="0.141"/><stop offset="0.44" stop-color="#fff" stop-opacity="0.059"/><stop offset="0.72" stop-color="#fff" stop-opacity="0.02"/><stop offset="1" stop-color="#fff" stop-opacity="0"/></linearGradient><radialGradient id="j" cx="33.18" cy="7.343" r="164.366" gradientTransform="translate(26.69 7.084) scale(0.196 0.035)" gradientUnits="userSpaceOnUse"><stop offset="0" stop-color="#231f20" stop-opacity="0.502"/><stop offset="1" stop-color="#231f20" stop-opacity="0"/></radialGradient><radialGradient id="k" cx="33.18" cy="7.741" r="164.366" gradientTransform="translate(26.69 7.469) scale(0.196 0.035)" xlink:href="#j"/><radialGradient id="l" cx="33.18" cy="7.684" r="164.366" gradientTransform="translate(26.69 7.413) scale(0.196 0.035)" xlink:href="#j"/><radialGradient id="m" cx="33.18" cy="7.158" r="164.366" gradientTransform="translate(26.69 6.906) scale(0.196 0.035)" xlink:href="#j"/><radialGradient id="n" cx="33.18" cy="7.287" r="164.366" gradientTransform="translate(26.69 7.03) scale(0.196 0.035)" xlink:href="#j"/></defs><g transform="translate(0.51 0.5)"><rect class="a" width="500" height="500"/><rect class="b" width="500.2" height="323.79" transform="translate(-0.51 175.05)"/><path class="c" d="M249.59,449.56l241.83-145.1L249.59,159.37,7.76,304.46Z"/><path class="d" d="M249.59,159.37,7.76,304.46l241.83,145.1Z"/><path class="e" d="M249.59,159.37,491.42,304.46,249.59,449.56Z"/><path class="f" d="M249.59,452.68l241.83-145.1v-3.12L249.59,449.56,7.76,304.46v3.12Z"/><path class="g" d="M249.59,159.35l241.83,145.1v3.11L249.59,162.47,7.76,307.56v-3.11Z"/><path class="h" d="M491.42,304.46v-200H249.59v54.91Z"/><path class="i" d="M7.76,304.46v-200H249.59v54.91Z"/><path class="j" d="M249.59,449.56,491.42,304.47,249.59,159.37,7.76,304.47Z"/><ellipse class="k" cx="33.18" cy="6.49" rx="33.18" ry="6.49" transform="translate(350.35 287.96)"/><ellipse class="l" cx="33.18" cy="6.49" rx="33.18" ry="6.49" transform="translate(270.8 386.16)"/><ellipse class="m" cx="33.18" cy="6.49" rx="33.18" ry="6.49" transform="translate(154.98 369.31)"/><ellipse class="n" cx="33.18" cy="6.49" rx="33.18" ry="6.49" transform="translate(216.41 241.79)"/><ellipse class="o" cx="33.18" cy="6.49" rx="33.18" ry="6.49" transform="translate(79.6 274.45)"/><path class="p" d="M252.15,226.76c-2.53-.16-4-1.6-4.39-4.3-.11-.71-.11-.73-.12-5.39v-4.51h2.24v4.36c0,3.93,0,4.39.05,4.67a4.08,4.08,0,0,0,1,2.42,2.83,2.83,0,0,0,1.56.82,6.36,6.36,0,0,0,1.51,0,3.33,3.33,0,0,0,1.7-.93,4.5,4.5,0,0,0,1.15-2.2l.07-.3v-8.8h2.29v13.84h-2.26v-1.1a7.932,7.932,0,0,0,0-1.09.859.859,0,0,0-.13.2A4.55,4.55,0,0,1,255,226.2a4.86,4.86,0,0,1-2.87.56Z"/><path class="p" d="M284.38,218.35A7,7,0,0,0,283,214a5.26,5.26,0,0,0-3.56-1.83,7.461,7.461,0,0,0-2,.12,6,6,0,0,0-2.47,1.18,7.409,7.409,0,0,0-1,1,8.13,8.13,0,0,0-1.61,4,11.8,11.8,0,0,0,0,2.52,6.32,6.32,0,0,0,2.86,4.92,5.76,5.76,0,0,0,2.6.85h0a18,18,0,0,0,2.08,0,8,8,0,0,0,3.28-1.13l.24-.15v-1a4.357,4.357,0,0,0,0-1l-.22.16a7,7,0,0,1-3.06,1.26,8.86,8.86,0,0,1-1.63.06,4.42,4.42,0,0,1-2.48-1.05,4.58,4.58,0,0,1-1-1.46,5.45,5.45,0,0,1-.44-2.07v-.22h9.8v-.59C284.39,219.14,284.39,218.64,284.38,218.35Zm-9.79-.18v-.12a6.258,6.258,0,0,1,.23-1,5,5,0,0,1,1.22-1.94,3.61,3.61,0,0,1,1.83-1,5,5,0,0,1,1.34,0A3.13,3.13,0,0,1,281,215a4.49,4.49,0,0,1,1.14,3v.19Z"/><path class="p" d="M215.61,226.41v-.01h0Z"/><path class="p" d="M225.47,207.25l-.1-.25H223l-3.69,9.69-3.7,9.71a6.511,6.511,0,0,0,1.25,0h1.26l.94-2.62,1-2.72v-.09h8.22l1,2.72,1,2.72h2.52S225.76,208,225.47,207.25Zm2.06,11.67h-6.71s.67-1.85,1.5-4.1,1.53-4.19,1.57-4.31a7.508,7.508,0,0,0,.21-.94c0-.29.07-.28.12,0,.13.68.22.94,1.79,5.19.84,2.27,1.52,4.13,1.52,4.13Z"/><path class="p" d="M233.61,226.08v-.35l4.1-5.63,4.09-5.63h-7.41v-1.88H245.1v.64l-4.1,5.63c-2.26,3.11-4.1,5.66-4.1,5.67H245v1.9H233.61Z"/><path class="p" d="M263.67,226.42V212.56h2.24v2.86a1.18,1.18,0,0,0,.12-.28,5,5,0,0,1,1.25-1.93,3.28,3.28,0,0,1,1.77-.88,3.57,3.57,0,0,1,.73,0,3.251,3.251,0,0,1,1,.14h.09v2.32l-.26-.13a2.92,2.92,0,0,0-1.48-.3,2.66,2.66,0,0,0-.89.18,2.79,2.79,0,0,0-1.41,1.15,6.81,6.81,0,0,0-.94,2.69c0,.17,0,1.51,0,4.15v3.9h-2.21Z"/><path class="q" d="M247.72,191.06l16.09-2.85h.15l-8.28-9.85c-4.55-5.41-8.27-9.86-8.27-9.89s8.59-23.62,8.59-23.7,5.84,10,14.1,24.34l14.18,24.58.11.19H231.76Z"/><path class="q" d="M216.15,188.06s3.9-6.79,8.67-15.05l8.66-15,10.1-8.48L253.72,141a2.092,2.092,0,0,1-.17.41l-11,23.53-10.77,23.1H216.17Z"/><path class="r" d="M212.69,358.44H163.64a12,12,0,0,1-12-11.95V297.41a12,12,0,0,1,12-12h49.08a12,12,0,0,1,12,11.95v49.08a12,12,0,0,1-11.94,12Z"/><path class="p" d="M206.6,306.56a1.792,1.792,0,0,1,.62.07,9.35,9.35,0,0,1,2.66.61,3.569,3.569,0,0,1,.68.4.88.88,0,0,1,.34.72v.92a.78.78,0,0,1,0,.22.32.32,0,0,1-.37.28h0a2.42,2.42,0,0,1-.46-.13,8.07,8.07,0,0,0-3.78-.71,5,5,0,0,0-1.61.31,1.8,1.8,0,0,0-1,2.3,1.341,1.341,0,0,0,.12.24,2.54,2.54,0,0,0,.86.77,8.892,8.892,0,0,0,1.73.68c.87.28,1.77.56,2.63.87a4.5,4.5,0,0,1,1.8,1.14,3.84,3.84,0,0,1,1,2.45,4.48,4.48,0,0,1-2.85,4.39,7.79,7.79,0,0,1-3.12.62,11.36,11.36,0,0,1-4.27-.8,4.916,4.916,0,0,1-.68-.37.83.83,0,0,1-.37-.72v-1c0-.37.21-.52.55-.43s.4.16.62.22a10.1,10.1,0,0,0,4.24.77,4.779,4.779,0,0,0,1.86-.4,1.91,1.91,0,0,0,1.11-1.33,1.73,1.73,0,0,0-.9-2,10.994,10.994,0,0,0-1.64-.65c-.86-.28-1.76-.53-2.63-.83a4.62,4.62,0,0,1-1.95-1.24,4.13,4.13,0,0,1-.65-4.67,4.88,4.88,0,0,1,2.6-2.17,6.521,6.521,0,0,1,2.14-.43h.18a2.558,2.558,0,0,1,.54-.1Z"/><path class="p" d="M184.54,319.15a5.619,5.619,0,0,0,.16-.71c.83-3.52,1.64-7,2.47-10.55a1.222,1.222,0,0,1,.1-.34.68.68,0,0,1,.65-.52h1.91a.61.61,0,0,1,.62.49,9.462,9.462,0,0,1,.25,1c.84,3.53,1.67,7.09,2.51,10.61a.18.18,0,0,0,.06.1l.09-.37c1-3.65,1.89-7.34,2.85-11a1.49,1.49,0,0,1,.15-.4A.7.7,0,0,1,197,307h1.83a.37.37,0,0,1,.42.32.55.55,0,0,1,0,.18l-.1.46c-1.39,4.45-2.78,8.94-4.17,13.39a1.07,1.07,0,0,1-.13.31.69.69,0,0,1-.71.5h-1.85a.73.73,0,0,1-.71-.53c-.13-.4-.22-.8-.31-1.2q-1.2-5-2.42-10v-.15a3,3,0,0,1-.12.43c-.84,3.53-1.67,7.06-2.54,10.55a2.47,2.47,0,0,1-.15.46.57.57,0,0,1-.56.38h-2a.64.64,0,0,1-.59-.4c-.12-.31-.24-.65-.34-1-1.3-4.21-2.56-8.45-3.83-12.65a5.126,5.126,0,0,1-.16-.65.37.37,0,0,1,.4-.5h1.89a.66.66,0,0,1,.65.43l.37,1.24c.87,3.43,1.73,6.87,2.63,10.3a.85.85,0,0,0,.09.22Z"/><path class="s" d="M188,337.28h-1.79a18.964,18.964,0,0,1-1.95-.16,32.356,32.356,0,0,1-4.27-.65,37.46,37.46,0,0,1-13.77-6,36.268,36.268,0,0,1-3.58-2.84,2.181,2.181,0,0,1-.25-.28.4.4,0,0,1,.46-.59,1.33,1.33,0,0,1,.34.16,48.528,48.528,0,0,0,6.38,3.06,44.441,44.441,0,0,0,6.86,2.17c1.21.27,2.42.52,3.65.74.8.15,1.64.24,2.48.34s1.42.15,2.16.21a14.993,14.993,0,0,0,1.77.1c.95,0,1.88.06,2.84.06s1.7-.06,2.54-.09,1.51-.13,2.26-.22a53.217,53.217,0,0,0,8.56-1.73,51.54,51.54,0,0,0,5.39-1.92,1,1,0,0,1,.68-.06.68.68,0,0,1,.52.81.67.67,0,0,1-.18.33,3.289,3.289,0,0,1-.59.47,28.431,28.431,0,0,1-4.64,2.66,37.907,37.907,0,0,1-5.75,2.07,36.84,36.84,0,0,1-4,.86c-.75.13-1.49.22-2.23.28s-1.74.16-2.6.19a9.4,9.4,0,0,1-1.3,0Z"/><path class="p" d="M174.28,320.24a.522.522,0,0,1-.13.12,6.26,6.26,0,0,1-3.4,2.07,6.19,6.19,0,0,1-3.59-.18,3.87,3.87,0,0,1-2.5-3,5.22,5.22,0,0,1,.12-2.66,4.35,4.35,0,0,1,2-2.44,5.72,5.72,0,0,1,2.45-.8,12.849,12.849,0,0,1,4,.28l.8.18h0a12.07,12.07,0,0,0-.16-2.75,6.448,6.448,0,0,0-.21-.62,2.24,2.24,0,0,0-1.61-1.24,6.79,6.79,0,0,0-2.2-.15,11.57,11.57,0,0,0-3.22.83,1.94,1.94,0,0,1-.62.19.36.36,0,0,1-.47-.21.3.3,0,0,1,0-.13v-1.12a.77.77,0,0,1,.43-.74,9.091,9.091,0,0,1,.9-.4,11.069,11.069,0,0,1,4.73-.74,7.88,7.88,0,0,1,2.54.52,4.1,4.1,0,0,1,2.38,2.66,7.06,7.06,0,0,1,.34,2.23v5.41a5.76,5.76,0,0,0,.77,3,.59.59,0,0,1-.1.84l-.08.06c-.37.27-.78.52-1.18.77a.7.7,0,0,1-.93-.19,6.53,6.53,0,0,1-1-1.54.35.35,0,0,0-.06-.25Zm-3.28-5a6,6,0,0,0-1.64.18,2.36,2.36,0,0,0-1.7,1.58,3.25,3.25,0,0,0-.1,1.42,2.06,2.06,0,0,0,1.7,1.86,4.79,4.79,0,0,0,3.4-.74,3,3,0,0,0,1.33-2,11.676,11.676,0,0,0,.1-1.77c0-.09,0-.12-.13-.15a11,11,0,0,0-2.96-.36Z"/><path class="s" d="M210.31,325.77a9.068,9.068,0,0,1,2.54.31c.22.06.4.16.62.22a.57.57,0,0,1,.37.46,4.851,4.851,0,0,1,.06.93,9.411,9.411,0,0,1-.28,1.83,11.3,11.3,0,0,1-2,4.33,8,8,0,0,1-1.08,1.17.69.69,0,0,1-.46.22c-.16,0-.28-.09-.25-.25a.85.85,0,0,1,.06-.31c.43-1.11.87-2.2,1.21-3.34a11.091,11.091,0,0,0,.43-2,2.59,2.59,0,0,0,0-.68.78.78,0,0,0-.5-.62,3.251,3.251,0,0,0-1-.25c-.46,0-.93-.06-1.42-.06s-1.08.06-1.61.1-1.11.09-1.67.15a3.071,3.071,0,0,1-.52.06h-.23a.25.25,0,0,1-.22-.27.42.42,0,0,1,0-.1,1.558,1.558,0,0,1,.31-.37,8.169,8.169,0,0,1,2.75-1.21,10.22,10.22,0,0,1,2.2-.3C209.82,325.8,210.06,325.77,210.31,325.77Z"/><path class="t" d="M122.58,198h1.89l5.39-5.39.26-2.29A24.24,24.24,0,0,0,90.7,202.17a3,3,0,0,1,1.89-.11l10.78-1.78s.55-.91.84-.85a13.44,13.44,0,0,1,18.4-1.4Z"/><path class="u" d="M137.54,202.17a24.29,24.29,0,0,0-7.32-11.8l-7.57,7.57a13.43,13.43,0,0,1,4.94,10.67V210a6.74,6.74,0,1,1,0,13.47H114.12l-1.34,1.36v8.08l1.34,1.34h13.47a17.52,17.52,0,0,0,9.95-32Z"/><path class="v" d="M100.63,234.13H114.1V223.35H100.63a6.67,6.67,0,0,1-2.78-.62l-1.89.59-5.43,5.39-.47,1.89a17.38,17.38,0,0,0,10.57,3.52Z"/><path class="w" d="M100.63,199.15a17.52,17.52,0,0,0-10.58,31.4l7.82-7.81a6.73,6.73,0,1,1,8.91-8.92l7.81-7.81a17.47,17.47,0,0,0-13.96-6.86Z"/><path class="p" d="M70.59,260.32a6.87,6.87,0,0,1-5-2.05,6.57,6.57,0,0,1-2.09-4.91,6.64,6.64,0,0,1,2.09-4.92,6.88,6.88,0,0,1,5-2.08,6.7,6.7,0,0,1,4.78,1.92L74,249.65a4.84,4.84,0,0,0-3.43-1.36,4.76,4.76,0,0,0-3.55,1.51,5.042,5.042,0,0,0,7.06,7.2,4,4,0,0,0,1-2.35H70.61v-1.93H77a6.68,6.68,0,0,1,.07,1.18,6,6,0,0,1-1.65,4.45,6.45,6.45,0,0,1-4.83,1.97ZM85.47,259a4.518,4.518,0,1,1,0-6.4,4.59,4.59,0,0,1,0,6.4Zm-5-1.25a2.45,2.45,0,0,0,3.45.11l.11-.11a2.7,2.7,0,0,0,.76-1.95,2.67,2.67,0,0,0-.76-2,2.48,2.48,0,0,0-3.5-.08l-.08.08a2.9,2.9,0,0,0,0,3.9ZM95.29,259a4.522,4.522,0,1,1,0-6.4,4.32,4.32,0,0,1,1.3,3.2,4.27,4.27,0,0,1-1.3,3.2Zm-5-1.25a2.45,2.45,0,0,0,3.45.11l.12-.11a2.73,2.73,0,0,0,.75-1.95,2.7,2.7,0,0,0-.75-2,2.49,2.49,0,0,0-3.51-.08l-.07.08a2.87,2.87,0,0,0,0,3.9Zm11.43,6.56a3.92,3.92,0,0,1-2.51-.8,4.64,4.64,0,0,1-1.46-1.85l1.72-.72a2.87,2.87,0,0,0,.85,1.13,2.18,2.18,0,0,0,1.41.47,2.27,2.27,0,0,0,1.76-.68,2.78,2.78,0,0,0,.62-2v-.65h-.07a2.87,2.87,0,0,1-2.36,1,4.1,4.1,0,0,1-3-1.31,4.54,4.54,0,0,1,0-6.34,4.06,4.06,0,0,1,3-1.32,3.17,3.17,0,0,1,1.39.31,2.78,2.78,0,0,1,1,.71h.07v-.71H106v8a4.69,4.69,0,0,1-1.2,3.5,4.21,4.21,0,0,1-3.07,1.17Zm.14-5.79a2.18,2.18,0,0,0,1.7-.75,2.78,2.78,0,0,0,.69-1.93,2.85,2.85,0,0,0-.69-2,2.18,2.18,0,0,0-1.7-.75,2.32,2.32,0,0,0-1.77.75,2.73,2.73,0,0,0-.75,1.95,2.67,2.67,0,0,0,.75,1.93,2.34,2.34,0,0,0,1.77.77Zm7.45-11.68V260h-2V246.87Zm5.4,13.45a4.28,4.28,0,0,1-3.17-1.29,4.36,4.36,0,0,1-1.28-3.2,4.45,4.45,0,0,1,1.23-3.23,4.08,4.08,0,0,1,3-1.26,3.86,3.86,0,0,1,1.5.3,3.56,3.56,0,0,1,1.16.75,5.42,5.42,0,0,1,.75.91,5,5,0,0,1,.45.89l.2.51-6,2.48a2.26,2.26,0,0,0,2.17,1.36,2.58,2.58,0,0,0,2.21-1.25l1.51,1a5,5,0,0,1-1.45,1.37,4.06,4.06,0,0,1-2.27.63Zm-2.52-4.62,4-1.67a1.46,1.46,0,0,0-.63-.69,2,2,0,0,0-1-.26,2.3,2.3,0,0,0-1.63.72,2.4,2.4,0,0,0-.73,1.9Zm16.69,4.62a6.22,6.22,0,0,1-6.32-6.11V254a6.21,6.21,0,0,1,6.07-6.35,1,1,0,0,1,.25,0,5.59,5.59,0,0,1,4.47,2l-1.09,1.05a4.08,4.08,0,0,0-3.37-1.54,4.58,4.58,0,0,0-3.36,1.34,5.18,5.18,0,0,0,0,7,4.59,4.59,0,0,0,3.35,1.35,4.82,4.82,0,0,0,3.77-1.77l1.09,1.09a5.94,5.94,0,0,1-2.09,1.59,6.48,6.48,0,0,1-2.77.59Zm7.78-.28H135.1V247.87h1.56Zm2.55-7.32a4.74,4.74,0,1,1-1.21,3.16,4.36,4.36,0,0,1,1.23-3.13Zm1.16,5.35a2.63,2.63,0,0,0,3.72.1l.1-.1a3.35,3.35,0,0,0,0-4.37,2.63,2.63,0,0,0-3.72-.1.47.47,0,0,0-.1.1,3.34,3.34,0,0,0,0,4.36Zm14.84,2H153.7v-1.16h0a2.89,2.89,0,0,1-1.1,1,3.11,3.11,0,0,1-1.55.42,2.92,2.92,0,0,1-2.36-1,3.8,3.8,0,0,1-.81-2.55v-5.13h1.56v4.84c0,1.55.69,2.33,2.06,2.33a1.9,1.9,0,0,0,1.58-.75,2.82,2.82,0,0,0,.61-1.8v-4.62h1.56V260Zm5.3.27a3.69,3.69,0,0,1-2.79-1.28,4.84,4.84,0,0,1,0-6.31,3.66,3.66,0,0,1,2.79-1.28,3.54,3.54,0,0,1,1.71.41,2.85,2.85,0,0,1,1.13,1h.06l-.06-1.16v-3.85h1.56V260H163.4v-1.15h-.07a2.85,2.85,0,0,1-1.13,1,3.669,3.669,0,0,1-1.69.41Zm.26-1.43a2.47,2.47,0,0,0,1.87-.81,3.54,3.54,0,0,0,0-4.38,2.54,2.54,0,0,0-3.6-.17l-.16.17a3.521,3.521,0,0,0,0,4.37,2.51,2.51,0,0,0,1.89.82Z"/><path class="x" d="M304,351.59V341.11a16.65,16.65,0,0,0,15.45-22.68,15.72,15.72,0,0,0-9.35-9.32,16.65,16.65,0,0,0-22.68,15.45h-10.5a27.13,27.13,0,0,1,35.64-25.69,26.18,26.18,0,0,1,17.07,17.07A27.14,27.14,0,0,1,304,351.59Z"/><path class="y" d="M304,341.17H293.53V330.72H304Z"/><path class="y" d="M293.53,349.17h-8v-8h8Z"/><path class="y" d="M285.53,341.17h-6.71v-6.71h6.71Z"/><path class="p" d="M259.27,362.19a8.63,8.63,0,0,0-5-1.41H250v13.64h4.32a8.21,8.21,0,0,0,5-1.5,5.49,5.49,0,0,0,1.75-2.18,8.22,8.22,0,0,0,.61-3.21,8.091,8.091,0,0,0-.61-3.19,5,5,0,0,0-1.8-2.15Zm-6.8.89h1.34a7,7,0,0,1,3.68.89,3.936,3.936,0,0,1,1.56,3.55,4.23,4.23,0,0,1-1.56,3.71h0a6.65,6.65,0,0,1-3.65.89h-1.38Z"/><path class="p" d="M264.63,360.6a1.47,1.47,0,0,0-1.07.43,1.37,1.37,0,0,0-.43,1,1.49,1.49,0,0,0,.43,1.07,1.47,1.47,0,0,0,1.07.43,1.58,1.58,0,0,0,1.07-.43,1.47,1.47,0,0,0,.43-1.07,1.4,1.4,0,0,0-.43-1,1.53,1.53,0,0,0-1.07-.43Z"/><rect class="p" width="2.42" height="9.62" transform="translate(263.41 364.8)"/><path class="p" d="M274.62,365.59a3.71,3.71,0,0,0-2.42-1,4.32,4.32,0,0,0-3.31,1.38,4.83,4.83,0,0,0-1.32,3.46,4.92,4.92,0,0,0,1.29,3.44,4.43,4.43,0,0,0,3.31,1.34,3.73,3.73,0,0,0,2.39-.76v.21a2.52,2.52,0,0,1-.64,1.84,2.36,2.36,0,0,1-1.75.65,3.07,3.07,0,0,1-2.67-1.6l-1.65,1.6v.06a6.19,6.19,0,0,0,1.62,1.44,4.94,4.94,0,0,0,2.7.7,4.66,4.66,0,0,0,3.47-1.32,4.82,4.82,0,0,0,1.28-3.5V364.8h-2.39v.83Zm-.64,5.7a2.306,2.306,0,0,1-3.31,0,2.69,2.69,0,0,1-.61-1.87,2.85,2.85,0,0,1,.61-1.9,2.06,2.06,0,0,1,1.65-.7,2.16,2.16,0,0,1,1.66.7,2.81,2.81,0,0,1,.64,1.9,2.7,2.7,0,0,1-.64,1.87Z"/><rect class="p" width="2.42" height="9.62" transform="translate(279.07 364.8)"/><path class="p" d="M280.29,360.6a1.49,1.49,0,0,0-1.07.43,1.4,1.4,0,0,0-.43,1,1.53,1.53,0,0,0,.43,1.07,1.47,1.47,0,0,0,1.07.43,1.58,1.58,0,0,0,1.07-.43,1.43,1.43,0,0,0,.43-1.07,1.4,1.4,0,0,0-.43-1,1.47,1.47,0,0,0-1.07-.43Z"/><path class="p" d="M286.79,362.19H284.4v2.6H283V367h1.38v4a3.91,3.91,0,0,0,.73,2.67,3.54,3.54,0,0,0,2.6.76H289v-2.2h-.82a1.5,1.5,0,0,1-1.14-.31,2.08,2.08,0,0,1-.27-1.29V367h2.26v-2.21h-2.26Z"/><rect class="p" width="2.42" height="13.67" transform="translate(300.4 360.75)"/><path class="p" d="M327.27,371a6.519,6.519,0,0,1-1.22,1.13h0a2.34,2.34,0,0,1-1.26.34,2.16,2.16,0,0,1-1.75-.8,3.05,3.05,0,0,1-.7-2,3,3,0,0,1,.7-2,2.28,2.28,0,0,1,1.75-.8,3.22,3.22,0,0,1,2.3,1.32l1.59-1.53h0a4.86,4.86,0,0,0-6.8-1.05,4.638,4.638,0,0,0-.58.5,4.8,4.8,0,0,0-1.41,3.58,5,5,0,0,0,1.41,3.59,4.71,4.71,0,0,0,3.43,1.44,4.9,4.9,0,0,0,4.14-2.15Z"/><path class="p" d="M337.23,366.14a3.39,3.39,0,0,0-1.38-1.13,4.689,4.689,0,0,0-2-.43,4.1,4.1,0,0,0-3.28,1.47,5.58,5.58,0,0,0-1.22,3.62,5,5,0,0,0,1.32,3.58,4.56,4.56,0,0,0,3.49,1.38,4.84,4.84,0,0,0,4-2l.06-.06-1.59-1.53h0c-.15.18-.37.37-.55.55a3.531,3.531,0,0,1-.7.52,2.61,2.61,0,0,1-1.23.28,2.32,2.32,0,0,1-1.65-.58,2.25,2.25,0,0,1-.7-1.47h6.4v-.89a6.7,6.7,0,0,0-.24-1.78,5.159,5.159,0,0,0-.73-1.53Zm-5.3,2.27a2.31,2.31,0,0,1,.65-1.13,1.68,1.68,0,0,1,1.25-.49,1.74,1.74,0,0,1,1.35.49,1.84,1.84,0,0,1,.49,1.13Z"/><path class="p" d="M346.52,365.53h0a4.58,4.58,0,0,0-3-.95,5.11,5.11,0,0,0-2.24.52,3.93,3.93,0,0,0-1.65,1.53h0l1.56,1.47a2.51,2.51,0,0,1,2.3-1.38,1.85,1.85,0,0,1,1.26.4,1.34,1.34,0,0,1,.49,1v.46a6.359,6.359,0,0,0-1.78-.28,4.78,4.78,0,0,0-2.91.83,2.88,2.88,0,0,0-1.1,2.42,2.68,2.68,0,0,0,.95,2.18,3.64,3.64,0,0,0,2.33.8,4.11,4.11,0,0,0,2.57-1v.8h2.39v-6.19a3.7,3.7,0,0,0-1.17-2.61Zm-4.29,5.21a2.05,2.05,0,0,1,1.16-.27,5.749,5.749,0,0,1,1.84.33v.95a3,3,0,0,1-2.08.74,1.54,1.54,0,0,1-1-.28.87.87,0,0,1-.34-.7.84.84,0,0,1,.4-.77Z"/><path class="p" d="M356.94,365.72a3.57,3.57,0,0,0-2.82-1.14,3.28,3.28,0,0,0-2.33.83v-.58h-2.36v9.59h2.42v-5.3a2.64,2.64,0,0,1,.52-1.72,1.76,1.76,0,0,1,1.44-.61,1.52,1.52,0,0,1,1.26.55,2.31,2.31,0,0,1,.46,1.5v5.58H358v-5.58A4.47,4.47,0,0,0,356.94,365.72Z"/><path class="p" d="M297.36,365.53h0a4.56,4.56,0,0,0-3-.95,5.07,5.07,0,0,0-2.23.52,4,4,0,0,0-1.66,1.53h0l1.56,1.47a2.52,2.52,0,0,1,2.3-1.38,1.85,1.85,0,0,1,1.26.4,1.34,1.34,0,0,1,.49,1v.46a6.25,6.25,0,0,0-1.78-.28,4.8,4.8,0,0,0-2.91.83,2.88,2.88,0,0,0-1.1,2.42,2.68,2.68,0,0,0,.95,2.18,3.64,3.64,0,0,0,2.33.8,4.16,4.16,0,0,0,2.58-1v.8h2.39v-6.19a3.75,3.75,0,0,0-1.18-2.61Zm-4.29,5.21a2.07,2.07,0,0,1,1.17-.27,5.851,5.851,0,0,1,1.84.33v.95a3,3,0,0,1-2.09.74,1.56,1.56,0,0,1-1-.28.92.92,0,0,1,.06-1.47Z"/><path class="p" d="M311.61,374.64a7,7,0,1,1,7.05-7.05,7,7,0,0,1-7.05,7.05Zm0-11.62a4.57,4.57,0,1,0,4.57,4.57h0a4.59,4.59,0,0,0-4.57-4.57Z"/><path class="z" d="M389.05,239.3a19.6,19.6,0,1,0-38.48,5.24h0c.18.61.37,1.22.61,1.83a.8.8,0,0,0,.75.52h5.33a.83.83,0,0,0,.8-.8.93.93,0,0,0-.1-.37c-.19-.38-.37-.76-.56-1.18h0a13.147,13.147,0,0,1,24-10.74l.12.27a12.94,12.94,0,0,1,0,10.42h0a10.12,10.12,0,0,1-.62,1.23.77.77,0,0,0,.29,1,.93.93,0,0,0,.37.1H387a.74.74,0,0,0,.71-.47c.23-.62.42-1.23.61-1.89h0a17.529,17.529,0,0,0,.73-5.16Z"/><path class="aa" d="M391.79,213.27a24.82,24.82,0,0,0-24.86,24.78h0a26.271,26.271,0,0,0,.8,6.36h0a14.152,14.152,0,0,0,.57,1.89.77.77,0,0,0,.75.52h5.28a.8.8,0,0,0,.8-.8h0a.9.9,0,0,0-.09-.33,10.639,10.639,0,0,1-.52-1.32h0a18.4,18.4,0,1,1,34.573-12.6,18.67,18.67,0,0,1,0,12.6h0c-.19.47-.33.9-.57,1.37a.74.74,0,0,0,.36,1h0a.75.75,0,0,0,.33,0h5.33a.74.74,0,0,0,.71-.47,13.266,13.266,0,0,0,.56-1.93h0A24.82,24.82,0,0,0,398.24,214h0a28.79,28.79,0,0,0-6.45-.73Z"/><path class="z" d="M405.56,219.78a22.025,22.025,0,0,0-44.05,0,14.73,14.73,0,0,0,.09,2h6.46A15.548,15.548,0,1,1,399,218.69a8.534,8.534,0,0,1,0,1.13,4.8,4.8,0,0,1,0,.85h0a15.14,15.14,0,0,1-3.12,8.54.84.84,0,0,0,.13,1.17h0a1.13,1.13,0,0,0,.52.19h5.66a.92.92,0,0,0,.75-.43,21.31,21.31,0,0,0,2.5-9.43h0a3.34,3.34,0,0,0,.12-.93Z"/><path class="p" d="M361.4,274.1h-3.16V259.05h3.16Zm0-17.27h-3.12v-3h3.12v3"/><path class="p" d="M379.47,259.05l-4.39,13a3.28,3.28,0,0,1-6.32,0l-3.63-10.8h-1.46v-2.22h3.77l3.77,12.07c.14.52.29.8.71.8s.57-.33.71-.8l3.87-12.07h3"/><path class="p" d="M387.2,272a3.85,3.85,0,0,0,3.92-3.78v-2.63a3.85,3.85,0,0,0-3.65-4.05h-.27a3.75,3.75,0,0,0-3.92,3.56,2.789,2.789,0,0,0,0,.5v2.36a3.8,3.8,0,0,0,3.53,4.05h.38m0-12.92c4.06,0,6.89,2.69,6.89,6.51v2.36c0,3.82-2.83,6.51-6.89,6.51s-6.88-2.69-6.88-6.51V265.6c0-3.82,2.83-6.51,6.88-6.51"/><path class="p" d="M419.13,259.52a25.721,25.721,0,0,0-5.8-.71c-4.1,0-6.7,2.6-6.7,6.8v1.65c0,4.2,2.55,6.84,6.7,6.84a11.326,11.326,0,0,0,1.18-.05V271.5l-1.18.05c-2.26,0-3.72-1.75-3.72-4.29v-1.65c0-2.6,1.51-4.3,3.72-4.3a26.221,26.221,0,0,1,3.07.19l.19.05V274.1h3.11V260c0-.28,0-.38-.56-.52"/><path class="p" d="M422.72,274.1h3.11V253.82h-3.11Z"/><path class="p" d="M347.35,253.82h-5.52V274.1h3.25V256.65H347a7.8,7.8,0,0,1,1.08,0c2.83.05,4.2,1.18,4.2,3.4v.24c0,2-1.13,3.4-4.2,3.4h-.9v2.73c.33,0,.62.05.95.05,4.43,0,7.54-1.74,7.54-6.08v-.29c-.05-4.62-3.44-6.32-8.35-6.32"/><path class="p" d="M399.65,255.8v3.25h5.14v2.45h-5.14v8.78c0,1.36.9,1.41,2.17,1.41h3v2.45h-4c-3,0-4.3-1.17-4.3-3.86v-14l3.16-.47"/></g></svg>