<svg xmlns="http://www.w3.org/2000/svg" xmlns:xlink="http://www.w3.org/1999/xlink" width="501.01" height="501" viewBox="0 0 501.01 501"><defs><style>.a{fill:#231f20;stroke:#231f20;stroke-miterlimit:10;opacity:0;}.b{fill:url(#a);}.c{fill:url(#b);}.d{fill:url(#c);}.e{fill:url(#d);}.f{fill:url(#e);}.g{opacity:0.5;fill:url(#f);}.h{fill:url(#g);}.i{fill:url(#h);}.j{fill:url(#i);}.k{fill:url(#j);}.l{fill:url(#k);}.m{fill:url(#l);}.n{fill:url(#m);}.o{fill:url(#n);}.p{fill:#63d8fc;}.q{fill:#478aff;}.r{fill:#fff;}.s{fill:url(#o);}.t{fill:url(#p);}.u{fill:#a4c639;}.v{fill:none;}.w{fill:#39cefd;}.x{fill:#03569b;}.y{fill:#16b9fd;}</style><radialGradient id="a" cx="252.141" cy="161.749" r="383.75" gradientTransform="translate(88.925 97.476) scale(0.647 0.397)" gradientUnits="userSpaceOnUse"><stop offset="0" stop-color="#fff" stop-opacity="0.502"/><stop offset="0.27" stop-color="#c9c8c9" stop-opacity="0.38"/><stop offset="0.87" stop-color="#413e3f" stop-opacity="0.071"/><stop offset="1" stop-color="#231f20" stop-opacity="0"/></radialGradient><linearGradient id="b" x1="0.5" y1="0.989" x2="0.5" y2="0.025" gradientUnits="objectBoundingBox"><stop offset="0" stop-color="#fff" stop-opacity="0.502"/><stop offset="0.11" stop-color="#d0cfcf" stop-opacity="0.388"/><stop offset="0.29" stop-color="#929090" stop-opacity="0.251"/><stop offset="0.47" stop-color="#615e5f" stop-opacity="0.141"/><stop offset="0.65" stop-color="#3f3b3c" stop-opacity="0.059"/><stop offset="0.82" stop-color="#2a2627" stop-opacity="0.02"/><stop offset="1" stop-color="#231f20" stop-opacity="0"/></linearGradient><linearGradient id="c" x1="0.434" y1="0.188" x2="0.562" y2="0.308" gradientUnits="objectBoundingBox"><stop offset="0" stop-color="#fff" stop-opacity="0.302"/><stop offset="0.12" stop-color="#fff" stop-opacity="0.22"/><stop offset="0.32" stop-color="#fff" stop-opacity="0.129"/><stop offset="0.53" stop-color="#fff" stop-opacity="0.059"/><stop offset="0.75" stop-color="#fff" stop-opacity="0.012"/><stop offset="1" stop-color="#fff" stop-opacity="0"/></linearGradient><linearGradient id="d" x1="0.588" y1="0.826" x2="0.411" y2="0.673" gradientUnits="objectBoundingBox"><stop offset="0" stop-color="#fff" stop-opacity="0.302"/><stop offset="0.02" stop-color="#fff" stop-opacity="0.278"/><stop offset="0.15" stop-color="#fff" stop-opacity="0.18"/><stop offset="0.3" stop-color="#fff" stop-opacity="0.102"/><stop offset="0.47" stop-color="#fff" stop-opacity="0.039"/><stop offset="0.67" stop-color="#fff" stop-opacity="0.012"/><stop offset="1" stop-color="#fff" stop-opacity="0"/></linearGradient><linearGradient id="e" x1="0.008" y1="0.5" x2="0.982" y2="0.5" gradientUnits="objectBoundingBox"><stop offset="0" stop-color="#fff" stop-opacity="0.898"/><stop offset="0.03" stop-color="#fff" stop-opacity="0.769"/><stop offset="0.11" stop-color="#fff" stop-opacity="0.49"/><stop offset="0.18" stop-color="#fff" stop-opacity="0.278"/><stop offset="0.23" stop-color="#fff" stop-opacity="0.149"/><stop offset="0.25" stop-color="#fff" stop-opacity="0.102"/><stop offset="0.33" stop-color="#fff" stop-opacity="0.369"/><stop offset="0.51" stop-color="#fff"/><stop offset="0.68" stop-color="#fff" stop-opacity="0.471"/><stop offset="0.8" stop-color="#fff" stop-opacity="0.102"/><stop offset="0.82" stop-color="#fff" stop-opacity="0.129"/><stop offset="0.85" stop-color="#fff" stop-opacity="0.2"/><stop offset="0.89" stop-color="#fff" stop-opacity="0.322"/><stop offset="0.92" stop-color="#fff" stop-opacity="0.49"/><stop offset="0.96" stop-color="#fff" stop-opacity="0.698"/><stop offset="1" stop-color="#fff" stop-opacity="0.898"/></linearGradient><linearGradient id="f" x1="0.008" y1="1.717" x2="0.982" y2="1.717" gradientUnits="objectBoundingBox"><stop offset="0" stop-color="#fff" stop-opacity="0.502"/><stop offset="0.03" stop-color="#fff" stop-opacity="0.431"/><stop offset="0.13" stop-color="#fff" stop-opacity="0.231"/><stop offset="0.21" stop-color="#fff" stop-opacity="0.102"/><stop offset="0.25" stop-color="#fff" stop-opacity="0.051"/><stop offset="0.51" stop-color="#fff" stop-opacity="0.251"/><stop offset="0.81" stop-color="#fff" stop-opacity="0.051"/><stop offset="0.83" stop-color="#fff" stop-opacity="0.078"/><stop offset="0.85" stop-color="#fff" stop-opacity="0.149"/><stop offset="0.89" stop-color="#fff" stop-opacity="0.271"/><stop offset="0.92" stop-color="#fff" stop-opacity="0.439"/><stop offset="0.96" stop-color="#fff" stop-opacity="0.651"/><stop offset="1" stop-color="#fff" stop-opacity="0.898"/></linearGradient><linearGradient id="g" x1="1.173" y1="0.623" x2="0.831" y2="0.379" gradientUnits="objectBoundingBox"><stop offset="0" stop-color="#fff" stop-opacity="0.251"/><stop offset="0.01" stop-color="#fff" stop-opacity="0.251"/><stop offset="0.25" stop-color="#fff" stop-opacity="0.141"/><stop offset="0.5" stop-color="#fff" stop-opacity="0.059"/><stop offset="0.75" stop-color="#fff" stop-opacity="0.02"/><stop offset="1" stop-color="#fff" stop-opacity="0"/></linearGradient><linearGradient id="h" x1="-0.179" y1="0.629" x2="0.156" y2="0.388" gradientUnits="objectBoundingBox"><stop offset="0" stop-color="#fff" stop-opacity="0.251"/><stop offset="0.24" stop-color="#fff" stop-opacity="0.149"/><stop offset="0.5" stop-color="#fff" stop-opacity="0.071"/><stop offset="0.75" stop-color="#fff" stop-opacity="0.02"/><stop offset="1" stop-color="#fff" stop-opacity="0"/></linearGradient><linearGradient id="i" x1="0.596" y1="0.082" x2="0.535" y2="0.346" gradientUnits="objectBoundingBox"><stop offset="0" stop-color="#fff" stop-opacity="0.2"/><stop offset="0.16" stop-color="#fff" stop-opacity="0.141"/><stop offset="0.44" stop-color="#fff" stop-opacity="0.059"/><stop offset="0.72" stop-color="#fff" stop-opacity="0.02"/><stop offset="1" stop-color="#fff" stop-opacity="0"/></linearGradient><radialGradient id="j" cx="33.18" cy="7.523" r="164.366" gradientTransform="translate(26.69 7.258) scale(0.196 0.035)" gradientUnits="userSpaceOnUse"><stop offset="0" stop-color="#231f20" stop-opacity="0.502"/><stop offset="1" stop-color="#231f20" stop-opacity="0"/></radialGradient><radialGradient id="k" cx="33.18" cy="7.803" r="164.366" gradientTransform="translate(26.69 7.528) scale(0.196 0.035)" xlink:href="#j"/><radialGradient id="l" cx="33.18" cy="7.526" r="164.366" gradientTransform="translate(26.69 7.261) scale(0.196 0.035)" xlink:href="#j"/><radialGradient id="m" cx="33.18" cy="7.278" r="164.366" gradientTransform="translate(26.69 7.022) scale(0.196 0.035)" xlink:href="#j"/><radialGradient id="n" cx="33.18" cy="7.048" r="164.366" gradientTransform="translate(26.69 6.799) scale(0.196 0.035)" xlink:href="#j"/><linearGradient id="o" x1="-42.528" y1="1.955" x2="-42.525" y2="1.972" gradientUnits="objectBoundingBox"><stop offset="0" stop-color="#faae42"/><stop offset="1" stop-color="#ef3e31"/></linearGradient><linearGradient id="p" x1="-49.65" y1="2.495" x2="-49.653" y2="2.476" gradientUnits="objectBoundingBox"><stop offset="0" stop-color="#e39f3a"/><stop offset="1" stop-color="#d33929"/></linearGradient></defs><g transform="translate(0.51 0.5)"><rect class="a" width="500" height="500"/><rect class="b" width="500.2" height="323.79" transform="translate(-0.51 175.05)"/><path class="c" d="M249.59,449.56l241.83-145.1L249.59,159.37,7.76,304.46Z"/><path class="d" d="M249.59,159.37,7.76,304.46l241.83,145.1Z"/><path class="e" d="M249.59,159.37,491.42,304.46,249.59,449.56Z"/><path class="f" d="M249.59,452.68l241.83-145.1v-3.12L249.59,449.56,7.76,304.46v3.12Z"/><path class="g" d="M249.59,159.35l241.83,145.1v3.11L249.59,162.47,7.76,307.56v-3.11Z"/><path class="h" d="M491.42,304.46v-200H249.59v54.91Z"/><path class="i" d="M7.76,304.46v-200H249.59v54.91Z"/><path class="j" d="M249.59,449.56,491.42,304.47,249.59,159.37,7.76,304.47Z"/><ellipse class="k" cx="33.18" cy="6.49" rx="33.18" ry="6.49" transform="translate(330.96 333.45)"/><ellipse class="l" cx="33.18" cy="6.49" rx="33.18" ry="6.49" transform="translate(219.82 401.2)"/><ellipse class="m" cx="33.18" cy="6.49" rx="33.18" ry="6.49" transform="translate(106.31 331.95)"/><ellipse class="n" cx="33.18" cy="6.49" rx="33.18" ry="6.49" transform="translate(241.78 272.95)"/><ellipse class="o" cx="33.18" cy="6.49" rx="33.18" ry="6.49" transform="translate(157 217.53)"/><path class="p" d="M234.88,310.2a6.82,6.82,0,0,0-5.75,3.33L211,345a6.84,6.84,0,0,0,0,6.65l18.13,31.49a6.79,6.79,0,0,0,5.74,3.32h36.26a6.79,6.79,0,0,0,5.75-3.32L295,351.67a6.84,6.84,0,0,0,0-6.65l-18.13-31.49a6.82,6.82,0,0,0-5.75-3.33Zm.32,18.43h6.41a.82.82,0,0,1,.68.4l10.61,18.91a.67.67,0,0,1,.1.3,1.059,1.059,0,0,1,.1-.3L263.69,329a.83.83,0,0,1,.71-.4h6.25a.85.85,0,0,1,.78.92.77.77,0,0,1-.07.27L261,348.34l10.36,18.5A.86.86,0,0,1,271,368a.74.74,0,0,1-.3.08h-6.3a.81.81,0,0,1-.71-.43L253.1,348.72a1,1,0,0,1-.1-.3.63.63,0,0,1-.1.3l-10.61,18.91a.8.8,0,0,1-.68.43h-6.25a.85.85,0,0,1-.79-.92.84.84,0,0,1,.08-.3L245,348.34l-10.35-18.52a.84.84,0,0,1,.39-1.13.52.52,0,0,1,.16-.06Z"/><path class="q" d="M137.33,254.62a10.72,10.72,0,1,0,7.6,3.136,10.73,10.73,0,0,0-7.6-3.136Z"/><circle class="q" cx="4.89" cy="4.89" r="4.89" transform="translate(147.85 245.79)"/><path class="q" d="M158.76,255.6l-.2-.45-.32.37a7.35,7.35,0,0,1-3,2l-.32.11.12.32a19.23,19.23,0,1,1-9.51-10l.3.15.13-.32a7.41,7.41,0,0,1,2.17-2.85l.38-.32-.44-.23a23.31,23.31,0,0,0-10.8-2.62,23.57,23.57,0,1,0,21.43,13.78Z"/><rect class="r" width="4.97" height="20.5" transform="translate(97.17 299.68)"/><rect class="r" width="4.97" height="20.5" transform="translate(150.76 299.68)"/><path class="r" d="M139.29,299.2a10.78,10.78,0,0,0-6.81,2.68h0l-.32-2.2H128v20.5h5V307.77c0-2.43,3.3-4.43,5.72-4.43s4.24,2.31,4.24,5.07v11.77h5V308.9C147.91,303.52,145.59,299.2,139.29,299.2Z"/><path class="r" d="M168.76,316.45c-3.73,0-6.2-2.92-6.2-6.52s2.47-6.53,6.2-6.53c3.19,0,5.13,3.09,5.13,3.09l3.6-2.41a11,11,0,0,0-3.89-3.55,9.11,9.11,0,0,0-4.69-1.33,10.732,10.732,0,0,0-.46,21.46h.46a9.06,9.06,0,0,0,4.67-1.33,10.89,10.89,0,0,0,3.89-3.56l-3.6-2.4S172,316.45,168.76,316.45Z"/><path class="r" d="M115.09,299.2A10.73,10.73,0,1,0,125.81,310a10.57,10.57,0,0,0-10.37-10.77Zm.06,4.21a6.528,6.528,0,0,1,.14,13.03h-.15c-3.41,0-6.08-2.74-6.08-6.54a6.18,6.18,0,0,1,5.86-6.49h.24Z"/><path class="s" d="M253,197.65h35.44a15,15,0,0,1,5,.85,14.22,14.22,0,0,1,9.15,11.15,17.228,17.228,0,0,1,.17,2.78V247a16.523,16.523,0,0,1-.27,3.3,14.24,14.24,0,0,1-9.62,10.7,14.769,14.769,0,0,1-4.48.65h-36a14.34,14.34,0,0,1-7.2-2.37,14.49,14.49,0,0,1-4.88-5.6,14.14,14.14,0,0,1-1.42-6.23V211.87a13.26,13.26,0,0,1,1.33-6.12,14.16,14.16,0,0,1,12-8.05,4.3,4.3,0,0,1,.78-.05Z"/><path class="t" d="M292.75,250a10.7,10.7,0,0,0-.75-1,10.49,10.49,0,0,0-2.15-2,6.58,6.58,0,0,0-3.37-1.15,6.079,6.079,0,0,0-2.5.4,18.163,18.163,0,0,0-2.33,1.07c-.87.45-1.75.9-2.67,1.28a19.551,19.551,0,0,1-3.42,1,21.44,21.44,0,0,1-4.45.35,29.28,29.28,0,0,1-14.32-4,33.92,33.92,0,0,1-5-3.52,36.76,36.76,0,0,1-3.54-3.52c-.75-.88-1.47-1.8-2.15-2.75a13.084,13.084,0,0,1-.75-1.18l-6.6-7.12V211.82a14.16,14.16,0,0,1,14.14-14.17h12.63l9.34,9.5c21.09,14.34,14.27,30.16,14.27,30.16S295.15,244.06,292.75,250Z"/><path class="r" d="M274.93,207.15c21.09,14.34,14.27,30.16,14.27,30.16s6,6.77,3.58,12.7c0,0-2.48-4.15-6.63-4.15-4,0-6.34,4.15-14.39,4.15-17.92,0-26.39-15-26.39-15,16.14,10.62,27.16,3.1,27.16,3.1-7.27-4.22-22.74-24.41-22.74-24.41,13.47,11.47,19.29,14.49,19.29,14.49-3.47-2.88-13.21-16.92-13.21-16.92,7.8,7.9,23.29,18.92,23.29,18.92C283.55,218,274.93,207.15,274.93,207.15Z"/><path class="u" d="M179.83,178.27a4.6,4.6,0,0,1,4.62,4.58v19.74a4.62,4.62,0,1,1-9.23.14v-19.9A4.65,4.65,0,0,1,179.83,178.27Z"/><path class="u" d="M169.35,154.57c0,.17-.06.34-.06.51v29.85a5.77,5.77,0,0,0,5.7,5.81h30.37a5.73,5.73,0,0,0,5.7-5.77v-30.4Z"/><path class="u" d="M200.57,178.27a4.6,4.6,0,0,1,4.62,4.58v19.74a4.62,4.62,0,1,1-9.23.14v-19.9a4.57,4.57,0,0,1,4.6-4.56Zm-38.62-21a4.59,4.59,0,0,1,4.61,4.58v19.74a4.62,4.62,0,0,1-9.23,0V161.8a4.66,4.66,0,0,1,4.62-4.55Zm56.51,0a4.59,4.59,0,0,1,4.61,4.58v19.74a4.611,4.611,0,1,1-9.22.14.33.33,0,0,1,0-.14V161.8a4.56,4.56,0,0,1,4.6-4.55Zm-48.94-4.68c.12-9.17,8.15-16.69,18.4-17.66h4.62c10.25,1,18.28,8.49,18.4,17.66Z"/><path class="u" d="M204.44,143.52a1.58,1.58,0,0,1-.51-.12,1,1,0,0,1-.4-1.42l4.85-8.37a1.047,1.047,0,1,1,1.84,1h0L205.36,143a1.1,1.1,0,0,1-.92.52Zm-28.48,0a1,1,0,0,1-.91-.52l-4.84-8.37a1.046,1.046,0,1,1,1.74-1.16.64.64,0,0,1,.08.14l4.84,8.37a1,1,0,0,1-.38,1.42h0a1.789,1.789,0,0,1-.49.12Z"/><path class="r" d="M184.05,144.37a2.41,2.41,0,0,1-2.39,2.34,2.37,2.37,0,0,1-2.4-2.33h0a2.36,2.36,0,0,1,2.38-2.33h0a2.4,2.4,0,0,1,2.39,2.33Zm17.72,0a2.42,2.42,0,0,1-2.4,2.34,2.36,2.36,0,0,1-2.39-2.33h0a2.35,2.35,0,0,1,2.38-2.33h0a2.39,2.39,0,0,1,2.39,2.33Z"/><path class="v" d="M388.9,279.31l-21.47,21.58,21.47,21.47H364.38L342.8,300.89l21.58-21.58Zm-24.52-36.84-40,40,12.31,12.31,52.21-52.31Z"/><path class="v" d="M388.9,279.31l-21.47,21.58,21.47,21.47H364.38L342.8,300.89l21.58-21.58Zm-24.52-36.84-40,40,12.31,12.31,52.21-52.31Z"/><path class="v" d="M388.9,279.31l-21.47,21.58,21.47,21.47H364.38L342.8,300.89l21.58-21.58Zm-24.52-36.84-40,40,12.31,12.31,52.21-52.31Z"/><path class="w" d="M342.8,300.89l12.31,12.31,33.79-33.89H364.38Z"/><path class="w" d="M364.38,242.47H389l-52.32,52.31-12.31-12.31Z"/><path class="x" d="M355.11,313.2l9.27,9.27H389l-21.58-21.58Z"/><path class="y" d="M342.8,300.89l12.31-12.32,12.32,12.32L355.11,313.2Z"/></g></svg>